<?xml version="1.0" encoding="UTF-8" standalone="no"?>
<!DOCTYPE svg PUBLIC "-//W3C//DTD SVG 1.1//EN"
"http://www.w3.org/Graphics/SVG/1.1/DTD/svg11.dtd">
<svg viewBox="0 0 935 1210" version="1.1" xmlns="http://www.w3.org/2000/svg" xmlns:xlink="http://www.w3.org/1999/xlink">
<defs>
<style type="text/css"><![CDATA[
.g1_77{
fill: none;
stroke: #000066;
stroke-width: 4.5833335;
stroke-linecap: butt;
stroke-linejoin: round;
}
.g2_77{
fill: none;
stroke: #000000;
stroke-width: 1.1458334;
stroke-linecap: butt;
stroke-linejoin: round;
}
.g3_77{
fill: none;
stroke: #000000;
stroke-width: 0.38194567;
stroke-linecap: square;
stroke-linejoin: miter;
stroke-miterlimit: 8;
}
.g4_77{
fill: #376092;
}
.g5_77{
fill: none;
stroke: #FF0000;
stroke-width: 3.4375;
stroke-linecap: butt;
stroke-linejoin: round;
stroke-miterlimit: 8;
}
]]></style>
</defs>
<path d="M100.5,103.5l794.1,0" class="g1_77" />
<path d="M84.6,1142.7l772.2,0" class="g2_77" />
<image preserveAspectRatio="none" x="112" y="112" width="715" height="319" xlink:href="img/1.png" />
<path d="M112.1,430.8l715.4,0l0,-318.7l-715.4,0l0,318.7Z" class="g3_77" />
<image preserveAspectRatio="none" x="112" y="552" width="715" height="235" xlink:href="img/2.png" />
<path d="M112.1,787.3l715.4,0l0,-235.1l-715.4,0l0,235.1Z" class="g3_77" />
<image preserveAspectRatio="none" x="112" y="839" width="690" height="232" xlink:href="img/3.png" />
<path d="M112.1,1071.5l689.9,0l0,-232.8l-689.9,0l0,232.8Z" class="g3_77" />
<path fill-rule="evenodd" d="M710.4,275.3c0,-12,10.3,-21.8,22.9,-21.8c12.7,0,23,9.8,23,21.8c0,12,-10.3,21.8,-23,21.8c-12.6,0,-22.9,-9.8,-22.9,-21.8Z" class="g4_77" />
<image preserveAspectRatio="none" x="719" y="267" width="29" height="17" xlink:href="img/4.png" />
<path d="M118,198.5l63,0l0,-29.8l-63,0l0,29.8Z" class="g5_77" />
<path d="M178.8,305.1l143.2,0L322,281l-143.2,0l0,24.1Z" class="g5_77" />
<path d="M366.7,348.6l423.9,0l0,-99.6l-423.9,0l0,99.6Z" class="g5_77" />
<path fill-rule="evenodd" d="M200.5,196.2c0,-12,10.3,-21.7,22.9,-21.7c12.7,0,23,9.7,23,21.7c0,12.1,-10.3,21.8,-23,21.8c-12.6,0,-22.9,-9.7,-22.9,-21.8Z" class="g4_77" />
<image preserveAspectRatio="none" x="209" y="188" width="29" height="17" xlink:href="img/5.png" />
<path d="M120.3,772.7l174.2,0l0,-32.1l-174.2,0l0,32.1Z" class="g5_77" />
<path fill-rule="evenodd" d="M340.3,750.9c0,-12,10.3,-21.8,22.9,-21.8c12.7,0,22.9,9.8,22.9,21.8c0,12,-10.2,21.8,-22.9,21.8c-12.6,0,-22.9,-9.8,-22.9,-21.8Z" class="g4_77" />
<image preserveAspectRatio="none" x="349" y="742" width="29" height="17" xlink:href="img/6.png" />
<path fill-rule="evenodd" d="M632.5,874.6c0,-12,10.3,-21.7,22.9,-21.7c12.7,0,22.9,9.7,22.9,21.7c0,12.1,-10.2,21.8,-22.9,21.8c-12.6,0,-22.9,-9.7,-22.9,-21.8Z" class="g4_77" />
<image preserveAspectRatio="none" x="641" y="866" width="29" height="17" xlink:href="img/7.png" />
<path d="M678.3,872.3l63.1,0l0,-29.7l-63.1,0l0,29.7Z" class="g5_77" />
<path d="M112.3,1054.5l664.6,0l0,-57.3l-664.6,0l0,57.3Z" class="g5_77" />
</svg>