<?xml version="1.0" encoding="UTF-8" standalone="no"?>
<!DOCTYPE svg PUBLIC "-//W3C//DTD SVG 1.1//EN"
"http://www.w3.org/Graphics/SVG/1.1/DTD/svg11.dtd">
<svg viewBox="0 0 909 1286" version="1.1" xmlns="http://www.w3.org/2000/svg" xmlns:xlink="http://www.w3.org/1999/xlink">
<defs>
<style type="text/css"><![CDATA[
.g1_6{
fill: none;
stroke: #000066;
stroke-width: 4.5833335;
stroke-linecap: butt;
stroke-linejoin: round;
}
.g2_6{
fill: none;
stroke: #000000;
stroke-width: 1.1458334;
stroke-linecap: butt;
stroke-linejoin: round;
}
.g3_6{
fill: #FFFFFF;
}
.g4_6{
}
.g5_6{
fill: none;
stroke: #FF0000;
stroke-width: 3.0555556;
stroke-linecap: butt;
stroke-linejoin: round;
}
.g6_6{
fill: #376092;
}
]]></style>
</defs>
<path d="M78.1,99.1l794,0.1" class="g1_6" />
<path d="M96.6,1224.5l772.1,0.1" class="g2_6" />
<path fill-rule="evenodd" d="M112.3,97l689.5,0l0,0.4l-689.5,0l0,-0.4Z" class="g3_6" />
<path fill-rule="evenodd" d="M112.3,489.1l689.5,0l0,0.5l-689.5,0l0,-0.5Z" class="g3_6" />
<path fill-rule="evenodd" d="M112.3,97.3l0.5,0l0,391.8l-0.5,0l0,-391.8Z" class="g3_6" />
<path fill-rule="evenodd" d="M801.3,97.3l0.5,0l0,391.8l-0.5,0l0,-391.8Z" class="g3_6" />
<image preserveAspectRatio="none" x="113" y="97" width="688" height="392" xlink:href="img/1.png" />
<path fill-rule="evenodd" d="M112.6,489.3l-0.3,0.3L112.3,97l0.3,0.3l0.2,0.1l0,391.7l-0.2,0.2Z" class="g4_6" />
<path fill-rule="evenodd" d="M801.5,489.3l-0.2,-0.2l0,-391.7l0.2,-0.1L801.8,97l0,392.6l-0.3,-0.3Z" class="g4_6" />
<path fill-rule="evenodd" d="M801.5,97.3l-0.2,0.1l-688.5,0l-0.2,-0.1L112.3,97l689.5,0l-0.3,0.3Z" class="g4_6" />
<path fill-rule="evenodd" d="M801.5,489.3l0.3,0.3l-689.5,0l0.3,-0.3l0.2,-0.2l688.5,0l0.2,0.2Z" class="g4_6" />
<path fill-rule="evenodd" d="M112.3,571.2l693,0l0,0.4l-693,0l0,-0.4Z" class="g3_6" />
<path fill-rule="evenodd" d="M112.3,966.7l693,0l0,0.5l-693,0l0,-0.5Z" class="g3_6" />
<path fill-rule="evenodd" d="M112.3,571.5l0.5,0l0,395.4l-0.5,0l0,-395.4Z" class="g3_6" />
<path fill-rule="evenodd" d="M804.8,571.5l0.5,0l0,395.4l-0.5,0l0,-395.4Z" class="g3_6" />
<image preserveAspectRatio="none" x="113" y="571" width="692" height="396" xlink:href="img/2.png" />
<path fill-rule="evenodd" d="M112.6,966.9l-0.3,0.3l0,-396l0.3,0.3l0.2,0.1l0,395.1l-0.2,0.2Z" class="g4_6" />
<path fill-rule="evenodd" d="M805,966.9l-0.2,-0.2l0,-395.1l0.2,-0.1l0.3,-0.3l0,396L805,966.9Z" class="g4_6" />
<path fill-rule="evenodd" d="M805,571.5l-0.2,0.1l-692,0l-0.2,-0.1l-0.3,-0.3l693,0l-0.3,0.3Z" class="g4_6" />
<path fill-rule="evenodd" d="M805,966.9l0.3,0.3l-693,0l0.3,-0.3l0.2,-0.2l692,0l0.2,0.2Z" class="g4_6" />
<path fill-rule="evenodd" d="M112.3,1023.4l567.3,0l0,0.3l-567.3,0l0,-0.3Z" class="g3_6" />
<path fill-rule="evenodd" d="M112.3,1208.6l567.3,0l0,0.4l-567.3,0l0,-0.4Z" class="g3_6" />
<path fill-rule="evenodd" d="M112.3,1023.7l0.5,0l0,184.9l-0.5,0l0,-184.9Z" class="g3_6" />
<path fill-rule="evenodd" d="M679.1,1023.7l0.5,0l0,184.9l-0.5,0l0,-184.9Z" class="g3_6" />
<image preserveAspectRatio="none" x="113" y="970" width="566" height="238" xlink:href="img/3.png" />
<path fill-rule="evenodd" d="M112.6,1208.7l-0.3,0.3l0,-185.6l0.3,0.3l0.2,0.2l0,184.7l-0.2,0.1Z" class="g4_6" />
<path fill-rule="evenodd" d="M679.3,1208.7l-0.2,-0.1l0,-184.7l0.2,-0.2l0.3,-0.3l0,185.6l-0.3,-0.3Z" class="g4_6" />
<path fill-rule="evenodd" d="M679.3,1023.7l-0.2,0.2l-566.3,0l-0.2,-0.2l-0.3,-0.3l567.3,0l-0.3,0.3Z" class="g4_6" />
<path fill-rule="evenodd" d="M679.3,1208.7l0.3,0.3l-567.3,0l0.3,-0.3l0.2,-0.1l566.3,0l0.2,0.1Z" class="g4_6" />
<path d="M314,176.2l-34.4,0l0,-25l68.6,0l0,25l-34.2,0Z" class="g5_6" />
<path fill-rule="evenodd" d="M372.5,161l0,-1.4l0.1,-1.4l0.2,-1.4l0.3,-1.2l0.3,-1.4l0.3,-1.2l0.5,-1.4l0.6,-1.2l0.6,-1.2L376,148l0.8,-1.1l0.7,-1.1l0.9,-1l0.9,-1.1l1,-0.9l1,-0.9l1.1,-0.9l1.1,-1l1.2,-0.7l1.2,-0.6l1.2,-0.6l1.3,-0.7l1.3,-0.6l1.3,-0.4l1.3,-0.3l1.4,-0.3l1.4,-0.3l1.4,-0.2l1.5,-0.2l1.4,0l1.3,0l1.4,0.2l1.4,0.2l1.4,0.3l1.3,0.3l1.4,0.3l1.4,0.4l1.2,0.6l1.4,0.7l1.2,0.6l1.2,0.6l1.1,0.7l1.2,1l1.1,0.9l0.9,0.9l1.1,0.9l0.9,1.1l0.8,1l0.7,1.1l0.8,1.2l0.7,1.1l0.7,1.2l0.4,1.2l0.5,1.4l0.4,1.2l0.3,1.4l0.3,1.2l0.2,1.4l0.2,1.4l0,1.4l-0.2,0l0,1.3l-0.2,1.3l-0.1,1.3l-0.3,1.4l-0.3,1.2l-0.3,1.4l-0.5,1.2l-0.6,1.3l-0.6,1.2l-0.6,1.2l-0.8,1.1l-0.7,1.2l-1,1.1l-0.9,0.9l-0.9,1l-1.1,1l-1,0.9l-1.1,0.7l-1.2,0.8l-1.1,0.8l-1.4,0.6l-1.2,0.6L409,185l-1.4,0.4l-1.4,0.3l-1.3,0.3l-1.4,0.3l-1.4,0.2l-1.4,0.1l-1.3,0l-1.4,0l-1.5,-0.1l-1.4,-0.2L393.7,186l-1.4,-0.3L391,185.4L389.7,185l-1.3,-0.7l-1.3,-0.6l-1.2,-0.6l-1.2,-0.6l-1.2,-0.8l-1.1,-0.9l-1.1,-0.7l-1,-1l-1,-1l-0.9,-0.9l-0.7,-1.1l-0.9,-1.2l-0.7,-1.1l-0.7,-1.2l-0.6,-1.2l-0.5,-1.3l-0.6,-1.2l-0.3,-1.4l-0.3,-1.2l-0.3,-1.4l-0.2,-1.3l-0.1,-1.3l0,-1.3Z" class="g6_6" />
<path d="M502.5,355.1l-150.8,0l0,-29.7l301.4,0l0,29.7l-150.6,0Z" class="g5_6" />
<path fill-rule="evenodd" d="M679.6,386.8l0,-1.4l0.1,-1.4l0.2,-1.4l0.3,-1.2l0.3,-1.3l0.4,-1.3l0.5,-1.3l0.4,-1.3l0.7,-1.2l0.7,-1.2l0.8,-1.1l0.8,-1.1l0.7,-1l0.9,-1.1l1.1,-0.9l0.9,-0.9l1.1,-0.9l1.2,-1l1.1,-0.7l1.2,-0.6l1.2,-0.6l1.4,-0.7l1.2,-0.6l1.4,-0.4l1.4,-0.3l1.3,-0.3l1.4,-0.3l1.4,-0.2l1.4,-0.1l1.3,0l1.4,0l1.5,0.1l1.4,0.2l1.4,0.3l1.4,0.3l1.3,0.3l1.3,0.4l1.3,0.6l1.3,0.7l1.2,0.6l1.2,0.6l1.2,0.7l1.1,1l1.1,0.9l1,0.9l1,0.9l0.9,1.1l0.9,1l0.8,1.1l0.7,1.2l0.6,1.1l0.6,1.2l0.7,1.3l0.4,1.3l0.3,1.3l0.3,1.3l0.3,1.2l0.2,1.4l0.1,1.4l0,1.4l0,1.3l-0.1,1.3l-0.2,1.3l-0.3,1.4l-0.3,1.2l-0.4,1.4l-0.5,1.2l-0.5,1.3l-0.6,1.2l-0.7,1.2l-0.8,1.1l-0.8,1.2l-0.7,1.1l-0.9,0.9l-1.1,1.1l-0.9,0.9l-1.1,0.9l-1.2,0.8l-1.1,0.7l-1.2,0.8l-1.2,0.6l-1.3,0.6l-1.3,0.5l-1.3,0.4l-1.3,0.3l-1.4,0.3l-1.4,0.3l-1.4,0.2l-1.5,0.1l-1.4,0l-1.3,0l-1.4,-0.1l-1.4,-0.2l-1.4,-0.3l-1.3,-0.3l-1.4,-0.3l-1.4,-0.4l-1.2,-0.7l-1.4,-0.6L693,408.9l-1.1,-0.6l-1.2,-0.7l-1.1,-1l-1,-0.7L687.5,405l-0.9,-1.1L685.7,403l-0.9,-1.1L684,400.7l-0.8,-1.1l-0.6,-1.2L682,397.2l-0.6,-1.3l-0.5,-1.2l-0.4,-1.4l-0.3,-1.2l-0.3,-1.4l-0.2,-1.3l0,-1.3l-0.1,-1.3Z" class="g6_6" />
<path d="M242.3,964.9l-65.8,0l0,-39l131.7,0l0,39l-65.9,0Z" class="g5_6" />
<path fill-rule="evenodd" d="M310.6,919.7l0,-1.4l0.1,-1.2l0.2,-1.4l0.3,-1.2l0.3,-1.4l0.3,-1.2l0.5,-1.3l0.4,-1.2l0.6,-1.2l0.7,-1.1l0.7,-1.2l0.8,-1.1l0.8,-1l0.9,-0.9l0.9,-1.1l0.9,-0.9l0.9,-0.8l1.1,-0.9l1.2,-0.8l1.1,-0.7l1.2,-0.6l1.2,-0.7l1.2,-0.6l1.3,-0.4l1.2,-0.3l1.4,-0.5l1.3,-0.3l1.4,-0.2l1.2,-0.1l1.4,-0.2l1.4,0l1.4,0l1.5,0.2l1.4,0.1l1.3,0.2l1.4,0.3l1.4,0.5l1.2,0.4l1.4,0.5l1.2,0.6l1.2,0.6l1.3,0.8l1.2,0.7l1,0.8l1.1,0.9l1.1,0.9l0.9,0.9l0.9,1.1l0.8,1.1l0.9,1.1l0.6,1.2l0.8,1.2l0.6,1.2l0.4,1.2l0.7,1.3l0.3,1.3l0.3,1.3l0.3,1.3l0.1,1.4l0.2,1.2l0,1.4l0,1.4l-0.2,1.4l-0.1,1.3l-0.3,1.3l-0.3,1.3l-0.5,1.3l-0.5,1.3l-0.4,1.3l-0.6,1.2l-0.8,1.2l-0.8,1.1l-0.7,1l-0.8,1.1l-0.9,1.1l-1.1,1l-0.9,1l-1.1,0.7l-1.2,0.9l-1,0.8l-1.3,0.6l-1.2,0.8l-1.2,0.4l-1.4,0.6l-1.2,0.5l-1.4,0.3l-1.4,0.3l-1.3,0.3l-1.4,0.2l-1.5,0.1l-1.4,0l-1.4,0l-1.4,-0.1L333.4,945L332,944.9l-1.4,-0.3l-1.4,-0.5l-1.3,-0.5l-1.3,-0.4l-1.3,-0.6L324,942l-1,-0.8l-1.2,-0.8l-1.1,-0.7l-1.1,-0.9l-1.1,-1l-0.9,-0.9l-0.9,-1l-0.9,-1.1L315,933.7l-0.7,-1.2l-0.6,-1.2L313,930.1l-0.6,-1.3L312,927.6l-0.5,-1.4L311.2,925l-0.3,-1.4l-0.2,-1.3l0,-1.3l-0.1,-1.3Z" class="g6_6" />
<path d="M353.5,1137.8l-157.6,0l0,-38.8l315.1,0l0,38.8l-157.5,0Z" class="g5_6" />
<path fill-rule="evenodd" d="M369,1074.3l0,-1.2l0.1,-1.4l0.2,-1.2l0.3,-1.4l0.3,-1.2l0.3,-1.3l0.4,-1.2l0.5,-1.2l0.6,-1.2l0.6,-1.3l0.8,-1l0.7,-1.1l0.8,-1.1l0.9,-1l0.9,-0.9l1,-1l0.9,-0.9l1,-0.7l1.3,-0.8l1,-0.8l1.3,-0.6l1.2,-0.6l1.2,-0.6l1.2,-0.5l1.3,-0.4l1.3,-0.3l1.4,-0.3l1.4,-0.3l1.2,-0.2l1.4,-0.1l1.3,0l1.4,0l1.6,0.1l1.3,0.2l1.4,0.3l1.4,0.3l1.4,0.3l1.2,0.4l1.3,0.6l1.3,0.7l1.2,0.6l1.2,0.6l1.2,0.7l1.1,1l1.1,0.9l1,0.9l1,0.9l0.9,1.1l0.7,1l1,1.1l0.6,1.1l0.7,1.2l0.6,1.2l0.5,1.3l0.6,1.3l0.3,1.3l0.3,1.3l0.3,1.2l0.2,1.4l0.1,1.4l0,1.4l0,1.3l-0.1,1.3l-0.2,1.3l-0.3,1.4l-0.3,1.2l-0.4,1.4l-0.5,1.2l-0.5,1.3l-0.6,1.2l-0.7,1.2l-0.8,1.2l-0.8,1.1l-0.7,1.1l-0.9,1l-1.1,1l-0.9,0.9l-1.1,0.9l-1.2,0.8l-1.1,0.7l-1.2,0.8l-1.2,0.6l-1.3,0.6l-1.3,0.5l-1.2,0.4l-1.4,0.5l-1.4,0.3l-1.4,0.3l-1.3,0.1l-1.6,0l-1.4,0.2l-1.3,0l-1.4,-0.2l-1.4,-0.1l-1.4,-0.3l-1.3,-0.3l-1.4,-0.3l-1.4,-0.5l-1.2,-0.6l-1.4,-0.6l-1.2,-0.6l-1.1,-0.6l-1.2,-0.8l-1.1,-0.9l-1,-0.9l-1.1,-0.9l-0.9,-1l-0.9,-1l-0.9,-1.1l-0.8,-1.1l-0.8,-1L372,1086l-0.6,-1.2l-0.6,-1.2l-0.5,-1.4l-0.4,-1.2l-0.3,-1.4l-0.3,-1.2l-0.2,-1.4l0,-1.4l-0.1,-1.3Z" class="g6_6" />
<path d="M593.5,1141.3l-75.6,0l0,-37.7l151.3,0l0,37.7l-75.7,0Z" class="g5_6" />
<path fill-rule="evenodd" d="M600.4,1076.1l0.2,-1.5l0,-1.4l0.3,-1.4l0.3,-1.5l0.3,-1.4l0.4,-1.3l0.7,-1.4l0.6,-1.2l0.6,-1.4l0.7,-1.2l1,-1.3l0.9,-1.2l0.9,-1.1l1.1,-1.2l1,-0.9l1.3,-1.1l1.2,-0.9l1.2,-0.9l1.4,-0.8l1.3,-0.7l1.6,-0.6l1.4,-0.8l1.5,-0.5l1.5,-0.4l1.5,-0.5l1.6,-0.3l1.6,-0.3l1.6,-0.1l1.7,-0.2l1.5,0l1.7,0l1.5,0.2l1.7,0.1l1.5,0.3l1.7,0.3l1.5,0.5l1.5,0.4l1.4,0.5l1.5,0.6l1.4,0.8l1.4,0.7l1.4,0.8l1.2,0.9l1.2,0.9l1.2,1l1.1,1l1.1,1.1l1,1.2l1,1.2l0.7,1.3l0.8,1.2l0.7,1.4l0.7,1.2l0.4,1.4l0.5,1.3l0.4,1.4l0.3,1.5l0.2,1.4l0.1,1.4l0,1.5l0,1.4L662,1079l-0.2,1.4l-0.3,1.4l-0.4,1.3l-0.5,1.4l-0.4,1.4l-0.7,1.4l-0.7,1.2l-0.8,1.4l-0.7,1.2l-1,1l-1,1.3l-1.1,1l-1.1,1.1l-1.2,0.9l-1.2,0.9l-1.2,1l-1.4,0.9l-1.4,0.6l-1.4,0.8l-1.5,0.6l-1.4,0.6l-1.5,0.4l-1.5,0.5l-1.7,0.3l-1.5,0.1l-1.7,0.4l-1.5,0l-1.7,0.1l0,-0.1l-1.5,0l-1.7,-0.2l-1.6,-0.2l-1.6,-0.3l-1.6,-0.3l-1.5,-0.4l-1.5,-0.5l-1.5,-0.4l-1.6,-0.6l-1.4,-0.8l-1.3,-0.8l-1.4,-0.7l-1.2,-1l-1.2,-0.9l-1.3,-0.9l-1,-1.1l-1.1,-1l-0.9,-1.3l-0.9,-1l-1,-1.2l-0.7,-1.4l-0.8,-1.2l-0.6,-1.4l-0.5,-1.4l-0.4,-1.4l-0.5,-1.3l-0.3,-1.4l-0.1,-1.4l-0.2,-1.5l0,-1.4Z" class="g6_6" />
</svg>