<?xml version="1.0" encoding="UTF-8" standalone="no"?>
<!DOCTYPE svg PUBLIC "-//W3C//DTD SVG 1.1//EN"
"http://www.w3.org/Graphics/SVG/1.1/DTD/svg11.dtd">
<svg viewBox="0 0 935 1210" version="1.1" xmlns="http://www.w3.org/2000/svg" xmlns:xlink="http://www.w3.org/1999/xlink">
<defs>
<style type="text/css"><![CDATA[
.g1_181{
fill: none;
stroke: #000066;
stroke-width: 4.5833335;
stroke-linecap: butt;
stroke-linejoin: round;
}
.g2_181{
fill: none;
stroke: #000000;
stroke-width: 1.1458334;
stroke-linecap: butt;
stroke-linejoin: round;
}
.g3_181{
fill: none;
stroke: #203864;
stroke-width: 1.1458334;
stroke-linecap: butt;
stroke-linejoin: miter;
stroke-miterlimit: 8;
}
.g4_181{
fill: #17375E;
}
.g5_181{
fill: none;
stroke: #10253F;
stroke-width: 1.1458334;
stroke-linecap: butt;
stroke-linejoin: round;
stroke-miterlimit: 8;
}
.g6_181{
fill: none;
stroke: #FF0000;
stroke-width: 2.6736124;
stroke-linecap: butt;
stroke-linejoin: miter;
stroke-miterlimit: 8;
}
]]></style>
</defs>
<path d="M100.5,103.5l794.1,0" class="g1_181" />
<path d="M84.6,1142.7l772.2,0" class="g2_181" />
<image preserveAspectRatio="none" x="116" y="112" width="690" height="354" xlink:href="img/1.png" />
<path d="M115.5,466.3l690.7,0l0,-354.6l-690.7,0l0,354.6Z" class="g3_181" />
<path fill-rule="evenodd" d="M218,218.7C218,204.5,230.3,193,245.5,193c15.2,0,27.5,11.5,27.5,25.7c0,14.3,-12.3,25.8,-27.5,25.8C230.3,244.5,218,233,218,218.7Z" class="g4_181" />
<path d="M218,218.7C218,204.5,230.3,193,245.5,193c15.2,0,27.5,11.5,27.5,25.7c0,14.3,-12.3,25.8,-27.5,25.8C230.3,244.5,218,233,218,218.7Z" class="g5_181" />
<image preserveAspectRatio="none" x="227" y="207" width="37" height="24" xlink:href="img/2.png" />
<path d="M134.4,229.6l71,0l0,-37.8l-71,0l0,37.8Z" class="g6_181" />
<path d="M136.7,433.6l355.2,0l0,-111.2l-355.2,0l0,111.2Z" class="g6_181" />
<path fill-rule="evenodd" d="M488.4,356.2c0,-14.2,12.3,-25.7,27.5,-25.7c15.2,0,27.5,11.5,27.5,25.7c0,14.3,-12.3,25.8,-27.5,25.8c-15.2,0,-27.5,-11.5,-27.5,-25.8Z" class="g4_181" />
<path d="M488.4,356.2c0,-14.2,12.3,-25.7,27.5,-25.7c15.2,0,27.5,11.5,27.5,25.7c0,14.3,-12.3,25.8,-27.5,25.8c-15.2,0,-27.5,-11.5,-27.5,-25.8Z" class="g5_181" />
<image preserveAspectRatio="none" x="497" y="344" width="38" height="24" xlink:href="img/3.png" />
<path d="M414,229.6l229.1,0l0,-38.9l-229.1,0l0,38.9Z" class="g6_181" />
</svg>