<?xml version="1.0" encoding="UTF-8" standalone="no"?>
<!DOCTYPE svg PUBLIC "-//W3C//DTD SVG 1.1//EN"
"http://www.w3.org/Graphics/SVG/1.1/DTD/svg11.dtd">
<svg viewBox="0 0 935 1210" version="1.1" xmlns="http://www.w3.org/2000/svg" xmlns:xlink="http://www.w3.org/1999/xlink">
<defs>
<style type="text/css"><![CDATA[
.g1_135{
fill: none;
stroke: #000066;
stroke-width: 4.5833335;
stroke-linecap: butt;
stroke-linejoin: round;
}
.g2_135{
fill: none;
stroke: #000000;
stroke-width: 1.1458334;
stroke-linecap: butt;
stroke-linejoin: round;
}
.g3_135{
}
]]></style>
</defs>
<path d="M100.5,103.5l794.1,0" class="g1_135" />
<path d="M84.6,1142.7l772.2,0" class="g2_135" />
<path fill-rule="evenodd" d="M101.4,189.4l0.8,0l0,-0.7l-0.8,0l0,0.7Z" class="g3_135" />
<path fill-rule="evenodd" d="M101.4,189.4l0.8,0l0,-0.7l-0.8,0l0,0.7Z" class="g3_135" />
<path fill-rule="evenodd" d="M102.2,189.4l238.9,0l0,-0.7l-238.9,0l0,0.7Z" class="g3_135" />
<path fill-rule="evenodd" d="M341.1,189.4l0.7,0l0,-0.7l-0.7,0l0,0.7Z" class="g3_135" />
<path fill-rule="evenodd" d="M341.8,189.4l241.3,0l0,-0.7l-241.3,0l0,0.7Z" class="g3_135" />
<path fill-rule="evenodd" d="M583.1,189.4l0.7,0l0,-0.7l-0.7,0l0,0.7Z" class="g3_135" />
<path fill-rule="evenodd" d="M583.8,189.4l206.5,0l0,-0.7l-206.5,0l0,0.7Z" class="g3_135" />
<path fill-rule="evenodd" d="M790.3,189.4l0.8,0l0,-0.7l-0.8,0l0,0.7Z" class="g3_135" />
<path fill-rule="evenodd" d="M790.3,189.4l0.8,0l0,-0.7l-0.8,0l0,0.7Z" class="g3_135" />
<path fill-rule="evenodd" d="M101.4,209.9l0.8,0l0,-20.5l-0.8,0l0,20.5Z" class="g3_135" />
<path fill-rule="evenodd" d="M341.1,209.9l0.7,0l0,-20.5l-0.7,0l0,20.5Z" class="g3_135" />
<path fill-rule="evenodd" d="M583.1,209.9l0.7,0l0,-20.5l-0.7,0l0,20.5Z" class="g3_135" />
<path fill-rule="evenodd" d="M790.3,209.9l0.8,0l0,-20.5l-0.8,0l0,20.5Z" class="g3_135" />
<path fill-rule="evenodd" d="M101.4,210.7l0.8,0l0,-0.8l-0.8,0l0,0.8Z" class="g3_135" />
<path fill-rule="evenodd" d="M102.2,210.7l238.9,0l0,-0.8l-238.9,0l0,0.8Z" class="g3_135" />
<path fill-rule="evenodd" d="M341.1,210.7l0.7,0l0,-0.8l-0.7,0l0,0.8Z" class="g3_135" />
<path fill-rule="evenodd" d="M341.8,210.7l241.3,0l0,-0.8l-241.3,0l0,0.8Z" class="g3_135" />
<path fill-rule="evenodd" d="M583.1,210.7l0.7,0l0,-0.8l-0.7,0l0,0.8Z" class="g3_135" />
<path fill-rule="evenodd" d="M583.8,210.7l206.5,0l0,-0.8l-206.5,0l0,0.8Z" class="g3_135" />
<path fill-rule="evenodd" d="M790.3,210.7l0.8,0l0,-0.8l-0.8,0l0,0.8Z" class="g3_135" />
<path fill-rule="evenodd" d="M101.4,231.2l0.8,0l0,-20.5l-0.8,0l0,20.5Z" class="g3_135" />
<path fill-rule="evenodd" d="M341.1,231.2l0.7,0l0,-20.5l-0.7,0l0,20.5Z" class="g3_135" />
<path fill-rule="evenodd" d="M583.1,231.2l0.7,0l0,-20.5l-0.7,0l0,20.5Z" class="g3_135" />
<path fill-rule="evenodd" d="M790.3,231.2l0.8,0l0,-20.5l-0.8,0l0,20.5Z" class="g3_135" />
<path fill-rule="evenodd" d="M101.4,231.9l0.8,0l0,-0.7l-0.8,0l0,0.7Z" class="g3_135" />
<path fill-rule="evenodd" d="M102.2,231.9l238.9,0l0,-0.7l-238.9,0l0,0.7Z" class="g3_135" />
<path fill-rule="evenodd" d="M341.1,231.9l0.7,0l0,-0.7l-0.7,0l0,0.7Z" class="g3_135" />
<path fill-rule="evenodd" d="M341.8,231.9l241.3,0l0,-0.7l-241.3,0l0,0.7Z" class="g3_135" />
<path fill-rule="evenodd" d="M583.1,231.9l0.7,0l0,-0.7l-0.7,0l0,0.7Z" class="g3_135" />
<path fill-rule="evenodd" d="M583.8,231.9l206.5,0l0,-0.7l-206.5,0l0,0.7Z" class="g3_135" />
<path fill-rule="evenodd" d="M790.3,231.9l0.8,0l0,-0.7l-0.8,0l0,0.7Z" class="g3_135" />
<path fill-rule="evenodd" d="M101.4,252.5l0.8,0l0,-20.6l-0.8,0l0,20.6Z" class="g3_135" />
<path fill-rule="evenodd" d="M341.1,252.5l0.7,0l0,-20.6l-0.7,0l0,20.6Z" class="g3_135" />
<path fill-rule="evenodd" d="M583.1,252.5l0.7,0l0,-20.6l-0.7,0l0,20.6Z" class="g3_135" />
<path fill-rule="evenodd" d="M790.3,252.5l0.8,0l0,-20.6l-0.8,0l0,20.6Z" class="g3_135" />
<path fill-rule="evenodd" d="M101.4,253.2l0.8,0l0,-0.7l-0.8,0l0,0.7Z" class="g3_135" />
<path fill-rule="evenodd" d="M102.2,253.2l238.9,0l0,-0.7l-238.9,0l0,0.7Z" class="g3_135" />
<path fill-rule="evenodd" d="M341.1,253.2l0.7,0l0,-0.7l-0.7,0l0,0.7Z" class="g3_135" />
<path fill-rule="evenodd" d="M341.8,253.2l241.3,0l0,-0.7l-241.3,0l0,0.7Z" class="g3_135" />
<path fill-rule="evenodd" d="M583.1,253.2l0.7,0l0,-0.7l-0.7,0l0,0.7Z" class="g3_135" />
<path fill-rule="evenodd" d="M583.8,253.2l206.5,0l0,-0.7l-206.5,0l0,0.7Z" class="g3_135" />
<path fill-rule="evenodd" d="M790.3,253.2l0.8,0l0,-0.7l-0.8,0l0,0.7Z" class="g3_135" />
<path fill-rule="evenodd" d="M101.4,314.8l0.8,0l0,-61.6l-0.8,0l0,61.6Z" class="g3_135" />
<path fill-rule="evenodd" d="M341.1,314.8l0.7,0l0,-61.6l-0.7,0l0,61.6Z" class="g3_135" />
<path fill-rule="evenodd" d="M583.1,314.8l0.7,0l0,-61.6l-0.7,0l0,61.6Z" class="g3_135" />
<path fill-rule="evenodd" d="M790.3,314.8l0.8,0l0,-61.6l-0.8,0l0,61.6Z" class="g3_135" />
<path fill-rule="evenodd" d="M101.4,315.5l0.8,0l0,-0.7l-0.8,0l0,0.7Z" class="g3_135" />
<path fill-rule="evenodd" d="M102.2,315.5l238.9,0l0,-0.7l-238.9,0l0,0.7Z" class="g3_135" />
<path fill-rule="evenodd" d="M341.1,315.5l0.7,0l0,-0.7l-0.7,0l0,0.7Z" class="g3_135" />
<path fill-rule="evenodd" d="M341.8,315.5l241.3,0l0,-0.7l-241.3,0l0,0.7Z" class="g3_135" />
<path fill-rule="evenodd" d="M583.1,315.5l0.7,0l0,-0.7l-0.7,0l0,0.7Z" class="g3_135" />
<path fill-rule="evenodd" d="M583.8,315.5l206.5,0l0,-0.7l-206.5,0l0,0.7Z" class="g3_135" />
<path fill-rule="evenodd" d="M790.3,315.5l0.8,0l0,-0.7l-0.8,0l0,0.7Z" class="g3_135" />
<path fill-rule="evenodd" d="M101.4,336.1l0.8,0l0,-20.6l-0.8,0l0,20.6Z" class="g3_135" />
<path fill-rule="evenodd" d="M341.1,336.1l0.7,0l0,-20.6l-0.7,0l0,20.6Z" class="g3_135" />
<path fill-rule="evenodd" d="M583.1,336.1l0.7,0l0,-20.6l-0.7,0l0,20.6Z" class="g3_135" />
<path fill-rule="evenodd" d="M790.3,336.1l0.8,0l0,-20.6l-0.8,0l0,20.6Z" class="g3_135" />
<path fill-rule="evenodd" d="M101.4,336.8l0.8,0l0,-0.7l-0.8,0l0,0.7Z" class="g3_135" />
<path fill-rule="evenodd" d="M102.2,336.8l238.9,0l0,-0.7l-238.9,0l0,0.7Z" class="g3_135" />
<path fill-rule="evenodd" d="M341.1,336.8l0.7,0l0,-0.7l-0.7,0l0,0.7Z" class="g3_135" />
<path fill-rule="evenodd" d="M341.8,336.8l241.3,0l0,-0.7l-241.3,0l0,0.7Z" class="g3_135" />
<path fill-rule="evenodd" d="M583.1,336.8l0.7,0l0,-0.7l-0.7,0l0,0.7Z" class="g3_135" />
<path fill-rule="evenodd" d="M583.8,336.8l206.5,0l0,-0.7l-206.5,0l0,0.7Z" class="g3_135" />
<path fill-rule="evenodd" d="M790.3,336.8l0.8,0l0,-0.7l-0.8,0l0,0.7Z" class="g3_135" />
<path fill-rule="evenodd" d="M101.4,377.9l0.8,0l0,-41.1l-0.8,0l0,41.1Z" class="g3_135" />
<path fill-rule="evenodd" d="M341.1,377.9l0.7,0l0,-41.1l-0.7,0l0,41.1Z" class="g3_135" />
<path fill-rule="evenodd" d="M583.1,377.9l0.7,0l0,-41.1l-0.7,0l0,41.1Z" class="g3_135" />
<path fill-rule="evenodd" d="M790.3,377.9l0.8,0l0,-41.1l-0.8,0l0,41.1Z" class="g3_135" />
<path fill-rule="evenodd" d="M101.4,378.6l0.8,0l0,-0.7l-0.8,0l0,0.7Z" class="g3_135" />
<path fill-rule="evenodd" d="M102.2,378.6l238.9,0l0,-0.7l-238.9,0l0,0.7Z" class="g3_135" />
<path fill-rule="evenodd" d="M341.1,378.6l0.7,0l0,-0.7l-0.7,0l0,0.7Z" class="g3_135" />
<path fill-rule="evenodd" d="M341.8,378.6l241.3,0l0,-0.7l-241.3,0l0,0.7Z" class="g3_135" />
<path fill-rule="evenodd" d="M583.1,378.6l0.7,0l0,-0.7l-0.7,0l0,0.7Z" class="g3_135" />
<path fill-rule="evenodd" d="M583.8,378.6l206.5,0l0,-0.7l-206.5,0l0,0.7Z" class="g3_135" />
<path fill-rule="evenodd" d="M790.3,378.6l0.8,0l0,-0.7l-0.8,0l0,0.7Z" class="g3_135" />
<path fill-rule="evenodd" d="M101.4,419.7l0.8,0l0,-41.1l-0.8,0l0,41.1Z" class="g3_135" />
<path fill-rule="evenodd" d="M101.4,420.5l0.8,0l0,-0.8l-0.8,0l0,0.8Z" class="g3_135" />
<path fill-rule="evenodd" d="M101.4,420.5l0.8,0l0,-0.8l-0.8,0l0,0.8Z" class="g3_135" />
<path fill-rule="evenodd" d="M102.2,420.5l238.9,0l0,-0.8l-238.9,0l0,0.8Z" class="g3_135" />
<path fill-rule="evenodd" d="M341.1,419.7l0.7,0l0,-41.1l-0.7,0l0,41.1Z" class="g3_135" />
<path fill-rule="evenodd" d="M341.1,420.5l0.7,0l0,-0.8l-0.7,0l0,0.8Z" class="g3_135" />
<path fill-rule="evenodd" d="M341.8,420.5l241.3,0l0,-0.8l-241.3,0l0,0.8Z" class="g3_135" />
<path fill-rule="evenodd" d="M583.1,419.7l0.7,0l0,-41.1l-0.7,0l0,41.1Z" class="g3_135" />
<path fill-rule="evenodd" d="M583.1,420.5l0.7,0l0,-0.8l-0.7,0l0,0.8Z" class="g3_135" />
<path fill-rule="evenodd" d="M583.8,420.5l206.5,0l0,-0.8l-206.5,0l0,0.8Z" class="g3_135" />
<path fill-rule="evenodd" d="M790.3,419.7l0.8,0l0,-41.1l-0.8,0l0,41.1Z" class="g3_135" />
<path fill-rule="evenodd" d="M790.3,420.5l0.8,0l0,-0.8l-0.8,0l0,0.8Z" class="g3_135" />
<path fill-rule="evenodd" d="M790.3,420.5l0.8,0l0,-0.8l-0.8,0l0,0.8Z" class="g3_135" />
</svg>