<?xml version="1.0" encoding="UTF-8" standalone="no"?>
<!DOCTYPE svg PUBLIC "-//W3C//DTD SVG 1.1//EN"
"http://www.w3.org/Graphics/SVG/1.1/DTD/svg11.dtd">
<svg viewBox="0 0 935 1210" version="1.1" xmlns="http://www.w3.org/2000/svg" xmlns:xlink="http://www.w3.org/1999/xlink">
<defs>
<style type="text/css"><![CDATA[
.g1_120{
fill: none;
stroke: #000066;
stroke-width: 4.5833335;
stroke-linecap: butt;
stroke-linejoin: round;
}
.g2_120{
fill: none;
stroke: #000000;
stroke-width: 1.1458334;
stroke-linecap: butt;
stroke-linejoin: round;
}
.g3_120{
fill: none;
stroke: #FF0000;
stroke-width: 2.2916667;
stroke-linecap: butt;
stroke-linejoin: miter;
stroke-miterlimit: 8;
}
.g4_120{
fill: #1F4E79;
}
]]></style>
</defs>
<path d="M100.5,103.5l794.1,0" class="g1_120" />
<path d="M84.6,1142.7l772.2,0" class="g2_120" />
<image preserveAspectRatio="none" x="112" y="112" width="709" height="463" xlink:href="img/1.png" />
<path d="M111.7,575.5l710,0l0,-463.8l-710,0l0,463.8Z" class="g2_120" />
<image preserveAspectRatio="none" x="112" y="671" width="715" height="199" xlink:href="img/2.png" />
<path d="M111.7,870.6l716.2,0l0,-200.5l-716.2,0l0,200.5Z" class="g2_120" />
<image preserveAspectRatio="none" x="400" y="974" width="30" height="50" xlink:href="img/3.png" />
<path d="M399.2,1024.8l31,0l0,-51.6l-31,0l0,51.6Z" class="g2_120" />
<path d="M137.5,141.8l399.8,0l0,-29.5l-399.8,0l0,29.5Z" class="g3_120" />
<path fill-rule="evenodd" d="M526.7,142.4c0,-13.7,14,-24.8,31.2,-24.8c17.2,0,31.1,11.1,31.1,24.8c0,13.7,-13.9,24.8,-31.1,24.8c-17.2,0,-31.2,-11.1,-31.2,-24.8Z" class="g4_120" />
<image preserveAspectRatio="none" x="537" y="131" width="42" height="23" xlink:href="img/4.png" />
<path d="M345.8,282.6l94.2,0l0,-19.1l-94.2,0l0,19.1Z" class="g3_120" />
<path fill-rule="evenodd" d="M429.4,288.4c0,-13.8,14,-24.9,31.2,-24.9c17.2,0,31.2,11.1,31.2,24.9c0,13.7,-14,24.8,-31.2,24.8c-17.2,0,-31.2,-11.1,-31.2,-24.8Z" class="g4_120" />
<image preserveAspectRatio="none" x="439" y="277" width="43" height="23" xlink:href="img/5.png" />
<path d="M574.3,464.4l21.1,0l0,-17.9l-21.1,0l0,17.9Z" class="g3_120" />
<path fill-rule="evenodd" d="M580.6,489.3c0,-13.7,14,-24.9,31.2,-24.9c17.2,0,31.2,11.2,31.2,24.9c0,13.7,-14,24.8,-31.2,24.8c-17.2,0,-31.2,-11.1,-31.2,-24.8Z" class="g4_120" />
<image preserveAspectRatio="none" x="591" y="478" width="42" height="22" xlink:href="img/6.png" />
<path fill-rule="evenodd" d="M333,715.7c0,-13.7,13.9,-24.8,31.1,-24.8c17.3,0,31.2,11.1,31.2,24.8c0,13.7,-13.9,24.8,-31.2,24.8C346.9,740.5,333,729.4,333,715.7Z" class="g4_120" />
</svg>