<?xml version="1.0" encoding="UTF-8" standalone="no"?>
<!DOCTYPE svg PUBLIC "-//W3C//DTD SVG 1.1//EN"
"http://www.w3.org/Graphics/SVG/1.1/DTD/svg11.dtd">
<svg viewBox="0 0 935 1210" version="1.1" xmlns="http://www.w3.org/2000/svg" xmlns:xlink="http://www.w3.org/1999/xlink">
<defs>
<style type="text/css"><![CDATA[
.g1_76{
fill: none;
stroke: #000066;
stroke-width: 4.5833335;
stroke-linecap: butt;
stroke-linejoin: round;
}
.g2_76{
fill: none;
stroke: #000000;
stroke-width: 1.1458334;
stroke-linecap: butt;
stroke-linejoin: round;
}
.g3_76{
fill: none;
stroke: #000000;
stroke-width: 0.38194567;
stroke-linecap: square;
stroke-linejoin: miter;
stroke-miterlimit: 8;
}
.g4_76{
fill: none;
stroke: #FF0000;
stroke-width: 3.4375;
stroke-linecap: butt;
stroke-linejoin: round;
stroke-miterlimit: 8;
}
.g5_76{
fill: #FFFFFF;
}
.g6_76{
fill: none;
stroke: #000000;
stroke-width: 0.76388764;
stroke-linecap: butt;
stroke-linejoin: round;
stroke-miterlimit: 8;
}
]]></style>
</defs>
<path d="M100.5,103.5l794.1,0" class="g1_76" />
<path d="M84.6,1142.7l772.2,0" class="g2_76" />
<image preserveAspectRatio="none" x="112" y="112" width="715" height="451" xlink:href="img/1.png" />
<path d="M112.1,563.4l715.4,0l0,-451.3l-715.4,0l0,451.3Z" class="g3_76" />
<image preserveAspectRatio="none" x="112" y="639" width="689" height="440" xlink:href="img/2.png" />
<path d="M112.1,1078.9l689,0l0,-440.4l-689,0l0,440.4Z" class="g3_76" />
<path d="M118,273l127.2,0l0,-60.7l-127.2,0l0,60.7Z" class="g4_76" />
<path d="M134.1,448.3l87,0l0,-19.5l-87,0l0,19.5Z" class="g4_76" />
<path d="M563.8,544.6l216.5,0l0,-21.8l-216.5,0l0,21.8Z" class="g4_76" />
<path fill-rule="evenodd" d="M210.8,346.3l97.4,0l0,-57.2l-97.4,0l0,57.2Z" class="g5_76" />
<path d="M210.8,346.3l97.4,0l0,-57.2l-97.4,0l0,57.2Z" class="g6_76" />
<image preserveAspectRatio="none" x="211" y="295" width="97" height="45" xlink:href="img/3.png" />
<path fill-rule="evenodd" d="M230.3,472.4l97.4,0l0,-57.3l-97.4,0l0,57.3Z" class="g5_76" />
<path d="M230.3,472.4l97.4,0l0,-57.3l-97.4,0l0,57.3Z" class="g6_76" />
<image preserveAspectRatio="none" x="231" y="421" width="96" height="46" xlink:href="img/4.png" />
<path fill-rule="evenodd" d="M652,509.1l129.5,0l0,-57.3l-129.5,0l0,57.3Z" class="g5_76" />
<path d="M652,509.1l129.5,0l0,-57.3l-129.5,0l0,57.3Z" class="g6_76" />
<image preserveAspectRatio="none" x="652" y="458" width="129" height="45" xlink:href="img/5.png" />
</svg>