<?xml version="1.0" encoding="UTF-8" standalone="no"?>
<!DOCTYPE svg PUBLIC "-//W3C//DTD SVG 1.1//EN"
"http://www.w3.org/Graphics/SVG/1.1/DTD/svg11.dtd">
<svg viewBox="0 0 935 1210" version="1.1" xmlns="http://www.w3.org/2000/svg" xmlns:xlink="http://www.w3.org/1999/xlink">
<defs>
<style type="text/css"><![CDATA[
.g1_17{
fill: none;
stroke: #000066;
stroke-width: 4.5833335;
stroke-linecap: butt;
stroke-linejoin: round;
}
.g2_17{
fill: none;
stroke: #000000;
stroke-width: 1.1458334;
stroke-linecap: butt;
stroke-linejoin: round;
}
.g3_17{
fill: none;
stroke: #FF0000;
stroke-width: 2.2916667;
stroke-linecap: butt;
stroke-linejoin: miter;
stroke-miterlimit: 8;
}
.g4_17{
fill: #1F4E79;
}
]]></style>
</defs>
<path d="M100.5,103.5l794.1,0" class="g1_17" />
<path d="M84.6,1142.7l772.2,0" class="g2_17" />
<image preserveAspectRatio="none" x="112" y="112" width="690" height="783" xlink:href="img/1.png" />
<path d="M111.7,895.3l690.7,0l0,-783.6l-690.7,0l0,783.6Z" class="g2_17" />
<path d="M115.7,142.4l177.6,0l0,-25.2l-177.6,0l0,25.2Z" class="g3_17" />
<path fill-rule="evenodd" d="M275,150.9C275,138.2,287.1,128,301.9,128c14.9,0,27,10.2,27,22.9c0,12.6,-12.1,22.9,-27,22.9C287.1,173.8,275,163.5,275,150.9Z" class="g4_17" />
<path d="M658.9,137.8l59.5,0l0,-21.8l-59.5,0l0,21.8Z" class="g3_17" />
<path fill-rule="evenodd" d="M617.6,150.4c0,-12.6,12.1,-22.9,26.9,-22.9c14.9,0,27,10.3,27,22.9c0,12.7,-12.1,22.9,-27,22.9c-14.8,0,-26.9,-10.2,-26.9,-22.9Z" class="g4_17" />
<path fill-rule="evenodd" d="M391.9,650c0,-12.7,12,-22.9,26.9,-22.9c14.9,0,26.9,10.2,26.9,22.9c0,12.6,-12,22.9,-26.9,22.9c-14.9,0,-26.9,-10.3,-26.9,-22.9Z" class="g4_17" />
</svg>