<?xml version="1.0" encoding="UTF-8" standalone="no"?>
<!DOCTYPE svg PUBLIC "-//W3C//DTD SVG 1.1//EN"
"http://www.w3.org/Graphics/SVG/1.1/DTD/svg11.dtd">
<svg viewBox="0 0 935 1210" version="1.1" xmlns="http://www.w3.org/2000/svg" xmlns:xlink="http://www.w3.org/1999/xlink">
<defs>
<style type="text/css"><![CDATA[
.g1_93{
fill: none;
stroke: #000066;
stroke-width: 4.5833335;
stroke-linecap: butt;
stroke-linejoin: round;
}
.g2_93{
fill: none;
stroke: #000000;
stroke-width: 1.1458334;
stroke-linecap: butt;
stroke-linejoin: round;
}
.g3_93{
fill: none;
stroke: #FF0000;
stroke-width: 3.4375;
stroke-linecap: butt;
stroke-linejoin: round;
}
.g4_93{
fill: #376092;
}
]]></style>
</defs>
<path d="M100.5,103.5l794.1,0" class="g1_93" />
<path d="M84.6,1142.7l772.2,0" class="g2_93" />
<image preserveAspectRatio="none" x="112" y="112" width="690" height="549" xlink:href="img/1.png" />
<path d="M111.7,661.7l690.7,0l0,-550l-690.7,0l0,550Z" class="g2_93" />
<path d="M112.4,150.7l241,0l0,-38.3l-241,0l0,38.3Z" class="g3_93" />
<path fill-rule="evenodd" d="M337.4,158.2c0,-13,10.5,-23.5,23.5,-23.5c12.9,0,23.4,10.5,23.4,23.5c0,12.9,-10.5,23.5,-23.4,23.5c-13,0,-23.5,-10.6,-23.5,-23.5Z" class="g4_93" />
<image preserveAspectRatio="none" x="346" y="149" width="30" height="19" xlink:href="img/2.png" />
<path fill-rule="evenodd" d="M458.5,359.6c0,-13,10.5,-23.5,23.5,-23.5c13,0,23.5,10.5,23.5,23.5c0,13,-10.5,23.5,-23.5,23.5c-13,0,-23.5,-10.5,-23.5,-23.5Z" class="g4_93" />
<image preserveAspectRatio="none" x="467" y="350" width="30" height="19" xlink:href="img/3.png" />
</svg>