<?xml version="1.0" encoding="UTF-8" standalone="no"?>
<!DOCTYPE svg PUBLIC "-//W3C//DTD SVG 1.1//EN"
"http://www.w3.org/Graphics/SVG/1.1/DTD/svg11.dtd">
<svg viewBox="0 0 909 1286" version="1.1" xmlns="http://www.w3.org/2000/svg" xmlns:xlink="http://www.w3.org/1999/xlink">
<defs>
<style type="text/css"><![CDATA[
.g1_27{
fill: none;
stroke: #000066;
stroke-width: 4.5833335;
stroke-linecap: butt;
stroke-linejoin: round;
}
.g2_27{
fill: none;
stroke: #000000;
stroke-width: 1.1458334;
stroke-linecap: butt;
stroke-linejoin: round;
}
.g3_27{
fill: #FFFFFF;
}
.g4_27{
}
.g5_27{
fill: none;
stroke: #FF0000;
stroke-width: 3.0555556;
stroke-linecap: butt;
stroke-linejoin: round;
}
.g6_27{
fill: #376092;
}
]]></style>
</defs>
<path d="M78.1,99.1l794,0.1" class="g1_27" />
<path d="M96.6,1224.5l772.1,0.1" class="g2_27" />
<path fill-rule="evenodd" d="M112.3,97l689.5,0l0,0.4l-689.5,0l0,-0.4Z" class="g3_27" />
<path fill-rule="evenodd" d="M112.3,650.8l689.5,0l0,0.4l-689.5,0l0,-0.4Z" class="g3_27" />
<path fill-rule="evenodd" d="M112.3,97.3l0.5,0l0,553.6l-0.5,0l0,-553.6Z" class="g3_27" />
<path fill-rule="evenodd" d="M801.3,97.3l0.5,0l0,553.6l-0.5,0l0,-553.6Z" class="g3_27" />
<image preserveAspectRatio="none" x="113" y="97" width="688" height="554" xlink:href="img/1.png" />
<path fill-rule="evenodd" d="M112.6,650.9l-0.3,0.3L112.3,97l0.3,0.3l0.2,0.1l0,553.4l-0.2,0.1Z" class="g4_27" />
<path fill-rule="evenodd" d="M801.5,650.9l-0.2,-0.1l0,-553.4l0.2,-0.1L801.8,97l0,554.2l-0.3,-0.3Z" class="g4_27" />
<path fill-rule="evenodd" d="M801.5,97.3l-0.2,0.1l-688.5,0l-0.2,-0.1L112.3,97l689.5,0l-0.3,0.3Z" class="g4_27" />
<path fill-rule="evenodd" d="M801.5,650.9l0.3,0.3l-689.5,0l0.3,-0.3l0.2,-0.1l688.5,0l0.2,0.1Z" class="g4_27" />
<path fill-rule="evenodd" d="M112.3,674.5l689.5,0l0,0.4l-689.5,0l0,-0.4Z" class="g3_27" />
<path fill-rule="evenodd" d="M112.3,835.2l689.5,0l0,0.4l-689.5,0l0,-0.4Z" class="g3_27" />
<path fill-rule="evenodd" d="M112.3,674.8l0.5,0l0,160.5l-0.5,0l0,-160.5Z" class="g3_27" />
<path fill-rule="evenodd" d="M801.3,674.8l0.5,0l0,160.5l-0.5,0l0,-160.5Z" class="g3_27" />
<image preserveAspectRatio="none" x="113" y="675" width="688" height="160" xlink:href="img/2.png" />
<path fill-rule="evenodd" d="M112.6,835.3l-0.3,0.3l0,-161.1l0.3,0.3l0.2,0.1l0,160.3l-0.2,0.1Z" class="g4_27" />
<path fill-rule="evenodd" d="M801.5,835.3l-0.2,-0.1l0,-160.3l0.2,-0.1l0.3,-0.3l0,161.1l-0.3,-0.3Z" class="g4_27" />
<path fill-rule="evenodd" d="M801.5,674.8l-0.2,0.1l-688.5,0l-0.2,-0.1l-0.3,-0.3l689.5,0l-0.3,0.3Z" class="g4_27" />
<path fill-rule="evenodd" d="M801.5,835.3l0.3,0.3l-689.5,0l0.3,-0.3l0.2,-0.1l688.5,0l0.2,0.1Z" class="g4_27" />
<path fill-rule="evenodd" d="M112.3,920.3l459.5,0l0,0.4l-459.5,0l0,-0.4Z" class="g3_27" />
<path fill-rule="evenodd" d="M112.3,1086l459.5,0l0,0.5l-459.5,0l0,-0.5Z" class="g3_27" />
<path fill-rule="evenodd" d="M112.3,920.6l0.5,0l0,165.4l-0.5,0l0,-165.4Z" class="g3_27" />
<path fill-rule="evenodd" d="M571.4,920.6l0.4,0l0,165.4l-0.4,0l0,-165.4Z" class="g3_27" />
<image preserveAspectRatio="none" x="113" y="921" width="458" height="165" xlink:href="img/3.png" />
<path fill-rule="evenodd" d="M112.6,1086.2l-0.3,0.3l0,-166.2l0.3,0.3l0.2,0.1l0,165.3l-0.2,0.2Z" class="g4_27" />
<path fill-rule="evenodd" d="M571.5,1086.2l-0.1,-0.2l0,-165.3l0.1,-0.1l0.3,-0.3l0,166.2l-0.3,-0.3Z" class="g4_27" />
<path fill-rule="evenodd" d="M571.5,920.6l-0.1,0.1l-458.6,0l-0.2,-0.1l-0.3,-0.3l459.5,0l-0.3,0.3Z" class="g4_27" />
<path fill-rule="evenodd" d="M571.5,1086.2l0.3,0.3l-459.5,0l0.3,-0.3l0.2,-0.2l458.6,0l0.1,0.2Z" class="g4_27" />
<path d="M450.8,248.8l-324.8,0l0,-57.1l649.7,0l0,57.1l-324.9,0Z" class="g5_27" />
<path fill-rule="evenodd" d="M112.3,122.3l0,-1.4l0.1,-1.3l0.2,-1.4l0.3,-1.2l0.3,-1.4l0.5,-1.2l0.4,-1.4l0.5,-1.2l0.6,-1.2l0.8,-1.3l0.7,-1l0.8,-1.1l0.8,-1.1l0.9,-1l1,-1l1,-0.9l1,-0.9l1.2,-0.9l1.1,-0.8l1.2,-0.6L127,99.4l1.3,-0.6l1.3,-0.6l1.3,-0.5l1.4,-0.3l1.4,-0.3l1.4,-0.3l1.3,-0.2l1.4,-0.1l1.4,0l1.4,0l1.5,0.1l1.4,0.2l1.3,0.3l1.4,0.3l1.4,0.3l1.2,0.5l1.4,0.6l1.2,0.6l1.2,0.6l1.2,0.6l1.3,0.8l1,0.9l1.1,0.9l1.1,0.9l0.9,1l0.9,1l0.9,1.1l0.8,1.1l0.8,1.2l0.6,1.1l0.6,1.2l0.6,1.2l0.4,1.4l0.4,1.2l0.3,1.4l0.3,1.2l0.1,1.4l0.2,1.3l0,1.4l0,1.4l-0.2,1.2l-0.1,1.4l-0.3,1.4l-0.3,1.2l-0.5,1.4l-0.5,1.2l-0.4,1.2l-0.6,1.2l-0.8,1.2l-0.8,1.1l-0.7,1.2l-0.8,1.1l-0.9,0.9l-1.1,1.1l-0.9,0.9l-1.1,0.9l-1.2,0.8l-1.1,0.8l-1.2,0.7l-1.2,0.6l-1.2,0.6l-1.4,0.5l-1.2,0.5l-1.4,0.3l-1.4,0.3l-1.3,0.3l-1.4,0.1l-1.5,0.2l-1.4,0l-1.4,0l-1.4,-0.2l-1.3,-0.1l-1.4,-0.3l-1.4,-0.3l-1.4,-0.3l-1.3,-0.5l-1.3,-0.6L127,145.1l-1.3,-0.6l-1,-0.6l-1.3,-0.8l-1,-0.9l-1.1,-0.8l-1.1,-0.9l-0.9,-1.1l-0.9,-0.9l-0.9,-1.1l-0.8,-1.2L116,135.1l-0.7,-1.2l-0.6,-1.2l-0.6,-1.2l-0.4,-1.2l-0.5,-1.4l-0.3,-1.2l-0.3,-1.4l-0.2,-1.4l0,-1.2l-0.1,-1.4Z" class="g6_27" />
<path d="M149.6,826.5l-37.3,0l0,-36.7l74.4,0l0,36.7l-37.1,0Z" class="g5_27" />
<path fill-rule="evenodd" d="M198.3,788l0,-1.3l0.2,-1.3l0.1,-1.3l0.3,-1.3l0.3,-1.2l0.3,-1.3l0.5,-1.2l0.4,-1.2l0.7,-1.2l0.6,-1.3l0.7,-1l0.8,-1.1l0.8,-1.1l0.9,-1l0.9,-1l0.9,-0.9l0.9,-0.9l1.1,-0.8l1.2,-0.7l1.1,-0.8l1.2,-0.6l1.2,-0.6l1.3,-0.6l1.2,-0.5l1.2,-0.4l1.4,-0.3l1.3,-0.3l1.4,-0.3l1.2,-0.2l1.4,-0.2l1.4,0l1.4,0l1.5,0.2l1.4,0.2l1.3,0.3l1.4,0.3l1.4,0.3l1.2,0.4l1.4,0.6l1.2,0.7l1.2,0.6l1.3,0.6l1.2,0.7l1.1,1l1,0.9l1.1,0.9l0.9,0.9l0.9,1.1l0.8,1l0.9,1.1l0.6,1.1l0.8,1.2l0.6,1.2l0.5,1.2l0.6,1.4l0.3,1.2l0.3,1.4l0.3,1.2l0.1,1.4l0.2,1.4l0,1.4l0,1.3l-0.2,1.3l-0.1,1.3l-0.3,1.4l-0.3,1.2l-0.5,1.4l-0.4,1.2l-0.5,1.3l-0.6,1.2l-0.8,1.2l-0.7,1.2l-0.8,1.1l-0.8,1.1l-0.9,1l-1.1,0.9l-0.9,1l-1,0.9l-1.3,0.7l-1,0.8l-1.3,0.8l-1.2,0.6l-1.2,0.6l-1.4,0.5l-1.2,0.4l-1.4,0.5l-1.4,0.3l-1.3,0.3l-1.4,0.1l-1.5,0l-1.4,0.2l-1.4,0l-1.4,-0.2l-1.3,-0.1l-1.4,-0.3l-1.4,-0.3l-1.4,-0.3l-1.3,-0.5l-1.3,-0.6L213,810.9l-1.2,-0.6l-1.1,-0.6l-1.2,-0.8L208.4,808l-1.1,-0.9l-1,-1l-1,-0.9l-0.9,-1l-0.9,-1.1L202.7,802L202,801l-0.6,-1.3l-0.7,-1.2l-0.6,-1.2l-0.4,-1.4l-0.5,-1.2l-0.3,-1.4l-0.3,-1.2l-0.1,-1.4l0,-1.4L198.3,788Z" class="g6_27" />
<path d="M231.5,1078.6l-105.5,0l0,-41.3l210.9,0l0,41.3l-105.4,0Z" class="g5_27" />
<path fill-rule="evenodd" d="M404.6,1057.3l0,-1.4l0.1,-1.2l0.2,-1.4l0.3,-1.2l0.3,-1.4l0.3,-1.2l0.4,-1.2l0.5,-1.2l0.6,-1.2l0.6,-1.1l0.8,-1.2l0.7,-1.1l0.8,-1.1l0.9,-0.9l0.9,-1.1l1,-0.9l0.9,-0.7l1,-1l1.3,-0.7l1,-0.8l1.3,-0.6l1.2,-0.6l1.2,-0.6l1.2,-0.5l1.2,-0.3l1.4,-0.4l1.4,-0.3l1.4,-0.2l1.2,-0.2l1.4,-0.1l1.3,0l1.4,0l1.5,0.1l1.4,0.2l1.4,0.2l1.4,0.3l1.3,0.4l1.3,0.5l1.3,0.4l1.3,0.6l1.2,0.7l1.2,0.7l1.2,0.8l1.1,0.7l1.1,1l1,0.9l1,0.9l0.9,1.1l0.7,1l1,1.1l0.6,1.2l0.7,1.3l0.6,1.2l0.5,1.2l0.6,1.2l0.3,1.4l0.3,1.2l0.3,1.4l0.2,1.4l0.1,1.2l0,1.4l0,1.3l-0.1,1.4l-0.2,1.4l-0.3,1.2l-0.3,1.4l-0.4,1.2l-0.5,1.4l-0.5,1.2l-0.6,1.2l-0.7,1.2l-0.8,1.1l-0.8,1.1l-0.7,1.1l-0.9,1l-1.1,1.1l-0.9,0.9l-1.1,0.8l-1.2,0.9l-1.1,0.8l-1.2,0.6l-1.2,0.7l-1.3,0.5l-1.3,0.6l-1.3,0.5l-1.3,0.3l-1.4,0.3l-1.4,0.3l-1.4,0.1l-1.5,0.2l-1.4,0l-1.3,0l-1.4,-0.2l-1.4,-0.1l-1.4,-0.2l-1.3,-0.3l-1.4,-0.4l-1.4,-0.5l-1.2,-0.5l-1.4,-0.6l-1.2,-0.6l-1.1,-0.7l-1.2,-0.8l-1.1,-0.8l-1,-0.9l-1.1,-0.9l-0.9,-0.9l-0.9,-1.1l-0.9,-1.1l-0.8,-1l-0.8,-1.3l-0.6,-1.2l-0.6,-1.2l-0.6,-1.2l-0.5,-1.2l-0.4,-1.4l-0.3,-1.2l-0.3,-1.4l-0.2,-1.4l0,-1.2l-0.1,-1.4Z" class="g6_27" />
</svg>