<?xml version="1.0" encoding="UTF-8" standalone="no"?>
<!DOCTYPE svg PUBLIC "-//W3C//DTD SVG 1.1//EN"
"http://www.w3.org/Graphics/SVG/1.1/DTD/svg11.dtd">
<svg viewBox="0 0 935 1210" version="1.1" xmlns="http://www.w3.org/2000/svg" xmlns:xlink="http://www.w3.org/1999/xlink">
<defs>
<style type="text/css"><![CDATA[
.g1_45{
fill: none;
stroke: #000066;
stroke-width: 4.5833335;
stroke-linecap: butt;
stroke-linejoin: round;
}
.g2_45{
fill: none;
stroke: #000000;
stroke-width: 1.1458334;
stroke-linecap: butt;
stroke-linejoin: round;
}
.g3_45{
fill: none;
stroke: #FF0000;
stroke-width: 3.0555544;
stroke-linecap: butt;
stroke-linejoin: round;
}
.g4_45{
fill: #17375E;
}
]]></style>
</defs>
<path d="M100.5,103.5l794.1,0" class="g1_45" />
<path d="M84.6,1142.7l772.2,0" class="g2_45" />
<image preserveAspectRatio="none" x="112" y="112" width="690" height="702" xlink:href="img/1.png" />
<path d="M111.7,814.8l690.7,0l0,-703.1l-690.7,0l0,703.1Z" class="g2_45" />
<path d="M118,807.4l601.6,0l0,-649.7l-601.6,0l0,649.7Z" class="g3_45" />
<path fill-rule="evenodd" d="M280.7,134.7c0,-12.6,12.1,-22.9,27,-22.9c14.8,0,26.9,10.3,26.9,22.9c0,12.7,-12.1,23,-26.9,23c-14.9,0,-27,-10.3,-27,-23Z" class="g4_45" />
<image preserveAspectRatio="none" x="290" y="126" width="35" height="18" xlink:href="img/2.png" />
<path d="M662.3,143.9l65.3,0l0,-32.1l-65.3,0l0,32.1Z" class="g3_45" />
<path fill-rule="evenodd" d="M616.5,143.9c0,-12.6,12,-22.9,26.9,-22.9c14.9,0,26.9,10.3,26.9,22.9c0,12.7,-12,22.9,-26.9,22.9c-14.9,0,-26.9,-10.2,-26.9,-22.9Z" class="g4_45" />
<image preserveAspectRatio="none" x="626" y="135" width="35" height="18" xlink:href="img/3.png" />
<path d="M119.2,151.9l167.3,0l0,-37.8l-167.3,0l0,37.8Z" class="g3_45" />
<path fill-rule="evenodd" d="M398.8,151.9c0,-12.6,12,-22.9,26.9,-22.9c14.9,0,26.9,10.3,26.9,22.9c0,12.7,-12,23,-26.9,23c-14.9,0,-26.9,-10.3,-26.9,-23Z" class="g4_45" />
<image preserveAspectRatio="none" x="408" y="143" width="35" height="18" xlink:href="img/4.png" />
</svg>