<?xml version="1.0" encoding="UTF-8" standalone="no"?>
<!DOCTYPE svg PUBLIC "-//W3C//DTD SVG 1.1//EN"
"http://www.w3.org/Graphics/SVG/1.1/DTD/svg11.dtd">
<svg viewBox="0 0 935 1210" version="1.1" xmlns="http://www.w3.org/2000/svg" xmlns:xlink="http://www.w3.org/1999/xlink">
<defs>
<style type="text/css"><![CDATA[
.g1_186{
fill: none;
stroke: #000066;
stroke-width: 4.5833335;
stroke-linecap: butt;
stroke-linejoin: round;
}
.g2_186{
fill: none;
stroke: #000000;
stroke-width: 1.1458334;
stroke-linecap: butt;
stroke-linejoin: round;
}
.g3_186{
fill: none;
stroke: #203864;
stroke-width: 1.1458334;
stroke-linecap: butt;
stroke-linejoin: miter;
stroke-miterlimit: 8;
}
.g4_186{
fill: #333F50;
}
.g5_186{
fill: none;
stroke: #222A35;
stroke-width: 1.1458334;
stroke-linecap: butt;
stroke-linejoin: round;
stroke-miterlimit: 8;
}
.g6_186{
fill: none;
stroke: #FF0000;
stroke-width: 2.6736124;
stroke-linecap: butt;
stroke-linejoin: miter;
stroke-miterlimit: 8;
}
.g7_186{
fill: #17375E;
}
.g8_186{
fill: none;
stroke: #10253F;
stroke-width: 1.1458334;
stroke-linecap: butt;
stroke-linejoin: round;
stroke-miterlimit: 8;
}
]]></style>
</defs>
<path d="M100.5,103.5l794.1,0" class="g1_186" />
<path d="M84.6,1142.7l772.2,0" class="g2_186" />
<image preserveAspectRatio="none" x="112" y="112" width="689" height="361" xlink:href="img/1.png" />
<path d="M111.7,473.8l689.8,0l0,-362.1l-689.8,0l0,362.1Z" class="g3_186" />
<image preserveAspectRatio="none" x="112" y="549" width="690" height="201" xlink:href="img/2.png" />
<path d="M111.7,750.2l690.7,0l0,-201.5l-690.7,0l0,201.5Z" class="g3_186" />
<path fill-rule="evenodd" d="M648.5,607.6c0,-12.3,10.6,-22.3,23.5,-22.3c13,0,23.5,10,23.5,22.3C695.5,620,685,630,672,630c-12.9,0,-23.5,-10,-23.5,-22.4Z" class="g4_186" />
<path d="M648.5,607.6c0,-12.3,10.6,-22.3,23.5,-22.3c13,0,23.5,10,23.5,22.3C695.5,620,685,630,672,630c-12.9,0,-23.5,-10,-23.5,-22.4Z" class="g5_186" />
<path d="M114.6,154.6l72.2,0l0,-27.5l-72.2,0l0,27.5Z" class="g6_186" />
<path fill-rule="evenodd" d="M519.1,308.7c0,-12.3,10.5,-22.3,23.5,-22.3c12.9,0,23.4,10,23.4,22.3c0,12.4,-10.5,22.4,-23.4,22.4c-13,0,-23.5,-10,-23.5,-22.4Z" class="g4_186" />
<path d="M519.1,308.7c0,-12.3,10.5,-22.3,23.5,-22.3c12.9,0,23.4,10,23.4,22.3c0,12.4,-10.5,22.4,-23.4,22.4c-13,0,-23.5,-10,-23.5,-22.4Z" class="g5_186" />
<image preserveAspectRatio="none" x="527" y="299" width="32" height="19" xlink:href="img/3.png" />
<path d="M182.2,245.1l96.2,0l0,-17.2l-96.2,0l0,17.2Z" class="g6_186" />
<path d="M583.2,451.4l151.3,0l0,-18.4l-151.3,0l0,18.4Z" class="g6_186" />
<path fill-rule="evenodd" d="M191.4,146c0,-12.3,10.5,-22.3,23.5,-22.3c12.9,0,23.4,10,23.4,22.3c0,12.4,-10.5,22.4,-23.4,22.4c-13,0,-23.5,-10,-23.5,-22.4Z" class="g7_186" />
<path d="M191.4,146c0,-12.3,10.5,-22.3,23.5,-22.3c12.9,0,23.4,10,23.4,22.3c0,12.4,-10.5,22.4,-23.4,22.4c-13,0,-23.5,-10,-23.5,-22.4Z" class="g8_186" />
<image preserveAspectRatio="none" x="199" y="136" width="32" height="20" xlink:href="img/4.png" />
</svg>