<?xml version="1.0" encoding="UTF-8" standalone="no"?>
<!DOCTYPE svg PUBLIC "-//W3C//DTD SVG 1.1//EN"
"http://www.w3.org/Graphics/SVG/1.1/DTD/svg11.dtd">
<svg viewBox="0 0 909 1286" version="1.1" xmlns="http://www.w3.org/2000/svg" xmlns:xlink="http://www.w3.org/1999/xlink">
<defs>
<style type="text/css"><![CDATA[
.g1_37{
fill: none;
stroke: #000066;
stroke-width: 4.5833335;
stroke-linecap: butt;
stroke-linejoin: round;
}
.g2_37{
fill: none;
stroke: #000000;
stroke-width: 1.1458334;
stroke-linecap: butt;
stroke-linejoin: round;
}
.g3_37{
fill: #FFFFFF;
}
.g4_37{
}
.g5_37{
fill: #376092;
}
.g6_37{
fill: none;
stroke: #FF0000;
stroke-width: 3.0555556;
stroke-linecap: butt;
stroke-linejoin: round;
}
]]></style>
</defs>
<path d="M78.1,99.1l794,0.1" class="g1_37" />
<path d="M96.6,1224.5l772.1,0.1" class="g2_37" />
<path fill-rule="evenodd" d="M112.3,97l689.5,0l0,0.4l-689.5,0l0,-0.4Z" class="g3_37" />
<path fill-rule="evenodd" d="M112.3,285.6l689.5,0l0,0.5l-689.5,0l0,-0.5Z" class="g3_37" />
<path fill-rule="evenodd" d="M112.3,97.3l0.5,0l0,188.3l-0.5,0l0,-188.3Z" class="g3_37" />
<path fill-rule="evenodd" d="M801.3,97.3l0.5,0l0,188.3l-0.5,0l0,-188.3Z" class="g3_37" />
<image preserveAspectRatio="none" x="113" y="97" width="688" height="188" xlink:href="img/1.png" />
<path fill-rule="evenodd" d="M112.6,285.8l-0.3,0.3L112.3,97l0.3,0.3l0.2,0.1l0,188.2l-0.2,0.2Z" class="g4_37" />
<path fill-rule="evenodd" d="M801.5,285.8l-0.2,-0.2l0,-188.2l0.2,-0.1L801.8,97l0,189.1l-0.3,-0.3Z" class="g4_37" />
<path fill-rule="evenodd" d="M801.5,97.3l-0.2,0.1l-688.5,0l-0.2,-0.1L112.3,97l689.5,0l-0.3,0.3Z" class="g4_37" />
<path fill-rule="evenodd" d="M801.5,285.8l0.3,0.3l-689.5,0l0.3,-0.3l0.2,-0.2l688.5,0l0.2,0.2Z" class="g4_37" />
<path fill-rule="evenodd" d="M112.3,349l689.5,0l0,0.3l-689.5,0l0,-0.3Z" class="g3_37" />
<path fill-rule="evenodd" d="M112.3,731.9l689.5,0l0,0.5l-689.5,0l0,-0.5Z" class="g3_37" />
<path fill-rule="evenodd" d="M112.3,349.3l0.5,0l0,382.6l-0.5,0l0,-382.6Z" class="g3_37" />
<path fill-rule="evenodd" d="M801.3,349.3l0.5,0l0,382.6l-0.5,0l0,-382.6Z" class="g3_37" />
<image preserveAspectRatio="none" x="113" y="349" width="688" height="383" xlink:href="img/2.png" />
<path fill-rule="evenodd" d="M112.6,732.1l-0.3,0.3l0,-383.4l0.3,0.3l0.2,0.2l0,382.4l-0.2,0.2Z" class="g4_37" />
<path fill-rule="evenodd" d="M801.5,732.1l-0.2,-0.2l0,-382.4l0.2,-0.2l0.3,-0.3l0,383.4l-0.3,-0.3Z" class="g4_37" />
<path fill-rule="evenodd" d="M801.5,349.3l-0.2,0.2l-688.5,0l-0.2,-0.2L112.3,349l689.5,0l-0.3,0.3Z" class="g4_37" />
<path fill-rule="evenodd" d="M801.5,732.1l0.3,0.3l-689.5,0l0.3,-0.3l0.2,-0.2l688.5,0l0.2,0.2Z" class="g4_37" />
<path fill-rule="evenodd" d="M112.3,754.7l689.5,0l0,0.3l-689.5,0l0,-0.3Z" class="g3_37" />
<path fill-rule="evenodd" d="M112.3,1044l689.5,0l0,0.5l-689.5,0l0,-0.5Z" class="g3_37" />
<path fill-rule="evenodd" d="M112.3,755l0.5,0l0,289.2l-0.5,0l0,-289.2Z" class="g3_37" />
<path fill-rule="evenodd" d="M801.3,755l0.5,0l0,289.2l-0.5,0l0,-289.2Z" class="g3_37" />
<image preserveAspectRatio="none" x="113" y="755" width="688" height="289" xlink:href="img/3.png" />
<path fill-rule="evenodd" d="M112.6,1044.2l-0.3,0.3l0,-289.8l0.3,0.3l0.2,0.1l0,288.9l-0.2,0.2Z" class="g4_37" />
<path fill-rule="evenodd" d="M801.5,1044.2l-0.2,-0.2l0,-288.9l0.2,-0.1l0.3,-0.3l0,289.8l-0.3,-0.3Z" class="g4_37" />
<path fill-rule="evenodd" d="M801.5,755l-0.2,0.1l-688.5,0L112.6,755l-0.3,-0.3l689.5,0l-0.3,0.3Z" class="g4_37" />
<path fill-rule="evenodd" d="M801.5,1044.2l0.3,0.3l-689.5,0l0.3,-0.3l0.2,-0.2l688.5,0l0.2,0.2Z" class="g4_37" />
<path fill-rule="evenodd" d="M431,158.4l0,-1.6l0.1,-1.3l0.2,-1.6l0.3,-1.3l0.5,-1.4l0.4,-1.4l0.5,-1.4l0.6,-1.3l0.7,-1.4l0.8,-1.2l0.9,-1.3l0.9,-1.2l1.1,-1.2l1.1,-1.1l1.1,-1l1.2,-1.1l1.3,-0.9l1.3,-0.9l1.3,-1l1.6,-0.7l1.3,-0.8l1.6,-0.7l1.5,-0.7l1.7,-0.4l1.5,-0.5l1.7,-0.4l1.7,-0.3l1.7,-0.3l1.6,-0.2l1.9,-0.2l1.7,0l1.6,0.2l1.9,0l1.6,0.3l1.9,0.2l1.7,0.4l1.6,0.3l1.7,0.6l1.5,0.5l1.7,0.8l1.6,0.6l1.5,0.7l1.4,0.9l1.5,1l1.2,0.9l1.4,1.1l1.2,1l1.1,1.2l1,1.1l1.1,1.2l0.9,1.4l0.8,1.2l0.8,1.4l0.7,1.4l0.6,1.4l0.5,1.5l0.4,1.4l0.4,1.5l0.1,1.5l0.2,1.4l0.1,1.5l-0.1,0l0,1.5l-0.2,1.6l-0.1,1.5l-0.5,1.4l-0.3,1.5l-0.6,1.4l-0.5,1.4l-0.7,1.3l-0.8,1.4l-0.8,1.4l-0.9,1.2l-1.1,1.2l-1,1.2l-1.1,1.3l-1.2,1l-1.4,1l-1.2,1l-1.5,0.9l-1.4,0.8l-1.5,0.8l-1.6,0.7l-1.7,0.6l-1.5,0.7l-1.7,0.4l-1.6,0.5l-1.7,0.4l-1.9,0.2l-1.6,0.3l-1.9,0l-1.6,0.1l-1.9,-0.1l-1.7,0l-1.8,-0.3l-1.7,-0.2L456,185.9l-1.6,-0.3L452.7,185L451,184.5l-1.5,-0.8l-1.7,-0.6l-1.4,-0.7l-1.5,-1l-1.4,-0.9l-1.4,-0.9l-1.2,-1.1l-1.2,-1l-1.2,-1.3l-1.1,-1L436.5,174l-0.9,-1.4l-0.9,-1.2L433.9,170l-0.6,-1.4l-0.6,-1.4l-0.6,-1.5l-0.3,-1.4l-0.4,-1.5l-0.3,-1.5L431,159.9l0,-1.5Z" class="g5_37" />
<path d="M336.3,244.2l-107.1,0l0,-43.4l214.2,0l0,43.4l-107.1,0Z" class="g6_37" />
</svg>