<?xml version="1.0" encoding="UTF-8" standalone="no"?>
<!DOCTYPE svg PUBLIC "-//W3C//DTD SVG 1.1//EN"
"http://www.w3.org/Graphics/SVG/1.1/DTD/svg11.dtd">
<svg viewBox="0 0 909 1286" version="1.1" xmlns="http://www.w3.org/2000/svg" xmlns:xlink="http://www.w3.org/1999/xlink">
<defs>
<style type="text/css"><![CDATA[
.g1_20{
fill: none;
stroke: #000066;
stroke-width: 4.5833335;
stroke-linecap: butt;
stroke-linejoin: round;
}
.g2_20{
fill: none;
stroke: #000000;
stroke-width: 1.1458334;
stroke-linecap: butt;
stroke-linejoin: round;
}
.g3_20{
fill: #FFFFFF;
}
.g4_20{
}
.g5_20{
fill: none;
stroke: #FF0000;
stroke-width: 3.0555556;
stroke-linecap: butt;
stroke-linejoin: round;
}
.g6_20{
fill: #376092;
}
]]></style>
</defs>
<path d="M78.1,99.1l794,0.1" class="g1_20" />
<path d="M96.6,1224.5l772.1,0.1" class="g2_20" />
<path fill-rule="evenodd" d="M112.3,97l689.5,0l0,0.4l-689.5,0l0,-0.4Z" class="g3_20" />
<path fill-rule="evenodd" d="M112.3,504.6l689.5,0l0,0.4l-689.5,0l0,-0.4Z" class="g3_20" />
<path fill-rule="evenodd" d="M112.3,97.3l0.5,0l0,407.4l-0.5,0l0,-407.4Z" class="g3_20" />
<path fill-rule="evenodd" d="M801.3,97.3l0.5,0l0,407.4l-0.5,0l0,-407.4Z" class="g3_20" />
<image preserveAspectRatio="none" x="113" y="97" width="688" height="408" xlink:href="img/1.png" />
<path fill-rule="evenodd" d="M112.6,504.7l-0.3,0.3l0,-408l0.3,0.3l0.2,0.1l0,407.2l-0.2,0.1Z" class="g4_20" />
<path fill-rule="evenodd" d="M801.5,504.7l-0.2,-0.1l0,-407.2l0.2,-0.1L801.8,97l0,408l-0.3,-0.3Z" class="g4_20" />
<path fill-rule="evenodd" d="M801.5,97.3l-0.2,0.1l-688.5,0l-0.2,-0.1L112.3,97l689.5,0l-0.3,0.3Z" class="g4_20" />
<path fill-rule="evenodd" d="M801.5,504.7l0.3,0.3l-689.5,0l0.3,-0.3l0.2,-0.1l688.5,0l0.2,0.1Z" class="g4_20" />
<path fill-rule="evenodd" d="M112.3,644.5l689.5,0l0,0.3l-689.5,0l0,-0.3Z" class="g3_20" />
<path fill-rule="evenodd" d="M112.3,1025.7l689.5,0l0,0.4l-689.5,0l0,-0.4Z" class="g3_20" />
<path fill-rule="evenodd" d="M112.3,644.8l0.5,0l0,381l-0.5,0l0,-381Z" class="g3_20" />
<path fill-rule="evenodd" d="M801.3,644.8l0.5,0l0,381l-0.5,0l0,-381Z" class="g3_20" />
<image preserveAspectRatio="none" x="113" y="645" width="688" height="381" xlink:href="img/2.png" />
<path fill-rule="evenodd" d="M112.6,1025.8l-0.3,0.3l0,-381.6l0.3,0.3l0.2,0.2l0,380.7l-0.2,0.1Z" class="g4_20" />
<path fill-rule="evenodd" d="M801.5,1025.8l-0.2,-0.1l0,-380.7l0.2,-0.2l0.3,-0.3l0,381.6l-0.3,-0.3Z" class="g4_20" />
<path fill-rule="evenodd" d="M801.5,644.8l-0.2,0.2l-688.5,0l-0.2,-0.2l-0.3,-0.3l689.5,0l-0.3,0.3Z" class="g4_20" />
<path fill-rule="evenodd" d="M801.5,1025.8l0.3,0.3l-689.5,0l0.3,-0.3l0.2,-0.1l688.5,0l0.2,0.1Z" class="g4_20" />
<path d="M273.8,166.3l-37.8,0l0,-29.8l75.5,0l0,29.8l-37.7,0Z" class="g5_20" />
<path fill-rule="evenodd" d="M453.8,432.9l0,-1.4l0.1,-1.3l0.2,-1.4l0.3,-1.2l0.3,-1.4L455,425l0.4,-1.4l0.6,-1.2l0.7,-1.3l0.6,-1l0.7,-1.2l0.8,-1.1l0.9,-1.1l0.9,-1.1l0.9,-0.9l1.1,-0.9l1.1,-0.9l1.1,-0.8l1.2,-0.7l1.2,-0.8l1.2,-0.6l1.2,-0.6l1.4,-0.5l1.2,-0.4l1.4,-0.5l1.4,-0.3l1.4,-0.3l1.3,-0.2l1.6,0l1.3,-0.1l1.4,0l1.4,0.1l1.4,0.2l1.3,0.3l1.4,0.3l1.4,0.3l1.4,0.5l1.2,0.6l1.4,0.6l1.2,0.6l1.2,0.6l1.1,0.8l1.2,0.9l1.1,0.9l0.9,0.9l1.1,0.9l0.9,1.1l0.7,1.1l0.8,1.1l0.8,1.2l0.7,1l0.6,1.3l0.5,1.2l0.5,1.4l0.4,1.2l0.3,1.4l0.3,1.2l0.2,1.4l0.1,1.3l0,1.4l0,1.4l-0.1,1.2l-0.2,1.4l-0.3,1.4l-0.3,1.2l-0.4,1.4l-0.5,1.2l-0.5,1.2l-0.6,1.2l-0.7,1.2l-0.8,1.1l-0.8,1.2l-0.7,1.1l-0.9,0.9l-1.1,1.1l-0.9,0.9l-1.1,0.9l-1.2,0.8l-1.1,0.8l-1.2,0.7l-1.2,0.6l-1.4,0.6l-1.2,0.5l-1.4,0.5l-1.4,0.3l-1.4,0.3l-1.3,0.3l-1.4,0.1l-1.4,0.2l-1.4,0l-1.3,0l-1.6,-0.2l-1.3,-0.1L475,458l-1.4,-0.3l-1.4,-0.3L471,456.9l-1.4,-0.6l-1.2,-0.6l-1.2,-0.6L466,454.5l-1.2,-0.8l-1.1,-0.9L462.6,452l-1.1,-0.9L460.6,450l-0.9,-0.9L458.8,448L458,446.8l-0.7,-1.1l-0.6,-1.2L456,443.3l-0.6,-1.2L455,440.9l-0.5,-1.4l-0.3,-1.2l-0.3,-1.4l-0.1,-1.4l0,-1.2l-0.2,-1.4l0.2,0Z" class="g6_20" />
<path d="M277.3,447.1l-165,0l0,-26.3l329.8,0l0,26.3l-164.8,0Z" class="g5_20" />
<path d="M459.6,313.1l-147.9,0l0,-27.5l295.6,0l0,27.5l-147.7,0Z" class="g5_20" />
<path fill-rule="evenodd" d="M315.2,183l0,-1.4l0.1,-1.2l0.2,-1.4l0.3,-1.4l0.3,-1.2l0.3,-1.4l0.5,-1.2l0.6,-1.2l0.6,-1.2l0.6,-1.3l0.8,-1.2l0.7,-1.1l0.9,-1l1,-0.9l0.9,-1.1l1,-0.9l1.1,-0.9l1.1,-0.8l1.2,-0.8l1.2,-0.7l1.2,-0.6l1.3,-0.7l1.3,-0.4l1.3,-0.5l1.3,-0.4l1.4,-0.3l1.4,-0.2l1.4,-0.1l1.5,-0.2l1.4,0l1.3,0l1.4,0.2l1.4,0.1l1.4,0.2l1.3,0.3l1.4,0.4l1.4,0.5l1.2,0.4l1.4,0.7l1.2,0.6l1.2,0.7l1.1,0.8L359,163l1.1,0.9l0.9,0.9l1.1,1.1l0.9,0.9l0.8,1l0.7,1.1l0.8,1.2l0.8,1.3l0.6,1.2l0.4,1.2l0.5,1.2l0.4,1.4l0.3,1.2l0.4,1.4l0.1,1.4l0.2,1.2l0,1.4l-0.2,0l0,1.3l-0.1,1.4l-0.2,1.4l-0.3,1.2l-0.3,1.4l-0.3,1.2l-0.5,1.4l-0.6,1.2l-0.6,1.2l-0.6,1.1l-0.8,1.2l-0.7,1.1l-1,1.1l-0.9,1l-0.9,0.9l-1.1,1l-1,0.9l-1.1,0.7l-1.2,0.8l-1.1,0.8l-1.4,0.6l-1.2,0.6l-1.2,0.5l-1.4,0.4l-1.4,0.5l-1.3,0.3l-1.4,0.3l-1.4,0.1l-1.4,0l-1.3,0.2l0,-0.2l-1.4,0l-1.5,-0.1l-1.4,-0.2l-1.4,-0.1L335,207.9l-1.3,-0.5L332.4,207l-1.3,-0.5l-1.3,-0.6l-1.2,-0.6l-1.2,-0.8l-1.2,-0.8L325.1,203L324,202.1l-1,-1l-0.9,-0.9l-1,-1l-0.7,-1.1L319.5,197l-0.7,-1.2l-0.7,-1.1l-0.6,-1.2L317,192.1l-0.6,-1.2l-0.3,-1.2l-0.3,-1.4l-0.3,-1.2l-0.2,-1.4l-0.1,-1.4l0,-1.3Z" class="g6_20" />
<path d="M761.4,450.6l-34.8,0l0,-30.8l69.8,0l0,30.8l-35,0Z" class="g5_20" />
<path fill-rule="evenodd" d="M668.1,438.6l0,-1.4l0.1,-1.2l0.2,-1.4l0.3,-1.4L669,432l0.5,-1.4l0.4,-1.2l0.5,-1.2L671,427l0.8,-1.3l0.7,-1.2l0.8,-1.1l0.8,-1l0.9,-0.9l1,-1.1l1,-0.9l1,-0.9l1.3,-0.8l1,-0.8l1.2,-0.7l1.3,-0.7l1.3,-0.6l1.3,-0.4l1.3,-0.5l1.4,-0.4l1.4,-0.3l1.4,-0.2l1.3,-0.1l1.4,-0.2l1.4,0l1.4,0l1.5,0.2l1.4,0.1l1.3,0.2l1.4,0.3l1.4,0.4l1.2,0.5L706,415l1.2,0.6l1.2,0.7l1.3,0.7l1.2,0.8l1,0.8l1.1,0.9l1.1,0.9l0.9,1.1l0.9,0.9l0.9,1l0.8,1.1l0.8,1.2L719,427l0.6,1.2l0.6,1.2l0.5,1.2L721,432l0.3,1.2l0.3,1.4l0.1,1.4l0.2,1.2l0,1.4l0,1.3l-0.2,1.4l-0.1,1.4l-0.3,1.2l-0.3,1.4l-0.5,1.2l-0.5,1.4l-0.4,1.2l-0.6,1.2l-0.8,1.1l-0.8,1.2l-0.7,1.1l-0.8,1.1l-0.9,1l-1.1,0.9l-0.9,1l-1.1,0.9l-1.2,0.7l-1,0.8l-1.3,0.8l-1.2,0.6l-1.2,0.6l-1.4,0.5l-1.2,0.4l-1.4,0.5l-1.4,0.3l-1.3,0.3l-1.4,0.1l-1.5,0l-1.4,0.2l0,-0.2l-1.4,0l-1.4,-0.1l-1.3,-0.2l-1.4,-0.1l-1.4,-0.3L686.7,463l-1.3,-0.4l-1.3,-0.5l-1.3,-0.6l-1.3,-0.6l-1,-0.8l-1.2,-0.8l-1.1,-0.7l-1.1,-0.9l-1.1,-1l-0.9,-0.9l-0.9,-1l-0.9,-1.1l-0.8,-1.1l-0.7,-1.2l-0.6,-1.1l-0.7,-1.2l-0.6,-1.4l-0.4,-1.2L669,445.3l-0.3,-1.4l-0.3,-1.2l-0.2,-1.4l0,-1.4l-0.1,-1.3Z" class="g6_20" />
<path fill-rule="evenodd" d="M453.8,941.7l0,-1.4l0.1,-1.4l0.2,-1.4l0.3,-1.2l0.3,-1.4l0.3,-1.2l0.4,-1.4l0.6,-1.2l0.7,-1.2l0.6,-1.1l0.7,-1.2l0.8,-1.1l0.9,-1l0.9,-1.1l0.9,-0.9l1.1,-0.9l1.1,-1l1.1,-0.7l1.2,-0.8l1.2,-0.7l1.2,-0.7l1.2,-0.6l1.4,-0.4l1.2,-0.5l1.4,-0.4l1.4,-0.3l1.4,-0.4l1.3,-0.1l1.6,0l1.3,-0.2l1.4,0l1.4,0.2l1.4,0.1l1.3,0.4l1.4,0.3l1.4,0.3l1.4,0.4l1.2,0.6l1.4,0.6l1.2,0.7l1.2,0.6l1.1,0.7l1.2,0.9l1.1,1l0.9,0.9l1.1,0.9l0.9,1.1l0.7,1l0.8,1.1l0.8,1.2l0.7,1.1l0.6,1.2l0.5,1.2l0.5,1.4l0.4,1.2l0.3,1.4l0.3,1.2l0.2,1.4l0.1,1.4l0,1.4l0,1.3l-0.1,1.3l-0.2,1.3l-0.3,1.4l-0.3,1.2l-0.4,1.4l-0.5,1.2l-0.5,1.3l-0.6,1.2l-0.7,1.2l-0.8,1.1l-0.8,1.2l-0.7,1.1l-0.9,0.9l-1.1,1l-0.9,1l-1.1,0.9l-1.2,0.7l-1.1,0.8l-1.2,0.8l-1.2,0.6l-1.4,0.6l-1.2,0.4l-1.4,0.5l-1.4,0.3l-1.4,0.3l-1.3,0.3l-1.4,0.2l-1.4,0.1l-1.4,0l-1.3,0l-1.6,-0.1L476.4,967L475,966.7l-1.4,-0.3l-1.4,-0.3L471,965.6L469.6,965l-1.2,-0.6l-1.2,-0.6L466,963.2l-1.2,-0.8l-1.1,-0.9l-1.1,-0.7l-1.1,-1l-0.9,-1l-0.9,-0.9l-0.9,-1.1L458,955.6l-0.7,-1.1l-0.6,-1.2L456,952.1l-0.6,-1.3L455,949.6l-0.5,-1.4L454.2,947l-0.3,-1.4l-0.1,-1.3l0,-1.3l-0.2,-1.3l0.2,0Z" class="g6_20" />
<path d="M490.4,1000.5l-308.1,0l0,-29.7l616.4,0l0,29.7l-308.3,0Z" class="g5_20" />
<path d="M211.9,803.4l-50.4,0l0,-26.3l100.8,0l0,26.3l-50.4,0Z" class="g5_20" />
<path fill-rule="evenodd" d="M277.3,814.4l0,-1.4l0.1,-1.4l0.2,-1.3l0.3,-1.2l0.3,-1.4l0.5,-1.2l0.4,-1.4l0.5,-1.2l0.6,-1.3l0.8,-1.2l0.7,-1.1l0.8,-1l0.7,-1.1l1,-1.1l1,-0.9l1,-0.9l1,-0.9l1.2,-0.9l1.1,-0.8l1.2,-0.6l1.3,-0.6l1.3,-0.6l1.3,-0.6l1.3,-0.5l1.4,-0.3l1.4,-0.3l1.4,-0.3l1.3,-0.2l1.4,-0.1l1.4,0l1.4,0l1.5,0.1l1.4,0.2l1.3,0.3l1.4,0.3l1.4,0.3l1.2,0.5l1.4,0.6l1.2,0.6l1.2,0.6l1.2,0.6l1.3,0.8l1,0.9l1.1,0.9l1.1,0.9l0.9,0.9l0.9,1.1l0.9,1.1l0.8,1l0.8,1.3l0.6,1l0.6,1.3l0.6,1.2l0.4,1.4l0.4,1.2l0.3,1.4l0.3,1.2l0.1,1.3l0.2,1.4l0,1.4l0,1.4l-0.2,1.2l-0.1,1.4l-0.3,1.3l-0.3,1.3l-0.5,1.3l-0.5,1.3l-0.4,1.2l-0.6,1.2l-0.8,1.2l-0.8,1.1l-0.7,1.2l-0.8,1.1l-0.9,0.9l-1.1,1.1l-0.9,0.9l-1.1,0.9l-1.2,0.8l-1.1,0.7l-1.2,0.8l-1.2,0.6l-1.2,0.6l-1.4,0.5l-1.2,0.4l-1.4,0.3l-1.4,0.4l-1.3,0.3l-1.4,0.1l-1.5,0.2l-1.4,0l-1.4,0l-1.4,-0.2l-1.3,-0.1l-1.4,-0.3l-1.4,-0.4l-1.4,-0.3l-1.3,-0.4l-1.3,-0.6L292,837.2l-1.3,-0.6l-1,-0.7l-1.3,-0.7l-1,-0.9l-1.1,-0.8l-1.1,-0.9l-0.9,-1.1l-0.9,-0.9l-0.9,-1.1l-0.8,-1.2L281,827.2L280.3,826l-0.6,-1.2l-0.6,-1.2l-0.4,-1.3L278.2,821l-0.3,-1.3l-0.3,-1.3L277.4,817l0,-1.2l-0.1,-1.4Z" class="g6_20" />
</svg>