<?xml version="1.0" encoding="UTF-8" standalone="no"?>
<!DOCTYPE svg PUBLIC "-//W3C//DTD SVG 1.1//EN"
"http://www.w3.org/Graphics/SVG/1.1/DTD/svg11.dtd">
<svg viewBox="0 0 935 1210" version="1.1" xmlns="http://www.w3.org/2000/svg" xmlns:xlink="http://www.w3.org/1999/xlink">
<defs>
<style type="text/css"><![CDATA[
.g1_191{
fill: none;
stroke: #000066;
stroke-width: 4.5833335;
stroke-linecap: butt;
stroke-linejoin: round;
}
.g2_191{
fill: none;
stroke: #000000;
stroke-width: 1.1458334;
stroke-linecap: butt;
stroke-linejoin: round;
}
.g3_191{
fill: none;
stroke: #FF0000;
stroke-width: 2.2916667;
stroke-linecap: butt;
stroke-linejoin: miter;
stroke-miterlimit: 8;
}
.g4_191{
fill: #1F4E79;
}
]]></style>
</defs>
<path d="M100.5,103.5l794.1,0" class="g1_191" />
<path d="M84.6,1142.7l772.2,0" class="g2_191" />
<image preserveAspectRatio="none" x="112" y="112" width="715" height="251" xlink:href="img/1.png" />
<path d="M111.7,363.4l716.2,0l0,-251.7l-716.2,0l0,251.7Z" class="g2_191" />
<image preserveAspectRatio="none" x="112" y="528" width="715" height="480" xlink:href="img/2.png" />
<path d="M111.7,1008.1l716.2,0l0,-480.8l-716.2,0l0,480.8Z" class="g2_191" />
<path d="M134.3,350.9l198.8,0l0,-194.5l-198.8,0l0,194.5Z" class="g3_191" />
<path d="M115.3,562.7l208.3,0l0,-30.7l-208.3,0l0,30.7Z" class="g3_191" />
<path fill-rule="evenodd" d="M314.1,564.8c0,-14,13.5,-25.4,30.1,-25.4c16.7,0,30.2,11.4,30.2,25.4c0,14,-13.5,25.4,-30.2,25.4c-16.6,0,-30.1,-11.4,-30.1,-25.4Z" class="g4_191" />
<image preserveAspectRatio="none" x="324" y="553" width="41" height="23" xlink:href="img/3.png" />
<path d="M115.3,866.2l90.9,0l0,-34.9l-90.9,0l0,34.9Z" class="g3_191" />
<path fill-rule="evenodd" d="M192.5,840.8c0,-14,13.5,-25.4,30.1,-25.4c16.7,0,30.2,11.4,30.2,25.4c0,14,-13.5,25.4,-30.2,25.4c-16.6,0,-30.1,-11.4,-30.1,-25.4Z" class="g4_191" />
<image preserveAspectRatio="none" x="202" y="829" width="41" height="23" xlink:href="img/4.png" />
</svg>