<?xml version="1.0" encoding="UTF-8" standalone="no"?>
<!DOCTYPE svg PUBLIC "-//W3C//DTD SVG 1.1//EN"
"http://www.w3.org/Graphics/SVG/1.1/DTD/svg11.dtd">
<svg viewBox="0 0 935 1210" version="1.1" xmlns="http://www.w3.org/2000/svg" xmlns:xlink="http://www.w3.org/1999/xlink">
<defs>
<style type="text/css"><![CDATA[
.g1_92{
fill: none;
stroke: #000066;
stroke-width: 4.5833335;
stroke-linecap: butt;
stroke-linejoin: round;
}
.g2_92{
fill: none;
stroke: #000000;
stroke-width: 1.1458334;
stroke-linecap: butt;
stroke-linejoin: round;
}
.g3_92{
fill: none;
stroke: #FF0000;
stroke-width: 3.4375;
stroke-linecap: butt;
stroke-linejoin: round;
}
.g4_92{
fill: #376092;
}
]]></style>
</defs>
<path d="M100.5,103.5l794.1,0" class="g1_92" />
<path d="M84.6,1142.7l772.2,0" class="g2_92" />
<image preserveAspectRatio="none" x="112" y="151" width="690" height="321" xlink:href="img/1.png" />
<path d="M111.7,472.3l690.7,0l0,-321.7l-690.7,0l0,321.7Z" class="g2_92" />
<path d="M112.4,172.5l59.4,0l0,-21l-59.4,0l0,21Z" class="g3_92" />
<path fill-rule="evenodd" d="M149.5,183.7c0,-13,10.5,-23.5,23.5,-23.5c13,0,23.5,10.5,23.5,23.5c0,13,-10.5,23.5,-23.5,23.5c-13,0,-23.5,-10.5,-23.5,-23.5Z" class="g4_92" />
<image preserveAspectRatio="none" x="158" y="174" width="30" height="19" xlink:href="img/2.png" />
<path d="M289.2,318.4l207.6,0l0,-24.7l-207.6,0l0,24.7Z" class="g3_92" />
<path fill-rule="evenodd" d="M483.2,278.8c0,-12.9,10.5,-23.4,23.5,-23.4c12.9,0,23.4,10.5,23.4,23.4c0,13,-10.5,23.5,-23.4,23.5c-13,0,-23.5,-10.5,-23.5,-23.5Z" class="g4_92" />
<image preserveAspectRatio="none" x="492" y="269" width="30" height="19" xlink:href="img/3.png" />
<path d="M131,456.9l139.7,0l0,-29.7l-139.7,0l0,29.7Z" class="g3_92" />
<path fill-rule="evenodd" d="M262,422.2c0,-13,10.5,-23.5,23.5,-23.5c12.9,0,23.4,10.5,23.4,23.5c0,13,-10.5,23.5,-23.4,23.5c-13,0,-23.5,-10.5,-23.5,-23.5Z" class="g4_92" />
<image preserveAspectRatio="none" x="270" y="413" width="30" height="19" xlink:href="img/4.png" />
</svg>