<?xml version="1.0" encoding="UTF-8" standalone="no"?>
<!DOCTYPE svg PUBLIC "-//W3C//DTD SVG 1.1//EN"
"http://www.w3.org/Graphics/SVG/1.1/DTD/svg11.dtd">
<svg viewBox="0 0 935 1210" version="1.1" xmlns="http://www.w3.org/2000/svg" xmlns:xlink="http://www.w3.org/1999/xlink">
<defs>
<style type="text/css"><![CDATA[
.g1_114{
fill: none;
stroke: #000066;
stroke-width: 4.5833335;
stroke-linecap: butt;
stroke-linejoin: round;
}
.g2_114{
fill: none;
stroke: #000000;
stroke-width: 1.1458334;
stroke-linecap: butt;
stroke-linejoin: round;
}
.g3_114{
fill: #376092;
}
]]></style>
</defs>
<path d="M100.5,103.5l794.1,0" class="g1_114" />
<path d="M84.6,1142.7l772.2,0" class="g2_114" />
<image preserveAspectRatio="none" x="112" y="112" width="715" height="334" xlink:href="img/1.png" />
<path d="M111.7,446.4l716.2,0l0,-334.7l-716.2,0l0,334.7Z" class="g2_114" />
<path fill-rule="evenodd" d="M400.4,182.2c0,-12.9,10.4,-23.4,23.4,-23.4c12.9,0,23.4,10.5,23.4,23.4c0,13,-10.5,23.4,-23.4,23.4c-13,0,-23.4,-10.4,-23.4,-23.4Z" class="g3_114" />
<path fill-rule="evenodd" d="M658.7,403.6c0,-12.9,10.5,-23.4,23.4,-23.4c12.9,0,23.4,10.5,23.4,23.4c0,12.9,-10.5,23.4,-23.4,23.4c-12.9,0,-23.4,-10.5,-23.4,-23.4Z" class="g3_114" />
</svg>