<?xml version="1.0" encoding="UTF-8" standalone="no"?>
<!DOCTYPE svg PUBLIC "-//W3C//DTD SVG 1.1//EN"
"http://www.w3.org/Graphics/SVG/1.1/DTD/svg11.dtd">
<svg viewBox="0 0 935 1210" version="1.1" xmlns="http://www.w3.org/2000/svg" xmlns:xlink="http://www.w3.org/1999/xlink">
<defs>
<style type="text/css"><![CDATA[
.g1_113{
fill: none;
stroke: #000066;
stroke-width: 4.5833335;
stroke-linecap: butt;
stroke-linejoin: round;
}
.g2_113{
fill: none;
stroke: #000000;
stroke-width: 1.1458334;
stroke-linecap: butt;
stroke-linejoin: round;
}
.g3_113{
fill: none;
stroke: #FF0000;
stroke-width: 3.4375;
stroke-linecap: butt;
stroke-linejoin: round;
}
.g4_113{
fill: #376092;
}
]]></style>
</defs>
<path d="M100.5,103.5l794.1,0" class="g1_113" />
<path d="M84.6,1142.7l772.2,0" class="g2_113" />
<image preserveAspectRatio="none" x="112" y="134" width="715" height="297" xlink:href="img/1.png" />
<path d="M111.7,431.8l716.2,0l0,-297.9l-716.2,0l0,297.9Z" class="g2_113" />
<image preserveAspectRatio="none" x="112" y="513" width="559" height="341" xlink:href="img/2.png" />
<path d="M111.7,854.1l560.3,0l0,-341.4l-560.3,0l0,341.4Z" class="g2_113" />
<path d="M112.4,162l152,0l0,-25.9l-152,0l0,25.9Z" class="g3_113" />
<path fill-rule="evenodd" d="M253.4,168.4c0,-12.9,10.5,-23.4,23.4,-23.4c12.9,0,23.4,10.5,23.4,23.4c0,12.9,-10.5,23.4,-23.4,23.4c-12.9,0,-23.4,-10.5,-23.4,-23.4Z" class="g4_113" />
<path fill-rule="evenodd" d="M528.8,615.9c0,-13,10.5,-23.4,23.4,-23.4c13,0,23.5,10.4,23.5,23.4c0,12.9,-10.5,23.4,-23.5,23.4c-12.9,0,-23.4,-10.5,-23.4,-23.4Z" class="g4_113" />
</svg>