<?xml version="1.0" encoding="UTF-8" standalone="no"?>
<!DOCTYPE svg PUBLIC "-//W3C//DTD SVG 1.1//EN"
"http://www.w3.org/Graphics/SVG/1.1/DTD/svg11.dtd">
<svg viewBox="0 0 935 1210" version="1.1" xmlns="http://www.w3.org/2000/svg" xmlns:xlink="http://www.w3.org/1999/xlink">
<defs>
<style type="text/css"><![CDATA[
.g1_155{
fill: none;
stroke: #000066;
stroke-width: 4.5833335;
stroke-linecap: butt;
stroke-linejoin: round;
}
.g2_155{
fill: none;
stroke: #000000;
stroke-width: 1.1458334;
stroke-linecap: butt;
stroke-linejoin: round;
}
.g3_155{
fill: none;
stroke: #203864;
stroke-width: 1.1458334;
stroke-linecap: butt;
stroke-linejoin: miter;
stroke-miterlimit: 8;
}
.g4_155{
fill: #17375E;
}
.g5_155{
fill: none;
stroke: #10253F;
stroke-width: 1.1458334;
stroke-linecap: butt;
stroke-linejoin: round;
stroke-miterlimit: 8;
}
.g6_155{
fill: none;
stroke: #FF0000;
stroke-width: 2.6736124;
stroke-linecap: butt;
stroke-linejoin: miter;
stroke-miterlimit: 8;
}
]]></style>
</defs>
<path d="M100.5,103.5l794.1,0" class="g1_155" />
<path d="M84.6,1142.7l772.2,0" class="g2_155" />
<image preserveAspectRatio="none" x="112" y="181" width="633" height="566" xlink:href="img/1.png" />
<path d="M111.7,747.6l633.7,0l0,-567.2l-633.7,0l0,567.2Z" class="g3_155" />
<image preserveAspectRatio="none" x="112" y="800" width="343" height="240" xlink:href="img/2.png" />
<path d="M111.7,1041l343.8,0l0,-241.7l-343.8,0l0,241.7Z" class="g3_155" />
<path fill-rule="evenodd" d="M450.3,646.6c0,-12.3,10.5,-22.3,23.5,-22.3c13,0,23.5,10,23.5,22.3c0,12.4,-10.5,22.4,-23.5,22.4c-13,0,-23.5,-10,-23.5,-22.4Z" class="g4_155" />
<path d="M450.3,646.6c0,-12.3,10.5,-22.3,23.5,-22.3c13,0,23.5,10,23.5,22.3c0,12.4,-10.5,22.4,-23.5,22.4c-13,0,-23.5,-10,-23.5,-22.4Z" class="g5_155" />
<image preserveAspectRatio="none" x="458" y="637" width="32" height="19" xlink:href="img/3.png" />
<path d="M435.4,606l92.8,0l0,-45.9l-92.8,0l0,45.9Z" class="g6_155" />
<path d="M210.8,680.4l226.9,0l0,-43.5l-226.9,0l0,43.5Z" class="g6_155" />
<path fill-rule="evenodd" d="M311.7,979.1c0,-12.4,10.5,-22.3,23.5,-22.3c12.9,0,23.4,9.9,23.4,22.3c0,12.3,-10.5,22.3,-23.4,22.3c-13,0,-23.5,-10,-23.5,-22.3Z" class="g4_155" />
<path d="M311.7,979.1c0,-12.4,10.5,-22.3,23.5,-22.3c12.9,0,23.4,9.9,23.4,22.3c0,12.3,-10.5,22.3,-23.4,22.3c-13,0,-23.5,-10,-23.5,-22.3Z" class="g5_155" />
<image preserveAspectRatio="none" x="319" y="969" width="32" height="20" xlink:href="img/4.png" />
<path d="M204,1004.9l89.3,0l0,-26.4l-89.3,0l0,26.4Z" class="g6_155" />
</svg>