<?xml version="1.0" encoding="UTF-8" standalone="no"?>
<!DOCTYPE svg PUBLIC "-//W3C//DTD SVG 1.1//EN"
"http://www.w3.org/Graphics/SVG/1.1/DTD/svg11.dtd">
<svg viewBox="0 0 935 1210" version="1.1" xmlns="http://www.w3.org/2000/svg" xmlns:xlink="http://www.w3.org/1999/xlink">
<defs>
<style type="text/css"><![CDATA[
.g1_189{
fill: none;
stroke: #000066;
stroke-width: 4.5833335;
stroke-linecap: butt;
stroke-linejoin: round;
}
.g2_189{
fill: none;
stroke: #000000;
stroke-width: 1.1458334;
stroke-linecap: butt;
stroke-linejoin: round;
}
.g3_189{
fill: none;
stroke: #FF0000;
stroke-width: 2.2916667;
stroke-linecap: butt;
stroke-linejoin: miter;
stroke-miterlimit: 8;
}
.g4_189{
fill: #1F4E79;
}
]]></style>
</defs>
<path d="M100.5,103.5l794.1,0" class="g1_189" />
<path d="M84.6,1142.7l772.2,0" class="g2_189" />
<image preserveAspectRatio="none" x="112" y="112" width="715" height="630" xlink:href="img/1.png" />
<path d="M111.7,743.1l716.2,0l0,-631.4l-716.2,0l0,631.4Z" class="g2_189" />
<path d="M218.9,364.8l114.2,0l0,-23.2l-114.2,0l0,23.2Z" class="g3_189" />
<path fill-rule="evenodd" d="M320.4,363.3c0,-12,10,-21.7,22.2,-21.7c12.3,0,22.2,9.7,22.2,21.7c0,11.9,-9.9,21.6,-22.2,21.6c-12.2,0,-22.2,-9.7,-22.2,-21.6Z" class="g4_189" />
<image preserveAspectRatio="none" x="328" y="354" width="30" height="18" xlink:href="img/2.png" />
</svg>