<?xml version="1.0" encoding="UTF-8" standalone="no"?>
<!DOCTYPE svg PUBLIC "-//W3C//DTD SVG 1.1//EN"
"http://www.w3.org/Graphics/SVG/1.1/DTD/svg11.dtd">
<svg viewBox="0 0 935 1210" version="1.1" xmlns="http://www.w3.org/2000/svg" xmlns:xlink="http://www.w3.org/1999/xlink">
<defs>
<style type="text/css"><![CDATA[
.g1_205{
fill: none;
stroke: #000066;
stroke-width: 4.5833335;
stroke-linecap: butt;
stroke-linejoin: round;
}
.g2_205{
fill: none;
stroke: #000000;
stroke-width: 1.1458334;
stroke-linecap: butt;
stroke-linejoin: round;
}
.g3_205{
fill: none;
stroke: #FF0000;
stroke-width: 2.2916667;
stroke-linecap: butt;
stroke-linejoin: miter;
stroke-miterlimit: 8;
}
.g4_205{
fill: #1F4E79;
}
]]></style>
</defs>
<path d="M100.5,103.5l794.1,0" class="g1_205" />
<path d="M84.6,1142.7l772.2,0" class="g2_205" />
<image preserveAspectRatio="none" x="112" y="112" width="715" height="493" xlink:href="img/1.png" />
<path d="M111.7,605.7l716.2,0l0,-494l-716.2,0l0,494Z" class="g2_205" />
<image preserveAspectRatio="none" x="112" y="658" width="244" height="187" xlink:href="img/2.png" />
<path d="M111.7,845.1l245.2,0l0,-187.9l-245.2,0l0,187.9Z" class="g2_205" />
<path d="M177.7,177.9l64.5,0l0,-23.3l-64.5,0l0,23.3Z" class="g3_205" />
<path fill-rule="evenodd" d="M242.2,186.9c0,-13.8,14,-24.9,31.2,-24.9c17.2,0,31.2,11.1,31.2,24.9c0,13.7,-14,24.8,-31.2,24.8c-17.2,0,-31.2,-11.1,-31.2,-24.8Z" class="g4_205" />
<image preserveAspectRatio="none" x="252" y="176" width="43" height="22" xlink:href="img/3.png" />
<path d="M165,479.2l108.9,0l0,-29.5l-108.9,0l0,29.5Z" class="g3_205" />
<path fill-rule="evenodd" d="M244.3,435.4c0,-13.7,14,-24.8,31.2,-24.8c17.2,0,31.2,11.1,31.2,24.8c0,13.7,-14,24.8,-31.2,24.8c-17.2,0,-31.2,-11.1,-31.2,-24.8Z" class="g4_205" />
<image preserveAspectRatio="none" x="254" y="424" width="43" height="23" xlink:href="img/4.png" />
<path d="M551.1,559.7l165,0l0,-16.9l-165,0l0,16.9Z" class="g3_205" />
<path fill-rule="evenodd" d="M664.2,534.8c0,-13.7,14,-24.8,31.2,-24.8c17.2,0,31.2,11.1,31.2,24.8c0,13.7,-14,24.9,-31.2,24.9c-17.2,0,-31.2,-11.2,-31.2,-24.9Z" class="g4_205" />
<image preserveAspectRatio="none" x="674" y="523" width="43" height="23" xlink:href="img/5.png" />
<path d="M191.4,825.2l126.9,0l0,-23.3l-126.9,0l0,23.3Z" class="g3_205" />
<path fill-rule="evenodd" d="M294,794c0,-13.7,14,-24.8,31.2,-24.8c17.2,0,31.2,11.1,31.2,24.8c0,13.7,-14,24.8,-31.2,24.8C308,818.8,294,807.7,294,794Z" class="g4_205" />
<image preserveAspectRatio="none" x="304" y="783" width="43" height="22" xlink:href="img/6.png" />
</svg>