<?xml version="1.0" encoding="UTF-8" standalone="no"?>
<!DOCTYPE svg PUBLIC "-//W3C//DTD SVG 1.1//EN"
"http://www.w3.org/Graphics/SVG/1.1/DTD/svg11.dtd">
<svg viewBox="0 0 909 1286" version="1.1" xmlns="http://www.w3.org/2000/svg" xmlns:xlink="http://www.w3.org/1999/xlink">
<defs>
<style type="text/css"><![CDATA[
.g1_5{
fill: none;
stroke: #000066;
stroke-width: 4.5833335;
stroke-linecap: butt;
stroke-linejoin: round;
}
.g2_5{
fill: none;
stroke: #000000;
stroke-width: 1.1458334;
stroke-linecap: butt;
stroke-linejoin: round;
}
.g3_5{
fill: #FFFFFF;
}
.g4_5{
}
.g5_5{
fill: none;
stroke: #FF0000;
stroke-width: 3.0555556;
stroke-linecap: butt;
stroke-linejoin: round;
}
.g6_5{
fill: #376092;
}
]]></style>
</defs>
<path d="M78.1,99.1l794,0.1" class="g1_5" />
<path d="M96.6,1224.5l772.1,0.1" class="g2_5" />
<image preserveAspectRatio="none" x="183" y="95" width="35" height="29" xlink:href="img/1.png" />
<path fill-rule="evenodd" d="M112.3,143.2l689.5,0l0,0.4l-689.5,0l0,-0.4Z" class="g3_5" />
<path fill-rule="evenodd" d="M112.3,537.1l689.5,0l0,0.5l-689.5,0l0,-0.5Z" class="g3_5" />
<path fill-rule="evenodd" d="M112.3,143.6l0.5,0l0,393.7l-0.5,0l0,-393.7Z" class="g3_5" />
<path fill-rule="evenodd" d="M801.3,143.6l0.5,0l0,393.7l-0.5,0l0,-393.7Z" class="g3_5" />
<image preserveAspectRatio="none" x="113" y="143" width="688" height="394" xlink:href="img/2.png" />
<path fill-rule="evenodd" d="M112.6,537.3l-0.3,0.3l0,-394.4l0.3,0.4l0.2,0.1l0,393.4l-0.2,0.2Z" class="g4_5" />
<path fill-rule="evenodd" d="M801.5,537.3l-0.2,-0.2l0,-393.4l0.2,-0.1l0.3,-0.4l0,394.4l-0.3,-0.3Z" class="g4_5" />
<path fill-rule="evenodd" d="M801.5,143.6l-0.2,0.1l-688.5,0l-0.2,-0.1l-0.3,-0.4l689.5,0l-0.3,0.4Z" class="g4_5" />
<path fill-rule="evenodd" d="M801.5,537.3l0.3,0.3l-689.5,0l0.3,-0.3l0.2,-0.2l688.5,0l0.2,0.2Z" class="g4_5" />
<path fill-rule="evenodd" d="M112.3,643.3l689.5,0l0,0.4l-689.5,0l0,-0.4Z" class="g3_5" />
<path fill-rule="evenodd" d="M112.3,1035.5l689.5,0l0,0.4l-689.5,0l0,-0.4Z" class="g3_5" />
<path fill-rule="evenodd" d="M112.3,643.6l0.5,0l0,391.9l-0.5,0l0,-391.9Z" class="g3_5" />
<path fill-rule="evenodd" d="M801.3,643.6l0.5,0l0,391.9l-0.5,0l0,-391.9Z" class="g3_5" />
<image preserveAspectRatio="none" x="113" y="644" width="688" height="391" xlink:href="img/3.png" />
<path fill-rule="evenodd" d="M112.6,1035.6l-0.3,0.3l0,-392.6l0.3,0.3l0.2,0.1l0,391.8l-0.2,0.1Z" class="g4_5" />
<path fill-rule="evenodd" d="M801.5,1035.6l-0.2,-0.1l0,-391.8l0.2,-0.1l0.3,-0.3l0,392.6l-0.3,-0.3Z" class="g4_5" />
<path fill-rule="evenodd" d="M801.5,643.6l-0.2,0.1l-688.5,0l-0.2,-0.1l-0.3,-0.3l689.5,0l-0.3,0.3Z" class="g4_5" />
<path fill-rule="evenodd" d="M801.5,1035.6l0.3,0.3l-689.5,0l0.3,-0.3l0.2,-0.1l688.5,0l0.2,0.1Z" class="g4_5" />
<path d="M454.4,527.2l-73.8,0l0,-27.4l147.7,0l0,27.4l-73.9,0Z" class="g5_5" />
<path d="M251,276.3l-135.2,0l0,-33.1l270.4,0l0,33.1l-135.2,0Z" class="g5_5" />
<path fill-rule="evenodd" d="M557,515.3l0,-1.4l0.2,-1.2l0.1,-1.4l0.3,-1.4l0.3,-1.2l0.3,-1.4l0.5,-1.2l0.6,-1.2l0.6,-1.3l0.6,-1.2l0.8,-1.2l0.8,-1.1l0.9,-1l0.9,-1l0.9,-1l1.1,-0.9l1.1,-1l1,-0.7l1.3,-0.8l1.2,-0.7l1.2,-0.7l1.2,-0.6l1.4,-0.4l1.2,-0.5l1.4,-0.4l1.4,-0.3l1.3,-0.2l1.4,-0.2l1.5,-0.1l1.4,0l1.4,0l1.4,0.1l1.3,0.2l1.4,0.2l1.4,0.3l1.4,0.4l1.3,0.5l1.3,0.4l1.3,0.6l1.3,0.7l1.2,0.7l1.1,0.8l1.2,0.7l1,1l1,0.9l1,1l0.9,1l0.8,1l0.8,1.1l0.7,1.2l0.8,1.2l0.6,1.3l0.5,1.2l0.4,1.2l0.5,1.4l0.3,1.2l0.3,1.4l0.2,1.4l0.1,1.2l0,1.4l-0.1,0l0,1.3l-0.2,1.4l-0.2,1.4l-0.3,1.2l-0.3,1.4l-0.3,1.2l-0.4,1.4l-0.6,1.2l-0.7,1.2l-0.6,1.1l-0.7,1.2l-0.8,1.1l-0.9,1.1l-0.9,1l-0.9,0.9l-1.1,1l-1.1,0.9l-1,0.7l-1.3,0.8l-1,0.8l-1.4,0.6l-1.2,0.6l-1.3,0.4l-1.3,0.5l-1.4,0.5l-1.4,0.3l-1.4,0.3l-1.3,0.1l-1.4,0l-1.4,0.2l0,-0.2l-1.4,0L581,540.8l-1.4,-0.2l-1.3,-0.1l-1.4,-0.3l-1.4,-0.5l-1.2,-0.5l-1.4,-0.4l-1.2,-0.6l-1.2,-0.6l-1.2,-0.8L568,536l-1,-0.7l-1.1,-0.9l-1.1,-1l-0.9,-0.9l-0.9,-1l-0.8,-1.1l-0.9,-1.1l-0.6,-1.2L559.9,527l-0.6,-1.2l-0.4,-1.4l-0.7,-1.2L557.9,522l-0.3,-1.4l-0.3,-1.2L557.2,518L557,516.6l0,-1.3Z" class="g6_5" />
<path fill-rule="evenodd" d="M394.3,260.9l0,-1.4l0.2,-1.4l0.1,-1.3l0.3,-1.3l0.3,-1.3l0.3,-1.3l0.5,-1.3l0.6,-1.3l0.6,-1.2l0.6,-1.2l0.8,-1.1l0.8,-1l0.9,-1.1l0.9,-1.1l0.9,-0.9l1.1,-0.9l1.1,-0.9l1,-0.9l1.2,-0.8l1.3,-0.6L409,238l1.2,-0.6l1.4,-0.7l1.2,-0.4l1.4,-0.3l1.4,-0.3l1.3,-0.3l1.4,-0.2l1.5,-0.1l1.4,0l1.4,0l1.4,0.1l1.3,0.2l1.4,0.3l1.4,0.3l1.4,0.3l1.3,0.4l1.3,0.7l1.3,0.6l1.3,0.6l1.2,0.6l1,0.8l1.3,0.9l1,0.9l1,0.9l1,0.9l0.9,1.1l0.8,1.1l0.8,1l0.7,1.3l0.8,1l0.6,1.2l0.5,1.3l0.4,1.3l0.5,1.3l0.3,1.3l0.3,1.3l0.1,1.3l0.2,1.4l0,1.4l-0.2,0l0,1.4l-0.1,1.2l-0.2,1.4l-0.3,1.3l-0.3,1.3l-0.3,1.3l-0.4,1.3l-0.6,1.2l-0.7,1.2l-0.6,1.2l-0.7,1.1l-0.8,1.2l-0.9,1.1l-0.9,0.9l-0.9,1.1l-1.1,0.9l-1.1,0.9l-1.1,0.8l-1.2,0.7l-1,0.8l-1.4,0.6l-1.2,0.6l-1.3,0.5l-1.3,0.4l-1.4,0.3l-1.4,0.3l-1.4,0.3l-1.3,0.2l-1.4,0.2l-1.4,0l-1.4,0l-1.5,-0.2l-1.4,-0.2l-1.3,-0.3l-1.4,-0.3l-1.4,-0.3l-1.2,-0.4l-1.4,-0.6L409,283.6L407.8,283l-1.3,-0.6l-1.2,-0.7l-1,-1L403.2,280l-1.1,-0.9L401.2,278l-0.9,-0.9L399.5,276l-0.9,-1.2L398,273.7l-0.8,-1.2l-0.6,-1.2l-0.4,-1.2l-0.7,-1.3l-0.3,-1.3l-0.3,-1.3l-0.3,-1.3l-0.1,-1.4l-0.2,-1.2l0,-1.4Z" class="g6_5" />
<path d="M262.3,728.7l-53.8,0l0,-25.1l107.6,0l0,25.1l-53.8,0Z" class="g5_5" />
<path fill-rule="evenodd" d="M390.8,668.6l0,-1.3l0.2,-1.2l0.1,-1.4l0.3,-1.2l0.3,-1.4l0.3,-1.2l0.5,-1.3l0.4,-1.2l0.7,-1.2l0.6,-1.1l0.7,-1.2l0.8,-1.1l0.8,-1l0.9,-1l0.9,-1l0.9,-0.9l0.9,-0.8l1.1,-0.9l1.2,-0.8l1.1,-0.8l1.2,-0.6l1.2,-0.6l1.3,-0.6l1.2,-0.4l1.2,-0.3l1.4,-0.5l1.3,-0.3l1.4,-0.2l1.2,-0.1l1.4,-0.2l1.4,0l1.4,0l1.5,0.2l1.4,0.1l1.3,0.2l1.4,0.3l1.4,0.5l1.2,0.4l1.4,0.5l1.2,0.6l1.2,0.6l1.3,0.8l1.2,0.7l1.1,0.8l1,0.9l1.1,0.9l0.9,0.9l0.9,1.1l0.8,1.1l0.9,1l0.6,1.3l0.8,1.2l0.6,1.2l0.4,1.2l0.7,1.3l0.3,1.3l0.3,1.2l0.3,1.4l0.1,1.4l0.2,1.2l0,1.4l0,1.4l-0.2,1.3l-0.1,1.4l-0.3,1.2l-0.3,1.4l-0.5,1.2l-0.5,1.4l-0.4,1.2l-0.6,1.3l-0.8,1.2l-0.7,1.1l-0.8,1l-0.8,1.1l-0.9,1.1l-1.1,1l-0.9,0.9l-1,0.8l-1.3,0.9l-1,0.8l-1.3,0.6l-1.2,0.8l-1.2,0.4l-1.4,0.6l-1.2,0.5l-1.4,0.3l-1.4,0.3L422,694l-1.4,0.2l-1.5,0.1l-1.4,0l-1.4,0l-1.4,-0.1L413.6,694l-1.4,-0.1l-1.4,-0.3l-1.4,-0.5l-1.3,-0.5l-1.3,-0.4l-1.3,-0.6L404.3,691l-1.1,-0.8L402,689.4l-1.1,-0.7l-1.1,-1l-1,-0.9l-1,-0.9l-0.9,-1.1l-0.9,-1l-0.8,-1.1l-0.7,-1.2l-0.6,-1.2L393.2,679l-0.6,-1.2l-0.4,-1.2l-0.5,-1.4L391.4,674l-0.3,-1.4L391,671.2l0,-1.2l-0.2,-1.4Z" class="g6_5" />
</svg>