<?xml version="1.0" encoding="UTF-8" standalone="no"?>
<!DOCTYPE svg PUBLIC "-//W3C//DTD SVG 1.1//EN"
"http://www.w3.org/Graphics/SVG/1.1/DTD/svg11.dtd">
<svg viewBox="0 0 935 1210" version="1.1" xmlns="http://www.w3.org/2000/svg" xmlns:xlink="http://www.w3.org/1999/xlink">
<defs>
<clipPath id="c0_204"><path d="M102.2,249l0,-91.7l356.4,0l0,91.7Z" /></clipPath>
<clipPath id="c1_204"><path d="M459.4,249l0,-91.7l356.4,0l0,91.7Z" /></clipPath>
<clipPath id="c2_204"><path d="M102.2,296.5l0,-22.9l356.4,0l0,22.9Z" /></clipPath>
<clipPath id="c3_204"><path d="M459.4,296.5l0,-22.9l356.4,0l0,22.9Z" /></clipPath>
<clipPath id="c4_204"><path d="M102.2,366.7l0,-22.9l356.4,0l0,22.9Z" /></clipPath>
<clipPath id="c5_204"><path d="M459.4,366.7l0,-22.9l356.4,0l0,22.9Z" /></clipPath>
<clipPath id="c6_204"><path d="M102.2,738l0,-91.6l356.4,0l0,91.6Z" /></clipPath>
<clipPath id="c7_204"><path d="M459.4,738l0,-91.6l356.4,0l0,91.6Z" /></clipPath>
<style type="text/css"><![CDATA[
.g1_204{
fill: none;
stroke: #000066;
stroke-width: 4.5833335;
stroke-linecap: butt;
stroke-linejoin: round;
}
.g2_204{
fill: none;
stroke: #000000;
stroke-width: 1.1458334;
stroke-linecap: butt;
stroke-linejoin: round;
}
.g3_204{
}
.g4_204{
fill: #656565;
}
.g5_204{
fill: #CCCCCC;
}
]]></style>
</defs>
<path d="M100.5,103.5l794.1,0" class="g1_204" />
<path d="M84.6,1142.7l772.2,0" class="g2_204" />
<path fill-rule="evenodd" d="M101.4,110.7l0.8,0l0,-0.7l-0.8,0l0,0.7Z" class="g3_204" />
<path fill-rule="evenodd" d="M101.4,110.7l0.8,0l0,-0.7l-0.8,0l0,0.7Z" class="g4_204" />
<path fill-rule="evenodd" d="M102.2,110.7l356.4,0l0,-0.7l-356.4,0l0,0.7Z" class="g4_204" />
<path fill-rule="evenodd" d="M458.6,110.7l0.8,0l0,-0.7l-0.8,0l0,0.7Z" class="g4_204" />
<path fill-rule="evenodd" d="M459.4,110.7l356.4,0l0,-0.7l-356.4,0l0,0.7Z" class="g4_204" />
<path fill-rule="evenodd" d="M815.8,110.7l0.8,0l0,-0.7l-0.8,0l0,0.7Z" class="g3_204" />
<path fill-rule="evenodd" d="M815.8,110.7l0.8,0l0,-0.7l-0.8,0l0,0.7Z" class="g4_204" />
<path fill-rule="evenodd" d="M101.4,156.6l0.8,0l0,-45.9l-0.8,0l0,45.9Z" class="g3_204" />
<path fill-rule="evenodd" d="M458.6,156.6l0.8,0l0,-45.9l-0.8,0l0,45.9Z" class="g4_204" />
<path fill-rule="evenodd" d="M815.8,156.6l0.8,0l0,-45.9l-0.8,0l0,45.9Z" class="g3_204" />
<path fill-rule="evenodd" d="M102.2,249l356.4,0l0,-91.7l-356.4,0l0,91.7Z" class="g5_204" />
<g clip-path="url(#c0_204)">
<path fill-rule="evenodd" d="M110,177.9l340.7,0l0,-20.6l-340.7,0l0,20.6Z" class="g5_204" />
</g>
<path fill-rule="evenodd" d="M459.4,249l356.4,0l0,-91.7l-356.4,0l0,91.7Z" class="g5_204" />
<g clip-path="url(#c1_204)">
<path fill-rule="evenodd" d="M467.2,177.9l340.7,0l0,-20.6l-340.7,0l0,20.6Z" class="g5_204" />
</g>
<path fill-rule="evenodd" d="M467.2,198.4l340.7,0l0,-20.5l-340.7,0l0,20.5Z" class="g5_204" />
<path fill-rule="evenodd" d="M467.2,218.9l340.7,0l0,-20.5l-340.7,0l0,20.5Z" class="g5_204" />
<path fill-rule="evenodd" d="M101.4,157.3l0.8,0l0,-0.7l-0.8,0l0,0.7Z" class="g3_204" />
<path fill-rule="evenodd" d="M102.2,157.3l356.4,0l0,-0.7l-356.4,0l0,0.7Z" class="g4_204" />
<path fill-rule="evenodd" d="M458.6,157.3l0.8,0l0,-0.7l-0.8,0l0,0.7Z" class="g4_204" />
<path fill-rule="evenodd" d="M459.4,157.3l356.4,0l0,-0.7l-356.4,0l0,0.7Z" class="g4_204" />
<path fill-rule="evenodd" d="M815.8,157.3l0.8,0l0,-0.7l-0.8,0l0,0.7Z" class="g3_204" />
<path fill-rule="evenodd" d="M101.4,249l0.8,0l0,-91.7l-0.8,0l0,91.7Z" class="g3_204" />
<path fill-rule="evenodd" d="M458.6,249l0.8,0l0,-91.7l-0.8,0l0,91.7Z" class="g4_204" />
<path fill-rule="evenodd" d="M815.8,249l0.8,0l0,-91.7l-0.8,0l0,91.7Z" class="g3_204" />
<path fill-rule="evenodd" d="M101.4,249.7l0.8,0l0,-0.7l-0.8,0l0,0.7Z" class="g3_204" />
<path fill-rule="evenodd" d="M102.2,249.7l356.4,0l0,-0.7l-356.4,0l0,0.7Z" class="g4_204" />
<path fill-rule="evenodd" d="M458.6,249.7l0.8,0l0,-0.7l-0.8,0l0,0.7Z" class="g4_204" />
<path fill-rule="evenodd" d="M459.4,249.7l356.4,0l0,-0.7l-356.4,0l0,0.7Z" class="g4_204" />
<path fill-rule="evenodd" d="M815.8,249.7l0.8,0l0,-0.7l-0.8,0l0,0.7Z" class="g3_204" />
<path fill-rule="evenodd" d="M101.4,272.8l0.8,0l0,-23.1l-0.8,0l0,23.1Z" class="g3_204" />
<path fill-rule="evenodd" d="M458.6,272.8l0.8,0l0,-23.1l-0.8,0l0,23.1Z" class="g4_204" />
<path fill-rule="evenodd" d="M815.8,272.8l0.8,0l0,-23.1l-0.8,0l0,23.1Z" class="g3_204" />
<path fill-rule="evenodd" d="M102.2,296.5l356.4,0l0,-22.9l-356.4,0l0,22.9Z" class="g5_204" />
<g clip-path="url(#c2_204)">
<path fill-rule="evenodd" d="M110,294.1l340.7,0l0,-20.5l-340.7,0l0,20.5Z" class="g5_204" />
</g>
<path fill-rule="evenodd" d="M459.4,296.5l356.4,0l0,-22.9l-356.4,0l0,22.9Z" class="g5_204" />
<g clip-path="url(#c3_204)">
<path fill-rule="evenodd" d="M467.2,294.1l340.7,0l0,-20.5l-340.7,0l0,20.5Z" class="g5_204" />
</g>
<path fill-rule="evenodd" d="M101.4,273.6l0.8,0l0,-0.8l-0.8,0l0,0.8Z" class="g3_204" />
<path fill-rule="evenodd" d="M102.2,273.6l356.4,0l0,-0.8l-356.4,0l0,0.8Z" class="g4_204" />
<path fill-rule="evenodd" d="M458.6,273.6l0.8,0l0,-0.8l-0.8,0l0,0.8Z" class="g4_204" />
<path fill-rule="evenodd" d="M459.4,273.6l356.4,0l0,-0.8l-356.4,0l0,0.8Z" class="g4_204" />
<path fill-rule="evenodd" d="M815.8,273.6l0.8,0l0,-0.8l-0.8,0l0,0.8Z" class="g3_204" />
<path fill-rule="evenodd" d="M101.4,296.5l0.8,0l0,-22.9l-0.8,0l0,22.9Z" class="g3_204" />
<path fill-rule="evenodd" d="M458.6,296.5l0.8,0l0,-22.9l-0.8,0l0,22.9Z" class="g4_204" />
<path fill-rule="evenodd" d="M815.8,296.5l0.8,0l0,-22.9l-0.8,0l0,22.9Z" class="g3_204" />
<path fill-rule="evenodd" d="M101.4,297.2l0.8,0l0,-0.7l-0.8,0l0,0.7Z" class="g3_204" />
<path fill-rule="evenodd" d="M102.2,297.2l356.4,0l0,-0.7l-356.4,0l0,0.7Z" class="g4_204" />
<path fill-rule="evenodd" d="M458.6,297.2l0.8,0l0,-0.7l-0.8,0l0,0.7Z" class="g4_204" />
<path fill-rule="evenodd" d="M459.4,297.2l356.4,0l0,-0.7l-356.4,0l0,0.7Z" class="g4_204" />
<path fill-rule="evenodd" d="M815.8,297.2l0.8,0l0,-0.7l-0.8,0l0,0.7Z" class="g3_204" />
<path fill-rule="evenodd" d="M101.4,343l0.8,0l0,-45.8l-0.8,0l0,45.8Z" class="g3_204" />
<path fill-rule="evenodd" d="M458.6,343l0.8,0l0,-45.8l-0.8,0l0,45.8Z" class="g4_204" />
<path fill-rule="evenodd" d="M815.8,343l0.8,0l0,-45.8l-0.8,0l0,45.8Z" class="g3_204" />
<path fill-rule="evenodd" d="M102.2,366.7l356.4,0l0,-22.9l-356.4,0l0,22.9Z" class="g5_204" />
<g clip-path="url(#c4_204)">
<path fill-rule="evenodd" d="M110,364.3l340.7,0l0,-20.5l-340.7,0l0,20.5Z" class="g5_204" />
</g>
<path fill-rule="evenodd" d="M459.4,366.7l356.4,0l0,-22.9l-356.4,0l0,22.9Z" class="g5_204" />
<g clip-path="url(#c5_204)">
<path fill-rule="evenodd" d="M467.2,364.3l340.7,0l0,-20.5l-340.7,0l0,20.5Z" class="g5_204" />
</g>
<path fill-rule="evenodd" d="M101.4,343.8l0.8,0l0,-0.8l-0.8,0l0,0.8Z" class="g3_204" />
<path fill-rule="evenodd" d="M102.2,343.8l356.4,0l0,-0.8l-356.4,0l0,0.8Z" class="g4_204" />
<path fill-rule="evenodd" d="M458.6,343.8l0.8,0l0,-0.8l-0.8,0l0,0.8Z" class="g4_204" />
<path fill-rule="evenodd" d="M459.4,343.8l356.4,0l0,-0.8l-356.4,0l0,0.8Z" class="g4_204" />
<path fill-rule="evenodd" d="M815.8,343.8l0.8,0l0,-0.8l-0.8,0l0,0.8Z" class="g3_204" />
<path fill-rule="evenodd" d="M101.4,366.7l0.8,0l0,-22.9l-0.8,0l0,22.9Z" class="g3_204" />
<path fill-rule="evenodd" d="M458.6,366.7l0.8,0l0,-22.9l-0.8,0l0,22.9Z" class="g4_204" />
<path fill-rule="evenodd" d="M815.8,366.7l0.8,0l0,-22.9l-0.8,0l0,22.9Z" class="g3_204" />
<path fill-rule="evenodd" d="M101.4,367.4l0.8,0l0,-0.7l-0.8,0l0,0.7Z" class="g3_204" />
<path fill-rule="evenodd" d="M102.2,367.4l356.4,0l0,-0.7l-356.4,0l0,0.7Z" class="g4_204" />
<path fill-rule="evenodd" d="M458.6,367.4l0.8,0l0,-0.7l-0.8,0l0,0.7Z" class="g4_204" />
<path fill-rule="evenodd" d="M459.4,367.4l356.4,0l0,-0.7l-356.4,0l0,0.7Z" class="g4_204" />
<path fill-rule="evenodd" d="M815.8,367.4l0.8,0l0,-0.7l-0.8,0l0,0.7Z" class="g3_204" />
<path fill-rule="evenodd" d="M101.4,390.4l0.8,0l0,-23l-0.8,0l0,23Z" class="g3_204" />
<path fill-rule="evenodd" d="M458.6,390.4l0.8,0l0,-23l-0.8,0l0,23Z" class="g4_204" />
<path fill-rule="evenodd" d="M815.8,390.4l0.8,0l0,-23l-0.8,0l0,23Z" class="g3_204" />
<path fill-rule="evenodd" d="M102.2,482.8l356.4,0l0,-91.7l-356.4,0l0,91.7Z" class="g5_204" />
<path fill-rule="evenodd" d="M110,411.7l340.7,0l0,-20.6l-340.7,0l0,20.6Z" class="g5_204" />
<path fill-rule="evenodd" d="M459.4,482.8l356.4,0l0,-91.7l-356.4,0l0,91.7Z" class="g5_204" />
<path fill-rule="evenodd" d="M467.2,411.7l340.7,0l0,-20.6l-340.7,0l0,20.6Z" class="g5_204" />
<path fill-rule="evenodd" d="M101.4,391.1l0.8,0l0,-0.7l-0.8,0l0,0.7Z" class="g3_204" />
<path fill-rule="evenodd" d="M102.2,391.1l356.4,0l0,-0.7l-356.4,0l0,0.7Z" class="g4_204" />
<path fill-rule="evenodd" d="M458.6,391.1l0.8,0l0,-0.7l-0.8,0l0,0.7Z" class="g4_204" />
<path fill-rule="evenodd" d="M459.4,391.1l356.4,0l0,-0.7l-356.4,0l0,0.7Z" class="g4_204" />
<path fill-rule="evenodd" d="M815.8,391.1l0.8,0l0,-0.7l-0.8,0l0,0.7Z" class="g3_204" />
<path fill-rule="evenodd" d="M101.4,482.8l0.8,0l0,-91.7l-0.8,0l0,91.7Z" class="g3_204" />
<path fill-rule="evenodd" d="M458.6,482.8l0.8,0l0,-91.7l-0.8,0l0,91.7Z" class="g4_204" />
<path fill-rule="evenodd" d="M815.8,482.8l0.8,0l0,-91.7l-0.8,0l0,91.7Z" class="g3_204" />
<path fill-rule="evenodd" d="M101.4,483.5l0.8,0l0,-0.7l-0.8,0l0,0.7Z" class="g3_204" />
<path fill-rule="evenodd" d="M102.2,483.5l356.4,0l0,-0.7l-356.4,0l0,0.7Z" class="g4_204" />
<path fill-rule="evenodd" d="M458.6,483.5l0.8,0l0,-0.7l-0.8,0l0,0.7Z" class="g4_204" />
<path fill-rule="evenodd" d="M459.4,483.5l356.4,0l0,-0.7l-356.4,0l0,0.7Z" class="g4_204" />
<path fill-rule="evenodd" d="M815.8,483.5l0.8,0l0,-0.7l-0.8,0l0,0.7Z" class="g3_204" />
<path fill-rule="evenodd" d="M101.4,552.5l0.8,0l0,-69l-0.8,0l0,69Z" class="g3_204" />
<path fill-rule="evenodd" d="M458.6,552.5l0.8,0l0,-69l-0.8,0l0,69Z" class="g4_204" />
<path fill-rule="evenodd" d="M815.8,552.5l0.8,0l0,-69l-0.8,0l0,69Z" class="g3_204" />
<path fill-rule="evenodd" d="M102.2,599l356.4,0l0,-45.8l-356.4,0l0,45.8Z" class="g5_204" />
<path fill-rule="evenodd" d="M110,573.7l340.7,0l0,-20.5l-340.7,0l0,20.5Z" class="g5_204" />
<path fill-rule="evenodd" d="M459.4,599l356.4,0l0,-45.8l-356.4,0l0,45.8Z" class="g5_204" />
<path fill-rule="evenodd" d="M467.2,573.7l340.7,0l0,-20.5l-340.7,0l0,20.5Z" class="g5_204" />
<path fill-rule="evenodd" d="M467.2,594.1l340.7,0l0,-20.4l-340.7,0l0,20.4Z" class="g5_204" />
<path fill-rule="evenodd" d="M101.4,553.2l0.8,0l0,-0.7l-0.8,0l0,0.7Z" class="g3_204" />
<path fill-rule="evenodd" d="M102.2,553.2l356.4,0l0,-0.7l-356.4,0l0,0.7Z" class="g4_204" />
<path fill-rule="evenodd" d="M458.6,553.2l0.8,0l0,-0.7l-0.8,0l0,0.7Z" class="g4_204" />
<path fill-rule="evenodd" d="M459.4,553.2l356.4,0l0,-0.7l-356.4,0l0,0.7Z" class="g4_204" />
<path fill-rule="evenodd" d="M815.8,553.2l0.8,0l0,-0.7l-0.8,0l0,0.7Z" class="g3_204" />
<path fill-rule="evenodd" d="M101.4,599l0.8,0l0,-45.8l-0.8,0l0,45.8Z" class="g3_204" />
<path fill-rule="evenodd" d="M458.6,599l0.8,0l0,-45.8l-0.8,0l0,45.8Z" class="g4_204" />
<path fill-rule="evenodd" d="M815.8,599l0.8,0l0,-45.8l-0.8,0l0,45.8Z" class="g3_204" />
<path fill-rule="evenodd" d="M101.4,599.8l0.8,0l0,-0.8l-0.8,0l0,0.8Z" class="g3_204" />
<path fill-rule="evenodd" d="M102.2,599.8l356.4,0l0,-0.8l-356.4,0l0,0.8Z" class="g4_204" />
<path fill-rule="evenodd" d="M458.6,599.8l0.8,0l0,-0.8l-0.8,0l0,0.8Z" class="g4_204" />
<path fill-rule="evenodd" d="M459.4,599.8l356.4,0l0,-0.8l-356.4,0l0,0.8Z" class="g4_204" />
<path fill-rule="evenodd" d="M815.8,599.8l0.8,0l0,-0.8l-0.8,0l0,0.8Z" class="g3_204" />
<path fill-rule="evenodd" d="M101.4,645.6l0.8,0l0,-45.8l-0.8,0l0,45.8Z" class="g3_204" />
<path fill-rule="evenodd" d="M458.6,645.6l0.8,0l0,-45.8l-0.8,0l0,45.8Z" class="g4_204" />
<path fill-rule="evenodd" d="M815.8,645.6l0.8,0l0,-45.8l-0.8,0l0,45.8Z" class="g3_204" />
<path fill-rule="evenodd" d="M102.2,738l356.4,0l0,-91.6l-356.4,0l0,91.6Z" class="g5_204" />
<g clip-path="url(#c6_204)">
<path fill-rule="evenodd" d="M110,666.9l340.7,0l0,-20.5l-340.7,0l0,20.5Z" class="g5_204" />
</g>
<path fill-rule="evenodd" d="M459.4,738l356.4,0l0,-91.6l-356.4,0l0,91.6Z" class="g5_204" />
<g clip-path="url(#c7_204)">
<path fill-rule="evenodd" d="M467.2,666.9l340.7,0l0,-20.5l-340.7,0l0,20.5Z" class="g5_204" />
</g>
<path fill-rule="evenodd" d="M467.2,687.4l340.7,0l0,-20.5l-340.7,0l0,20.5Z" class="g5_204" />
<path fill-rule="evenodd" d="M101.4,646.4l0.8,0l0,-0.8l-0.8,0l0,0.8Z" class="g3_204" />
<path fill-rule="evenodd" d="M102.2,646.4l356.4,0l0,-0.8l-356.4,0l0,0.8Z" class="g4_204" />
<path fill-rule="evenodd" d="M458.6,646.4l0.8,0l0,-0.8l-0.8,0l0,0.8Z" class="g4_204" />
<path fill-rule="evenodd" d="M459.4,646.4l356.4,0l0,-0.8l-356.4,0l0,0.8Z" class="g4_204" />
<path fill-rule="evenodd" d="M815.8,646.4l0.8,0l0,-0.8l-0.8,0l0,0.8Z" class="g3_204" />
<path fill-rule="evenodd" d="M101.4,738l0.8,0l0,-91.6l-0.8,0l0,91.6Z" class="g3_204" />
<path fill-rule="evenodd" d="M101.4,738.8l0.8,0l0,-0.8l-0.8,0l0,0.8Z" class="g3_204" />
<path fill-rule="evenodd" d="M101.4,738.8l0.8,0l0,-0.8l-0.8,0l0,0.8Z" class="g3_204" />
<path fill-rule="evenodd" d="M102.2,738.8l356.4,0l0,-0.8l-356.4,0l0,0.8Z" class="g3_204" />
<path fill-rule="evenodd" d="M458.6,738l0.8,0l0,-91.6l-0.8,0l0,91.6Z" class="g4_204" />
<path fill-rule="evenodd" d="M458.6,738.8l0.8,0l0,-0.8l-0.8,0l0,0.8Z" class="g3_204" />
<path fill-rule="evenodd" d="M459.4,738.8l356.4,0l0,-0.8l-356.4,0l0,0.8Z" class="g3_204" />
<path fill-rule="evenodd" d="M815.8,738l0.8,0l0,-91.6l-0.8,0l0,91.6Z" class="g3_204" />
<path fill-rule="evenodd" d="M815.8,738.8l0.8,0l0,-0.8l-0.8,0l0,0.8Z" class="g3_204" />
<path fill-rule="evenodd" d="M815.8,738.8l0.8,0l0,-0.8l-0.8,0l0,0.8Z" class="g3_204" />
</svg>