<?xml version="1.0" encoding="UTF-8" standalone="no"?>
<!DOCTYPE svg PUBLIC "-//W3C//DTD SVG 1.1//EN"
"http://www.w3.org/Graphics/SVG/1.1/DTD/svg11.dtd">
<svg viewBox="0 0 935 1210" version="1.1" xmlns="http://www.w3.org/2000/svg" xmlns:xlink="http://www.w3.org/1999/xlink">
<defs>
<style type="text/css"><![CDATA[
.g1_142{
fill: none;
stroke: #000066;
stroke-width: 4.5833335;
stroke-linecap: butt;
stroke-linejoin: round;
}
.g2_142{
fill: none;
stroke: #000000;
stroke-width: 1.1458334;
stroke-linecap: butt;
stroke-linejoin: round;
}
.g3_142{
fill: none;
stroke: #203864;
stroke-width: 1.1458334;
stroke-linecap: butt;
stroke-linejoin: miter;
stroke-miterlimit: 8;
}
.g4_142{
fill: none;
stroke: #FF0000;
stroke-width: 2.6736124;
stroke-linecap: butt;
stroke-linejoin: miter;
stroke-miterlimit: 8;
}
.g5_142{
fill: #17375E;
}
.g6_142{
fill: none;
stroke: #10253F;
stroke-width: 1.1458334;
stroke-linecap: butt;
stroke-linejoin: round;
stroke-miterlimit: 8;
}
]]></style>
</defs>
<path d="M100.5,103.5l794.1,0" class="g1_142" />
<path d="M84.6,1142.7l772.2,0" class="g2_142" />
<image preserveAspectRatio="none" x="112" y="112" width="301" height="383" xlink:href="img/1.png" />
<path d="M111.7,495.6l301.4,0l0,-383.9l-301.4,0l0,383.9Z" class="g3_142" />
<path d="M228,360.8l177.6,0l0,-27.5l-177.6,0l0,27.5Z" class="g4_142" />
<path fill-rule="evenodd" d="M346,307.5c0,-12.3,10.6,-22.3,23.5,-22.3c13,0,23.5,10,23.5,22.3c0,12.3,-10.5,22.3,-23.5,22.3c-12.9,0,-23.5,-10,-23.5,-22.3Z" class="g5_142" />
<path d="M346,307.5c0,-12.3,10.6,-22.3,23.5,-22.3c13,0,23.5,10,23.5,22.3c0,12.3,-10.5,22.3,-23.5,22.3c-12.9,0,-23.5,-10,-23.5,-22.3Z" class="g6_142" />
<image preserveAspectRatio="none" x="353" y="298" width="33" height="19" xlink:href="img/2.png" />
</svg>