<?xml version="1.0" encoding="UTF-8" standalone="no"?>
<!DOCTYPE svg PUBLIC "-//W3C//DTD SVG 1.1//EN"
"http://www.w3.org/Graphics/SVG/1.1/DTD/svg11.dtd">
<svg viewBox="0 0 935 1210" version="1.1" xmlns="http://www.w3.org/2000/svg" xmlns:xlink="http://www.w3.org/1999/xlink">
<defs>
<style type="text/css"><![CDATA[
.g1_185{
fill: none;
stroke: #000066;
stroke-width: 4.5833335;
stroke-linecap: butt;
stroke-linejoin: round;
}
.g2_185{
fill: none;
stroke: #000000;
stroke-width: 1.1458334;
stroke-linecap: butt;
stroke-linejoin: round;
}
.g3_185{
fill: none;
stroke: #203864;
stroke-width: 1.1458334;
stroke-linecap: butt;
stroke-linejoin: miter;
stroke-miterlimit: 8;
}
.g4_185{
fill: none;
stroke: #FF0000;
stroke-width: 2.6736124;
stroke-linecap: butt;
stroke-linejoin: miter;
stroke-miterlimit: 8;
}
.g5_185{
fill: #333F50;
}
.g6_185{
fill: none;
stroke: #222A35;
stroke-width: 1.1458334;
stroke-linecap: butt;
stroke-linejoin: round;
stroke-miterlimit: 8;
}
]]></style>
</defs>
<path d="M100.5,103.5l794.1,0" class="g1_185" />
<path d="M84.6,1142.7l772.2,0" class="g2_185" />
<image preserveAspectRatio="none" x="112" y="112" width="245" height="597" xlink:href="img/1.png" />
<path d="M111.7,709.8l246.4,0l0,-598.1l-246.4,0l0,598.1Z" class="g3_185" />
<path d="M128.3,675.9l72.2,0l0,-27.5l-72.2,0l0,27.5Z" class="g4_185" />
<path fill-rule="evenodd" d="M213.1,671.9c0,-12.4,10.5,-22.4,23.5,-22.4c13,0,23.5,10,23.5,22.4c0,12.3,-10.5,22.3,-23.5,22.3c-13,0,-23.5,-10,-23.5,-22.3Z" class="g5_185" />
<path d="M213.1,671.9c0,-12.4,10.5,-22.4,23.5,-22.4c13,0,23.5,10,23.5,22.4c0,12.3,-10.5,22.3,-23.5,22.3c-13,0,-23.5,-10,-23.5,-22.3Z" class="g6_185" />
<image preserveAspectRatio="none" x="221" y="662" width="32" height="20" xlink:href="img/2.png" />
</svg>