<?xml version="1.0" encoding="UTF-8" standalone="no"?>
<!DOCTYPE svg PUBLIC "-//W3C//DTD SVG 1.1//EN"
"http://www.w3.org/Graphics/SVG/1.1/DTD/svg11.dtd">
<svg viewBox="0 0 909 1286" version="1.1" xmlns="http://www.w3.org/2000/svg" xmlns:xlink="http://www.w3.org/1999/xlink">
<defs>
<style type="text/css"><![CDATA[
.g1_38{
fill: none;
stroke: #000066;
stroke-width: 4.5833335;
stroke-linecap: butt;
stroke-linejoin: round;
}
.g2_38{
fill: none;
stroke: #000000;
stroke-width: 1.1458334;
stroke-linecap: butt;
stroke-linejoin: round;
}
.g3_38{
fill: #FFFFFF;
}
.g4_38{
}
.g5_38{
fill: none;
stroke: #FF0000;
stroke-width: 3.0555556;
stroke-linecap: butt;
stroke-linejoin: round;
}
.g6_38{
fill: #376092;
}
]]></style>
</defs>
<path d="M78.1,99.1l794,0.1" class="g1_38" />
<path d="M96.6,1224.5l772.1,0.1" class="g2_38" />
<path fill-rule="evenodd" d="M112.3,121.6l693,0l0,0.4l-693,0l0,-0.4Z" class="g3_38" />
<path fill-rule="evenodd" d="M112.3,462.1l693,0l0,0.5l-693,0l0,-0.5Z" class="g3_38" />
<path fill-rule="evenodd" d="M112.3,121.9l0.5,0l0,340.3l-0.5,0l0,-340.3Z" class="g3_38" />
<path fill-rule="evenodd" d="M804.8,121.9l0.5,0l0,340.3l-0.5,0l0,-340.3Z" class="g3_38" />
<image preserveAspectRatio="none" x="113" y="122" width="692" height="340" xlink:href="img/1.png" />
<path fill-rule="evenodd" d="M112.6,462.2l-0.3,0.4l0,-341l0.3,0.3l0.2,0.1l0,340.1l-0.2,0.1Z" class="g4_38" />
<path fill-rule="evenodd" d="M805,462.2l-0.2,-0.1l0,-340.1l0.2,-0.1l0.3,-0.3l0,341L805,462.2Z" class="g4_38" />
<path fill-rule="evenodd" d="M805,121.9l-0.2,0.1l-692,0l-0.2,-0.1l-0.3,-0.3l693,0l-0.3,0.3Z" class="g4_38" />
<path fill-rule="evenodd" d="M805,462.2l0.3,0.4l-693,0l0.3,-0.4l0.2,-0.1l692,0l0.2,0.1Z" class="g4_38" />
<path fill-rule="evenodd" d="M112.3,578.2l689.5,0l0,0.3l-689.5,0l0,-0.3Z" class="g3_38" />
<path fill-rule="evenodd" d="M112.3,975.4l689.5,0l0,0.5l-689.5,0l0,-0.5Z" class="g3_38" />
<path fill-rule="evenodd" d="M112.3,578.5l0.5,0l0,396.9l-0.5,0l0,-396.9Z" class="g3_38" />
<path fill-rule="evenodd" d="M801.3,578.5l0.5,0l0,396.9l-0.5,0l0,-396.9Z" class="g3_38" />
<image preserveAspectRatio="none" x="113" y="578" width="688" height="397" xlink:href="img/2.png" />
<path fill-rule="evenodd" d="M112.6,975.6l-0.3,0.3l0,-397.7l0.3,0.3l0.2,0.2l0,396.7l-0.2,0.2Z" class="g4_38" />
<path fill-rule="evenodd" d="M801.5,975.6l-0.2,-0.2l0,-396.7l0.2,-0.2l0.3,-0.3l0,397.7l-0.3,-0.3Z" class="g4_38" />
<path fill-rule="evenodd" d="M801.5,578.5l-0.2,0.2l-688.5,0l-0.2,-0.2l-0.3,-0.3l689.5,0l-0.3,0.3Z" class="g4_38" />
<path fill-rule="evenodd" d="M801.5,975.6l0.3,0.3l-689.5,0l0.3,-0.3l0.2,-0.2l688.5,0l0.2,0.2Z" class="g4_38" />
<path d="M411.3,454.3l-33.2,0l0,-18.3l66.3,0l0,18.3l-33.1,0Z" class="g5_38" />
<path d="M154.6,259.5l-35.4,0l0,-21.7l70.9,0l0,21.7l-35.5,0Z" class="g5_38" />
<path fill-rule="evenodd" d="M728.9,342.6l0,-1.4l0.2,-1.2l0.1,-1.4l0.3,-1.3l0.3,-1.2l0.3,-1.4l0.5,-1.2l0.6,-1.3l0.6,-1.2l0.6,-1.2l0.8,-1.2l0.7,-1.1l1,-1.1l0.9,-0.9l0.9,-1.1l1.1,-0.9l1,-0.9l1.1,-0.8l1.2,-0.7l1.2,-0.8l1.3,-0.6l1.2,-0.6l1.4,-0.5l1.2,-0.4l1.4,-0.5l1.3,-0.3l1.4,-0.1l1.4,-0.2l1.5,-0.1l1.4,0l1.4,0l1.3,0.1l1.4,0.2l1.4,0.1l1.4,0.3l1.3,0.5l1.4,0.4l1.2,0.5l1.4,0.6l1.2,0.6l1.3,0.8l1,0.7l1.2,0.8l1.1,0.9l0.9,0.9l1.1,1.1l0.9,0.9l0.8,1.1l0.7,1.1l0.8,1.2l0.8,1.2l0.6,1.2l0.4,1.3l0.5,1.2l0.5,1.4l0.3,1.2l0.3,1.3l0.1,1.4l0.2,1.2l0,1.4l-0.2,0l0,1.4l-0.1,1.4l-0.2,1.3l-0.3,1.3l-0.3,1.3l-0.3,1.3l-0.5,1.3l-0.6,1.3l-0.6,1.2l-0.6,1.1l-0.8,1.2l-0.7,1l-0.9,1.1l-0.9,1.1l-1,0.9l-1,0.9l-1.1,0.9l-1.1,0.8l-1.2,0.8l-1.1,0.7l-1.3,0.6l-1.3,0.6l-1.2,0.5l-1.4,0.5l-1.3,0.4l-1.4,0.3l-1.4,0.3l-1.4,0.2l-1.3,0l-1.4,0.1l0,-0.1l-1.4,0l-1.5,-0.2L751.5,368l-1.4,-0.2l-1.3,-0.3l-1.4,-0.4l-1.2,-0.5l-1.4,-0.5l-1.2,-0.6l-1.3,-0.6l-1.2,-0.7l-1.2,-0.8l-1.1,-0.8l-1,-0.9l-1.1,-0.9l-0.9,-0.9l-0.9,-1.1l-0.8,-1.1l-0.9,-1l-0.6,-1.2l-0.8,-1.1l-0.6,-1.2l-0.5,-1.4l-0.6,-1.2l-0.3,-1.3L729.5,348l-0.3,-1.3l-0.1,-1.3L728.9,344l0,-1.4Z" class="g6_38" />
<path fill-rule="evenodd" d="M178.8,304.7l0,-1.2l0.1,-1.4l0.2,-1.2l0.3,-1.4l0.3,-1.2l0.3,-1.2l0.4,-1.2l0.5,-1.3l0.6,-1.2l0.6,-1.2l0.8,-1.1l0.7,-1l0.8,-1.1l0.9,-1.1l0.9,-0.9l1,-0.9l0.9,-0.9l1,-0.8l1.3,-0.8l1,-0.7l1.3,-0.6l1.2,-0.6l1.2,-0.6l1.2,-0.5l1.2,-0.5l1.4,-0.3l1.4,-0.3l1.4,-0.3l1.2,-0.1l1.4,-0.2l1.3,0l1.4,0l1.5,0.2l1.4,0.1l1.4,0.3l1.4,0.3l1.3,0.3l1.3,0.5l1.3,0.6l1.3,0.6l1.2,0.6l1.2,0.6l1.2,0.8l1.1,0.9l1.1,0.9l1,1l1,0.9l0.9,1l0.7,1.1l0.9,1.1l0.7,1l0.7,1.3l0.6,1.2l0.5,1.2l0.6,1.4l0.3,1.2l0.3,1.4l0.3,1.2l0.2,1.4l0.1,1.4l0,1.3l0,1.4l-0.1,1.2l-0.2,1.4l-0.3,1.4l-0.3,1.2l-0.4,1.4l-0.5,1.2l-0.5,1.2l-0.6,1.2l-0.7,1.3l-0.8,1.2l-0.8,1.1l-0.7,1l-0.9,1.1l-1.1,0.9l-0.9,0.9l-1.1,0.9l-1.2,0.8l-1.1,0.8l-1.2,0.7l-1.2,0.6l-1.3,0.7l-1.3,0.4l-1.3,0.5l-1.3,0.4l-1.4,0.3l-1.4,0.3l-1.4,0.2l-1.5,0l-1.4,0.2l-1.3,0l-1.4,-0.2l-1.4,-0.2l-1.4,-0.3l-1.3,-0.3l-1.4,-0.3L196,328.9l-1.2,-0.6l-1.4,-0.7L192.2,327l-1.1,-0.6l-1.2,-0.7l-1.1,-1l-1,-0.9l-1.1,-0.9L185.8,322l-0.9,-1.1l-1,-1l-0.7,-1.1l-0.8,-1.1l-0.6,-1.2l-0.6,-1.2l-0.6,-1.2l-0.5,-1.4l-0.4,-1.2l-0.3,-1.4l-0.3,-1.2l-0.2,-1.4l0,-1.4l-0.1,-1.4Z" class="g6_38" />
<path d="M141.5,320.3l-23.4,0l0,-13.7l46.9,0l0,13.7l-23.5,0Z" class="g5_38" />
<path d="M619.4,333.9l-103.6,0l0,-24l207.3,0l0,24l-103.7,0Z" class="g5_38" />
<path d="M342.5,201l-33.1,0l0,-18.3l66.3,0l0,18.3l-33.2,0Z" class="g5_38" />
<path fill-rule="evenodd" d="M382.7,205.1l0,-1.4l0.2,-1.3L383,201l0.3,-1.2l0.3,-1.4l0.5,-1.2l0.4,-1.4l0.5,-1.2l0.6,-1.2l0.8,-1.3l0.7,-1l0.8,-1.1l0.8,-1.1l0.9,-1l1.1,-1l0.9,-0.9l1,-0.9l1.3,-0.9l1,-0.8l1.3,-0.6l1.2,-0.6l1.4,-0.6L400,181l1.3,-0.5l1.4,-0.3l1.4,-0.3l1.4,-0.3l1.3,-0.1l1.4,-0.2l1.4,0l1.4,0l1.5,0.2l1.4,0.1l1.3,0.3l1.4,0.3l1.4,0.3l1.2,0.5l1.4,0.6l1.2,0.6l1.2,0.6l1.3,0.6l1.2,0.8l1.1,0.9l1,0.9l1.1,0.9l0.9,1l0.9,1l0.9,1.1l0.8,1.1l0.8,1.2l0.6,1.1l0.6,1.2l0.6,1.2l0.5,1.4l0.3,1.2l0.3,1.4l0.3,1.2l0.1,1.4l0.2,1.3l0,1.4l0,1.4l-0.2,1.2l-0.1,1.4l-0.3,1.4l-0.3,1.2l-0.5,1.4l-0.4,1.2l-0.5,1.2l-0.6,1.2l-0.8,1.3l-0.7,1l-0.8,1.2l-0.8,1.1l-0.9,0.9l-1.1,1.1l-0.9,0.9l-1,0.9l-1.3,0.8l-1,0.8l-1.3,0.7l-1.2,0.6l-1.2,0.6l-1.4,0.5l-1.2,0.5l-1.4,0.3l-1.4,0.3l-1.3,0.3l-1.4,0.1l-1.5,0.2l-1.4,0l-1.4,0l-1.4,-0.2l-1.3,-0.1l-1.4,-0.3l-1.4,-0.3l-1.4,-0.3L400,229.1l-1.2,-0.6l-1.4,-0.6l-1.2,-0.6l-1.1,-0.6l-1.2,-0.8L392.8,225l-1.1,-0.8l-1,-0.9l-1,-1.1l-0.9,-0.9l-0.9,-1.1L387.1,219l-0.7,-1l-0.6,-1.3l-0.6,-1.2l-0.7,-1.2l-0.4,-1.2l-0.5,-1.4l-0.3,-1.2L383,209.1l-0.1,-1.4l0,-1.2l-0.2,-1.4Z" class="g6_38" />
<path d="M151.3,666.2l-37.9,0l0,-29.8l75.6,0l0,29.8l-37.7,0Z" class="g5_38" />
<path fill-rule="evenodd" d="M678.5,799.9l0,-1.4l0.1,-1.4l0.2,-1.3l0.3,-1.3l0.3,-1.3l0.3,-1.3l0.5,-1.3l0.6,-1.3l0.6,-1.2l0.6,-1.2l0.8,-1.1l0.7,-1l0.9,-1.1l1,-1.1l0.9,-0.9l1,-0.9l1.1,-0.9l1.1,-0.9l1.2,-0.8l1.2,-0.6l1.3,-0.6l1.2,-0.6l1.3,-0.7l1.3,-0.4l1.3,-0.3l1.4,-0.3l1.4,-0.3l1.4,-0.2l1.5,-0.1l1.4,0l1.4,0l1.3,0.1l1.4,0.2l1.4,0.3l1.4,0.3l1.3,0.3l1.4,0.4l1.2,0.7l1.4,0.6l1.2,0.6l1.2,0.6l1.1,0.8l1.2,0.9l1.1,0.9l0.9,0.9l1.1,0.9l0.9,1.1l0.8,1.1l0.7,1l0.8,1.3l0.8,1l0.6,1.2l0.4,1.3l0.5,1.3l0.4,1.3l0.4,1.3l0.3,1.3l0.1,1.3l0.2,1.4l0,1.4l-0.2,0l0,1.4l-0.1,1.2l-0.2,1.4l-0.3,1.3l-0.3,1.3l-0.3,1.3l-0.5,1.3l-0.6,1.2l-0.6,1.2l-0.6,1.2l-0.8,1.1l-0.7,1.2l-0.9,1.1l-1,0.9l-0.9,1.1l-1.1,0.9l-1,0.9l-1.1,0.8l-1.2,0.7l-1.1,0.8l-1.4,0.6l-1.2,0.6l-1.2,0.5l-1.4,0.4l-1.3,0.3l-1.4,0.3l-1.4,0.3l-1.4,0.2l-1.3,0.2l-1.4,0l-1.4,0l-1.5,-0.2l-1.4,-0.2l-1.4,-0.3l-1.4,-0.3L697,824.3l-1.3,-0.4l-1.3,-0.6l-1.2,-0.7L691.9,822l-1.2,-0.6l-1.2,-0.7l-1.1,-1L687.3,819l-1,-0.9L685.4,817l-1,-0.9L683.7,815l-0.9,-1.2l-0.6,-1.1l-0.8,-1.2l-0.6,-1.2l-0.5,-1.2l-0.6,-1.3l-0.3,-1.3l-0.3,-1.3l-0.3,-1.3l-0.2,-1.4l-0.1,-1.2l0,-1.4Z" class="g6_38" />
<path d="M537.5,859.9l-165,0l0,-26.3l330,0l0,26.3l-165,0Z" class="g5_38" />
<path d="M521.4,801.4l-147.9,0l0,-27.3l295.7,0l0,27.3l-147.8,0Z" class="g5_38" />
<path fill-rule="evenodd" d="M376.9,603.9l0,-1.4l0.2,-1.4l0.1,-1.4l0.3,-1.2l0.3,-1.4l0.5,-1.2l0.4,-1.3l0.5,-1.3l0.6,-1.2l0.8,-1.1l0.7,-1.2l0.8,-1.1l0.8,-1l0.9,-1.1l1,-0.9l1,-0.9l1,-0.9l1.3,-0.8l1,-0.8l1.2,-0.7l1.3,-0.6l1.3,-0.7l1.3,-0.4l1.3,-0.5l1.4,-0.4l1.4,-0.3l1.4,-0.3l1.3,-0.2l1.4,0l1.4,-0.1l1.4,0l1.5,0.1l1.4,0.2l1.3,0.3l1.4,0.3l1.4,0.3l1.2,0.4l1.4,0.6L416,581l1.2,0.6l1.3,0.6l1.2,0.7l1,1l1.1,0.9l1.1,0.9l0.9,0.9l0.9,1.1l0.9,1l0.8,1.1l0.8,1.2l0.6,1.1l0.6,1.2l0.6,1.3l0.5,1.3l0.3,1.2l0.3,1.4l0.3,1.2l0.1,1.4l0.2,1.4l0,1.4l0,1.3l-0.2,1.3l-0.1,1.3l-0.3,1.4l-0.3,1.2l-0.3,1.4L429,613l-0.6,1.3l-0.6,1.2l-0.6,1.2l-0.8,1.1l-0.8,1.2l-0.9,1.1l-0.9,0.9l-0.9,1.1l-1.1,0.9l-1.1,0.9l-1,0.7l-1.2,0.8l-1.3,0.8l-1.2,0.6l-1.2,0.6l-1.4,0.5l-1.2,0.4l-1.4,0.3l-1.4,0.3l-1.3,0.3l-1.4,0.2l-1.5,0.1l-1.4,0l-1.4,0L401,629.4l-1.3,-0.2l-1.4,-0.3l-1.4,-0.3l-1.4,-0.3l-1.3,-0.4l-1.3,-0.7l-1.3,-0.6L390.3,626l-1.2,-0.6l-1,-0.8l-1.3,-0.9l-1,-0.7l-1,-0.9l-1,-1.1l-0.9,-0.9L382.1,619l-0.9,-1.2l-0.6,-1.1l-0.8,-1.2l-0.6,-1.2L378.7,613l-0.4,-1.2l-0.5,-1.4l-0.3,-1.2l-0.3,-1.4l-0.1,-1.3l-0.2,-1.3l0,-1.3Z" class="g6_38" />
<path d="M255,668.5l-53.3,0l0,-28.6l106.5,0l0,28.6l-53.2,0Z" class="g5_38" />
</svg>