<?xml version="1.0" encoding="UTF-8" standalone="no"?>
<!DOCTYPE svg PUBLIC "-//W3C//DTD SVG 1.1//EN"
"http://www.w3.org/Graphics/SVG/1.1/DTD/svg11.dtd">
<svg viewBox="0 0 935 1210" version="1.1" xmlns="http://www.w3.org/2000/svg" xmlns:xlink="http://www.w3.org/1999/xlink">
<defs>
<style type="text/css"><![CDATA[
.g1_27{
fill: none;
stroke: #000066;
stroke-width: 4.5833335;
stroke-linecap: butt;
stroke-linejoin: round;
}
.g2_27{
fill: none;
stroke: #000000;
stroke-width: 1.1458334;
stroke-linecap: butt;
stroke-linejoin: round;
}
.g3_27{
fill: none;
stroke: #000000;
stroke-width: 0.38194567;
stroke-linecap: square;
stroke-linejoin: miter;
stroke-miterlimit: 8;
}
.g4_27{
fill: #C8C8C8;
}
.g5_27{
fill: none;
stroke: #ED7D31;
stroke-width: 3.0555544;
stroke-linecap: butt;
stroke-linejoin: miter;
stroke-miterlimit: 8;
}
]]></style>
</defs>
<path d="M100.5,103.5l794.1,0" class="g1_27" />
<path d="M84.6,1142.7l772.2,0" class="g2_27" />
<image preserveAspectRatio="none" x="112" y="112" width="690" height="462" xlink:href="img/1.png" />
<path d="M112.1,574L802,574l0,-461.9l-689.9,0l0,461.9Z" class="g3_27" />
<image preserveAspectRatio="none" x="112" y="854" width="684" height="157" xlink:href="img/2.png" />
<path d="M112.1,1011.5l684.4,0l0,-157.4l-684.4,0l0,157.4Z" class="g3_27" />
<path fill-rule="evenodd" d="M112.3,719.5l12,-4.5l-8.6,-7.4l13.6,-1l-3.8,-9l13.2,2.6l1.5,-9.3l10.7,5.8l6.7,-8.2l6.6,8.2l10.7,-5.8l1.5,9.3l13.2,-2.6l-3.8,9l13.6,1l-8.5,7.4l11.9,4.5L190.9,724l8.5,7.3l-13.6,1.1l3.8,9l-13.2,-2.6l-1.5,9.3l-10.7,-5.9l-6.6,8.2l-6.7,-8.2l-10.7,5.9l-1.5,-9.3l-13.2,2.6l3.8,-9l-13.6,-1.1l8.6,-7.3Z" class="g4_27" />
<path d="M112.3,719.5l12,-4.5l-8.6,-7.4l13.6,-1l-3.8,-9l13.2,2.6l1.5,-9.3l10.7,5.8l6.7,-8.2l6.6,8.2l10.7,-5.8l1.5,9.3l13.2,-2.6l-3.8,9l13.6,1l-8.5,7.4l11.9,4.5L190.9,724l8.5,7.3l-13.6,1.1l3.8,9l-13.2,-2.6l-1.5,9.3l-10.7,-5.9l-6.6,8.2l-6.7,-8.2l-10.7,5.9l-1.5,-9.3l-13.2,2.6l3.8,-9l-13.6,-1.1l8.6,-7.3Z" class="g5_27" />
</svg>