<?xml version="1.0" encoding="UTF-8" standalone="no"?>
<!DOCTYPE svg PUBLIC "-//W3C//DTD SVG 1.1//EN"
"http://www.w3.org/Graphics/SVG/1.1/DTD/svg11.dtd">
<svg viewBox="0 0 935 1210" version="1.1" xmlns="http://www.w3.org/2000/svg" xmlns:xlink="http://www.w3.org/1999/xlink">
<defs>
<style type="text/css"><![CDATA[
.g1_121{
fill: none;
stroke: #000066;
stroke-width: 4.5833335;
stroke-linecap: butt;
stroke-linejoin: round;
}
.g2_121{
fill: none;
stroke: #000000;
stroke-width: 1.1458334;
stroke-linecap: butt;
stroke-linejoin: round;
}
.g3_121{
fill: none;
stroke: #FF0000;
stroke-width: 2.2916667;
stroke-linecap: butt;
stroke-linejoin: miter;
stroke-miterlimit: 8;
}
.g4_121{
fill: #1F4E79;
}
]]></style>
</defs>
<path d="M100.5,103.5l794.1,0" class="g1_121" />
<path d="M84.6,1142.7l772.2,0" class="g2_121" />
<image preserveAspectRatio="none" x="112" y="112" width="715" height="205" xlink:href="img/1.png" />
<path d="M111.7,318l716.2,0l0,-206.3l-716.2,0l0,206.3Z" class="g2_121" />
<path d="M119.5,135.6l152.3,0l0,-23.3l-152.3,0l0,23.3Z" class="g3_121" />
<path fill-rule="evenodd" d="M261.2,137.1c0,-13.7,13.9,-24.8,31.2,-24.8c17.2,0,31.1,11.1,31.1,24.8c0,13.7,-13.9,24.8,-31.1,24.8c-17.3,0,-31.2,-11.1,-31.2,-24.8Z" class="g4_121" />
<image preserveAspectRatio="none" x="271" y="126" width="43" height="22" xlink:href="img/2.png" />
<path d="M369.1,241.3l431.5,0l0,-48.6l-431.5,0l0,48.6Z" class="g3_121" />
<path fill-rule="evenodd" d="M448.4,178.4c0,-13.7,14,-24.9,31.2,-24.9c17.2,0,31.2,11.2,31.2,24.9c0,13.7,-14,24.8,-31.2,24.8c-17.2,0,-31.2,-11.1,-31.2,-24.8Z" class="g4_121" />
<image preserveAspectRatio="none" x="458" y="167" width="43" height="23" xlink:href="img/3.png" />
</svg>