<?xml version="1.0" encoding="UTF-8" standalone="no"?>
<!DOCTYPE svg PUBLIC "-//W3C//DTD SVG 1.1//EN"
"http://www.w3.org/Graphics/SVG/1.1/DTD/svg11.dtd">
<svg viewBox="0 0 935 1210" version="1.1" xmlns="http://www.w3.org/2000/svg" xmlns:xlink="http://www.w3.org/1999/xlink">
<defs>
<style type="text/css"><![CDATA[
.g1_91{
fill: none;
stroke: #000066;
stroke-width: 4.5833335;
stroke-linecap: butt;
stroke-linejoin: round;
}
.g2_91{
fill: none;
stroke: #000000;
stroke-width: 1.1458334;
stroke-linecap: butt;
stroke-linejoin: round;
}
.g3_91{
fill: none;
stroke: #000000;
stroke-width: 0.38194567;
stroke-linecap: square;
stroke-linejoin: miter;
stroke-miterlimit: 8;
}
.g4_91{
fill: none;
stroke: #000000;
stroke-width: 1.1458334;
stroke-linecap: butt;
stroke-linejoin: round;
stroke-miterlimit: 8;
}
.g5_91{
fill: none;
stroke: #FF0000;
stroke-width: 3.4375;
stroke-linecap: butt;
stroke-linejoin: round;
stroke-miterlimit: 8;
}
.g6_91{
fill: #376092;
}
]]></style>
</defs>
<path d="M100.5,103.5l794.1,0" class="g1_91" />
<path d="M84.6,1142.7l772.2,0" class="g2_91" />
<image preserveAspectRatio="none" x="112" y="248" width="715" height="387" xlink:href="img/1.png" />
<path d="M112.1,635.1l715.4,0l0,-387.4l-715.4,0l0,387.4Z" class="g3_91" />
<image preserveAspectRatio="none" x="112" y="734" width="690" height="303" xlink:href="img/2.png" />
<path d="M111.7,1037.8l690.7,0l0,-304.1l-690.7,0l0,304.1Z" class="g4_91" />
<path d="M214.8,798.1l75.2,0l0,-29.8l-75.2,0l0,29.8Z" class="g5_91" />
<path fill-rule="evenodd" d="M276.8,810.4c0,-13,10.5,-23.5,23.4,-23.5c13,0,23.5,10.5,23.5,23.5c0,13,-10.5,23.5,-23.5,23.5c-12.9,0,-23.4,-10.5,-23.4,-23.5Z" class="g6_91" />
<path d="M116.9,408.8l128.3,0l0,-57.5l-128.3,0l0,57.5Z" class="g5_91" />
<path fill-rule="evenodd" d="M228.6,543.4c0,-13,10.5,-23.5,23.5,-23.5c12.9,0,23.4,10.5,23.4,23.5c0,13,-10.5,23.5,-23.4,23.5c-13,0,-23.5,-10.5,-23.5,-23.5Z" class="g6_91" />
<image preserveAspectRatio="none" x="237" y="534" width="30" height="19" xlink:href="img/3.png" />
<path d="M551.1,528.6l174.2,0l0,-23.8l-174.2,0l0,23.8Z" class="g5_91" />
<path fill-rule="evenodd" d="M700.5,482.5C700.5,469.6,711,459,724,459c13,0,23.5,10.6,23.5,23.5c0,13,-10.5,23.5,-23.5,23.5c-13,0,-23.5,-10.5,-23.5,-23.5Z" class="g6_91" />
<image preserveAspectRatio="none" x="709" y="473" width="30" height="19" xlink:href="img/4.png" />
<path d="M139.8,578.3l80.2,0l0,-21.9l-80.2,0l0,21.9Z" class="g5_91" />
</svg>