<?xml version="1.0" encoding="UTF-8" standalone="no"?>
<!DOCTYPE svg PUBLIC "-//W3C//DTD SVG 1.1//EN"
"http://www.w3.org/Graphics/SVG/1.1/DTD/svg11.dtd">
<svg viewBox="0 0 935 1210" version="1.1" xmlns="http://www.w3.org/2000/svg" xmlns:xlink="http://www.w3.org/1999/xlink">
<defs>
<style type="text/css"><![CDATA[
.g1_78{
fill: none;
stroke: #000066;
stroke-width: 4.5833335;
stroke-linecap: butt;
stroke-linejoin: round;
}
.g2_78{
fill: none;
stroke: #000000;
stroke-width: 1.1458334;
stroke-linecap: butt;
stroke-linejoin: round;
}
.g3_78{
fill: none;
stroke: #000000;
stroke-width: 0.38194567;
stroke-linecap: square;
stroke-linejoin: miter;
stroke-miterlimit: 8;
}
.g4_78{
fill: #376092;
}
.g5_78{
fill: none;
stroke: #FF0000;
stroke-width: 3.4375;
stroke-linecap: butt;
stroke-linejoin: round;
stroke-miterlimit: 8;
}
]]></style>
</defs>
<path d="M100.5,103.5l794.1,0" class="g1_78" />
<path d="M84.6,1142.7l772.2,0" class="g2_78" />
<image preserveAspectRatio="none" x="112" y="231" width="690" height="271" xlink:href="img/1.png" />
<path d="M112.1,502.6l689.9,0L802,231l-689.9,0l0,271.6Z" class="g3_78" />
<image preserveAspectRatio="none" x="112" y="661" width="688" height="288" xlink:href="img/2.png" />
<path d="M112.1,949L800,949l0,-287.9l-687.9,0l0,287.9Z" class="g3_78" />
<path fill-rule="evenodd" d="M666.9,372.9c0,-12,10.2,-21.7,22.9,-21.7c12.6,0,22.9,9.7,22.9,21.7c0,12.1,-10.3,21.8,-22.9,21.8c-12.7,0,-22.9,-9.7,-22.9,-21.8Z" class="g4_78" />
<image preserveAspectRatio="none" x="675" y="364" width="30" height="17" xlink:href="img/3.png" />
<path d="M294.5,436l493.8,0l0,-23l-493.8,0l0,23Z" class="g5_78" />
<path fill-rule="evenodd" d="M564.9,792.2c0,-12.1,10.3,-21.8,22.9,-21.8c12.7,0,22.9,9.7,22.9,21.8c0,12,-10.2,21.7,-22.9,21.7c-12.6,0,-22.9,-9.7,-22.9,-21.7Z" class="g4_78" />
<image preserveAspectRatio="none" x="573" y="784" width="29" height="17" xlink:href="img/4.png" />
<path d="M680.6,899.9l115.8,0l0,-17.2l-115.8,0l0,17.2Z" class="g5_78" />
<path d="M367.8,678.7l97.4,0l0,-18.3l-97.4,0l0,18.3Z" class="g5_78" />
<path d="M233.8,808.2l308.2,0l0,-16l-308.2,0l0,16Z" class="g5_78" />
<path fill-rule="evenodd" d="M629.1,896.4c0,-12,10.2,-21.7,22.9,-21.7c12.6,0,22.9,9.7,22.9,21.7c0,12.1,-10.3,21.8,-22.9,21.8c-12.7,0,-22.9,-9.7,-22.9,-21.8Z" class="g4_78" />
<image preserveAspectRatio="none" x="637" y="888" width="30" height="17" xlink:href="img/5.png" />
</svg>