<?xml version="1.0" encoding="UTF-8" standalone="no"?>
<!DOCTYPE svg PUBLIC "-//W3C//DTD SVG 1.1//EN"
"http://www.w3.org/Graphics/SVG/1.1/DTD/svg11.dtd">
<svg viewBox="0 0 935 1210" version="1.1" xmlns="http://www.w3.org/2000/svg" xmlns:xlink="http://www.w3.org/1999/xlink">
<defs>
<style type="text/css"><![CDATA[
.g1_190{
fill: none;
stroke: #000066;
stroke-width: 4.5833335;
stroke-linecap: butt;
stroke-linejoin: round;
}
.g2_190{
fill: none;
stroke: #000000;
stroke-width: 1.1458334;
stroke-linecap: butt;
stroke-linejoin: round;
}
.g3_190{
fill: none;
stroke: #FF0000;
stroke-width: 2.2916667;
stroke-linecap: butt;
stroke-linejoin: miter;
stroke-miterlimit: 8;
}
.g4_190{
fill: #1F4E79;
}
]]></style>
</defs>
<path d="M100.5,103.5l794.1,0" class="g1_190" />
<path d="M84.6,1142.7l772.2,0" class="g2_190" />
<image preserveAspectRatio="none" x="112" y="147" width="715" height="323" xlink:href="img/1.png" />
<path d="M111.7,470.5l716.2,0l0,-324.4l-716.2,0l0,324.4Z" class="g2_190" />
<image preserveAspectRatio="none" x="112" y="670" width="715" height="252" xlink:href="img/2.png" />
<path d="M111.7,922.8l716.2,0l0,-253.5l-716.2,0l0,253.5Z" class="g2_190" />
<path d="M124.9,252.9l601.8,0l0,-100.8l-601.8,0l0,100.8Z" class="g3_190" />
<path d="M130.1,728.2l146.9,0L277,705l-146.9,0l0,23.2Z" class="g3_190" />
<path fill-rule="evenodd" d="M262.3,696c0,-11.9,9.9,-21.6,22.2,-21.6c12.2,0,22.2,9.7,22.2,21.6c0,12,-10,21.7,-22.2,21.7c-12.3,0,-22.2,-9.7,-22.2,-21.7Z" class="g4_190" />
<image preserveAspectRatio="none" x="270" y="687" width="29" height="18" xlink:href="img/3.png" />
<path d="M130.1,750.5l217.8,0l0,-20.1l-217.8,0l0,20.1Z" class="g3_190" />
<path fill-rule="evenodd" d="M327.8,763.7c0,-12,10,-21.7,22.2,-21.7c12.3,0,22.2,9.7,22.2,21.7c0,12,-9.9,21.7,-22.2,21.7c-12.2,0,-22.2,-9.7,-22.2,-21.7Z" class="g4_190" />
<image preserveAspectRatio="none" x="335" y="755" width="30" height="18" xlink:href="img/4.png" />
<path d="M123.8,458l601.7,0l0,-194.8l-601.7,0l0,194.8Z" class="g3_190" />
</svg>