<?xml version="1.0" encoding="UTF-8" standalone="no"?>
<!DOCTYPE svg PUBLIC "-//W3C//DTD SVG 1.1//EN"
"http://www.w3.org/Graphics/SVG/1.1/DTD/svg11.dtd">
<svg viewBox="0 0 909 1286" version="1.1" xmlns="http://www.w3.org/2000/svg" xmlns:xlink="http://www.w3.org/1999/xlink">
<defs>
<style type="text/css"><![CDATA[
.g1_9{
fill: none;
stroke: #000066;
stroke-width: 4.5833335;
stroke-linecap: butt;
stroke-linejoin: round;
}
.g2_9{
fill: none;
stroke: #000000;
stroke-width: 1.1458334;
stroke-linecap: butt;
stroke-linejoin: round;
}
.g3_9{
fill: #FFFFFF;
}
.g4_9{
}
.g5_9{
fill: none;
stroke: #FF0000;
stroke-width: 3.0555556;
stroke-linecap: butt;
stroke-linejoin: round;
}
.g6_9{
fill: #376092;
}
]]></style>
</defs>
<path d="M78.1,99.1l794,0.1" class="g1_9" />
<path d="M96.6,1224.5l772.1,0.1" class="g2_9" />
<path fill-rule="evenodd" d="M112.3,97l689.5,0l0,0.4l-689.5,0l0,-0.4Z" class="g3_9" />
<path fill-rule="evenodd" d="M112.3,598.2l689.5,0l0,0.5l-689.5,0l0,-0.5Z" class="g3_9" />
<path fill-rule="evenodd" d="M112.3,97.3l0.5,0l0,501.1l-0.5,0l0,-501.1Z" class="g3_9" />
<path fill-rule="evenodd" d="M801.3,97.3l0.5,0l0,501.1l-0.5,0l0,-501.1Z" class="g3_9" />
<image preserveAspectRatio="none" x="113" y="97" width="688" height="501" xlink:href="img/1.png" />
<path fill-rule="evenodd" d="M112.6,598.4l-0.3,0.3L112.3,97l0.3,0.3l0.2,0.1l0,500.8l-0.2,0.2Z" class="g4_9" />
<path fill-rule="evenodd" d="M801.5,598.4l-0.2,-0.2l0,-500.8l0.2,-0.1L801.8,97l0,501.7l-0.3,-0.3Z" class="g4_9" />
<path fill-rule="evenodd" d="M801.5,97.3l-0.2,0.1l-688.5,0l-0.2,-0.1L112.3,97l689.5,0l-0.3,0.3Z" class="g4_9" />
<path fill-rule="evenodd" d="M801.5,598.4l0.3,0.3l-689.5,0l0.3,-0.3l0.2,-0.2l688.5,0l0.2,0.2Z" class="g4_9" />
<path fill-rule="evenodd" d="M112.3,762l625.6,0l0,0.5l-625.6,0l0,-0.5Z" class="g3_9" />
<path fill-rule="evenodd" d="M112.3,1185.5l625.6,0l0,0.5l-625.6,0l0,-0.5Z" class="g3_9" />
<path fill-rule="evenodd" d="M112.3,762.3l0.5,0l0,423.3l-0.5,0l0,-423.3Z" class="g3_9" />
<path fill-rule="evenodd" d="M737.5,762.3l0.4,0l0,423.3l-0.4,0l0,-423.3Z" class="g3_9" />
<image preserveAspectRatio="none" x="113" y="762" width="625" height="423" xlink:href="img/2.png" />
<path fill-rule="evenodd" d="M112.6,1185.6l-0.3,0.4l0,-424l0.3,0.3l0.2,0.2l0,423l-0.2,0.1Z" class="g4_9" />
<path fill-rule="evenodd" d="M737.6,1185.6l-0.1,-0.1l0,-423l0.1,-0.2l0.3,-0.3l0,424l-0.3,-0.4Z" class="g4_9" />
<path fill-rule="evenodd" d="M737.6,762.3l-0.1,0.2l-624.7,0l-0.2,-0.2L112.3,762l625.6,0l-0.3,0.3Z" class="g4_9" />
<path fill-rule="evenodd" d="M737.6,1185.6l0.3,0.4l-625.6,0l0.3,-0.4l0.2,-0.1l624.7,0l0.1,0.1Z" class="g4_9" />
<path d="M185,413.1l-71.6,0l0,-28.8l143.3,0l0,28.8l-71.7,0Z" class="g5_9" />
<path fill-rule="evenodd" d="M267.1,398.7l0,-1.4l0.1,-1.2l0.2,-1.4l0.3,-1.4l0.3,-1.2l0.4,-1.4l0.5,-1.2l0.4,-1.2l0.7,-1.2l0.7,-1.2l0.8,-1.3l0.7,-1l0.8,-1.1l0.9,-0.9l1.1,-1.1l0.9,-0.9l1.1,-0.9l1.2,-0.8l1.1,-0.8l1.2,-0.7l1.2,-0.6l1.4,-0.6l1.2,-0.5l1.4,-0.5l1.4,-0.4l1.3,-0.3l1.4,-0.2l1.4,-0.1l1.4,-0.2l1.3,0l1.4,0l1.5,0.2l1.4,0.1l1.4,0.2l1.4,0.3l1.3,0.4l1.3,0.5l1.3,0.5l1.3,0.6l1.2,0.6l1.2,0.7l1.2,0.8l1.1,0.8l1.1,0.9l1,0.9l1,1.1l0.9,0.9l0.9,1.1l0.8,1l0.7,1.3l0.6,1.2l0.6,1.2l0.7,1.2l0.4,1.2l0.3,1.4l0.3,1.2l0.3,1.4l0.2,1.4l0.1,1.2l0,1.4l0,1.4l-0.1,1.3l-0.2,1.4l-0.3,1.2l-0.3,1.4l-0.4,1.2L319,408l-0.5,1.2l-0.6,1.3l-0.7,1l-0.8,1.2l-0.8,1.1l-0.7,1.1L314,416l-1.1,0.9l-0.9,0.9l-1.1,0.9l-1.2,0.8l-1.1,0.7l-1.2,0.8l-1.2,0.6l-1.3,0.6l-1.3,0.5l-1.3,0.4l-1.3,0.5l-1.4,0.3l-1.4,0.3l-1.4,0.2l-1.5,0l-1.4,0.1l0,-0.1l-1.3,0l-1.4,-0.2l-1.4,-0.1l-1.4,-0.2l-1.3,-0.3l-1.4,-0.5l-1.4,-0.4l-1.2,-0.5l-1.4,-0.6L280.5,421l-1.1,-0.8l-1.2,-0.7l-1.1,-0.8l-1,-0.9L275,416.9L274.1,416l-0.9,-1.1l-1,-1.1l-0.7,-1.1l-0.8,-1.2l-0.6,-1l-0.6,-1.3l-0.6,-1.3l-0.5,-1.3L268,405.4L267.7,404l-0.3,-1.2l-0.2,-1.4l0,-1.3l-0.1,-1.4Z" class="g6_9" />
<path d="M497.3,550.6l-88.2,0l0,-95.1l176.5,0l0,95.1l-88.3,0Z" class="g5_9" />
<path fill-rule="evenodd" d="M353.1,506.6l0,-1.4l0.1,-1.4l0.2,-1.4l0.3,-1.2l0.3,-1.4l0.3,-1.2l0.4,-1.4l0.7,-1.2l0.6,-1.2l0.6,-1.2l0.7,-1.1l0.8,-1.1l0.9,-1l0.9,-1.1l1,-0.9l1,-0.9l1.1,-1l1.1,-0.9l1.2,-0.7l1.2,-0.7l1.2,-0.6L369,483l1.3,-0.6l1.3,-0.4l1.3,-0.4l1.4,-0.3l1.4,-0.3l1.4,-0.1l1.5,-0.2l1.4,0l1.3,0l1.4,0.2l1.4,0.1l1.4,0.3l1.3,0.3l1.4,0.4l1.4,0.4l1.2,0.6l1.4,0.6l1.2,0.6l1.2,0.7l1.1,0.7l1.2,0.9l1.1,1l0.9,0.9l1.1,0.9l0.9,1.1l0.8,1l0.7,1.1l0.8,1.2l0.7,1.1l0.7,1.2l0.4,1.2l0.5,1.4l0.4,1.2l0.3,1.4l0.3,1.2l0.2,1.4l0.1,1.4l0,1.4l-0.1,0l0,1.3l-0.2,1.2l-0.1,1.4l-0.3,1.4l-0.3,1.2l-0.3,1.4l-0.5,1.2l-0.6,1.2l-0.6,1.3l-0.6,1.2l-0.8,1.1l-0.7,1.2l-1,1l-0.9,1l-0.9,1l-1.1,0.9l-1,1l-1.1,0.7l-1.2,0.8l-1.1,0.8l-1.4,0.6l-1.2,0.6l-1.2,0.4l-1.4,0.5l-1.4,0.3l-1.3,0.3l-1.4,0.3l-1.4,0.2l-1.4,0.1l-1.3,0l-1.4,0l-1.5,-0.1l-1.4,-0.2l-1.4,-0.3l-1.4,-0.3L371.6,531l-1.3,-0.5L369,529.9l-1.3,-0.6l-1.2,-0.6l-1.2,-0.6l-1.2,-0.8L363,526.4l-1.1,-0.8l-1,-0.9l-1,-1l-0.9,-1l-0.7,-1l-1,-1.2l-0.6,-1.1L356,518.2l-0.6,-1.3l-0.5,-1.2l-0.6,-1.2L354,513.1l-0.3,-1.2l-0.3,-1.4l-0.2,-1.4l-0.1,-1.2l0,-1.3Z" class="g6_9" />
<path d="M457.9,376.4l-40.8,0l0,-24l81.4,0l0,24l-40.6,0Z" class="g5_9" />
<path fill-rule="evenodd" d="M514.7,381.6l0,-1.4l0.2,-1.4l0.1,-1.3l0.3,-1.3l0.3,-1.3l0.3,-1.3l0.5,-1.3L517,371l0.6,-1.2l0.6,-1.2l0.8,-1.1l0.8,-1l0.9,-1.1l0.9,-1.1l0.9,-0.9l1.1,-0.9l1,-0.9l1.1,-1l1.2,-0.7l1.3,-0.6l1.2,-0.6l1.2,-0.6l1.4,-0.7l1.2,-0.4l1.4,-0.3l1.3,-0.3l1.4,-0.3l1.4,-0.2l1.5,-0.1l1.4,0l1.4,0l1.3,0.1l1.4,0.2l1.4,0.3l1.4,0.3l1.3,0.3l1.4,0.4l1.2,0.7l1.4,0.6l1.2,0.6l1.3,0.6l1,0.7l1.3,1l1,0.9l0.9,0.9l1.1,0.9l0.9,1.1l0.8,1.1l0.8,1l0.7,1.2l0.8,1.1l0.6,1.2l0.5,1.3l0.4,1.3l0.5,1.3l0.3,1.3l0.3,1.3l0.1,1.3l0.2,1.4l0,1.4l-0.2,0l0,1.4l-0.1,1.2l-0.2,1.4l-0.3,1.3l-0.3,1.2l-0.3,1.4l-0.4,1.2L566,392l-0.6,1.2l-0.6,1.2l-0.7,1.1l-0.8,1.2l-0.9,1.1l-0.9,0.9l-1,1.1l-1,0.9l-1.1,0.9l-1.1,0.8l-1.2,0.7l-1.1,0.8l-1.3,0.6l-1.3,0.6l-1.2,0.5l-1.4,0.4l-1.3,0.3l-1.4,0.3l-1.4,0.3l-1.4,0.2l-1.3,0.1l-1.4,0l-1.4,0l-1.5,-0.1l-1.4,-0.2l-1.4,-0.3l-1.3,-0.3L533.2,406L532,405.6L530.6,405l-1.2,-0.7l-1.2,-0.6l-1.3,-0.6l-1.2,-0.7l-1.1,-1l-1,-0.7l-1.1,-0.9l-0.9,-1.1l-0.9,-0.9l-0.8,-1.1L519,395.5l-0.6,-1.1l-0.8,-1.2L517,392l-0.5,-1.3l-0.6,-1.2l-0.3,-1.4l-0.3,-1.2L515,385.6l-0.1,-1.4L514.7,383l0,-1.4Z" class="g6_9" />
<path d="M177.1,887.4l-55.6,0l0,-40l111,0l0,40l-55.4,0Z" class="g5_9" />
<path fill-rule="evenodd" d="M265.8,808l0,-1.4l0.2,-1.4l0.1,-1.3l0.3,-1.3l0.4,-1.3l0.4,-1.3l0.5,-1.3l0.4,-1.3l0.6,-1.2l0.8,-1.2l0.8,-1.1l0.7,-1l0.8,-1.1l0.9,-1.1l1.1,-0.9l0.9,-0.9l1.1,-0.9l1.2,-0.9l1.1,-0.8l1.2,-0.6l1.2,-0.6l1.4,-0.6l1.2,-0.7l1.4,-0.4l1.3,-0.3l1.4,-0.3l1.4,-0.3l1.4,-0.2l1.3,-0.1l1.4,0l1.4,0l1.5,0.1l1.4,0.2l1.4,0.3l1.3,0.3l1.4,0.3l1.2,0.4l1.4,0.7l1.2,0.6l1.3,0.6l1.2,0.6l1.2,0.8l1.1,0.9l1,0.9l1.1,0.9l0.9,0.9l1,1.1l0.9,1.1l0.7,1l0.8,1.2l0.6,1.1l0.6,1.2l0.6,1.3l0.5,1.3l0.3,1.3l0.3,1.3l0.3,1.3l0.2,1.3l0.1,1.4l0,1.4l0,1.4l-0.1,1.2l-0.2,1.4l-0.3,1.3l-0.3,1.3l-0.5,1.3l-0.4,1.2l-0.5,1.3l-0.6,1.2l-0.8,1.2l-0.7,1.1l-0.8,1.2l-0.7,1.1l-1,0.9l-1,1.1l-1,0.9l-1,0.9l-1.2,0.8l-1.1,0.7l-1.2,0.8l-1.3,0.6l-1.2,0.6l-1.4,0.5l-1.2,0.4l-1.4,0.3l-1.3,0.3l-1.4,0.3l-1.4,0.2l-1.5,0.1l-1.4,0l-1.4,0L290,833.5l-1.4,-0.2L287.2,833l-1.4,-0.3l-1.3,-0.3L283.1,832l-1.2,-0.6l-1.4,-0.7l-1.2,-0.6l-1.1,-0.6L277,828.8l-1.1,-1l-1.1,-0.7l-1,-0.9l-0.9,-1.1l-1,-0.9L271,823.1l-0.7,-1.2l-0.8,-1.1l-0.6,-1.2l-0.6,-1.2l-0.6,-1.3l-0.5,-1.2l-0.4,-1.3l-0.4,-1.3L266.1,812L266,810.6l0,-1.2L265.8,808Z" class="g6_9" />
<path d="M400,1020.3l-267.1,0l0,-114.4l534,0l0,114.4l-266.9,0Z" class="g5_9" />
<path fill-rule="evenodd" d="M396.6,879l0,-1.4l0.2,-1.3l0.1,-1.4l0.3,-1.2l0.3,-1.4l0.3,-1.2l0.5,-1.4l0.6,-1.2l0.6,-1.2l0.6,-1.3l0.8,-1l0.8,-1.1l0.9,-1.1l0.9,-1l0.9,-1l1.1,-0.9l1,-0.9l1.1,-0.9l1.2,-0.8l1.3,-0.6l1.2,-0.6l1.2,-0.6l1.4,-0.6l1.2,-0.5l1.4,-0.3l1.3,-0.3l1.4,-0.3l1.4,-0.1l1.5,-0.2l1.4,0l1.4,0l1.4,0.2l1.3,0.1l1.4,0.3l1.4,0.3l1.4,0.3l1.3,0.5l1.2,0.6l1.4,0.6l1.2,0.6l1.3,0.6l1,0.8l1.3,0.9l1,0.9l0.9,0.9l1.1,1l0.9,1l0.8,1.1L446,865l0.7,1.2l0.8,1.1l0.6,1.2l0.5,1.2l0.4,1.4l0.5,1.2l0.3,1.4l0.3,1.2l0.1,1.4l0.2,1.3l0,1.4l-0.2,0l0,1.4l-0.1,1.2l-0.2,1.4l-0.3,1.4l-0.3,1.2L449,887l-0.4,1.2l-0.7,1.2l-0.6,1.2l-0.6,1.3l-0.7,1l-0.8,1.2l-0.9,1.1l-0.9,0.9l-1,1.1l-1,0.9l-1.1,0.9l-1.1,0.8l-1.2,0.8l-1.1,0.7l-1.3,0.6l-1.3,0.7l-1.2,0.4l-1.3,0.5l-1.4,0.3l-1.4,0.3l-1.4,0.3l-1.3,0.1l-1.4,0.2l-1.4,0l-1.4,0l-1.5,-0.2l-1.4,-0.1l-1.4,-0.3l-1.3,-0.3l-1.4,-0.3L413.9,903l-1.4,-0.6l-1.2,-0.6l-1.2,-0.6l-1.3,-0.6l-1.2,-0.8l-1.1,-0.9l-1,-0.8l-1.1,-0.9l-0.9,-1.1l-0.9,-0.9l-0.8,-1.1l-0.9,-1.2l-0.6,-1l-0.8,-1.3l-0.6,-1.2l-0.5,-1.2L397.8,887l-0.3,-1.4l-0.3,-1.2L396.9,883l-0.1,-1.4l-0.2,-1.2l0,-1.4Z" class="g6_9" />
</svg>