<?xml version="1.0" encoding="UTF-8" standalone="no"?>
<!DOCTYPE svg PUBLIC "-//W3C//DTD SVG 1.1//EN"
"http://www.w3.org/Graphics/SVG/1.1/DTD/svg11.dtd">
<svg viewBox="0 0 935 1210" version="1.1" xmlns="http://www.w3.org/2000/svg" xmlns:xlink="http://www.w3.org/1999/xlink">
<defs>
<style type="text/css"><![CDATA[
.g1_139{
fill: none;
stroke: #000066;
stroke-width: 4.5833335;
stroke-linecap: butt;
stroke-linejoin: round;
}
.g2_139{
fill: none;
stroke: #000000;
stroke-width: 1.1458334;
stroke-linecap: butt;
stroke-linejoin: round;
}
.g3_139{
fill: none;
stroke: #203864;
stroke-width: 1.1458334;
stroke-linecap: butt;
stroke-linejoin: miter;
stroke-miterlimit: 8;
}
.g4_139{
fill: none;
stroke: #FF0000;
stroke-width: 2.6736124;
stroke-linecap: butt;
stroke-linejoin: miter;
stroke-miterlimit: 8;
}
.g5_139{
fill: #17375E;
}
.g6_139{
fill: none;
stroke: #10253F;
stroke-width: 1.1458334;
stroke-linecap: butt;
stroke-linejoin: round;
stroke-miterlimit: 8;
}
]]></style>
</defs>
<path d="M100.5,103.5l794.1,0" class="g1_139" />
<path d="M84.6,1142.7l772.2,0" class="g2_139" />
<image preserveAspectRatio="none" x="112" y="112" width="693" height="550" xlink:href="img/1.png" />
<path d="M111.7,662.9l694.2,0l0,-551.2l-694.2,0l0,551.2Z" class="g3_139" />
<image preserveAspectRatio="none" x="112" y="715" width="690" height="327" xlink:href="img/2.png" />
<path d="M111.7,1042.3l690.7,0l0,-327.8l-690.7,0l0,327.8Z" class="g3_139" />
<path d="M678.3,136.2l59.6,0l0,-25.2l-59.6,0l0,25.2Z" class="g4_139" />
<path fill-rule="evenodd" d="M527.1,141.3C527.1,129,537.6,119,550.6,119c13,0,23.5,10,23.5,22.3c0,12.4,-10.5,22.4,-23.5,22.4c-13,0,-23.5,-10,-23.5,-22.4Z" class="g5_139" />
<path d="M527.1,141.3C527.1,129,537.6,119,550.6,119c13,0,23.5,10,23.5,22.3c0,12.4,-10.5,22.4,-23.5,22.4c-13,0,-23.5,-10,-23.5,-22.4Z" class="g6_139" />
<image preserveAspectRatio="none" x="535" y="132" width="32" height="19" xlink:href="img/3.png" />
<path d="M114.6,658.7l648.5,0l0,-71l-648.5,0l0,71Z" class="g4_139" />
</svg>