<?xml version="1.0" encoding="UTF-8" standalone="no"?>
<!DOCTYPE svg PUBLIC "-//W3C//DTD SVG 1.1//EN"
"http://www.w3.org/Graphics/SVG/1.1/DTD/svg11.dtd">
<svg viewBox="0 0 935 1210" version="1.1" xmlns="http://www.w3.org/2000/svg" xmlns:xlink="http://www.w3.org/1999/xlink">
<defs>
<style type="text/css"><![CDATA[
.g1_95{
fill: none;
stroke: #000066;
stroke-width: 4.5833335;
stroke-linecap: butt;
stroke-linejoin: round;
}
.g2_95{
fill: none;
stroke: #000000;
stroke-width: 1.1458334;
stroke-linecap: butt;
stroke-linejoin: round;
}
.g3_95{
fill: none;
stroke: #FF0000;
stroke-width: 3.4375;
stroke-linecap: butt;
stroke-linejoin: round;
}
.g4_95{
fill: #376092;
}
]]></style>
</defs>
<path d="M100.5,103.5l794.1,0" class="g1_95" />
<path d="M84.6,1142.7l772.2,0" class="g2_95" />
<image preserveAspectRatio="none" x="112" y="112" width="690" height="619" xlink:href="img/1.png" />
<path d="M111.7,731.8l690.7,0l0,-620.1l-690.7,0l0,620.1Z" class="g2_95" />
<path d="M135.9,467.3l655,0l0,-28.4l-655,0l0,28.4Z" class="g3_95" />
<path fill-rule="evenodd" d="M433.8,486.5c0,-15.4,13.8,-27.8,30.9,-27.8c17,0,30.9,12.4,30.9,27.8c0,15.3,-13.9,27.7,-30.9,27.7c-17.1,0,-30.9,-12.4,-30.9,-27.7Z" class="g4_95" />
<image preserveAspectRatio="none" x="444" y="474" width="41" height="25" xlink:href="img/2.png" />
</svg>