<?xml version="1.0" encoding="UTF-8" standalone="no"?>
<!DOCTYPE svg PUBLIC "-//W3C//DTD SVG 1.1//EN"
"http://www.w3.org/Graphics/SVG/1.1/DTD/svg11.dtd">
<svg viewBox="0 0 935 1210" version="1.1" xmlns="http://www.w3.org/2000/svg" xmlns:xlink="http://www.w3.org/1999/xlink">
<defs>
<style type="text/css"><![CDATA[
.g1_81{
fill: none;
stroke: #000066;
stroke-width: 4.5833335;
stroke-linecap: butt;
stroke-linejoin: round;
}
.g2_81{
fill: none;
stroke: #000000;
stroke-width: 1.1458334;
stroke-linecap: butt;
stroke-linejoin: round;
}
.g3_81{
fill: none;
stroke: #000000;
stroke-width: 0.38194567;
stroke-linecap: square;
stroke-linejoin: miter;
stroke-miterlimit: 8;
}
.g4_81{
fill: #376092;
}
.g5_81{
fill: none;
stroke: #FF0000;
stroke-width: 3.4375;
stroke-linecap: butt;
stroke-linejoin: round;
stroke-miterlimit: 8;
}
]]></style>
</defs>
<path d="M100.5,103.5l794.1,0" class="g1_81" />
<path d="M84.6,1142.7l772.2,0" class="g2_81" />
<image preserveAspectRatio="none" x="112" y="112" width="690" height="367" xlink:href="img/1.png" />
<path d="M112.1,478.9l689.9,0l0,-366.8l-689.9,0l0,366.8Z" class="g3_81" />
<image preserveAspectRatio="none" x="112" y="532" width="690" height="262" xlink:href="img/2.png" />
<path d="M112.1,794.6l689.8,0l0,-263l-689.8,0l0,263Z" class="g3_81" />
<path fill-rule="evenodd" d="M360.9,414.4c0,-12,10.3,-21.8,23,-21.8c12.6,0,22.9,9.8,22.9,21.8c0,12,-10.3,21.8,-22.9,21.8c-12.7,0,-23,-9.8,-23,-21.8Z" class="g4_81" />
<image preserveAspectRatio="none" x="369" y="406" width="30" height="17" xlink:href="img/3.png" />
<path d="M424,423.6l358.6,0l0,-20.6L424,403l0,20.6Z" class="g5_81" />
<path d="M671.5,144l56.1,0l0,-30.9l-56.1,0l0,30.9Z" class="g5_81" />
<path fill-rule="evenodd" d="M611.9,142.8c0,-12,10.2,-21.7,22.9,-21.7c12.6,0,22.9,9.7,22.9,21.7c0,12.1,-10.3,21.8,-22.9,21.8c-12.7,0,-22.9,-9.7,-22.9,-21.8Z" class="g4_81" />
<image preserveAspectRatio="none" x="620" y="134" width="30" height="17" xlink:href="img/4.png" />
<path fill-rule="evenodd" d="M633.3,729.7c0,-12.1,10.3,-21.8,23,-21.8c12.6,0,22.9,9.7,22.9,21.8c0,12,-10.3,21.7,-22.9,21.7c-12.7,0,-23,-9.7,-23,-21.7Z" class="g4_81" />
<image preserveAspectRatio="none" x="642" y="721" width="29" height="17" xlink:href="img/5.png" />
<path d="M683.8,762.9l115.7,0l0,-17.2l-115.7,0l0,17.2Z" class="g5_81" />
</svg>