<?xml version="1.0" encoding="UTF-8" standalone="no"?>
<!DOCTYPE svg PUBLIC "-//W3C//DTD SVG 1.1//EN"
"http://www.w3.org/Graphics/SVG/1.1/DTD/svg11.dtd">
<svg viewBox="0 0 935 1210" version="1.1" xmlns="http://www.w3.org/2000/svg" xmlns:xlink="http://www.w3.org/1999/xlink">
<defs>
<style type="text/css"><![CDATA[
.g1_206{
fill: none;
stroke: #000066;
stroke-width: 4.5833335;
stroke-linecap: butt;
stroke-linejoin: round;
}
.g2_206{
fill: none;
stroke: #000000;
stroke-width: 1.1458334;
stroke-linecap: butt;
stroke-linejoin: round;
}
.g3_206{
fill: #1F4E79;
}
]]></style>
</defs>
<path d="M100.5,103.5l794.1,0" class="g1_206" />
<path d="M84.6,1142.7l772.2,0" class="g2_206" />
<image preserveAspectRatio="none" x="112" y="112" width="715" height="302" xlink:href="img/1.png" />
<path d="M111.7,414.3l716.2,0l0,-302.6l-716.2,0l0,302.6Z" class="g2_206" />
<image preserveAspectRatio="none" x="112" y="490" width="715" height="104" xlink:href="img/2.png" />
<path d="M111.7,594.7l716.2,0l0,-105.5l-716.2,0l0,105.5Z" class="g2_206" />
<path fill-rule="evenodd" d="M452.5,156.1c0,-13.7,13.9,-24.9,31.1,-24.9c17.2,0,31.2,11.2,31.2,24.9c0,13.7,-14,24.8,-31.2,24.8c-17.2,0,-31.1,-11.1,-31.1,-24.8Z" class="g3_206" />
</svg>