<?xml version="1.0" encoding="UTF-8" standalone="no"?>
<!DOCTYPE svg PUBLIC "-//W3C//DTD SVG 1.1//EN"
"http://www.w3.org/Graphics/SVG/1.1/DTD/svg11.dtd">
<svg viewBox="0 0 935 1210" version="1.1" xmlns="http://www.w3.org/2000/svg" xmlns:xlink="http://www.w3.org/1999/xlink">
<defs>
<style type="text/css"><![CDATA[
.g1_126{
fill: none;
stroke: #000066;
stroke-width: 4.5833335;
stroke-linecap: butt;
stroke-linejoin: round;
}
.g2_126{
fill: none;
stroke: #000000;
stroke-width: 1.1458334;
stroke-linecap: butt;
stroke-linejoin: round;
}
.g3_126{
fill: #C3D69B;
}
.g4_126{
fill: none;
stroke: #C0504D;
stroke-width: 3.0555544;
stroke-linecap: butt;
stroke-linejoin: miter;
stroke-miterlimit: 8;
}
.g5_126{
fill: none;
stroke: #FF0000;
stroke-width: 3.4375;
stroke-linecap: butt;
stroke-linejoin: miter;
stroke-miterlimit: 8;
}
.g6_126{
fill: #333F50;
}
]]></style>
</defs>
<path d="M100.5,103.5l794.1,0" class="g1_126" />
<path d="M84.6,1142.7l772.2,0" class="g2_126" />
<image preserveAspectRatio="none" x="112" y="112" width="715" height="491" xlink:href="img/1.png" />
<path d="M111.7,603.7l716.2,0l0,-492l-716.2,0l0,492Z" class="g2_126" />
<image preserveAspectRatio="none" x="140" y="815" width="715" height="267" xlink:href="img/2.png" />
<path d="M139.2,1082.9l716.2,0l0,-268.1l-716.2,0l0,268.1Z" class="g2_126" />
<path fill-rule="evenodd" d="M112.3,680.5l12,-4.5l-8.6,-7.3l13.6,-1l-3.8,-9l13.2,2.6l1.5,-9.3l10.7,5.8l6.7,-8.2l6.6,8.2L174.9,652l1.5,9.3l13.2,-2.6l-3.8,9l13.6,1l-8.5,7.3l11.9,4.5l-11.9,4.6l8.5,7.3l-13.6,1l3.8,9l-13.2,-2.6l-1.5,9.3l-10.7,-5.8l-6.6,8.2l-6.7,-8.2l-10.7,5.8l-1.5,-9.3l-13.2,2.6l3.8,-9l-13.6,-1l8.6,-7.3Z" class="g3_126" />
<path d="M112.3,680.5l12,-4.5l-8.6,-7.3l13.6,-1l-3.8,-9l13.2,2.6l1.5,-9.3l10.7,5.8l6.7,-8.2l6.6,8.2L174.9,652l1.5,9.3l13.2,-2.6l-3.8,9l13.6,1l-8.5,7.3l11.9,4.5l-11.9,4.6l8.5,7.3l-13.6,1l3.8,9l-13.2,-2.6l-1.5,9.3l-10.7,-5.8l-6.6,8.2l-6.7,-8.2l-10.7,5.8l-1.5,-9.3l-13.2,2.6l3.8,-9l-13.6,-1l8.6,-7.3Z" class="g4_126" />
<path d="M359.6,210l71.7,0l0,-24.7l-71.7,0l0,24.7Z" class="g5_126" />
<path fill-rule="evenodd" d="M310.1,187.5c0,-12.9,11,-23.4,24.6,-23.4c13.5,0,24.6,10.5,24.6,23.4c0,13,-11.1,23.5,-24.6,23.5c-13.6,0,-24.6,-10.5,-24.6,-23.5Z" class="g6_126" />
<path d="M112.4,137.1l116.2,0l0,-24.7l-116.2,0l0,24.7Z" class="g5_126" />
<path fill-rule="evenodd" d="M218.7,140.8c0,-13,11,-23.5,24.6,-23.5c13.6,0,24.6,10.5,24.6,23.5c0,12.9,-11,23.4,-24.6,23.4c-13.6,0,-24.6,-10.5,-24.6,-23.4Z" class="g6_126" />
<path d="M356.8,603.2l71.9,0l0,-361l-71.9,0l0,361Z" class="g5_126" />
<path fill-rule="evenodd" d="M422.4,244.3c0,-13,11,-23.5,24.6,-23.5c13.5,0,24.5,10.5,24.5,23.5c0,12.9,-11,23.4,-24.5,23.4c-13.6,0,-24.6,-10.5,-24.6,-23.4Z" class="g6_126" />
<path d="M568.5,878.8l74.1,0l0,-24.6l-74.1,0l0,24.6Z" class="g5_126" />
<path fill-rule="evenodd" d="M625.5,892.4c0,-13,11.1,-23.5,24.6,-23.5c13.6,0,24.6,10.5,24.6,23.5c0,12.9,-11,23.4,-24.6,23.4c-13.5,0,-24.6,-10.5,-24.6,-23.4Z" class="g6_126" />
</svg>