<?xml version="1.0" encoding="UTF-8" standalone="no"?>
<!DOCTYPE svg PUBLIC "-//W3C//DTD SVG 1.1//EN"
"http://www.w3.org/Graphics/SVG/1.1/DTD/svg11.dtd">
<svg viewBox="0 0 935 1210" version="1.1" xmlns="http://www.w3.org/2000/svg" xmlns:xlink="http://www.w3.org/1999/xlink">
<defs>
<style type="text/css"><![CDATA[
.g1_193{
fill: none;
stroke: #000066;
stroke-width: 4.5833335;
stroke-linecap: butt;
stroke-linejoin: round;
}
.g2_193{
fill: none;
stroke: #000000;
stroke-width: 1.1458334;
stroke-linecap: butt;
stroke-linejoin: round;
}
.g3_193{
fill: none;
stroke: #FF0000;
stroke-width: 2.2916667;
stroke-linecap: butt;
stroke-linejoin: miter;
stroke-miterlimit: 8;
}
.g4_193{
fill: #1F4E79;
}
]]></style>
</defs>
<path d="M100.5,103.5l794.1,0" class="g1_193" />
<path d="M84.6,1142.7l772.2,0" class="g2_193" />
<image preserveAspectRatio="none" x="112" y="241" width="715" height="445" xlink:href="img/1.png" />
<path d="M111.7,686.6l716.2,0l0,-446.4l-716.2,0l0,446.4Z" class="g2_193" />
<path d="M147,269.1l319.4,0l0,-23.3l-319.4,0l0,23.3Z" class="g3_193" />
<path fill-rule="evenodd" d="M466.4,267.5c0,-12,9.9,-21.7,22.2,-21.7c12.3,0,22.2,9.7,22.2,21.7c0,12,-9.9,21.7,-22.2,21.7c-12.3,0,-22.2,-9.7,-22.2,-21.7Z" class="g4_193" />
<image preserveAspectRatio="none" x="474" y="258" width="30" height="18" xlink:href="img/2.png" />
<path d="M724.4,601.2l98.4,0l0,-17l-98.4,0l0,17Z" class="g3_193" />
<path fill-rule="evenodd" d="M676.9,591.1c0,-12,9.9,-21.7,22.2,-21.7c12.2,0,22.2,9.7,22.2,21.7c0,12,-10,21.7,-22.2,21.7c-12.3,0,-22.2,-9.7,-22.2,-21.7Z" class="g4_193" />
<image preserveAspectRatio="none" x="684" y="582" width="30" height="18" xlink:href="img/3.png" />
<path d="M156.5,553.5l84.6,0l0,-23.2l-84.6,0l0,23.2Z" class="g3_193" />
<path fill-rule="evenodd" d="M119.5,523.4c0,-11.9,9.9,-21.6,22.2,-21.6c12.2,0,22.2,9.7,22.2,21.6c0,12,-10,21.7,-22.2,21.7c-12.3,0,-22.2,-9.7,-22.2,-21.7Z" class="g4_193" />
<image preserveAspectRatio="none" x="127" y="514" width="30" height="18" xlink:href="img/4.png" />
</svg>