<?xml version="1.0" encoding="UTF-8" standalone="no"?>
<!DOCTYPE svg PUBLIC "-//W3C//DTD SVG 1.1//EN"
"http://www.w3.org/Graphics/SVG/1.1/DTD/svg11.dtd">
<svg viewBox="0 0 935 1210" version="1.1" xmlns="http://www.w3.org/2000/svg" xmlns:xlink="http://www.w3.org/1999/xlink">
<defs>
<style type="text/css"><![CDATA[
.g1_134{
fill: none;
stroke: #000066;
stroke-width: 4.5833335;
stroke-linecap: butt;
stroke-linejoin: round;
}
.g2_134{
fill: none;
stroke: #000000;
stroke-width: 1.1458334;
stroke-linecap: butt;
stroke-linejoin: round;
}
.g3_134{
fill: #C8C8C8;
}
.g4_134{
fill: none;
stroke: #ED7D31;
stroke-width: 3.0555544;
stroke-linecap: butt;
stroke-linejoin: miter;
stroke-miterlimit: 8;
}
]]></style>
</defs>
<path d="M100.5,103.5l794.1,0" class="g1_134" />
<path d="M84.6,1142.7l772.2,0" class="g2_134" />
<path fill-rule="evenodd" d="M112.3,672.6l11.2,-4.9l-8,-7.8l12.7,-1.1l-3.5,-9.7l12.3,2.8l1.5,-10l10,6.3l6.2,-8.8l6.2,8.8l10,-6.3l1.4,10l12.4,-2.8l-3.6,9.7l12.8,1.1l-8,7.8l11.2,4.9l-11.2,4.9l8,7.8l-12.8,1.2l3.6,9.6l-12.4,-2.8l-1.4,10l-10,-6.2l-6.2,8.7l-6.2,-8.7l-10,6.2l-1.5,-10l-12.3,2.8l3.5,-9.6l-12.7,-1.2l8,-7.8Z" class="g3_134" />
<path d="M112.3,672.6l11.2,-4.9l-8,-7.8l12.7,-1.1l-3.5,-9.7l12.3,2.8l1.5,-10l10,6.3l6.2,-8.8l6.2,8.8l10,-6.3l1.4,10l12.4,-2.8l-3.6,9.7l12.8,1.1l-8,7.8l11.2,4.9l-11.2,4.9l8,7.8l-12.8,1.2l3.6,9.6l-12.4,-2.8l-1.4,10l-10,-6.2l-6.2,8.7l-6.2,-8.7l-10,6.2l-1.5,-10l-12.3,2.8l3.5,-9.6l-12.7,-1.2l8,-7.8Z" class="g4_134" />
</svg>