<?xml version="1.0" encoding="UTF-8" standalone="no"?>
<!DOCTYPE svg PUBLIC "-//W3C//DTD SVG 1.1//EN"
"http://www.w3.org/Graphics/SVG/1.1/DTD/svg11.dtd">
<svg viewBox="0 0 935 1210" version="1.1" xmlns="http://www.w3.org/2000/svg" xmlns:xlink="http://www.w3.org/1999/xlink">
<defs>
<style type="text/css"><![CDATA[
.g1_208{
fill: none;
stroke: #000066;
stroke-width: 4.5833335;
stroke-linecap: butt;
stroke-linejoin: round;
}
.g2_208{
fill: none;
stroke: #000000;
stroke-width: 1.1458334;
stroke-linecap: butt;
stroke-linejoin: round;
}
.g3_208{
fill: none;
stroke: #FF0000;
stroke-width: 2.2916667;
stroke-linecap: butt;
stroke-linejoin: miter;
stroke-miterlimit: 8;
}
.g4_208{
fill: #1F4E79;
}
]]></style>
</defs>
<path d="M100.5,103.5l794.1,0" class="g1_208" />
<path d="M84.6,1142.7l772.2,0" class="g2_208" />
<image preserveAspectRatio="none" x="112" y="112" width="715" height="575" xlink:href="img/1.png" />
<path d="M111.7,687.1l716.2,0l0,-575.4l-716.2,0l0,575.4Z" class="g2_208" />
<image preserveAspectRatio="none" x="112" y="769" width="715" height="286" xlink:href="img/2.png" />
<path d="M111.7,1055.2l716.2,0l0,-287l-716.2,0l0,287Z" class="g2_208" />
<path d="M210.5,605.2l112.1,0l0,-44.4l-112.1,0l0,44.4Z" class="g3_208" />
<path fill-rule="evenodd" d="M304.6,552.8c0,-13.7,13.9,-24.8,31.1,-24.8c17.2,0,31.2,11.1,31.2,24.8c0,13.7,-14,24.8,-31.2,24.8c-17.2,0,-31.1,-11.1,-31.1,-24.8Z" class="g4_208" />
<image preserveAspectRatio="none" x="314" y="542" width="43" height="22" xlink:href="img/3.png" />
<path d="M486.5,829.4l125.9,0l0,-22.2l-125.9,0l0,22.2Z" class="g3_208" />
<path fill-rule="evenodd" d="M603.9,812c0,-13.7,13.9,-24.8,31.2,-24.8c17.2,0,31.2,11.1,31.2,24.8c0,13.7,-14,24.8,-31.2,24.8c-17.3,0,-31.2,-11.1,-31.2,-24.8Z" class="g4_208" />
<image preserveAspectRatio="none" x="614" y="801" width="42" height="22" xlink:href="img/4.png" />
</svg>