<?xml version="1.0" encoding="UTF-8" standalone="no"?>
<!DOCTYPE svg PUBLIC "-//W3C//DTD SVG 1.1//EN"
"http://www.w3.org/Graphics/SVG/1.1/DTD/svg11.dtd">
<svg viewBox="0 0 935 1210" version="1.1" xmlns="http://www.w3.org/2000/svg" xmlns:xlink="http://www.w3.org/1999/xlink">
<defs>
<style type="text/css"><![CDATA[
.g1_167{
fill: none;
stroke: #000066;
stroke-width: 4.5833335;
stroke-linecap: butt;
stroke-linejoin: round;
}
.g2_167{
fill: none;
stroke: #000000;
stroke-width: 1.1458334;
stroke-linecap: butt;
stroke-linejoin: round;
}
.g3_167{
fill: none;
stroke: #FF0000;
stroke-width: 2.6736124;
stroke-linecap: butt;
stroke-linejoin: miter;
stroke-miterlimit: 8;
}
.g4_167{
fill: #17375E;
}
.g5_167{
fill: none;
stroke: #10253F;
stroke-width: 1.1458334;
stroke-linecap: butt;
stroke-linejoin: round;
stroke-miterlimit: 8;
}
]]></style>
</defs>
<path d="M100.5,103.5l794.1,0" class="g1_167" />
<path d="M84.6,1142.7l772.2,0" class="g2_167" />
<image preserveAspectRatio="none" x="290" y="112" width="214" height="28" xlink:href="img/1.png" />
<path d="M289.1,140.4l215.4,0l0,-28.7l-215.4,0l0,28.7Z" class="g2_167" />
<image preserveAspectRatio="none" x="112" y="185" width="715" height="328" xlink:href="img/2.png" />
<path d="M111.7,513.3l716.1,0l0,-329l-716.1,0l0,329Z" class="g2_167" />
<image preserveAspectRatio="none" x="112" y="634" width="715" height="390" xlink:href="img/3.png" />
<path d="M111.7,1024.6l716.1,0l0,-391.1l-716.1,0l0,391.1Z" class="g2_167" />
<path d="M352.1,654.8l233.3,0l0,-19l-233.3,0l0,19Z" class="g3_167" />
<path fill-rule="evenodd" d="M563.1,676c0,-14.5,14.1,-26.3,31.6,-26.3c17.4,0,31.5,11.8,31.5,26.3c0,14.6,-14.1,26.4,-31.5,26.4c-17.5,0,-31.6,-11.8,-31.6,-26.4Z" class="g4_167" />
<path d="M563.1,676c0,-14.5,14.1,-26.3,31.6,-26.3c17.4,0,31.5,11.8,31.5,26.3c0,14.6,-14.1,26.4,-31.5,26.4c-17.5,0,-31.6,-11.8,-31.6,-26.4Z" class="g5_167" />
<image preserveAspectRatio="none" x="573" y="663" width="43" height="26" xlink:href="img/4.png" />
<path d="M131.1,768l54.5,0l0,-19.1l-54.5,0l0,19.1Z" class="g3_167" />
<path fill-rule="evenodd" d="M172.9,777.6c0,-14.6,14.1,-26.4,31.5,-26.4c17.4,0,31.5,11.8,31.5,26.4c0,14.5,-14.1,26.3,-31.5,26.3c-17.4,0,-31.5,-11.8,-31.5,-26.3Z" class="g4_167" />
<path d="M172.9,777.6c0,-14.6,14.1,-26.4,31.5,-26.4c17.4,0,31.5,11.8,31.5,26.4c0,14.5,-14.1,26.3,-31.5,26.3c-17.4,0,-31.5,-11.8,-31.5,-26.3Z" class="g5_167" />
<image preserveAspectRatio="none" x="183" y="765" width="43" height="25" xlink:href="img/5.png" />
<path d="M186.1,871.6l132.7,0l0,-22.2l-132.7,0l0,22.2Z" class="g3_167" />
<path fill-rule="evenodd" d="M302.9,888.6c0,-14.5,14.1,-26.3,31.5,-26.3c17.4,0,31.5,11.8,31.5,26.3c0,14.6,-14.1,26.4,-31.5,26.4C317,915,302.9,903.2,302.9,888.6Z" class="g4_167" />
<path d="M302.9,888.6c0,-14.5,14.1,-26.3,31.5,-26.3c17.4,0,31.5,11.8,31.5,26.3c0,14.6,-14.1,26.4,-31.5,26.4C317,915,302.9,903.2,302.9,888.6Z" class="g5_167" />
<image preserveAspectRatio="none" x="313" y="876" width="43" height="25" xlink:href="img/6.png" />
</svg>