<?xml version="1.0" encoding="UTF-8" standalone="no"?>
<!DOCTYPE svg PUBLIC "-//W3C//DTD SVG 1.1//EN"
"http://www.w3.org/Graphics/SVG/1.1/DTD/svg11.dtd">
<svg viewBox="0 0 935 1210" version="1.1" xmlns="http://www.w3.org/2000/svg" xmlns:xlink="http://www.w3.org/1999/xlink">
<defs>
<style type="text/css"><![CDATA[
.g1_144{
fill: none;
stroke: #000066;
stroke-width: 4.5833335;
stroke-linecap: butt;
stroke-linejoin: round;
}
.g2_144{
fill: none;
stroke: #000000;
stroke-width: 1.1458334;
stroke-linecap: butt;
stroke-linejoin: round;
}
.g3_144{
fill: none;
stroke: #203864;
stroke-width: 1.1458334;
stroke-linecap: butt;
stroke-linejoin: miter;
stroke-miterlimit: 8;
}
.g4_144{
fill: none;
stroke: #FF0000;
stroke-width: 2.6736124;
stroke-linecap: butt;
stroke-linejoin: miter;
stroke-miterlimit: 8;
}
.g5_144{
fill: #17375E;
}
.g6_144{
fill: none;
stroke: #10253F;
stroke-width: 1.1458334;
stroke-linecap: butt;
stroke-linejoin: round;
stroke-miterlimit: 8;
}
]]></style>
</defs>
<path d="M100.5,103.5l794.1,0" class="g1_144" />
<path d="M84.6,1142.7l772.2,0" class="g2_144" />
<image preserveAspectRatio="none" x="112" y="112" width="693" height="550" xlink:href="img/1.png" />
<path d="M111.7,662.9l694.2,0l0,-551.2l-694.2,0l0,551.2Z" class="g3_144" />
<image preserveAspectRatio="none" x="112" y="715" width="690" height="348" xlink:href="img/2.png" />
<path d="M111.7,1063.1l690.7,0l0,-348.6l-690.7,0l0,348.6Z" class="g3_144" />
<path d="M676,141.9l60.8,0l0,-29.8l-60.8,0l0,29.8Z" class="g4_144" />
<path fill-rule="evenodd" d="M623.3,142.5c0,-12.3,10.5,-22.3,23.5,-22.3c13,0,23.5,10,23.5,22.3c0,12.3,-10.5,22.3,-23.5,22.3c-13,0,-23.5,-10,-23.5,-22.3Z" class="g5_144" />
<path d="M623.3,142.5c0,-12.3,10.5,-22.3,23.5,-22.3c13,0,23.5,10,23.5,22.3c0,12.3,-10.5,22.3,-23.5,22.3c-13,0,-23.5,-10,-23.5,-22.3Z" class="g6_144" />
<image preserveAspectRatio="none" x="631" y="133" width="32" height="19" xlink:href="img/3.png" />
<path d="M126,657.6l639.4,0l0,-86l-639.4,0l0,86Z" class="g4_144" />
</svg>