<?xml version="1.0" encoding="UTF-8" standalone="no"?>
<!DOCTYPE svg PUBLIC "-//W3C//DTD SVG 1.1//EN"
"http://www.w3.org/Graphics/SVG/1.1/DTD/svg11.dtd">
<svg viewBox="0 0 909 1286" version="1.1" xmlns="http://www.w3.org/2000/svg" xmlns:xlink="http://www.w3.org/1999/xlink">
<defs>
<style type="text/css"><![CDATA[
.g1_26{
fill: none;
stroke: #000066;
stroke-width: 4.5833335;
stroke-linecap: butt;
stroke-linejoin: round;
}
.g2_26{
fill: none;
stroke: #000000;
stroke-width: 1.1458334;
stroke-linecap: butt;
stroke-linejoin: round;
}
.g3_26{
fill: #FFFFFF;
}
.g4_26{
}
.g5_26{
fill: none;
stroke: #FF0000;
stroke-width: 3.0555556;
stroke-linecap: butt;
stroke-linejoin: round;
}
.g6_26{
fill: #376092;
}
]]></style>
</defs>
<path d="M78.1,99.1l794,0.1" class="g1_26" />
<path d="M96.6,1224.5l772.1,0.1" class="g2_26" />
<path fill-rule="evenodd" d="M112.3,97l689.5,0l0,0.4l-689.5,0l0,-0.4Z" class="g3_26" />
<path fill-rule="evenodd" d="M112.3,496.6l689.5,0l0,0.5l-689.5,0l0,-0.5Z" class="g3_26" />
<path fill-rule="evenodd" d="M112.3,97.3l0.5,0l0,399.5l-0.5,0l0,-399.5Z" class="g3_26" />
<path fill-rule="evenodd" d="M801.3,97.3l0.5,0l0,399.5l-0.5,0l0,-399.5Z" class="g3_26" />
<image preserveAspectRatio="none" x="113" y="97" width="688" height="400" xlink:href="img/1.png" />
<path fill-rule="evenodd" d="M112.6,496.8l-0.3,0.3L112.3,97l0.3,0.3l0.2,0.1l0,399.2l-0.2,0.2Z" class="g4_26" />
<path fill-rule="evenodd" d="M801.5,496.8l-0.2,-0.2l0,-399.2l0.2,-0.1L801.8,97l0,400.1l-0.3,-0.3Z" class="g4_26" />
<path fill-rule="evenodd" d="M801.5,97.3l-0.2,0.1l-688.5,0l-0.2,-0.1L112.3,97l689.5,0l-0.3,0.3Z" class="g4_26" />
<path fill-rule="evenodd" d="M801.5,496.8l0.3,0.3l-689.5,0l0.3,-0.3l0.2,-0.2l688.5,0l0.2,0.2Z" class="g4_26" />
<image preserveAspectRatio="none" x="376" y="544" width="28" height="31" xlink:href="img/2.png" />
<path fill-rule="evenodd" d="M112.3,601.6l689.5,0l0,0.3l-689.5,0l0,-0.3Z" class="g3_26" />
<path fill-rule="evenodd" d="M112.3,1054.3l689.5,0l0,0.4l-689.5,0l0,-0.4Z" class="g3_26" />
<path fill-rule="evenodd" d="M112.3,601.9l0.5,0l0,452.4l-0.5,0l0,-452.4Z" class="g3_26" />
<path fill-rule="evenodd" d="M801.3,601.9l0.5,0l0,452.4l-0.5,0l0,-452.4Z" class="g3_26" />
<image preserveAspectRatio="none" x="113" y="602" width="688" height="452" xlink:href="img/3.png" />
<path fill-rule="evenodd" d="M112.6,1054.4l-0.3,0.3l0,-453.1l0.3,0.3l0.2,0.1l0,452.3l-0.2,0.1Z" class="g4_26" />
<path fill-rule="evenodd" d="M801.5,1054.4l-0.2,-0.1l0,-452.3l0.2,-0.1l0.3,-0.3l0,453.1l-0.3,-0.3Z" class="g4_26" />
<path fill-rule="evenodd" d="M801.5,601.9l-0.2,0.1l-688.5,0l-0.2,-0.1l-0.3,-0.3l689.5,0l-0.3,0.3Z" class="g4_26" />
<path fill-rule="evenodd" d="M801.5,1054.4l0.3,0.3l-689.5,0l0.3,-0.3l0.2,-0.1l688.5,0l0.2,0.1Z" class="g4_26" />
<path d="M163.9,412.7l-12.6,0l0,-27.5l25.2,0l0,27.5l-12.6,0Z" class="g5_26" />
<path fill-rule="evenodd" d="M123.8,344.6l0,-1.4l0.1,-1.2l0.2,-1.4l0.1,-1.2l0.3,-1.4l0.5,-1.2l0.4,-1.2l0.5,-1.2l0.6,-1.3l0.6,-1l0.6,-1.1l0.8,-1.2l0.7,-1.1l1,-0.9l0.9,-0.9l0.9,-1.1l1.1,-0.7l1,-1l1.1,-0.7l1.1,-0.6l1.2,-0.8l1.2,-0.6l1.2,-0.5l1.3,-0.6l1.3,-0.3l1.4,-0.4l1.2,-0.4l1.4,-0.1l1.4,-0.2l1.4,-0.1l1.3,0l1.4,0l1.4,0.1l1.4,0.2l1.3,0.1l1.4,0.4l1.4,0.4l1.4,0.5l1.2,0.4l1.4,0.6l1.2,0.6l1.1,0.8l1.2,0.8l1,0.7l1.1,1l1.1,0.9l0.9,0.9l0.9,1.1l0.9,1l0.8,1.1l0.8,1.2l0.6,1.2l0.6,1.3l0.6,1.2l0.5,1.2l0.4,1.4l0.3,1.2l0.3,1.4l0.2,1.4l0,1.2l0.1,1.4l0,1.3l-0.1,1.4l-0.2,1.4l-0.3,1.2l-0.3,1.4l-0.4,1.2l-0.5,1.4l-0.5,1.2l-0.6,1.2l-0.7,1.2l-0.8,1.1l-0.8,1.1l-0.7,1l-0.9,1.1l-1.1,1.1l-0.9,0.9l-1.1,0.8l-1.2,0.9l-1.1,0.7l-1.2,0.7l-1.2,0.7l-1.4,0.5l-1.2,0.6l-1.4,0.5l-1.4,0.3l-1.4,0.3l-1.3,0.3l-1.4,0.1l-1.4,0.2l-1.4,0l-1.3,0l-1.6,-0.2L146.4,370L145,369.8l-1.4,-0.3l-1.4,-0.4L141,368.6l-1.4,-0.5l-1.2,-0.6l-1.2,-0.6L136,366.1l-1.3,-0.7l-1,-0.8l-1.1,-0.9l-1.1,-0.9l-0.9,-0.9l-0.9,-1.1l-0.9,-1.1l-0.8,-1l-0.7,-1.3l-0.6,-1.2L126,355l-0.6,-1.2L125,352.6l-0.5,-1.4L124.2,350l-0.3,-1.4l-0.1,-1.4l0,-1.2l-0.2,-1.4l0.2,0Z" class="g6_26" />
<path d="M473.8,959.1l-324.8,0l0,-57.3l649.6,0l0,57.3l-324.8,0Z" class="g5_26" />
<path fill-rule="evenodd" d="M270.4,849.7l0,-1.4l0.2,-1.4l0.1,-1.3l0.3,-1.3l0.3,-1.3l0.5,-1.3l0.4,-1.3l0.5,-1.3l0.6,-1.2l0.8,-1.2l0.7,-1.1l0.8,-1l0.8,-1.1l0.9,-1.1l1.1,-0.9l0.9,-0.9l1,-0.9l1.3,-0.9l1,-0.8l1.3,-0.6l1.2,-0.6l1.4,-0.6l1.2,-0.6l1.4,-0.5l1.3,-0.3l1.4,-0.3l1.4,-0.3l1.4,-0.2l1.3,-0.1l1.4,0l1.4,0l1.5,0.1l1.4,0.2l1.4,0.3l1.3,0.3l1.4,0.3l1.2,0.5l1.4,0.6l1.2,0.6l1.2,0.6L312,828l1.2,0.8l1.1,0.9l1,0.9l1.1,0.9l0.9,0.9l0.9,1.1l1,1.1l0.7,1l0.8,1.3l0.6,1l0.6,1.2l0.6,1.3l0.5,1.3l0.3,1.3l0.3,1.3l0.3,1.3l0.1,1.3l0.2,1.4l0,1.4l0,1.4l-0.2,1.2l-0.1,1.4l-0.3,1.3l-0.3,1.3l-0.5,1.3l-0.4,1.3l-0.5,1.2l-0.6,1.2l-0.8,1.2l-0.7,1.1l-0.8,1.2l-0.8,1.1l-0.9,0.9l-1,1.1l-1,0.9l-1,0.9l-1.3,0.8l-1,0.7l-1.3,0.8l-1.2,0.6l-1.2,0.6l-1.4,0.5l-1.2,0.4l-1.4,0.3l-1.3,0.3l-1.4,0.4l-1.4,0.1l-1.5,0.2l-1.4,0l-1.4,0l-1.3,-0.2l-1.4,-0.1l-1.4,-0.4l-1.4,-0.3l-1.3,-0.3l-1.4,-0.4l-1.2,-0.6l-1.4,-0.6l-1.2,-0.7l-1.1,-0.6l-1.2,-0.7l-1.1,-0.9l-1.1,-0.8l-1,-0.9l-1,-1.1l-0.9,-0.9l-0.9,-1.1l-0.8,-1.2l-0.7,-1.1l-0.6,-1.2l-0.6,-1.2l-0.7,-1.2l-0.4,-1.3l-0.5,-1.3L271,855l-0.3,-1.3l-0.1,-1.4l0,-1.2l-0.2,-1.4Z" class="g6_26" />
</svg>