<?xml version="1.0" encoding="UTF-8" standalone="no"?>
<!DOCTYPE svg PUBLIC "-//W3C//DTD SVG 1.1//EN"
"http://www.w3.org/Graphics/SVG/1.1/DTD/svg11.dtd">
<svg viewBox="0 0 909 1286" version="1.1" xmlns="http://www.w3.org/2000/svg" xmlns:xlink="http://www.w3.org/1999/xlink">
<defs>
<style type="text/css"><![CDATA[
.g1_40{
fill: none;
stroke: #000066;
stroke-width: 4.5833335;
stroke-linecap: butt;
stroke-linejoin: round;
}
.g2_40{
fill: none;
stroke: #000000;
stroke-width: 1.1458334;
stroke-linecap: butt;
stroke-linejoin: round;
}
.g3_40{
fill: #FFFFFF;
}
.g4_40{
}
.g5_40{
fill: none;
stroke: #FF0000;
stroke-width: 3.0555556;
stroke-linecap: butt;
stroke-linejoin: round;
}
.g6_40{
fill: #376092;
}
]]></style>
</defs>
<path d="M78.1,99.1l794,0.1" class="g1_40" />
<path d="M96.6,1224.5l772.1,0.1" class="g2_40" />
<path fill-rule="evenodd" d="M112.3,169.5l688.7,0l0,0.3l-688.7,0l0,-0.3Z" class="g3_40" />
<path fill-rule="evenodd" d="M112.3,577L801,577l0,0.4l-688.7,0l0,-0.4Z" class="g3_40" />
<path fill-rule="evenodd" d="M112.3,169.8l0.5,0l0,407.2l-0.5,0l0,-407.2Z" class="g3_40" />
<path fill-rule="evenodd" d="M800.6,169.8l0.4,0L801,577l-0.4,0l0,-407.2Z" class="g3_40" />
<image preserveAspectRatio="none" x="113" y="170" width="688" height="407" xlink:href="img/1.png" />
<path fill-rule="evenodd" d="M112.6,577.1l-0.3,0.3l0,-407.9l0.3,0.3l0.2,0.2l0,407l-0.2,0.1Z" class="g4_40" />
<path fill-rule="evenodd" d="M800.7,577.1L800.6,577l0,-407l0.1,-0.2l0.3,-0.3l0,407.9l-0.3,-0.3Z" class="g4_40" />
<path fill-rule="evenodd" d="M800.7,169.8l-0.1,0.2l-687.8,0l-0.2,-0.2l-0.3,-0.3l688.7,0l-0.3,0.3Z" class="g4_40" />
<path fill-rule="evenodd" d="M800.7,577.1l0.3,0.3l-688.7,0l0.3,-0.3l0.2,-0.1l687.8,0l0.1,0.1Z" class="g4_40" />
<path d="M151.9,408.9l-29.2,0l0,-14.8l58.3,0l0,14.8l-29.1,0Z" class="g5_40" />
<path fill-rule="evenodd" d="M688.7,354.5l0,-1.3l0.2,-1.4l0.1,-1.4l0.3,-1.2l0.3,-1.4l0.5,-1.2l0.5,-1.4L691,344l0.6,-1.2l0.8,-1.2l0.8,-1.1l0.7,-1.1l0.8,-1.1l0.9,-1l1.1,-0.9l0.9,-1l1.1,-0.9l1.2,-0.9l1,-0.8l1.3,-0.6l1.2,-0.6l1.4,-0.6l1.2,-0.6l1.4,-0.5l1.3,-0.3l1.4,-0.3l1.4,-0.3l1.4,-0.1l1.3,-0.2l1.4,0l1.4,0l1.5,0.2l1.4,0.1l1.4,0.3l1.3,0.3l1.4,0.3l1.2,0.5l1.4,0.6l1.2,0.6l1.3,0.6l1.2,0.6l1.2,0.8l1.1,0.9l1,0.9l1.1,1l0.9,0.9l0.9,1l1,1.1l0.7,1.1l0.8,1.2l0.6,1.1l0.6,1.2l0.6,1.2l0.5,1.4l0.3,1.2l0.3,1.4l0.3,1.2l0.1,1.4l0.2,1.4l0,1.3l0,1.4l-0.2,1.2l-0.1,1.4l-0.3,1.4l-0.3,1.2l-0.5,1.4l-0.4,1.2l-0.5,1.2l-0.6,1.2l-0.8,1.3l-0.7,1l-0.8,1.3l-0.8,1l-0.9,0.9l-1,1.1l-1,0.9l-1,1l-1.3,0.7l-1,0.8l-1.2,0.7l-1.3,0.7l-1.2,0.6l-1.4,0.4L724,379l-1.4,0.3l-1.3,0.3l-1.4,0.3l-1.4,0.2l-1.5,0.1l-1.4,0l-1.4,0l-1.3,-0.1l-1.4,-0.2l-1.4,-0.3l-1.4,-0.3L707.4,379L706,378.5l-1.2,-0.6l-1.4,-0.6l-1.2,-0.6l-1.1,-0.6l-1.2,-0.8l-1.1,-0.9l-1.1,-0.8l-1,-0.9l-1,-1.1l-0.9,-0.9l-0.9,-1l-0.7,-1.3l-0.8,-1l-0.6,-1.3l-0.6,-1.2l-0.6,-1.2l-0.5,-1.2l-0.5,-1.4l-0.3,-1.2L689,358.5l-0.1,-1.4l0,-1.2l-0.2,-1.4Z" class="g6_40" />
<path d="M681.2,571.6l-116.2,0l0,-159.2l232.5,0l0,159.2l-116.3,0Z" class="g5_40" />
<path d="M394.2,573.9l-61.9,0l0,-264.7l123.6,0l0,264.7l-61.7,0Z" class="g5_40" />
<path fill-rule="evenodd" d="M185.6,355.6l0,-1.4l0.2,-1.2l0.1,-1.4l0.3,-1.3l0.3,-1.3l0.5,-1.3l0.5,-1.3l0.4,-1.2l0.6,-1.2l0.8,-1.2l0.8,-1.2l0.7,-1.1l0.8,-1.1l0.9,-0.9l1.1,-1.1l0.9,-0.9l1.1,-0.9l1.2,-0.8l1,-0.7l1.3,-0.8l1.2,-0.6l1.4,-0.6l1.2,-0.5l1.4,-0.4l1.3,-0.5l1.4,-0.3l1.4,-0.2l1.4,-0.1l1.3,-0.2l1.4,0l1.4,0l1.5,0.2l1.4,0.1l1.4,0.2l1.3,0.3l1.4,0.5l1.2,0.4l1.4,0.5l1.2,0.6l1.3,0.6l1.2,0.8l1.2,0.7l1.1,0.8l1,0.9l1.1,0.9l0.9,1.1l0.9,0.9l1,1.1l0.7,1.1l0.8,1.2l0.6,1.2l0.6,1.2l0.6,1.2l0.5,1.3l0.3,1.3l0.3,1.3l0.3,1.3l0.2,1.4l0.1,1.2l0,1.4l0,1.4l-0.1,1.4l-0.2,1.3l-0.3,1.3l-0.3,1.3l-0.5,1.3l-0.4,1.3l-0.5,1.2l-0.6,1.3l-0.8,1l-0.7,1.3l-0.8,1l-0.8,1.1l-0.9,1.1l-1,0.9l-1,0.9l-1,0.9l-1.3,0.8l-1,0.7l-1.2,0.8l-1.3,0.6l-1.2,0.6l-1.4,0.5l-1.2,0.5l-1.4,0.4l-1.3,0.3l-1.4,0.3l-1.4,0.2l-1.5,0l-1.4,0.1l0,-0.1l-1.4,0l-1.3,-0.2L208.4,381L207,380.8l-1.4,-0.3l-1.3,-0.4l-1.4,-0.5l-1.2,-0.5l-1.4,-0.6l-1.2,-0.6L198,377.1l-1.2,-0.7l-1.1,-0.8l-1.1,-0.9l-1,-0.9l-0.9,-0.9l-1,-1.1l-0.9,-1.1l-0.7,-1l-0.8,-1.3l-0.6,-1l-0.6,-1.3l-0.6,-1.3L187,363.6l-0.5,-1.3L186.2,361l-0.3,-1.3l-0.1,-1.3l0,-1.4l-0.2,-1.4Z" class="g6_40" />
<path d="M341.5,231.2l-28.8,0l0,-20.6l57.3,0l0,20.6l-28.5,0Z" class="g5_40" />
<path fill-rule="evenodd" d="M383.9,235.4l0,-1.4l0.2,-1.4l0.1,-1.4l0.3,-1.2l0.3,-1.4l0.4,-1.2l0.4,-1.3l0.6,-1.3l0.6,-1.2l0.6,-1.2l0.8,-1.1l0.8,-1.1l0.9,-1l0.9,-1.1l0.9,-0.9l1.1,-0.9l1.1,-0.9l1,-1l1.3,-0.7l1.2,-0.6l1.2,-0.6l1.2,-0.7l1.4,-0.6l1.2,-0.4l1.4,-0.3l1.4,-0.3l1.3,-0.3l1.4,-0.2l1.5,-0.1l1.4,0l1.4,0l1.4,0.1l1.3,0.2l1.4,0.3l1.4,0.3l1.4,0.3l1.3,0.4l1.3,0.6l1.3,0.7l1.3,0.6l1.2,0.6l1.1,0.7l1.2,1l1,0.9l1,0.9l1,0.9l1,1.1l0.7,1l0.8,1.1l0.7,1.2l0.8,1.1l0.6,1.2l0.5,1.3l0.4,1.3l0.5,1.2l0.3,1.4l0.3,1.2l0.2,1.4l0.1,1.4l0,1.4l-0.1,0l0,1.3l-0.2,1.3l-0.1,1.3l-0.4,1.4l-0.3,1.2l-0.3,1.4l-0.4,1.2l-0.6,1.3l-0.6,1.2l-0.7,1.2l-0.7,1.1l-0.8,1.2l-0.9,1.1l-0.9,0.9l-0.9,1.1l-1.1,0.9l-1.1,0.9l-1,0.7l-1.3,0.8l-1,0.8l-1.4,0.6l-1.2,0.6l-1.3,0.5l-1.3,0.4l-1.4,0.3l-1.4,0.3l-1.4,0.3l-1.3,0.2l-1.4,0.1l-1.4,0l-1.4,0l-1.5,-0.1l-1.4,-0.2l-1.3,-0.3l-1.4,-0.3l-1.4,-0.3l-1.2,-0.4l-1.4,-0.7l-1.2,-0.6l-1.2,-0.6l-1.2,-0.6l-1.3,-0.8l-1,-0.9l-1.1,-0.7l-1.1,-0.9l-0.9,-1.1l-0.9,-0.9l-0.8,-1.1l-0.9,-1.2l-0.6,-1.1L386.8,247l-0.6,-1.2l-0.4,-1.3l-0.6,-1.2l-0.4,-1.4l-0.3,-1.2l-0.3,-1.4L384.1,238l-0.2,-1.3l0,-1.3Z" class="g6_40" />
</svg>