<?xml version="1.0" encoding="UTF-8" standalone="no"?>
<!DOCTYPE svg PUBLIC "-//W3C//DTD SVG 1.1//EN"
"http://www.w3.org/Graphics/SVG/1.1/DTD/svg11.dtd">
<svg viewBox="0 0 909 1286" version="1.1" xmlns="http://www.w3.org/2000/svg" xmlns:xlink="http://www.w3.org/1999/xlink">
<defs>
<style type="text/css"><![CDATA[
.g1_23{
fill: none;
stroke: #000066;
stroke-width: 4.5833335;
stroke-linecap: butt;
stroke-linejoin: round;
}
.g2_23{
fill: none;
stroke: #000000;
stroke-width: 1.1458334;
stroke-linecap: butt;
stroke-linejoin: round;
}
.g3_23{
fill: #FFFFFF;
}
.g4_23{
}
.g5_23{
fill: #376092;
}
.g6_23{
fill: none;
stroke: #FF0000;
stroke-width: 3.0555556;
stroke-linecap: butt;
stroke-linejoin: round;
}
]]></style>
</defs>
<path d="M78.1,99.1l794,0.1" class="g1_23" />
<path d="M96.6,1224.5l772.1,0.1" class="g2_23" />
<path fill-rule="evenodd" d="M112.3,97l689.5,0l0,0.4l-689.5,0l0,-0.4Z" class="g3_23" />
<path fill-rule="evenodd" d="M112.3,429.9l689.5,0l0,0.4l-689.5,0l0,-0.4Z" class="g3_23" />
<path fill-rule="evenodd" d="M112.3,97.3l0.5,0l0,332.7l-0.5,0l0,-332.7Z" class="g3_23" />
<path fill-rule="evenodd" d="M801.3,97.3l0.5,0l0,332.7l-0.5,0l0,-332.7Z" class="g3_23" />
<image preserveAspectRatio="none" x="113" y="97" width="688" height="333" xlink:href="img/1.png" />
<path fill-rule="evenodd" d="M112.6,430l-0.3,0.3L112.3,97l0.3,0.3l0.2,0.1l0,332.5l-0.2,0.1Z" class="g4_23" />
<path fill-rule="evenodd" d="M801.5,430l-0.2,-0.1l0,-332.5l0.2,-0.1L801.8,97l0,333.3L801.5,430Z" class="g4_23" />
<path fill-rule="evenodd" d="M801.5,97.3l-0.2,0.1l-688.5,0l-0.2,-0.1L112.3,97l689.5,0l-0.3,0.3Z" class="g4_23" />
<path fill-rule="evenodd" d="M801.5,430l0.3,0.3l-689.5,0l0.3,-0.3l0.2,-0.1l688.5,0l0.2,0.1Z" class="g4_23" />
<path fill-rule="evenodd" d="M112.3,592.4l689.5,0l0,0.5l-689.5,0l0,-0.5Z" class="g3_23" />
<path fill-rule="evenodd" d="M112.3,859.8l689.5,0l0,0.4l-689.5,0l0,-0.4Z" class="g3_23" />
<path fill-rule="evenodd" d="M112.3,592.7l0.5,0l0,267.2l-0.5,0l0,-267.2Z" class="g3_23" />
<path fill-rule="evenodd" d="M801.3,592.7l0.5,0l0,267.2l-0.5,0l0,-267.2Z" class="g3_23" />
<image preserveAspectRatio="none" x="113" y="593" width="688" height="267" xlink:href="img/2.png" />
<path fill-rule="evenodd" d="M112.6,859.9l-0.3,0.3l0,-267.8l0.3,0.3l0.2,0.2l0,266.9l-0.2,0.1Z" class="g4_23" />
<path fill-rule="evenodd" d="M801.5,859.9l-0.2,-0.1l0,-266.9l0.2,-0.2l0.3,-0.3l0,267.8l-0.3,-0.3Z" class="g4_23" />
<path fill-rule="evenodd" d="M801.5,592.7l-0.2,0.2l-688.5,0l-0.2,-0.2l-0.3,-0.3l689.5,0l-0.3,0.3Z" class="g4_23" />
<path fill-rule="evenodd" d="M801.5,859.9l0.3,0.3l-689.5,0l0.3,-0.3l0.2,-0.1l688.5,0l0.2,0.1Z" class="g4_23" />
<path fill-rule="evenodd" d="M435.4,223.1l0,-1.3l0.2,-1.4l0.1,-1.4l0.3,-1.2l0.3,-1.4l0.5,-1.2l0.5,-1.4l0.4,-1.2l0.6,-1.2l0.8,-1.2l0.7,-1.1l0.8,-1.1l0.8,-1l0.9,-1.1l1.1,-0.9l0.9,-0.9l1,-1l1.3,-0.9l1,-0.7l1.3,-0.7l1.2,-0.6l1.4,-0.6l1.2,-0.6l1.4,-0.4l1.3,-0.4l1.4,-0.3l1.4,-0.3l1.4,-0.1l1.3,-0.2l1.4,0l1.4,0l1.5,0.2l1.4,0.1l1.4,0.3l1.3,0.3l1.4,0.4l1.2,0.4l1.4,0.6l1.2,0.6l1.2,0.6l1.3,0.7l1.2,0.7l1.1,0.9l1,1l1.1,0.9l0.9,0.9l0.9,1.1l1,1l0.7,1.1l0.8,1.2l0.6,1.1l0.6,1.2l0.6,1.2l0.5,1.4l0.3,1.2l0.3,1.4l0.3,1.2l0.1,1.4l0.2,1.4l0,1.3l0,1.4l-0.2,1.2l-0.1,1.4l-0.3,1.4l-0.3,1.2l-0.5,1.4l-0.4,1.2l-0.5,1.2l-0.6,1.3l-0.8,1.2l-0.7,1.1l-0.8,1.2l-0.8,1l-0.9,1l-1,1l-1,0.9l-1,1l-1.3,0.7l-1,0.8l-1.3,0.8l-1.2,0.6l-1.2,0.6l-1.4,0.4l-1.2,0.5l-1.4,0.3l-1.3,0.3l-1.4,0.3l-1.4,0.2l-1.5,0.1l-1.4,0l-1.4,0l-1.3,-0.1l-1.4,-0.2l-1.4,-0.3l-1.4,-0.3l-1.3,-0.3l-1.4,-0.5l-1.2,-0.6l-1.4,-0.6l-1.2,-0.6l-1.1,-0.6l-1.2,-0.8L445.5,243l-1.1,-0.8l-1,-0.9l-1,-1l-0.9,-1l-0.9,-1l-0.8,-1.2L439.1,236l-0.6,-1.2l-0.6,-1.3l-0.6,-1.2l-0.5,-1.2l-0.5,-1.4L436,228.5l-0.3,-1.4l-0.1,-1.4l0,-1.2l-0.2,-1.4Z" class="g5_23" />
<path d="M576.3,425.3l-167.3,0l0,-21.7l334.6,0l0,21.7l-167.3,0Z" class="g6_23" />
<path d="M335.2,255.7l-100.2,0l0,-22.9l200.4,0l0,22.9l-100.2,0Z" class="g6_23" />
<path d="M221.7,143.4l-25.7,0l0,-18.3l51.5,0l0,18.3l-25.8,0Z" class="g6_23" />
<path d="M772.9,427.6l-25.7,0l0,-18.2l51.5,0l0,18.2l-25.8,0Z" class="g6_23" />
<path fill-rule="evenodd" d="M427.5,366.5l0,-1.4l0.1,-1.4l0.2,-1.4l0.3,-1.2l0.3,-1.4l0.3,-1.2l0.5,-1.4l0.6,-1.2l0.6,-1.2l0.6,-1.2l0.8,-1.1l0.7,-1.1l0.9,-1l0.9,-1.1l1,-0.9l1,-0.9l1.1,-1l1.1,-0.9l1.2,-0.7l1.2,-0.7l1.2,-0.6l1.3,-0.6l1.3,-0.6l1.3,-0.4l1.3,-0.3l1.4,-0.4l1.4,-0.3l1.4,-0.1l1.5,-0.2l1.4,0l1.3,0l1.4,0.2l1.4,0.1l1.4,0.3l1.3,0.4l1.4,0.3l1.4,0.4l1.2,0.6l1.4,0.6l1.2,0.6l1.2,0.7l1.1,0.7l1.2,0.9l1.1,1l0.9,0.9l1.1,0.9l0.9,1.1l0.8,1l0.7,1.1l0.8,1.2l0.7,1.1l0.7,1.2l0.4,1.2l0.5,1.4l0.4,1.2l0.3,1.4l0.3,1.2l0.2,1.4l0.2,1.4l0,1.4l-0.2,0l0,1.3l-0.2,1.3l-0.1,1.3l-0.3,1.4l-0.3,1.2l-0.3,1.4l-0.5,1.2l-0.6,1.2l-0.6,1.3l-0.6,1.2l-0.8,1.1l-0.7,1.2l-1,1l-0.9,1l-0.9,1l-1.1,1l-1,0.9l-1.1,0.7l-1.2,0.8l-1.1,0.8l-1.4,0.6l-1.2,0.6l-1.2,0.4l-1.4,0.5l-1.4,0.3l-1.3,0.3l-1.4,0.3l-1.4,0.2l-1.4,0.1l-1.3,0l-1.4,0L451.5,392l-1.4,-0.2l-1.4,-0.3l-1.4,-0.3L446,390.9l-1.3,-0.5l-1.3,-0.6l-1.3,-0.6l-1.2,-0.6L439.7,388l-1.2,-0.8l-1.1,-0.9l-1.1,-0.7l-1,-1l-1,-1l-0.9,-1l-0.7,-1l-0.9,-1.2l-0.7,-1.1l-0.7,-1.2l-0.6,-1.3l-0.5,-1.2l-0.6,-1.2L428.4,373l-0.3,-1.2l-0.3,-1.4l-0.2,-1.3l-0.1,-1.3l0,-1.3Z" class="g5_23" />
<path fill-rule="evenodd" d="M744.9,375.6l0,-1.4l0.2,-1.3l0.1,-1.4l0.4,-1.2l0.3,-1.4l0.3,-1.2l0.4,-1.4l0.6,-1.2l0.6,-1.2l0.7,-1.3l0.7,-1l0.8,-1.1l0.9,-1.1l0.9,-1l0.9,-1l1.1,-0.9l1.1,-0.9l1,-0.9l1.3,-0.8l1.2,-0.6l1.2,-0.6l1.2,-0.6l1.4,-0.6l1.2,-0.5l1.4,-0.3l1.4,-0.3l1.4,-0.3l1.3,-0.1l1.6,-0.2l1.3,0l1.4,0l1.4,0.2l1.4,0.1l1.3,0.3l1.4,0.3l1.4,0.3l1.4,0.5l1.2,0.6l1.4,0.6l1.2,0.6l1.2,0.6l1.1,0.8l1.2,0.9l1.1,0.9l0.9,0.9l1,1l1,1l0.7,1.1l0.8,1.1l0.8,1.2l0.7,1.1l0.6,1.2l0.5,1.2l0.4,1.4l0.5,1.2l0.3,1.4l0.3,1.2l0.2,1.4l0.1,1.3l0,1.4l-0.1,0l0,1.4l-0.2,1.2l-0.1,1.4L798,381l-0.3,1.2l-0.4,1.4l-0.4,1.2l-0.6,1.2l-0.6,1.2l-0.6,1.3l-0.8,1l-0.8,1.2l-0.9,1.1l-0.9,0.9l-0.9,1.1l-1.1,0.9l-1.1,0.9l-1,0.8l-1.3,0.8l-1,0.7l-1.4,0.6l-1.2,0.6l-1.2,0.5l-1.4,0.5l-1.4,0.3l-1.4,0.3L776,401l-1.4,0.1l-1.4,0.2l-1.4,0l-1.3,0l-1.6,-0.2L767.6,401l-1.4,-0.3l-1.4,-0.3l-1.4,-0.3l-1.2,-0.5L760.8,399l-1.2,-0.6l-1.2,-0.6l-1.2,-0.6l-1.3,-0.8l-1,-0.9l-1.1,-0.8l-1.1,-0.9l-0.9,-1.1l-0.9,-0.9l-0.8,-1.1l-0.9,-1.2l-0.6,-1l-0.8,-1.3L747.2,386l-0.4,-1.2l-0.6,-1.2l-0.3,-1.4L745.6,381l-0.4,-1.4l-0.1,-1.4L744.9,377l0,-1.4Z" class="g5_23" />
<path fill-rule="evenodd" d="M655.6,626.5l0,-1.4l0.1,-1.2l0.2,-1.4l0.1,-1.2l0.3,-1.4l0.5,-1.2l0.5,-1.2l0.4,-1.3l0.6,-1.2l0.6,-1l0.6,-1.3l0.8,-1l0.8,-1.1l0.9,-0.9l0.9,-1.1l0.9,-0.9l1.1,-0.8L666,606l1,-0.8l1.1,-0.7l1.2,-0.6l1.2,-0.6l1.3,-0.7l1.3,-0.4l1.3,-0.3l1.3,-0.5l1.3,-0.3l1.3,-0.1l1.4,-0.2l1.4,-0.1l1.4,0l1.3,0l1.4,0.1l1.4,0.2l1.4,0.1l1.3,0.3l1.4,0.5l1.4,0.4l1.2,0.5l1.4,0.6l1.2,0.6l1.1,0.8l1.2,0.8l1.1,0.7l1,0.9l1.1,0.9l0.9,1l0.9,1l1,1.1l0.7,1.1l0.8,1.2l0.6,1.2l0.6,1.2l0.6,1.3l0.5,1.2l0.4,1.4l0.3,1.2l0.3,1.4l0.2,1.3l0,1.3l0.1,1.3l-0.1,0l0,1.4l-0.2,1.4l-0.1,1.4l-0.3,1.2l-0.3,1.4l-0.3,1.2l-0.5,1.3l-0.6,1.3l-0.6,1.2l-0.6,1.2l-0.8,1.1l-0.7,1.1l-1,1l-0.9,1.1l-0.9,1.1l-1.1,0.9l-1,0.7l-1.1,1L697,648l-1.1,0.6l-1.4,0.8l-1.2,0.5l-1.2,0.6l-1.4,0.4l-1.4,0.3l-1.3,0.3l-1.4,0.3l-1.4,0.2l-1.4,0.1l-1.3,0l-1.4,0L679.6,652l-1.4,-0.2l-1.4,-0.1l-1.4,-0.3l-1.3,-0.5l-1.3,-0.4L671.5,650l-1.3,-0.6L669,648.8L667.8,648l-1.2,-0.7l-1.1,-0.8l-1.1,-0.9l-1,-0.9l-1,-1l-0.9,-1l-0.7,-1.1l-1,-1.1l-0.6,-1.2l-0.7,-1.2l-0.6,-1.2l-0.5,-1.3l-0.6,-1.2l-0.3,-1.3l-0.3,-1.3l-0.3,-1.3l-0.2,-1.4l-0.1,-1.2l0,-1.4Z" class="g5_23" />
<path d="M733.3,612.1l-19.4,0l0,-19.4l38.8,0l0,19.4l-19.4,0Z" class="g6_23" />
<path d="M177.1,613.2l-64.8,0l0,-20.6l129.4,0l0,20.6l-64.6,0Z" class="g6_23" />
</svg>