<?xml version="1.0" encoding="UTF-8" standalone="no"?>
<!DOCTYPE svg PUBLIC "-//W3C//DTD SVG 1.1//EN"
"http://www.w3.org/Graphics/SVG/1.1/DTD/svg11.dtd">
<svg viewBox="0 0 909 1286" version="1.1" xmlns="http://www.w3.org/2000/svg" xmlns:xlink="http://www.w3.org/1999/xlink">
<defs>
<style type="text/css"><![CDATA[
.g1_35{
fill: none;
stroke: #000066;
stroke-width: 4.5833335;
stroke-linecap: butt;
stroke-linejoin: round;
}
.g2_35{
fill: none;
stroke: #000000;
stroke-width: 1.1458334;
stroke-linecap: butt;
stroke-linejoin: round;
}
.g3_35{
fill: #FFFFFF;
}
.g4_35{
}
.g5_35{
fill: none;
stroke: #FF0000;
stroke-width: 3.0555556;
stroke-linecap: butt;
stroke-linejoin: round;
}
.g6_35{
fill: #376092;
}
]]></style>
</defs>
<path d="M78.1,99.1l794,0.1" class="g1_35" />
<path d="M96.6,1224.5l772.1,0.1" class="g2_35" />
<path fill-rule="evenodd" d="M112.3,186.2l669.2,0l0,0.3l-669.2,0l0,-0.3Z" class="g3_35" />
<path fill-rule="evenodd" d="M112.3,544.3l669.2,0l0,0.4l-669.2,0l0,-0.4Z" class="g3_35" />
<path fill-rule="evenodd" d="M112.3,186.5l0.5,0l0,357.9l-0.5,0l0,-357.9Z" class="g3_35" />
<path fill-rule="evenodd" d="M781,186.5l0.5,0l0,357.9l-0.5,0l0,-357.9Z" class="g3_35" />
<image preserveAspectRatio="none" x="113" y="186" width="668" height="358" xlink:href="img/1.png" />
<path fill-rule="evenodd" d="M112.6,544.4l-0.3,0.3l0,-358.5l0.3,0.3l0.2,0.1l0,357.7l-0.2,0.1Z" class="g4_35" />
<path fill-rule="evenodd" d="M781.2,544.4L781,544.3l0,-357.7l0.2,-0.1l0.3,-0.3l0,358.5l-0.3,-0.3Z" class="g4_35" />
<path fill-rule="evenodd" d="M781.2,186.5l-0.2,0.1l-668.2,0l-0.2,-0.1l-0.3,-0.3l669.2,0l-0.3,0.3Z" class="g4_35" />
<path fill-rule="evenodd" d="M781.2,544.4l0.3,0.3l-669.2,0l0.3,-0.3l0.2,-0.1l668.2,0l0.2,0.1Z" class="g4_35" />
<path fill-rule="evenodd" d="M112.3,562.8l693,0l0,0.3l-693,0l0,-0.3Z" class="g3_35" />
<path fill-rule="evenodd" d="M112.3,914.3l693,0l0,0.5l-693,0l0,-0.5Z" class="g3_35" />
<path fill-rule="evenodd" d="M112.3,563.1l0.5,0l0,351.2l-0.5,0l0,-351.2Z" class="g3_35" />
<path fill-rule="evenodd" d="M804.8,563.1l0.5,0l0,351.2l-0.5,0l0,-351.2Z" class="g3_35" />
<image preserveAspectRatio="none" x="113" y="563" width="692" height="351" xlink:href="img/2.png" />
<path fill-rule="evenodd" d="M112.6,914.5l-0.3,0.3l0,-352l0.3,0.3l0.2,0.1l0,351.1l-0.2,0.2Z" class="g4_35" />
<path fill-rule="evenodd" d="M805,914.5l-0.2,-0.2l0,-351.1l0.2,-0.1l0.3,-0.3l0,352L805,914.5Z" class="g4_35" />
<path fill-rule="evenodd" d="M805,563.1l-0.2,0.1l-692,0l-0.2,-0.1l-0.3,-0.3l693,0l-0.3,0.3Z" class="g4_35" />
<path fill-rule="evenodd" d="M805,914.5l0.3,0.3l-693,0l0.3,-0.3l0.2,-0.2l692,0l0.2,0.2Z" class="g4_35" />
<image preserveAspectRatio="none" x="443" y="996" width="40" height="35" xlink:href="img/3.png" />
<path d="M260.6,278.3l-62.3,0l0,-29.6l124.8,0l0,29.6l-62.5,0Z" class="g5_35" />
<path fill-rule="evenodd" d="M677.3,408.6l0,-1.4l0.1,-1.3l0.2,-1.4l0.3,-1.2l0.3,-1.4l0.4,-1.2l0.5,-1.4l0.5,-1.2l0.6,-1.2l0.7,-1.3l0.8,-1l0.8,-1.1l0.7,-1.1l0.9,-1l1.1,-1l0.9,-0.9l1.1,-0.9l1.2,-0.9l1.1,-0.8l1.2,-0.6l1.2,-0.6l1.4,-0.6l1.2,-0.6l1.4,-0.5l1.4,-0.3l1.4,-0.3l1.3,-0.3l1.4,-0.1l1.4,-0.2l1.4,0l1.3,0l1.6,0.2l1.3,0.1l1.4,0.3l1.4,0.3l1.4,0.3l1.2,0.5l1.4,0.6l1.2,0.6l1.2,0.6l1.2,0.6l1.2,0.8l1.1,0.9l1.1,0.9l1,0.9l1,1l0.9,1l0.9,1.1l0.8,1.1l0.7,1.2l0.6,1.1l0.7,1.2l0.6,1.2l0.4,1.4l0.3,1.2l0.3,1.4l0.3,1.2l0.2,1.4l0.1,1.3l0,1.4l0,1.4l-0.1,1.2l-0.2,1.4l-0.3,1.4l-0.3,1.2l-0.4,1.4l-0.5,1.2l-0.4,1.2l-0.7,1.2l-0.7,1.3l-0.8,1l-0.8,1.2l-0.7,1.1l-0.9,0.9l-1.1,1.1l-0.9,0.9l-1.1,0.9l-1.2,0.8l-1.1,0.8l-1.2,0.7l-1.2,0.6l-1.2,0.6l-1.4,0.5l-1.2,0.5l-1.4,0.3l-1.4,0.3l-1.4,0.3l-1.3,0.1l-1.6,0.2l-1.3,0l-1.4,0l-1.4,-0.2L700,434l-1.3,-0.3l-1.4,-0.3l-1.4,-0.3l-1.4,-0.5L693.3,432l-1.4,-0.6l-1.2,-0.6l-1.1,-0.6l-1.2,-0.8l-1.1,-0.9l-1,-0.8l-1.1,-0.9l-0.9,-1.1l-0.9,-0.9l-0.9,-1.1l-0.8,-1.2l-0.8,-1l-0.6,-1.3L679.7,419l-0.6,-1.2l-0.5,-1.2l-0.4,-1.4L677.9,414l-0.3,-1.4l-0.2,-1.4l0,-1.2l-0.1,-1.4Z" class="g6_35" />
<path d="M547.7,473.2l-171.9,0l0,-28.5l343.8,0l0,28.5l-171.9,0Z" class="g5_35" />
<path d="M701.9,873.1l-94.6,0l0,-18.2l189,0l0,18.2l-94.4,0Z" class="g5_35" />
<path fill-rule="evenodd" d="M553.5,842.8l0,-1.4l0.2,-1.2l0.1,-1.4l0.2,-1.2l0.3,-1.4l0.4,-1.2l0.5,-1.2l0.5,-1.2l0.6,-1.2l0.6,-1.1l0.6,-1.2l0.7,-1.1l0.8,-1.1l0.9,-0.9l0.9,-1.1l1,-0.9l1,-0.7l1.1,-1l1.1,-0.7l1,-0.8l1.3,-0.6l1.2,-0.6l1.2,-0.6l1.4,-0.5l1.2,-0.3l1.4,-0.4l1.2,-0.3l1.4,-0.2l1.4,-0.2L579,817l1.4,0l1.4,0l1.4,0.1l1.3,0.2l1.4,0.2l1.4,0.3l1.4,0.4l1.3,0.5l1.3,0.4l1.3,0.6l1.2,0.7l1.1,0.7l1.2,0.8l1.1,0.7l1.1,1l1,0.9l1,0.9l0.9,1.1l0.9,1l0.8,1.1l0.7,1.2l0.6,1.3l0.6,1.2l0.7,1.2l0.4,1.2l0.5,1.4l0.3,1.2l0.3,1.4l0.1,1.4l0,1.2l0.2,1.4l-0.2,0l0,1.3l-0.1,1.4l-0.2,1.4l-0.3,1.2l-0.3,1.4l-0.3,1.2l-0.4,1.4l-0.7,1.2l-0.6,1.2l-0.6,1.2l-0.7,1.1l-0.8,1.1l-0.9,1.1l-0.9,1l-1,1.1l-1,0.9l-1.1,0.8l-1.1,0.9l-1.2,0.8l-1.1,0.6l-1.3,0.7l-1.2,0.5l-1.3,0.6l-1.3,0.5l-1.4,0.3l-1.4,0.3l-1.4,0.3l-1.3,0.1l-1.4,0.2l-1.4,0l-1.4,0l-1.5,-0.2l-1.4,-0.1L574.8,868l-1.4,-0.3L572,867.3l-1.2,-0.5l-1.4,-0.5l-1.2,-0.6L567,865.1l-1.3,-0.7l-1.2,-0.8l-1.1,-0.8l-1,-0.9L561.3,861l-0.9,-0.9L559.5,859l-0.8,-1.1l-0.9,-1l-0.6,-1.3l-0.8,-1.2l-0.6,-1.2L555.3,852l-0.6,-1.2l-0.3,-1.4l-0.3,-1.2l-0.3,-1.4l-0.1,-1.4l-0.2,-1.2l0,-1.4Z" class="g6_35" />
<path d="M534,808.9l-12.7,0l0,-21.7l25.2,0l0,21.7l-12.5,0Z" class="g5_35" />
</svg>