<?xml version="1.0" encoding="UTF-8" standalone="no"?>
<!DOCTYPE svg PUBLIC "-//W3C//DTD SVG 1.1//EN"
"http://www.w3.org/Graphics/SVG/1.1/DTD/svg11.dtd">
<svg viewBox="0 0 935 1210" version="1.1" xmlns="http://www.w3.org/2000/svg" xmlns:xlink="http://www.w3.org/1999/xlink">
<defs>
<style type="text/css"><![CDATA[
.g1_127{
fill: none;
stroke: #000066;
stroke-width: 4.5833335;
stroke-linecap: butt;
stroke-linejoin: round;
}
.g2_127{
fill: none;
stroke: #000000;
stroke-width: 1.1458334;
stroke-linecap: butt;
stroke-linejoin: round;
}
.g3_127{
fill: none;
stroke: #FF0000;
stroke-width: 3.4375;
stroke-linecap: butt;
stroke-linejoin: miter;
stroke-miterlimit: 8;
}
.g4_127{
fill: #333F50;
}
]]></style>
</defs>
<path d="M100.5,103.5l794.1,0" class="g1_127" />
<path d="M84.6,1142.7l772.2,0" class="g2_127" />
<image preserveAspectRatio="none" x="288" y="147" width="160" height="31" xlink:href="img/1.png" />
<path d="M287.5,178.2l161.5,0l0,-32.1l-161.5,0l0,32.1Z" class="g2_127" />
<image preserveAspectRatio="none" x="112" y="224" width="715" height="409" xlink:href="img/2.png" />
<path d="M111.7,634.1l716.2,0l0,-410.9l-716.2,0l0,410.9Z" class="g2_127" />
<path d="M697,403.3l131,0L828,229l-131,0l0,174.3Z" class="g3_127" />
<path fill-rule="evenodd" d="M662.4,263.6c0,-13,11.1,-23.4,24.6,-23.4c13.6,0,24.6,10.4,24.6,23.4c0,12.9,-11,23.4,-24.6,23.4c-13.5,0,-24.6,-10.5,-24.6,-23.4Z" class="g4_127" />
<image preserveAspectRatio="none" x="670" y="253" width="34" height="21" xlink:href="img/3.png" />
<path d="M711.9,397l95.1,0l0,-19.7l-95.1,0l0,19.7Z" class="g3_127" />
<path fill-rule="evenodd" d="M735.4,353.8c0,-12.9,11,-23.4,24.6,-23.4c13.6,0,24.6,10.5,24.6,23.4c0,13,-11,23.5,-24.6,23.5c-13.6,0,-24.6,-10.5,-24.6,-23.5Z" class="g4_127" />
<image preserveAspectRatio="none" x="743" y="344" width="34" height="20" xlink:href="img/4.png" />
</svg>