<?xml version="1.0" encoding="UTF-8" standalone="no"?>
<!DOCTYPE svg PUBLIC "-//W3C//DTD SVG 1.1//EN"
"http://www.w3.org/Graphics/SVG/1.1/DTD/svg11.dtd">
<svg viewBox="0 0 909 1286" version="1.1" xmlns="http://www.w3.org/2000/svg" xmlns:xlink="http://www.w3.org/1999/xlink">
<defs>
<style type="text/css"><![CDATA[
.g1_34{
fill: none;
stroke: #000066;
stroke-width: 4.5833335;
stroke-linecap: butt;
stroke-linejoin: round;
}
.g2_34{
fill: none;
stroke: #000000;
stroke-width: 1.1458334;
stroke-linecap: butt;
stroke-linejoin: round;
}
.g3_34{
fill: #FFFFFF;
}
.g4_34{
}
.g5_34{
fill: none;
stroke: #FF0000;
stroke-width: 3.0555556;
stroke-linecap: butt;
stroke-linejoin: round;
}
.g6_34{
fill: #376092;
}
]]></style>
</defs>
<path d="M78.1,99.1l794,0.1" class="g1_34" />
<path d="M96.6,1224.5l772.1,0.1" class="g2_34" />
<path fill-rule="evenodd" d="M112.3,393.8l687.5,0l0,0.3l-687.5,0l0,-0.3Z" class="g3_34" />
<path fill-rule="evenodd" d="M112.3,687.7l687.5,0l0,0.5l-687.5,0l0,-0.5Z" class="g3_34" />
<path fill-rule="evenodd" d="M112.3,394.1l0.5,0l0,293.8l-0.5,0l0,-293.8Z" class="g3_34" />
<path fill-rule="evenodd" d="M799.3,394.1l0.5,0l0,293.8l-0.5,0l0,-293.8Z" class="g3_34" />
<image preserveAspectRatio="none" x="113" y="394" width="686" height="294" xlink:href="img/1.png" />
<path fill-rule="evenodd" d="M112.6,687.9l-0.3,0.3l0,-294.4l0.3,0.3l0.2,0.2l0,293.4l-0.2,0.2Z" class="g4_34" />
<path fill-rule="evenodd" d="M799.5,687.9l-0.2,-0.2l0,-293.4l0.2,-0.2l0.3,-0.3l0,294.4l-0.3,-0.3Z" class="g4_34" />
<path fill-rule="evenodd" d="M799.5,394.1l-0.2,0.2l-686.5,0l-0.2,-0.2l-0.3,-0.3l687.5,0l-0.3,0.3Z" class="g4_34" />
<path fill-rule="evenodd" d="M799.5,687.9l0.3,0.3l-687.5,0l0.3,-0.3l0.2,-0.2l686.5,0l0.2,0.2Z" class="g4_34" />
<image preserveAspectRatio="none" x="183" y="743" width="35" height="29" xlink:href="img/2.png" />
<path fill-rule="evenodd" d="M112.3,791.3l689.5,0l0,0.3l-689.5,0l0,-0.3Z" class="g3_34" />
<path fill-rule="evenodd" d="M112.3,1185.2l689.5,0l0,0.4l-689.5,0l0,-0.4Z" class="g3_34" />
<path fill-rule="evenodd" d="M112.3,791.6l0.5,0l0,393.7l-0.5,0l0,-393.7Z" class="g3_34" />
<path fill-rule="evenodd" d="M801.3,791.6l0.5,0l0,393.7l-0.5,0l0,-393.7Z" class="g3_34" />
<image preserveAspectRatio="none" x="113" y="791" width="688" height="394" xlink:href="img/3.png" />
<path fill-rule="evenodd" d="M112.6,1185.3l-0.3,0.3l0,-394.3l0.3,0.3l0.2,0.2l0,393.4l-0.2,0.1Z" class="g4_34" />
<path fill-rule="evenodd" d="M801.5,1185.3l-0.2,-0.1l0,-393.4l0.2,-0.2l0.3,-0.3l0,394.3l-0.3,-0.3Z" class="g4_34" />
<path fill-rule="evenodd" d="M801.5,791.6l-0.2,0.2l-688.5,0l-0.2,-0.2l-0.3,-0.3l689.5,0l-0.3,0.3Z" class="g4_34" />
<path fill-rule="evenodd" d="M801.5,1185.3l0.3,0.3l-689.5,0l0.3,-0.3l0.2,-0.1l688.5,0l0.2,0.1Z" class="g4_34" />
<path d="M603.3,497.2l-42.9,0l0,-29.8l85.9,0l0,29.8l-43,0Z" class="g5_34" />
<path d="M639.4,523.7l-77.9,0l0,-24.2l155.8,0l0,24.2l-77.9,0Z" class="g5_34" />
<path d="M787.9,526l-8.6,0l0,-19.6l17.1,0l0,19.6l-8.5,0Z" class="g5_34" />
<path fill-rule="evenodd" d="M649.6,465.8l0,-1.4l0.2,-1.2l0.1,-1.4l0.3,-1.4l0.3,-1.2l0.5,-1.4l0.4,-1.2l0.5,-1.2l0.6,-1.3l0.8,-1.2l0.7,-1l0.8,-1.3l0.8,-1l0.9,-1l1.1,-1l0.9,-0.9l1,-1l1.3,-0.7l1,-0.8l1.3,-0.7l1.2,-0.7l1.4,-0.6l1.2,-0.4l1.3,-0.5l1.4,-0.3l1.4,-0.3l1.4,-0.3l1.4,-0.2l1.3,-0.1l1.4,0l1.4,0l1.5,0.1l1.4,0.2l1.4,0.2l1.3,0.3l1.4,0.4l1.2,0.5l1.4,0.4l1.2,0.6l1.2,0.7l1.3,0.7l1.2,0.8l1.1,0.7l1,1l1.1,0.9l0.9,1l0.9,1l0.9,1l0.8,1.1l0.8,1.2l0.6,1.2l0.6,1.3l0.6,1.2l0.5,1.2l0.3,1.4l0.3,1.2l0.3,1.4l0.1,1.4l0.2,1.2l0,1.4l0,1.3l-0.2,1.4l-0.1,1.4l-0.3,1.2l-0.3,1.4l-0.3,1.2l-0.5,1.4l-0.6,1.2l-0.6,1.2l-0.6,1.1l-0.8,1.2l-0.8,1.1l-0.9,1.1l-0.9,1l-0.9,0.9l-1.1,1l-1,0.9l-1.1,0.7l-1.2,0.8l-1.3,0.8l-1.2,0.6l-1.2,0.6l-1.4,0.4l-1.2,0.5l-1.4,0.5l-1.3,0.3l-1.4,0.3l-1.4,0.1l-1.5,0l-1.4,0.2l0,-0.2l-1.4,0l-1.3,-0.1l-1.4,-0.2L671,491l-1.4,-0.3l-1.4,-0.5l-1.3,-0.5l-1.2,-0.4l-1.4,-0.6l-1.2,-0.6l-1.3,-0.8l-1,-0.8l-1.3,-0.7l-1,-0.9l-0.9,-1L656.5,483l-0.9,-1l-0.8,-1.1l-0.9,-1.1l-0.6,-1.2l-0.8,-1.1l-0.6,-1.2l-0.5,-1.4L651,473.7l-0.5,-1.2l-0.3,-1.4l-0.3,-1.2l-0.1,-1.4l-0.2,-1.4l0,-1.3Z" class="g6_34" />
<path fill-rule="evenodd" d="M744.9,558.6l0,-1.3l0.2,-1.2l0.1,-1.4l0.4,-1.4l0.3,-1.2l0.3,-1.4l0.4,-1.2l0.6,-1.2l0.6,-1.3l0.7,-1.2l0.7,-1.2l0.8,-1.1l0.9,-1l0.9,-1l0.9,-1l1.1,-0.9l1.1,-1l1,-0.7l1.3,-0.8l1.2,-0.8l1.2,-0.6l1.2,-0.6l1.4,-0.4l1.2,-0.5l1.4,-0.5l1.4,-0.3l1.4,-0.1l1.3,-0.2l1.6,-0.1l1.3,0l1.4,0l1.4,0.1l1.4,0.2l1.3,0.1l1.4,0.3l1.4,0.5l1.4,0.5l1.2,0.4l1.4,0.6l1.2,0.6l1.2,0.8l1.1,0.8l1.2,0.7l1.1,1l0.9,0.9l1,1l1,1l0.7,1l0.8,1.1l0.8,1.2l0.7,1.2l0.6,1.3l0.5,1.2l0.4,1.2l0.5,1.4l0.3,1.2l0.3,1.4l0.2,1.4l0.1,1.2l0,1.3l-0.1,0l0,1.4l-0.2,1.4l-0.1,1.4L798,564l-0.3,1.4l-0.4,1.2l-0.4,1.4l-0.6,1.2l-0.6,1.2l-0.6,1.1l-0.8,1.2l-0.8,1.1l-0.9,1l-0.9,1.1l-0.9,0.9l-1.1,0.9l-1.1,1l-1,0.7l-1.3,0.8l-1,0.8l-1.4,0.6l-1.2,0.6l-1.2,0.4l-1.4,0.5l-1.4,0.5l-1.4,0.3l-1.3,0.3l-1.4,0.1l-1.4,0l-1.4,0.2l0,-0.2l-1.3,0l-1.6,-0.1L767.6,584l-1.4,-0.1l-1.4,-0.3l-1.4,-0.5l-1.2,-0.5l-1.4,-0.4l-1.2,-0.6L758.4,581l-1.2,-0.8l-1.3,-0.8l-1,-0.7l-1.1,-1l-1.1,-0.9l-0.9,-0.9l-0.9,-1.1l-0.8,-1l-0.9,-1.1l-0.6,-1.2l-0.8,-1.1l-0.6,-1.2l-0.4,-1.4l-0.6,-1.2l-0.3,-1.2L745.6,564l-0.4,-1.2l-0.1,-1.4L744.9,560l0,-1.4Z" class="g6_34" />
<path d="M454.4,1175.3l-73.8,0l0,-27.4l147.7,0l0,27.4l-73.9,0Z" class="g5_34" />
<path d="M251,924.4l-135.2,0l0,-33.2l270.4,0l0,33.2l-135.2,0Z" class="g5_34" />
<path fill-rule="evenodd" d="M557,1163.3l0,-1.3l0.2,-1.3l0.1,-1.3l0.3,-1.4l0.3,-1.2l0.3,-1.4l0.5,-1.2l0.6,-1.2l0.6,-1.3l0.6,-1.2l0.8,-1.2l0.8,-1.1l0.9,-1.1l0.9,-0.9l0.9,-1l1.1,-1l1.1,-0.9l1,-0.7l1.3,-0.8l1.2,-0.8l1.2,-0.6l1.2,-0.6l1.4,-0.4l1.2,-0.5l1.4,-0.5l1.4,-0.3l1.3,-0.1l1.4,-0.2l1.5,-0.1l1.4,0l1.4,0l1.4,0.1l1.3,0.2l1.4,0.1l1.4,0.3l1.4,0.5l1.3,0.5l1.3,0.4l1.3,0.6l1.3,0.6l1.2,0.8l1.1,0.8l1.2,0.7l1,0.9l1,1l1,1l0.9,0.9l0.8,1.1l0.8,1.1l0.7,1.2l0.8,1.2l0.6,1.3l0.5,1.2l0.4,1.2l0.5,1.4l0.3,1.2l0.3,1.4l0.2,1.3l0.1,1.3l0,1.3l-0.1,0l0,1.4l-0.2,1.4l-0.2,1.4l-0.3,1.2l-0.3,1.4l-0.3,1.2l-0.4,1.4l-0.6,1.2l-0.7,1.2l-0.6,1.1l-0.7,1.2l-0.8,1.1l-0.9,1l-0.9,1.1l-0.9,0.9l-1.1,0.9l-1.1,1l-1,0.7l-1.3,0.8l-1,0.7l-1.4,0.7l-1.2,0.6l-1.3,0.4l-1.3,0.5l-1.4,0.4l-1.4,0.4l-1.4,0.3l-1.3,0.1l-1.4,0l-1.4,0.2l0,-0.2l-1.4,0l-1.5,-0.1l-1.4,-0.2l-1.3,-0.1l-1.4,-0.4l-1.4,-0.4l-1.2,-0.5l-1.4,-0.4l-1.2,-0.6l-1.2,-0.7l-1.2,-0.7l-1.3,-0.8l-1,-0.7l-1.1,-1l-1.1,-0.9l-0.9,-0.9l-0.9,-1.1l-0.8,-1l-0.9,-1.1l-0.6,-1.2l-0.8,-1.1l-0.6,-1.2l-0.4,-1.4l-0.7,-1.2l-0.3,-1.2l-0.3,-1.4l-0.3,-1.2l-0.1,-1.4l-0.2,-1.4l0,-1.4Z" class="g6_34" />
<path fill-rule="evenodd" d="M394.3,909l0,-1.4l0.2,-1.4l0.1,-1.4l0.3,-1.2l0.3,-1.4l0.3,-1.2l0.5,-1.4l0.6,-1.2l0.6,-1.2l0.6,-1.2l0.8,-1.1l0.8,-1.1l0.9,-1l0.9,-1.1l0.9,-0.9l1.1,-0.9l1.1,-0.9l1,-1l1.2,-0.7l1.3,-0.6l1.2,-0.6l1.2,-0.7l1.4,-0.6l1.2,-0.4l1.4,-0.3l1.4,-0.3l1.3,-0.3l1.4,-0.2l1.5,-0.2l1.4,0l1.4,0l1.4,0.2l1.3,0.2l1.4,0.3l1.4,0.3l1.4,0.3l1.3,0.4l1.3,0.6l1.3,0.7l1.3,0.6l1.2,0.6l1,0.7l1.3,1l1,0.9l1,0.9l1,0.9l0.9,1.1l0.8,1l0.8,1.1l0.7,1.2l0.8,1.1l0.6,1.2l0.5,1.2l0.4,1.4l0.5,1.2l0.3,1.4l0.3,1.2l0.1,1.4l0.2,1.4l0,1.4l-0.2,0l0,1.3l-0.1,1.3l-0.2,1.3l-0.3,1.4l-0.3,1.2l-0.3,1.4l-0.4,1.2l-0.6,1.3l-0.7,1.2l-0.6,1.2l-0.7,1.1l-0.8,1.2l-0.9,1.1l-0.9,0.9l-0.9,1l-1.1,1L438,929l-1.1,0.7l-1.2,0.8l-1,0.8l-1.4,0.6l-1.2,0.6l-1.3,0.5l-1.3,0.4l-1.4,0.3l-1.4,0.3l-1.4,0.3l-1.3,0.2l-1.4,0.1l-1.4,0l-1.4,0l-1.5,-0.1l-1.4,-0.2L415.6,934l-1.4,-0.3l-1.4,-0.3L411.6,933l-1.4,-0.7L409,931.7l-1.2,-0.6l-1.3,-0.6l-1.2,-0.8l-1,-0.9l-1.1,-0.7l-1.1,-1l-0.9,-1l-0.9,-0.9l-0.8,-1.1l-0.9,-1.2L398,921.8l-0.8,-1.2l-0.6,-1.2l-0.4,-1.3l-0.7,-1.2l-0.3,-1.4l-0.3,-1.2l-0.3,-1.4l-0.1,-1.3l-0.2,-1.3l0,-1.3Z" class="g6_34" />
</svg>