<?xml version="1.0" encoding="UTF-8" standalone="no"?>
<!DOCTYPE svg PUBLIC "-//W3C//DTD SVG 1.1//EN"
"http://www.w3.org/Graphics/SVG/1.1/DTD/svg11.dtd">
<svg viewBox="0 0 935 1210" version="1.1" xmlns="http://www.w3.org/2000/svg" xmlns:xlink="http://www.w3.org/1999/xlink">
<defs>
<style type="text/css"><![CDATA[
.g1_211{
fill: none;
stroke: #000066;
stroke-width: 4.5833335;
stroke-linecap: butt;
stroke-linejoin: round;
}
.g2_211{
fill: none;
stroke: #000000;
stroke-width: 1.1458334;
stroke-linecap: butt;
stroke-linejoin: round;
}
.g3_211{
fill: none;
stroke: #FF0000;
stroke-width: 2.2916667;
stroke-linecap: butt;
stroke-linejoin: miter;
stroke-miterlimit: 8;
}
.g4_211{
fill: #1F4E79;
}
]]></style>
</defs>
<path d="M100.5,103.5l794.1,0" class="g1_211" />
<path d="M84.6,1142.7l772.2,0" class="g2_211" />
<image preserveAspectRatio="none" x="112" y="112" width="715" height="498" xlink:href="img/1.png" />
<path d="M111.7,611l716.2,0l0,-499.3l-716.2,0l0,499.3Z" class="g2_211" />
<image preserveAspectRatio="none" x="112" y="662" width="707" height="368" xlink:href="img/2.png" />
<path d="M111.7,1030.8l707.7,0l0,-369l-707.7,0l0,369Z" class="g2_211" />
<path d="M113.1,140.9l528.8,0l0,-26.5l-528.8,0l0,26.5Z" class="g3_211" />
<path fill-rule="evenodd" d="M632.4,139.3c0,-13.8,14,-24.9,31.2,-24.9c17.2,0,31.2,11.1,31.2,24.9c0,13.7,-14,24.8,-31.2,24.8c-17.2,0,-31.2,-11.1,-31.2,-24.8Z" class="g4_211" />
<image preserveAspectRatio="none" x="642" y="128" width="43" height="23" xlink:href="img/3.png" />
<path d="M125.8,593.5l36,0l0,-349l-36,0l0,349Z" class="g3_211" />
<path fill-rule="evenodd" d="M150.1,279.9c0,-13.7,14,-24.8,31.2,-24.8c17.2,0,31.2,11.1,31.2,24.8c0,13.7,-14,24.8,-31.2,24.8c-17.2,0,-31.2,-11.1,-31.2,-24.8Z" class="g4_211" />
<image preserveAspectRatio="none" x="160" y="269" width="43" height="22" xlink:href="img/4.png" />
<path d="M262.3,166.1l141.6,0l0,-23.1l-141.6,0l0,23.1Z" class="g3_211" />
<path fill-rule="evenodd" d="M390.2,172.1c0,-13.8,14,-24.9,31.2,-24.9c17.3,0,31.2,11.1,31.2,24.9c0,13.7,-13.9,24.8,-31.2,24.8c-17.2,0,-31.2,-11.1,-31.2,-24.8Z" class="g4_211" />
<image preserveAspectRatio="none" x="400" y="161" width="43" height="22" xlink:href="img/5.png" />
<path d="M363.8,979.5l447.4,0l0,-243.2l-447.4,0l0,243.2Z" class="g3_211" />
<path fill-rule="evenodd" d="M443.1,727.3c0,-13.7,14,-24.8,31.2,-24.8c17.3,0,31.2,11.1,31.2,24.8c0,13.7,-13.9,24.9,-31.2,24.9c-17.2,0,-31.2,-11.2,-31.2,-24.9Z" class="g4_211" />
<image preserveAspectRatio="none" x="453" y="716" width="43" height="23" xlink:href="img/6.png" />
</svg>