<?xml version="1.0" encoding="UTF-8" standalone="no"?>
<!DOCTYPE svg PUBLIC "-//W3C//DTD SVG 1.1//EN"
"http://www.w3.org/Graphics/SVG/1.1/DTD/svg11.dtd">
<svg viewBox="0 0 909 1286" version="1.1" xmlns="http://www.w3.org/2000/svg" xmlns:xlink="http://www.w3.org/1999/xlink">
<defs>
<style type="text/css"><![CDATA[
.g1_21{
fill: none;
stroke: #000066;
stroke-width: 4.5833335;
stroke-linecap: butt;
stroke-linejoin: round;
}
.g2_21{
fill: none;
stroke: #000000;
stroke-width: 1.1458334;
stroke-linecap: butt;
stroke-linejoin: round;
}
.g3_21{
fill: #FFFFFF;
}
.g4_21{
}
.g5_21{
fill: none;
stroke: #FF0000;
stroke-width: 3.0555556;
stroke-linecap: butt;
stroke-linejoin: round;
}
.g6_21{
fill: #376092;
}
]]></style>
</defs>
<path d="M78.1,99.1l794,0.1" class="g1_21" />
<path d="M96.6,1224.5l772.1,0.1" class="g2_21" />
<path fill-rule="evenodd" d="M112.3,97l503.1,0l0,0.4l-503.1,0l0,-0.4Z" class="g3_21" />
<path fill-rule="evenodd" d="M112.3,253.6l503.1,0l0,0.4l-503.1,0l0,-0.4Z" class="g3_21" />
<path fill-rule="evenodd" d="M112.3,97.3l0.5,0l0,156.3l-0.5,0l0,-156.3Z" class="g3_21" />
<path fill-rule="evenodd" d="M614.9,97.3l0.5,0l0,156.3l-0.5,0l0,-156.3Z" class="g3_21" />
<image preserveAspectRatio="none" x="113" y="97" width="502" height="156" xlink:href="img/1.png" />
<path fill-rule="evenodd" d="M112.6,253.7l-0.3,0.3l0,-157l0.3,0.3l0.2,0.1l0,156.2l-0.2,0.1Z" class="g4_21" />
<path fill-rule="evenodd" d="M615.1,253.7l-0.2,-0.1l0,-156.2l0.2,-0.1L615.4,97l0,157l-0.3,-0.3Z" class="g4_21" />
<path fill-rule="evenodd" d="M615.1,97.3l-0.2,0.1l-502.1,0l-0.2,-0.1L112.3,97l503.1,0l-0.3,0.3Z" class="g4_21" />
<path fill-rule="evenodd" d="M615.1,253.7l0.3,0.3l-503.1,0l0.3,-0.3l0.2,-0.1l502.1,0l0.2,0.1Z" class="g4_21" />
<path fill-rule="evenodd" d="M112.3,317l689.5,0l0,0.3l-689.5,0l0,-0.3Z" class="g3_21" />
<path fill-rule="evenodd" d="M112.3,699.1l689.5,0l0,0.4l-689.5,0l0,-0.4Z" class="g3_21" />
<path fill-rule="evenodd" d="M112.3,317.3l0.5,0l0,381.8l-0.5,0l0,-381.8Z" class="g3_21" />
<path fill-rule="evenodd" d="M801.3,317.3l0.5,0l0,381.8l-0.5,0l0,-381.8Z" class="g3_21" />
<image preserveAspectRatio="none" x="113" y="317" width="688" height="382" xlink:href="img/2.png" />
<path fill-rule="evenodd" d="M112.6,699.2l-0.3,0.3l0,-382.5l0.3,0.3l0.2,0.1l0,381.7l-0.2,0.1Z" class="g4_21" />
<path fill-rule="evenodd" d="M801.5,699.2l-0.2,-0.1l0,-381.7l0.2,-0.1l0.3,-0.3l0,382.5l-0.3,-0.3Z" class="g4_21" />
<path fill-rule="evenodd" d="M801.5,317.3l-0.2,0.1l-688.5,0l-0.2,-0.1L112.3,317l689.5,0l-0.3,0.3Z" class="g4_21" />
<path fill-rule="evenodd" d="M801.5,699.2l0.3,0.3l-689.5,0l0.3,-0.3l0.2,-0.1l688.5,0l0.2,0.1Z" class="g4_21" />
<path fill-rule="evenodd" d="M112.3,887.4l689.5,0l0,0.3l-689.5,0l0,-0.3Z" class="g3_21" />
<path fill-rule="evenodd" d="M112.3,1188.9l689.5,0l0,0.4l-689.5,0l0,-0.4Z" class="g3_21" />
<path fill-rule="evenodd" d="M112.3,887.7l0.5,0l0,301.3l-0.5,0l0,-301.3Z" class="g3_21" />
<path fill-rule="evenodd" d="M801.3,887.7l0.5,0l0,301.3l-0.5,0l0,-301.3Z" class="g3_21" />
<image preserveAspectRatio="none" x="113" y="888" width="688" height="301" xlink:href="img/3.png" />
<path fill-rule="evenodd" d="M112.6,1189l-0.3,0.3l0,-301.9l0.3,0.3l0.2,0.2l0,301l-0.2,0.1Z" class="g4_21" />
<path fill-rule="evenodd" d="M801.5,1189l-0.2,-0.1l0,-301l0.2,-0.2l0.3,-0.3l0,301.9l-0.3,-0.3Z" class="g4_21" />
<path fill-rule="evenodd" d="M801.5,887.7l-0.2,0.2l-688.5,0l-0.2,-0.2l-0.3,-0.3l689.5,0l-0.3,0.3Z" class="g4_21" />
<path fill-rule="evenodd" d="M801.5,1189l0.3,0.3l-689.5,0l0.3,-0.3l0.2,-0.1l688.5,0l0.2,0.1Z" class="g4_21" />
<path d="M455.4,229.4l-44.1,0l0,-38.9l88.3,0l0,38.9l-44.2,0Z" class="g5_21" />
<path fill-rule="evenodd" d="M345,210.5l0,-1.3l0.1,-1.3l0.2,-1.3l0.1,-1.3l0.3,-1.2l0.5,-1.3l0.5,-1.2l0.4,-1.2l0.6,-1.2l0.6,-1.3l0.6,-1l0.8,-1.1l0.8,-1.1l0.9,-1l0.9,-1l0.9,-0.9l1.1,-0.9l1.1,-0.8l1,-0.7l1.1,-0.8l1.2,-0.6l1.2,-0.6l1.3,-0.6l1.3,-0.5l1.3,-0.4l1.3,-0.3l1.3,-0.3l1.3,-0.3l1.4,-0.2l1.4,-0.2l1.4,0l1.3,0l1.4,0.2L376,185l1.4,0.3l1.3,0.3l1.4,0.3l1.4,0.4l1.2,0.6l1.4,0.7l1.2,0.6l1.1,0.6l1.2,0.7l1.1,1l1,0.9l1.1,0.9l0.9,0.9l0.9,1.1l1,1l0.7,1.1l0.8,1.1l0.6,1.2l0.6,1.2l0.6,1.2l0.5,1.4l0.4,1.2l0.3,1.4l0.3,1.2l0.2,1.4l0,1.4l0.2,1.4l-0.2,0l0,1.3l-0.2,1.3l-0.1,1.3l-0.3,1.4l-0.3,1.2l-0.3,1.4l-0.5,1.2l-0.6,1.3l-0.6,1.2l-0.6,1.2l-0.8,1.2l-0.7,1.1l-1,1.1l-0.9,1l-0.9,0.9l-1.1,1l-1,0.9l-1.1,0.7l-1.2,0.8l-1.1,0.8l-1.4,0.6l-1.2,0.6l-1.2,0.5l-1.4,0.4l-1.4,0.5l-1.3,0.3L376,236l-1.4,0.1l-1.4,0l-1.3,0.2l-1.4,0L369,236.1L367.6,236l-1.4,-0.3l-1.4,-0.3l-1.3,-0.3l-1.3,-0.5L360.9,234l-1.3,-0.6l-1.2,-0.6l-1.2,-0.6L356,231.4l-1.1,-0.9l-1.1,-0.9l-1,-1l-1,-0.9l-0.9,-1l-0.7,-1.1l-0.9,-1.1l-0.7,-1l-0.7,-1.3L347.3,221l-0.5,-1.2l-0.6,-1.4l-0.3,-1.2l-0.3,-1.4l-0.3,-1.2l-0.2,-1.4L345,211.8l0,-1.3Z" class="g6_21" />
<path d="M736.8,1149.9l-11.4,0l0,-28.6l22.8,0l0,28.6l-11.4,0Z" class="g5_21" />
<path fill-rule="evenodd" d="M669.3,1105.7l0,-1.2l0.2,-1.4l0.1,-1.2l0.2,-1.3l0.3,-1.3l0.4,-1.2l0.5,-1.2l0.5,-1.2l0.6,-1.3l0.6,-1.2l0.6,-1.1l0.8,-1l0.7,-1.1l0.9,-1.1l1,-0.9l0.9,-0.9l1,-0.9l1.1,-0.8l1.1,-0.7l1,-0.8l1.3,-0.6l1.2,-0.6l1.2,-0.6l1.4,-0.5l1.2,-0.5l1.4,-0.3l1.2,-0.3l1.4,-0.3l1.4,-0.1l1.3,-0.2l1.4,0l1.4,0l1.4,0.2l1.3,0.1l1.4,0.3l1.4,0.3l1.4,0.3l1.3,0.5l1.3,0.6l1.3,0.6l1.3,0.6l1,0.7l1.2,0.7l1.1,0.9l1.1,0.9l1.1,1l0.9,0.9l0.9,1.1l0.9,1l0.8,1.1l0.7,1.1l0.6,1.2l0.7,1.2l0.6,1.2l0.4,1.4l0.5,1.2l0.3,1.4l0.3,1.2l0.1,1.4l0,1.4l0.2,1.3l-0.2,0l0,1.4l-0.1,1.2l-0.2,1.4l-0.3,1.4l-0.3,1.2l-0.3,1.4l-0.4,1.2l-0.6,1.2l-0.7,1.3l-0.6,1.2l-0.7,1.2l-0.8,1.1l-0.9,1l-0.9,1.1l-0.9,0.9l-1.1,0.9l-1.1,1l-1.1,0.7l-1.2,0.8l-1,0.8l-1.4,0.6l-1.2,0.6l-1.3,0.4l-1.3,0.5l-1.4,0.4l-1.4,0.4l-1.4,0.3l-1.3,0.1l-1.4,0l-1.4,0.2l-1.4,0l-1.5,-0.2l-1.4,-0.1l-1.3,-0.3l-1.4,-0.4l-1.4,-0.3l-1.2,-0.4l-1.4,-0.6l-1.2,-0.6l-1.2,-0.6l-1.3,-0.7l-1.2,-0.7l-1,-0.9l-1.1,-1l-1.1,-0.9l-0.9,-0.9l-0.9,-1.1l-0.8,-1l-0.9,-1.1l-0.6,-1.1l-0.8,-1.2l-0.6,-1.2l-0.4,-1.2l-0.7,-1.4l-0.3,-1.2l-0.3,-1.4l-0.3,-1.2l-0.1,-1.4l-0.2,-1.4l0,-1.4Z" class="g6_21" />
<path d="M224.6,1146.4l-106.7,0l0,-27.4l213.2,0l0,27.4l-106.5,0Z" class="g5_21" />
</svg>