<?xml version="1.0" encoding="UTF-8" standalone="no"?>
<!DOCTYPE svg PUBLIC "-//W3C//DTD SVG 1.1//EN"
"http://www.w3.org/Graphics/SVG/1.1/DTD/svg11.dtd">
<svg viewBox="0 0 935 1210" version="1.1" xmlns="http://www.w3.org/2000/svg" xmlns:xlink="http://www.w3.org/1999/xlink">
<defs>
<style type="text/css"><![CDATA[
.g1_187{
fill: none;
stroke: #000066;
stroke-width: 4.5833335;
stroke-linecap: butt;
stroke-linejoin: round;
}
.g2_187{
fill: none;
stroke: #000000;
stroke-width: 1.1458334;
stroke-linecap: butt;
stroke-linejoin: round;
}
.g3_187{
fill: none;
stroke: #FF0000;
stroke-width: 2.2916667;
stroke-linecap: butt;
stroke-linejoin: miter;
stroke-miterlimit: 8;
}
.g4_187{
fill: #1F4E79;
}
]]></style>
</defs>
<path d="M100.5,103.5l794.1,0" class="g1_187" />
<path d="M84.6,1142.7l772.2,0" class="g2_187" />
<image preserveAspectRatio="none" x="112" y="293" width="608" height="341" xlink:href="img/1.png" />
<path d="M111.7,634.9l608.5,0l0,-342.6l-608.5,0l0,342.6Z" class="g2_187" />
<image preserveAspectRatio="none" x="112" y="721" width="715" height="175" xlink:href="img/2.png" />
<path d="M111.7,896.6l716.2,0l0,-175.7l-716.2,0l0,175.7Z" class="g2_187" />
<path d="M161.8,340.2l407.1,0l0,-41.3l-407.1,0l0,41.3Z" class="g3_187" />
<path fill-rule="evenodd" d="M558.4,332.2c0,-11.9,9.9,-21.6,22.2,-21.6c12.3,0,22.2,9.7,22.2,21.6c0,12,-9.9,21.7,-22.2,21.7c-12.3,0,-22.2,-9.7,-22.2,-21.7Z" class="g4_187" />
<path d="M360.6,584.4l339.5,0l0,-30.6l-339.5,0l0,30.6Z" class="g3_187" />
<path fill-rule="evenodd" d="M655.6,540.5c0,-11.9,9.9,-21.6,22.2,-21.6c12.2,0,22.2,9.7,22.2,21.6c0,12,-10,21.7,-22.2,21.7c-12.3,0,-22.2,-9.7,-22.2,-21.7Z" class="g4_187" />
<path d="M163.8,760l107.8,0l0,-29.5l-107.8,0l0,29.5Z" class="g3_187" />
<path fill-rule="evenodd" d="M271.7,752.1c0,-12,9.9,-21.6,22.2,-21.6c12.3,0,22.2,9.6,22.2,21.6c0,12,-9.9,21.7,-22.2,21.7c-12.3,0,-22.2,-9.7,-22.2,-21.7Z" class="g4_187" />
<path d="M583.8,831l184,0l0,-18l-184,0l0,18Z" class="g3_187" />
<path fill-rule="evenodd" d="M757.2,821.9c0,-12,9.9,-21.7,22.2,-21.7c12.2,0,22.1,9.7,22.1,21.7c0,11.9,-9.9,21.6,-22.1,21.6c-12.3,0,-22.2,-9.7,-22.2,-21.6Z" class="g4_187" />
</svg>