<?xml version="1.0" encoding="UTF-8" standalone="no"?>
<!DOCTYPE svg PUBLIC "-//W3C//DTD SVG 1.1//EN"
"http://www.w3.org/Graphics/SVG/1.1/DTD/svg11.dtd">
<svg viewBox="0 0 909 1286" version="1.1" xmlns="http://www.w3.org/2000/svg" xmlns:xlink="http://www.w3.org/1999/xlink">
<defs>
<style type="text/css"><![CDATA[
.g1_30{
fill: none;
stroke: #000066;
stroke-width: 4.5833335;
stroke-linecap: butt;
stroke-linejoin: round;
}
.g2_30{
fill: none;
stroke: #000000;
stroke-width: 1.1458334;
stroke-linecap: butt;
stroke-linejoin: round;
}
.g3_30{
fill: #FFFFFF;
}
.g4_30{
}
.g5_30{
fill: none;
stroke: #FF0000;
stroke-width: 3.0555556;
stroke-linecap: butt;
stroke-linejoin: round;
}
.g6_30{
fill: #376092;
}
]]></style>
</defs>
<path d="M78.1,99.1l794,0.1" class="g1_30" />
<path d="M96.6,1224.5l772.1,0.1" class="g2_30" />
<path fill-rule="evenodd" d="M112.3,97l689.5,0l0,0.4l-689.5,0l0,-0.4Z" class="g3_30" />
<path fill-rule="evenodd" d="M112.3,491l689.5,0l0,0.4l-689.5,0l0,-0.4Z" class="g3_30" />
<path fill-rule="evenodd" d="M112.3,97.3l0.5,0l0,393.7l-0.5,0l0,-393.7Z" class="g3_30" />
<path fill-rule="evenodd" d="M801.3,97.3l0.5,0l0,393.7l-0.5,0l0,-393.7Z" class="g3_30" />
<image preserveAspectRatio="none" x="113" y="97" width="688" height="394" xlink:href="img/1.png" />
<path fill-rule="evenodd" d="M112.6,491.1l-0.3,0.3L112.3,97l0.3,0.3l0.2,0.1l0,393.6l-0.2,0.1Z" class="g4_30" />
<path fill-rule="evenodd" d="M801.5,491.1L801.3,491l0,-393.6l0.2,-0.1L801.8,97l0,394.4l-0.3,-0.3Z" class="g4_30" />
<path fill-rule="evenodd" d="M801.5,97.3l-0.2,0.1l-688.5,0l-0.2,-0.1L112.3,97l689.5,0l-0.3,0.3Z" class="g4_30" />
<path fill-rule="evenodd" d="M801.5,491.1l0.3,0.3l-689.5,0l0.3,-0.3l0.2,-0.1l688.5,0l0.2,0.1Z" class="g4_30" />
<path fill-rule="evenodd" d="M112.3,597.1l689.5,0l0,0.4l-689.5,0l0,-0.4Z" class="g3_30" />
<path fill-rule="evenodd" d="M112.3,989.2l689.5,0l0,0.4l-689.5,0l0,-0.4Z" class="g3_30" />
<path fill-rule="evenodd" d="M112.3,597.5l0.5,0l0,391.8l-0.5,0l0,-391.8Z" class="g3_30" />
<path fill-rule="evenodd" d="M801.3,597.5l0.5,0l0,391.8l-0.5,0l0,-391.8Z" class="g3_30" />
<image preserveAspectRatio="none" x="113" y="597" width="688" height="392" xlink:href="img/2.png" />
<path fill-rule="evenodd" d="M112.6,989.3l-0.3,0.3l0,-392.5l0.3,0.4l0.2,0.1l0,391.6l-0.2,0.1Z" class="g4_30" />
<path fill-rule="evenodd" d="M801.5,989.3l-0.2,-0.1l0,-391.6l0.2,-0.1l0.3,-0.4l0,392.5l-0.3,-0.3Z" class="g4_30" />
<path fill-rule="evenodd" d="M801.5,597.5l-0.2,0.1l-688.5,0l-0.2,-0.1l-0.3,-0.4l689.5,0l-0.3,0.4Z" class="g4_30" />
<path fill-rule="evenodd" d="M801.5,989.3l0.3,0.3l-689.5,0l0.3,-0.3l0.2,-0.1l688.5,0l0.2,0.1Z" class="g4_30" />
<path d="M454.4,481l-73.8,0l0,-27.5l147.7,0l0,27.5l-73.9,0Z" class="g5_30" />
<path d="M251,230l-135.2,0l0,-33.1l270.4,0l0,33.1L251,230Z" class="g5_30" />
<path fill-rule="evenodd" d="M557,469.1l0,-1.4l0.2,-1.3l0.1,-1.4l0.3,-1.2l0.3,-1.4l0.3,-1.2l0.5,-1.4l0.6,-1.2l0.6,-1.2l0.6,-1.3l0.8,-1l0.8,-1.1l0.9,-1.1l0.9,-1l0.9,-1l1.1,-0.9l1.1,-0.9l1,-0.9l1.3,-0.8l1.2,-0.6l1.2,-0.6l1.2,-0.6l1.4,-0.6l1.2,-0.5l1.4,-0.3l1.4,-0.3l1.3,-0.3l1.4,-0.1l1.5,-0.2l1.4,0l1.4,0l1.4,0.2l1.3,0.1l1.4,0.3l1.4,0.3l1.4,0.3l1.3,0.5l1.3,0.6l1.3,0.6l1.3,0.6l1.2,0.6l1.1,0.8l1.2,0.9l1,0.9l1,0.9l1,1l0.9,1l0.8,1.1l0.8,1.1l0.7,1.2l0.8,1.1l0.6,1.2l0.5,1.2l0.4,1.4l0.5,1.2l0.3,1.4l0.3,1.2l0.2,1.4l0.1,1.3l0,1.4l-0.1,0l0,1.4l-0.2,1.2l-0.2,1.4l-0.3,1.4l-0.3,1.2l-0.3,1.4l-0.4,1.2l-0.6,1.2l-0.7,1.2l-0.6,1.3l-0.7,1l-0.8,1.2l-0.9,1.1l-0.9,0.9l-0.9,1.1l-1.1,0.9l-1.1,0.9l-1,0.8l-1.3,0.8l-1,0.7L596,492l-1.2,0.6l-1.3,0.5l-1.3,0.5l-1.4,0.3l-1.4,0.3l-1.4,0.3l-1.3,0.1l-1.4,0.2l-1.4,0l-1.4,0L581,494.6l-1.4,-0.1l-1.3,-0.3l-1.4,-0.3l-1.4,-0.3l-1.2,-0.5l-1.4,-0.6l-1.2,-0.6l-1.2,-0.6l-1.2,-0.6L568,489.9L567,489l-1.1,-0.8l-1.1,-0.9l-0.9,-1.1L563,485.3l-0.8,-1.1L561.3,483l-0.6,-1l-0.8,-1.3l-0.6,-1.2l-0.4,-1.2l-0.7,-1.2l-0.3,-1.4l-0.3,-1.2l-0.3,-1.4l-0.1,-1.4L557,470.5l0,-1.4Z" class="g6_30" />
<path fill-rule="evenodd" d="M394.3,214.6l0,-1.4l0.2,-1.2l0.1,-1.4l0.3,-1.4l0.3,-1.2l0.3,-1.4l0.5,-1.2l0.6,-1.2l0.6,-1.2l0.6,-1.2l0.8,-1.3l0.8,-1l0.9,-1.1l0.9,-0.9l0.9,-1.1l1.1,-0.9l1.1,-0.9l1,-0.8l1.2,-0.7l1.3,-0.8l1.2,-0.6l1.2,-0.6l1.4,-0.5l1.2,-0.5l1.4,-0.4l1.4,-0.3l1.3,-0.2l1.4,-0.1l1.5,-0.2l1.4,0l1.4,0l1.4,0.2l1.3,0.1l1.4,0.2l1.4,0.3l1.4,0.4l1.3,0.5l1.3,0.5l1.3,0.6l1.3,0.6l1.2,0.8l1,0.7l1.3,0.8l1,0.9l1,0.9l1,1.1l0.9,0.9l0.8,1.1l0.8,1l0.7,1.3l0.8,1.2l0.6,1.2l0.5,1.2l0.4,1.2l0.5,1.4l0.3,1.2l0.3,1.4l0.1,1.4l0.2,1.2l0,1.4l-0.2,0l0,1.4l-0.1,1.3l-0.2,1.4l-0.3,1.2l-0.3,1.4l-0.3,1.2l-0.4,1.4l-0.6,1.2l-0.7,1.3l-0.6,1l-0.7,1.2l-0.8,1.1l-0.9,1.1l-0.9,1.1l-0.9,0.9l-1.1,0.9l-1.1,0.9l-1.1,0.8l-1.2,0.7l-1,0.8l-1.4,0.6l-1.2,0.6l-1.3,0.5l-1.3,0.4l-1.4,0.5l-1.4,0.3l-1.4,0.3l-1.3,0.2l-1.4,0l-1.4,0.1l0,-0.1l-1.4,0l-1.5,-0.2L416.9,240l-1.3,-0.2l-1.4,-0.3L412.8,239l-1.2,-0.4l-1.4,-0.5L409,237.5l-1.2,-0.6l-1.3,-0.8l-1.2,-0.7l-1,-0.8l-1.1,-0.9l-1.1,-0.9l-0.9,-0.9l-0.9,-1.1l-0.8,-1.1l-0.9,-1.1L398,227.4l-0.8,-1l-0.6,-1.3l-0.4,-1.3l-0.7,-1.3l-0.3,-1.2l-0.3,-1.4l-0.3,-1.2l-0.1,-1.4L394.3,216l0,-1.4Z" class="g6_30" />
<path d="M363.3,687.1l-44.8,0l0,-28.5l89.4,0l0,28.5l-44.6,0Z" class="g5_30" />
<path fill-rule="evenodd" d="M390.8,622.4l0,-1.3l0.2,-1.3l0.1,-1.3l0.3,-1.3l0.3,-1.3l0.3,-1.2l0.5,-1.2l0.4,-1.2l0.7,-1.2l0.6,-1.3l0.7,-1l0.8,-1.1l0.8,-1.1l0.9,-1l0.9,-1l0.9,-0.9l0.9,-0.9l1.1,-0.8l1.2,-0.7l1.1,-0.8l1.2,-0.6l1.2,-0.6l1.3,-0.6l1.2,-0.5l1.2,-0.4l1.4,-0.3l1.3,-0.4l1.4,-0.3l1.2,-0.1l1.4,-0.2l1.4,0l1.4,0l1.5,0.2l1.4,0.1l1.3,0.3l1.4,0.4l1.4,0.3l1.2,0.4l1.4,0.6l1.2,0.6l1.2,0.7l1.3,0.6l1.2,0.7l1.1,0.9l1,1l1.1,0.9l0.9,0.9l0.9,1.1l0.8,1l0.9,1.1l0.6,1.1l0.8,1.2l0.6,1.2l0.4,1.2l0.7,1.4l0.3,1.2L444,617l0.3,1.2l0.1,1.4l0.2,1.4l0,1.4l0,1.3l-0.2,1.3l-0.1,1.3l-0.3,1.4l-0.3,1.2l-0.5,1.4l-0.5,1.2l-0.4,1.2l-0.6,1.3l-0.8,1.2l-0.7,1.2l-0.8,1.1l-0.8,1.1l-0.9,1l-1.1,0.9l-0.9,1l-1,0.9l-1.3,0.7l-1,0.8l-1.3,0.8l-1.2,0.6l-1.2,0.6l-1.4,0.4l-1.2,0.5l-1.4,0.5l-1.4,0.3l-1.3,0.3l-1.4,0.1l-1.5,0l-1.4,0.2l-1.4,0L414.9,648l-1.3,-0.1l-1.4,-0.3l-1.4,-0.3L409.4,647l-1.3,-0.5l-1.3,-0.6l-1.3,-0.6l-1.2,-0.6l-1.1,-0.6L402,643.3l-1.1,-0.9l-1.1,-0.9l-1,-1l-1,-0.9l-0.9,-1L396,637.5l-0.8,-1.1l-0.7,-1.1l-0.6,-1.2l-0.7,-1.2l-0.6,-1.2l-0.4,-1.4l-0.5,-1.2l-0.3,-1.4l-0.3,-1.2L391,625.1l0,-1.4l-0.2,-1.3Z" class="g6_30" />
</svg>