<?xml version="1.0" encoding="UTF-8" standalone="no"?>
<!DOCTYPE svg PUBLIC "-//W3C//DTD SVG 1.1//EN"
"http://www.w3.org/Graphics/SVG/1.1/DTD/svg11.dtd">
<svg viewBox="0 0 909 1286" version="1.1" xmlns="http://www.w3.org/2000/svg" xmlns:xlink="http://www.w3.org/1999/xlink">
<defs>
<style type="text/css"><![CDATA[
.g1_42{
fill: none;
stroke: #000066;
stroke-width: 4.5833335;
stroke-linecap: butt;
stroke-linejoin: round;
}
.g2_42{
fill: none;
stroke: #000000;
stroke-width: 1.1458334;
stroke-linecap: butt;
stroke-linejoin: round;
}
.g3_42{
fill: #FFFFFF;
}
.g4_42{
}
.g5_42{
fill: none;
stroke: #FF0000;
stroke-width: 3.0555556;
stroke-linecap: butt;
stroke-linejoin: round;
}
.g6_42{
fill: #376092;
}
]]></style>
</defs>
<path d="M78.1,99.1l794,0.1" class="g1_42" />
<path d="M96.6,1224.5l772.1,0.1" class="g2_42" />
<path fill-rule="evenodd" d="M112.3,129.8l689.5,0l0,0.3l-689.5,0l0,-0.3Z" class="g3_42" />
<path fill-rule="evenodd" d="M112.3,496.5l689.5,0l0,0.4l-689.5,0l0,-0.4Z" class="g3_42" />
<path fill-rule="evenodd" d="M112.3,130.1l0.5,0l0,366.4l-0.5,0l0,-366.4Z" class="g3_42" />
<path fill-rule="evenodd" d="M801.3,130.1l0.5,0l0,366.4l-0.5,0l0,-366.4Z" class="g3_42" />
<image preserveAspectRatio="none" x="113" y="130" width="688" height="366" xlink:href="img/1.png" />
<path fill-rule="evenodd" d="M112.6,496.6l-0.3,0.3l0,-367.1l0.3,0.3l0.2,0.2l0,366.2l-0.2,0.1Z" class="g4_42" />
<path fill-rule="evenodd" d="M801.5,496.6l-0.2,-0.1l0,-366.2l0.2,-0.2l0.3,-0.3l0,367.1l-0.3,-0.3Z" class="g4_42" />
<path fill-rule="evenodd" d="M801.5,130.1l-0.2,0.2l-688.5,0l-0.2,-0.2l-0.3,-0.3l689.5,0l-0.3,0.3Z" class="g4_42" />
<path fill-rule="evenodd" d="M801.5,496.6l0.3,0.3l-689.5,0l0.3,-0.3l0.2,-0.1l688.5,0l0.2,0.1Z" class="g4_42" />
<path fill-rule="evenodd" d="M112.3,774.1l693,0l0,0.3l-693,0l0,-0.3Z" class="g3_42" />
<path fill-rule="evenodd" d="M112.3,1103.6l693,0l0,0.5l-693,0l0,-0.5Z" class="g3_42" />
<path fill-rule="evenodd" d="M112.3,774.4l0.5,0l0,329.2l-0.5,0l0,-329.2Z" class="g3_42" />
<path fill-rule="evenodd" d="M804.8,774.4l0.5,0l0,329.2l-0.5,0l0,-329.2Z" class="g3_42" />
<image preserveAspectRatio="none" x="113" y="774" width="692" height="329" xlink:href="img/2.png" />
<path fill-rule="evenodd" d="M112.6,1103.8l-0.3,0.3l0,-330l0.3,0.3l0.2,0.1l0,329.1l-0.2,0.2Z" class="g4_42" />
<path fill-rule="evenodd" d="M805,1103.8l-0.2,-0.2l0,-329.1l0.2,-0.1l0.3,-0.3l0,330l-0.3,-0.3Z" class="g4_42" />
<path fill-rule="evenodd" d="M805,774.4l-0.2,0.1l-692,0l-0.2,-0.1l-0.3,-0.3l693,0l-0.3,0.3Z" class="g4_42" />
<path fill-rule="evenodd" d="M805,1103.8l0.3,0.3l-693,0l0.3,-0.3l0.2,-0.2l692,0l0.2,0.2Z" class="g4_42" />
<path d="M156.4,991.3l-29.1,0l0,-14.8l58.3,0l0,14.8l-29.2,0Z" class="g5_42" />
<path fill-rule="evenodd" d="M688.7,958.6l0,-1.4l0.2,-1.2l0.1,-1.4l0.3,-1.2l0.3,-1.3l0.3,-1.3l0.5,-1.2l0.5,-1.2l0.6,-1.2l0.6,-1.1l0.7,-1.2l0.8,-1.1l0.8,-1.1l0.9,-0.9l0.9,-1.1l0.9,-0.9l0.9,-0.7l1.1,-1l1.2,-0.7l1.1,-0.8l1.2,-0.6l1.2,-0.6l1.3,-0.6l1.2,-0.5l1.2,-0.3l1.4,-0.4l1.4,-0.3l1.3,-0.2l1.3,-0.1l1.3,-0.2l1.4,0l1.4,0l1.5,0.2l1.4,0.1l1.4,0.2l1.3,0.3L724,934l1.2,0.5l1.4,0.4l1.2,0.7l1.3,0.6l1.2,0.7l1.2,0.8l1.1,0.8l1,0.9l1.1,0.9l0.9,0.9l0.9,1.1l0.8,1l0.9,1.1l0.6,1.2l0.8,1.3l0.6,1.2l0.5,1.2l0.6,1.2l0.3,1.4l0.3,1.2l0.3,1.4l0.1,1.4l0.2,1.2l0,1.4l0,1.3l-0.2,1.4l-0.1,1.4l-0.3,1.2l-0.3,1.4l-0.5,1.2l-0.4,1.4l-0.5,1.2l-0.6,1.2l-0.8,1.3l-0.7,1l-0.8,1.1l-0.8,1.1l-0.9,1l-1,1.1l-1,0.9l-1,0.8l-1.3,0.9l-1,0.8l-1.2,0.6l-1.3,0.7l-1.2,0.5l-1.4,0.6l-1.2,0.5l-1.4,0.3l-1.3,0.3l-1.4,0.3l-1.4,0.1l-1.5,0.2l-1.4,0l-1.4,0l-1.3,-0.2L711.5,984l-1.4,-0.2l-1.4,-0.3l-1.3,-0.4L706,982.6l-1.2,-0.5l-1.4,-0.6l-1.2,-0.6l-1.1,-0.7l-1.2,-0.8l-1.1,-0.8l-1.1,-0.9l-1,-0.9l-1,-0.9l-0.9,-1.1l-0.9,-1.1l-0.7,-1l-0.8,-1.2l-0.6,-1.3L691.2,969l-0.6,-1.2l-0.5,-1.2l-0.5,-1.4L689.3,964L689,962.6l-0.1,-1.4l0,-1.2l-0.2,-1.4Z" class="g6_42" />
<path d="M641.7,1093.2l-118,0l0,-83.6l235.9,0l0,83.6l-117.9,0Z" class="g5_42" />
<path d="M425.2,970.5l-56.2,0l0,-19.4l112.3,0l0,19.4l-56.1,0Z" class="g5_42" />
<path fill-rule="evenodd" d="M185.6,959.7l0,-1.2l0.2,-1.4l0.1,-1.2l0.3,-1.4l0.3,-1.2l0.3,-1.2l0.5,-1.3l0.5,-1.2l0.6,-1.2l0.6,-1.2l0.7,-1.1l0.8,-1.1l0.8,-1l0.9,-1.1l0.9,-0.9l0.9,-0.9l0.9,-1l1.1,-0.7l1.2,-0.8l1.1,-0.8l1.2,-0.6l1.2,-0.6L202,936l1.2,-0.4l1.2,-0.5l1.4,-0.3l1.4,-0.3l1.3,-0.3l1.3,-0.2l1.3,-0.1l1.4,0l1.4,0l1.5,0.1l1.4,0.2l1.4,0.3l1.3,0.3l1.4,0.3l1.2,0.5l1.4,0.6l1.2,0.6l1.3,0.6l1.2,0.6l1.2,0.8l1.1,0.9l1,0.9l1.1,0.9l0.9,0.9l0.9,1.1l0.8,1.1l0.9,1l0.6,1.1l0.8,1.2l0.6,1.2l0.5,1.3l0.6,1.3l0.3,1.3l0.3,1.3l0.3,1.3l0.2,1.3l0.1,1.4l0,1.4l0,1.4l-0.1,1.2l-0.2,1.4l-0.3,1.3l-0.3,1.3l-0.5,1.3l-0.4,1.3l-0.5,1.2l-0.6,1.2l-0.8,1.2l-0.7,1.2l-0.8,1.1l-0.8,1.1l-0.9,1.1l-1,0.9l-1,0.9l-1,0.9l-1.3,0.8l-1,0.7L226,982l-1.3,0.6l-1.2,0.6l-1.4,0.5l-1.2,0.4l-1.4,0.5l-1.3,0.3l-1.4,0.3l-1.4,0.2l-1.5,0l-1.4,0.1l-1.4,0l-1.3,-0.1l-1.4,-0.2L207,984.9l-1.4,-0.3l-1.3,-0.3l-1.4,-0.5l-1.2,-0.6l-1.4,-0.6L199.1,982L198,981.4l-1.2,-0.8l-1.1,-0.9l-1.1,-0.9l-1,-0.9L192.7,977l-1,-1.1l-0.9,-1.1l-0.7,-1.1l-0.8,-1l-0.6,-1.2l-0.6,-1.3L187.5,969L187,967.6l-0.5,-1.2L186.2,965l-0.3,-1.2l-0.1,-1.4l0,-1.3l-0.2,-1.4Z" class="g6_42" />
<path d="M346,867.4l-28.7,0l0,-20.6l57.3,0l0,20.6l-28.6,0Z" class="g5_42" />
<path fill-rule="evenodd" d="M425,863.4l0,-1.3l0.2,-1.3l0.1,-1.3l0.3,-1.4l0.3,-1.2l0.5,-1.4l0.5,-1.2l0.4,-1.2l0.6,-1.3l0.8,-1.2l0.8,-1.1l0.7,-1.2l0.8,-1.1l0.9,-0.9l1.1,-1l0.9,-1l1.1,-0.9l1.2,-0.7l1.1,-0.8l1.2,-0.8l1.2,-0.6l1.4,-0.6l1.2,-0.4l1.4,-0.5l1.3,-0.3l1.4,-0.3l1.4,-0.3l1.4,-0.2l1.3,-0.1l1.4,0l1.4,0l1.5,0.1l1.4,0.2l1.4,0.1l1.3,0.3l1.4,0.5l1.2,0.5l1.4,0.4l1.2,0.6l1.3,0.6l1.2,0.8l1.2,0.8l1.1,0.7l1,0.9l1.1,1l0.9,1l0.9,0.9l1,1.1l0.7,1.1l0.8,1.2l0.6,1.2l0.6,1.3l0.6,1.2l0.5,1.2l0.3,1.4l0.3,1.2l0.3,1.4l0.2,1.3l0.1,1.3l0,1.3l0,1.4l-0.1,1.4l-0.2,1.4l-0.3,1.2l-0.3,1.4l-0.3,1.2l-0.5,1.4l-0.6,1.2l-0.6,1.2l-0.6,1.1l-0.8,1.2l-0.7,1.1l-1,1l-0.9,1.1l-0.9,0.9l-1.1,0.9l-1,1l-1.1,0.7l-1.2,0.8l-1.2,0.7l-1.3,0.7l-1.2,0.6l-1.4,0.4l-1.2,0.5l-1.4,0.4l-1.3,0.3l-1.4,0.4l-1.4,0.1l-1.5,0l-1.4,0.2l0,-0.2l-1.4,0L449.2,889l-1.4,-0.2l-1.4,-0.2L445,888.3l-1.3,-0.4l-1.4,-0.5L441.1,887l-1.4,-0.6l-1.2,-0.7L437.3,885l-1.1,-0.8L435,883.5l-1.1,-1L433,881.6l-1.1,-0.9L431,879.6l-0.8,-1l-0.9,-1.1l-0.6,-1.2l-0.8,-1.1L427.3,874l-0.4,-1.4l-0.5,-1.2l-0.5,-1.2l-0.3,-1.4l-0.3,-1.2l-0.1,-1.4L425,864.8l0,-1.4Z" class="g6_42" />
</svg>