<?xml version="1.0" encoding="UTF-8" standalone="no"?>
<!DOCTYPE svg PUBLIC "-//W3C//DTD SVG 1.1//EN"
"http://www.w3.org/Graphics/SVG/1.1/DTD/svg11.dtd">
<svg viewBox="0 0 935 1210" version="1.1" xmlns="http://www.w3.org/2000/svg" xmlns:xlink="http://www.w3.org/1999/xlink">
<defs>
<style type="text/css"><![CDATA[
.g1_180{
fill: none;
stroke: #000066;
stroke-width: 4.5833335;
stroke-linecap: butt;
stroke-linejoin: round;
}
.g2_180{
fill: none;
stroke: #000000;
stroke-width: 1.1458334;
stroke-linecap: butt;
stroke-linejoin: round;
}
.g3_180{
fill: none;
stroke: #203864;
stroke-width: 1.1458334;
stroke-linecap: butt;
stroke-linejoin: miter;
stroke-miterlimit: 8;
}
.g4_180{
fill: #17375E;
}
.g5_180{
fill: none;
stroke: #10253F;
stroke-width: 1.1458334;
stroke-linecap: butt;
stroke-linejoin: round;
stroke-miterlimit: 8;
}
.g6_180{
fill: none;
stroke: #FF0000;
stroke-width: 2.6736124;
stroke-linecap: butt;
stroke-linejoin: miter;
stroke-miterlimit: 8;
}
]]></style>
</defs>
<path d="M100.5,103.5l794.1,0" class="g1_180" />
<path d="M84.6,1142.7l772.2,0" class="g2_180" />
<image preserveAspectRatio="none" x="112" y="112" width="343" height="602" xlink:href="img/1.png" />
<path d="M111.7,714.4l343.8,0l0,-602.7l-343.8,0l0,602.7Z" class="g3_180" />
<path fill-rule="evenodd" d="M360.9,388.8c0,-14.3,12.4,-25.8,27.5,-25.8c15.2,0,27.5,11.5,27.5,25.8c0,14.2,-12.3,25.8,-27.5,25.8c-15.1,0,-27.5,-11.6,-27.5,-25.8Z" class="g4_180" />
<path d="M360.9,388.8c0,-14.3,12.4,-25.8,27.5,-25.8c15.2,0,27.5,11.5,27.5,25.8c0,14.2,-12.3,25.8,-27.5,25.8c-15.1,0,-27.5,-11.6,-27.5,-25.8Z" class="g5_180" />
<image preserveAspectRatio="none" x="370" y="377" width="37" height="24" xlink:href="img/2.png" />
<path d="M127.2,410l233.7,0l0,-103.1l-233.7,0l0,103.1Z" class="g6_180" />
<path d="M174.2,677L330,677l0,-32.1l-155.8,0l0,32.1Z" class="g6_180" />
<path fill-rule="evenodd" d="M339.2,651.2c0,-14.3,12.3,-25.8,27.5,-25.8c15.2,0,27.5,11.5,27.5,25.8c0,14.2,-12.3,25.8,-27.5,25.8c-15.2,0,-27.5,-11.6,-27.5,-25.8Z" class="g4_180" />
<path d="M339.2,651.2c0,-14.3,12.3,-25.8,27.5,-25.8c15.2,0,27.5,11.5,27.5,25.8c0,14.2,-12.3,25.8,-27.5,25.8c-15.2,0,-27.5,-11.6,-27.5,-25.8Z" class="g5_180" />
<image preserveAspectRatio="none" x="348" y="639" width="38" height="24" xlink:href="img/3.png" />
</svg>