<?xml version="1.0" encoding="UTF-8" standalone="no"?>
<!DOCTYPE svg PUBLIC "-//W3C//DTD SVG 1.1//EN"
"http://www.w3.org/Graphics/SVG/1.1/DTD/svg11.dtd">
<svg viewBox="0 0 909 1286" version="1.1" xmlns="http://www.w3.org/2000/svg" xmlns:xlink="http://www.w3.org/1999/xlink">
<defs>
<style type="text/css"><![CDATA[
.g1_36{
fill: none;
stroke: #000066;
stroke-width: 4.5833335;
stroke-linecap: butt;
stroke-linejoin: round;
}
.g2_36{
fill: none;
stroke: #000000;
stroke-width: 1.1458334;
stroke-linecap: butt;
stroke-linejoin: round;
}
.g3_36{
fill: #FFFFFF;
}
.g4_36{
}
.g5_36{
fill: none;
stroke: #FF0000;
stroke-width: 3.0555556;
stroke-linecap: butt;
stroke-linejoin: round;
}
.g6_36{
fill: #376092;
}
]]></style>
</defs>
<path d="M78.1,99.1l794,0.1" class="g1_36" />
<path d="M96.6,1224.5l772.1,0.1" class="g2_36" />
<path fill-rule="evenodd" d="M112.3,97L801,97l0,0.4l-688.7,0l0,-0.4Z" class="g3_36" />
<path fill-rule="evenodd" d="M112.3,448.3l688.7,0l0,0.5l-688.7,0l0,-0.5Z" class="g3_36" />
<path fill-rule="evenodd" d="M112.3,97.3l0.5,0l0,351l-0.5,0l0,-351Z" class="g3_36" />
<path fill-rule="evenodd" d="M800.6,97.3l0.4,0l0,351l-0.4,0l0,-351Z" class="g3_36" />
<image preserveAspectRatio="none" x="113" y="97" width="688" height="351" xlink:href="img/1.png" />
<path fill-rule="evenodd" d="M112.6,448.5l-0.3,0.3L112.3,97l0.3,0.3l0.2,0.1l0,350.9l-0.2,0.2Z" class="g4_36" />
<path fill-rule="evenodd" d="M800.7,448.5l-0.1,-0.2l0,-350.9l0.1,-0.1L801,97l0,351.8l-0.3,-0.3Z" class="g4_36" />
<path fill-rule="evenodd" d="M800.7,97.3l-0.1,0.1l-687.8,0l-0.2,-0.1L112.3,97L801,97l-0.3,0.3Z" class="g4_36" />
<path fill-rule="evenodd" d="M800.7,448.5l0.3,0.3l-688.7,0l0.3,-0.3l0.2,-0.2l687.8,0l0.1,0.2Z" class="g4_36" />
<path fill-rule="evenodd" d="M112.3,511.7l689.5,0l0,0.4l-689.5,0l0,-0.4Z" class="g3_36" />
<path fill-rule="evenodd" d="M112.3,835.3l689.5,0l0,0.5l-689.5,0l0,-0.5Z" class="g3_36" />
<path fill-rule="evenodd" d="M112.3,512.1l0.5,0l0,323.2l-0.5,0l0,-323.2Z" class="g3_36" />
<path fill-rule="evenodd" d="M801.3,512.1l0.5,0l0,323.2l-0.5,0l0,-323.2Z" class="g3_36" />
<image preserveAspectRatio="none" x="113" y="512" width="688" height="323" xlink:href="img/2.png" />
<path fill-rule="evenodd" d="M112.6,835.5l-0.3,0.3l0,-324.1l0.3,0.4l0.2,0.1l0,323.1l-0.2,0.2Z" class="g4_36" />
<path fill-rule="evenodd" d="M801.5,835.5l-0.2,-0.2l0,-323.1l0.2,-0.1l0.3,-0.4l0,324.1l-0.3,-0.3Z" class="g4_36" />
<path fill-rule="evenodd" d="M801.5,512.1l-0.2,0.1l-688.5,0l-0.2,-0.1l-0.3,-0.4l689.5,0l-0.3,0.4Z" class="g4_36" />
<path fill-rule="evenodd" d="M801.5,835.5l0.3,0.3l-689.5,0l0.3,-0.3l0.2,-0.2l688.5,0l0.2,0.2Z" class="g4_36" />
<path fill-rule="evenodd" d="M112.3,935.6l456,0l0,0.3l-456,0l0,-0.3Z" class="g3_36" />
<path fill-rule="evenodd" d="M112.3,1158.5l456,0l0,0.4l-456,0l0,-0.4Z" class="g3_36" />
<path fill-rule="evenodd" d="M112.3,935.9l0.5,0l0,222.7l-0.5,0l0,-222.7Z" class="g3_36" />
<path fill-rule="evenodd" d="M567.9,935.9l0.4,0l0,222.7l-0.4,0l0,-222.7Z" class="g3_36" />
<image preserveAspectRatio="none" x="113" y="936" width="455" height="222" xlink:href="img/3.png" />
<path fill-rule="evenodd" d="M112.6,1158.6l-0.3,0.3l0,-223.3l0.3,0.3l0.2,0.1l0,222.5l-0.2,0.1Z" class="g4_36" />
<path fill-rule="evenodd" d="M568,1158.6l-0.1,-0.1l0,-222.5l0.1,-0.1l0.3,-0.3l0,223.3l-0.3,-0.3Z" class="g4_36" />
<path fill-rule="evenodd" d="M568,935.9l-0.1,0.1l-455.1,0l-0.2,-0.1l-0.3,-0.3l456,0l-0.3,0.3Z" class="g4_36" />
<path fill-rule="evenodd" d="M568,1158.6l0.3,0.3l-456,0l0.3,-0.3l0.2,-0.1l455.1,0l0.1,0.1Z" class="g4_36" />
<path d="M426.3,435.7l-295.7,0l0,-116.9l591.3,0l0,116.9l-295.6,0Z" class="g5_36" />
<path fill-rule="evenodd" d="M683.1,286.1l0,-1.2l0.1,-1.4l0.2,-1.2l0.1,-1.4l0.3,-1.2l0.5,-1.2l0.5,-1.3l0.4,-1.2l0.6,-1.2l0.6,-1.2l0.6,-1.1l0.8,-1.1l0.8,-1l0.9,-1.1l0.9,-0.9l0.9,-0.9l1.1,-1l1.1,-0.7l1,-0.8l1.1,-0.8l1.2,-0.6L698,263l1.3,-0.6l1.3,-0.4l1.3,-0.5l1.3,-0.3l1.3,-0.3l1.3,-0.3l1.4,-0.2l1.4,-0.1l1.4,0l1.3,0l1.4,0.1l1.4,0.2l1.4,0.3l1.3,0.3l1.4,0.3l1.4,0.5l1.2,0.6l1.4,0.6l1.2,0.6l1.1,0.6l1.2,0.8l1.1,0.9l1,0.9l1.1,0.9l0.9,0.9l0.9,1.1l1,1.1l0.7,1l0.8,1.1l0.6,1.2l0.6,1.3l0.6,1.2l0.5,1.3l0.4,1.3l0.3,1.3l0.3,1.3l0.2,1.3l0,1.4l0.1,1.4l-0.1,0l0,1.4l-0.2,1.2l-0.1,1.4l-0.3,1.3l-0.3,1.3l-0.3,1.3l-0.5,1.3l-0.6,1.2l-0.6,1.2l-0.6,1.2l-0.8,1.2l-0.7,1.1l-1,1.1l-0.9,1.1l-0.9,0.9l-1.1,0.9l-1,0.9l-1.1,0.8l-1.2,0.7l-1.1,0.8L722,309l-1.2,0.6l-1.2,0.5l-1.4,0.4l-1.4,0.5l-1.3,0.3l-1.4,0.3l-1.4,0.2l-1.4,0l-1.3,0.1l-1.4,0l-1.5,-0.1l-1.4,-0.2l-1.4,-0.3L702.9,311l-1.3,-0.3l-1.3,-0.5L699,309.6L697.7,309l-1.2,-0.6l-1.2,-0.6L694.1,307L693,306.1l-1.1,-0.9l-1,-0.9l-1,-0.9L689,302.3l-0.7,-1.1l-1,-1.1l-0.6,-1L686,297.9l-0.6,-1.3l-0.5,-1.2L684.3,294L684,292.8l-0.3,-1.4l-0.3,-1.2l-0.2,-1.4l-0.1,-1.3l0,-1.4Z" class="g6_36" />
<path d="M220.6,114.7l-108.3,0l0,-18.2l216.5,0l0,18.2l-108.2,0Z" class="g5_36" />
<path d="M368.3,243.2l-144.9,0l0,-101.9l289.9,0l0,101.9l-145,0Z" class="g5_36" />
<path d="M262.9,640.7l-142.7,0l0,-81.3l285.4,0l0,81.3l-142.7,0Z" class="g5_36" />
<path fill-rule="evenodd" d="M461.8,626.5l0,-1.4l0.2,-1.4l0.2,-1.3l0.3,-1.3l0.3,-1.3l0.4,-1.3l0.5,-1.3l0.4,-1.3l0.7,-1.2l0.7,-1.2l0.8,-1.1l0.7,-1l0.8,-1.1l0.9,-1.1l1.1,-0.9l0.9,-0.9l1.1,-0.9l1.2,-0.9l1.1,-0.8l1.2,-0.6l1.2,-0.6l1.4,-0.6l1.2,-0.7l1.4,-0.4l1.4,-0.3l1.3,-0.3l1.4,-0.3l1.4,-0.2l1.4,-0.1l1.3,0l1.4,0l1.5,0.1L493,601l1.4,0.3l1.4,0.3l1.3,0.3l1.3,0.4l1.3,0.7l1.3,0.6l1.2,0.6l1.2,0.6l1.2,0.8l1.1,0.9l1.1,0.9l1,0.9l1,0.9l0.9,1.1l0.9,1.1l0.7,1l0.8,1.2l0.6,1.1l0.6,1.2l0.6,1.3l0.5,1.3l0.3,1.3l0.3,1.3l0.3,1.3l0.2,1.3l0.1,1.4l0,1.4l0,1.4l-0.1,1.2l-0.2,1.4l-0.3,1.3l-0.3,1.3l-0.4,1.3l-0.5,1.2l-0.5,1.3l-0.6,1.2l-0.7,1.2l-0.8,1.1l-0.8,1.2l-0.7,1.1l-0.9,0.9l-1.1,1.1l-0.9,0.9l-1.1,0.9l-1.2,0.8l-1.1,0.7l-1.2,0.8l-1.2,0.6l-1.3,0.6l-1.3,0.5l-1.3,0.4l-1.3,0.3l-1.4,0.3l-1.4,0.3l-1.4,0.2l-1.5,0.1l-1.4,0l-1.3,0L486,652l-1.4,-0.2l-1.4,-0.3l-1.3,-0.3l-1.4,-0.3l-1.4,-0.4l-1.2,-0.6l-1.4,-0.7l-1.2,-0.6L474.2,648L473,647.3l-1.1,-1l-1,-0.7l-1.1,-0.9l-0.9,-1.1L468,642.7l-1,-1.1l-0.7,-1.2l-0.8,-1.1l-0.6,-1.2l-0.6,-1.2l-0.6,-1.3l-0.5,-1.2l-0.4,-1.3l-0.3,-1.3l-0.3,-1.3L462,629.1l0,-1.2l-0.2,-1.4Z" class="g6_36" />
<path d="M134,835.3l-20.6,0l0,-23.8l41.2,0l0,23.8l-20.6,0Z" class="g5_36" />
<path fill-rule="evenodd" d="M165,809.8l0,-1.4l0.2,-1.2l0.1,-1.4l0.3,-1.3l0.3,-1.3l0.5,-1.3l0.4,-1.3l0.5,-1.2l0.6,-1.2l0.8,-1.2l0.7,-1.2l0.8,-1.1l0.8,-1.1l0.9,-0.9l1,-1.1l1,-0.9l1,-0.9l1.3,-0.8l1,-0.7l1.2,-0.8l1.3,-0.6l1.3,-0.6l1.3,-0.5l1.3,-0.4l1.4,-0.5l1.4,-0.3l1.4,-0.1l1.3,-0.2l1.4,-0.2l1.4,0l1.4,0l1.5,0.2l1.4,0.2l1.3,0.1l1.4,0.3l1.4,0.5l1.2,0.4l1.4,0.5l1.2,0.6l1.2,0.6l1.3,0.8l1.2,0.7l1,0.8l1.1,0.9l1.1,0.9l0.9,1.1l0.9,0.9l0.9,1.1l0.8,1.1l0.8,1.2l0.6,1.2l0.6,1.2l0.6,1.2l0.5,1.3l0.3,1.3l0.3,1.3l0.3,1.3l0.1,1.4l0.2,1.2l0,1.4l0,1.4l-0.2,1.4l-0.1,1.3l-0.3,1.3l-0.3,1.3l-0.5,1.3l-0.5,1.3l-0.4,1.3l-0.6,1.2l-0.8,1l-0.8,1.3l-0.7,1l-0.8,1.1l-0.9,1.1l-1.1,0.9l-0.9,0.9l-1.1,0.9l-1.2,0.8l-1,0.8l-1.3,0.7l-1.2,0.6l-1.2,0.6l-1.4,0.5l-1.2,0.5l-1.4,0.4l-1.4,0.3l-1.3,0.3l-1.4,0.2l-1.5,0l-1.4,0.1l0,-0.1l-1.4,0l-1.4,-0.2l-1.3,-0.1L186.4,835L185,834.7l-1.4,-0.4l-1.3,-0.5L181,833.3l-1.3,-0.6l-1.3,-0.6l-1,-0.7l-1.2,-0.8l-1.1,-0.8L174,828.9L172.9,828L172,827.1L171.1,826l-0.9,-1.1l-0.8,-1l-0.7,-1.3l-0.6,-1l-0.7,-1.2L166.8,819l-0.4,-1.2l-0.5,-1.3l-0.3,-1.3l-0.3,-1.3l-0.1,-1.3l0,-1.4L165,809.8Z" class="g6_36" />
<path fill-rule="evenodd" d="M323.3,1065.9l0,-1.6l0.1,-1.3l0.2,-1.6l0.3,-1.3l0.4,-1.4l0.5,-1.4l0.5,-1.4l0.6,-1.3l0.7,-1.4l0.8,-1.2l0.9,-1.3l0.9,-1.2l1.1,-1.2l1.1,-1.1l1,-1l1.3,-1.1l1.3,-0.9l1.3,-0.9l1.3,-1l1.6,-0.7l1.3,-0.8l1.6,-0.7l1.5,-0.7l1.7,-0.4l1.5,-0.5l1.7,-0.4l1.7,-0.3l1.6,-0.3l1.7,-0.2l1.9,-0.2l1.6,0l1.7,0.2l1.9,0l1.6,0.3l1.9,0.2l1.6,0.4l1.7,0.3l1.7,0.6l1.5,0.5l1.7,0.8l1.5,0.6l1.6,0.7l1.4,0.9l1.5,1l1.2,0.9l1.4,1.1l1.2,1l1.1,1.2l1,1.1l1.1,1.2l0.9,1.4l0.8,1.2l0.8,1.4l0.7,1.4l0.6,1.4l0.5,1.5l0.4,1.4l0.3,1.5l0.2,1.5l0.2,1.4l0.1,1.5l-0.1,0l0,1.5l-0.2,1.6l-0.2,1.5l-0.4,1.4l-0.3,1.5l-0.6,1.4l-0.5,1.4l-0.7,1.3l-0.8,1.4l-0.8,1.4l-0.9,1.2l-1.1,1.2l-1,1.2l-1.1,1.3l-1.2,1l-1.4,1l-1.2,1l-1.5,0.9l-1.4,0.8l-1.6,0.8l-1.5,0.7l-1.7,0.6l-1.5,0.7l-1.7,0.4l-1.7,0.5l-1.6,0.4l-1.9,0.2l-1.6,0.3l-1.9,0l-1.7,0.1l-1.8,-0.1l-1.7,0l-1.8,-0.3l-1.7,-0.2l-1.7,-0.4l-1.6,-0.3l-1.7,-0.6l-1.7,-0.5l-1.5,-0.8l-1.7,-0.6l-1.4,-0.7l-1.5,-1l-1.4,-0.9l-1.4,-0.9l-1.2,-1.1l-1.2,-1l-1.2,-1.3l-1.1,-1l-0.9,-1.2l-0.9,-1.4l-1,-1.2l-0.7,-1.4l-0.6,-1.4l-0.6,-1.4l-0.7,-1.5l-0.3,-1.4l-0.3,-1.5l-0.3,-1.5l-0.1,-1.4l0,-1.5Z" class="g6_36" />
<path d="M228.6,1151.7l-107.1,0l0,-43.4l214.2,0l0,43.4l-107.1,0Z" class="g5_36" />
</svg>