<?xml version="1.0" encoding="UTF-8" standalone="no"?>
<!DOCTYPE svg PUBLIC "-//W3C//DTD SVG 1.1//EN"
"http://www.w3.org/Graphics/SVG/1.1/DTD/svg11.dtd">
<svg viewBox="0 0 935 1210" version="1.1" xmlns="http://www.w3.org/2000/svg" xmlns:xlink="http://www.w3.org/1999/xlink">
<defs>
<style type="text/css"><![CDATA[
.g1_149{
fill: none;
stroke: #000066;
stroke-width: 4.5833335;
stroke-linecap: butt;
stroke-linejoin: round;
}
.g2_149{
fill: none;
stroke: #000000;
stroke-width: 1.1458334;
stroke-linecap: butt;
stroke-linejoin: round;
}
.g3_149{
fill: none;
stroke: #203864;
stroke-width: 1.1458334;
stroke-linecap: butt;
stroke-linejoin: miter;
stroke-miterlimit: 8;
}
.g4_149{
fill: none;
stroke: #FF0000;
stroke-width: 2.6736124;
stroke-linecap: butt;
stroke-linejoin: miter;
stroke-miterlimit: 8;
}
.g5_149{
fill: #17375E;
}
.g6_149{
fill: none;
stroke: #10253F;
stroke-width: 1.1458334;
stroke-linecap: butt;
stroke-linejoin: round;
stroke-miterlimit: 8;
}
]]></style>
</defs>
<path d="M100.5,103.5l794.1,0" class="g1_149" />
<path d="M84.6,1142.7l772.2,0" class="g2_149" />
<image preserveAspectRatio="none" x="112" y="112" width="689" height="353" xlink:href="img/1.png" />
<path d="M111.7,465.8l689.8,0l0,-354.1l-689.8,0l0,354.1Z" class="g3_149" />
<image preserveAspectRatio="none" x="112" y="518" width="689" height="527" xlink:href="img/2.png" />
<path d="M111.7,1045.7l689.8,0l0,-528.3l-689.8,0l0,528.3Z" class="g3_149" />
<path d="M112.3,466l89.4,0l0,-24.1l-89.4,0l0,24.1Z" class="g4_149" />
<path fill-rule="evenodd" d="M223.4,450.5c0,-12.3,10.5,-22.3,23.5,-22.3c13,0,23.5,10,23.5,22.3c0,12.3,-10.5,22.3,-23.5,22.3c-13,0,-23.5,-10,-23.5,-22.3Z" class="g5_149" />
<path d="M223.4,450.5c0,-12.3,10.5,-22.3,23.5,-22.3c13,0,23.5,10,23.5,22.3c0,12.3,-10.5,22.3,-23.5,22.3c-13,0,-23.5,-10,-23.5,-22.3Z" class="g6_149" />
<image preserveAspectRatio="none" x="231" y="441" width="32" height="19" xlink:href="img/3.png" />
<path d="M695.5,545.3l55,0l0,-25.2l-55,0l0,25.2Z" class="g4_149" />
<path fill-rule="evenodd" d="M747.1,578c0,-12.3,10.5,-22.3,23.5,-22.3c13,0,23.5,10,23.5,22.3c0,12.3,-10.5,22.3,-23.5,22.3c-13,0,-23.5,-10,-23.5,-22.3Z" class="g5_149" />
<path d="M747.1,578c0,-12.3,10.5,-22.3,23.5,-22.3c13,0,23.5,10,23.5,22.3c0,12.3,-10.5,22.3,-23.5,22.3c-13,0,-23.5,-10,-23.5,-22.3Z" class="g6_149" />
<image preserveAspectRatio="none" x="755" y="568" width="31" height="20" xlink:href="img/4.png" />
<path d="M138.6,1028.9l634.8,0l0,-275l-634.8,0l0,275Z" class="g4_149" />
</svg>