<?xml version="1.0" encoding="UTF-8" standalone="no"?>
<!DOCTYPE svg PUBLIC "-//W3C//DTD SVG 1.1//EN"
"http://www.w3.org/Graphics/SVG/1.1/DTD/svg11.dtd">
<svg viewBox="0 0 935 1210" version="1.1" xmlns="http://www.w3.org/2000/svg" xmlns:xlink="http://www.w3.org/1999/xlink">
<defs>
<style type="text/css"><![CDATA[
.g1_182{
fill: none;
stroke: #000066;
stroke-width: 4.5833335;
stroke-linecap: butt;
stroke-linejoin: round;
}
.g2_182{
fill: none;
stroke: #000000;
stroke-width: 1.1458334;
stroke-linecap: butt;
stroke-linejoin: round;
}
.g3_182{
fill: none;
stroke: #203864;
stroke-width: 1.1458334;
stroke-linecap: butt;
stroke-linejoin: miter;
stroke-miterlimit: 8;
}
.g4_182{
fill: #17375E;
}
.g5_182{
fill: none;
stroke: #10253F;
stroke-width: 1.1458334;
stroke-linecap: butt;
stroke-linejoin: round;
stroke-miterlimit: 8;
}
.g6_182{
fill: none;
stroke: #FF0000;
stroke-width: 2.6736124;
stroke-linecap: butt;
stroke-linejoin: miter;
stroke-miterlimit: 8;
}
]]></style>
</defs>
<path d="M100.5,103.5l794.1,0" class="g1_182" />
<path d="M84.6,1142.7l772.2,0" class="g2_182" />
<image preserveAspectRatio="none" x="116" y="112" width="426" height="121" xlink:href="img/1.png" />
<path d="M115.5,233.2l427.4,0l0,-121.5l-427.4,0l0,121.5Z" class="g3_182" />
<image preserveAspectRatio="none" x="112" y="240" width="690" height="382" xlink:href="img/2.png" />
<path d="M111.7,622.5l690.7,0l0,-383.1l-690.7,0l0,383.1Z" class="g3_182" />
<image preserveAspectRatio="none" x="112" y="675" width="690" height="190" xlink:href="img/3.png" />
<path d="M111.7,865.2l690.7,0l0,-190.3l-690.7,0l0,190.3Z" class="g3_182" />
<path fill-rule="evenodd" d="M303.3,137.1c0,-14.3,12.4,-25.8,27.5,-25.8c15.2,0,27.5,11.5,27.5,25.8c0,14.2,-12.3,25.8,-27.5,25.8c-15.1,0,-27.5,-11.6,-27.5,-25.8Z" class="g4_182" />
<path d="M303.3,137.1c0,-14.3,12.4,-25.8,27.5,-25.8c15.2,0,27.5,11.5,27.5,25.8c0,14.2,-12.3,25.8,-27.5,25.8c-15.1,0,-27.5,-11.6,-27.5,-25.8Z" class="g5_182" />
<image preserveAspectRatio="none" x="312" y="125" width="38" height="24" xlink:href="img/4.png" />
<path d="M150.9,131.9l138.7,0l0,-19.5l-138.7,0l0,19.5Z" class="g6_182" />
<path fill-rule="evenodd" d="M524.8,720.9c0,-14.3,12.3,-25.8,27.5,-25.8c15.2,0,27.5,11.5,27.5,25.8c0,14.2,-12.3,25.8,-27.5,25.8c-15.2,0,-27.5,-11.6,-27.5,-25.8Z" class="g4_182" />
<path d="M524.8,720.9c0,-14.3,12.3,-25.8,27.5,-25.8c15.2,0,27.5,11.5,27.5,25.8c0,14.2,-12.3,25.8,-27.5,25.8c-15.2,0,-27.5,-11.6,-27.5,-25.8Z" class="g5_182" />
<image preserveAspectRatio="none" x="534" y="709" width="37" height="24" xlink:href="img/5.png" />
<path d="M127.2,855.5l678.3,0l0,-108.8l-678.3,0l0,108.8Z" class="g6_182" />
</svg>