<?xml version="1.0" encoding="UTF-8" standalone="no"?>
<!DOCTYPE svg PUBLIC "-//W3C//DTD SVG 1.1//EN"
"http://www.w3.org/Graphics/SVG/1.1/DTD/svg11.dtd">
<svg viewBox="0 0 935 1210" version="1.1" xmlns="http://www.w3.org/2000/svg" xmlns:xlink="http://www.w3.org/1999/xlink">
<defs>
<clipPath id="c0_202"><path d="M102.2,874.8l0,-20.5l356.8,0l0,20.5Z" /></clipPath>
<clipPath id="c1_202"><path d="M459,874.8l0,-20.5l356.8,0l0,20.5Z" /></clipPath>
<clipPath id="c2_202"><path d="M102.2,898.5l0,-23l356.4,0l0,23Z" /></clipPath>
<clipPath id="c3_202"><path d="M459.4,898.5l0,-23l356.4,0l0,23Z" /></clipPath>
<style type="text/css"><![CDATA[
.g1_202{
fill: none;
stroke: #000066;
stroke-width: 4.5833335;
stroke-linecap: butt;
stroke-linejoin: round;
}
.g2_202{
fill: none;
stroke: #000000;
stroke-width: 1.1458334;
stroke-linecap: butt;
stroke-linejoin: round;
}
.g3_202{
}
.g4_202{
fill: #CCCCCC;
}
.g5_202{
fill: #656565;
}
.g6_202{
fill: none;
stroke: #FF0000;
stroke-width: 2.2916667;
stroke-linecap: butt;
stroke-linejoin: miter;
stroke-miterlimit: 8;
}
.g7_202{
fill: #1F4E79;
}
]]></style>
</defs>
<path d="M100.5,103.5l794.1,0" class="g1_202" />
<path d="M84.6,1142.7l772.2,0" class="g2_202" />
<path fill-rule="evenodd" d="M102.2,874.8l356.8,0l0,-20.5l-356.8,0l0,20.5Z" class="g3_202" />
<g clip-path="url(#c0_202)">
<path fill-rule="evenodd" d="M110,874.8l340.7,0l0,-20.5l-340.7,0l0,20.5Z" class="g3_202" />
</g>
<path fill-rule="evenodd" d="M459,874.8l356.8,0l0,-20.5l-356.8,0l0,20.5Z" class="g3_202" />
<g clip-path="url(#c1_202)">
<path fill-rule="evenodd" d="M467.2,874.8l340.7,0l0,-20.5l-340.7,0l0,20.5Z" class="g3_202" />
</g>
<path fill-rule="evenodd" d="M101.4,854.1l0.8,0l0,-0.8l-0.8,0l0,0.8Z" class="g3_202" />
<path fill-rule="evenodd" d="M101.4,854.1l0.8,0l0,-0.8l-0.8,0l0,0.8Z" class="g3_202" />
<path fill-rule="evenodd" d="M102.2,854.1l356.8,0l0,-0.8l-356.8,0l0,0.8Z" class="g3_202" />
<path fill-rule="evenodd" d="M459,854.1l0.7,0l0,-0.8l-0.7,0l0,0.8Z" class="g3_202" />
<path fill-rule="evenodd" d="M459.7,854.1l356.1,0l0,-0.8l-356.1,0l0,0.8Z" class="g3_202" />
<path fill-rule="evenodd" d="M815.8,854.1l0.8,0l0,-0.8l-0.8,0l0,0.8Z" class="g3_202" />
<path fill-rule="evenodd" d="M815.8,854.1l0.8,0l0,-0.8l-0.8,0l0,0.8Z" class="g3_202" />
<path fill-rule="evenodd" d="M101.4,874.8l0.8,0l0,-20.7l-0.8,0l0,20.7Z" class="g3_202" />
<path fill-rule="evenodd" d="M815.8,874.8l0.8,0l0,-20.7l-0.8,0l0,20.7Z" class="g3_202" />
<path fill-rule="evenodd" d="M102.2,898.5l356.4,0l0,-23l-356.4,0l0,23Z" class="g4_202" />
<g clip-path="url(#c2_202)">
<path fill-rule="evenodd" d="M110,893.1l340.7,0l0,-17.6l-340.7,0l0,17.6Z" class="g4_202" />
</g>
<path fill-rule="evenodd" d="M459.4,898.5l356.4,0l0,-23l-356.4,0l0,23Z" class="g4_202" />
<g clip-path="url(#c3_202)">
<path fill-rule="evenodd" d="M467.2,893.1l340.7,0l0,-17.6l-340.7,0l0,17.6Z" class="g4_202" />
</g>
<path fill-rule="evenodd" d="M101.4,875.5l0.8,0l0,-0.7l-0.8,0l0,0.7Z" class="g3_202" />
<path fill-rule="evenodd" d="M102.2,875.5l356.4,0l0,-0.7l-356.4,0l0,0.7Z" class="g3_202" />
<path fill-rule="evenodd" d="M458.6,875.5l0.8,0l0,-0.7l-0.8,0l0,0.7Z" class="g3_202" />
<path fill-rule="evenodd" d="M459.4,875.5l0.7,0l0,-0.7l-0.7,0l0,0.7Z" class="g3_202" />
<path fill-rule="evenodd" d="M460.1,875.5l355.7,0l0,-0.7l-355.7,0l0,0.7Z" class="g3_202" />
<path fill-rule="evenodd" d="M815.8,875.5l0.8,0l0,-0.7l-0.8,0l0,0.7Z" class="g3_202" />
<path fill-rule="evenodd" d="M101.4,898.5l0.8,0l0,-23l-0.8,0l0,23Z" class="g3_202" />
<path fill-rule="evenodd" d="M458.6,898.5l0.8,0l0,-23l-0.8,0l0,23Z" class="g5_202" />
<path fill-rule="evenodd" d="M815.8,898.5l0.8,0l0,-23l-0.8,0l0,23Z" class="g3_202" />
<path fill-rule="evenodd" d="M101.4,899.2l0.8,0l0,-0.7l-0.8,0l0,0.7Z" class="g3_202" />
<path fill-rule="evenodd" d="M102.2,899.2l356.4,0l0,-0.7l-356.4,0l0,0.7Z" class="g5_202" />
<path fill-rule="evenodd" d="M458.6,899.2l0.8,0l0,-0.7l-0.8,0l0,0.7Z" class="g5_202" />
<path fill-rule="evenodd" d="M459.4,899.2l356.4,0l0,-0.7l-356.4,0l0,0.7Z" class="g5_202" />
<path fill-rule="evenodd" d="M815.8,899.2l0.8,0l0,-0.7l-0.8,0l0,0.7Z" class="g3_202" />
<path fill-rule="evenodd" d="M101.4,945.1l0.8,0l0,-45.9l-0.8,0l0,45.9Z" class="g3_202" />
<path fill-rule="evenodd" d="M458.6,945.1l0.8,0l0,-45.9l-0.8,0l0,45.9Z" class="g5_202" />
<path fill-rule="evenodd" d="M815.8,945.1l0.8,0l0,-45.9l-0.8,0l0,45.9Z" class="g3_202" />
<path fill-rule="evenodd" d="M102.2,994l356.4,0l0,-48.2l-356.4,0l0,48.2Z" class="g4_202" />
<path fill-rule="evenodd" d="M110,963.4l340.7,0l0,-17.6l-340.7,0l0,17.6Z" class="g4_202" />
<path fill-rule="evenodd" d="M459.4,994l356.4,0l0,-48.2l-356.4,0l0,48.2Z" class="g4_202" />
<path fill-rule="evenodd" d="M467.2,963.4l340.7,0l0,-17.6l-340.7,0l0,17.6Z" class="g4_202" />
<path fill-rule="evenodd" d="M467.2,981l340.7,0l0,-17.6l-340.7,0l0,17.6Z" class="g4_202" />
<path fill-rule="evenodd" d="M101.4,945.8l0.8,0l0,-0.7l-0.8,0l0,0.7Z" class="g3_202" />
<path fill-rule="evenodd" d="M102.2,945.8l356.4,0l0,-0.7l-356.4,0l0,0.7Z" class="g5_202" />
<path fill-rule="evenodd" d="M458.6,945.8l0.8,0l0,-0.7l-0.8,0l0,0.7Z" class="g5_202" />
<path fill-rule="evenodd" d="M459.4,945.8l356.4,0l0,-0.7l-356.4,0l0,0.7Z" class="g5_202" />
<path fill-rule="evenodd" d="M815.8,945.8l0.8,0l0,-0.7l-0.8,0l0,0.7Z" class="g3_202" />
<path fill-rule="evenodd" d="M101.4,994l0.8,0l0,-48.2l-0.8,0l0,48.2Z" class="g3_202" />
<path fill-rule="evenodd" d="M458.6,994l0.8,0l0,-48.2l-0.8,0l0,48.2Z" class="g5_202" />
<path fill-rule="evenodd" d="M815.8,994l0.8,0l0,-48.2l-0.8,0l0,48.2Z" class="g3_202" />
<path fill-rule="evenodd" d="M101.4,994.7l0.8,0l0,-0.7l-0.8,0l0,0.7Z" class="g3_202" />
<path fill-rule="evenodd" d="M102.2,994.7l356.4,0l0,-0.7l-356.4,0l0,0.7Z" class="g5_202" />
<path fill-rule="evenodd" d="M458.6,994.7l0.8,0l0,-0.7l-0.8,0l0,0.7Z" class="g5_202" />
<path fill-rule="evenodd" d="M459.4,994.7l356.4,0l0,-0.7l-356.4,0l0,0.7Z" class="g5_202" />
<path fill-rule="evenodd" d="M815.8,994.7l0.8,0l0,-0.7l-0.8,0l0,0.7Z" class="g3_202" />
<path fill-rule="evenodd" d="M101.4,1051.9l0.8,0l0,-57.2l-0.8,0l0,57.2Z" class="g3_202" />
<path fill-rule="evenodd" d="M101.4,1052.7l0.8,0l0,-0.8l-0.8,0l0,0.8Z" class="g3_202" />
<path fill-rule="evenodd" d="M101.4,1052.7l0.8,0l0,-0.8l-0.8,0l0,0.8Z" class="g5_202" />
<path fill-rule="evenodd" d="M102.2,1052.7l356.4,0l0,-0.8l-356.4,0l0,0.8Z" class="g5_202" />
<path fill-rule="evenodd" d="M458.6,1051.9l0.8,0l0,-57.2l-0.8,0l0,57.2Z" class="g5_202" />
<path fill-rule="evenodd" d="M458.6,1052.7l0.8,0l0,-0.8l-0.8,0l0,0.8Z" class="g5_202" />
<path fill-rule="evenodd" d="M459.4,1052.7l356.4,0l0,-0.8l-356.4,0l0,0.8Z" class="g5_202" />
<path fill-rule="evenodd" d="M815.8,1051.9l0.8,0l0,-57.2l-0.8,0l0,57.2Z" class="g3_202" />
<path fill-rule="evenodd" d="M815.8,1052.7l0.8,0l0,-0.8l-0.8,0l0,0.8Z" class="g3_202" />
<path fill-rule="evenodd" d="M815.8,1052.7l0.8,0l0,-0.8l-0.8,0l0,0.8Z" class="g5_202" />
<image preserveAspectRatio="none" x="112" y="112" width="715" height="645" xlink:href="img/1.png" />
<path d="M111.7,758l716.1,0l0,-646.3l-716.1,0l0,646.3Z" class="g2_202" />
<path d="M264.4,463.1l190.3,0l0,-29.5l-190.3,0l0,29.5Z" class="g6_202" />
<path fill-rule="evenodd" d="M439.9,470c0,-12,10,-21.7,22.2,-21.7c12.3,0,22.2,9.7,22.2,21.7c0,11.9,-9.9,21.6,-22.2,21.6c-12.2,0,-22.2,-9.7,-22.2,-21.6Z" class="g7_202" />
</svg>