<?xml version="1.0" encoding="UTF-8" standalone="no"?>
<!DOCTYPE svg PUBLIC "-//W3C//DTD SVG 1.1//EN"
"http://www.w3.org/Graphics/SVG/1.1/DTD/svg11.dtd">
<svg viewBox="0 0 935 1210" version="1.1" xmlns="http://www.w3.org/2000/svg" xmlns:xlink="http://www.w3.org/1999/xlink">
<defs>
<style type="text/css"><![CDATA[
.g1_169{
fill: none;
stroke: #000066;
stroke-width: 4.5833335;
stroke-linecap: butt;
stroke-linejoin: round;
}
.g2_169{
fill: none;
stroke: #000000;
stroke-width: 1.1458334;
stroke-linecap: butt;
stroke-linejoin: round;
}
.g3_169{
fill: #C8C8C8;
}
.g4_169{
fill: none;
stroke: #ED7D31;
stroke-width: 3.0555544;
stroke-linecap: butt;
stroke-linejoin: miter;
stroke-miterlimit: 8;
}
.g5_169{
fill: none;
stroke: #FF0000;
stroke-width: 2.6736124;
stroke-linecap: butt;
stroke-linejoin: miter;
stroke-miterlimit: 8;
}
.g6_169{
fill: #17375E;
}
.g7_169{
fill: none;
stroke: #10253F;
stroke-width: 1.1458334;
stroke-linecap: butt;
stroke-linejoin: round;
stroke-miterlimit: 8;
}
]]></style>
</defs>
<path d="M100.5,103.5l794.1,0" class="g1_169" />
<path d="M84.6,1142.7l772.2,0" class="g2_169" />
<image preserveAspectRatio="none" x="112" y="112" width="707" height="121" xlink:href="img/1.png" />
<path d="M111.7,233.5l707.7,0l0,-121.8l-707.7,0l0,121.8Z" class="g2_169" />
<path fill-rule="evenodd" d="M112.3,347.1l11.2,-4.5l-8,-7.3l12.7,-1.1l-3.5,-9l12.3,2.6l1.5,-9.3l10,5.8l6.2,-8.1l6.2,8.1l10,-5.8l1.4,9.3l12.4,-2.6l-3.6,9l12.8,1.1l-8,7.3l11.2,4.5l-11.2,4.5l8,7.3L181.1,360l3.6,9l-12.4,-2.6l-1.4,9.3l-10,-5.8l-6.2,8.1l-6.2,-8.1l-10,5.8L137,366.4L124.7,369l3.5,-9l-12.7,-1.1l8,-7.3Z" class="g3_169" />
<path d="M112.3,347.1l11.2,-4.5l-8,-7.3l12.7,-1.1l-3.5,-9l12.3,2.6l1.5,-9.3l10,5.8l6.2,-8.1l6.2,8.1l10,-5.8l1.4,9.3l12.4,-2.6l-3.6,9l12.8,1.1l-8,7.3l11.2,4.5l-11.2,4.5l8,7.3L181.1,360l3.6,9l-12.4,-2.6l-1.4,9.3l-10,-5.8l-6.2,8.1l-6.2,-8.1l-10,5.8L137,366.4L124.7,369l3.5,-9l-12.7,-1.1l8,-7.3Z" class="g4_169" />
<path d="M117.9,168.3l677.4,0l0,-21.1l-677.4,0l0,21.1Z" class="g5_169" />
<path fill-rule="evenodd" d="M435.7,186.4c0,-14.5,14.1,-26.3,31.5,-26.3c17.4,0,31.5,11.8,31.5,26.3c0,14.5,-14.1,26.3,-31.5,26.3c-17.4,0,-31.5,-11.8,-31.5,-26.3Z" class="g6_169" />
<path d="M435.7,186.4c0,-14.5,14.1,-26.3,31.5,-26.3c17.4,0,31.5,11.8,31.5,26.3c0,14.5,-14.1,26.3,-31.5,26.3c-17.4,0,-31.5,-11.8,-31.5,-26.3Z" class="g7_169" />
<image preserveAspectRatio="none" x="446" y="174" width="43" height="25" xlink:href="img/2.png" />
</svg>