<?xml version="1.0" encoding="UTF-8" standalone="no"?>
<!DOCTYPE svg PUBLIC "-//W3C//DTD SVG 1.1//EN"
"http://www.w3.org/Graphics/SVG/1.1/DTD/svg11.dtd">
<svg viewBox="0 0 909 1286" version="1.1" xmlns="http://www.w3.org/2000/svg" xmlns:xlink="http://www.w3.org/1999/xlink">
<defs>
<style type="text/css"><![CDATA[
.g1_8{
fill: none;
stroke: #000066;
stroke-width: 4.5833335;
stroke-linecap: butt;
stroke-linejoin: round;
}
.g2_8{
fill: none;
stroke: #000000;
stroke-width: 1.1458334;
stroke-linecap: butt;
stroke-linejoin: round;
}
.g3_8{
fill: #FFFFFF;
}
.g4_8{
}
.g5_8{
fill: #376092;
}
.g6_8{
fill: none;
stroke: #FF0000;
stroke-width: 3.0555556;
stroke-linecap: butt;
stroke-linejoin: round;
}
]]></style>
</defs>
<path d="M78.1,99.1l794,0.1" class="g1_8" />
<path d="M96.6,1224.5l772.1,0.1" class="g2_8" />
<path fill-rule="evenodd" d="M112.3,97l668.1,0l0,0.4l-668.1,0l0,-0.4Z" class="g3_8" />
<path fill-rule="evenodd" d="M112.3,718.8l668.1,0l0,0.4l-668.1,0l0,-0.4Z" class="g3_8" />
<path fill-rule="evenodd" d="M112.3,97.3l0.5,0l0,621.5l-0.5,0l0,-621.5Z" class="g3_8" />
<path fill-rule="evenodd" d="M779.9,97.3l0.5,0l0,621.5l-0.5,0l0,-621.5Z" class="g3_8" />
<image preserveAspectRatio="none" x="113" y="97" width="667" height="622" xlink:href="img/1.png" />
<path fill-rule="evenodd" d="M112.6,718.9l-0.3,0.3L112.3,97l0.3,0.3l0.2,0.1l0,621.4l-0.2,0.1Z" class="g4_8" />
<path fill-rule="evenodd" d="M780.1,718.9l-0.2,-0.1l0,-621.4l0.2,-0.1L780.4,97l0,622.2l-0.3,-0.3Z" class="g4_8" />
<path fill-rule="evenodd" d="M780.1,97.3l-0.2,0.1l-667.1,0l-0.2,-0.1L112.3,97l668.1,0l-0.3,0.3Z" class="g4_8" />
<path fill-rule="evenodd" d="M780.1,718.9l0.3,0.3l-668.1,0l0.3,-0.3l0.2,-0.1l667.1,0l0.2,0.1Z" class="g4_8" />
<path fill-rule="evenodd" d="M512.3,184.3l0,-1.5l0.1,-1.5l0.2,-1.5l0.3,-1.4l0.4,-1.5l0.5,-1.6l0.6,-1.3l0.6,-1.4l0.8,-1.4l0.7,-1.4l1,-1.3l0.9,-1.3l0.9,-1.2l1.2,-1.1l1.1,-1.2l1.2,-1.1l1.2,-0.9l1.4,-0.9l1.4,-0.9l1.4,-0.8l1.5,-0.7l1.5,-0.6l1.5,-0.7l1.6,-0.4l1.6,-0.5l1.7,-0.3l1.6,-0.3l1.6,-0.3l1.7,0l1.7,-0.1l1.7,0.1l1.7,0l1.6,0.3l1.7,0.2l1.5,0.4l1.7,0.5l1.6,0.4l1.5,0.7l1.5,0.6l1.5,0.7l1.4,0.8l1.4,0.9l1.4,0.9l1.2,0.9l1.2,1.1l1.2,1.1l1.1,1.2l1.1,1.2l0.9,1.3l0.9,1.3l0.8,1.4l0.7,1.4l0.6,1.4l0.5,1.3l0.6,1.6l0.3,1.5l0.3,1.4l0.3,1.5l0,1.5l0.2,1.5l-0.2,1.6l0,1.5l-0.3,1.5l-0.3,1.6l-0.3,1.5l-0.4,1.4l-0.7,1.5l-0.6,1.4l-0.7,1.3L572,199l-0.9,1.2l-0.9,1.3l-1.1,1.2l-1.1,1.2l-1.2,1.1l-1.2,1l-1.2,1.1L563,208l-1.4,0.8l-1.4,0.9l-1.5,0.6l-1.5,0.8l-1.5,0.4l-1.6,0.6l-1.5,0.5l-1.7,0.3l-1.7,0.3l-1.6,0.2l-1.7,0.1l-1.7,0l-1.7,-0.1l-1.7,0l-1.6,-0.3l-1.6,-0.2l-1.7,-0.4L534.3,212l-1.6,-0.5l-1.5,-0.6l-1.5,-0.6l-1.5,-0.7l-1.4,-0.8l-1.4,-0.9L524,207l-1.2,-1l-1.2,-1l-1.2,-1.1l-1.1,-1.2l-0.9,-1.2l-1.1,-1.3L516.5,199l-0.9,-1.4L515,196.3l-0.7,-1.4l-0.5,-1.5L513.3,192l-0.4,-1.5l-0.3,-1.6l-0.3,-1.5l0,-1.5l-0.2,-1.6l0.2,0Z" class="g5_8" />
<path d="M384.4,168.9l-124.4,0l0,-30.8l248.8,0l0,30.8l-124.4,0Z" class="g6_8" />
<path d="M183.9,647.9l-71.6,0l0,-334.6l143.1,0l0,334.6l-71.5,0Z" class="g6_8" />
<path fill-rule="evenodd" d="M273.8,355.6l0,-1.4l0.1,-1.3l0.3,-1.4l0.2,-1.4l0.4,-1.4l0.4,-1.3l0.6,-1.3l0.4,-1.3l0.8,-1.3l0.6,-1.2l0.9,-1.2l0.8,-1.1l0.9,-1.2l1.1,-1.1l1,-1l1.1,-1l1.1,-0.9l1.2,-0.9l1.4,-0.8l1.2,-0.7l1.4,-0.8L291,331l1.4,-0.6l1.5,-0.5l1.6,-0.4l1.3,-0.5l1.6,-0.3l1.7,-0.3l1.5,-0.1l1.5,0l1.5,-0.2l1.7,0l1.5,0.2l1.7,0.1l1.6,0.3l1.5,0.3l1.7,0.5l1.5,0.4l1.4,0.7l1.5,0.6l1.4,0.6l1.3,0.7l1.4,1l1.2,0.7l1.3,0.9l1.2,1.1l1.1,1.1l1,1l0.9,1.1l1,1.2l0.9,1.3l0.7,1.2l0.8,1.4l0.6,1.2l0.5,1.4l0.4,1.3l0.5,1.4l0.3,1.5l0.1,1.4l0.2,1.4l0,1.5l0,1.4l-0.2,1.5l-0.1,1.4l-0.3,1.4l-0.5,1.3L334,364l-0.5,1.4l-0.6,1.4l-0.8,1.2l-0.7,1.4l-0.8,1.2l-0.9,1l-1.1,1.3l-1,1l-1.1,1.1l-1.2,0.9l-1.3,0.9l-1.2,1l-1.4,0.9l-1.3,0.6l-1.4,0.8l-1.5,0.6l-1.4,0.6l-1.5,0.4l-1.6,0.5l-1.6,0.3l-1.6,0.1l-1.7,0.4l-1.5,0l-1.7,0.1l-1.5,0L301.4,383l-1.5,-0.2l-1.7,-0.3l-1.5,-0.3l-1.5,-0.5l-1.6,-0.4l-1.5,-0.6l-1.5,-0.6l-1.4,-0.7l-1.4,-0.7l-1.3,-0.9L285.2,377L284,376.1L282.8,375l-1.1,-1.1l-1,-1l-1,-1.1l-0.9,-1.2l-0.9,-1.2l-0.8,-1.3l-0.7,-1.3l-0.6,-1.3l-0.5,-1.3l-0.5,-1.4l-0.4,-1.4l-0.3,-1.5l-0.2,-1.4l-0.1,-1.4l0,-1.5Z" class="g5_8" />
</svg>