<?xml version="1.0" encoding="UTF-8" standalone="no"?>
<!DOCTYPE svg PUBLIC "-//W3C//DTD SVG 1.1//EN"
"http://www.w3.org/Graphics/SVG/1.1/DTD/svg11.dtd">
<svg viewBox="0 0 935 1210" version="1.1" xmlns="http://www.w3.org/2000/svg" xmlns:xlink="http://www.w3.org/1999/xlink">
<defs>
<style type="text/css"><![CDATA[
.g1_141{
fill: none;
stroke: #000066;
stroke-width: 4.5833335;
stroke-linecap: butt;
stroke-linejoin: round;
}
.g2_141{
fill: none;
stroke: #000000;
stroke-width: 1.1458334;
stroke-linecap: butt;
stroke-linejoin: round;
}
.g3_141{
fill: none;
stroke: #203864;
stroke-width: 1.1458334;
stroke-linecap: butt;
stroke-linejoin: miter;
stroke-miterlimit: 8;
}
.g4_141{
fill: #333F50;
}
.g5_141{
fill: none;
stroke: #222A35;
stroke-width: 1.1458334;
stroke-linecap: butt;
stroke-linejoin: round;
stroke-miterlimit: 8;
}
.g6_141{
fill: none;
stroke: #FF0000;
stroke-width: 2.6736124;
stroke-linecap: butt;
stroke-linejoin: miter;
stroke-miterlimit: 8;
}
.g7_141{
fill: #17375E;
}
.g8_141{
fill: none;
stroke: #10253F;
stroke-width: 1.1458334;
stroke-linecap: butt;
stroke-linejoin: round;
stroke-miterlimit: 8;
}
]]></style>
</defs>
<path d="M100.5,103.5l794.1,0" class="g1_141" />
<path d="M84.6,1142.7l772.2,0" class="g2_141" />
<image preserveAspectRatio="none" x="112" y="172" width="690" height="432" xlink:href="img/1.png" />
<path d="M111.7,604.2l690.7,0l0,-432.7l-690.7,0l0,432.7Z" class="g3_141" />
<path fill-rule="evenodd" d="M748.2,235.3c0,-12.4,10.5,-22.4,23.5,-22.4c13,0,23.5,10,23.5,22.4c0,12.3,-10.5,22.3,-23.5,22.3c-13,0,-23.5,-10,-23.5,-22.3Z" class="g4_141" />
<path d="M748.2,235.3c0,-12.4,10.5,-22.4,23.5,-22.4c13,0,23.5,10,23.5,22.4c0,12.3,-10.5,22.3,-23.5,22.3c-13,0,-23.5,-10,-23.5,-22.3Z" class="g5_141" />
<image preserveAspectRatio="none" x="756" y="225" width="32" height="20" xlink:href="img/2.png" />
<path d="M129.5,595.6l108.8,0l0,-30.9l-108.8,0l0,30.9Z" class="g6_141" />
<path d="M625.6,210.6l170.8,0l0,-29.7l-170.8,0l0,29.7Z" class="g6_141" />
<path d="M348.3,492.5l379.3,0l0,-48.1l-379.3,0l0,48.1Z" class="g6_141" />
<path fill-rule="evenodd" d="M694.4,439.2c0,-12.3,10.5,-22.3,23.5,-22.3c12.9,0,23.5,10,23.5,22.3c0,12.4,-10.6,22.4,-23.5,22.4c-13,0,-23.5,-10,-23.5,-22.4Z" class="g7_141" />
<path d="M694.4,439.2c0,-12.3,10.5,-22.3,23.5,-22.3c12.9,0,23.5,10,23.5,22.3c0,12.4,-10.6,22.4,-23.5,22.4c-13,0,-23.5,-10,-23.5,-22.4Z" class="g8_141" />
<image preserveAspectRatio="none" x="702" y="430" width="32" height="19" xlink:href="img/3.png" />
<path fill-rule="evenodd" d="M200.5,546.9c0,-12.3,10.5,-22.3,23.5,-22.3c13,0,23.5,10,23.5,22.3c0,12.4,-10.5,22.4,-23.5,22.4c-13,0,-23.5,-10,-23.5,-22.4Z" class="g7_141" />
<path d="M200.5,546.9c0,-12.3,10.5,-22.3,23.5,-22.3c13,0,23.5,10,23.5,22.3c0,12.4,-10.5,22.4,-23.5,22.4c-13,0,-23.5,-10,-23.5,-22.4Z" class="g8_141" />
<image preserveAspectRatio="none" x="208" y="537" width="32" height="20" xlink:href="img/4.png" />
</svg>