<?xml version="1.0" encoding="UTF-8" standalone="no"?>
<!DOCTYPE svg PUBLIC "-//W3C//DTD SVG 1.1//EN"
"http://www.w3.org/Graphics/SVG/1.1/DTD/svg11.dtd">
<svg viewBox="0 0 935 1210" version="1.1" xmlns="http://www.w3.org/2000/svg" xmlns:xlink="http://www.w3.org/1999/xlink">
<defs>
<style type="text/css"><![CDATA[
.g1_41{
fill: none;
stroke: #000066;
stroke-width: 4.5833335;
stroke-linecap: butt;
stroke-linejoin: round;
}
.g2_41{
fill: none;
stroke: #000000;
stroke-width: 1.1458334;
stroke-linecap: butt;
stroke-linejoin: round;
}
.g3_41{
fill: none;
stroke: #000000;
stroke-width: 1.5277791;
stroke-linecap: square;
stroke-linejoin: miter;
stroke-miterlimit: 8;
}
.g4_41{
fill: #C3D69B;
}
.g5_41{
fill: none;
stroke: #C0504D;
stroke-width: 3.0555544;
stroke-linecap: butt;
stroke-linejoin: miter;
stroke-miterlimit: 8;
}
.g6_41{
fill: none;
stroke: #FF0000;
stroke-width: 3.0555544;
stroke-linecap: butt;
stroke-linejoin: round;
stroke-miterlimit: 8;
}
.g7_41{
fill: #002060;
}
]]></style>
</defs>
<path d="M100.5,103.5l794.1,0" class="g1_41" />
<path d="M84.6,1142.7l772.2,0" class="g2_41" />
<image preserveAspectRatio="none" x="112" y="112" width="689" height="565" xlink:href="img/1.png" />
<path d="M111.5,678l690.2,0l0,-566.5l-690.2,0l0,566.5Z" class="g3_41" />
<path fill-rule="evenodd" d="M112.3,749.8l12,-4.5L115.7,738l13.6,-1l-3.8,-9l13.2,2.6l1.5,-9.3l10.7,5.8l6.7,-8.2l6.6,8.2l10.7,-5.8l1.5,9.3L189.6,728l-3.8,9l13.6,1l-8.5,7.3l11.9,4.5l-11.9,4.6l8.5,7.3l-13.6,1l3.8,9l-13.2,-2.6l-1.5,9.3l-10.7,-5.8l-6.6,8.2l-6.7,-8.2l-10.7,5.8l-1.5,-9.3l-13.2,2.6l3.8,-9l-13.6,-1l8.6,-7.3Z" class="g4_41" />
<path d="M112.3,749.8l12,-4.5L115.7,738l13.6,-1l-3.8,-9l13.2,2.6l1.5,-9.3l10.7,5.8l6.7,-8.2l6.6,8.2l10.7,-5.8l1.5,9.3L189.6,728l-3.8,9l13.6,1l-8.5,7.3l11.9,4.5l-11.9,4.6l8.5,7.3l-13.6,1l3.8,9l-13.2,-2.6l-1.5,9.3l-10.7,-5.8l-6.6,8.2l-6.7,-8.2l-10.7,5.8l-1.5,-9.3l-13.2,2.6l3.8,-9l-13.6,-1l8.6,-7.3Z" class="g5_41" />
<path d="M112.3,148.5l374.7,0l0,-36.7l-374.7,0l0,36.7Z" class="g6_41" />
<path fill-rule="evenodd" d="M367.8,164.1c0,-11.8,11.2,-21.3,24.9,-21.3c13.8,0,25,9.5,25,21.3c0,11.8,-11.2,21.4,-25,21.4c-13.7,0,-24.9,-9.6,-24.9,-21.4Z" class="g7_41" />
<image preserveAspectRatio="none" x="377" y="156" width="32" height="16" xlink:href="img/2.png" />
</svg>