<?xml version="1.0" encoding="UTF-8" standalone="no"?>
<!DOCTYPE svg PUBLIC "-//W3C//DTD SVG 1.1//EN"
"http://www.w3.org/Graphics/SVG/1.1/DTD/svg11.dtd">
<svg viewBox="0 0 935 1210" version="1.1" xmlns="http://www.w3.org/2000/svg" xmlns:xlink="http://www.w3.org/1999/xlink">
<defs>
<style type="text/css"><![CDATA[
.g1_85{
fill: none;
stroke: #000066;
stroke-width: 4.5833335;
stroke-linecap: butt;
stroke-linejoin: round;
}
.g2_85{
fill: none;
stroke: #000000;
stroke-width: 1.1458334;
stroke-linecap: butt;
stroke-linejoin: round;
}
.g3_85{
fill: none;
stroke: #000000;
stroke-width: 0.38194567;
stroke-linecap: square;
stroke-linejoin: miter;
stroke-miterlimit: 8;
}
.g4_85{
fill: none;
stroke: #FF0000;
stroke-width: 2.6736124;
stroke-linecap: butt;
stroke-linejoin: miter;
stroke-miterlimit: 8;
}
.g5_85{
fill: #17375E;
}
.g6_85{
fill: none;
stroke: #10253F;
stroke-width: 1.1458334;
stroke-linecap: butt;
stroke-linejoin: round;
stroke-miterlimit: 8;
}
]]></style>
</defs>
<path d="M100.5,103.5l794.1,0" class="g1_85" />
<path d="M84.6,1142.7l772.2,0" class="g2_85" />
<image preserveAspectRatio="none" x="112" y="112" width="704" height="328" xlink:href="img/1.png" />
<path d="M112.1,440.2l703.9,0l0,-328.1l-703.9,0l0,328.1Z" class="g3_85" />
<image preserveAspectRatio="none" x="112" y="603" width="715" height="408" xlink:href="img/2.png" />
<path d="M112.1,1011.6l715.4,0l0,-408.6l-715.4,0l0,408.6Z" class="g3_85" />
<path d="M286.4,232.9l328.9,0l0,-30.9l-328.9,0l0,30.9Z" class="g4_85" />
<path fill-rule="evenodd" d="M595.8,258.7c0,-14.2,12.3,-25.8,27.5,-25.8c15.1,0,27.5,11.6,27.5,25.8c0,14.2,-12.4,25.8,-27.5,25.8c-15.2,0,-27.5,-11.6,-27.5,-25.8Z" class="g5_85" />
<path d="M595.8,258.7c0,-14.2,12.3,-25.8,27.5,-25.8c15.1,0,27.5,11.6,27.5,25.8c0,14.2,-12.4,25.8,-27.5,25.8c-15.2,0,-27.5,-11.6,-27.5,-25.8Z" class="g6_85" />
<image preserveAspectRatio="none" x="604" y="247" width="38" height="24" xlink:href="img/3.png" />
<path d="M139.8,389.9l387.2,0l0,-114.6l-387.2,0l0,114.6Z" class="g4_85" />
<path d="M130.6,238.6l74.5,0l0,-40.1l-74.5,0l0,40.1Z" class="g4_85" />
<path fill-rule="evenodd" d="M197.1,247.2c0,-14.2,12.3,-25.7,27.5,-25.7c15.2,0,27.5,11.5,27.5,25.7c0,14.3,-12.3,25.8,-27.5,25.8c-15.2,0,-27.5,-11.5,-27.5,-25.8Z" class="g5_85" />
<path d="M197.1,247.2c0,-14.2,12.3,-25.7,27.5,-25.7c15.2,0,27.5,11.5,27.5,25.7c0,14.3,-12.3,25.8,-27.5,25.8c-15.2,0,-27.5,-11.5,-27.5,-25.8Z" class="g6_85" />
<image preserveAspectRatio="none" x="206" y="235" width="37" height="24" xlink:href="img/4.png" />
</svg>