<?xml version="1.0" encoding="UTF-8" standalone="no"?>
<!DOCTYPE svg PUBLIC "-//W3C//DTD SVG 1.1//EN"
"http://www.w3.org/Graphics/SVG/1.1/DTD/svg11.dtd">
<svg viewBox="0 0 935 1210" version="1.1" xmlns="http://www.w3.org/2000/svg" xmlns:xlink="http://www.w3.org/1999/xlink">
<defs>
<style type="text/css"><![CDATA[
.g1_171{
fill: none;
stroke: #000066;
stroke-width: 4.5833335;
stroke-linecap: butt;
stroke-linejoin: round;
}
.g2_171{
fill: none;
stroke: #000000;
stroke-width: 1.1458334;
stroke-linecap: butt;
stroke-linejoin: round;
}
.g3_171{
fill: none;
stroke: #203864;
stroke-width: 1.1458334;
stroke-linecap: butt;
stroke-linejoin: miter;
stroke-miterlimit: 8;
}
.g4_171{
fill: none;
stroke: #FF0000;
stroke-width: 2.6736124;
stroke-linecap: butt;
stroke-linejoin: miter;
stroke-miterlimit: 8;
}
]]></style>
</defs>
<path d="M100.5,103.5l794.1,0" class="g1_171" />
<path d="M84.6,1142.7l772.2,0" class="g2_171" />
<image preserveAspectRatio="none" x="112" y="112" width="690" height="161" xlink:href="img/1.png" />
<path d="M111.7,273.7l690.7,0l0,-162l-690.7,0l0,162Z" class="g3_171" />
<image preserveAspectRatio="none" x="112" y="291" width="690" height="166" xlink:href="img/2.png" />
<path d="M111.7,458l690.7,0l0,-167.4l-690.7,0l0,167.4Z" class="g3_171" />
<image preserveAspectRatio="none" x="112" y="477" width="690" height="162" xlink:href="img/3.png" />
<path d="M111.7,639.8l690.7,0l0,-163.5l-690.7,0l0,163.5Z" class="g3_171" />
<image preserveAspectRatio="none" x="112" y="658" width="690" height="159" xlink:href="img/4.png" />
<path d="M111.7,817.1l690.7,0l0,-159.7l-690.7,0l0,159.7Z" class="g3_171" />
<image preserveAspectRatio="none" x="112" y="835" width="690" height="146" xlink:href="img/5.png" />
<path d="M111.7,982l690.7,0l0,-148l-690.7,0l0,148Z" class="g3_171" />
<path d="M135.2,206.1l687.5,0l0,-89.4l-687.5,0l0,89.4Z" class="g4_171" />
</svg>