<?xml version="1.0" encoding="UTF-8" standalone="no"?>
<!DOCTYPE svg PUBLIC "-//W3C//DTD SVG 1.1//EN"
"http://www.w3.org/Graphics/SVG/1.1/DTD/svg11.dtd">
<svg viewBox="0 0 935 1210" version="1.1" xmlns="http://www.w3.org/2000/svg" xmlns:xlink="http://www.w3.org/1999/xlink">
<defs>
<style type="text/css"><![CDATA[
.g1_194{
fill: none;
stroke: #000066;
stroke-width: 4.5833335;
stroke-linecap: butt;
stroke-linejoin: round;
}
.g2_194{
fill: none;
stroke: #000000;
stroke-width: 1.1458334;
stroke-linecap: butt;
stroke-linejoin: round;
}
.g3_194{
fill: none;
stroke: #FF0000;
stroke-width: 2.2916667;
stroke-linecap: butt;
stroke-linejoin: miter;
stroke-miterlimit: 8;
}
.g4_194{
fill: #1F4E79;
}
]]></style>
</defs>
<path d="M100.5,103.5l794.1,0" class="g1_194" />
<path d="M84.6,1142.7l772.2,0" class="g2_194" />
<image preserveAspectRatio="none" x="112" y="112" width="715" height="537" xlink:href="img/1.png" />
<path d="M111.7,649.5l716.2,0l0,-537.8l-716.2,0l0,537.8Z" class="g2_194" />
<path d="M112.1,143.8l170.2,0l0,-29.6l-170.2,0l0,29.6Z" class="g3_194" />
<path fill-rule="evenodd" d="M282.3,138c0,-12,10,-21.7,22.2,-21.7c12.3,0,22.3,9.7,22.3,21.7c0,12,-10,21.7,-22.3,21.7c-12.2,0,-22.2,-9.7,-22.2,-21.7Z" class="g4_194" />
<image preserveAspectRatio="none" x="290" y="129" width="30" height="18" xlink:href="img/2.png" />
<path d="M722.3,133.2l42.3,0l0,-16.9l-42.3,0l0,16.9Z" class="g3_194" />
<path fill-rule="evenodd" d="M689.5,148.5c0,-11.9,9.9,-21.6,22.2,-21.6c12.3,0,22.2,9.7,22.2,21.6c0,12,-9.9,21.7,-22.2,21.7c-12.3,0,-22.2,-9.7,-22.2,-21.7Z" class="g4_194" />
<image preserveAspectRatio="none" x="697" y="140" width="30" height="18" xlink:href="img/3.png" />
<path fill-rule="evenodd" d="M298.2,611.8c0,-12,9.9,-21.7,22.2,-21.7c12.2,0,22.2,9.7,22.2,21.7c0,11.9,-10,21.6,-22.2,21.6c-12.3,0,-22.2,-9.7,-22.2,-21.6Z" class="g4_194" />
<image preserveAspectRatio="none" x="305" y="603" width="30" height="18" xlink:href="img/4.png" />
<path d="M130,633.4l178.8,0l0,-21.1l-178.8,0l0,21.1Z" class="g3_194" />
</svg>