<?xml version="1.0" encoding="UTF-8" standalone="no"?>
<!DOCTYPE svg PUBLIC "-//W3C//DTD SVG 1.1//EN"
"http://www.w3.org/Graphics/SVG/1.1/DTD/svg11.dtd">
<svg viewBox="0 0 935 1210" version="1.1" xmlns="http://www.w3.org/2000/svg" xmlns:xlink="http://www.w3.org/1999/xlink">
<defs>
<style type="text/css"><![CDATA[
.g1_146{
fill: none;
stroke: #000066;
stroke-width: 4.5833335;
stroke-linecap: butt;
stroke-linejoin: round;
}
.g2_146{
fill: none;
stroke: #000000;
stroke-width: 1.1458334;
stroke-linecap: butt;
stroke-linejoin: round;
}
.g3_146{
fill: none;
stroke: #203864;
stroke-width: 1.1458334;
stroke-linecap: butt;
stroke-linejoin: miter;
stroke-miterlimit: 8;
}
.g4_146{
fill: none;
stroke: #000000;
stroke-width: 1.1458334;
stroke-linecap: butt;
stroke-linejoin: round;
stroke-miterlimit: 8;
}
.g5_146{
fill: none;
stroke: #FF0000;
stroke-width: 2.6736124;
stroke-linecap: butt;
stroke-linejoin: miter;
stroke-miterlimit: 8;
}
.g6_146{
fill: #17375E;
}
.g7_146{
fill: none;
stroke: #10253F;
stroke-width: 1.1458334;
stroke-linecap: butt;
stroke-linejoin: round;
stroke-miterlimit: 8;
}
]]></style>
</defs>
<path d="M100.5,103.5l794.1,0" class="g1_146" />
<path d="M84.6,1142.7l772.2,0" class="g2_146" />
<image preserveAspectRatio="none" x="112" y="112" width="689" height="558" xlink:href="img/1.png" />
<path d="M111.7,670.9l689.8,0l0,-559.2l-689.8,0l0,559.2Z" class="g3_146" />
<image preserveAspectRatio="none" x="186" y="724" width="21" height="25" xlink:href="img/2.png" />
<path d="M185,750l22.9,0l0,-26.3l-22.9,0l0,26.3Z" class="g4_146" />
<image preserveAspectRatio="none" x="112" y="875" width="715" height="134" xlink:href="img/3.png" />
<path d="M111.7,1009.5l716.2,0l0,-134.6l-716.2,0l0,134.6Z" class="g4_146" />
<path d="M125.4,531.1l410.2,0l0,-25.2l-410.2,0l0,25.2Z" class="g5_146" />
<path fill-rule="evenodd" d="M478.3,344.9c0,-12.3,10.6,-22.3,23.5,-22.3c13,0,23.5,10,23.5,22.3c0,12.4,-10.5,22.4,-23.5,22.4c-12.9,0,-23.5,-10,-23.5,-22.4Z" class="g6_146" />
<path d="M478.3,344.9c0,-12.3,10.6,-22.3,23.5,-22.3c13,0,23.5,10,23.5,22.3c0,12.4,-10.5,22.4,-23.5,22.4c-12.9,0,-23.5,-10,-23.5,-22.4Z" class="g7_146" />
<image preserveAspectRatio="none" x="486" y="335" width="32" height="20" xlink:href="img/4.png" />
<path d="M536.8,367.3l222.3,0l0,-29.8l-222.3,0l0,29.8Z" class="g5_146" />
</svg>