<?xml version="1.0" encoding="UTF-8" standalone="no"?>
<!DOCTYPE svg PUBLIC "-//W3C//DTD SVG 1.1//EN"
"http://www.w3.org/Graphics/SVG/1.1/DTD/svg11.dtd">
<svg viewBox="0 0 935 1210" version="1.1" xmlns="http://www.w3.org/2000/svg" xmlns:xlink="http://www.w3.org/1999/xlink">
<defs>
<style type="text/css"><![CDATA[
.g1_11{
fill: none;
stroke: #000066;
stroke-width: 4.5833335;
stroke-linecap: butt;
stroke-linejoin: round;
}
.g2_11{
fill: none;
stroke: #000000;
stroke-width: 1.1458334;
stroke-linecap: butt;
stroke-linejoin: round;
}
.g3_11{
fill: #C8C8C8;
}
.g4_11{
fill: none;
stroke: #ED7D31;
stroke-width: 3.0555544;
stroke-linecap: butt;
stroke-linejoin: miter;
stroke-miterlimit: 8;
}
]]></style>
</defs>
<path d="M100.5,103.5l794.1,0" class="g1_11" />
<path d="M84.6,1142.7l772.2,0" class="g2_11" />
<image preserveAspectRatio="none" x="110" y="110" width="715" height="260" xlink:href="img/1.png" />
<image preserveAspectRatio="none" x="110" y="419" width="689" height="496" xlink:href="img/2.png" />
<path fill-rule="evenodd" d="M112.3,949.8l12,-4.5L115.7,938l13.6,-1l-3.8,-9l13.2,2.6l1.5,-9.3l10.7,5.8l6.7,-8.2l6.6,8.2l10.7,-5.8l1.5,9.3L189.6,928l-3.8,9l13.6,1l-8.5,7.3l11.9,4.5l-11.9,4.6l8.5,7.3l-13.6,1l3.8,9l-13.2,-2.6l-1.5,9.3l-10.7,-5.8l-6.6,8.2l-6.7,-8.2l-10.7,5.8l-1.5,-9.3l-13.2,2.6l3.8,-9l-13.6,-1l8.6,-7.3Z" class="g3_11" />
<path d="M112.3,949.8l12,-4.5L115.7,938l13.6,-1l-3.8,-9l13.2,2.6l1.5,-9.3l10.7,5.8l6.7,-8.2l6.6,8.2l10.7,-5.8l1.5,9.3L189.6,928l-3.8,9l13.6,1l-8.5,7.3l11.9,4.5l-11.9,4.6l8.5,7.3l-13.6,1l3.8,9l-13.2,-2.6l-1.5,9.3l-10.7,-5.8l-6.6,8.2l-6.7,-8.2l-10.7,5.8l-1.5,-9.3l-13.2,2.6l3.8,-9l-13.6,-1l8.6,-7.3Z" class="g4_11" />
</svg>