<?xml version="1.0" encoding="UTF-8" standalone="no"?>
<!DOCTYPE svg PUBLIC "-//W3C//DTD SVG 1.1//EN"
"http://www.w3.org/Graphics/SVG/1.1/DTD/svg11.dtd">
<svg viewBox="0 0 909 1286" version="1.1" xmlns="http://www.w3.org/2000/svg" xmlns:xlink="http://www.w3.org/1999/xlink">
<defs>
<style type="text/css"><![CDATA[
.g1_7{
fill: none;
stroke: #000066;
stroke-width: 4.5833335;
stroke-linecap: butt;
stroke-linejoin: round;
}
.g2_7{
fill: none;
stroke: #000000;
stroke-width: 1.1458334;
stroke-linecap: butt;
stroke-linejoin: round;
}
.g3_7{
fill: #FFFFFF;
}
.g4_7{
}
.g5_7{
fill: none;
stroke: #FF0000;
stroke-width: 3.0555556;
stroke-linecap: butt;
stroke-linejoin: round;
}
.g6_7{
fill: #376092;
}
]]></style>
</defs>
<path d="M78.1,99.1l794,0.1" class="g1_7" />
<path d="M96.6,1224.5l772.1,0.1" class="g2_7" />
<path fill-rule="evenodd" d="M112.3,174.7l689.5,0l0,0.5l-689.5,0l0,-0.5Z" class="g3_7" />
<path fill-rule="evenodd" d="M112.3,496.3l689.5,0l0,0.5l-689.5,0l0,-0.5Z" class="g3_7" />
<path fill-rule="evenodd" d="M112.3,175l0.5,0l0,321.5l-0.5,0l0,-321.5Z" class="g3_7" />
<path fill-rule="evenodd" d="M801.3,175l0.5,0l0,321.5l-0.5,0l0,-321.5Z" class="g3_7" />
<image preserveAspectRatio="none" x="113" y="175" width="688" height="321" xlink:href="img/1.png" />
<path fill-rule="evenodd" d="M112.6,496.5l-0.3,0.3l0,-322.1l0.3,0.3l0.2,0.2l0,321.1l-0.2,0.2Z" class="g4_7" />
<path fill-rule="evenodd" d="M801.5,496.5l-0.2,-0.2l0,-321.1l0.2,-0.2l0.3,-0.3l0,322.1l-0.3,-0.3Z" class="g4_7" />
<path fill-rule="evenodd" d="M801.5,175l-0.2,0.2l-688.5,0L112.6,175l-0.3,-0.3l689.5,0l-0.3,0.3Z" class="g4_7" />
<path fill-rule="evenodd" d="M801.5,496.5l0.3,0.3l-689.5,0l0.3,-0.3l0.2,-0.2l688.5,0l0.2,0.2Z" class="g4_7" />
<path d="M161.5,203.9l-45.8,0l0,-25.1l91.6,0l0,25.1l-45.8,0Z" class="g5_7" />
<path fill-rule="evenodd" d="M218.8,203.4l0.1,-1.5l0,-1.5l0.3,-1.5l0.3,-1.4l0.3,-1.5l0.5,-1.6l0.6,-1.3l0.6,-1.4l0.8,-1.4l0.8,-1.4l0.9,-1.3l0.9,-1.3l1.1,-1.2l1,-1.1l1.2,-1.2l1.3,-1.1l1.2,-0.9l1.4,-0.9l1.3,-0.9l1.4,-0.8l1.5,-0.7l1.6,-0.6l1.5,-0.7l1.5,-0.4l1.6,-0.5l1.6,-0.3l1.7,-0.3l1.7,-0.3l1.7,0l1.7,-0.1l1.6,0.1l1.7,0l1.7,0.3l1.5,0.2l1.7,0.4l1.5,0.5l1.7,0.4l1.5,0.7l1.6,0.6l1.5,0.7l1.4,0.8l1.4,0.9l1.3,0.9l1.2,0.9l1.3,1.1l1,1.1l1.3,1.2l0.9,1.2l0.9,1.3l0.9,1.3l0.8,1.4l0.7,1.4l0.7,1.4l0.6,1.3l0.4,1.6l0.5,1.5l0.3,1.4l0.1,1.5l0.2,1.5l0,1.5l0,1.6l-0.2,1.5l-0.1,1.5l-0.3,1.6l-0.5,1.5l-0.4,1.4l-0.6,1.5l-0.7,1.4l-0.7,1.3l-0.8,1.4l-0.9,1.2l-0.9,1.3l-0.9,1.2l-1.3,1.2l-1,1.1l-1.3,1l-1.2,1.1l-1.3,0.9l-1.4,0.8l-1.4,0.9l-1.5,0.6l-1.6,0.8l-1.5,0.4l-1.5,0.6l-1.7,0.5l-1.7,0.3l-1.5,0.3l-1.7,0.2l-1.7,0.1l-1.6,0l-1.7,-0.1l-1.7,0l-1.7,-0.3L244.1,232l-1.6,-0.4l-1.6,-0.5l-1.5,-0.5L237.7,230l-1.4,-0.6l-1.5,-0.8l-1.4,-0.7L231.9,227l-1.2,-0.9l-1.4,-1l-1.2,-1L227,223l-1,-1.2l-1.1,-1.2L224,219.3l-0.9,-1.2l-0.8,-1.4l-0.8,-1.3L220.9,214l-0.6,-1.5l-0.5,-1.4l-0.4,-1.5L219.1,208l-0.2,-1.5L218.8,205l0,-1.6Z" class="g6_7" />
<path d="M711.6,206.2l-29.8,0l0,-31.9l59.5,0l0,31.9l-29.7,0Z" class="g5_7" />
<path fill-rule="evenodd" d="M610.8,200.5l0,-1.3l0.2,-1.4l0.1,-1.4l0.3,-1.4l0.3,-1.3l0.5,-1.4l0.4,-1.2l0.6,-1.4l0.7,-1.2l0.7,-1.3l0.8,-1.2l0.9,-1l0.9,-1.3l0.9,-1l1.1,-1.1l1.1,-0.9l1.2,-0.9l1.2,-1l1.2,-0.7l1.4,-0.8l1.4,-0.7l1.4,-0.7l1.3,-0.6l1.4,-0.4l1.5,-0.5l1.6,-0.4l1.5,-0.4l1.5,-0.3l1.6,-0.1l1.5,0l1.7,-0.2l1.5,0l1.7,0.2l1.5,0.1l1.7,0.3l1.5,0.4l1.5,0.4l1.6,0.5l1.5,0.6l1.4,0.6l1.5,0.6l1.4,0.8l1.2,0.9l1.4,0.7l1.2,1l1.1,1l1.2,1.1l1.1,1.1l0.9,1l0.9,1.3l0.9,1.2l0.8,1.2l0.6,1.4l0.6,1.2L671,192l0.5,1.4l0.3,1.3l0.3,1.6l0.3,1.3l0,1.4l0.1,1.5l-0.1,1.4l0,1.5l-0.3,1.4l-0.3,1.4l-0.3,1.4l-0.5,1.3l-0.6,1.4l-0.6,1.4l-0.6,1.2l-0.8,1.4l-0.9,1.2l-0.9,1.1l-0.9,1.2l-1.1,1.1l-1.1,1l-1.2,1l-1.2,0.9l-1.3,0.9l-1.3,0.9l-1.4,0.6l-1.5,0.8l-1.4,0.6l-1.5,0.6l-1.6,0.5l-1.5,0.4l-1.5,0.3l-1.7,0.2l-1.5,0.3l-1.7,0l-1.5,0.1l-1.7,0l-1.5,-0.1l-1.7,-0.2l-1.6,-0.3l-1.6,-0.3L632,226.7l-1.5,-0.5l-1.4,-0.6L627.6,225l-1.4,-0.6l-1.3,-0.8l-1.4,-0.9l-1.2,-0.8L620.9,221l-1.1,-1.1l-1.2,-1l-0.9,-1.1l-1.1,-1.1l-0.9,-1.2l-0.8,-1.2l-0.7,-1.2l-0.8,-1.4l-0.6,-1.2l-0.6,-1.4l-0.5,-1.4l-0.3,-1.4l-0.3,-1.5l-0.3,-1.4l0,-1.3l-0.1,-1.6l0.1,0Z" class="g6_7" />
<path d="M400,484.9l-275,0l0,-243l550,0l0,243l-275,0Z" class="g5_7" />
<path fill-rule="evenodd" d="M390.8,292.2l0,-1.4l0.2,-1.3l0.1,-1.4l0.3,-1.4l0.3,-1.4l0.5,-1.3l0.4,-1.3l0.6,-1.3l0.7,-1.3l0.7,-1.2l0.8,-1.2l0.9,-1.2l0.9,-1.1l0.9,-1.1l1.1,-1l1.2,-1l1.1,-0.9l1.2,-0.9l1.2,-0.8l1.4,-0.7l1.4,-0.8l1.4,-0.6l1.3,-0.6l1.6,-0.6l1.5,-0.3l1.4,-0.5l1.5,-0.3l1.7,-0.3l1.5,-0.1l1.5,-0.2l1.6,0l1.6,0l1.6,0.2l1.7,0.1l1.5,0.3l1.7,0.3l1.5,0.5l1.5,0.4l1.4,0.6l1.5,0.7l1.4,0.6l1.4,0.7l1.3,1l1.3,0.7l1.3,0.9l1.1,1.1l1.2,1.1l1,1l1,1.1l0.9,1.2l0.8,1.3l0.8,1.2l0.7,1.4l0.6,1.2l0.7,1.3l0.4,1.4l0.3,1.4l0.3,1.5l0.3,1.4l0,1.4l0.2,1.5l-0.2,0l0,1.4l-0.1,1.5l-0.2,1.4l-0.3,1.4l-0.4,1.3l-0.5,1.4l-0.5,1.4l-0.6,1.4l-0.7,1.2l-0.8,1.4l-0.8,1.2l-0.9,1l-1,1.3l-1.1,1l-1.1,1.1l-1.2,0.9l-1.2,0.9l-1.3,1l-1.3,0.9l-1.4,0.6l-1.4,0.7l-1.5,0.7l-1.4,0.6l-1.5,0.4l-1.5,0.5l-1.7,0.3l-1.5,0.1l-1.7,0.4l-1.6,0l-1.6,0.1l-1.6,0l-1.6,-0.1l-1.6,-0.2l-1.7,-0.3l-1.5,-0.3l-1.5,-0.5l-1.5,-0.4l-1.6,-0.6l-1.5,-0.7L406.2,316l-1.3,-0.7l-1.4,-0.9l-1.2,-0.8L401,312.7l-1.2,-1.1l-1,-1.1l-1.1,-1l-0.9,-1.1l-1,-1.2L394.9,306l-0.7,-1.3l-0.8,-1.3l-0.6,-1.3l-0.5,-1.3l-0.4,-1.4L391.4,298l-0.3,-1.5L391,295.1l-0.2,-1.4l0,-1.5Z" class="g6_7" />
</svg>