<?xml version="1.0" encoding="UTF-8" standalone="no"?>
<!DOCTYPE svg PUBLIC "-//W3C//DTD SVG 1.1//EN"
"http://www.w3.org/Graphics/SVG/1.1/DTD/svg11.dtd">
<svg viewBox="0 0 935 1210" version="1.1" xmlns="http://www.w3.org/2000/svg" xmlns:xlink="http://www.w3.org/1999/xlink">
<defs>
<style type="text/css"><![CDATA[
.g1_145{
fill: none;
stroke: #000066;
stroke-width: 4.5833335;
stroke-linecap: butt;
stroke-linejoin: round;
}
.g2_145{
fill: none;
stroke: #000000;
stroke-width: 1.1458334;
stroke-linecap: butt;
stroke-linejoin: round;
}
.g3_145{
fill: none;
stroke: #203864;
stroke-width: 1.1458334;
stroke-linecap: butt;
stroke-linejoin: miter;
stroke-miterlimit: 8;
}
.g4_145{
fill: none;
stroke: #FF0000;
stroke-width: 2.2916667;
stroke-linecap: butt;
stroke-linejoin: miter;
stroke-miterlimit: 8;
}
.g5_145{
fill: #FFFFFF;
}
.g6_145{
fill: none;
stroke: #000000;
stroke-width: 0.76388764;
stroke-linecap: butt;
stroke-linejoin: round;
stroke-miterlimit: 8;
}
]]></style>
</defs>
<path d="M100.5,103.5l794.1,0" class="g1_145" />
<path d="M84.6,1142.7l772.2,0" class="g2_145" />
<image preserveAspectRatio="none" x="112" y="300" width="715" height="399" xlink:href="img/1.png" />
<path d="M111.7,699.9l716.2,0l0,-400.1l-716.2,0l0,400.1Z" class="g3_145" />
<path d="M120.3,462.1l129.5,0l0,-58.4l-129.5,0l0,58.4Z" class="g4_145" />
<path d="M134.1,626l97.4,0l0,-17.2l-97.4,0l0,17.2Z" class="g4_145" />
<path fill-rule="evenodd" d="M228,524l107.7,0l0,-48.1l-107.7,0l0,48.1Z" class="g5_145" />
<path d="M228,524l107.7,0l0,-48.1l-107.7,0l0,48.1Z" class="g6_145" />
<image preserveAspectRatio="none" x="228" y="482" width="107" height="36" xlink:href="img/2.png" />
<path fill-rule="evenodd" d="M226.9,678.7l107.7,0l0,-48.1l-107.7,0l0,48.1Z" class="g5_145" />
<path d="M226.9,678.7l107.7,0l0,-48.1l-107.7,0l0,48.1Z" class="g6_145" />
<image preserveAspectRatio="none" x="227" y="637" width="107" height="36" xlink:href="img/3.png" />
</svg>