<?xml version="1.0" encoding="UTF-8" standalone="no"?>
<!DOCTYPE svg PUBLIC "-//W3C//DTD SVG 1.1//EN"
"http://www.w3.org/Graphics/SVG/1.1/DTD/svg11.dtd">
<svg viewBox="0 0 935 1210" version="1.1" xmlns="http://www.w3.org/2000/svg" xmlns:xlink="http://www.w3.org/1999/xlink">
<defs>
<clipPath id="c0_203"><path d="M102.2,170.4l0,-59.7l356.4,0l0,59.7Z" /></clipPath>
<clipPath id="c1_203"><path d="M459.4,170.4l0,-59.7l356.4,0l0,59.7Z" /></clipPath>
<clipPath id="c2_203"><path d="M102.2,277.4l0,-57.4l356.4,0l0,57.4Z" /></clipPath>
<clipPath id="c3_203"><path d="M459.4,277.4l0,-57.4l356.4,0l0,57.4Z" /></clipPath>
<clipPath id="c4_203"><path d="M102.2,362.3l0,-62.9l356.4,0l0,62.9Z" /></clipPath>
<clipPath id="c5_203"><path d="M459.4,362.3l0,-62.9l356.4,0l0,62.9Z" /></clipPath>
<clipPath id="c6_203"><path d="M102.2,644.2l0,-23l356.4,0l0,23Z" /></clipPath>
<clipPath id="c7_203"><path d="M459.4,644.2l0,-23l356.4,0l0,23Z" /></clipPath>
<clipPath id="c8_203"><path d="M102.2,691.7l0,-23l356.4,0l0,23Z" /></clipPath>
<clipPath id="c9_203"><path d="M459.4,691.7l0,-23l356.4,0l0,23Z" /></clipPath>
<clipPath id="c10_203"><path d="M102.2,761.9l0,-45.9l356.4,0l0,45.9Z" /></clipPath>
<clipPath id="c11_203"><path d="M459.4,761.9l0,-45.9l356.4,0l0,45.9Z" /></clipPath>
<clipPath id="c12_203"><path d="M102.2,809.2l0,-22.9l356.4,0l0,22.9Z" /></clipPath>
<clipPath id="c13_203"><path d="M459.4,809.2l0,-22.9l356.4,0l0,22.9Z" /></clipPath>
<clipPath id="c14_203"><path d="M102.2,856.7l0,-23l356.4,0l0,23Z" /></clipPath>
<clipPath id="c15_203"><path d="M459.4,856.7l0,-23l356.4,0l0,23Z" /></clipPath>
<style type="text/css"><![CDATA[
.g1_203{
fill: none;
stroke: #000066;
stroke-width: 4.5833335;
stroke-linecap: butt;
stroke-linejoin: round;
}
.g2_203{
fill: none;
stroke: #000000;
stroke-width: 1.1458334;
stroke-linecap: butt;
stroke-linejoin: round;
}
.g3_203{
fill: #CCCCCC;
}
.g4_203{
}
.g5_203{
fill: #656565;
}
]]></style>
</defs>
<path d="M100.5,103.5l794.1,0" class="g1_203" />
<path d="M84.6,1142.7l772.2,0" class="g2_203" />
<path fill-rule="evenodd" d="M102.2,170.3l356.4,0l0,-59.6l-356.4,0l0,59.6Z" class="g3_203" />
<g clip-path="url(#c0_203)">
<path fill-rule="evenodd" d="M110,128.4l340.7,0l0,-17.7l-340.7,0l0,17.7Z" class="g3_203" />
</g>
<path fill-rule="evenodd" d="M459.4,170.3l356.4,0l0,-59.6l-356.4,0l0,59.6Z" class="g3_203" />
<g clip-path="url(#c1_203)">
<path fill-rule="evenodd" d="M467.2,128.4l340.7,0l0,-17.7l-340.7,0l0,17.7Z" class="g3_203" />
</g>
<path fill-rule="evenodd" d="M467.2,146l340.7,0l0,-17.6l-340.7,0l0,17.6Z" class="g3_203" />
<path fill-rule="evenodd" d="M467.2,163.6l340.7,0l0,-17.6l-340.7,0l0,17.6Z" class="g3_203" />
<path fill-rule="evenodd" d="M101.4,110.7l0.8,0l0,-0.7l-0.8,0l0,0.7Z" class="g4_203" />
<path fill-rule="evenodd" d="M101.4,110.7l0.8,0l0,-0.7l-0.8,0l0,0.7Z" class="g5_203" />
<path fill-rule="evenodd" d="M102.2,110.7l356.4,0l0,-0.7l-356.4,0l0,0.7Z" class="g5_203" />
<path fill-rule="evenodd" d="M458.6,110.7l0.8,0l0,-0.7l-0.8,0l0,0.7Z" class="g5_203" />
<path fill-rule="evenodd" d="M459.4,110.7l356.4,0l0,-0.7l-356.4,0l0,0.7Z" class="g5_203" />
<path fill-rule="evenodd" d="M815.8,110.7l0.8,0l0,-0.7l-0.8,0l0,0.7Z" class="g4_203" />
<path fill-rule="evenodd" d="M815.8,110.7l0.8,0l0,-0.7l-0.8,0l0,0.7Z" class="g5_203" />
<path fill-rule="evenodd" d="M101.4,170.3l0.8,0l0,-59.6l-0.8,0l0,59.6Z" class="g4_203" />
<path fill-rule="evenodd" d="M458.6,170.3l0.8,0l0,-59.6l-0.8,0l0,59.6Z" class="g5_203" />
<path fill-rule="evenodd" d="M815.8,170.3l0.8,0l0,-59.6l-0.8,0l0,59.6Z" class="g4_203" />
<path fill-rule="evenodd" d="M101.4,171.1l0.8,0l0,-0.8l-0.8,0l0,0.8Z" class="g4_203" />
<path fill-rule="evenodd" d="M102.2,171.1l356.4,0l0,-0.8l-356.4,0l0,0.8Z" class="g5_203" />
<path fill-rule="evenodd" d="M458.6,171.1l0.8,0l0,-0.8l-0.8,0l0,0.8Z" class="g5_203" />
<path fill-rule="evenodd" d="M459.4,171.1l356.4,0l0,-0.8l-356.4,0l0,0.8Z" class="g5_203" />
<path fill-rule="evenodd" d="M815.8,171.1l0.8,0l0,-0.8l-0.8,0l0,0.8Z" class="g4_203" />
<path fill-rule="evenodd" d="M101.4,219.3l0.8,0l0,-48.2l-0.8,0l0,48.2Z" class="g4_203" />
<path fill-rule="evenodd" d="M458.6,219.3l0.8,0l0,-48.2l-0.8,0l0,48.2Z" class="g5_203" />
<path fill-rule="evenodd" d="M815.8,219.3l0.8,0l0,-48.2l-0.8,0l0,48.2Z" class="g4_203" />
<path fill-rule="evenodd" d="M102.2,277.4l356.4,0l0,-57.4l-356.4,0l0,57.4Z" class="g3_203" />
<g clip-path="url(#c2_203)">
<path fill-rule="evenodd" d="M110,237.6l340.7,0l0,-17.6L110,220l0,17.6Z" class="g3_203" />
</g>
<path fill-rule="evenodd" d="M459.4,277.4l356.4,0l0,-57.4l-356.4,0l0,57.4Z" class="g3_203" />
<g clip-path="url(#c3_203)">
<path fill-rule="evenodd" d="M467.2,237.6l340.7,0l0,-17.6l-340.7,0l0,17.6Z" class="g3_203" />
</g>
<path fill-rule="evenodd" d="M101.4,220l0.8,0l0,-0.7l-0.8,0l0,0.7Z" class="g4_203" />
<path fill-rule="evenodd" d="M102.2,220l356.4,0l0,-0.7l-356.4,0l0,0.7Z" class="g5_203" />
<path fill-rule="evenodd" d="M458.6,220l0.8,0l0,-0.7l-0.8,0l0,0.7Z" class="g5_203" />
<path fill-rule="evenodd" d="M459.4,220l356.4,0l0,-0.7l-356.4,0l0,0.7Z" class="g5_203" />
<path fill-rule="evenodd" d="M815.8,220l0.8,0l0,-0.7l-0.8,0l0,0.7Z" class="g4_203" />
<path fill-rule="evenodd" d="M101.4,277.4l0.8,0l0,-57.4l-0.8,0l0,57.4Z" class="g4_203" />
<path fill-rule="evenodd" d="M458.6,277.4l0.8,0l0,-57.4l-0.8,0l0,57.4Z" class="g5_203" />
<path fill-rule="evenodd" d="M815.8,277.4l0.8,0l0,-57.4l-0.8,0l0,57.4Z" class="g4_203" />
<path fill-rule="evenodd" d="M101.4,278.1l0.8,0l0,-0.7l-0.8,0l0,0.7Z" class="g4_203" />
<path fill-rule="evenodd" d="M102.2,278.1l356.4,0l0,-0.7l-356.4,0l0,0.7Z" class="g5_203" />
<path fill-rule="evenodd" d="M458.6,278.1l0.8,0l0,-0.7l-0.8,0l0,0.7Z" class="g5_203" />
<path fill-rule="evenodd" d="M459.4,278.1l356.4,0l0,-0.7l-356.4,0l0,0.7Z" class="g5_203" />
<path fill-rule="evenodd" d="M815.8,278.1l0.8,0l0,-0.7l-0.8,0l0,0.7Z" class="g4_203" />
<path fill-rule="evenodd" d="M101.4,298.7l0.8,0l0,-20.6l-0.8,0l0,20.6Z" class="g4_203" />
<path fill-rule="evenodd" d="M458.6,298.7l0.8,0l0,-20.6l-0.8,0l0,20.6Z" class="g5_203" />
<path fill-rule="evenodd" d="M815.8,298.7l0.8,0l0,-20.6l-0.8,0l0,20.6Z" class="g4_203" />
<path fill-rule="evenodd" d="M102.2,362.3l356.4,0l0,-62.9l-356.4,0l0,62.9Z" class="g3_203" />
<g clip-path="url(#c4_203)">
<path fill-rule="evenodd" d="M110,317l340.7,0l0,-17.6l-340.7,0l0,17.6Z" class="g3_203" />
</g>
<path fill-rule="evenodd" d="M459.4,362.3l356.4,0l0,-62.9l-356.4,0l0,62.9Z" class="g3_203" />
<g clip-path="url(#c5_203)">
<path fill-rule="evenodd" d="M467.2,317l340.7,0l0,-17.6l-340.7,0l0,17.6Z" class="g3_203" />
</g>
<path fill-rule="evenodd" d="M467.2,334.4l340.7,0l0,-17.4l-340.7,0l0,17.4Z" class="g3_203" />
<path fill-rule="evenodd" d="M467.2,352l340.7,0l0,-17.6l-340.7,0l0,17.6Z" class="g3_203" />
<path fill-rule="evenodd" d="M101.4,299.4l0.8,0l0,-0.7l-0.8,0l0,0.7Z" class="g4_203" />
<path fill-rule="evenodd" d="M102.2,299.4l356.4,0l0,-0.7l-356.4,0l0,0.7Z" class="g5_203" />
<path fill-rule="evenodd" d="M458.6,299.4l0.8,0l0,-0.7l-0.8,0l0,0.7Z" class="g5_203" />
<path fill-rule="evenodd" d="M459.4,299.4l356.4,0l0,-0.7l-356.4,0l0,0.7Z" class="g5_203" />
<path fill-rule="evenodd" d="M815.8,299.4l0.8,0l0,-0.7l-0.8,0l0,0.7Z" class="g4_203" />
<path fill-rule="evenodd" d="M101.4,362.3l0.8,0l0,-62.9l-0.8,0l0,62.9Z" class="g4_203" />
<path fill-rule="evenodd" d="M458.6,362.3l0.8,0l0,-62.9l-0.8,0l0,62.9Z" class="g5_203" />
<path fill-rule="evenodd" d="M815.8,362.3l0.8,0l0,-62.9l-0.8,0l0,62.9Z" class="g4_203" />
<path fill-rule="evenodd" d="M101.4,363l0.8,0l0,-0.7l-0.8,0l0,0.7Z" class="g4_203" />
<path fill-rule="evenodd" d="M102.2,363l356.4,0l0,-0.7l-356.4,0l0,0.7Z" class="g5_203" />
<path fill-rule="evenodd" d="M458.6,363l0.8,0l0,-0.7l-0.8,0l0,0.7Z" class="g5_203" />
<path fill-rule="evenodd" d="M459.4,363l356.4,0l0,-0.7l-356.4,0l0,0.7Z" class="g5_203" />
<path fill-rule="evenodd" d="M815.8,363l0.8,0l0,-0.7l-0.8,0l0,0.7Z" class="g4_203" />
<path fill-rule="evenodd" d="M101.4,383.7l0.8,0l0,-20.7l-0.8,0l0,20.7Z" class="g4_203" />
<path fill-rule="evenodd" d="M458.6,383.7l0.8,0l0,-20.7l-0.8,0l0,20.7Z" class="g5_203" />
<path fill-rule="evenodd" d="M815.8,383.7l0.8,0l0,-20.7l-0.8,0l0,20.7Z" class="g4_203" />
<path fill-rule="evenodd" d="M102.2,407.4l356.4,0l0,-22.9l-356.4,0l0,22.9Z" class="g3_203" />
<path fill-rule="evenodd" d="M110,405.1l340.7,0l0,-20.6l-340.7,0l0,20.6Z" class="g3_203" />
<path fill-rule="evenodd" d="M459.4,407.4l356.4,0l0,-22.9l-356.4,0l0,22.9Z" class="g3_203" />
<path fill-rule="evenodd" d="M467.2,405.1l340.7,0l0,-20.6l-340.7,0l0,20.6Z" class="g3_203" />
<path fill-rule="evenodd" d="M101.4,384.5l0.8,0l0,-0.7l-0.8,0l0,0.7Z" class="g4_203" />
<path fill-rule="evenodd" d="M102.2,384.5l356.4,0l0,-0.7l-356.4,0l0,0.7Z" class="g5_203" />
<path fill-rule="evenodd" d="M458.6,384.5l0.8,0l0,-0.7l-0.8,0l0,0.7Z" class="g5_203" />
<path fill-rule="evenodd" d="M459.4,384.5l356.4,0l0,-0.7l-356.4,0l0,0.7Z" class="g5_203" />
<path fill-rule="evenodd" d="M815.8,384.5l0.8,0l0,-0.7l-0.8,0l0,0.7Z" class="g4_203" />
<path fill-rule="evenodd" d="M101.4,407.4l0.8,0l0,-22.9l-0.8,0l0,22.9Z" class="g4_203" />
<path fill-rule="evenodd" d="M458.6,407.4l0.8,0l0,-22.9l-0.8,0l0,22.9Z" class="g5_203" />
<path fill-rule="evenodd" d="M815.8,407.4l0.8,0l0,-22.9l-0.8,0l0,22.9Z" class="g4_203" />
<path fill-rule="evenodd" d="M101.4,408.2l0.8,0l0,-0.8l-0.8,0l0,0.8Z" class="g4_203" />
<path fill-rule="evenodd" d="M102.2,408.2l356.4,0l0,-0.8l-356.4,0l0,0.8Z" class="g5_203" />
<path fill-rule="evenodd" d="M458.6,408.2l0.8,0l0,-0.8l-0.8,0l0,0.8Z" class="g5_203" />
<path fill-rule="evenodd" d="M459.4,408.2l356.4,0l0,-0.8l-356.4,0l0,0.8Z" class="g5_203" />
<path fill-rule="evenodd" d="M815.8,408.2l0.8,0l0,-0.8l-0.8,0l0,0.8Z" class="g4_203" />
<path fill-rule="evenodd" d="M101.4,431.1l0.8,0l0,-22.9l-0.8,0l0,22.9Z" class="g4_203" />
<path fill-rule="evenodd" d="M458.6,431.1l0.8,0l0,-22.9l-0.8,0l0,22.9Z" class="g5_203" />
<path fill-rule="evenodd" d="M815.8,431.1l0.8,0l0,-22.9l-0.8,0l0,22.9Z" class="g4_203" />
<path fill-rule="evenodd" d="M102.2,454.7l356.4,0l0,-22.9l-356.4,0l0,22.9Z" class="g3_203" />
<path fill-rule="evenodd" d="M110,452.4l340.7,0l0,-20.6l-340.7,0l0,20.6Z" class="g3_203" />
<path fill-rule="evenodd" d="M459.4,454.7l356.4,0l0,-22.9l-356.4,0l0,22.9Z" class="g3_203" />
<path fill-rule="evenodd" d="M467.2,452.4l340.7,0l0,-20.6l-340.7,0l0,20.6Z" class="g3_203" />
<path fill-rule="evenodd" d="M101.4,431.8l0.8,0l0,-0.7l-0.8,0l0,0.7Z" class="g4_203" />
<path fill-rule="evenodd" d="M102.2,431.8l356.4,0l0,-0.7l-356.4,0l0,0.7Z" class="g5_203" />
<path fill-rule="evenodd" d="M458.6,431.8l0.8,0l0,-0.7l-0.8,0l0,0.7Z" class="g5_203" />
<path fill-rule="evenodd" d="M459.4,431.8l356.4,0l0,-0.7l-356.4,0l0,0.7Z" class="g5_203" />
<path fill-rule="evenodd" d="M815.8,431.8l0.8,0l0,-0.7l-0.8,0l0,0.7Z" class="g4_203" />
<path fill-rule="evenodd" d="M101.4,454.7l0.8,0l0,-22.9l-0.8,0l0,22.9Z" class="g4_203" />
<path fill-rule="evenodd" d="M458.6,454.7l0.8,0l0,-22.9l-0.8,0l0,22.9Z" class="g5_203" />
<path fill-rule="evenodd" d="M815.8,454.7l0.8,0l0,-22.9l-0.8,0l0,22.9Z" class="g4_203" />
<path fill-rule="evenodd" d="M101.4,455.5l0.8,0l0,-0.8l-0.8,0l0,0.8Z" class="g4_203" />
<path fill-rule="evenodd" d="M102.2,455.5l356.4,0l0,-0.8l-356.4,0l0,0.8Z" class="g5_203" />
<path fill-rule="evenodd" d="M458.6,455.5l0.8,0l0,-0.8l-0.8,0l0,0.8Z" class="g5_203" />
<path fill-rule="evenodd" d="M459.4,455.5l356.4,0l0,-0.8l-356.4,0l0,0.8Z" class="g5_203" />
<path fill-rule="evenodd" d="M815.8,455.5l0.8,0l0,-0.8l-0.8,0l0,0.8Z" class="g4_203" />
<path fill-rule="evenodd" d="M101.4,478.4l0.8,0l0,-22.9l-0.8,0l0,22.9Z" class="g4_203" />
<path fill-rule="evenodd" d="M458.6,478.4l0.8,0l0,-22.9l-0.8,0l0,22.9Z" class="g5_203" />
<path fill-rule="evenodd" d="M815.8,478.4l0.8,0l0,-22.9l-0.8,0l0,22.9Z" class="g4_203" />
<path fill-rule="evenodd" d="M102.2,502l356.4,0l0,-22.9l-356.4,0l0,22.9Z" class="g3_203" />
<path fill-rule="evenodd" d="M110,499.7l340.7,0l0,-20.6l-340.7,0l0,20.6Z" class="g3_203" />
<path fill-rule="evenodd" d="M459.4,502l356.4,0l0,-22.9l-356.4,0l0,22.9Z" class="g3_203" />
<path fill-rule="evenodd" d="M467.2,499.7l340.7,0l0,-20.6l-340.7,0l0,20.6Z" class="g3_203" />
<path fill-rule="evenodd" d="M101.4,479.1l0.8,0l0,-0.7l-0.8,0l0,0.7Z" class="g4_203" />
<path fill-rule="evenodd" d="M102.2,479.1l356.4,0l0,-0.7l-356.4,0l0,0.7Z" class="g5_203" />
<path fill-rule="evenodd" d="M458.6,479.1l0.8,0l0,-0.7l-0.8,0l0,0.7Z" class="g5_203" />
<path fill-rule="evenodd" d="M459.4,479.1l356.4,0l0,-0.7l-356.4,0l0,0.7Z" class="g5_203" />
<path fill-rule="evenodd" d="M815.8,479.1l0.8,0l0,-0.7l-0.8,0l0,0.7Z" class="g4_203" />
<path fill-rule="evenodd" d="M101.4,502l0.8,0l0,-22.9l-0.8,0l0,22.9Z" class="g4_203" />
<path fill-rule="evenodd" d="M458.6,502l0.8,0l0,-22.9l-0.8,0l0,22.9Z" class="g5_203" />
<path fill-rule="evenodd" d="M815.8,502l0.8,0l0,-22.9l-0.8,0l0,22.9Z" class="g4_203" />
<path fill-rule="evenodd" d="M101.4,502.8l0.8,0l0,-0.8l-0.8,0l0,0.8Z" class="g4_203" />
<path fill-rule="evenodd" d="M102.2,502.8l356.4,0l0,-0.8l-356.4,0l0,0.8Z" class="g5_203" />
<path fill-rule="evenodd" d="M458.6,502.8l0.8,0l0,-0.8l-0.8,0l0,0.8Z" class="g5_203" />
<path fill-rule="evenodd" d="M459.4,502.8l356.4,0l0,-0.8l-356.4,0l0,0.8Z" class="g5_203" />
<path fill-rule="evenodd" d="M815.8,502.8l0.8,0l0,-0.8l-0.8,0l0,0.8Z" class="g4_203" />
<path fill-rule="evenodd" d="M101.4,525.9l0.8,0l0,-23.1l-0.8,0l0,23.1Z" class="g4_203" />
<path fill-rule="evenodd" d="M458.6,525.9l0.8,0l0,-23.1l-0.8,0l0,23.1Z" class="g5_203" />
<path fill-rule="evenodd" d="M815.8,525.9l0.8,0l0,-23.1l-0.8,0l0,23.1Z" class="g4_203" />
<path fill-rule="evenodd" d="M102.2,549.5l356.4,0l0,-22.9l-356.4,0l0,22.9Z" class="g3_203" />
<path fill-rule="evenodd" d="M110,547.1l340.7,0l0,-20.5l-340.7,0l0,20.5Z" class="g3_203" />
<path fill-rule="evenodd" d="M459.4,549.5l356.4,0l0,-22.9l-356.4,0l0,22.9Z" class="g3_203" />
<path fill-rule="evenodd" d="M467.2,547.1l340.7,0l0,-20.5l-340.7,0l0,20.5Z" class="g3_203" />
<path fill-rule="evenodd" d="M101.4,526.6l0.8,0l0,-0.7l-0.8,0l0,0.7Z" class="g4_203" />
<path fill-rule="evenodd" d="M102.2,526.6l356.4,0l0,-0.7l-356.4,0l0,0.7Z" class="g5_203" />
<path fill-rule="evenodd" d="M458.6,526.6l0.8,0l0,-0.7l-0.8,0l0,0.7Z" class="g5_203" />
<path fill-rule="evenodd" d="M459.4,526.6l356.4,0l0,-0.7l-356.4,0l0,0.7Z" class="g5_203" />
<path fill-rule="evenodd" d="M815.8,526.6l0.8,0l0,-0.7l-0.8,0l0,0.7Z" class="g4_203" />
<path fill-rule="evenodd" d="M101.4,549.5l0.8,0l0,-22.9l-0.8,0l0,22.9Z" class="g4_203" />
<path fill-rule="evenodd" d="M458.6,549.5l0.8,0l0,-22.9l-0.8,0l0,22.9Z" class="g5_203" />
<path fill-rule="evenodd" d="M815.8,549.5l0.8,0l0,-22.9l-0.8,0l0,22.9Z" class="g4_203" />
<path fill-rule="evenodd" d="M101.4,550.3l0.8,0l0,-0.8l-0.8,0l0,0.8Z" class="g4_203" />
<path fill-rule="evenodd" d="M102.2,550.3l356.4,0l0,-0.8l-356.4,0l0,0.8Z" class="g5_203" />
<path fill-rule="evenodd" d="M458.6,550.3l0.8,0l0,-0.8l-0.8,0l0,0.8Z" class="g5_203" />
<path fill-rule="evenodd" d="M459.4,550.3l356.4,0l0,-0.8l-356.4,0l0,0.8Z" class="g5_203" />
<path fill-rule="evenodd" d="M815.8,550.3l0.8,0l0,-0.8l-0.8,0l0,0.8Z" class="g4_203" />
<path fill-rule="evenodd" d="M101.4,573.2l0.8,0l0,-22.9l-0.8,0l0,22.9Z" class="g4_203" />
<path fill-rule="evenodd" d="M458.6,573.2l0.8,0l0,-22.9l-0.8,0l0,22.9Z" class="g5_203" />
<path fill-rule="evenodd" d="M815.8,573.2l0.8,0l0,-22.9l-0.8,0l0,22.9Z" class="g4_203" />
<path fill-rule="evenodd" d="M102.2,596.8l356.4,0l0,-22.9l-356.4,0l0,22.9Z" class="g3_203" />
<path fill-rule="evenodd" d="M110,594.4l340.7,0l0,-20.5l-340.7,0l0,20.5Z" class="g3_203" />
<path fill-rule="evenodd" d="M459.4,596.8l356.4,0l0,-22.9l-356.4,0l0,22.9Z" class="g3_203" />
<path fill-rule="evenodd" d="M467.2,594.4l340.7,0l0,-20.5l-340.7,0l0,20.5Z" class="g3_203" />
<path fill-rule="evenodd" d="M101.4,573.9l0.8,0l0,-0.7l-0.8,0l0,0.7Z" class="g4_203" />
<path fill-rule="evenodd" d="M102.2,573.9l356.4,0l0,-0.7l-356.4,0l0,0.7Z" class="g5_203" />
<path fill-rule="evenodd" d="M458.6,573.9l0.8,0l0,-0.7l-0.8,0l0,0.7Z" class="g5_203" />
<path fill-rule="evenodd" d="M459.4,573.9l356.4,0l0,-0.7l-356.4,0l0,0.7Z" class="g5_203" />
<path fill-rule="evenodd" d="M815.8,573.9l0.8,0l0,-0.7l-0.8,0l0,0.7Z" class="g4_203" />
<path fill-rule="evenodd" d="M101.4,596.8l0.8,0l0,-22.9l-0.8,0l0,22.9Z" class="g4_203" />
<path fill-rule="evenodd" d="M458.6,596.8l0.8,0l0,-22.9l-0.8,0l0,22.9Z" class="g5_203" />
<path fill-rule="evenodd" d="M815.8,596.8l0.8,0l0,-22.9l-0.8,0l0,22.9Z" class="g4_203" />
<path fill-rule="evenodd" d="M101.4,597.6l0.8,0l0,-0.8l-0.8,0l0,0.8Z" class="g4_203" />
<path fill-rule="evenodd" d="M102.2,597.6l356.4,0l0,-0.8l-356.4,0l0,0.8Z" class="g5_203" />
<path fill-rule="evenodd" d="M458.6,597.6l0.8,0l0,-0.8l-0.8,0l0,0.8Z" class="g5_203" />
<path fill-rule="evenodd" d="M459.4,597.6l356.4,0l0,-0.8l-356.4,0l0,0.8Z" class="g5_203" />
<path fill-rule="evenodd" d="M815.8,597.6l0.8,0l0,-0.8l-0.8,0l0,0.8Z" class="g4_203" />
<path fill-rule="evenodd" d="M101.4,620.5l0.8,0l0,-22.9l-0.8,0l0,22.9Z" class="g4_203" />
<path fill-rule="evenodd" d="M458.6,620.5l0.8,0l0,-22.9l-0.8,0l0,22.9Z" class="g5_203" />
<path fill-rule="evenodd" d="M815.8,620.5l0.8,0l0,-22.9l-0.8,0l0,22.9Z" class="g4_203" />
<path fill-rule="evenodd" d="M102.2,644.2l356.4,0l0,-23l-356.4,0l0,23Z" class="g3_203" />
<g clip-path="url(#c6_203)">
<path fill-rule="evenodd" d="M110,641.8l340.7,0l0,-20.6l-340.7,0l0,20.6Z" class="g3_203" />
</g>
<path fill-rule="evenodd" d="M459.4,644.2l356.4,0l0,-23l-356.4,0l0,23Z" class="g3_203" />
<g clip-path="url(#c7_203)">
<path fill-rule="evenodd" d="M467.2,641.8l340.7,0l0,-20.6l-340.7,0l0,20.6Z" class="g3_203" />
</g>
<path fill-rule="evenodd" d="M101.4,621.2l0.8,0l0,-0.7l-0.8,0l0,0.7Z" class="g4_203" />
<path fill-rule="evenodd" d="M102.2,621.2l356.4,0l0,-0.7l-356.4,0l0,0.7Z" class="g5_203" />
<path fill-rule="evenodd" d="M458.6,621.2l0.8,0l0,-0.7l-0.8,0l0,0.7Z" class="g5_203" />
<path fill-rule="evenodd" d="M459.4,621.2l356.4,0l0,-0.7l-356.4,0l0,0.7Z" class="g5_203" />
<path fill-rule="evenodd" d="M815.8,621.2l0.8,0l0,-0.7l-0.8,0l0,0.7Z" class="g4_203" />
<path fill-rule="evenodd" d="M101.4,644.2l0.8,0l0,-23l-0.8,0l0,23Z" class="g4_203" />
<path fill-rule="evenodd" d="M458.6,644.2l0.8,0l0,-23l-0.8,0l0,23Z" class="g5_203" />
<path fill-rule="evenodd" d="M815.8,644.2l0.8,0l0,-23l-0.8,0l0,23Z" class="g4_203" />
<path fill-rule="evenodd" d="M101.4,644.9l0.8,0l0,-0.7l-0.8,0l0,0.7Z" class="g4_203" />
<path fill-rule="evenodd" d="M102.2,644.9l356.4,0l0,-0.7l-356.4,0l0,0.7Z" class="g5_203" />
<path fill-rule="evenodd" d="M458.6,644.9l0.8,0l0,-0.7l-0.8,0l0,0.7Z" class="g5_203" />
<path fill-rule="evenodd" d="M459.4,644.9l356.4,0l0,-0.7l-356.4,0l0,0.7Z" class="g5_203" />
<path fill-rule="evenodd" d="M815.8,644.9l0.8,0l0,-0.7l-0.8,0l0,0.7Z" class="g4_203" />
<path fill-rule="evenodd" d="M101.4,668l0.8,0l0,-23.1l-0.8,0l0,23.1Z" class="g4_203" />
<path fill-rule="evenodd" d="M458.6,668l0.8,0l0,-23.1l-0.8,0l0,23.1Z" class="g5_203" />
<path fill-rule="evenodd" d="M815.8,668l0.8,0l0,-23.1l-0.8,0l0,23.1Z" class="g4_203" />
<path fill-rule="evenodd" d="M102.2,691.6l356.4,0l0,-22.9l-356.4,0l0,22.9Z" class="g3_203" />
<g clip-path="url(#c8_203)">
<path fill-rule="evenodd" d="M110,689.3l340.7,0l0,-20.6l-340.7,0l0,20.6Z" class="g3_203" />
</g>
<path fill-rule="evenodd" d="M459.4,691.6l356.4,0l0,-22.9l-356.4,0l0,22.9Z" class="g3_203" />
<g clip-path="url(#c9_203)">
<path fill-rule="evenodd" d="M467.2,689.3l340.7,0l0,-20.6l-340.7,0l0,20.6Z" class="g3_203" />
</g>
<path fill-rule="evenodd" d="M101.4,668.7l0.8,0l0,-0.7l-0.8,0l0,0.7Z" class="g4_203" />
<path fill-rule="evenodd" d="M102.2,668.7l356.4,0l0,-0.7l-356.4,0l0,0.7Z" class="g5_203" />
<path fill-rule="evenodd" d="M458.6,668.7l0.8,0l0,-0.7l-0.8,0l0,0.7Z" class="g5_203" />
<path fill-rule="evenodd" d="M459.4,668.7l356.4,0l0,-0.7l-356.4,0l0,0.7Z" class="g5_203" />
<path fill-rule="evenodd" d="M815.8,668.7l0.8,0l0,-0.7l-0.8,0l0,0.7Z" class="g4_203" />
<path fill-rule="evenodd" d="M101.4,691.6l0.8,0l0,-22.9l-0.8,0l0,22.9Z" class="g4_203" />
<path fill-rule="evenodd" d="M458.6,691.6l0.8,0l0,-22.9l-0.8,0l0,22.9Z" class="g5_203" />
<path fill-rule="evenodd" d="M815.8,691.6l0.8,0l0,-22.9l-0.8,0l0,22.9Z" class="g4_203" />
<path fill-rule="evenodd" d="M101.4,692.4l0.8,0l0,-0.8l-0.8,0l0,0.8Z" class="g4_203" />
<path fill-rule="evenodd" d="M102.2,692.4l356.4,0l0,-0.8l-356.4,0l0,0.8Z" class="g5_203" />
<path fill-rule="evenodd" d="M458.6,692.4l0.8,0l0,-0.8l-0.8,0l0,0.8Z" class="g5_203" />
<path fill-rule="evenodd" d="M459.4,692.4l356.4,0l0,-0.8l-356.4,0l0,0.8Z" class="g5_203" />
<path fill-rule="evenodd" d="M815.8,692.4l0.8,0l0,-0.8l-0.8,0l0,0.8Z" class="g4_203" />
<path fill-rule="evenodd" d="M101.4,715.3l0.8,0l0,-22.9l-0.8,0l0,22.9Z" class="g4_203" />
<path fill-rule="evenodd" d="M458.6,715.3l0.8,0l0,-22.9l-0.8,0l0,22.9Z" class="g5_203" />
<path fill-rule="evenodd" d="M815.8,715.3l0.8,0l0,-22.9l-0.8,0l0,22.9Z" class="g4_203" />
<path fill-rule="evenodd" d="M102.2,761.9l356.4,0l0,-45.9l-356.4,0l0,45.9Z" class="g3_203" />
<g clip-path="url(#c10_203)">
<path fill-rule="evenodd" d="M110,736.6l340.7,0l0,-20.6L110,716l0,20.6Z" class="g3_203" />
</g>
<path fill-rule="evenodd" d="M459.4,761.9l356.4,0l0,-45.9l-356.4,0l0,45.9Z" class="g3_203" />
<g clip-path="url(#c11_203)">
<path fill-rule="evenodd" d="M467.2,736.6l340.7,0l0,-20.6l-340.7,0l0,20.6Z" class="g3_203" />
</g>
<path fill-rule="evenodd" d="M467.2,757.1l340.7,0l0,-20.5l-340.7,0l0,20.5Z" class="g3_203" />
<path fill-rule="evenodd" d="M101.4,716l0.8,0l0,-0.7l-0.8,0l0,0.7Z" class="g4_203" />
<path fill-rule="evenodd" d="M102.2,716l356.4,0l0,-0.7l-356.4,0l0,0.7Z" class="g5_203" />
<path fill-rule="evenodd" d="M458.6,716l0.8,0l0,-0.7l-0.8,0l0,0.7Z" class="g5_203" />
<path fill-rule="evenodd" d="M459.4,716l356.4,0l0,-0.7l-356.4,0l0,0.7Z" class="g5_203" />
<path fill-rule="evenodd" d="M815.8,716l0.8,0l0,-0.7l-0.8,0l0,0.7Z" class="g4_203" />
<path fill-rule="evenodd" d="M101.4,761.9l0.8,0l0,-45.9l-0.8,0l0,45.9Z" class="g4_203" />
<path fill-rule="evenodd" d="M458.6,761.9l0.8,0l0,-45.9l-0.8,0l0,45.9Z" class="g5_203" />
<path fill-rule="evenodd" d="M815.8,761.9l0.8,0l0,-45.9l-0.8,0l0,45.9Z" class="g4_203" />
<path fill-rule="evenodd" d="M101.4,762.6l0.8,0l0,-0.7l-0.8,0l0,0.7Z" class="g4_203" />
<path fill-rule="evenodd" d="M102.2,762.6l356.4,0l0,-0.7l-356.4,0l0,0.7Z" class="g5_203" />
<path fill-rule="evenodd" d="M458.6,762.6l0.8,0l0,-0.7l-0.8,0l0,0.7Z" class="g5_203" />
<path fill-rule="evenodd" d="M459.4,762.6l356.4,0l0,-0.7l-356.4,0l0,0.7Z" class="g5_203" />
<path fill-rule="evenodd" d="M815.8,762.6l0.8,0l0,-0.7l-0.8,0l0,0.7Z" class="g4_203" />
<path fill-rule="evenodd" d="M101.4,785.5l0.8,0l0,-22.9l-0.8,0l0,22.9Z" class="g4_203" />
<path fill-rule="evenodd" d="M458.6,785.5l0.8,0l0,-22.9l-0.8,0l0,22.9Z" class="g5_203" />
<path fill-rule="evenodd" d="M815.8,785.5l0.8,0l0,-22.9l-0.8,0l0,22.9Z" class="g4_203" />
<path fill-rule="evenodd" d="M102.2,809.2l356.4,0l0,-23l-356.4,0l0,23Z" class="g3_203" />
<g clip-path="url(#c12_203)">
<path fill-rule="evenodd" d="M110,806.8l340.7,0l0,-20.6l-340.7,0l0,20.6Z" class="g3_203" />
</g>
<path fill-rule="evenodd" d="M459.4,809.2l356.4,0l0,-23l-356.4,0l0,23Z" class="g3_203" />
<g clip-path="url(#c13_203)">
<path fill-rule="evenodd" d="M467.2,806.8l340.7,0l0,-20.6l-340.7,0l0,20.6Z" class="g3_203" />
</g>
<path fill-rule="evenodd" d="M101.4,786.2l0.8,0l0,-0.7l-0.8,0l0,0.7Z" class="g4_203" />
<path fill-rule="evenodd" d="M102.2,786.2l356.4,0l0,-0.7l-356.4,0l0,0.7Z" class="g5_203" />
<path fill-rule="evenodd" d="M458.6,786.2l0.8,0l0,-0.7l-0.8,0l0,0.7Z" class="g5_203" />
<path fill-rule="evenodd" d="M459.4,786.2l356.4,0l0,-0.7l-356.4,0l0,0.7Z" class="g5_203" />
<path fill-rule="evenodd" d="M815.8,786.2l0.8,0l0,-0.7l-0.8,0l0,0.7Z" class="g4_203" />
<path fill-rule="evenodd" d="M101.4,809.2l0.8,0l0,-23l-0.8,0l0,23Z" class="g4_203" />
<path fill-rule="evenodd" d="M458.6,809.2l0.8,0l0,-23l-0.8,0l0,23Z" class="g5_203" />
<path fill-rule="evenodd" d="M815.8,809.2l0.8,0l0,-23l-0.8,0l0,23Z" class="g4_203" />
<path fill-rule="evenodd" d="M101.4,809.9l0.8,0l0,-0.7l-0.8,0l0,0.7Z" class="g4_203" />
<path fill-rule="evenodd" d="M102.2,809.9l356.4,0l0,-0.7l-356.4,0l0,0.7Z" class="g5_203" />
<path fill-rule="evenodd" d="M458.6,809.9l0.8,0l0,-0.7l-0.8,0l0,0.7Z" class="g5_203" />
<path fill-rule="evenodd" d="M459.4,809.9l356.4,0l0,-0.7l-356.4,0l0,0.7Z" class="g5_203" />
<path fill-rule="evenodd" d="M815.8,809.9l0.8,0l0,-0.7l-0.8,0l0,0.7Z" class="g4_203" />
<path fill-rule="evenodd" d="M101.4,833l0.8,0l0,-23.1l-0.8,0l0,23.1Z" class="g4_203" />
<path fill-rule="evenodd" d="M458.6,833l0.8,0l0,-23.1l-0.8,0l0,23.1Z" class="g5_203" />
<path fill-rule="evenodd" d="M815.8,833l0.8,0l0,-23.1l-0.8,0l0,23.1Z" class="g4_203" />
<path fill-rule="evenodd" d="M102.2,856.6l356.4,0l0,-22.9l-356.4,0l0,22.9Z" class="g3_203" />
<g clip-path="url(#c14_203)">
<path fill-rule="evenodd" d="M110,854.3l340.7,0l0,-20.6l-340.7,0l0,20.6Z" class="g3_203" />
</g>
<path fill-rule="evenodd" d="M459.4,856.6l356.4,0l0,-22.9l-356.4,0l0,22.9Z" class="g3_203" />
<g clip-path="url(#c15_203)">
<path fill-rule="evenodd" d="M467.2,854.3l340.7,0l0,-20.6l-340.7,0l0,20.6Z" class="g3_203" />
</g>
<path fill-rule="evenodd" d="M101.4,833.7l0.8,0l0,-0.7l-0.8,0l0,0.7Z" class="g4_203" />
<path fill-rule="evenodd" d="M102.2,833.7l356.4,0l0,-0.7l-356.4,0l0,0.7Z" class="g5_203" />
<path fill-rule="evenodd" d="M458.6,833.7l0.8,0l0,-0.7l-0.8,0l0,0.7Z" class="g5_203" />
<path fill-rule="evenodd" d="M459.4,833.7l356.4,0l0,-0.7l-356.4,0l0,0.7Z" class="g5_203" />
<path fill-rule="evenodd" d="M815.8,833.7l0.8,0l0,-0.7l-0.8,0l0,0.7Z" class="g4_203" />
<path fill-rule="evenodd" d="M101.4,856.6l0.8,0l0,-22.9l-0.8,0l0,22.9Z" class="g4_203" />
<path fill-rule="evenodd" d="M458.6,856.6l0.8,0l0,-22.9l-0.8,0l0,22.9Z" class="g5_203" />
<path fill-rule="evenodd" d="M815.8,856.6l0.8,0l0,-22.9l-0.8,0l0,22.9Z" class="g4_203" />
<path fill-rule="evenodd" d="M101.4,857.4l0.8,0l0,-0.8l-0.8,0l0,0.8Z" class="g4_203" />
<path fill-rule="evenodd" d="M102.2,857.4l356.4,0l0,-0.8l-356.4,0l0,0.8Z" class="g5_203" />
<path fill-rule="evenodd" d="M458.6,857.4l0.8,0l0,-0.8l-0.8,0l0,0.8Z" class="g5_203" />
<path fill-rule="evenodd" d="M459.4,857.4l356.4,0l0,-0.8l-356.4,0l0,0.8Z" class="g5_203" />
<path fill-rule="evenodd" d="M815.8,857.4l0.8,0l0,-0.8l-0.8,0l0,0.8Z" class="g4_203" />
<path fill-rule="evenodd" d="M101.4,880.3l0.8,0l0,-22.9l-0.8,0l0,22.9Z" class="g4_203" />
<path fill-rule="evenodd" d="M458.6,880.3l0.8,0l0,-22.9l-0.8,0l0,22.9Z" class="g5_203" />
<path fill-rule="evenodd" d="M815.8,880.3l0.8,0l0,-22.9l-0.8,0l0,22.9Z" class="g4_203" />
<path fill-rule="evenodd" d="M102.2,926.9l356.4,0l0,-45.9l-356.4,0l0,45.9Z" class="g3_203" />
<path fill-rule="evenodd" d="M110,901.6l340.7,0l0,-20.6L110,881l0,20.6Z" class="g3_203" />
<path fill-rule="evenodd" d="M459.4,926.9l356.4,0l0,-45.9l-356.4,0l0,45.9Z" class="g3_203" />
<path fill-rule="evenodd" d="M467.2,901.6l340.7,0l0,-20.6l-340.7,0l0,20.6Z" class="g3_203" />
<path fill-rule="evenodd" d="M467.2,922.1l340.7,0l0,-20.5l-340.7,0l0,20.5Z" class="g3_203" />
<path fill-rule="evenodd" d="M101.4,881l0.8,0l0,-0.7l-0.8,0l0,0.7Z" class="g4_203" />
<path fill-rule="evenodd" d="M102.2,881l356.4,0l0,-0.7l-356.4,0l0,0.7Z" class="g5_203" />
<path fill-rule="evenodd" d="M458.6,881l0.8,0l0,-0.7l-0.8,0l0,0.7Z" class="g5_203" />
<path fill-rule="evenodd" d="M459.4,881l356.4,0l0,-0.7l-356.4,0l0,0.7Z" class="g5_203" />
<path fill-rule="evenodd" d="M815.8,881l0.8,0l0,-0.7l-0.8,0l0,0.7Z" class="g4_203" />
<path fill-rule="evenodd" d="M101.4,926.9l0.8,0l0,-45.9l-0.8,0l0,45.9Z" class="g4_203" />
<path fill-rule="evenodd" d="M458.6,926.9l0.8,0l0,-45.9l-0.8,0l0,45.9Z" class="g5_203" />
<path fill-rule="evenodd" d="M815.8,926.9l0.8,0l0,-45.9l-0.8,0l0,45.9Z" class="g4_203" />
<path fill-rule="evenodd" d="M101.4,927.6l0.8,0l0,-0.7l-0.8,0l0,0.7Z" class="g4_203" />
<path fill-rule="evenodd" d="M102.2,927.6l356.4,0l0,-0.7l-356.4,0l0,0.7Z" class="g5_203" />
<path fill-rule="evenodd" d="M458.6,927.6l0.8,0l0,-0.7l-0.8,0l0,0.7Z" class="g5_203" />
<path fill-rule="evenodd" d="M459.4,927.6l356.4,0l0,-0.7l-356.4,0l0,0.7Z" class="g5_203" />
<path fill-rule="evenodd" d="M815.8,927.6l0.8,0l0,-0.7l-0.8,0l0,0.7Z" class="g4_203" />
<path fill-rule="evenodd" d="M101.4,950.6l0.8,0l0,-23l-0.8,0l0,23Z" class="g4_203" />
<path fill-rule="evenodd" d="M458.6,950.6l0.8,0l0,-23l-0.8,0l0,23Z" class="g5_203" />
<path fill-rule="evenodd" d="M815.8,950.6l0.8,0l0,-23l-0.8,0l0,23Z" class="g4_203" />
<path fill-rule="evenodd" d="M102.2,997.1l356.4,0l0,-45.8l-356.4,0l0,45.8Z" class="g3_203" />
<path fill-rule="evenodd" d="M110,971.8l340.7,0l0,-20.5l-340.7,0l0,20.5Z" class="g3_203" />
<path fill-rule="evenodd" d="M459.4,997.1l356.4,0l0,-45.8l-356.4,0l0,45.8Z" class="g3_203" />
<path fill-rule="evenodd" d="M467.2,971.8l340.7,0l0,-20.5l-340.7,0l0,20.5Z" class="g3_203" />
<path fill-rule="evenodd" d="M467.2,992.4l340.7,0l0,-20.6l-340.7,0l0,20.6Z" class="g3_203" />
<path fill-rule="evenodd" d="M101.4,951.3l0.8,0l0,-0.7l-0.8,0l0,0.7Z" class="g4_203" />
<path fill-rule="evenodd" d="M102.2,951.3l356.4,0l0,-0.7l-356.4,0l0,0.7Z" class="g5_203" />
<path fill-rule="evenodd" d="M458.6,951.3l0.8,0l0,-0.7l-0.8,0l0,0.7Z" class="g5_203" />
<path fill-rule="evenodd" d="M459.4,951.3l356.4,0l0,-0.7l-356.4,0l0,0.7Z" class="g5_203" />
<path fill-rule="evenodd" d="M815.8,951.3l0.8,0l0,-0.7l-0.8,0l0,0.7Z" class="g4_203" />
<path fill-rule="evenodd" d="M101.4,997.1l0.8,0l0,-45.8l-0.8,0l0,45.8Z" class="g4_203" />
<path fill-rule="evenodd" d="M458.6,997.1l0.8,0l0,-45.8l-0.8,0l0,45.8Z" class="g5_203" />
<path fill-rule="evenodd" d="M815.8,997.1l0.8,0l0,-45.8l-0.8,0l0,45.8Z" class="g4_203" />
<path fill-rule="evenodd" d="M101.4,997.9l0.8,0l0,-0.8l-0.8,0l0,0.8Z" class="g4_203" />
<path fill-rule="evenodd" d="M102.2,997.9l356.4,0l0,-0.8l-356.4,0l0,0.8Z" class="g5_203" />
<path fill-rule="evenodd" d="M458.6,997.9l0.8,0l0,-0.8l-0.8,0l0,0.8Z" class="g5_203" />
<path fill-rule="evenodd" d="M459.4,997.9l356.4,0l0,-0.8l-356.4,0l0,0.8Z" class="g5_203" />
<path fill-rule="evenodd" d="M815.8,997.9l0.8,0l0,-0.8l-0.8,0l0,0.8Z" class="g4_203" />
<path fill-rule="evenodd" d="M101.4,1021l0.8,0l0,-23.1l-0.8,0l0,23.1Z" class="g4_203" />
<path fill-rule="evenodd" d="M458.6,1021l0.8,0l0,-23.1l-0.8,0l0,23.1Z" class="g5_203" />
<path fill-rule="evenodd" d="M815.8,1021l0.8,0l0,-23.1l-0.8,0l0,23.1Z" class="g4_203" />
<path fill-rule="evenodd" d="M102.2,1067.5l356.4,0l0,-45.8l-356.4,0l0,45.8Z" class="g3_203" />
<path fill-rule="evenodd" d="M110,1042.2l340.7,0l0,-20.5l-340.7,0l0,20.5Z" class="g3_203" />
<path fill-rule="evenodd" d="M459.4,1067.5l356.4,0l0,-45.8l-356.4,0l0,45.8Z" class="g3_203" />
<path fill-rule="evenodd" d="M467.2,1042.2l340.7,0l0,-20.5l-340.7,0l0,20.5Z" class="g3_203" />
<path fill-rule="evenodd" d="M101.4,1021.7l0.8,0l0,-0.7l-0.8,0l0,0.7Z" class="g4_203" />
<path fill-rule="evenodd" d="M102.2,1021.7l356.4,0l0,-0.7l-356.4,0l0,0.7Z" class="g5_203" />
<path fill-rule="evenodd" d="M458.6,1021.7l0.8,0l0,-0.7l-0.8,0l0,0.7Z" class="g5_203" />
<path fill-rule="evenodd" d="M459.4,1021.7l356.4,0l0,-0.7l-356.4,0l0,0.7Z" class="g5_203" />
<path fill-rule="evenodd" d="M815.8,1021.7l0.8,0l0,-0.7l-0.8,0l0,0.7Z" class="g4_203" />
<path fill-rule="evenodd" d="M101.4,1067.5l0.8,0l0,-45.8l-0.8,0l0,45.8Z" class="g4_203" />
<path fill-rule="evenodd" d="M101.4,1068.2l0.8,0l0,-0.7l-0.8,0l0,0.7Z" class="g4_203" />
<path fill-rule="evenodd" d="M101.4,1068.2l0.8,0l0,-0.7l-0.8,0l0,0.7Z" class="g5_203" />
<path fill-rule="evenodd" d="M102.2,1068.2l356.4,0l0,-0.7l-356.4,0l0,0.7Z" class="g5_203" />
<path fill-rule="evenodd" d="M458.6,1067.5l0.8,0l0,-45.8l-0.8,0l0,45.8Z" class="g5_203" />
<path fill-rule="evenodd" d="M458.6,1068.2l0.8,0l0,-0.7l-0.8,0l0,0.7Z" class="g5_203" />
<path fill-rule="evenodd" d="M459.4,1068.2l356.4,0l0,-0.7l-356.4,0l0,0.7Z" class="g5_203" />
<path fill-rule="evenodd" d="M815.8,1067.5l0.8,0l0,-45.8l-0.8,0l0,45.8Z" class="g4_203" />
<path fill-rule="evenodd" d="M815.8,1068.2l0.8,0l0,-0.7l-0.8,0l0,0.7Z" class="g4_203" />
<path fill-rule="evenodd" d="M815.8,1068.2l0.8,0l0,-0.7l-0.8,0l0,0.7Z" class="g5_203" />
</svg>