<?xml version="1.0" encoding="UTF-8" standalone="no"?>
<!DOCTYPE svg PUBLIC "-//W3C//DTD SVG 1.1//EN"
"http://www.w3.org/Graphics/SVG/1.1/DTD/svg11.dtd">
<svg viewBox="0 0 935 1210" version="1.1" xmlns="http://www.w3.org/2000/svg" xmlns:xlink="http://www.w3.org/1999/xlink">
<defs>
<style type="text/css"><![CDATA[
.g1_7{
fill: none;
stroke: #000066;
stroke-width: 4.5833335;
stroke-linecap: butt;
stroke-linejoin: round;
}
.g2_7{
fill: none;
stroke: #000000;
stroke-width: 1.1458334;
stroke-linecap: butt;
stroke-linejoin: round;
}
.g3_7{
fill: none;
stroke: #000000;
stroke-width: 0.38194567;
stroke-linecap: square;
stroke-linejoin: miter;
stroke-miterlimit: 8;
}
.g4_7{
fill: none;
stroke: #FF0000;
stroke-width: 1.5277791;
stroke-linecap: butt;
stroke-linejoin: miter;
stroke-miterlimit: 8;
}
.g5_7{
fill: #333F50;
}
]]></style>
</defs>
<path d="M100.5,103.5l794.1,0" class="g1_7" />
<path d="M84.6,1142.7l772.2,0" class="g2_7" />
<image preserveAspectRatio="none" x="112" y="112" width="690" height="300" xlink:href="img/1.png" />
<path d="M112.1,411.8l689.9,0l0,-299.7l-689.9,0l0,299.7Z" class="g3_7" />
<image preserveAspectRatio="none" x="112" y="504" width="184" height="499" xlink:href="img/2.png" />
<path d="M112.1,1003.5l183.7,0l0,-500l-183.7,0l0,500Z" class="g3_7" />
<path d="M116.9,161.6l291,0l0,-45.8l-291,0l0,45.8Z" class="g4_7" />
<path fill-rule="evenodd" d="M396.5,172.5c0,-13,11.8,-23.5,26.3,-23.5c14.6,0,26.4,10.5,26.4,23.5c0,13,-11.8,23.5,-26.4,23.5c-14.5,0,-26.3,-10.5,-26.3,-23.5Z" class="g5_7" />
</svg>