<?xml version="1.0" encoding="UTF-8" standalone="no"?>
<!DOCTYPE svg PUBLIC "-//W3C//DTD SVG 1.1//EN"
"http://www.w3.org/Graphics/SVG/1.1/DTD/svg11.dtd">
<svg viewBox="0 0 935 1210" version="1.1" xmlns="http://www.w3.org/2000/svg" xmlns:xlink="http://www.w3.org/1999/xlink">
<defs>
<style type="text/css"><![CDATA[
.g1_172{
fill: none;
stroke: #000066;
stroke-width: 4.5833335;
stroke-linecap: butt;
stroke-linejoin: round;
}
.g2_172{
fill: none;
stroke: #000000;
stroke-width: 1.1458334;
stroke-linecap: butt;
stroke-linejoin: round;
}
.g3_172{
fill: none;
stroke: #203864;
stroke-width: 1.1458334;
stroke-linecap: butt;
stroke-linejoin: miter;
stroke-miterlimit: 8;
}
.g4_172{
fill: none;
stroke: #FF0000;
stroke-width: 2.6736124;
stroke-linecap: butt;
stroke-linejoin: miter;
stroke-miterlimit: 8;
}
.g5_172{
fill: #333F50;
}
.g6_172{
fill: none;
stroke: #222A35;
stroke-width: 1.1458334;
stroke-linecap: butt;
stroke-linejoin: round;
stroke-miterlimit: 8;
}
]]></style>
</defs>
<path d="M100.5,103.5l794.1,0" class="g1_172" />
<path d="M84.6,1142.7l772.2,0" class="g2_172" />
<image preserveAspectRatio="none" x="112" y="112" width="690" height="276" xlink:href="img/1.png" />
<path d="M111.7,388.6l690.7,0l0,-276.9l-690.7,0l0,276.9Z" class="g3_172" />
<image preserveAspectRatio="none" x="112" y="531" width="690" height="253" xlink:href="img/2.png" />
<path d="M111.7,785l690.7,0l0,-254.6l-690.7,0l0,254.6Z" class="g3_172" />
<path d="M721.9,168.3l75.6,0l0,-37.8l-75.6,0l0,37.8Z" class="g4_172" />
<path fill-rule="evenodd" d="M666.9,174.6c0,-12.4,10.5,-22.4,23.5,-22.4c12.9,0,23.5,10,23.5,22.4c0,12.3,-10.6,22.3,-23.5,22.3c-13,0,-23.5,-10,-23.5,-22.3Z" class="g5_172" />
<path d="M666.9,174.6c0,-12.4,10.5,-22.4,23.5,-22.4c12.9,0,23.5,10,23.5,22.4c0,12.3,-10.6,22.3,-23.5,22.3c-13,0,-23.5,-10,-23.5,-22.3Z" class="g6_172" />
<image preserveAspectRatio="none" x="674" y="165" width="32" height="19" xlink:href="img/3.png" />
</svg>