<?xml version="1.0" encoding="UTF-8" standalone="no"?>
<!DOCTYPE svg PUBLIC "-//W3C//DTD SVG 1.1//EN"
"http://www.w3.org/Graphics/SVG/1.1/DTD/svg11.dtd">
<svg viewBox="0 0 909 1286" version="1.1" xmlns="http://www.w3.org/2000/svg" xmlns:xlink="http://www.w3.org/1999/xlink">
<defs>
<style type="text/css"><![CDATA[
.g1_15{
fill: none;
stroke: #000066;
stroke-width: 4.5833335;
stroke-linecap: butt;
stroke-linejoin: round;
}
.g2_15{
fill: none;
stroke: #000000;
stroke-width: 1.1458334;
stroke-linecap: butt;
stroke-linejoin: round;
}
.g3_15{
fill: #FFFFFF;
}
.g4_15{
}
.g5_15{
fill: #376092;
}
.g6_15{
fill: none;
stroke: #FF0000;
stroke-width: 3.4375;
stroke-linecap: butt;
stroke-linejoin: round;
}
]]></style>
</defs>
<path d="M78.1,99.1l794,0.1" class="g1_15" />
<path d="M96.6,1224.5l772.1,0.1" class="g2_15" />
<image preserveAspectRatio="none" x="112" y="97" width="412" height="206" xlink:href="img/1.png" />
<image preserveAspectRatio="none" x="112" y="498" width="690" height="277" xlink:href="img/2.png" />
<path fill-rule="evenodd" d="M112.3,883.9l689.5,0l0,0.5l-689.5,0l0,-0.5Z" class="g3_15" />
<path fill-rule="evenodd" d="M112.3,1140.7l689.5,0l0,0.5l-689.5,0l0,-0.5Z" class="g3_15" />
<path fill-rule="evenodd" d="M112.3,884.2l0.5,0l0,256.5l-0.5,0l0,-256.5Z" class="g3_15" />
<path fill-rule="evenodd" d="M801.3,884.2l0.5,0l0,256.5l-0.5,0l0,-256.5Z" class="g3_15" />
<image preserveAspectRatio="none" x="113" y="884" width="688" height="257" xlink:href="img/3.png" />
<path fill-rule="evenodd" d="M112.6,1140.9l-0.3,0.3l0,-257.3l0.3,0.3l0.2,0.2l0,256.3l-0.2,0.2Z" class="g4_15" />
<path fill-rule="evenodd" d="M801.5,1140.9l-0.2,-0.2l0,-256.3l0.2,-0.2l0.3,-0.3l0,257.3l-0.3,-0.3Z" class="g4_15" />
<path fill-rule="evenodd" d="M801.5,884.2l-0.2,0.2l-688.5,0l-0.2,-0.2l-0.3,-0.3l689.5,0l-0.3,0.3Z" class="g4_15" />
<path fill-rule="evenodd" d="M801.5,1140.9l0.3,0.3l-689.5,0l0.3,-0.3l0.2,-0.2l688.5,0l0.2,0.2Z" class="g4_15" />
<path fill-rule="evenodd" d="M356.1,247.9l0,-1.2l0.2,-1.2l0.1,-1.3l0.2,-1.2l0.3,-1.1l0.3,-1.2l0.5,-1.2l0.4,-1.1l0.5,-1l0.6,-1.3l0.7,-0.9l0.7,-1.1l0.7,-0.9l0.8,-0.9l0.9,-0.9l0.9,-0.9l0.9,-0.8l0.9,-0.7l1.1,-0.7l1.1,-0.7L369,227l1,-0.5l1.1,-0.4l1.2,-0.5l1.2,-0.3l1.1,-0.3l1.2,-0.2l1.3,-0.1l1.2,-0.2l1.2,0l1.2,0l1.2,0.2l1.3,0.1l1.2,0.2l1.2,0.3l1.2,0.3l1.1,0.5l1.2,0.4l1.1,0.5l1.1,0.6l1,0.7l0.9,0.7l1.1,0.7l0.9,0.8l1,0.9l0.7,0.9l0.9,0.9l0.6,0.9l0.8,1.1l0.6,1.1l0.6,1.1l0.5,1l0.6,1.1l0.3,1.2l0.5,1.2l0.1,1.1l0.3,1.2l0.2,1.3l0.1,1.2l0,1.2l-0.1,0l0,1.2l-0.2,1.2l-0.1,1.3l-0.2,1.2l-0.3,1.2l-0.3,1.2l-0.5,1.1l-0.4,1.2l-0.5,1.1l-0.6,1.1l-0.6,1l-0.8,0.9l-0.7,1.1l-0.8,0.9l-0.9,1l-0.8,0.7l-0.9,0.8l-1.1,0.7l-0.9,0.8l-1,0.6l-1.1,0.6l-1.1,0.5l-1.2,0.4l-1.1,0.5l-1.2,0.3l-1.2,0.3l-1.2,0.3l-1.3,0.2l-1.2,0.1l-1.2,0l0,-0.1l-1.2,0l-1.2,-0.2L375.8,271l-1.2,-0.2l-1.1,-0.3l-1.2,-0.3l-1.2,-0.5L370,269.3l-1,-0.5l-1.1,-0.6l-1.1,-0.6l-1.1,-0.8l-0.9,-0.7l-0.9,-0.8L363,264.4l-0.9,-0.8l-0.8,-0.9l-0.7,-1.1l-0.7,-0.9l-0.7,-1l-0.5,-1.1l-0.6,-1.1l-0.4,-1.2l-0.5,-1.1L356.9,254l-0.3,-1.2l-0.2,-1.2l-0.1,-1.3l-0.2,-1.2l0,-1.2Z" class="g5_15" />
<path d="M550.6,729.5l-102.5,0l0,-66.5l205.2,0l0,66.5l-102.7,0Z" class="g6_15" />
<path fill-rule="evenodd" d="M397.5,679.6l0,-1.2l0.2,-1.2l0.1,-1.2l0.3,-1.2l0.2,-1.3l0.5,-1.2l0.3,-1.1l0.4,-1.2l0.6,-1l0.6,-1.1l0.6,-1.1l0.7,-0.9l0.7,-1.1l0.9,-0.9l0.8,-0.9l0.9,-0.8l0.9,-0.7l1,-0.8l1,-0.8l1.1,-0.6l1.1,-0.6l1,-0.4l1.1,-0.5l1.2,-0.5l1.2,-0.3l1.1,-0.3l1.2,-0.3l1.3,-0.1l1.2,-0.2l1.2,0l1.2,0l1.2,0.2l1.3,0.1l1.2,0.3l1.2,0.2l1.2,0.4l1.1,0.3l1.1,0.7l1.2,0.4l1.1,0.6l1,0.6l1,0.8l1,0.6l0.9,0.9l0.8,0.8l0.9,0.9l0.8,0.9l0.7,1.1l0.8,0.9l0.6,1.1l0.6,1.1l0.5,1l0.4,1.2l0.5,1.1l0.3,1.2l0.3,1.3L444,676l0.1,1.2l0.2,1.2l0,1.2l0,1.3l-0.2,1.2l-0.1,1.2l-0.2,1.2l-0.3,1.1l-0.3,1.2l-0.5,1.3l-0.4,1l-0.5,1.1l-0.6,1.1l-0.6,1l-0.8,1.1l-0.7,0.9l-0.8,0.9l-0.9,0.9l-0.8,1l-0.9,0.7l-1,0.8l-1,0.6l-1,0.8l-1.1,0.4l-1.1,0.6l-1.2,0.5l-1.1,0.5l-1.2,0.3l-1.2,0.3l-1.2,0.1l-1.3,0.2l-1.2,0.1l-1.2,0l-1.2,0l-1.2,-0.1l-1.3,-0.2L416,702.4l-1.1,-0.1l-1.2,-0.5l-1.2,-0.3L411.4,701l-1,-0.6l-1.1,-0.6l-1.1,-0.6l-1,-0.6l-1,-0.8l-0.9,-0.9l-0.9,-0.8l-0.9,-0.9l-0.8,-0.9L402,693.4l-0.7,-1.1l-0.7,-1l-0.5,-1.1l-0.6,-1.1l-0.4,-1l-0.5,-1.3l-0.3,-1.2L398,684.5l-0.2,-1.2l-0.1,-1.2l-0.2,-1.2l0,-1.3Z" class="g5_15" />
<path d="M454.4,1134l-342.1,0l0,-215.4l684,0l0,215.4l-341.9,0Z" class="g6_15" />
<path fill-rule="evenodd" d="M112.3,907.6l0,-1.1l0,-1.2l0.1,-1.2l0.4,-1.2l0.3,-1.1l0.3,-1.2l0.3,-1.1l0.4,-1.1l0.5,-1l0.6,-1.1l0.6,-1.1l0.6,-0.9l0.8,-1.1l0.6,-0.9l0.9,-0.7l0.8,-1l0.9,-0.7l0.9,-0.8l0.9,-0.8l1.1,-0.6l0.9,-0.6l1.1,-0.4l1,-0.6l1.1,-0.5l1.2,-0.3l1.1,-0.3l1.2,-0.3l1.3,-0.2l1,-0.1l1.2,-0.2l1.3,0l1.2,0l1.2,0.2l1.2,0.1l1.1,0.2l1.2,0.3l1.2,0.3l1.1,0.4l1.2,0.5l1.1,0.5l1.1,0.6l1,0.6l1.1,0.7l0.9,0.8l1,0.8l0.9,0.9l0.7,0.8l0.8,0.9l0.8,1l0.7,1l0.6,1l0.6,1.1l0.5,1.1l0.5,1.2l0.4,1.1l0.3,1.2l0.3,1.2l0.3,1.2l0.2,1.2l0.1,1.3l0,1.2l0,1.2l-0.1,1.2l-0.2,1.3l-0.3,1.2l-0.1,1.1l-0.5,1.2l-0.3,1.2l-0.4,1.1l-0.7,1l-0.6,1.1l-0.6,1.1l-0.6,1l-0.8,1l-0.9,0.9l-0.7,0.9l-0.9,0.9l-1,0.8l-0.9,0.7l-1.1,0.6l-1,0.8l-1.1,0.5l-1.1,0.6l-1,0.4l-1.3,0.5l-1.2,0.3l-1,0.3l-1.3,0.2l-1.2,0.1l-1.2,0.2l-1.2,0l-1.3,0l-1.2,-0.2L132,930.7l-1.2,-0.2l-1.2,-0.3l-1.3,-0.3l-1,-0.5L126,929l-1,-0.5l-1.1,-0.6l-1.1,-0.6l-0.9,-0.8l-1.1,-0.7L119.9,925L119,924.1l-0.7,-0.8l-0.8,-0.9l-0.8,-1.1L116,920.4l-0.7,-1l-0.6,-1.1l-0.4,-1.1L113.8,916l-0.4,-1.1l-0.3,-1.2l-0.3,-1.2l-0.4,-1.2L112.3,910l-0.2,-1.2l0,-1.2l0.2,0Z" class="g5_15" />
</svg>