<?xml version="1.0" encoding="UTF-8" standalone="no"?>
<!DOCTYPE svg PUBLIC "-//W3C//DTD SVG 1.1//EN"
"http://www.w3.org/Graphics/SVG/1.1/DTD/svg11.dtd">
<svg viewBox="0 0 935 1210" version="1.1" xmlns="http://www.w3.org/2000/svg" xmlns:xlink="http://www.w3.org/1999/xlink">
<defs>
<clipPath id="c0_107"><path d="M0,1210L0,0L935,0l0,1210Z" /></clipPath>
<style type="text/css"><![CDATA[
.g1_107{
fill: none;
stroke: #000066;
stroke-width: 4.5833335;
stroke-linecap: butt;
stroke-linejoin: round;
}
.g2_107{
fill: none;
stroke: #000000;
stroke-width: 1.1458334;
stroke-linecap: butt;
stroke-linejoin: round;
}
.g3_107{
fill: none;
stroke: #FF0000;
stroke-width: 3.4375;
stroke-linecap: butt;
stroke-linejoin: round;
}
.g4_107{
fill: #376092;
}
]]></style>
</defs>
<path d="M100.5,103.5l794.1,0" class="g1_107" />
<path d="M84.6,1142.7l772.2,0" class="g2_107" />
<image preserveAspectRatio="none" x="112" y="112" width="690" height="426" xlink:href="img/1.png" />
<path d="M111.7,539l690.7,0l0,-427.3l-690.7,0l0,427.3Z" class="g2_107" />
<image preserveAspectRatio="none" x="112" y="596" width="412" height="206" xlink:href="img/2.png" />
<path d="M111.7,802.7l412.5,0l0,-207.4l-412.5,0l0,207.4Z" class="g2_107" />
<path d="M411.5,148.2l122.3,0l0,-35.8l-122.3,0l0,35.8Z" class="g3_107" />
<path fill-rule="evenodd" d="M524,144.4C524,131.5,534.4,121,547.4,121c12.9,0,23.4,10.5,23.4,23.4c0,13,-10.5,23.4,-23.4,23.4c-13,0,-23.4,-10.4,-23.4,-23.4Z" class="g4_107" />
<image preserveAspectRatio="none" x="532" y="135" width="30" height="19" xlink:href="img/3.png" />
<path d="M318.8,470.8l84.1,0l0,-80.3l-84.1,0l0,80.3Z" class="g3_107" />
<path fill-rule="evenodd" d="M284.2,381.8c0,-13,10.5,-23.5,23.5,-23.5c12.9,0,23.4,10.5,23.4,23.5c0,12.9,-10.5,23.4,-23.4,23.4c-13,0,-23.5,-10.5,-23.5,-23.4Z" class="g4_107" />
<image preserveAspectRatio="none" x="293" y="372" width="30" height="19" xlink:href="img/4.png" />
<path fill-rule="evenodd" d="M356,746.7c0,-12.9,10.5,-23.4,23.4,-23.4c12.9,0,23.4,10.5,23.4,23.4c0,13,-10.5,23.5,-23.4,23.5C366.5,770.2,356,759.7,356,746.7Z" class="g4_107" />
<g clip-path="url(#c0_107)">
<path d="M378.2,1212.1l237.3,0l0,-11.1l-237.3,0l0,11.1Z" class="g3_107" />
</g>
</svg>