<?xml version="1.0" encoding="UTF-8" standalone="no"?>
<!DOCTYPE svg PUBLIC "-//W3C//DTD SVG 1.1//EN"
"http://www.w3.org/Graphics/SVG/1.1/DTD/svg11.dtd">
<svg viewBox="0 0 935 1210" version="1.1" xmlns="http://www.w3.org/2000/svg" xmlns:xlink="http://www.w3.org/1999/xlink">
<defs>
<style type="text/css"><![CDATA[
.g1_174{
fill: none;
stroke: #000066;
stroke-width: 4.5833335;
stroke-linecap: butt;
stroke-linejoin: round;
}
.g2_174{
fill: none;
stroke: #000000;
stroke-width: 1.1458334;
stroke-linecap: butt;
stroke-linejoin: round;
}
.g3_174{
fill: none;
stroke: #203864;
stroke-width: 1.1458334;
stroke-linecap: butt;
stroke-linejoin: miter;
stroke-miterlimit: 8;
}
.g4_174{
fill: none;
stroke: #FF0000;
stroke-width: 2.6736124;
stroke-linecap: butt;
stroke-linejoin: miter;
stroke-miterlimit: 8;
}
.g5_174{
fill: #333F50;
}
.g6_174{
fill: none;
stroke: #222A35;
stroke-width: 1.1458334;
stroke-linecap: butt;
stroke-linejoin: round;
stroke-miterlimit: 8;
}
]]></style>
</defs>
<path d="M100.5,103.5l794.1,0" class="g1_174" />
<path d="M84.6,1142.7l772.2,0" class="g2_174" />
<image preserveAspectRatio="none" x="112" y="112" width="690" height="270" xlink:href="img/1.png" />
<path d="M111.7,383l690.7,0l0,-271.3l-690.7,0l0,271.3Z" class="g3_174" />
<image preserveAspectRatio="none" x="112" y="401" width="690" height="340" xlink:href="img/2.png" />
<path d="M111.7,741.5l690.7,0l0,-340.9l-690.7,0l0,340.9Z" class="g3_174" />
<path d="M552.3,371.9l245.2,0l0,-201.6l-245.2,0l0,201.6Z" class="g4_174" />
<path fill-rule="evenodd" d="M632.5,141c0,-12.3,10.5,-22.3,23.5,-22.3c13,0,23.5,10,23.5,22.3c0,12.4,-10.5,22.4,-23.5,22.4c-13,0,-23.5,-10,-23.5,-22.4Z" class="g5_174" />
<path d="M632.5,141c0,-12.3,10.5,-22.3,23.5,-22.3c13,0,23.5,10,23.5,22.3c0,12.4,-10.5,22.4,-23.5,22.4c-13,0,-23.5,-10,-23.5,-22.4Z" class="g6_174" />
<image preserveAspectRatio="none" x="640" y="131" width="32" height="20" xlink:href="img/3.png" />
<path d="M727.6,427.3l72.2,0l0,-27.5l-72.2,0l0,27.5Z" class="g4_174" />
<path fill-rule="evenodd" d="M670.3,432.5c0,-12.3,10.5,-22.4,23.5,-22.4c13,0,23.5,10.1,23.5,22.4c0,12.3,-10.5,22.3,-23.5,22.3c-13,0,-23.5,-10,-23.5,-22.3Z" class="g5_174" />
<path d="M670.3,432.5c0,-12.3,10.5,-22.4,23.5,-22.4c13,0,23.5,10.1,23.5,22.4c0,12.3,-10.5,22.3,-23.5,22.3c-13,0,-23.5,-10,-23.5,-22.3Z" class="g6_174" />
<image preserveAspectRatio="none" x="678" y="423" width="32" height="19" xlink:href="img/4.png" />
</svg>