<?xml version="1.0" encoding="UTF-8" standalone="no"?>
<!DOCTYPE svg PUBLIC "-//W3C//DTD SVG 1.1//EN"
"http://www.w3.org/Graphics/SVG/1.1/DTD/svg11.dtd">
<svg viewBox="0 0 935 1210" version="1.1" xmlns="http://www.w3.org/2000/svg" xmlns:xlink="http://www.w3.org/1999/xlink">
<defs>
<style type="text/css"><![CDATA[
.g1_94{
fill: none;
stroke: #000066;
stroke-width: 4.5833335;
stroke-linecap: butt;
stroke-linejoin: round;
}
.g2_94{
fill: none;
stroke: #000000;
stroke-width: 1.1458334;
stroke-linecap: butt;
stroke-linejoin: round;
}
.g3_94{
fill: none;
stroke: #FF0000;
stroke-width: 3.4375;
stroke-linecap: butt;
stroke-linejoin: round;
}
.g4_94{
fill: #376092;
}
]]></style>
</defs>
<path d="M100.5,103.5l794.1,0" class="g1_94" />
<path d="M84.6,1142.7l772.2,0" class="g2_94" />
<image preserveAspectRatio="none" x="112" y="112" width="690" height="676" xlink:href="img/1.png" />
<path d="M111.7,788.7l690.7,0l0,-677l-690.7,0l0,677Z" class="g2_94" />
<path d="M131,411.7l367.1,0l0,-96.4l-367.1,0l0,96.4Z" class="g3_94" />
<path fill-rule="evenodd" d="M433.8,317.7c0,-12.9,10.5,-23.5,23.5,-23.5c13,0,23.5,10.6,23.5,23.5c0,13,-10.5,23.5,-23.5,23.5c-13,0,-23.5,-10.5,-23.5,-23.5Z" class="g4_94" />
<image preserveAspectRatio="none" x="442" y="308" width="30" height="19" xlink:href="img/2.png" />
<path d="M641.4,784.9l71.9,0l0,-29.7l-71.9,0l0,29.7Z" class="g3_94" />
<path fill-rule="evenodd" d="M590.8,756.5c0,-15.1,14.1,-27.2,31.5,-27.2c17.4,0,31.5,12.1,31.5,27.2c0,15,-14.1,27.2,-31.5,27.2c-17.4,0,-31.5,-12.2,-31.5,-27.2Z" class="g4_94" />
<image preserveAspectRatio="none" x="602" y="744" width="41" height="25" xlink:href="img/3.png" />
</svg>