<?xml version="1.0" encoding="UTF-8" standalone="no"?>
<!DOCTYPE svg PUBLIC "-//W3C//DTD SVG 1.1//EN"
"http://www.w3.org/Graphics/SVG/1.1/DTD/svg11.dtd">
<svg viewBox="0 0 909 1286" version="1.1" xmlns="http://www.w3.org/2000/svg" xmlns:xlink="http://www.w3.org/1999/xlink">
<defs>
<style type="text/css"><![CDATA[
.g1_39{
fill: none;
stroke: #000066;
stroke-width: 4.5833335;
stroke-linecap: butt;
stroke-linejoin: round;
}
.g2_39{
fill: none;
stroke: #000000;
stroke-width: 1.1458334;
stroke-linecap: butt;
stroke-linejoin: round;
}
.g3_39{
fill: #FFFFFF;
}
.g4_39{
}
.g5_39{
fill: none;
stroke: #FF0000;
stroke-width: 3.0555556;
stroke-linecap: butt;
stroke-linejoin: round;
}
.g6_39{
fill: #376092;
}
]]></style>
</defs>
<path d="M78.1,99.1l794,0.1" class="g1_39" />
<path d="M96.6,1224.5l772.1,0.1" class="g2_39" />
<path fill-rule="evenodd" d="M112.3,154.4l688.7,0l0,0.3l-688.7,0l0,-0.3Z" class="g3_39" />
<path fill-rule="evenodd" d="M112.3,463.3l688.7,0l0,0.5l-688.7,0l0,-0.5Z" class="g3_39" />
<path fill-rule="evenodd" d="M112.3,154.7l0.5,0l0,308.6l-0.5,0l0,-308.6Z" class="g3_39" />
<path fill-rule="evenodd" d="M800.6,154.7l0.4,0l0,308.6l-0.4,0l0,-308.6Z" class="g3_39" />
<image preserveAspectRatio="none" x="113" y="155" width="688" height="308" xlink:href="img/1.png" />
<path fill-rule="evenodd" d="M112.6,463.5l-0.3,0.3l0,-309.4l0.3,0.3l0.2,0.2l0,308.4l-0.2,0.2Z" class="g4_39" />
<path fill-rule="evenodd" d="M800.7,463.5l-0.1,-0.2l0,-308.4l0.1,-0.2l0.3,-0.3l0,309.4l-0.3,-0.3Z" class="g4_39" />
<path fill-rule="evenodd" d="M800.7,154.7l-0.1,0.2l-687.8,0l-0.2,-0.2l-0.3,-0.3l688.7,0l-0.3,0.3Z" class="g4_39" />
<path fill-rule="evenodd" d="M800.7,463.5l0.3,0.3l-688.7,0l0.3,-0.3l0.2,-0.2l687.8,0l0.1,0.2Z" class="g4_39" />
<path fill-rule="evenodd" d="M112.3,578.8l689.5,0l0,0.5l-689.5,0l0,-0.5Z" class="g3_39" />
<path fill-rule="evenodd" d="M112.3,1097.5l689.5,0l0,0.5l-689.5,0l0,-0.5Z" class="g3_39" />
<path fill-rule="evenodd" d="M112.3,579.1l0.5,0l0,518.5l-0.5,0l0,-518.5Z" class="g3_39" />
<path fill-rule="evenodd" d="M801.3,579.1l0.5,0l0,518.5l-0.5,0l0,-518.5Z" class="g3_39" />
<image preserveAspectRatio="none" x="113" y="579" width="688" height="518" xlink:href="img/2.png" />
<path fill-rule="evenodd" d="M112.6,1097.6l-0.3,0.4l0,-519.2l0.3,0.3l0.2,0.2l0,518.2l-0.2,0.1Z" class="g4_39" />
<path fill-rule="evenodd" d="M801.5,1097.6l-0.2,-0.1l0,-518.2l0.2,-0.2l0.3,-0.3l0,519.2l-0.3,-0.4Z" class="g4_39" />
<path fill-rule="evenodd" d="M801.5,579.1l-0.2,0.2l-688.5,0l-0.2,-0.2l-0.3,-0.3l689.5,0l-0.3,0.3Z" class="g4_39" />
<path fill-rule="evenodd" d="M801.5,1097.6l0.3,0.4l-689.5,0l0.3,-0.4l0.2,-0.1l688.5,0l0.2,0.1Z" class="g4_39" />
<path d="M152.9,361.6l-29.1,0l0,-14.9l58.3,0l0,14.9l-29.2,0Z" class="g5_39" />
<path fill-rule="evenodd" d="M688.7,339.1l0,-1.2l0.2,-1.4l0.1,-1.2l0.3,-1.4l0.3,-1.2l0.3,-1.2l0.5,-1.3l0.5,-1.2l0.6,-1.2l0.6,-1.2l0.7,-1.1l0.8,-1.1l0.8,-1l0.9,-1.1l0.9,-0.9l0.9,-0.9l0.9,-0.9l1.1,-0.8l1.2,-0.8l1.1,-0.7l1.2,-0.7l1.2,-0.6l1.3,-0.6l1.2,-0.4l1.2,-0.5l1.4,-0.3l1.4,-0.3l1.3,-0.3l1.3,-0.2l1.3,-0.1l1.4,0l1.4,0l1.5,0.1l1.4,0.2l1.4,0.3l1.3,0.3l1.4,0.3l1.2,0.5l1.4,0.6l1.2,0.6l1.3,0.6l1.2,0.6l1.2,0.8l1.1,0.9l1,0.9l1.1,0.9l0.9,0.9l0.9,1.1l0.8,1.1l0.9,1.1l0.6,1l0.8,1.2l0.6,1.3l0.5,1.2l0.6,1.4l0.3,1.2l0.3,1.4l0.3,1.2l0.1,1.4l0.2,1.3l0,1.4l0,1.4l-0.2,1.2l-0.1,1.4l-0.3,1.4l-0.3,1.2l-0.5,1.4l-0.4,1.2l-0.5,1.2l-0.6,1.2l-0.8,1.2l-0.7,1.3l-0.8,1l-0.8,1.1l-0.9,1.1l-1,0.9l-1,0.9l-1,0.9l-1.3,0.8l-1,0.7l-1.2,0.8l-1.3,0.6l-1.2,0.6l-1.4,0.5l-1.2,0.5l-1.4,0.4l-1.3,0.3l-1.4,0.3l-1.4,0.2l-1.5,0l-1.4,0.1l-1.4,0l-1.3,-0.1l-1.4,-0.2l-1.4,-0.3L708.7,364l-1.3,-0.3L706,363.2l-1.2,-0.6L703.4,362l-1.2,-0.6l-1.1,-0.6L699.9,360l-1.1,-0.9l-1.1,-0.9l-1,-0.9l-1,-0.9l-0.9,-1.1l-0.9,-1.1l-0.7,-1l-0.8,-1.1l-0.6,-1.2l-0.6,-1.3l-0.6,-1.2l-0.5,-1.3l-0.5,-1.3l-0.3,-1.3L689,343.2l-0.1,-1.3l0,-1.4l-0.2,-1.4Z" class="g6_39" />
<path d="M673.8,455.5l-118,0l0,-83.5l235.9,0l0,83.5l-117.9,0Z" class="g5_39" />
<path d="M457.3,326L401,326l0,-19.4l112.3,0l0,19.4l-56,0Z" class="g5_39" />
<path fill-rule="evenodd" d="M185.6,340.3l0,-1.3l0.2,-1.3l0.1,-1.3l0.3,-1.3l0.3,-1.3l0.3,-1.3l0.5,-1.2l0.5,-1.2l0.6,-1.2l0.6,-1.1l0.7,-1.2l0.8,-1.1l0.8,-1.1l0.9,-0.9l0.9,-1l0.9,-1l0.9,-0.7l1.1,-0.9l1.2,-0.8l1.1,-0.8l1.2,-0.6l1.2,-0.6l1.3,-0.6l1.2,-0.5l1.2,-0.3l1.4,-0.4l1.4,-0.3l1.3,-0.2l1.3,-0.1l1.3,-0.2l1.4,0l1.4,0l1.5,0.2l1.4,0.1l1.4,0.2l1.3,0.3l1.4,0.4l1.2,0.5l1.4,0.4l1.2,0.7l1.3,0.6l1.2,0.7l1.2,0.8l1.1,0.8l1,0.9l1.1,0.9l0.9,0.9l0.9,1.1l0.8,1.1l0.9,1l0.6,1.2l0.8,1.3l0.6,1.2l0.5,1.2l0.6,1.2l0.3,1.4l0.3,1.2l0.3,1.4l0.2,1.4l0.1,1.2l0,1.4l0,1.4l-0.1,1.3l-0.2,1.4l-0.3,1.2l-0.3,1.4l-0.5,1.2l-0.4,1.4l-0.5,1.2l-0.6,1.2l-0.8,1.3l-0.7,1l-0.8,1.1l-0.8,1.1l-0.9,1l-1,1.1l-1,0.9l-1,0.8l-1.3,0.9l-1,0.8l-1.2,0.6l-1.3,0.7l-1.2,0.5l-1.4,0.6l-1.2,0.5l-1.4,0.3l-1.3,0.3l-1.4,0.3l-1.4,0.1l-1.5,0.2l-1.4,0l-1.4,0l-1.3,-0.2l-1.4,-0.1L207,365.5l-1.4,-0.3l-1.3,-0.4l-1.4,-0.5l-1.2,-0.4l-1.4,-0.7l-1.2,-0.6L198,361.9l-1.2,-0.8l-1.1,-0.8l-1.1,-0.9l-1,-0.9l-0.9,-0.9l-1,-1.1l-0.9,-1l-0.7,-1.1l-0.8,-1.2l-0.6,-1.3l-0.6,-1.2l-0.6,-1.2L187,348.3l-0.5,-1.4l-0.3,-1.2l-0.3,-1.4l-0.1,-1.4l0,-1.2l-0.2,-1.4Z" class="g6_39" />
<path d="M378.1,242.2l-28.7,0l0,-20.6l57.3,0l0,20.6l-28.6,0Z" class="g5_39" />
<path fill-rule="evenodd" d="M425,244.1l0,-1.4l0.2,-1.4l0.1,-1.3l0.3,-1.3l0.3,-1.3l0.5,-1.3l0.5,-1.3l0.4,-1.3l0.6,-1.2l0.8,-1.1l0.8,-1.2l0.7,-1l0.8,-1.1l0.9,-1.1l1.1,-0.9l0.9,-0.9l1.1,-0.9l1.2,-0.8l1.1,-0.8l1.2,-0.7l1.2,-0.6l1.4,-0.6l1.2,-0.5l1.4,-0.5l1.3,-0.4l1.4,-0.3l1.4,-0.3l1.4,-0.2l1.3,0l1.4,-0.1l1.4,0l1.5,0.1l1.4,0.2l1.4,0.3l1.3,0.3l1.4,0.3l1.2,0.4l1.4,0.7l1.2,0.6l1.3,0.6l1.2,0.6l1.2,0.7l1.1,1l1,0.9l1.1,0.9l0.9,0.9l0.9,1.1l1,1.1l0.7,1l0.8,1.2l0.6,1.1l0.6,1.2l0.6,1.3l0.5,1.3l0.3,1.3l0.3,1.3l0.3,1.3l0.2,1.3l0.1,1.4l0,1.4l0,1.4l-0.1,1.2l-0.2,1.4l-0.3,1.3l-0.3,1.2l-0.3,1.4l-0.5,1.2l-0.6,1.3l-0.6,1.2l-0.6,1.2l-0.8,1.1l-0.7,1.2l-1,1.1l-0.9,0.9l-0.9,1.1l-1.1,0.9l-1,0.9l-1.1,0.8l-1.2,0.7l-1.2,0.8l-1.3,0.6l-1.2,0.6l-1.4,0.5l-1.2,0.4l-1.4,0.3l-1.3,0.3l-1.4,0.3l-1.4,0.2l-1.5,0.1l-1.4,0l-1.4,0l-1.3,-0.1l-1.4,-0.2l-1.4,-0.3L445,268.8l-1.3,-0.3l-1.4,-0.4l-1.2,-0.6l-1.4,-0.7l-1.2,-0.6l-1.2,-0.6l-1.1,-0.7l-1.2,-1l-1.1,-0.7L433,262.3l-1.1,-1.1L431,260.3l-0.8,-1.1L429.3,258l-0.6,-1.1l-0.8,-1.2l-0.6,-1.2l-0.4,-1.3L426.4,252l-0.5,-1.4l-0.3,-1.2l-0.3,-1.3l-0.1,-1.4L425,245.5l0,-1.4Z" class="g6_39" />
</svg>