<?xml version="1.0" encoding="UTF-8" standalone="no"?>
<!DOCTYPE svg PUBLIC "-//W3C//DTD SVG 1.1//EN"
"http://www.w3.org/Graphics/SVG/1.1/DTD/svg11.dtd">
<svg viewBox="0 0 935 1210" version="1.1" xmlns="http://www.w3.org/2000/svg" xmlns:xlink="http://www.w3.org/1999/xlink">
<defs>
<style type="text/css"><![CDATA[
.g1_3{
fill: none;
stroke: #000066;
stroke-width: 4.5833335;
stroke-linecap: butt;
stroke-linejoin: round;
}
.g2_3{
fill: none;
stroke: #000000;
stroke-width: 1.1458334;
stroke-linecap: butt;
stroke-linejoin: round;
}
.g3_3{
}
]]></style>
</defs>
<path d="M100.5,103.5l794.1,0" class="g1_3" />
<path d="M84.6,1142.7l772.2,0" class="g2_3" />
<path fill-rule="evenodd" d="M101.4,515.2l0.8,0l0,-0.7l-0.8,0l0,0.7Z" class="g3_3" />
<path fill-rule="evenodd" d="M101.4,515.2l0.8,0l0,-0.7l-0.8,0l0,0.7Z" class="g3_3" />
<path fill-rule="evenodd" d="M102.2,515.2l239.4,0l0,-0.7l-239.4,0l0,0.7Z" class="g3_3" />
<path fill-rule="evenodd" d="M341.6,515.2l0.8,0l0,-0.7l-0.8,0l0,0.7Z" class="g3_3" />
<path fill-rule="evenodd" d="M342.4,515.2l217.2,0l0,-0.7l-217.2,0l0,0.7Z" class="g3_3" />
<path fill-rule="evenodd" d="M559.6,515.2l0.8,0l0,-0.7l-0.8,0l0,0.7Z" class="g3_3" />
<path fill-rule="evenodd" d="M560.4,515.2l255.4,0l0,-0.7l-255.4,0l0,0.7Z" class="g3_3" />
<path fill-rule="evenodd" d="M815.8,515.2l0.8,0l0,-0.7l-0.8,0l0,0.7Z" class="g3_3" />
<path fill-rule="evenodd" d="M815.8,515.2l0.8,0l0,-0.7l-0.8,0l0,0.7Z" class="g3_3" />
<path fill-rule="evenodd" d="M101.4,535.8l0.8,0l0,-20.6l-0.8,0l0,20.6Z" class="g3_3" />
<path fill-rule="evenodd" d="M341.6,535.8l0.8,0l0,-20.6l-0.8,0l0,20.6Z" class="g3_3" />
<path fill-rule="evenodd" d="M559.6,535.8l0.8,0l0,-20.6l-0.8,0l0,20.6Z" class="g3_3" />
<path fill-rule="evenodd" d="M815.8,535.8l0.8,0l0,-20.6l-0.8,0l0,20.6Z" class="g3_3" />
<path fill-rule="evenodd" d="M101.4,536.5l0.8,0l0,-0.7l-0.8,0l0,0.7Z" class="g3_3" />
<path fill-rule="evenodd" d="M102.2,536.5l239.4,0l0,-0.7l-239.4,0l0,0.7Z" class="g3_3" />
<path fill-rule="evenodd" d="M341.6,536.5l0.8,0l0,-0.7l-0.8,0l0,0.7Z" class="g3_3" />
<path fill-rule="evenodd" d="M342.4,536.5l217.2,0l0,-0.7l-217.2,0l0,0.7Z" class="g3_3" />
<path fill-rule="evenodd" d="M559.6,536.5l0.8,0l0,-0.7l-0.8,0l0,0.7Z" class="g3_3" />
<path fill-rule="evenodd" d="M560.4,536.5l255.4,0l0,-0.7l-255.4,0l0,0.7Z" class="g3_3" />
<path fill-rule="evenodd" d="M815.8,536.5l0.8,0l0,-0.7l-0.8,0l0,0.7Z" class="g3_3" />
<path fill-rule="evenodd" d="M101.4,577.6l0.8,0l0,-41.1l-0.8,0l0,41.1Z" class="g3_3" />
<path fill-rule="evenodd" d="M341.6,577.6l0.8,0l0,-41.1l-0.8,0l0,41.1Z" class="g3_3" />
<path fill-rule="evenodd" d="M559.6,577.6l0.8,0l0,-41.1l-0.8,0l0,41.1Z" class="g3_3" />
<path fill-rule="evenodd" d="M815.8,577.6l0.8,0l0,-41.1l-0.8,0l0,41.1Z" class="g3_3" />
<path fill-rule="evenodd" d="M101.4,578.3l0.8,0l0,-0.7l-0.8,0l0,0.7Z" class="g3_3" />
<path fill-rule="evenodd" d="M102.2,578.3l239.4,0l0,-0.7l-239.4,0l0,0.7Z" class="g3_3" />
<path fill-rule="evenodd" d="M341.6,578.3l0.8,0l0,-0.7l-0.8,0l0,0.7Z" class="g3_3" />
<path fill-rule="evenodd" d="M342.4,578.3l217.2,0l0,-0.7l-217.2,0l0,0.7Z" class="g3_3" />
<path fill-rule="evenodd" d="M559.6,578.3l0.8,0l0,-0.7l-0.8,0l0,0.7Z" class="g3_3" />
<path fill-rule="evenodd" d="M560.4,578.3l255.4,0l0,-0.7l-255.4,0l0,0.7Z" class="g3_3" />
<path fill-rule="evenodd" d="M815.8,578.3l0.8,0l0,-0.7l-0.8,0l0,0.7Z" class="g3_3" />
<path fill-rule="evenodd" d="M101.4,660.5l0.8,0l0,-82.2l-0.8,0l0,82.2Z" class="g3_3" />
<path fill-rule="evenodd" d="M341.6,660.5l0.8,0l0,-82.2l-0.8,0l0,82.2Z" class="g3_3" />
<path fill-rule="evenodd" d="M559.6,660.5l0.8,0l0,-82.2l-0.8,0l0,82.2Z" class="g3_3" />
<path fill-rule="evenodd" d="M815.8,660.5l0.8,0l0,-82.2l-0.8,0l0,82.2Z" class="g3_3" />
<path fill-rule="evenodd" d="M101.4,661.2l0.8,0l0,-0.7l-0.8,0l0,0.7Z" class="g3_3" />
<path fill-rule="evenodd" d="M102.2,661.2l239.4,0l0,-0.7l-239.4,0l0,0.7Z" class="g3_3" />
<path fill-rule="evenodd" d="M341.6,661.2l0.8,0l0,-0.7l-0.8,0l0,0.7Z" class="g3_3" />
<path fill-rule="evenodd" d="M342.4,661.2l217.2,0l0,-0.7l-217.2,0l0,0.7Z" class="g3_3" />
<path fill-rule="evenodd" d="M559.6,661.2l0.8,0l0,-0.7l-0.8,0l0,0.7Z" class="g3_3" />
<path fill-rule="evenodd" d="M560.4,661.2l255.4,0l0,-0.7l-255.4,0l0,0.7Z" class="g3_3" />
<path fill-rule="evenodd" d="M815.8,661.2l0.8,0l0,-0.7l-0.8,0l0,0.7Z" class="g3_3" />
<path fill-rule="evenodd" d="M101.4,722.8l0.8,0l0,-61.6l-0.8,0l0,61.6Z" class="g3_3" />
<path fill-rule="evenodd" d="M341.6,722.8l0.8,0l0,-61.6l-0.8,0l0,61.6Z" class="g3_3" />
<path fill-rule="evenodd" d="M559.6,722.8l0.8,0l0,-61.6l-0.8,0l0,61.6Z" class="g3_3" />
<path fill-rule="evenodd" d="M815.8,722.8l0.8,0l0,-61.6l-0.8,0l0,61.6Z" class="g3_3" />
<path fill-rule="evenodd" d="M101.4,723.5l0.8,0l0,-0.7l-0.8,0l0,0.7Z" class="g3_3" />
<path fill-rule="evenodd" d="M102.2,723.5l239.4,0l0,-0.7l-239.4,0l0,0.7Z" class="g3_3" />
<path fill-rule="evenodd" d="M341.6,723.5l0.8,0l0,-0.7l-0.8,0l0,0.7Z" class="g3_3" />
<path fill-rule="evenodd" d="M342.4,723.5l217.2,0l0,-0.7l-217.2,0l0,0.7Z" class="g3_3" />
<path fill-rule="evenodd" d="M559.6,723.5l0.8,0l0,-0.7l-0.8,0l0,0.7Z" class="g3_3" />
<path fill-rule="evenodd" d="M560.4,723.5l255.4,0l0,-0.7l-255.4,0l0,0.7Z" class="g3_3" />
<path fill-rule="evenodd" d="M815.8,723.5l0.8,0l0,-0.7l-0.8,0l0,0.7Z" class="g3_3" />
<path fill-rule="evenodd" d="M101.4,764.6l0.8,0l0,-41.1l-0.8,0l0,41.1Z" class="g3_3" />
<path fill-rule="evenodd" d="M341.6,764.6l0.8,0l0,-41.1l-0.8,0l0,41.1Z" class="g3_3" />
<path fill-rule="evenodd" d="M559.6,764.6l0.8,0l0,-41.1l-0.8,0l0,41.1Z" class="g3_3" />
<path fill-rule="evenodd" d="M815.8,764.6l0.8,0l0,-41.1l-0.8,0l0,41.1Z" class="g3_3" />
<path fill-rule="evenodd" d="M101.4,765.3l0.8,0l0,-0.7l-0.8,0l0,0.7Z" class="g3_3" />
<path fill-rule="evenodd" d="M102.2,765.3l239.4,0l0,-0.7l-239.4,0l0,0.7Z" class="g3_3" />
<path fill-rule="evenodd" d="M341.6,765.3l0.8,0l0,-0.7l-0.8,0l0,0.7Z" class="g3_3" />
<path fill-rule="evenodd" d="M342.4,765.3l217.2,0l0,-0.7l-217.2,0l0,0.7Z" class="g3_3" />
<path fill-rule="evenodd" d="M559.6,765.3l0.8,0l0,-0.7l-0.8,0l0,0.7Z" class="g3_3" />
<path fill-rule="evenodd" d="M560.4,765.3l255.4,0l0,-0.7l-255.4,0l0,0.7Z" class="g3_3" />
<path fill-rule="evenodd" d="M815.8,765.3l0.8,0l0,-0.7l-0.8,0l0,0.7Z" class="g3_3" />
<path fill-rule="evenodd" d="M101.4,806.4l0.8,0l0,-41.1l-0.8,0l0,41.1Z" class="g3_3" />
<path fill-rule="evenodd" d="M341.6,806.4l0.8,0l0,-41.1l-0.8,0l0,41.1Z" class="g3_3" />
<path fill-rule="evenodd" d="M559.6,806.4l0.8,0l0,-41.1l-0.8,0l0,41.1Z" class="g3_3" />
<path fill-rule="evenodd" d="M815.8,806.4l0.8,0l0,-41.1l-0.8,0l0,41.1Z" class="g3_3" />
<path fill-rule="evenodd" d="M101.4,807.1l0.8,0l0,-0.7l-0.8,0l0,0.7Z" class="g3_3" />
<path fill-rule="evenodd" d="M102.2,807.1l239.4,0l0,-0.7l-239.4,0l0,0.7Z" class="g3_3" />
<path fill-rule="evenodd" d="M341.6,807.1l0.8,0l0,-0.7l-0.8,0l0,0.7Z" class="g3_3" />
<path fill-rule="evenodd" d="M342.4,807.1l217.2,0l0,-0.7l-217.2,0l0,0.7Z" class="g3_3" />
<path fill-rule="evenodd" d="M559.6,807.1l0.8,0l0,-0.7l-0.8,0l0,0.7Z" class="g3_3" />
<path fill-rule="evenodd" d="M560.4,807.1l255.4,0l0,-0.7l-255.4,0l0,0.7Z" class="g3_3" />
<path fill-rule="evenodd" d="M815.8,807.1l0.8,0l0,-0.7l-0.8,0l0,0.7Z" class="g3_3" />
<path fill-rule="evenodd" d="M101.4,848.2l0.8,0l0,-41.1l-0.8,0l0,41.1Z" class="g3_3" />
<path fill-rule="evenodd" d="M341.6,848.2l0.8,0l0,-41.1l-0.8,0l0,41.1Z" class="g3_3" />
<path fill-rule="evenodd" d="M559.6,848.2l0.8,0l0,-41.1l-0.8,0l0,41.1Z" class="g3_3" />
<path fill-rule="evenodd" d="M815.8,848.2l0.8,0l0,-41.1l-0.8,0l0,41.1Z" class="g3_3" />
<path fill-rule="evenodd" d="M101.4,848.9l0.8,0l0,-0.7l-0.8,0l0,0.7Z" class="g3_3" />
<path fill-rule="evenodd" d="M102.2,848.9l239.4,0l0,-0.7l-239.4,0l0,0.7Z" class="g3_3" />
<path fill-rule="evenodd" d="M341.6,848.9l0.8,0l0,-0.7l-0.8,0l0,0.7Z" class="g3_3" />
<path fill-rule="evenodd" d="M342.4,848.9l217.2,0l0,-0.7l-217.2,0l0,0.7Z" class="g3_3" />
<path fill-rule="evenodd" d="M559.6,848.9l0.8,0l0,-0.7l-0.8,0l0,0.7Z" class="g3_3" />
<path fill-rule="evenodd" d="M560.4,848.9l255.4,0l0,-0.7l-255.4,0l0,0.7Z" class="g3_3" />
<path fill-rule="evenodd" d="M815.8,848.9l0.8,0l0,-0.7l-0.8,0l0,0.7Z" class="g3_3" />
<path fill-rule="evenodd" d="M101.4,890l0.8,0l0,-41.1l-0.8,0l0,41.1Z" class="g3_3" />
<path fill-rule="evenodd" d="M341.6,890l0.8,0l0,-41.1l-0.8,0l0,41.1Z" class="g3_3" />
<path fill-rule="evenodd" d="M559.6,890l0.8,0l0,-41.1l-0.8,0l0,41.1Z" class="g3_3" />
<path fill-rule="evenodd" d="M815.8,890l0.8,0l0,-41.1l-0.8,0l0,41.1Z" class="g3_3" />
<path fill-rule="evenodd" d="M101.4,890.7l0.8,0l0,-0.7l-0.8,0l0,0.7Z" class="g3_3" />
<path fill-rule="evenodd" d="M102.2,890.7l239.4,0l0,-0.7l-239.4,0l0,0.7Z" class="g3_3" />
<path fill-rule="evenodd" d="M341.6,890.7l0.8,0l0,-0.7l-0.8,0l0,0.7Z" class="g3_3" />
<path fill-rule="evenodd" d="M342.4,890.7l217.2,0l0,-0.7l-217.2,0l0,0.7Z" class="g3_3" />
<path fill-rule="evenodd" d="M559.6,890.7l0.8,0l0,-0.7l-0.8,0l0,0.7Z" class="g3_3" />
<path fill-rule="evenodd" d="M560.4,890.7l255.4,0l0,-0.7l-255.4,0l0,0.7Z" class="g3_3" />
<path fill-rule="evenodd" d="M815.8,890.7l0.8,0l0,-0.7l-0.8,0l0,0.7Z" class="g3_3" />
<path fill-rule="evenodd" d="M101.4,952.2l0.8,0l0,-61.5l-0.8,0l0,61.5Z" class="g3_3" />
<path fill-rule="evenodd" d="M341.6,952.2l0.8,0l0,-61.5l-0.8,0l0,61.5Z" class="g3_3" />
<path fill-rule="evenodd" d="M559.6,952.2l0.8,0l0,-61.5l-0.8,0l0,61.5Z" class="g3_3" />
<path fill-rule="evenodd" d="M815.8,952.2l0.8,0l0,-61.5l-0.8,0l0,61.5Z" class="g3_3" />
<path fill-rule="evenodd" d="M101.4,952.9l0.8,0l0,-0.7l-0.8,0l0,0.7Z" class="g3_3" />
<path fill-rule="evenodd" d="M102.2,952.9l239.4,0l0,-0.7l-239.4,0l0,0.7Z" class="g3_3" />
<path fill-rule="evenodd" d="M341.6,952.9l0.8,0l0,-0.7l-0.8,0l0,0.7Z" class="g3_3" />
<path fill-rule="evenodd" d="M342.4,952.9l217.2,0l0,-0.7l-217.2,0l0,0.7Z" class="g3_3" />
<path fill-rule="evenodd" d="M559.6,952.9l0.8,0l0,-0.7l-0.8,0l0,0.7Z" class="g3_3" />
<path fill-rule="evenodd" d="M560.4,952.9l255.4,0l0,-0.7l-255.4,0l0,0.7Z" class="g3_3" />
<path fill-rule="evenodd" d="M815.8,952.9l0.8,0l0,-0.7l-0.8,0l0,0.7Z" class="g3_3" />
<path fill-rule="evenodd" d="M101.4,1014.5l0.8,0l0,-61.6l-0.8,0l0,61.6Z" class="g3_3" />
<path fill-rule="evenodd" d="M341.6,1014.5l0.8,0l0,-61.6l-0.8,0l0,61.6Z" class="g3_3" />
<path fill-rule="evenodd" d="M559.6,1014.5l0.8,0l0,-61.6l-0.8,0l0,61.6Z" class="g3_3" />
<path fill-rule="evenodd" d="M815.8,1014.5l0.8,0l0,-61.6l-0.8,0l0,61.6Z" class="g3_3" />
<path fill-rule="evenodd" d="M101.4,1015.3l0.8,0l0,-0.8l-0.8,0l0,0.8Z" class="g3_3" />
<path fill-rule="evenodd" d="M102.2,1015.3l239.4,0l0,-0.8l-239.4,0l0,0.8Z" class="g3_3" />
<path fill-rule="evenodd" d="M341.6,1015.3l0.8,0l0,-0.8l-0.8,0l0,0.8Z" class="g3_3" />
<path fill-rule="evenodd" d="M342.4,1015.3l217.2,0l0,-0.8l-217.2,0l0,0.8Z" class="g3_3" />
<path fill-rule="evenodd" d="M559.6,1015.3l0.8,0l0,-0.8l-0.8,0l0,0.8Z" class="g3_3" />
<path fill-rule="evenodd" d="M560.4,1015.3l255.4,0l0,-0.8l-255.4,0l0,0.8Z" class="g3_3" />
<path fill-rule="evenodd" d="M815.8,1015.3l0.8,0l0,-0.8l-0.8,0l0,0.8Z" class="g3_3" />
<path fill-rule="evenodd" d="M101.4,1076.9l0.8,0l0,-61.6l-0.8,0l0,61.6Z" class="g3_3" />
<path fill-rule="evenodd" d="M101.4,1077.6l0.8,0l0,-0.7l-0.8,0l0,0.7Z" class="g3_3" />
<path fill-rule="evenodd" d="M101.4,1077.6l0.8,0l0,-0.7l-0.8,0l0,0.7Z" class="g3_3" />
<path fill-rule="evenodd" d="M102.2,1077.6l239.4,0l0,-0.7l-239.4,0l0,0.7Z" class="g3_3" />
<path fill-rule="evenodd" d="M341.6,1076.9l0.8,0l0,-61.6l-0.8,0l0,61.6Z" class="g3_3" />
<path fill-rule="evenodd" d="M341.6,1077.6l0.8,0l0,-0.7l-0.8,0l0,0.7Z" class="g3_3" />
<path fill-rule="evenodd" d="M342.4,1077.6l217.2,0l0,-0.7l-217.2,0l0,0.7Z" class="g3_3" />
<path fill-rule="evenodd" d="M559.6,1076.9l0.8,0l0,-61.6l-0.8,0l0,61.6Z" class="g3_3" />
<path fill-rule="evenodd" d="M559.6,1077.6l0.8,0l0,-0.7l-0.8,0l0,0.7Z" class="g3_3" />
<path fill-rule="evenodd" d="M560.4,1077.6l255.4,0l0,-0.7l-255.4,0l0,0.7Z" class="g3_3" />
<path fill-rule="evenodd" d="M815.8,1076.9l0.8,0l0,-61.6l-0.8,0l0,61.6Z" class="g3_3" />
<path fill-rule="evenodd" d="M815.8,1077.6l0.8,0l0,-0.7l-0.8,0l0,0.7Z" class="g3_3" />
<path fill-rule="evenodd" d="M815.8,1077.6l0.8,0l0,-0.7l-0.8,0l0,0.7Z" class="g3_3" />
</svg>