<?xml version="1.0" encoding="UTF-8" standalone="no"?>
<!DOCTYPE svg PUBLIC "-//W3C//DTD SVG 1.1//EN"
"http://www.w3.org/Graphics/SVG/1.1/DTD/svg11.dtd">
<svg viewBox="0 0 935 1210" version="1.1" xmlns="http://www.w3.org/2000/svg" xmlns:xlink="http://www.w3.org/1999/xlink">
<defs>
<style type="text/css"><![CDATA[
.g1_32{
fill: none;
stroke: #000066;
stroke-width: 4.5833335;
stroke-linecap: butt;
stroke-linejoin: round;
}
.g2_32{
fill: none;
stroke: #000000;
stroke-width: 1.1458334;
stroke-linecap: butt;
stroke-linejoin: round;
}
.g3_32{
fill: #C8C8C8;
}
.g4_32{
fill: none;
stroke: #ED7D31;
stroke-width: 3.0555544;
stroke-linecap: butt;
stroke-linejoin: miter;
stroke-miterlimit: 8;
}
.g5_32{
fill: none;
stroke: #FF0000;
stroke-width: 2.2916667;
stroke-linecap: butt;
stroke-linejoin: miter;
stroke-miterlimit: 8;
}
.g6_32{
fill: #FFFFFF;
}
.g7_32{
fill: none;
stroke: #000000;
stroke-width: 0.76388764;
stroke-linecap: butt;
stroke-linejoin: round;
stroke-miterlimit: 8;
}
]]></style>
</defs>
<path d="M100.5,103.5l794.1,0" class="g1_32" />
<path d="M84.6,1142.7l772.2,0" class="g2_32" />
<image preserveAspectRatio="none" x="112" y="112" width="715" height="442" xlink:href="img/1.png" />
<path d="M111.7,554.2l716.2,0l0,-442.5l-716.2,0l0,442.5Z" class="g2_32" />
<image preserveAspectRatio="none" x="112" y="607" width="690" height="75" xlink:href="img/2.png" />
<path d="M111.7,682.3l690.7,0l0,-75.5l-690.7,0l0,75.5Z" class="g2_32" />
<path fill-rule="evenodd" d="M112.3,786.6l12,-4.5l-8.6,-7.4l13.6,-1l-3.8,-9l13.2,2.6l1.5,-9.3l10.7,5.8l6.7,-8.2l6.6,8.2L174.9,758l1.5,9.3l13.2,-2.6l-3.8,9l13.6,1l-8.5,7.4l11.9,4.5l-11.9,4.5l8.5,7.3l-13.6,1.1l3.8,9l-13.2,-2.6l-1.5,9.3l-10.7,-5.9l-6.6,8.2l-6.7,-8.2l-10.7,5.9l-1.5,-9.3l-13.2,2.6l3.8,-9l-13.6,-1.1l8.6,-7.3Z" class="g3_32" />
<path d="M112.3,786.6l12,-4.5l-8.6,-7.4l13.6,-1l-3.8,-9l13.2,2.6l1.5,-9.3l10.7,5.8l6.7,-8.2l6.6,8.2L174.9,758l1.5,9.3l13.2,-2.6l-3.8,9l13.6,1l-8.5,7.4l11.9,4.5l-11.9,4.5l8.5,7.3l-13.6,1.1l3.8,9l-13.2,-2.6l-1.5,9.3l-10.7,-5.9l-6.6,8.2l-6.7,-8.2l-10.7,5.9l-1.5,-9.3l-13.2,2.6l3.8,-9l-13.6,-1.1l8.6,-7.3Z" class="g4_32" />
<path d="M122.6,276.5l74.5,0l0,-19.5l-74.5,0l0,19.5Z" class="g5_32" />
<path d="M124.9,498.7l52.7,0l0,-17.1l-52.7,0l0,17.1Z" class="g5_32" />
<path d="M421.7,391l52.7,0l0,-17.2l-52.7,0l0,17.2Z" class="g5_32" />
<path d="M633.6,328l150.2,0l0,-21.8l-150.2,0l0,21.8Z" class="g5_32" />
<path d="M358.6,210l65.4,0l0,-25.2l-65.4,0l0,25.2Z" class="g5_32" />
<path fill-rule="evenodd" d="M207.4,299.4l106.6,0l0,-51.6l-106.6,0l0,51.6Z" class="g6_32" />
<path d="M207.4,299.4l106.6,0l0,-51.6l-106.6,0l0,51.6Z" class="g7_32" />
<image preserveAspectRatio="none" x="208" y="254" width="106" height="40" xlink:href="img/3.png" />
<path fill-rule="evenodd" d="M205.1,498.7l106.6,0l0,-51.5l-106.6,0l0,51.5Z" class="g6_32" />
<path d="M205.1,498.7l106.6,0l0,-51.5l-106.6,0l0,51.5Z" class="g7_32" />
<image preserveAspectRatio="none" x="206" y="453" width="105" height="40" xlink:href="img/4.png" />
<path fill-rule="evenodd" d="M481.3,367l121.4,0l0,-58.5l-121.4,0l0,58.5Z" class="g6_32" />
<path d="M481.3,367l121.4,0l0,-58.5l-121.4,0l0,58.5Z" class="g7_32" />
<image preserveAspectRatio="none" x="482" y="314" width="120" height="47" xlink:href="img/5.png" />
<path fill-rule="evenodd" d="M686.4,298.2l131.7,0l0,-58.4l-131.7,0l0,58.4Z" class="g6_32" />
<path d="M686.4,298.2l131.7,0l0,-58.4l-131.7,0l0,58.4Z" class="g7_32" />
<image preserveAspectRatio="none" x="687" y="246" width="131" height="46" xlink:href="img/6.png" />
<path fill-rule="evenodd" d="M442.3,245.5l131.8,0l0,-58.4l-131.8,0l0,58.4Z" class="g6_32" />
<path d="M442.3,245.5l131.8,0l0,-58.4l-131.8,0l0,58.4Z" class="g7_32" />
<image preserveAspectRatio="none" x="443" y="193" width="131" height="47" xlink:href="img/7.png" />
</svg>