<?xml version="1.0" encoding="UTF-8" standalone="no"?>
<!DOCTYPE svg PUBLIC "-//W3C//DTD SVG 1.1//EN"
"http://www.w3.org/Graphics/SVG/1.1/DTD/svg11.dtd">
<svg viewBox="0 0 935 1210" version="1.1" xmlns="http://www.w3.org/2000/svg" xmlns:xlink="http://www.w3.org/1999/xlink">
<defs>
<style type="text/css"><![CDATA[
.g1_199{
fill: none;
stroke: #000066;
stroke-width: 4.5833335;
stroke-linecap: butt;
stroke-linejoin: round;
}
.g2_199{
fill: none;
stroke: #000000;
stroke-width: 1.1458334;
stroke-linecap: butt;
stroke-linejoin: round;
}
.g3_199{
fill: none;
stroke: #FF0000;
stroke-width: 2.2916667;
stroke-linecap: butt;
stroke-linejoin: miter;
stroke-miterlimit: 8;
}
.g4_199{
fill: #1F4E79;
}
]]></style>
</defs>
<path d="M100.5,103.5l794.1,0" class="g1_199" />
<path d="M84.6,1142.7l772.2,0" class="g2_199" />
<image preserveAspectRatio="none" x="112" y="112" width="626" height="145" xlink:href="img/1.png" />
<path d="M111.7,257.7l626.4,0l0,-146l-626.4,0l0,146Z" class="g2_199" />
<image preserveAspectRatio="none" x="112" y="309" width="715" height="441" xlink:href="img/2.png" />
<path d="M111.7,751l716.2,0l0,-442.1l-716.2,0l0,442.1Z" class="g2_199" />
<path d="M120.5,209.3l423.1,0l0,-34.9l-423.1,0l0,34.9Z" class="g3_199" />
<path fill-rule="evenodd" d="M535.1,168.6c0,-11.9,10,-21.6,22.2,-21.6c12.3,0,22.3,9.7,22.3,21.6c0,12,-10,21.7,-22.3,21.7c-12.2,0,-22.2,-9.7,-22.2,-21.7Z" class="g4_199" />
<image preserveAspectRatio="none" x="542" y="159" width="30" height="19" xlink:href="img/3.png" />
<path d="M233.8,655.6l88.8,0l0,-29.5l-88.8,0l0,29.5Z" class="g3_199" />
<path fill-rule="evenodd" d="M313.1,611.8C313.1,598.1,327,587,344.3,587c17.2,0,31.2,11.1,31.2,24.8c0,13.7,-14,24.9,-31.2,24.9c-17.3,0,-31.2,-11.2,-31.2,-24.9Z" class="g4_199" />
<image preserveAspectRatio="none" x="323" y="600" width="43" height="23" xlink:href="img/4.png" />
<path d="M233.8,701.1l88.8,0l0,-29.6l-88.8,0l0,29.6Z" class="g3_199" />
</svg>