<?xml version="1.0" encoding="UTF-8" standalone="no"?>
<!DOCTYPE svg PUBLIC "-//W3C//DTD SVG 1.1//EN"
"http://www.w3.org/Graphics/SVG/1.1/DTD/svg11.dtd">
<svg viewBox="0 0 935 1210" version="1.1" xmlns="http://www.w3.org/2000/svg" xmlns:xlink="http://www.w3.org/1999/xlink">
<defs>
<style type="text/css"><![CDATA[
.g1_158{
fill: none;
stroke: #000066;
stroke-width: 4.5833335;
stroke-linecap: butt;
stroke-linejoin: round;
}
.g2_158{
fill: none;
stroke: #000000;
stroke-width: 1.1458334;
stroke-linecap: butt;
stroke-linejoin: round;
}
.g3_158{
fill: none;
stroke: #203864;
stroke-width: 1.1458334;
stroke-linecap: butt;
stroke-linejoin: miter;
stroke-miterlimit: 8;
}
.g4_158{
fill: #17375E;
}
.g5_158{
fill: none;
stroke: #10253F;
stroke-width: 1.1458334;
stroke-linecap: butt;
stroke-linejoin: round;
stroke-miterlimit: 8;
}
.g6_158{
fill: none;
stroke: #FF0000;
stroke-width: 2.6736124;
stroke-linecap: butt;
stroke-linejoin: miter;
stroke-miterlimit: 8;
}
.g7_158{
fill: none;
stroke: #FF0000;
stroke-width: 1.5277791;
stroke-linecap: butt;
stroke-linejoin: miter;
stroke-miterlimit: 8;
}
]]></style>
</defs>
<path d="M100.5,103.5l794.1,0" class="g1_158" />
<path d="M84.6,1142.7l772.2,0" class="g2_158" />
<image preserveAspectRatio="none" x="112" y="112" width="690" height="303" xlink:href="img/1.png" />
<path d="M111.7,415.4l690.7,0l0,-303.7l-690.7,0l0,303.7Z" class="g3_158" />
<image preserveAspectRatio="none" x="112" y="468" width="690" height="255" xlink:href="img/2.png" />
<path d="M111.7,723.7l690.7,0l0,-256.7l-690.7,0l0,256.7Z" class="g3_158" />
<path fill-rule="evenodd" d="M600.4,141.9c0,-14.5,14.1,-26.3,31.5,-26.3c17.4,0,31.5,11.8,31.5,26.3c0,14.6,-14.1,26.4,-31.5,26.4c-17.4,0,-31.5,-11.8,-31.5,-26.4Z" class="g4_158" />
<path d="M600.4,141.9c0,-14.5,14.1,-26.3,31.5,-26.3c17.4,0,31.5,11.8,31.5,26.3c0,14.6,-14.1,26.4,-31.5,26.4c-17.4,0,-31.5,-11.8,-31.5,-26.4Z" class="g5_158" />
<image preserveAspectRatio="none" x="610" y="129" width="44" height="26" xlink:href="img/3.png" />
<path d="M676,151.1l69.9,0l0,-37.8l-69.9,0l0,37.8Z" class="g6_158" />
<path d="M123.8,720.7l673.7,0l0,-48.1l-673.7,0l0,48.1Z" class="g7_158" />
<path d="M269.3,666.9l52.7,0l0,-26.4l-52.7,0l0,26.4Z" class="g7_158" />
</svg>