<?xml version="1.0" encoding="UTF-8" standalone="no"?>
<!DOCTYPE svg PUBLIC "-//W3C//DTD SVG 1.1//EN"
"http://www.w3.org/Graphics/SVG/1.1/DTD/svg11.dtd">
<svg viewBox="0 0 909 1286" version="1.1" xmlns="http://www.w3.org/2000/svg" xmlns:xlink="http://www.w3.org/1999/xlink">
<defs>
<style type="text/css"><![CDATA[
.g1_10{
fill: none;
stroke: #000066;
stroke-width: 4.5833335;
stroke-linecap: butt;
stroke-linejoin: round;
}
.g2_10{
fill: none;
stroke: #000000;
stroke-width: 1.1458334;
stroke-linecap: butt;
stroke-linejoin: round;
}
.g3_10{
fill: #FFFFFF;
}
.g4_10{
}
.g5_10{
fill: none;
stroke: #FF0000;
stroke-width: 3.0555556;
stroke-linecap: butt;
stroke-linejoin: round;
}
.g6_10{
fill: #376092;
}
]]></style>
</defs>
<path d="M78.1,99.1l794,0.1" class="g1_10" />
<path d="M96.6,1224.5l772.1,0.1" class="g2_10" />
<path fill-rule="evenodd" d="M112.3,183.1l689.5,0l0,0.3l-689.5,0l0,-0.3Z" class="g3_10" />
<path fill-rule="evenodd" d="M112.3,439.8l689.5,0l0,0.4l-689.5,0l0,-0.4Z" class="g3_10" />
<path fill-rule="evenodd" d="M112.3,183.4l0.5,0l0,256.5l-0.5,0l0,-256.5Z" class="g3_10" />
<path fill-rule="evenodd" d="M801.3,183.4l0.5,0l0,256.5l-0.5,0l0,-256.5Z" class="g3_10" />
<image preserveAspectRatio="none" x="113" y="183" width="688" height="257" xlink:href="img/1.png" />
<path fill-rule="evenodd" d="M112.6,439.9l-0.3,0.3l0,-257.1l0.3,0.3l0.2,0.2l0,256.2l-0.2,0.1Z" class="g4_10" />
<path fill-rule="evenodd" d="M801.5,439.9l-0.2,-0.1l0,-256.2l0.2,-0.2l0.3,-0.3l0,257.1l-0.3,-0.3Z" class="g4_10" />
<path fill-rule="evenodd" d="M801.5,183.4l-0.2,0.2l-688.5,0l-0.2,-0.2l-0.3,-0.3l689.5,0l-0.3,0.3Z" class="g4_10" />
<path fill-rule="evenodd" d="M801.5,439.9l0.3,0.3l-689.5,0l0.3,-0.3l0.2,-0.1l688.5,0l0.2,0.1Z" class="g4_10" />
<image preserveAspectRatio="none" x="160" y="488" width="28" height="25" xlink:href="img/2.png" />
<path fill-rule="evenodd" d="M112.3,540.6l623.3,0l0,0.3l-623.3,0l0,-0.3Z" class="g3_10" />
<path fill-rule="evenodd" d="M112.3,867.9l623.3,0l0,0.4l-623.3,0l0,-0.4Z" class="g3_10" />
<path fill-rule="evenodd" d="M112.3,540.9l0.5,0l0,327l-0.5,0l0,-327Z" class="g3_10" />
<path fill-rule="evenodd" d="M735.2,540.9l0.4,0l0,327l-0.4,0l0,-327Z" class="g3_10" />
<image preserveAspectRatio="none" x="113" y="541" width="622" height="327" xlink:href="img/3.png" />
<path fill-rule="evenodd" d="M112.6,868l-0.3,0.3l0,-327.7l0.3,0.3l0.2,0.2l0,326.8l-0.2,0.1Z" class="g4_10" />
<path fill-rule="evenodd" d="M735.3,868l-0.1,-0.1l0,-326.8l0.1,-0.2l0.3,-0.3l0,327.7L735.3,868Z" class="g4_10" />
<path fill-rule="evenodd" d="M735.3,540.9l-0.1,0.2l-622.4,0l-0.2,-0.2l-0.3,-0.3l623.3,0l-0.3,0.3Z" class="g4_10" />
<path fill-rule="evenodd" d="M735.3,868l0.3,0.3l-623.3,0l0.3,-0.3l0.2,-0.1l622.4,0l0.1,0.1Z" class="g4_10" />
<path d="M211.4,235.1l-94.5,0l0,-115.7l189,0l0,115.7l-94.5,0Z" class="g5_10" />
<path fill-rule="evenodd" d="M297.9,93.7l0,-1.3L298.1,91l0.1,-1.4l0.3,-1.2L298.8,87l0.5,-1.2l0.4,-1.4l0.5,-1.2L300.8,82l0.8,-1.2l0.7,-1.1l0.8,-1.1l0.8,-1l0.9,-1.1l1.1,-0.9l0.9,-1l1,-0.9l1.3,-0.9l1,-0.7l1.3,-0.7l1.2,-0.6L314,70.2l1.2,-0.6l1.4,-0.5l1.3,-0.3l1.4,-0.3l1.4,-0.3l1.4,-0.1l1.3,-0.2l1.4,0l1.4,0l1.5,0.2l1.4,0.1l1.4,0.3l1.3,0.3l1.4,0.3l1.2,0.5l1.4,0.6l1.2,0.6l1.2,0.6l1.3,0.7l1.2,0.7l1.1,0.9l1,0.9l1.1,1l0.9,0.9l0.9,1.1l1,1l0.7,1.1l0.8,1.2l0.6,1.1l0.6,1.2l0.6,1.2l0.5,1.4l0.3,1.2l0.3,1.4l0.3,1.2l0.1,1.4l0.2,1.4l0,1.3l0,1.4l-0.2,1.2l-0.1,1.4l-0.3,1.4l-0.3,1.2l-0.5,1.4l-0.4,1.2l-0.5,1.2l-0.6,1.3l-0.8,1.2l-0.7,1l-0.8,1.3l-0.8,1l-0.9,1l-1,1l-1,0.9l-1,1l-1.3,0.7l-1,0.8l-1.3,0.8l-1.2,0.6l-1.2,0.6l-1.4,0.4l-1.2,0.5l-1.4,0.3l-1.3,0.3l-1.4,0.3l-1.4,0.2l-1.5,0.1l-1.4,0l-1.4,0l-1.3,-0.1l-1.4,-0.2l-1.4,-0.3l-1.4,-0.3l-1.3,-0.3l-1.4,-0.5L314,117.1l-1.4,-0.6l-1.2,-0.6l-1.1,-0.6l-1.2,-0.8L308,113.6l-1.1,-0.8l-1,-0.9l-1,-1l-0.9,-1l-0.9,-1l-0.8,-1.3l-0.7,-1L301,105.4l-0.6,-1.3l-0.7,-1.2l-0.4,-1.2l-0.5,-1.4l-0.3,-1.2l-0.3,-1.4l-0.1,-1.4l0,-1.2l-0.2,-1.4Z" class="g6_10" />
<path d="M561.5,865.6l-58.4,0l0,-181.1l116.9,0l0,181.1l-58.5,0Z" class="g5_10" />
<path fill-rule="evenodd" d="M612,658.7l0,-1.4l0.2,-1.3l0.1,-1.4l0.3,-1.2l0.3,-1.4l0.3,-1.2l0.5,-1.4l0.6,-1.2l0.6,-1.2l0.6,-1.3l0.8,-1l0.8,-1.1l0.9,-1.1l0.9,-1l0.9,-1l1.1,-0.9l1.1,-0.9l1,-0.9l1.3,-0.8l1.2,-0.6l1.2,-0.6l1.2,-0.6l1.4,-0.6l1.2,-0.5l1.4,-0.3l1.4,-0.3l1.3,-0.3l1.4,-0.1l1.5,-0.2l1.4,0l1.4,0l1.4,0.2l1.3,0.1l1.4,0.3l1.4,0.3l1.4,0.3l1.3,0.5l1.3,0.6l1.3,0.6l1.3,0.6l1.2,0.6l1.1,0.8l1.2,0.9l1,0.9l1,0.9l1,1l0.9,1l0.8,1.1l0.8,1.1l0.7,1.2l0.8,1.1l0.6,1.2l0.5,1.2l0.4,1.4l0.5,1.2l0.3,1.4l0.3,1.2l0.2,1.4l0.1,1.3l0,1.4l-0.1,0l0,1.4l-0.2,1.2l-0.2,1.4l-0.3,1.4l-0.3,1.2l-0.3,1.4l-0.4,1.2l-0.6,1.2l-0.7,1.2l-0.6,1.3l-0.7,1l-0.8,1.2l-0.9,1.1l-0.9,0.9l-0.9,1.1l-1.1,0.9l-1.1,0.9l-1,0.8l-1.3,0.8l-1,0.7l-1.4,0.6l-1.2,0.6l-1.3,0.5l-1.3,0.5l-1.4,0.3l-1.4,0.3l-1.4,0.3l-1.3,0.1l-1.4,0.2l-1.4,0l-1.4,0L636,684.2l-1.4,-0.1l-1.3,-0.3l-1.4,-0.3l-1.4,-0.3l-1.2,-0.5l-1.4,-0.6l-1.2,-0.6l-1.2,-0.6l-1.2,-0.6L623,679.5l-1,-0.9l-1.1,-0.8l-1.1,-0.9l-0.9,-1.1L618,674.9l-0.8,-1.1l-0.9,-1.2l-0.6,-1l-0.8,-1.3l-0.6,-1.2l-0.4,-1.2l-0.7,-1.2l-0.3,-1.4l-0.3,-1.2l-0.3,-1.4l-0.1,-1.4L612,660.1l0,-1.4Z" class="g6_10" />
</svg>