<?xml version="1.0" encoding="UTF-8" standalone="no"?>
<!DOCTYPE svg PUBLIC "-//W3C//DTD SVG 1.1//EN"
"http://www.w3.org/Graphics/SVG/1.1/DTD/svg11.dtd">
<svg viewBox="0 0 935 1210" version="1.1" xmlns="http://www.w3.org/2000/svg" xmlns:xlink="http://www.w3.org/1999/xlink">
<defs>
<style type="text/css"><![CDATA[
.g1_98{
fill: none;
stroke: #000066;
stroke-width: 4.5833335;
stroke-linecap: butt;
stroke-linejoin: round;
}
.g2_98{
fill: none;
stroke: #000000;
stroke-width: 1.1458334;
stroke-linecap: butt;
stroke-linejoin: round;
}
.g3_98{
fill: none;
stroke: #FF0000;
stroke-width: 3.4375;
stroke-linecap: butt;
stroke-linejoin: round;
}
.g4_98{
fill: #376092;
}
]]></style>
</defs>
<path d="M100.5,103.5l794.1,0" class="g1_98" />
<path d="M84.6,1142.7l772.2,0" class="g2_98" />
<image preserveAspectRatio="none" x="112" y="112" width="690" height="269" xlink:href="img/1.png" />
<path d="M111.7,381.1l690.7,0l0,-269.4l-690.7,0l0,269.4Z" class="g2_98" />
<image preserveAspectRatio="none" x="112" y="461" width="681" height="337" xlink:href="img/2.png" />
<path d="M111.7,798.1l681.9,0l0,-337.4l-681.9,0l0,337.4Z" class="g2_98" />
<image preserveAspectRatio="none" x="112" y="855" width="407" height="159" xlink:href="img/3.png" />
<path d="M111.7,1014.2l407.9,0l0,-159.3l-407.9,0l0,159.3Z" class="g2_98" />
<path d="M232.3,144.7l292.9,0l0,-27.1l-292.9,0l0,27.1Z" class="g3_98" />
<path fill-rule="evenodd" d="M507.9,165.7c0,-13,10.5,-23.4,23.5,-23.4c12.9,0,23.4,10.4,23.4,23.4c0,12.9,-10.5,23.4,-23.4,23.4c-13,0,-23.5,-10.5,-23.5,-23.4Z" class="g4_98" />
<image preserveAspectRatio="none" x="516" y="156" width="30" height="19" xlink:href="img/4.png" />
<path d="M217.5,170.7l56.8,0l0,-21l-56.8,0l0,21Z" class="g3_98" />
<path fill-rule="evenodd" d="M258.3,181.7c0,-12.9,10.5,-23.4,23.4,-23.4c13,0,23.5,10.5,23.5,23.4c0,13,-10.5,23.5,-23.5,23.5c-12.9,0,-23.4,-10.5,-23.4,-23.5Z" class="g4_98" />
<image preserveAspectRatio="none" x="267" y="172" width="30" height="19" xlink:href="img/5.png" />
<path d="M370.7,648.1l284.3,0l0,-28.4l-284.3,0l0,28.4Z" class="g3_98" />
<path fill-rule="evenodd" d="M640.1,609.7c0,-12.9,10.5,-23.4,23.4,-23.4c13,0,23.5,10.5,23.5,23.4c0,13,-10.5,23.5,-23.5,23.5c-12.9,0,-23.4,-10.5,-23.4,-23.5Z" class="g4_98" />
<path d="M283,906.2l134.7,0l0,-41.9l-134.7,0l0,41.9Z" class="g3_98" />
<path fill-rule="evenodd" d="M401.7,913.6c0,-12.9,10.5,-23.4,23.4,-23.4c13,0,23.5,10.5,23.5,23.4c0,13,-10.5,23.5,-23.5,23.5c-12.9,0,-23.4,-10.5,-23.4,-23.5Z" class="g4_98" />
<image preserveAspectRatio="none" x="410" y="904" width="30" height="19" xlink:href="img/6.png" />
</svg>