<?xml version="1.0" encoding="UTF-8" standalone="no"?>
<!DOCTYPE svg PUBLIC "-//W3C//DTD SVG 1.1//EN"
"http://www.w3.org/Graphics/SVG/1.1/DTD/svg11.dtd">
<svg viewBox="0 0 935 1210" version="1.1" xmlns="http://www.w3.org/2000/svg" xmlns:xlink="http://www.w3.org/1999/xlink">
<defs>
<style type="text/css"><![CDATA[
.g1_53{
fill: none;
stroke: #000066;
stroke-width: 4.5833335;
stroke-linecap: butt;
stroke-linejoin: round;
}
.g2_53{
fill: none;
stroke: #000000;
stroke-width: 1.1458334;
stroke-linecap: butt;
stroke-linejoin: round;
}
.g3_53{
fill: none;
stroke: #FF0000;
stroke-width: 1.5277791;
stroke-linecap: butt;
stroke-linejoin: miter;
stroke-miterlimit: 8;
}
.g4_53{
fill: #1F4E79;
}
.g5_53{
fill: #254061;
}
]]></style>
</defs>
<path d="M100.5,103.5l794.1,0" class="g1_53" />
<path d="M84.6,1142.7l772.2,0" class="g2_53" />
<image preserveAspectRatio="none" x="112" y="112" width="715" height="787" xlink:href="img/1.png" />
<path d="M111.7,899.4l716.2,0l0,-787.7l-716.2,0l0,787.7Z" class="g2_53" />
<path d="M116.9,150.8l213.1,0l0,-30.9l-213.1,0l0,30.9Z" class="g3_53" />
<path fill-rule="evenodd" d="M338,140.5c0,-13.3,12.1,-24.1,27,-24.1c14.8,0,26.9,10.8,26.9,24.1c0,13.3,-12.1,24,-26.9,24c-14.9,0,-27,-10.7,-27,-24Z" class="g4_53" />
<image preserveAspectRatio="none" x="347" y="130" width="36" height="21" xlink:href="img/2.png" />
<path d="M300.2,266.5l228,0l0,-29.8l-228,0l0,29.8Z" class="g3_53" />
<path d="M143.2,869.2l609.6,0l0,-472.1l-609.6,0l0,472.1Z" class="g3_53" />
<path fill-rule="evenodd" d="M607.3,357c0,-13.2,12,-24,26.9,-24c14.9,0,26.9,10.8,26.9,24c0,13.3,-12,24.1,-26.9,24.1c-14.9,0,-26.9,-10.8,-26.9,-24.1Z" class="g5_53" />
<image preserveAspectRatio="none" x="617" y="347" width="35" height="20" xlink:href="img/3.png" />
<path fill-rule="evenodd" d="M597,150.8c0,-13.3,12,-24.1,26.9,-24.1c14.9,0,26.9,10.8,26.9,24.1c0,13.3,-12,24.1,-26.9,24.1C609,174.9,597,164.1,597,150.8Z" class="g5_53" />
<image preserveAspectRatio="none" x="606" y="141" width="35" height="20" xlink:href="img/4.png" />
<path d="M655.4,143.9l74.5,0l0,-27.5l-74.5,0l0,27.5Z" class="g3_53" />
</svg>