<?xml version="1.0" encoding="UTF-8" standalone="no"?>
<!DOCTYPE svg PUBLIC "-//W3C//DTD SVG 1.1//EN"
"http://www.w3.org/Graphics/SVG/1.1/DTD/svg11.dtd">
<svg viewBox="0 0 935 1210" version="1.1" xmlns="http://www.w3.org/2000/svg" xmlns:xlink="http://www.w3.org/1999/xlink">
<defs>
<style type="text/css"><![CDATA[
.g1_96{
fill: none;
stroke: #000066;
stroke-width: 4.5833335;
stroke-linecap: butt;
stroke-linejoin: round;
}
.g2_96{
fill: none;
stroke: #000000;
stroke-width: 1.1458334;
stroke-linecap: butt;
stroke-linejoin: round;
}
.g3_96{
fill: none;
stroke: #FF0000;
stroke-width: 3.4375;
stroke-linecap: butt;
stroke-linejoin: round;
}
.g4_96{
fill: #376092;
}
]]></style>
</defs>
<path d="M100.5,103.5l794.1,0" class="g1_96" />
<path d="M84.6,1142.7l772.2,0" class="g2_96" />
<image preserveAspectRatio="none" x="112" y="112" width="690" height="695" xlink:href="img/1.png" />
<path d="M111.7,807.1l690.7,0l0,-695.4l-690.7,0l0,695.4Z" class="g2_96" />
<path d="M131,709.6l658.7,0l0,-106.3l-658.7,0l0,106.3Z" class="g3_96" />
<path fill-rule="evenodd" d="M402.9,720.1c0,-15.3,14.7,-27.8,32.7,-27.8c18.1,0,32.8,12.5,32.8,27.8c0,15.4,-14.7,27.8,-32.8,27.8c-18,0,-32.7,-12.4,-32.7,-27.8Z" class="g4_96" />
<image preserveAspectRatio="none" x="414" y="707" width="43" height="26" xlink:href="img/2.png" />
</svg>