<?xml version="1.0" encoding="UTF-8" standalone="no"?>
<!DOCTYPE svg PUBLIC "-//W3C//DTD SVG 1.1//EN"
"http://www.w3.org/Graphics/SVG/1.1/DTD/svg11.dtd">
<svg viewBox="0 0 909 1286" version="1.1" xmlns="http://www.w3.org/2000/svg" xmlns:xlink="http://www.w3.org/1999/xlink">
<defs>
<style type="text/css"><![CDATA[
.g1_12{
fill: none;
stroke: #000066;
stroke-width: 4.5833335;
stroke-linecap: butt;
stroke-linejoin: round;
}
.g2_12{
fill: none;
stroke: #000000;
stroke-width: 1.1458334;
stroke-linecap: butt;
stroke-linejoin: round;
}
.g3_12{
fill: #FFFFFF;
}
.g4_12{
}
.g5_12{
fill: none;
stroke: #FF0000;
stroke-width: 3.0555556;
stroke-linecap: butt;
stroke-linejoin: round;
}
.g6_12{
fill: #376092;
}
]]></style>
</defs>
<path d="M78.1,99.1l794,0.1" class="g1_12" />
<path d="M96.6,1224.5l772.1,0.1" class="g2_12" />
<path fill-rule="evenodd" d="M112.3,97l689.5,0l0,0.4l-689.5,0l0,-0.4Z" class="g3_12" />
<path fill-rule="evenodd" d="M112.3,420.2l689.5,0l0,0.5l-689.5,0l0,-0.5Z" class="g3_12" />
<path fill-rule="evenodd" d="M112.3,97.3l0.5,0l0,322.9l-0.5,0l0,-322.9Z" class="g3_12" />
<path fill-rule="evenodd" d="M801.3,97.3l0.5,0l0,322.9l-0.5,0l0,-322.9Z" class="g3_12" />
<image preserveAspectRatio="none" x="113" y="97" width="688" height="323" xlink:href="img/1.png" />
<path fill-rule="evenodd" d="M112.6,420.4l-0.3,0.3L112.3,97l0.3,0.3l0.2,0.1l0,322.8l-0.2,0.2Z" class="g4_12" />
<path fill-rule="evenodd" d="M801.5,420.4l-0.2,-0.2l0,-322.8l0.2,-0.1L801.8,97l0,323.7l-0.3,-0.3Z" class="g4_12" />
<path fill-rule="evenodd" d="M801.5,97.3l-0.2,0.1l-688.5,0l-0.2,-0.1L112.3,97l689.5,0l-0.3,0.3Z" class="g4_12" />
<path fill-rule="evenodd" d="M801.5,420.4l0.3,0.3l-689.5,0l0.3,-0.3l0.2,-0.2l688.5,0l0.2,0.2Z" class="g4_12" />
<image preserveAspectRatio="none" x="112" y="469" width="28" height="25" xlink:href="img/2.png" />
<path fill-rule="evenodd" d="M112.3,520.9l689.5,0l0,0.5l-689.5,0l0,-0.5Z" class="g3_12" />
<path fill-rule="evenodd" d="M112.3,689.7l689.5,0l0,0.5l-689.5,0l0,-0.5Z" class="g3_12" />
<path fill-rule="evenodd" d="M112.3,521.2l0.5,0l0,168.5l-0.5,0l0,-168.5Z" class="g3_12" />
<path fill-rule="evenodd" d="M801.3,521.2l0.5,0l0,168.5l-0.5,0l0,-168.5Z" class="g3_12" />
<image preserveAspectRatio="none" x="113" y="521" width="688" height="169" xlink:href="img/3.png" />
<path fill-rule="evenodd" d="M112.6,689.9l-0.3,0.3l0,-169.3l0.3,0.3l0.2,0.2l0,168.3l-0.2,0.2Z" class="g4_12" />
<path fill-rule="evenodd" d="M801.5,689.9l-0.2,-0.2l0,-168.3l0.2,-0.2l0.3,-0.3l0,169.3l-0.3,-0.3Z" class="g4_12" />
<path fill-rule="evenodd" d="M801.5,521.2l-0.2,0.2l-688.5,0l-0.2,-0.2l-0.3,-0.3l689.5,0l-0.3,0.3Z" class="g4_12" />
<path fill-rule="evenodd" d="M801.5,689.9l0.3,0.3l-689.5,0l0.3,-0.3l0.2,-0.2l688.5,0l0.2,0.2Z" class="g4_12" />
<path d="M155.2,210.5l-39.5,0l0,-31l79.1,0l0,31l-39.6,0Z" class="g5_12" />
<path fill-rule="evenodd" d="M212.1,175.5l0,-1.4l0.1,-1.2l0.2,-1.4l0.3,-1.4l0.3,-1.2l0.4,-1.4l0.5,-1.2l0.4,-1.2l0.7,-1.2l0.7,-1.3l0.8,-1.2l0.7,-1l0.8,-1.1l0.9,-0.9l1.1,-1.1l0.9,-0.9l1.1,-0.9l1.2,-0.8l1.1,-0.8l1.2,-0.7l1.2,-0.6l1.4,-0.6l1.2,-0.5l1.4,-0.5l1.4,-0.4l1.3,-0.3l1.4,-0.2l1.4,-0.1l1.4,-0.2l1.3,0l1.4,0l1.5,0.2l1.4,0.1l1.4,0.2l1.4,0.3l1.3,0.4l1.3,0.5l1.3,0.5l1.3,0.6l1.2,0.6l1.2,0.7l1.2,0.8l1.1,0.8l1.1,0.9l1,0.9l1,1.1l0.9,0.9l0.9,1.1l0.8,1l0.7,1.2l0.6,1.3l0.6,1.2l0.7,1.2l0.4,1.2l0.3,1.4l0.3,1.2l0.3,1.4l0.2,1.4l0.1,1.2l0,1.4l0,1.4l-0.1,1.3l-0.2,1.4l-0.3,1.2l-0.3,1.4l-0.4,1.2l-0.5,1.4l-0.5,1.2l-0.6,1.2l-0.7,1.1l-0.8,1.2l-0.8,1.1l-0.7,1.1l-0.9,1l-1.1,1l-0.9,0.9l-1.1,0.9l-1.2,0.8l-1.1,0.7l-1.2,0.8l-1.2,0.6l-1.3,0.6l-1.3,0.5l-1.3,0.4l-1.3,0.5l-1.4,0.3l-1.4,0.3l-1.4,0.1l-1.5,0l-1.4,0.2l0,-0.2l-1.3,0L236.2,201l-1.4,-0.2l-1.4,-0.1l-1.3,-0.3l-1.4,-0.5l-1.4,-0.4L228.1,199l-1.4,-0.6l-1.2,-0.6L224.4,197l-1.2,-0.7l-1.1,-0.8l-1,-0.9L220,193.7l-0.9,-1l-0.9,-1l-1,-1.1l-0.7,-1.1l-0.8,-1.2l-0.6,-1.1L214.5,186l-0.6,-1.4l-0.5,-1.2L213,182.2l-0.3,-1.4l-0.3,-1.2l-0.2,-1.4l0,-1.3l-0.1,-1.4Z" class="g6_12" />
<path d="M720.8,661.3l-74.5,0l0,-33.1l148.9,0l0,33.1l-74.4,0Z" class="g5_12" />
<path fill-rule="evenodd" d="M732.3,580.5l0,-1.4l0.1,-1.2l0.2,-1.4l0.3,-1.2l0.3,-1.2l0.3,-1.4l0.4,-1.2l0.5,-1.2l0.6,-1.1l0.6,-1.2l0.8,-1.1l0.8,-1.1l0.7,-1l0.9,-1.1l1,-0.9l0.9,-0.9l0.9,-1l1.1,-0.7l1.2,-0.9l1,-0.7l1.3,-0.7l1.2,-0.6l1.2,-0.5l1.2,-0.4l1.3,-0.5l1.3,-0.3l1.4,-0.3l1.4,-0.3l1.2,-0.2l1.4,-0.1l1.4,0l1.3,0l1.6,0.1l1.3,0.2l1.4,0.3l1.4,0.3l1.4,0.3l1.2,0.5l1.4,0.6l1.2,0.6l1.2,0.6l1.2,0.6l1.2,0.8l1.1,0.9l1.1,0.7l1,1l1,1l0.9,0.9l0.7,1.1l1,1.2l0.6,1.1l0.7,1.2l0.7,1.3l0.4,1.2l0.6,1.2l0.3,1.4l0.3,1.2l0.3,1.4l0.2,1.3L786,579l0,1.3l0,1.4l-0.1,1.4l-0.2,1.4l-0.3,1.2l-0.3,1.4l-0.4,1.2l-0.5,1.4l-0.4,1.2l-0.7,1.2l-0.7,1.1l-0.8,1.2l-0.8,1.1l-0.7,1l-0.9,1.1l-1.1,0.9l-0.9,0.9l-1.1,1l-1.2,0.7l-1.1,0.8l-1.2,0.7l-1.2,0.7l-1.2,0.6l-1.4,0.4l-1.2,0.5l-1.4,0.4l-1.4,0.4l-1.4,0.3l-1.3,0.1l-1.6,0l-1.3,0.2l-1.4,0L756.4,606L755,605.9l-1.3,-0.3l-1.4,-0.4l-1.4,-0.3l-1.4,-0.4l-1.2,-0.6l-1.4,-0.6l-1.2,-0.7L744.6,602l-1.2,-0.7l-1.1,-0.9l-1,-0.8l-1.1,-0.9l-0.9,-1.1l-0.9,-0.9l-0.9,-1.1l-0.8,-1.2l-0.8,-1.1l-0.6,-1.2l-0.6,-1.2l-0.6,-1.2l-0.5,-1.3l-0.4,-1.3l-0.3,-1.3l-0.3,-1.3l-0.2,-1.4l0,-1.2l-0.1,-1.4Z" class="g6_12" />
</svg>