<?xml version="1.0" encoding="UTF-8" standalone="no"?>
<!DOCTYPE svg PUBLIC "-//W3C//DTD SVG 1.1//EN"
"http://www.w3.org/Graphics/SVG/1.1/DTD/svg11.dtd">
<svg viewBox="0 0 935 1210" version="1.1" xmlns="http://www.w3.org/2000/svg" xmlns:xlink="http://www.w3.org/1999/xlink">
<defs>
<style type="text/css"><![CDATA[
.g1_122{
fill: none;
stroke: #000066;
stroke-width: 4.5833335;
stroke-linecap: butt;
stroke-linejoin: round;
}
.g2_122{
fill: none;
stroke: #000000;
stroke-width: 1.1458334;
stroke-linecap: butt;
stroke-linejoin: round;
}
.g3_122{
fill: #C3D69B;
}
.g4_122{
fill: none;
stroke: #C0504D;
stroke-width: 3.0555544;
stroke-linecap: butt;
stroke-linejoin: miter;
stroke-miterlimit: 8;
}
.g5_122{
fill: #1F4E79;
}
.g6_122{
fill: none;
stroke: #FF0000;
stroke-width: 2.2916667;
stroke-linecap: butt;
stroke-linejoin: miter;
stroke-miterlimit: 8;
}
]]></style>
</defs>
<path d="M100.5,103.5l794.1,0" class="g1_122" />
<path d="M84.6,1142.7l772.2,0" class="g2_122" />
<image preserveAspectRatio="none" x="112" y="112" width="595" height="595" xlink:href="img/1.png" />
<path d="M111.7,707.5l595.9,0l0,-595.8l-595.9,0l0,595.8Z" class="g2_122" />
<image preserveAspectRatio="none" x="112" y="892" width="534" height="145" xlink:href="img/2.png" />
<path d="M111.7,1037.3l535.1,0l0,-145.6l-535.1,0l0,145.6Z" class="g2_122" />
<path fill-rule="evenodd" d="M112.3,757.5l12,-4.5l-8.6,-7.4l13.6,-1l-3.8,-9l13.2,2.6l1.5,-9.3l10.7,5.8l6.7,-8.1l6.6,8.1l10.7,-5.8l1.5,9.3l13.2,-2.6l-3.8,9l13.6,1l-8.5,7.4l11.9,4.5L190.9,762l8.5,7.3l-13.6,1.1l3.8,9l-13.2,-2.6l-1.5,9.3l-10.7,-5.8l-6.6,8.1l-6.7,-8.1l-10.7,5.8l-1.5,-9.3l-13.2,2.6l3.8,-9l-13.6,-1.1l8.6,-7.3Z" class="g3_122" />
<path d="M112.3,757.5l12,-4.5l-8.6,-7.4l13.6,-1l-3.8,-9l13.2,2.6l1.5,-9.3l10.7,5.8l6.7,-8.1l6.6,8.1l10.7,-5.8l1.5,9.3l13.2,-2.6l-3.8,9l13.6,1l-8.5,7.4l11.9,4.5L190.9,762l8.5,7.3l-13.6,1.1l3.8,9l-13.2,-2.6l-1.5,9.3l-10.7,-5.8l-6.6,8.1l-6.7,-8.1l-10.7,5.8l-1.5,-9.3l-13.2,2.6l3.8,-9l-13.6,-1.1l8.6,-7.3Z" class="g4_122" />
<path fill-rule="evenodd" d="M394.3,148.7c0,-13.7,14,-24.8,31.2,-24.8c17.2,0,31.2,11.1,31.2,24.8c0,13.7,-14,24.9,-31.2,24.9c-17.2,0,-31.2,-11.2,-31.2,-24.9Z" class="g5_122" />
<path fill-rule="evenodd" d="M592.2,328.2c0,-13.7,14,-24.8,31.2,-24.8c17.2,0,31.2,11.1,31.2,24.8c0,13.7,-14,24.9,-31.2,24.9c-17.2,0,-31.2,-11.2,-31.2,-24.9Z" class="g5_122" />
<path fill-rule="evenodd" d="M332.4,534.9c0,-13.7,13.9,-24.9,31.1,-24.9c17.3,0,31.2,11.2,31.2,24.9c0,13.7,-13.9,24.8,-31.2,24.8c-17.2,0,-31.1,-11.1,-31.1,-24.8Z" class="g5_122" />
<path d="M112.1,700.3l88.7,0l0,-29.5l-88.7,0l0,29.5Z" class="g6_122" />
<path fill-rule="evenodd" d="M191.4,656.5c0,-13.7,13.9,-24.8,31.2,-24.8c17.2,0,31.2,11.1,31.2,24.8c0,13.7,-14,24.8,-31.2,24.8c-17.3,0,-31.2,-11.1,-31.2,-24.8Z" class="g5_122" />
<image preserveAspectRatio="none" x="201" y="645" width="43" height="23" xlink:href="img/3.png" />
</svg>