<?xml version="1.0" encoding="UTF-8" standalone="no"?>
<!DOCTYPE svg PUBLIC "-//W3C//DTD SVG 1.1//EN"
"http://www.w3.org/Graphics/SVG/1.1/DTD/svg11.dtd">
<svg viewBox="0 0 935 1210" version="1.1" xmlns="http://www.w3.org/2000/svg" xmlns:xlink="http://www.w3.org/1999/xlink">
<defs>
<style type="text/css"><![CDATA[
.g1_188{
fill: none;
stroke: #000066;
stroke-width: 4.5833335;
stroke-linecap: butt;
stroke-linejoin: round;
}
.g2_188{
fill: none;
stroke: #000000;
stroke-width: 1.1458334;
stroke-linecap: butt;
stroke-linejoin: round;
}
.g3_188{
fill: none;
stroke: #FF0000;
stroke-width: 2.2916667;
stroke-linecap: butt;
stroke-linejoin: miter;
stroke-miterlimit: 8;
}
.g4_188{
fill: #1F4E79;
}
]]></style>
</defs>
<path d="M100.5,103.5l794.1,0" class="g1_188" />
<path d="M84.6,1142.7l772.2,0" class="g2_188" />
<image preserveAspectRatio="none" x="112" y="360" width="715" height="539" xlink:href="img/1.png" />
<path d="M111.7,900l716.2,0l0,-540.2l-716.2,0l0,540.2Z" class="g2_188" />
<path d="M112.1,389.4l179.8,0l0,-29.6l-179.8,0l0,29.6Z" class="g3_188" />
<path fill-rule="evenodd" d="M280.2,369.8c0,-12,10,-21.7,22.2,-21.7c12.3,0,22.2,9.7,22.2,21.7c0,12,-9.9,21.7,-22.2,21.7c-12.2,0,-22.2,-9.7,-22.2,-21.7Z" class="g4_188" />
<image preserveAspectRatio="none" x="287" y="361" width="30" height="18" xlink:href="img/2.png" />
<path d="M112.1,489.9l572.1,0l0,-98.4l-572.1,0l0,98.4Z" class="g3_188" />
<path d="M112.1,639l426.2,0l0,-134.3l-426.2,0l0,134.3Z" class="g3_188" />
<path d="M112.1,890.7l572.1,0l0,-83.5l-572.1,0l0,83.5Z" class="g3_188" />
</svg>