<?xml version="1.0" encoding="UTF-8" standalone="no"?>
<!DOCTYPE svg PUBLIC "-//W3C//DTD SVG 1.1//EN"
"http://www.w3.org/Graphics/SVG/1.1/DTD/svg11.dtd">
<svg viewBox="0 0 909 1286" version="1.1" xmlns="http://www.w3.org/2000/svg" xmlns:xlink="http://www.w3.org/1999/xlink">
<defs>
<style type="text/css"><![CDATA[
.g1_4{
fill: none;
stroke: #000066;
stroke-width: 4.5833335;
stroke-linecap: butt;
stroke-linejoin: round;
}
.g2_4{
fill: none;
stroke: #000000;
stroke-width: 1.1458334;
stroke-linecap: butt;
stroke-linejoin: round;
}
.g3_4{
fill: #FFFFFF;
}
.g4_4{
}
.g5_4{
fill: none;
stroke: #FF0000;
stroke-width: 3.0555556;
stroke-linecap: butt;
stroke-linejoin: round;
}
.g6_4{
fill: #376092;
}
]]></style>
</defs>
<path d="M78.1,99.1l794,0.1" class="g1_4" />
<path d="M96.6,1224.5l772.1,0.1" class="g2_4" />
<path fill-rule="evenodd" d="M112.3,97l687.5,0l0,0.4l-687.5,0l0,-0.4Z" class="g3_4" />
<path fill-rule="evenodd" d="M112.3,391.1l687.5,0l0,0.4l-687.5,0l0,-0.4Z" class="g3_4" />
<path fill-rule="evenodd" d="M112.3,97.3l0.5,0l0,293.8l-0.5,0l0,-293.8Z" class="g3_4" />
<path fill-rule="evenodd" d="M799.3,97.3l0.5,0l0,293.8l-0.5,0l0,-293.8Z" class="g3_4" />
<image preserveAspectRatio="none" x="113" y="97" width="686" height="294" xlink:href="img/1.png" />
<path fill-rule="evenodd" d="M112.6,391.2l-0.3,0.3L112.3,97l0.3,0.3l0.2,0.1l0,293.7l-0.2,0.1Z" class="g4_4" />
<path fill-rule="evenodd" d="M799.5,391.2l-0.2,-0.1l0,-293.7l0.2,-0.1L799.8,97l0,294.5l-0.3,-0.3Z" class="g4_4" />
<path fill-rule="evenodd" d="M799.5,97.3l-0.2,0.1l-686.5,0l-0.2,-0.1L112.3,97l687.5,0l-0.3,0.3Z" class="g4_4" />
<path fill-rule="evenodd" d="M799.5,391.2l0.3,0.3l-687.5,0l0.3,-0.3l0.2,-0.1l686.5,0l0.2,0.1Z" class="g4_4" />
<path fill-rule="evenodd" d="M112.3,832.1l687.5,0l0,0.5l-687.5,0l0,-0.5Z" class="g3_4" />
<path fill-rule="evenodd" d="M112.3,1126.2l687.5,0l0,0.5l-687.5,0l0,-0.5Z" class="g3_4" />
<path fill-rule="evenodd" d="M112.3,832.4l0.5,0l0,293.8l-0.5,0l0,-293.8Z" class="g3_4" />
<path fill-rule="evenodd" d="M799.3,832.4l0.5,0l0,293.8l-0.5,0l0,-293.8Z" class="g3_4" />
<image preserveAspectRatio="none" x="113" y="832" width="686" height="294" xlink:href="img/2.png" />
<path fill-rule="evenodd" d="M112.6,1126.4l-0.3,0.3l0,-294.6l0.3,0.3l0.2,0.2l0,293.6l-0.2,0.2Z" class="g4_4" />
<path fill-rule="evenodd" d="M799.5,1126.4l-0.2,-0.2l0,-293.6l0.2,-0.2l0.3,-0.3l0,294.6l-0.3,-0.3Z" class="g4_4" />
<path fill-rule="evenodd" d="M799.5,832.4l-0.2,0.2l-686.5,0l-0.2,-0.2l-0.3,-0.3l687.5,0l-0.3,0.3Z" class="g4_4" />
<path fill-rule="evenodd" d="M799.5,1126.4l0.3,0.3l-687.5,0l0.3,-0.3l0.2,-0.2l686.5,0l0.2,0.2Z" class="g4_4" />
<path d="M603.3,935.6l-42.9,0l0,-29.7l85.9,0l0,29.7l-43,0Z" class="g5_4" />
<path d="M639.4,962l-77.9,0l0,-24l155.8,0l0,24l-77.9,0Z" class="g5_4" />
<path d="M787.9,964.3l-8.6,0l0,-19.4l17.1,0l0,19.4l-8.5,0Z" class="g5_4" />
<path fill-rule="evenodd" d="M649.6,904.2l0,-1.3l0.2,-1.4l0.1,-1.4l0.3,-1.2l0.3,-1.4l0.5,-1.2l0.4,-1.4l0.5,-1.2l0.6,-1.2l0.8,-1.1l0.7,-1.2l0.8,-1.1l0.8,-1.1l0.9,-1l1.1,-0.9l0.9,-1l1,-0.9l1.3,-0.7l1,-0.8l1.3,-0.8l1.2,-0.6l1.4,-0.6l1.2,-0.5l1.3,-0.4l1.4,-0.5L671,879l1.4,-0.3l1.4,-0.1l1.3,0l1.4,-0.2l1.4,0l1.5,0.2l1.4,0.1l1.4,0.3l1.3,0.3l1.4,0.3l1.2,0.5l1.4,0.6l1.2,0.6l1.2,0.6l1.3,0.6l1.2,0.8l1.1,0.9l1,0.9l1.1,1l0.9,0.9l0.9,1l0.9,1.1l0.8,1.1l0.8,1.2l0.6,1.1l0.6,1.2l0.6,1.2l0.5,1.4l0.3,1.2l0.3,1.4l0.3,1.2l0.1,1.4l0.2,1.4l0,1.3l0,1.4l-0.2,1.2l-0.1,1.4l-0.3,1.4l-0.3,1.2l-0.3,1.4l-0.5,1.2l-0.6,1.2l-0.6,1.2l-0.6,1.3l-0.8,1l-0.8,1.3l-0.9,1l-0.9,0.9l-0.9,1.1l-1.1,0.9l-1,0.9l-1.1,0.8l-1.2,0.8l-1.3,0.7l-1.2,0.6l-1.2,0.7l-1.4,0.4l-1.2,0.5l-1.4,0.3l-1.3,0.3l-1.4,0.3l-1.4,0.1l-1.5,0.2l-1.4,0l-1.4,0l-1.3,-0.2l-1.4,-0.1L671,929.3L669.6,929l-1.4,-0.3l-1.3,-0.5l-1.2,-0.6L664.3,927l-1.2,-0.6l-1.3,-0.6l-1,-0.8l-1.3,-0.9l-1,-0.8l-0.9,-0.9l-1.1,-1.1l-0.9,-0.9l-0.8,-1l-0.9,-1.3l-0.6,-1l-0.8,-1.3l-0.6,-1.2l-0.5,-1.2L651,912.2l-0.5,-1.4l-0.3,-1.2l-0.3,-1.4l-0.1,-1.4l-0.2,-1.2l0,-1.4Z" class="g6_4" />
<path fill-rule="evenodd" d="M744.9,997.1l0,-1.4l0.2,-1.3l0.1,-1.4l0.4,-1.2l0.3,-1.4l0.3,-1.2l0.4,-1.4l0.6,-1.2l0.6,-1.2l0.7,-1.3l0.7,-1L750,982l0.9,-1.1l0.9,-1l0.9,-1l1.1,-0.9l1.1,-0.9l1,-0.9l1.3,-0.8l1.2,-0.6l1.2,-0.6l1.2,-0.6l1.4,-0.6l1.2,-0.5l1.4,-0.3l1.4,-0.3l1.4,-0.3l1.3,-0.1l1.6,-0.2l1.3,0l1.4,0l1.4,0.2l1.4,0.1l1.3,0.3l1.4,0.3l1.4,0.3l1.4,0.5l1.2,0.6l1.4,0.6l1.2,0.6l1.2,0.6l1.1,0.8l1.2,0.9l1.1,0.9l0.9,0.9l1,1l1,1l0.7,1.1l0.8,1.1l0.8,1.2l0.7,1.1l0.6,1.2l0.5,1.2l0.4,1.4l0.5,1.2l0.3,1.4l0.3,1.2l0.2,1.4l0.1,1.3l0,1.4l-0.1,0l0,1.4l-0.2,1.2l-0.1,1.4l-0.3,1.4l-0.3,1.2l-0.4,1.4l-0.4,1.2l-0.6,1.2l-0.6,1.2l-0.6,1.3l-0.8,1l-0.8,1.2l-0.9,1.1l-0.9,0.9l-0.9,1.1l-1.1,0.9l-1.1,0.9l-1,0.8l-1.3,0.8l-1,0.7l-1.4,0.6l-1.2,0.6l-1.2,0.5l-1.4,0.5l-1.4,0.3l-1.4,0.3l-1.3,0.3l-1.4,0.1l-1.4,0.2l-1.4,0l-1.3,0l-1.6,-0.2l-1.3,-0.1l-1.4,-0.3l-1.4,-0.3l-1.4,-0.3l-1.2,-0.5l-1.4,-0.6l-1.2,-0.6l-1.2,-0.6l-1.2,-0.6l-1.3,-0.8l-1,-0.9l-1.1,-0.8l-1.1,-0.9l-0.9,-1.1l-0.9,-0.9l-0.8,-1.1l-0.9,-1.2l-0.6,-1l-0.8,-1.3l-0.6,-1.2l-0.4,-1.2l-0.6,-1.2l-0.3,-1.4l-0.3,-1.2l-0.4,-1.4l-0.1,-1.4l-0.2,-1.2l0,-1.4Z" class="g6_4" />
<path fill-rule="evenodd" d="M552.3,146.3l0,-1.2l0.1,-1.4l0.2,-1.2l0.1,-1.4l0.4,-1.2l0.4,-1.2l0.5,-1.3l0.4,-1.2L555,135l0.7,-1.2l0.6,-1.1l0.7,-1.1l0.8,-1l0.9,-1.1l0.9,-0.9l0.9,-0.9l1.1,-1l1.1,-0.7l1.1,-0.8l1,-0.7l1.2,-0.7l1.3,-0.6l1.2,-0.6l1.2,-0.4l1.4,-0.5l1.4,-0.3l1.2,-0.3l1.4,-0.3l1.3,-0.2l1.4,-0.1l1.4,0l1.4,0l1.3,0.1l1.4,0.2l1.4,0.3l1.4,0.3l1.3,0.3l1.4,0.5l1.2,0.6l1.4,0.6l1.2,0.6l1.1,0.6l1.2,0.8l1.1,0.9l1.1,0.9l1,0.9L599,129l1,1.1l0.9,1.1l0.7,1l0.8,1.1l0.6,1.2l0.6,1.3l0.6,1.2l0.5,1.4l0.5,1.2l0.3,1.4l0.3,1.2l0.1,1.4l0,1.3l0.2,1.4l0,1.4l-0.2,1.2l-0.1,1.4l-0.3,1.3l-0.3,1.3l-0.5,1.3l-0.5,1.3l-0.4,1.2l-0.6,1.2l-0.8,1.2l-0.8,1.3l-0.7,1l-0.8,1.1l-0.9,1.1l-1.1,0.9l-0.9,0.9l-1.1,0.9l-1.2,0.8l-1.1,0.7l-1.2,0.8l-1.2,0.6l-1.4,0.6l-1.2,0.5l-1.4,0.4l-1.3,0.5l-1.4,0.3l-1.4,0.3l-1.4,0.2l-1.3,0l-1.4,0.1l-1.4,0L576.3,172l-1.4,-0.2l-1.4,-0.3l-1.3,-0.3l-1.4,-0.3l-1.2,-0.5l-1.4,-0.6L567,169.2l-1.3,-0.6L564.5,168l-1.2,-0.8l-1.1,-0.9l-1,-0.9l-1.1,-0.9l-0.9,-0.9l-1,-1.1l-0.9,-1.1l-0.7,-1l-0.8,-1.1l-0.6,-1.2l-0.6,-1.3L554,155.6l-0.5,-1.4L553.1,153l-0.4,-1.4l-0.3,-1.2l-0.1,-1.3l0,-1.4l-0.2,-1.4l0.2,0Z" class="g6_4" />
</svg>