<?xml version="1.0" encoding="UTF-8" standalone="no"?>
<!DOCTYPE svg PUBLIC "-//W3C//DTD SVG 1.1//EN"
"http://www.w3.org/Graphics/SVG/1.1/DTD/svg11.dtd">
<svg viewBox="0 0 935 1210" version="1.1" xmlns="http://www.w3.org/2000/svg" xmlns:xlink="http://www.w3.org/1999/xlink">
<defs>
<style type="text/css"><![CDATA[
.g1_74{
fill: none;
stroke: #000066;
stroke-width: 4.5833335;
stroke-linecap: butt;
stroke-linejoin: round;
}
.g2_74{
fill: none;
stroke: #000000;
stroke-width: 1.1458334;
stroke-linecap: butt;
stroke-linejoin: round;
}
.g3_74{
fill: none;
stroke: #000000;
stroke-width: 0.38194567;
stroke-linecap: square;
stroke-linejoin: miter;
stroke-miterlimit: 8;
}
.g4_74{
fill: #C3D69B;
}
.g5_74{
fill: none;
stroke: #C0504D;
stroke-width: 3.0555544;
stroke-linecap: butt;
stroke-linejoin: miter;
stroke-miterlimit: 8;
}
]]></style>
</defs>
<path d="M100.5,103.5l794.1,0" class="g1_74" />
<path d="M84.6,1142.7l772.2,0" class="g2_74" />
<image preserveAspectRatio="none" x="114" y="180" width="704" height="484" xlink:href="img/1.png" />
<image preserveAspectRatio="none" x="117" y="183" width="689" height="470" xlink:href="img/2.png" />
<path d="M116.7,652.8l689.9,0l0,-469.7l-689.9,0l0,469.7Z" class="g3_74" />
<path fill-rule="evenodd" d="M112.3,736.1l12,-4.6l-8.6,-7.3l13.6,-1l-3.8,-9l13.2,2.6l1.5,-9.3l10.7,5.8l6.7,-8.2l6.6,8.2l10.7,-5.8l1.5,9.3l13.2,-2.6l-3.8,9l13.6,1l-8.5,7.3l11.9,4.6l-11.9,4.5l8.5,7.3l-13.6,1l3.8,9l-13.2,-2.6l-1.5,9.3l-10.7,-5.8l-6.6,8.2l-6.7,-8.2l-10.7,5.8l-1.5,-9.3l-13.2,2.6l3.8,-9l-13.6,-1l8.6,-7.3Z" class="g4_74" />
<path d="M112.3,736.1l12,-4.6l-8.6,-7.3l13.6,-1l-3.8,-9l13.2,2.6l1.5,-9.3l10.7,5.8l6.7,-8.2l6.6,8.2l10.7,-5.8l1.5,9.3l13.2,-2.6l-3.8,9l13.6,1l-8.5,7.3l11.9,4.6l-11.9,4.5l8.5,7.3l-13.6,1l3.8,9l-13.2,-2.6l-1.5,9.3l-10.7,-5.8l-6.6,8.2l-6.7,-8.2l-10.7,5.8l-1.5,-9.3l-13.2,2.6l3.8,-9l-13.6,-1l8.6,-7.3Z" class="g5_74" />
</svg>