<?xml version="1.0" encoding="UTF-8" standalone="no"?>
<!DOCTYPE svg PUBLIC "-//W3C//DTD SVG 1.1//EN"
"http://www.w3.org/Graphics/SVG/1.1/DTD/svg11.dtd">
<svg viewBox="0 0 935 1210" version="1.1" xmlns="http://www.w3.org/2000/svg" xmlns:xlink="http://www.w3.org/1999/xlink">
<defs>
<style type="text/css"><![CDATA[
.g1_80{
fill: none;
stroke: #000066;
stroke-width: 4.5833335;
stroke-linecap: butt;
stroke-linejoin: round;
}
.g2_80{
fill: none;
stroke: #000000;
stroke-width: 1.1458334;
stroke-linecap: butt;
stroke-linejoin: round;
}
.g3_80{
fill: none;
stroke: #000000;
stroke-width: 0.38194567;
stroke-linecap: square;
stroke-linejoin: miter;
stroke-miterlimit: 8;
}
.g4_80{
fill: none;
stroke: #FF0000;
stroke-width: 3.4375;
stroke-linecap: butt;
stroke-linejoin: round;
stroke-miterlimit: 8;
}
.g5_80{
fill: #FFFFFF;
}
.g6_80{
fill: none;
stroke: #000000;
stroke-width: 0.76388764;
stroke-linecap: butt;
stroke-linejoin: round;
stroke-miterlimit: 8;
}
]]></style>
</defs>
<path d="M100.5,103.5l794.1,0" class="g1_80" />
<path d="M84.6,1142.7l772.2,0" class="g2_80" />
<image preserveAspectRatio="none" x="112" y="112" width="659" height="547" xlink:href="img/1.png" />
<path d="M112.1,659l659.2,0l0,-546.9l-659.2,0l0,546.9Z" class="g3_80" />
<image preserveAspectRatio="none" x="112" y="678" width="715" height="262" xlink:href="img/2.png" />
<path d="M112.1,940.4l715.4,0l0,-262.2l-715.4,0l0,262.2Z" class="g3_80" />
<path d="M418.2,198.5l87.1,0l0,-19.4l-87.1,0l0,19.4Z" class="g4_80" />
<path fill-rule="evenodd" d="M283,246.7l124.9,0l0,-52.7L283,194l0,52.7Z" class="g5_80" />
<path d="M283,246.7l124.9,0l0,-52.7L283,194l0,52.7Z" class="g6_80" />
<image preserveAspectRatio="none" x="283" y="200" width="125" height="41" xlink:href="img/3.png" />
<path d="M295.6,890.6l527.1,0l0,-22.9l-527.1,0l0,22.9Z" class="g4_80" />
<path fill-rule="evenodd" d="M600.4,859.7l205.1,0l0,-57.3l-205.1,0l0,57.3Z" class="g5_80" />
<path d="M600.4,859.7l205.1,0l0,-57.3l-205.1,0l0,57.3Z" class="g6_80" />
<image preserveAspectRatio="none" x="601" y="808" width="204" height="46" xlink:href="img/4.png" />
</svg>