<?xml version="1.0" encoding="UTF-8" standalone="no"?>
<!DOCTYPE svg PUBLIC "-//W3C//DTD SVG 1.1//EN"
"http://www.w3.org/Graphics/SVG/1.1/DTD/svg11.dtd">
<svg viewBox="0 0 935 1210" version="1.1" xmlns="http://www.w3.org/2000/svg" xmlns:xlink="http://www.w3.org/1999/xlink">
<defs>
<style type="text/css"><![CDATA[
.g1_166{
fill: none;
stroke: #000066;
stroke-width: 4.5833335;
stroke-linecap: butt;
stroke-linejoin: round;
}
.g2_166{
fill: none;
stroke: #000000;
stroke-width: 1.1458334;
stroke-linecap: butt;
stroke-linejoin: round;
}
.g3_166{
fill: none;
stroke: #203864;
stroke-width: 1.1458334;
stroke-linecap: butt;
stroke-linejoin: miter;
stroke-miterlimit: 8;
}
.g4_166{
fill: none;
stroke: #000000;
stroke-width: 1.1458334;
stroke-linecap: butt;
stroke-linejoin: round;
stroke-miterlimit: 8;
}
.g5_166{
fill: #C8C8C8;
}
.g6_166{
fill: none;
stroke: #ED7D31;
stroke-width: 3.0555544;
stroke-linecap: butt;
stroke-linejoin: miter;
stroke-miterlimit: 8;
}
.g7_166{
fill: #17375E;
}
.g8_166{
fill: none;
stroke: #10253F;
stroke-width: 1.1458334;
stroke-linecap: butt;
stroke-linejoin: round;
stroke-miterlimit: 8;
}
.g9_166{
fill: none;
stroke: #FF0000;
stroke-width: 2.6736124;
stroke-linecap: butt;
stroke-linejoin: miter;
stroke-miterlimit: 8;
}
]]></style>
</defs>
<path d="M100.5,103.5l794.1,0" class="g1_166" />
<path d="M84.6,1142.7l772.2,0" class="g2_166" />
<image preserveAspectRatio="none" x="112" y="112" width="690" height="354" xlink:href="img/1.png" />
<path d="M111.7,466.2l690.7,0l0,-354.5l-690.7,0l0,354.5Z" class="g3_166" />
<image preserveAspectRatio="none" x="112" y="784" width="715" height="279" xlink:href="img/2.png" />
<path d="M111.7,1063.7l716.1,0l0,-280.3l-716.1,0l0,280.3Z" class="g4_166" />
<path fill-rule="evenodd" d="M110,643.1l11.2,-4.6l-8,-7.3l12.8,-1l-3.6,-9l12.3,2.6l1.5,-9.3l10,5.8l6.2,-8.2l6.2,8.2l10,-5.8l1.5,9.3l12.3,-2.6l-3.6,9l12.8,1l-8,7.3l11.2,4.6l-11.2,4.5l8,7.3L178.8,656l3.6,8.9l-12.3,-2.5l-1.5,9.3l-10,-5.9l-6.2,8.2l-6.2,-8.2l-10,5.9l-1.5,-9.3l-12.3,2.5L126,656l-12.8,-1.1l8,-7.3Z" class="g5_166" />
<path d="M110,643.1l11.2,-4.6l-8,-7.3l12.8,-1l-3.6,-9l12.3,2.6l1.5,-9.3l10,5.8l6.2,-8.2l6.2,8.2l10,-5.8l1.5,9.3l12.3,-2.6l-3.6,9l12.8,1l-8,7.3l11.2,4.6l-11.2,4.5l8,7.3L178.8,656l3.6,8.9l-12.3,-2.5l-1.5,9.3l-10,-5.9l-6.2,8.2l-6.2,-8.2l-10,5.9l-1.5,-9.3l-12.3,2.5L126,656l-12.8,-1.1l8,-7.3Z" class="g6_166" />
<path fill-rule="evenodd" d="M265.9,816.3C265.9,801.8,280,790,297.4,790c17.4,0,31.5,11.8,31.5,26.3c0,14.6,-14.1,26.4,-31.5,26.4c-17.4,0,-31.5,-11.8,-31.5,-26.4Z" class="g7_166" />
<path d="M265.9,816.3C265.9,801.8,280,790,297.4,790c17.4,0,31.5,11.8,31.5,26.3c0,14.6,-14.1,26.4,-31.5,26.4c-17.4,0,-31.5,-11.8,-31.5,-26.4Z" class="g8_166" />
<image preserveAspectRatio="none" x="276" y="804" width="43" height="25" xlink:href="img/3.png" />
<path d="M112.1,798.3l177.6,0l0,-14.8l-177.6,0l0,14.8Z" class="g9_166" />
<path fill-rule="evenodd" d="M376.4,846.8c0,-14.5,14.1,-26.3,31.5,-26.3c17.4,0,31.6,11.8,31.6,26.3c0,14.6,-14.2,26.4,-31.6,26.4c-17.4,0,-31.5,-11.8,-31.5,-26.4Z" class="g7_166" />
<path d="M376.4,846.8c0,-14.5,14.1,-26.3,31.5,-26.3c17.4,0,31.6,11.8,31.6,26.3c0,14.6,-14.2,26.4,-31.6,26.4c-17.4,0,-31.5,-11.8,-31.5,-26.4Z" class="g8_166" />
<image preserveAspectRatio="none" x="386" y="834" width="44" height="25" xlink:href="img/4.png" />
<path d="M420.3,820.5l51.3,0l0,-14.8l-51.3,0l0,14.8Z" class="g9_166" />
</svg>