<?xml version="1.0" encoding="UTF-8" standalone="no"?>
<!DOCTYPE svg PUBLIC "-//W3C//DTD SVG 1.1//EN"
"http://www.w3.org/Graphics/SVG/1.1/DTD/svg11.dtd">
<svg viewBox="0 0 935 1210" version="1.1" xmlns="http://www.w3.org/2000/svg" xmlns:xlink="http://www.w3.org/1999/xlink">
<defs>
<style type="text/css"><![CDATA[
.g1_111{
fill: none;
stroke: #000066;
stroke-width: 4.5833335;
stroke-linecap: butt;
stroke-linejoin: round;
}
.g2_111{
fill: none;
stroke: #000000;
stroke-width: 1.1458334;
stroke-linecap: butt;
stroke-linejoin: round;
}
.g3_111{
fill: none;
stroke: #FF0000;
stroke-width: 3.4375;
stroke-linecap: butt;
stroke-linejoin: round;
}
.g4_111{
fill: #376092;
}
]]></style>
</defs>
<path d="M100.5,103.5l794.1,0" class="g1_111" />
<path d="M84.6,1142.7l772.2,0" class="g2_111" />
<image preserveAspectRatio="none" x="112" y="147" width="715" height="255" xlink:href="img/1.png" />
<path d="M111.7,402.2l716.2,0l0,-256.1l-716.2,0l0,256.1Z" class="g2_111" />
<image preserveAspectRatio="none" x="112" y="488" width="715" height="380" xlink:href="img/2.png" />
<path d="M111.7,868.5l716.2,0l0,-380.9l-716.2,0l0,380.9Z" class="g2_111" />
<path d="M159.7,309.6l616.6,0l0,-35.2l-616.6,0l0,35.2Z" class="g3_111" />
<path fill-rule="evenodd" d="M324,267c0,-15,14.1,-27.2,31.5,-27.2c17.3,0,31.4,12.2,31.4,27.2c0,15,-14.1,27.2,-31.4,27.2C338.1,294.2,324,282,324,267Z" class="g4_111" />
<image preserveAspectRatio="none" x="335" y="255" width="41" height="24" xlink:href="img/3.png" />
<path d="M270.7,640l343.8,0l0,-19.8l-343.8,0l0,19.8Z" class="g3_111" />
<path fill-rule="evenodd" d="M545.1,612.8c0,-15,14.1,-27.1,31.4,-27.1c17.4,0,31.5,12.1,31.5,27.1c0,15,-14.1,27.2,-31.5,27.2c-17.3,0,-31.4,-12.2,-31.4,-27.2Z" class="g4_111" />
<image preserveAspectRatio="none" x="556" y="601" width="41" height="24" xlink:href="img/4.png" />
<path d="M339.5,786.6l100.9,0l0,-28.9l-100.9,0l0,28.9Z" class="g3_111" />
<path fill-rule="evenodd" d="M431.9,750.3c0,-15,14.1,-27.2,31.5,-27.2c17.3,0,31.4,12.2,31.4,27.2c0,15,-14.1,27.2,-31.4,27.2c-17.4,0,-31.5,-12.2,-31.5,-27.2Z" class="g4_111" />
<image preserveAspectRatio="none" x="443" y="738" width="41" height="24" xlink:href="img/5.png" />
</svg>