<?xml version="1.0" encoding="UTF-8" standalone="no"?>
<!DOCTYPE svg PUBLIC "-//W3C//DTD SVG 1.1//EN"
"http://www.w3.org/Graphics/SVG/1.1/DTD/svg11.dtd">
<svg viewBox="0 0 909 1286" version="1.1" xmlns="http://www.w3.org/2000/svg" xmlns:xlink="http://www.w3.org/1999/xlink">
<defs>
<style type="text/css"><![CDATA[
.g1_13{
fill: none;
stroke: #000066;
stroke-width: 4.5833335;
stroke-linecap: butt;
stroke-linejoin: round;
}
.g2_13{
fill: none;
stroke: #000000;
stroke-width: 1.1458334;
stroke-linecap: butt;
stroke-linejoin: round;
}
.g3_13{
fill: #FFFFFF;
}
.g4_13{
}
.g5_13{
fill: none;
stroke: #FF0000;
stroke-width: 3.4375;
stroke-linecap: butt;
stroke-linejoin: round;
}
.g6_13{
fill: #376092;
}
]]></style>
</defs>
<path d="M78.1,99.1l794,0.1" class="g1_13" />
<path d="M96.6,1224.5l772.1,0.1" class="g2_13" />
<path fill-rule="evenodd" d="M112.3,145.4l689.5,0l0,0.3l-689.5,0l0,-0.3Z" class="g3_13" />
<path fill-rule="evenodd" d="M112.3,325.5l689.5,0l0,0.5l-689.5,0l0,-0.5Z" class="g3_13" />
<path fill-rule="evenodd" d="M112.3,145.7l0.5,0l0,179.8l-0.5,0l0,-179.8Z" class="g3_13" />
<path fill-rule="evenodd" d="M801.3,145.7l0.5,0l0,179.8l-0.5,0l0,-179.8Z" class="g3_13" />
<image preserveAspectRatio="none" x="113" y="146" width="688" height="179" xlink:href="img/1.png" />
<path fill-rule="evenodd" d="M112.6,325.7l-0.3,0.3l0,-180.6l0.3,0.3l0.2,0.1l0,179.7l-0.2,0.2Z" class="g4_13" />
<path fill-rule="evenodd" d="M801.5,325.7l-0.2,-0.2l0,-179.7l0.2,-0.1l0.3,-0.3l0,180.6l-0.3,-0.3Z" class="g4_13" />
<path fill-rule="evenodd" d="M801.5,145.7l-0.2,0.1l-688.5,0l-0.2,-0.1l-0.3,-0.3l689.5,0l-0.3,0.3Z" class="g4_13" />
<path fill-rule="evenodd" d="M801.5,325.7l0.3,0.3l-689.5,0l0.3,-0.3l0.2,-0.2l688.5,0l0.2,0.2Z" class="g4_13" />
<image preserveAspectRatio="none" x="583" y="349" width="32" height="31" xlink:href="img/2.png" />
<path fill-rule="evenodd" d="M112.3,432.1l296.8,0l0,1.1l-296.8,0l0,-1.1Z" class="g3_13" />
<path fill-rule="evenodd" d="M112.3,852.3l296.8,0l0,1.2l-296.8,0l0,-1.2Z" class="g3_13" />
<path fill-rule="evenodd" d="M112.3,433.2l1.2,0l0,419.2l-1.2,0l0,-419.2Z" class="g3_13" />
<path fill-rule="evenodd" d="M407.9,433.2l1.2,0l0,419.2l-1.2,0l0,-419.2Z" class="g3_13" />
<image preserveAspectRatio="none" x="114" y="433" width="375" height="419" xlink:href="img/3.png" />
<path fill-rule="evenodd" d="M112.9,852.9l-0.6,0.6l0,-421.4l0.6,0.7l0.6,0.6l0,418.9l-0.6,0.6Z" class="g4_13" />
<path fill-rule="evenodd" d="M408.5,852.9l-0.6,-0.6l0,-418.9l0.6,-0.6l0.6,-0.7l0,421.4l-0.6,-0.6Z" class="g4_13" />
<path fill-rule="evenodd" d="M408.5,432.8l-0.6,0.6l-294.4,0l-0.6,-0.6l-0.6,-0.7l296.8,0l-0.6,0.7Z" class="g4_13" />
<path fill-rule="evenodd" d="M408.5,852.9l0.6,0.6l-296.8,0l0.6,-0.6l0.6,-0.6l294.4,0l0.6,0.6Z" class="g4_13" />
<path fill-rule="evenodd" d="M116.1,915.5l646.3,0l0,1.3l-646.3,0l0,-1.3Z" class="g3_13" />
<path fill-rule="evenodd" d="M116.1,1108l646.3,0l0,1.3l-646.3,0l0,-1.3Z" class="g3_13" />
<path fill-rule="evenodd" d="M116.1,916.6l1.2,0l0,191.4l-1.2,0l0,-191.4Z" class="g3_13" />
<path fill-rule="evenodd" d="M761.1,916.6l1.3,0l0,191.4l-1.3,0l0,-191.4Z" class="g3_13" />
<image preserveAspectRatio="none" x="117" y="917" width="644" height="191" xlink:href="img/4.png" />
<path fill-rule="evenodd" d="M116.7,1108.6l-0.6,0.7l0,-193.8l0.6,0.6l0.6,0.7l0,191.2l-0.6,0.6Z" class="g4_13" />
<path fill-rule="evenodd" d="M761.8,1108.6l-0.7,-0.6l0,-191.2l0.7,-0.7l0.6,-0.6l0,193.8l-0.6,-0.7Z" class="g4_13" />
<path fill-rule="evenodd" d="M761.8,916.1l-0.7,0.7l-643.8,0l-0.6,-0.7l-0.6,-0.6l646.3,0l-0.6,0.6Z" class="g4_13" />
<path fill-rule="evenodd" d="M761.8,1108.6l0.6,0.7l-646.3,0l0.6,-0.7l0.6,-0.6l643.8,0l0.7,0.6Z" class="g4_13" />
<path d="M653.1,301.1l-145.4,0l0,-135.4l291,0l0,135.4l-145.6,0Z" class="g5_13" />
<path fill-rule="evenodd" d="M573.8,146.3l0,-1.2l0,-1.2l0.2,-1.1l0.3,-1.2l0.3,-1.3l0.3,-1l0.3,-1.1l0.5,-1.2l0.4,-1.1l0.6,-1.1l0.6,-0.9l0.7,-1l0.7,-1l0.6,-0.9l0.9,-0.9l0.8,-0.8l0.9,-0.9l0.9,-0.6l1,-0.7l1,-0.7l0.9,-0.6l1.1,-0.6l1.1,-0.4l1.1,-0.5l1.2,-0.5l1.1,-0.3l1.2,-0.3l1.2,-0.1l1.1,-0.2l1.2,-0.1l1.2,0l1.2,0l1.3,0.1l1.2,0.2l1,0.3l1.3,0.1l1.2,0.5l1.1,0.3l1.2,0.5l1,0.6l1.1,0.6l1.1,0.6l1.1,0.6l0.9,0.8l0.9,0.9l0.9,0.7l0.8,1l0.7,0.9l0.8,0.9l0.8,1.1l0.6,1l0.6,1.1l0.4,1.1l0.5,1l0.5,1.3l0.3,1.2l0.3,1.1l0.3,1.2l0.1,1.2l0.2,1.2l0,1.2l0,1.3l-0.2,1.2l-0.1,1.2L620,151l-0.2,1.3l-0.4,1.2l-0.3,1.1l-0.5,1.2l-0.6,1l-0.6,1.1l-0.6,1.1l-0.6,0.9l-0.8,1.1l-0.9,0.9l-0.8,0.9l-0.9,0.8l-0.9,0.7l-0.9,0.8l-1.1,0.8l-1.1,0.6l-1.1,0.6l-1,0.4l-1.1,0.5l-1.2,0.5l-1.2,0.3l-1.1,0.3l-1.2,0.3l-1.2,0.1l-1.3,0.2l-1.2,0l-1.2,0l-1.2,-0.2l-1.3,-0.1l-1.2,-0.3l-1.2,-0.2l-1.2,-0.4l-1.1,-0.4l-1.2,-0.4l-1.1,-0.6l-1.1,-0.6l-1,-0.6l-0.9,-0.7l-1.1,-0.7l-0.9,-0.9l-0.9,-0.8l-0.8,-0.9L579,161l-0.7,-0.9L577.5,159l-0.6,-1.1l-0.6,-1.1l-0.5,-1l-0.4,-1.1l-0.5,-1.2l-0.3,-1.2l-0.3,-1.1L574,150l-0.2,-1.3l-0.1,-1.2l0,-1.2l0.1,0Z" class="g6_13" />
<path d="M211.3,657.3l-85.3,0l0,-48.2l170.5,0l0,48.2l-85.2,0Z" class="g5_13" />
<path fill-rule="evenodd" d="M285.5,663.5l0,-1.3l0.2,-1l0.1,-1.3l0.2,-1.2l0.3,-1.1l0.3,-1.2l0.5,-1l0.4,-1.1l0.5,-1.1l0.4,-1.1l0.7,-1l0.6,-0.9l0.7,-1.1l0.8,-0.9l0.8,-0.8l0.9,-0.9l0.7,-0.8l1,-0.7l1,-0.8l0.9,-0.6l1.1,-0.6l1.1,-0.6l1,-0.5l1.1,-0.4l1.1,-0.4l1.2,-0.3l1.1,-0.3l1.2,-0.1l1.2,-0.2l1.1,-0.1l1.2,0l1.2,0l1.3,0.1l1.2,0.2l1.2,0.1l1.2,0.3l1.1,0.3l1.2,0.5l1.1,0.5l1.2,0.4l1.1,0.6l0.9,0.6l1.1,0.8l0.9,0.8l0.9,0.7l0.9,1l0.9,0.7l0.8,0.9l0.8,1.1l0.6,0.9l0.7,1.1l0.5,1.1l0.6,1l0.5,1.3l0.4,1l0.3,1.2l0.3,1.3l0.2,1.2l0.1,1.2l0.2,1.2l0,1.3l0,1.2l-0.2,1.2l-0.1,1.2l-0.3,1.2l-0.2,1.1l-0.4,1.2l-0.3,1.3l-0.5,1l-0.6,1.1l-0.6,1.1l-0.6,1l-0.6,1.1l-0.8,0.9l-0.8,0.9l-0.9,1l-0.9,0.9l-0.9,0.7l-0.9,0.8l-1.1,0.6l-0.9,0.8l-1.1,0.4l-1.2,0.6l-1.1,0.5l-1.2,0.5l-1.1,0.3l-1.2,0.3l-1.2,0.1l-1.2,0.2l-1.3,0.1l-1.2,0l-1.2,0l-1.2,-0.1l-1.2,-0.2l-1.1,-0.1L303,686.1l-1.3,-0.3l-1,-0.5l-1.3,-0.5l-1,-0.4l-1.1,-0.6l-1.1,-0.6l-1,-0.8l-0.9,-0.8l-1,-0.7L292.4,680l-0.7,-0.8l-0.8,-0.9l-0.8,-1.1l-0.7,-0.9l-0.6,-1.1l-0.7,-1.1l-0.4,-1l-0.5,-1.2l-0.4,-1.1l-0.3,-1.2l-0.3,-1.3l-0.4,-1.2l-0.1,-1.2l-0.2,-1.2l0,-1.2Z" class="g6_13" />
<path d="M285.4,1003.7l-79.8,0l0,-38.4l159.4,0l0,38.4l-79.6,0Z" class="g5_13" />
<path fill-rule="evenodd" d="M340.5,1009.8l0,-1.2l0.2,-1.2l0.1,-1.3l0.2,-1.2l0.3,-1.2l0.3,-1.2l0.5,-1.1l0.4,-1.2l0.5,-1.1l0.6,-1.1l0.6,-1l0.8,-0.9l0.7,-1.1l0.8,-0.9l0.9,-1l0.8,-0.7l0.9,-0.8l1.1,-0.7l0.9,-0.8l1.1,-0.6l1,-0.6l1.1,-0.5l1.2,-0.4l1.1,-0.5l1.2,-0.3l1.2,-0.3l1.3,-0.3l1.2,-0.2l1.2,-0.1l1.2,0l1.2,0l1.3,0.1l1.2,0.2l1.2,0.3l1.1,0.1l1.2,0.5l1.2,0.3l1.1,0.6l1.1,0.5l1,0.6l1.1,0.6l1.1,0.8l0.9,0.6l0.9,0.9l0.9,0.7l0.8,1l0.9,0.9l0.8,1.1l0.6,0.9l0.6,1l0.6,1.1l0.6,1.1l0.5,1.2l0.3,1.1l0.4,1.2l0.2,1.2l0.3,1.2l0.1,1.3l0.2,1.2l0,1.2l0,1.2l-0.2,1.2l-0.1,1.3l-0.3,1.2l-0.2,1.1l-0.4,1.2l-0.3,1.2l-0.5,1.1l-0.6,1l-0.6,1.1l-0.6,1.1l-0.6,1.1l-0.8,0.9l-0.9,0.9l-0.8,0.9l-0.9,0.9l-0.9,0.8l-0.9,0.7l-1.1,0.7l-1.1,0.7l-1,0.5l-1.1,0.6l-1.1,0.4l-1.2,0.5l-1.2,0.3l-1.1,0.3l-1.2,0.2l-1.2,0.1l-1.3,0.2l-1.2,0l-1.2,0l-1.2,-0.2l-1.2,-0.1l-1.3,-0.3l-1.2,-0.2l-1.2,-0.4l-1.1,-0.4l-1.2,-0.4l-1.1,-0.6l-1,-0.6l-1.1,-0.6l-0.9,-0.7l-1.1,-0.7l-0.9,-0.9l-0.9,-0.8l-0.8,-0.9l-0.8,-0.9l-0.7,-0.9l-0.8,-1.1l-0.6,-1.1l-0.6,-1.1l-0.5,-1l-0.4,-1.1l-0.5,-1.2l-0.3,-1.2l-0.3,-1.1l-0.3,-1.2l-0.2,-1.3l-0.1,-1.2l0,-1.2l0.1,0Z" class="g6_13" />
</svg>