<?xml version="1.0" encoding="UTF-8" standalone="no"?>
<!DOCTYPE svg PUBLIC "-//W3C//DTD SVG 1.1//EN"
"http://www.w3.org/Graphics/SVG/1.1/DTD/svg11.dtd">
<svg viewBox="0 0 909 1286" version="1.1" xmlns="http://www.w3.org/2000/svg" xmlns:xlink="http://www.w3.org/1999/xlink">
<defs>
<style type="text/css"><![CDATA[
.g1_16{
fill: none;
stroke: #000066;
stroke-width: 4.5833335;
stroke-linecap: butt;
stroke-linejoin: round;
}
.g2_16{
fill: none;
stroke: #000000;
stroke-width: 1.1458334;
stroke-linecap: butt;
stroke-linejoin: round;
}
.g3_16{
fill: #FFFFFF;
}
.g4_16{
}
.g5_16{
fill: none;
stroke: #FF0000;
stroke-width: 3.4375;
stroke-linecap: butt;
stroke-linejoin: round;
}
.g6_16{
fill: #376092;
}
.g7_16{
fill: #C3D69B;
}
.g8_16{
fill: none;
stroke: #C0504D;
stroke-width: 3.0555556;
stroke-linecap: butt;
stroke-linejoin: miter;
stroke-miterlimit: 7;
}
]]></style>
</defs>
<path d="M78.1,99.1l794,0.1" class="g1_16" />
<path d="M96.6,1224.5l772.1,0.1" class="g2_16" />
<path fill-rule="evenodd" d="M112.3,97l623.3,0l0,0.4l-623.3,0l0,-0.4Z" class="g3_16" />
<path fill-rule="evenodd" d="M112.3,431.1l623.3,0l0,0.4l-623.3,0l0,-0.4Z" class="g3_16" />
<path fill-rule="evenodd" d="M112.3,97.3l0.5,0l0,333.9l-0.5,0l0,-333.9Z" class="g3_16" />
<path fill-rule="evenodd" d="M735.2,97.3l0.4,0l0,333.9l-0.4,0l0,-333.9Z" class="g3_16" />
<image preserveAspectRatio="none" x="113" y="97" width="622" height="334" xlink:href="img/1.png" />
<path fill-rule="evenodd" d="M112.6,431.2l-0.3,0.3L112.3,97l0.3,0.3l0.2,0.1l0,333.7l-0.2,0.1Z" class="g4_16" />
<path fill-rule="evenodd" d="M735.3,431.2l-0.1,-0.1l0,-333.7l0.1,-0.1L735.6,97l0,334.5l-0.3,-0.3Z" class="g4_16" />
<path fill-rule="evenodd" d="M735.3,97.3l-0.1,0.1l-622.4,0l-0.2,-0.1L112.3,97l623.3,0l-0.3,0.3Z" class="g4_16" />
<path fill-rule="evenodd" d="M735.3,431.2l0.3,0.3l-623.3,0l0.3,-0.3l0.2,-0.1l622.4,0l0.1,0.1Z" class="g4_16" />
<path fill-rule="evenodd" d="M112.3,822.6l689.5,0l0,0.4l-689.5,0l0,-0.4Z" class="g3_16" />
<path fill-rule="evenodd" d="M112.3,993l689.5,0l0,0.5l-689.5,0l0,-0.5Z" class="g3_16" />
<path fill-rule="evenodd" d="M112.3,823l0.5,0l0,170l-0.5,0l0,-170Z" class="g3_16" />
<path fill-rule="evenodd" d="M801.3,823l0.5,0l0,170l-0.5,0l0,-170Z" class="g3_16" />
<image preserveAspectRatio="none" x="113" y="823" width="688" height="170" xlink:href="img/2.png" />
<path fill-rule="evenodd" d="M112.6,993.1l-0.3,0.4l0,-170.9l0.3,0.4l0.2,0.1l0,169.9l-0.2,0.1Z" class="g4_16" />
<path fill-rule="evenodd" d="M801.5,993.1L801.3,993l0,-169.9l0.2,-0.1l0.3,-0.4l0,170.9l-0.3,-0.4Z" class="g4_16" />
<path fill-rule="evenodd" d="M801.5,823l-0.2,0.1l-688.5,0L112.6,823l-0.3,-0.4l689.5,0l-0.3,0.4Z" class="g4_16" />
<path fill-rule="evenodd" d="M801.5,993.1l0.3,0.4l-689.5,0l0.3,-0.4l0.2,-0.1l688.5,0l0.2,0.1Z" class="g4_16" />
<path d="M556.1,365.4l-61.1,0l0,-111.2l122.4,0l0,111.2l-61.3,0Z" class="g5_16" />
<path d="M609.3,990.2l-188.9,0l0,-40.6l377.6,0l0,40.6l-188.7,0Z" class="g5_16" />
<path fill-rule="evenodd" d="M629,930.7l0,-1.3l0.1,-1.2l0.2,-1.2l0.3,-1.2l0.2,-1.2l0.4,-1.3l0.3,-1l0.5,-1.1l0.6,-1.2l0.6,-1.1l0.6,-1.1l0.6,-0.9l0.8,-1.1l0.9,-0.9l0.8,-0.7l0.9,-1l0.9,-0.7l0.9,-0.8l1.1,-0.7l1,-0.7l1.1,-0.6l1.1,-0.4l1.1,-0.5l1.2,-0.4l1.2,-0.3l1.1,-0.4l1.2,-0.1l1.2,-0.2l1.2,-0.1l1.3,0l1.2,0l1.2,0.1l1.2,0.2l1.3,0.1l1.2,0.4l1.2,0.3l1.1,0.4l1,0.5l1.3,0.4l1,0.6l1.1,0.7l0.9,0.7l1.1,0.8l0.9,0.7l0.8,1l0.9,0.7l0.7,0.9l0.8,1.1l0.8,0.9l0.6,1.1l0.6,1.1l0.5,1.2l0.4,1.1l0.5,1l0.3,1.3l0.3,1.2l0.1,1.2l0.2,1.2l0.1,1.2l0,1.3l0,1.2l-0.1,1.2l-0.2,1.2l-0.3,1.1l-0.1,1.2l-0.5,1.2l-0.3,1.1l-0.4,1.2l-0.7,1.1l-0.6,1.1l-0.6,1l-0.6,1.1l-0.8,0.9l-0.7,0.9l-0.9,1l-1,0.7l-0.9,0.8l-0.9,0.8l-1.1,0.7l-0.9,0.6l-1,0.6l-1.3,0.5l-1,0.5l-1.3,0.4l-1,0.3l-1.2,0.3l-1.3,0.3l-1.2,0.2l-1.2,0.1l-1.2,0l0,-0.1l-1.3,0l-1.2,-0.2l-1.2,-0.1l-1.1,-0.2l-1.2,-0.3l-1.2,-0.3l-1.1,-0.4l-1.2,-0.5l-1.1,-0.5l-1.1,-0.6l-1,-0.6l-1.1,-0.7l-0.9,-0.8l-0.9,-0.8l-0.9,-0.7l-0.8,-1l-0.8,-0.9l-0.7,-1l-0.8,-1l-0.6,-1l-0.6,-1.1l-0.5,-1.1l-0.4,-1.2l-0.5,-1.1l-0.3,-1.2l-0.3,-1.2l-0.3,-1.1l-0.2,-1.2L629,931.9l0,-1.2Z" class="g6_16" />
<path d="M230.1,977.7l-91.8,0l0,-27.2l183.6,0l0,27.2l-91.8,0Z" class="g5_16" />
<path fill-rule="evenodd" d="M302,926.1l0,-1.2l0.2,-1.1l0.1,-1.2l0.2,-1.3l0.3,-1l0.3,-1.2l0.5,-1.1l0.4,-1.1l0.5,-1.1l0.4,-1l0.7,-1.1l0.6,-0.9l0.7,-1.1l0.8,-0.9l0.8,-0.8l0.9,-0.9l0.7,-0.7l1,-0.8l1,-0.8l0.9,-0.6l1.1,-0.6l1.1,-0.6l1.1,-0.5l1,-0.4l1.1,-0.3l1.2,-0.3l1.1,-0.3l1.2,-0.2l1.2,-0.1l1.1,-0.2l1.2,0l1.2,0l1.3,0.2l1.2,0.1l1.2,0.2l1.2,0.3l1.1,0.3l1.2,0.4l1.1,0.5l1.2,0.4l1.1,0.7l0.9,0.6l1.1,0.7l0.9,0.8l0.9,0.8l0.9,0.9l0.9,0.7l0.8,1l0.8,1l0.6,0.9l0.7,1.1l0.5,1.1l0.6,1.1l0.5,1.2l0.4,1L348,920l0.3,1.2l0.2,1.2l0.1,1.2l0.2,1.3l0,1.2l0,1.2l-0.2,1.2l-0.1,1.2l-0.3,1.3l-0.2,1l-0.4,1.3l-0.3,1.2l-0.5,1.1l-0.6,1l-0.6,1.1l-0.6,1.1l-0.6,1l-0.8,0.9l-0.8,1l-0.9,0.9l-0.9,0.9l-0.9,0.8l-0.9,0.7l-1.1,0.6l-0.9,0.8l-1.1,0.5l-1.2,0.6l-1.1,0.4l-1.2,0.5l-1.1,0.3l-1.2,0.3l-1.2,0.1l-1.2,0.2l-1.3,0.2l-1.2,0l-1.2,0L323,949.3l-1.2,-0.2L320.7,949l-1.2,-0.3l-1.3,-0.3l-1,-0.5l-1.3,-0.4l-1,-0.5l-1.1,-0.6l-1.1,-0.6l-1,-0.8l-1,-0.7l-0.9,-0.8l-0.9,-0.9l-0.7,-0.8l-0.8,-0.9l-0.8,-1.1l-0.7,-0.9l-0.6,-1.1l-0.7,-1l-0.4,-1.1l-0.5,-1.2l-0.4,-1.1L303,932.2L302.7,931l-0.4,-1.3l-0.1,-1.2L302,927.3l0,-1.2Z" class="g6_16" />
<path d="M137.7,842.8l-25.4,0l0,-19.7l50.6,0l0,19.7l-25.2,0Z" class="g5_16" />
<path fill-rule="evenodd" d="M139.5,863.7l0,-1.2l0.1,-1.2l0.2,-1.2l0.3,-1.2l0.2,-1.1l0.4,-1.2l0.3,-1.3l0.5,-1l0.6,-1.1l0.6,-1.1l0.6,-1l0.6,-1.1l0.8,-0.9l0.9,-0.9l0.8,-1l0.9,-0.7l0.9,-0.9l0.9,-0.8l1.1,-0.6l1.1,-0.6l1,-0.6l1.1,-0.6l1.1,-0.5l1.2,-0.3l1.2,-0.5L158,841l1.2,-0.3l1.2,-0.2l1.2,-0.1l1.3,0l1.2,0l1.2,0.1l1.2,0.2l1.3,0.3l1.2,0.1l1.2,0.5l1.1,0.3l1,0.5l1.3,0.6l1,0.6l1.1,0.6l0.9,0.6l1.1,0.8l0.9,0.9l0.8,0.7l0.9,1l0.7,0.9l0.8,0.9l0.8,1.1l0.6,1l0.6,1.1l0.4,1.1l0.5,1l0.5,1.3l0.3,1.2l0.3,1.1l0.1,1.2l0.2,1.2l0.1,1.2l0,1.2l0,1.3l-0.1,1.2l-0.2,1.2l-0.3,1.2l-0.1,1.3l-0.5,1l-0.3,1.2l-0.5,1.1l-0.6,1.2l-0.6,1.1l-0.6,0.9l-0.6,1.1l-0.8,0.9l-0.7,0.9l-0.9,0.9l-1,1l-0.9,0.7l-0.9,0.8l-1.1,0.6l-0.9,0.8l-1,0.4l-1.3,0.6l-1,0.5l-1.3,0.5l-1,0.3l-1.2,0.3l-1.3,0.1l-1.2,0.2l-1.2,0.1l-1.2,0l-1.3,0L160.4,887l-1.2,-0.2l-1.1,-0.3l-1.2,-0.1l-1.2,-0.5l-1.1,-0.3l-1.2,-0.5l-1.1,-0.6l-1,-0.6l-1.1,-0.6l-1.1,-0.6l-0.9,-0.8l-0.9,-0.7l-0.9,-1l-0.8,-0.9l-0.8,-0.9l-0.7,-0.9l-0.8,-1.1l-0.6,-0.9l-0.6,-1.1l-0.5,-1.2l-0.4,-1.1l-0.5,-1.2l-0.3,-1l-0.3,-1.3l-0.3,-1.2l-0.2,-1.2L139.5,865l0,-1.3Z" class="g6_16" />
<path fill-rule="evenodd" d="M110,586.6L121.9,582l-8.5,-7.3L127,573.6l-3.9,-9l13.2,2.6l1.7,-9.3l10.7,5.9l6.5,-8.2l6.6,8.2l10.7,-5.9l1.7,9.3l13.1,-2.6l-3.8,9l13.6,1.1l-8.6,7.3l12.1,4.6L188.5,591l8.6,7.4l-13.6,1l3.8,9.1l-13.1,-2.6l-1.7,9.3l-10.7,-5.8l-6.6,8.2l-6.5,-8.2L138,615.2l-1.7,-9.3l-13.2,2.6l3.9,-9.1l-13.6,-1l8.5,-7.4L110,586.6Z" class="g7_16" />
<path d="M110,586.6L121.9,582l-8.5,-7.3L127,573.6l-3.9,-9l13.2,2.6l1.7,-9.3l10.7,5.9l6.5,-8.2l6.6,8.2l10.7,-5.9l1.7,9.3l13.1,-2.6l-3.8,9l13.6,1.1l-8.6,7.3l12.1,4.6L188.5,591l8.6,7.4l-13.6,1l3.8,9.1l-13.1,-2.6l-1.7,9.3l-10.7,-5.8l-6.6,8.2l-6.5,-8.2L138,615.2l-1.7,-9.3l-13.2,2.6l3.9,-9.1l-13.6,-1l8.5,-7.4L110,586.6Z" class="g8_16" />
<path d="M110,555.6l0,0Z" class="g8_16" />
<path d="M200.6,617.6l0,0Z" class="g8_16" />
</svg>