<?xml version="1.0" encoding="UTF-8" standalone="no"?>
<!DOCTYPE svg PUBLIC "-//W3C//DTD SVG 1.1//EN"
"http://www.w3.org/Graphics/SVG/1.1/DTD/svg11.dtd">
<svg viewBox="0 0 935 1210" version="1.1" xmlns="http://www.w3.org/2000/svg" xmlns:xlink="http://www.w3.org/1999/xlink">
<defs>
<clipPath id="c0_18"><path d="M102.2,691.7l0,-49.2l356.4,0l0,49.2Z" /></clipPath>
<clipPath id="c1_18"><path d="M459.4,691.7l0,-49.2l356.4,0l0,49.2Z" /></clipPath>
<clipPath id="c2_18"><path d="M102.2,810.1l0,-58.5l356.4,0l0,58.5Z" /></clipPath>
<clipPath id="c3_18"><path d="M459.4,810.1l0,-58.5l356.4,0l0,58.5Z" /></clipPath>
<clipPath id="c4_18"><path d="M102.2,889.7l0,-39.1l356.4,0l0,39.1Z" /></clipPath>
<clipPath id="c5_18"><path d="M459.4,889.7l0,-39.1l356.4,0l0,39.1Z" /></clipPath>
<style type="text/css"><![CDATA[
.g1_18{
fill: none;
stroke: #000066;
stroke-width: 4.5833335;
stroke-linecap: butt;
stroke-linejoin: round;
}
.g2_18{
fill: none;
stroke: #000000;
stroke-width: 1.1458334;
stroke-linecap: butt;
stroke-linejoin: round;
}
.g3_18{
}
.g4_18{
fill: #CCCCCC;
}
.g5_18{
fill: #656565;
}
.g6_18{
fill: none;
stroke: #FF0000;
stroke-width: 2.2916667;
stroke-linecap: butt;
stroke-linejoin: miter;
stroke-miterlimit: 8;
}
.g7_18{
fill: #1F4E79;
}
]]></style>
</defs>
<path d="M100.5,103.5l794.1,0" class="g1_18" />
<path d="M84.6,1142.7l772.2,0" class="g2_18" />
<path fill-rule="evenodd" d="M102.2,498L459,498l0,-20.3l-356.8,0l0,20.3Z" class="g3_18" />
<path fill-rule="evenodd" d="M110,498l340.7,0l0,-20.3l-340.7,0l0,20.3Z" class="g3_18" />
<path fill-rule="evenodd" d="M459,498l356.8,0l0,-20.3l-356.8,0l0,20.3Z" class="g3_18" />
<path fill-rule="evenodd" d="M467.2,498l340.7,0l0,-20.3l-340.7,0l0,20.3Z" class="g3_18" />
<path fill-rule="evenodd" d="M101.4,477.5l0.8,0l0,-0.8l-0.8,0l0,0.8Z" class="g3_18" />
<path fill-rule="evenodd" d="M101.4,477.5l0.8,0l0,-0.8l-0.8,0l0,0.8Z" class="g3_18" />
<path fill-rule="evenodd" d="M102.2,477.5l356.8,0l0,-0.8l-356.8,0l0,0.8Z" class="g3_18" />
<path fill-rule="evenodd" d="M459,477.5l0.7,0l0,-0.8l-0.7,0l0,0.8Z" class="g3_18" />
<path fill-rule="evenodd" d="M459.7,477.5l356.1,0l0,-0.8l-356.1,0l0,0.8Z" class="g3_18" />
<path fill-rule="evenodd" d="M815.8,477.5l0.8,0l0,-0.8l-0.8,0l0,0.8Z" class="g3_18" />
<path fill-rule="evenodd" d="M815.8,477.5l0.8,0l0,-0.8l-0.8,0l0,0.8Z" class="g3_18" />
<path fill-rule="evenodd" d="M101.4,498l0.8,0l0,-20.5l-0.8,0l0,20.5Z" class="g3_18" />
<path fill-rule="evenodd" d="M815.8,498l0.8,0l0,-20.5l-0.8,0l0,20.5Z" class="g3_18" />
<path fill-rule="evenodd" d="M102.2,560.3l356.4,0l0,-61.4l-356.4,0l0,61.4Z" class="g4_18" />
<path fill-rule="evenodd" d="M110,517.4l340.7,0l0,-18.5l-340.7,0l0,18.5Z" class="g4_18" />
<path fill-rule="evenodd" d="M110,538l340.7,0l0,-20.6l-340.7,0l0,20.6Z" class="g4_18" />
<path fill-rule="evenodd" d="M459.4,560.3l356.4,0l0,-61.4l-356.4,0l0,61.4Z" class="g4_18" />
<path fill-rule="evenodd" d="M467.2,519.3l340.7,0l0,-20.4l-340.7,0l0,20.4Z" class="g4_18" />
<path fill-rule="evenodd" d="M467.2,539.8l340.7,0l0,-20.5l-340.7,0l0,20.5Z" class="g4_18" />
<path fill-rule="evenodd" d="M467.2,560.3l340.7,0l0,-20.5l-340.7,0l0,20.5Z" class="g4_18" />
<path fill-rule="evenodd" d="M101.4,498.7l0.8,0l0,-0.7l-0.8,0l0,0.7Z" class="g3_18" />
<path fill-rule="evenodd" d="M102.2,498.7l356.4,0l0,-0.7l-356.4,0l0,0.7Z" class="g3_18" />
<path fill-rule="evenodd" d="M458.6,498.7l0.8,0l0,-0.7l-0.8,0l0,0.7Z" class="g3_18" />
<path fill-rule="evenodd" d="M459.4,498.7l0.7,0l0,-0.7l-0.7,0l0,0.7Z" class="g3_18" />
<path fill-rule="evenodd" d="M460.1,498.7l355.7,0l0,-0.7l-355.7,0l0,0.7Z" class="g3_18" />
<path fill-rule="evenodd" d="M815.8,498.7l0.8,0l0,-0.7l-0.8,0l0,0.7Z" class="g3_18" />
<path fill-rule="evenodd" d="M101.4,560.3l0.8,0l0,-61.6l-0.8,0l0,61.6Z" class="g5_18" />
<path fill-rule="evenodd" d="M458.6,560.3l0.8,0l0,-61.6l-0.8,0l0,61.6Z" class="g5_18" />
<path fill-rule="evenodd" d="M815.8,560.3l0.8,0l0,-61.6l-0.8,0l0,61.6Z" class="g5_18" />
<path fill-rule="evenodd" d="M101.4,561.1l0.8,0l0,-0.8l-0.8,0l0,0.8Z" class="g5_18" />
<path fill-rule="evenodd" d="M102.2,561.1l356.4,0l0,-0.8l-356.4,0l0,0.8Z" class="g5_18" />
<path fill-rule="evenodd" d="M458.6,561.1l0.8,0l0,-0.8l-0.8,0l0,0.8Z" class="g5_18" />
<path fill-rule="evenodd" d="M459.4,561.1l356.4,0l0,-0.8l-356.4,0l0,0.8Z" class="g5_18" />
<path fill-rule="evenodd" d="M815.8,561.1l0.8,0l0,-0.8l-0.8,0l0,0.8Z" class="g5_18" />
<path fill-rule="evenodd" d="M101.4,580.7l0.8,0l0,-19.6l-0.8,0l0,19.6Z" class="g5_18" />
<path fill-rule="evenodd" d="M458.6,580.7l0.8,0l0,-19.6l-0.8,0l0,19.6Z" class="g5_18" />
<path fill-rule="evenodd" d="M815.8,580.7l0.8,0l0,-19.6l-0.8,0l0,19.6Z" class="g5_18" />
<path fill-rule="evenodd" d="M102.2,602l356.4,0l0,-20.6l-356.4,0l0,20.6Z" class="g4_18" />
<path fill-rule="evenodd" d="M110,602l340.7,0l0,-20.6l-340.7,0l0,20.6Z" class="g4_18" />
<path fill-rule="evenodd" d="M459.4,602l356.4,0l0,-20.6l-356.4,0l0,20.6Z" class="g4_18" />
<path fill-rule="evenodd" d="M467.2,602l340.7,0l0,-20.6l-340.7,0l0,20.6Z" class="g4_18" />
<path fill-rule="evenodd" d="M101.4,581.4l0.8,0l0,-0.7l-0.8,0l0,0.7Z" class="g5_18" />
<path fill-rule="evenodd" d="M102.2,581.4l356.4,0l0,-0.7l-356.4,0l0,0.7Z" class="g5_18" />
<path fill-rule="evenodd" d="M458.6,581.4l0.8,0l0,-0.7l-0.8,0l0,0.7Z" class="g5_18" />
<path fill-rule="evenodd" d="M459.4,581.4l356.4,0l0,-0.7l-356.4,0l0,0.7Z" class="g5_18" />
<path fill-rule="evenodd" d="M815.8,581.4l0.8,0l0,-0.7l-0.8,0l0,0.7Z" class="g5_18" />
<path fill-rule="evenodd" d="M101.4,602l0.8,0l0,-20.6l-0.8,0l0,20.6Z" class="g5_18" />
<path fill-rule="evenodd" d="M458.6,602l0.8,0l0,-20.6l-0.8,0l0,20.6Z" class="g5_18" />
<path fill-rule="evenodd" d="M815.8,602l0.8,0l0,-20.6l-0.8,0l0,20.6Z" class="g5_18" />
<path fill-rule="evenodd" d="M101.4,602.7l0.8,0l0,-0.7l-0.8,0l0,0.7Z" class="g5_18" />
<path fill-rule="evenodd" d="M102.2,602.7l356.4,0l0,-0.7l-356.4,0l0,0.7Z" class="g5_18" />
<path fill-rule="evenodd" d="M458.6,602.7l0.8,0l0,-0.7l-0.8,0l0,0.7Z" class="g5_18" />
<path fill-rule="evenodd" d="M459.4,602.7l356.4,0l0,-0.7l-356.4,0l0,0.7Z" class="g5_18" />
<path fill-rule="evenodd" d="M815.8,602.7l0.8,0l0,-0.7l-0.8,0l0,0.7Z" class="g5_18" />
<path fill-rule="evenodd" d="M101.4,641.6l0.8,0l0,-38.9l-0.8,0l0,38.9Z" class="g5_18" />
<path fill-rule="evenodd" d="M458.6,641.6l0.8,0l0,-38.9l-0.8,0l0,38.9Z" class="g5_18" />
<path fill-rule="evenodd" d="M815.8,641.6l0.8,0l0,-38.9l-0.8,0l0,38.9Z" class="g5_18" />
<path fill-rule="evenodd" d="M102.2,691.6l356.4,0l0,-49.1l-356.4,0l0,49.1Z" class="g4_18" />
<g clip-path="url(#c0_18)">
<path fill-rule="evenodd" d="M110,661l340.7,0l0,-18.5l-340.7,0l0,18.5Z" class="g4_18" />
</g>
<path fill-rule="evenodd" d="M459.4,691.6l356.4,0l0,-49.1l-356.4,0l0,49.1Z" class="g4_18" />
<g clip-path="url(#c1_18)">
<path fill-rule="evenodd" d="M467.2,661l340.7,0l0,-18.5l-340.7,0l0,18.5Z" class="g4_18" />
</g>
<path fill-rule="evenodd" d="M467.2,679.7l340.7,0l0,-18.7l-340.7,0l0,18.7Z" class="g4_18" />
<path fill-rule="evenodd" d="M101.4,642.3l0.8,0l0,-0.7l-0.8,0l0,0.7Z" class="g5_18" />
<path fill-rule="evenodd" d="M102.2,642.3l356.4,0l0,-0.7l-356.4,0l0,0.7Z" class="g5_18" />
<path fill-rule="evenodd" d="M458.6,642.3l0.8,0l0,-0.7l-0.8,0l0,0.7Z" class="g5_18" />
<path fill-rule="evenodd" d="M459.4,642.3l356.4,0l0,-0.7l-356.4,0l0,0.7Z" class="g5_18" />
<path fill-rule="evenodd" d="M815.8,642.3l0.8,0l0,-0.7l-0.8,0l0,0.7Z" class="g5_18" />
<path fill-rule="evenodd" d="M101.4,691.6l0.8,0l0,-49.3l-0.8,0l0,49.3Z" class="g5_18" />
<path fill-rule="evenodd" d="M458.6,691.6l0.8,0l0,-49.3l-0.8,0l0,49.3Z" class="g5_18" />
<path fill-rule="evenodd" d="M815.8,691.6l0.8,0l0,-49.3l-0.8,0l0,49.3Z" class="g5_18" />
<path fill-rule="evenodd" d="M101.4,692.4l0.8,0l0,-0.8l-0.8,0l0,0.8Z" class="g5_18" />
<path fill-rule="evenodd" d="M102.2,692.4l356.4,0l0,-0.8l-356.4,0l0,0.8Z" class="g5_18" />
<path fill-rule="evenodd" d="M458.6,692.4l0.8,0l0,-0.8l-0.8,0l0,0.8Z" class="g5_18" />
<path fill-rule="evenodd" d="M459.4,692.4l356.4,0l0,-0.8l-356.4,0l0,0.8Z" class="g5_18" />
<path fill-rule="evenodd" d="M815.8,692.4l0.8,0l0,-0.8l-0.8,0l0,0.8Z" class="g5_18" />
<path fill-rule="evenodd" d="M101.4,750.9l0.8,0l0,-58.5l-0.8,0l0,58.5Z" class="g5_18" />
<path fill-rule="evenodd" d="M458.6,750.9l0.8,0l0,-58.5l-0.8,0l0,58.5Z" class="g5_18" />
<path fill-rule="evenodd" d="M815.8,750.9l0.8,0l0,-58.5l-0.8,0l0,58.5Z" class="g5_18" />
<path fill-rule="evenodd" d="M102.2,810.1l356.4,0l0,-58.5l-356.4,0l0,58.5Z" class="g4_18" />
<g clip-path="url(#c2_18)">
<path fill-rule="evenodd" d="M110,770.3l340.7,0l0,-18.7l-340.7,0l0,18.7Z" class="g4_18" />
</g>
<path fill-rule="evenodd" d="M459.4,810.1l356.4,0l0,-58.5l-356.4,0l0,58.5Z" class="g4_18" />
<g clip-path="url(#c3_18)">
<path fill-rule="evenodd" d="M467.2,770.3l340.7,0l0,-18.7l-340.7,0l0,18.7Z" class="g4_18" />
</g>
<path fill-rule="evenodd" d="M467.2,789l340.7,0l0,-18.7l-340.7,0l0,18.7Z" class="g4_18" />
<path fill-rule="evenodd" d="M467.2,807.7l340.7,0l0,-18.7l-340.7,0l0,18.7Z" class="g4_18" />
<path fill-rule="evenodd" d="M101.4,751.6l0.8,0l0,-0.7l-0.8,0l0,0.7Z" class="g5_18" />
<path fill-rule="evenodd" d="M102.2,751.6l356.4,0l0,-0.7l-356.4,0l0,0.7Z" class="g5_18" />
<path fill-rule="evenodd" d="M458.6,751.6l0.8,0l0,-0.7l-0.8,0l0,0.7Z" class="g5_18" />
<path fill-rule="evenodd" d="M459.4,751.6l356.4,0l0,-0.7l-356.4,0l0,0.7Z" class="g5_18" />
<path fill-rule="evenodd" d="M815.8,751.6l0.8,0l0,-0.7l-0.8,0l0,0.7Z" class="g5_18" />
<path fill-rule="evenodd" d="M101.4,810.1l0.8,0l0,-58.5l-0.8,0l0,58.5Z" class="g5_18" />
<path fill-rule="evenodd" d="M458.6,810.1l0.8,0l0,-58.5l-0.8,0l0,58.5Z" class="g5_18" />
<path fill-rule="evenodd" d="M815.8,810.1l0.8,0l0,-58.5l-0.8,0l0,58.5Z" class="g5_18" />
<path fill-rule="evenodd" d="M101.4,810.8l0.8,0l0,-0.7l-0.8,0l0,0.7Z" class="g5_18" />
<path fill-rule="evenodd" d="M102.2,810.8l356.4,0l0,-0.7l-356.4,0l0,0.7Z" class="g5_18" />
<path fill-rule="evenodd" d="M458.6,810.8l0.8,0l0,-0.7l-0.8,0l0,0.7Z" class="g5_18" />
<path fill-rule="evenodd" d="M459.4,810.8l356.4,0l0,-0.7l-356.4,0l0,0.7Z" class="g5_18" />
<path fill-rule="evenodd" d="M815.8,810.8l0.8,0l0,-0.7l-0.8,0l0,0.7Z" class="g5_18" />
<path fill-rule="evenodd" d="M101.4,849.9l0.8,0l0,-39.1l-0.8,0l0,39.1Z" class="g5_18" />
<path fill-rule="evenodd" d="M458.6,849.9l0.8,0l0,-39.1l-0.8,0l0,39.1Z" class="g5_18" />
<path fill-rule="evenodd" d="M815.8,849.9l0.8,0l0,-39.1l-0.8,0l0,39.1Z" class="g5_18" />
<path fill-rule="evenodd" d="M102.2,889.6l356.4,0l0,-39l-356.4,0l0,39Z" class="g4_18" />
<g clip-path="url(#c4_18)">
<path fill-rule="evenodd" d="M110,869.3l340.7,0l0,-18.7l-340.7,0l0,18.7Z" class="g4_18" />
</g>
<path fill-rule="evenodd" d="M459.4,889.6l356.4,0l0,-39l-356.4,0l0,39Z" class="g4_18" />
<g clip-path="url(#c5_18)">
<path fill-rule="evenodd" d="M467.2,869.3l340.7,0l0,-18.7l-340.7,0l0,18.7Z" class="g4_18" />
</g>
<path fill-rule="evenodd" d="M467.2,887.8l340.7,0l0,-18.5l-340.7,0l0,18.5Z" class="g4_18" />
<path fill-rule="evenodd" d="M101.4,850.6l0.8,0l0,-0.7l-0.8,0l0,0.7Z" class="g5_18" />
<path fill-rule="evenodd" d="M102.2,850.6l356.4,0l0,-0.7l-356.4,0l0,0.7Z" class="g5_18" />
<path fill-rule="evenodd" d="M458.6,850.6l0.8,0l0,-0.7l-0.8,0l0,0.7Z" class="g5_18" />
<path fill-rule="evenodd" d="M459.4,850.6l356.4,0l0,-0.7l-356.4,0l0,0.7Z" class="g5_18" />
<path fill-rule="evenodd" d="M815.8,850.6l0.8,0l0,-0.7l-0.8,0l0,0.7Z" class="g5_18" />
<path fill-rule="evenodd" d="M101.4,889.6l0.8,0l0,-39l-0.8,0l0,39Z" class="g5_18" />
<path fill-rule="evenodd" d="M458.6,889.6l0.8,0l0,-39l-0.8,0l0,39Z" class="g5_18" />
<path fill-rule="evenodd" d="M815.8,889.6l0.8,0l0,-39l-0.8,0l0,39Z" class="g5_18" />
<path fill-rule="evenodd" d="M101.4,890.4l0.8,0l0,-0.8l-0.8,0l0,0.8Z" class="g5_18" />
<path fill-rule="evenodd" d="M102.2,890.4l356.4,0l0,-0.8l-356.4,0l0,0.8Z" class="g5_18" />
<path fill-rule="evenodd" d="M458.6,890.4l0.8,0l0,-0.8l-0.8,0l0,0.8Z" class="g5_18" />
<path fill-rule="evenodd" d="M459.4,890.4l356.4,0l0,-0.8l-356.4,0l0,0.8Z" class="g5_18" />
<path fill-rule="evenodd" d="M815.8,890.4l0.8,0l0,-0.8l-0.8,0l0,0.8Z" class="g5_18" />
<path fill-rule="evenodd" d="M101.4,948.7l0.8,0l0,-58.3l-0.8,0l0,58.3Z" class="g5_18" />
<path fill-rule="evenodd" d="M458.6,948.7l0.8,0l0,-58.3l-0.8,0l0,58.3Z" class="g5_18" />
<path fill-rule="evenodd" d="M815.8,948.7l0.8,0l0,-58.3l-0.8,0l0,58.3Z" class="g5_18" />
<path fill-rule="evenodd" d="M102.2,1007.9l356.4,0l0,-58.3l-356.4,0l0,58.3Z" class="g4_18" />
<path fill-rule="evenodd" d="M110,968.2l340.7,0l0,-18.6l-340.7,0l0,18.6Z" class="g4_18" />
<path fill-rule="evenodd" d="M459.4,1007.9l356.4,0l0,-58.3l-356.4,0l0,58.3Z" class="g4_18" />
<path fill-rule="evenodd" d="M467.2,968.2l340.7,0l0,-18.6l-340.7,0l0,18.6Z" class="g4_18" />
<path fill-rule="evenodd" d="M467.2,986.9l340.7,0l0,-18.7l-340.7,0l0,18.7Z" class="g4_18" />
<path fill-rule="evenodd" d="M467.2,1005.6l340.7,0l0,-18.7l-340.7,0l0,18.7Z" class="g4_18" />
<path fill-rule="evenodd" d="M101.4,949.5l0.8,0l0,-0.8l-0.8,0l0,0.8Z" class="g5_18" />
<path fill-rule="evenodd" d="M102.2,949.5l356.4,0l0,-0.8l-356.4,0l0,0.8Z" class="g5_18" />
<path fill-rule="evenodd" d="M458.6,949.5l0.8,0l0,-0.8l-0.8,0l0,0.8Z" class="g5_18" />
<path fill-rule="evenodd" d="M459.4,949.5l356.4,0l0,-0.8l-356.4,0l0,0.8Z" class="g5_18" />
<path fill-rule="evenodd" d="M815.8,949.5l0.8,0l0,-0.8l-0.8,0l0,0.8Z" class="g5_18" />
<path fill-rule="evenodd" d="M101.4,1007.9l0.8,0l0,-58.4l-0.8,0l0,58.4Z" class="g5_18" />
<path fill-rule="evenodd" d="M458.6,1007.9l0.8,0l0,-58.4l-0.8,0l0,58.4Z" class="g5_18" />
<path fill-rule="evenodd" d="M815.8,1007.9l0.8,0l0,-58.4l-0.8,0l0,58.4Z" class="g5_18" />
<path fill-rule="evenodd" d="M101.4,1008.7l0.8,0l0,-0.8l-0.8,0l0,0.8Z" class="g5_18" />
<path fill-rule="evenodd" d="M102.2,1008.7l356.4,0l0,-0.8l-356.4,0l0,0.8Z" class="g5_18" />
<path fill-rule="evenodd" d="M458.6,1008.7l0.8,0l0,-0.8l-0.8,0l0,0.8Z" class="g5_18" />
<path fill-rule="evenodd" d="M459.4,1008.7l356.4,0l0,-0.8l-356.4,0l0,0.8Z" class="g5_18" />
<path fill-rule="evenodd" d="M815.8,1008.7l0.8,0l0,-0.8l-0.8,0l0,0.8Z" class="g5_18" />
<path fill-rule="evenodd" d="M101.4,1047.7l0.8,0l0,-39l-0.8,0l0,39Z" class="g5_18" />
<path fill-rule="evenodd" d="M458.6,1047.7l0.8,0l0,-39l-0.8,0l0,39Z" class="g5_18" />
<path fill-rule="evenodd" d="M815.8,1047.7l0.8,0l0,-39l-0.8,0l0,39Z" class="g5_18" />
<path fill-rule="evenodd" d="M102.2,1087.5l356.4,0l0,-39.1l-356.4,0l0,39.1Z" class="g4_18" />
<path fill-rule="evenodd" d="M110,1067.1l340.7,0l0,-18.7l-340.7,0l0,18.7Z" class="g4_18" />
<path fill-rule="evenodd" d="M459.4,1087.5l356.4,0l0,-39.1l-356.4,0l0,39.1Z" class="g4_18" />
<path fill-rule="evenodd" d="M467.2,1067.1l340.7,0l0,-18.7l-340.7,0l0,18.7Z" class="g4_18" />
<path fill-rule="evenodd" d="M467.2,1085.8l340.7,0l0,-18.7l-340.7,0l0,18.7Z" class="g4_18" />
<path fill-rule="evenodd" d="M101.4,1048.5l0.8,0l0,-0.8l-0.8,0l0,0.8Z" class="g5_18" />
<path fill-rule="evenodd" d="M102.2,1048.5l356.4,0l0,-0.8l-356.4,0l0,0.8Z" class="g5_18" />
<path fill-rule="evenodd" d="M458.6,1048.5l0.8,0l0,-0.8l-0.8,0l0,0.8Z" class="g5_18" />
<path fill-rule="evenodd" d="M459.4,1048.5l356.4,0l0,-0.8l-356.4,0l0,0.8Z" class="g5_18" />
<path fill-rule="evenodd" d="M815.8,1048.5l0.8,0l0,-0.8l-0.8,0l0,0.8Z" class="g5_18" />
<path fill-rule="evenodd" d="M101.4,1087.5l0.8,0l0,-39.1l-0.8,0l0,39.1Z" class="g5_18" />
<path fill-rule="evenodd" d="M101.4,1088.2l0.8,0l0,-0.7l-0.8,0l0,0.7Z" class="g5_18" />
<path fill-rule="evenodd" d="M101.4,1088.2l0.8,0l0,-0.7l-0.8,0l0,0.7Z" class="g5_18" />
<path fill-rule="evenodd" d="M102.2,1088.2l356.4,0l0,-0.7l-356.4,0l0,0.7Z" class="g5_18" />
<path fill-rule="evenodd" d="M458.6,1087.5l0.8,0l0,-39.1l-0.8,0l0,39.1Z" class="g5_18" />
<path fill-rule="evenodd" d="M458.6,1088.2l0.8,0l0,-0.7l-0.8,0l0,0.7Z" class="g5_18" />
<path fill-rule="evenodd" d="M459.4,1088.2l356.4,0l0,-0.7l-356.4,0l0,0.7Z" class="g5_18" />
<path fill-rule="evenodd" d="M815.8,1087.5l0.8,0l0,-39.1l-0.8,0l0,39.1Z" class="g5_18" />
<path fill-rule="evenodd" d="M815.8,1088.2l0.8,0l0,-0.7l-0.8,0l0,0.7Z" class="g5_18" />
<path fill-rule="evenodd" d="M815.8,1088.2l0.8,0l0,-0.7l-0.8,0l0,0.7Z" class="g5_18" />
<image preserveAspectRatio="none" x="112" y="112" width="689" height="315" xlink:href="img/1.png" />
<path d="M111.7,428l689.8,0l0,-316.3l-689.8,0l0,316.3Z" class="g2_18" />
<path d="M114.6,197.8l348.3,0l0,-76.8l-348.3,0l0,76.8Z" class="g6_18" />
<path fill-rule="evenodd" d="M438.9,197.8c0,-12.7,12,-22.9,26.9,-22.9c14.9,0,26.9,10.2,26.9,22.9c0,12.6,-12,22.9,-26.9,22.9c-14.9,0,-26.9,-10.3,-26.9,-22.9Z" class="g7_18" />
<image preserveAspectRatio="none" x="448" y="188" width="36" height="20" xlink:href="img/2.png" />
</svg>