<?xml version="1.0" encoding="UTF-8" standalone="no"?>
<!DOCTYPE svg PUBLIC "-//W3C//DTD SVG 1.1//EN"
"http://www.w3.org/Graphics/SVG/1.1/DTD/svg11.dtd">
<svg viewBox="0 0 935 1210" version="1.1" xmlns="http://www.w3.org/2000/svg" xmlns:xlink="http://www.w3.org/1999/xlink">
<defs>
<style type="text/css"><![CDATA[
.g1_195{
fill: none;
stroke: #000066;
stroke-width: 4.5833335;
stroke-linecap: butt;
stroke-linejoin: round;
}
.g2_195{
fill: none;
stroke: #000000;
stroke-width: 1.1458334;
stroke-linecap: butt;
stroke-linejoin: round;
}
.g3_195{
fill: #C8C8C8;
}
.g4_195{
fill: none;
stroke: #ED7D31;
stroke-width: 3.0555544;
stroke-linecap: butt;
stroke-linejoin: miter;
stroke-miterlimit: 8;
}
.g5_195{
fill: none;
stroke: #FF0000;
stroke-width: 2.2916667;
stroke-linecap: butt;
stroke-linejoin: miter;
stroke-miterlimit: 8;
}
.g6_195{
fill: #1F4E79;
}
]]></style>
</defs>
<path d="M100.5,103.5l794.1,0" class="g1_195" />
<path d="M84.6,1142.7l772.2,0" class="g2_195" />
<image preserveAspectRatio="none" x="112" y="112" width="715" height="530" xlink:href="img/1.png" />
<path d="M111.7,642.2l716.2,0l0,-530.5l-716.2,0l0,530.5Z" class="g2_195" />
<path fill-rule="evenodd" d="M112.3,691l12,-4.5l-8.6,-7.3l13.6,-1.1l-3.8,-8.9l13.2,2.5l1.5,-9.3l10.7,5.9l6.7,-8.2l6.6,8.2l10.7,-5.9l1.5,9.3l13.2,-2.5l-3.8,8.9l13.6,1.1l-8.5,7.3l11.9,4.5l-11.9,4.6l8.5,7.3l-13.6,1l3.8,9l-13.2,-2.6l-1.5,9.3l-10.7,-5.8l-6.6,8.2l-6.7,-8.2l-10.7,5.8l-1.5,-9.3l-13.2,2.6l3.8,-9l-13.6,-1l8.6,-7.3Z" class="g3_195" />
<path d="M112.3,691l12,-4.5l-8.6,-7.3l13.6,-1.1l-3.8,-8.9l13.2,2.5l1.5,-9.3l10.7,5.9l6.7,-8.2l6.6,8.2l10.7,-5.9l1.5,9.3l13.2,-2.5l-3.8,8.9l13.6,1.1l-8.5,7.3l11.9,4.5l-11.9,4.6l8.5,7.3l-13.6,1l3.8,9l-13.2,-2.6l-1.5,9.3l-10.7,-5.8l-6.6,8.2l-6.7,-8.2l-10.7,5.8l-1.5,-9.3l-13.2,2.6l3.8,-9l-13.6,-1l8.6,-7.3Z" class="g4_195" />
<path d="M139.6,619.7l189.3,0l0,-20.1l-189.3,0l0,20.1Z" class="g5_195" />
<path fill-rule="evenodd" d="M328.9,592.7c0,-11.9,9.9,-21.6,22.2,-21.6c12.2,0,22.1,9.7,22.1,21.6c0,11.9,-9.9,21.6,-22.1,21.6c-12.3,0,-22.2,-9.7,-22.2,-21.6Z" class="g6_195" />
<image preserveAspectRatio="none" x="336" y="584" width="30" height="18" xlink:href="img/2.png" />
</svg>