<?xml version="1.0" encoding="UTF-8" standalone="no"?>
<!DOCTYPE svg PUBLIC "-//W3C//DTD SVG 1.1//EN"
"http://www.w3.org/Graphics/SVG/1.1/DTD/svg11.dtd">
<svg viewBox="0 0 909 1286" version="1.1" xmlns="http://www.w3.org/2000/svg" xmlns:xlink="http://www.w3.org/1999/xlink">
<defs>
<style type="text/css"><![CDATA[
.g1_29{
fill: none;
stroke: #000066;
stroke-width: 4.5833335;
stroke-linecap: butt;
stroke-linejoin: round;
}
.g2_29{
fill: none;
stroke: #000000;
stroke-width: 1.1458334;
stroke-linecap: butt;
stroke-linejoin: round;
}
.g3_29{
fill: #FFFFFF;
}
.g4_29{
}
.g5_29{
fill: #C3D69B;
}
.g6_29{
fill: none;
stroke: #C0504D;
stroke-width: 3.0555556;
stroke-linecap: butt;
stroke-linejoin: miter;
stroke-miterlimit: 7;
}
.g7_29{
fill: none;
stroke: #FF0000;
stroke-width: 3.0555556;
stroke-linecap: butt;
stroke-linejoin: round;
}
.g8_29{
fill: #376092;
}
]]></style>
</defs>
<path d="M78.1,99.1l794,0.1" class="g1_29" />
<path d="M96.6,1224.5l772.1,0.1" class="g2_29" />
<path fill-rule="evenodd" d="M112.3,525l687.5,0l0,0.3l-687.5,0l0,-0.3Z" class="g3_29" />
<path fill-rule="evenodd" d="M112.3,819l687.5,0l0,0.4l-687.5,0l0,-0.4Z" class="g3_29" />
<path fill-rule="evenodd" d="M112.3,525.3l0.5,0l0,293.8l-0.5,0l0,-293.8Z" class="g3_29" />
<path fill-rule="evenodd" d="M799.3,525.3l0.5,0l0,293.8l-0.5,0l0,-293.8Z" class="g3_29" />
<image preserveAspectRatio="none" x="113" y="525" width="686" height="294" xlink:href="img/1.png" />
<path fill-rule="evenodd" d="M112.6,819.1l-0.3,0.3l0,-294.4l0.3,0.3l0.2,0.2l0,293.5l-0.2,0.1Z" class="g4_29" />
<path fill-rule="evenodd" d="M799.5,819.1L799.3,819l0,-293.5l0.2,-0.2l0.3,-0.3l0,294.4l-0.3,-0.3Z" class="g4_29" />
<path fill-rule="evenodd" d="M799.5,525.3l-0.2,0.2l-686.5,0l-0.2,-0.2L112.3,525l687.5,0l-0.3,0.3Z" class="g4_29" />
<path fill-rule="evenodd" d="M799.5,819.1l0.3,0.3l-687.5,0l0.3,-0.3l0.2,-0.1l686.5,0l0.2,0.1Z" class="g4_29" />
<image preserveAspectRatio="none" x="183" y="874" width="35" height="30" xlink:href="img/2.png" />
<path fill-rule="evenodd" d="M113.4,213.7l8.7,-4l-6.3,-6.4l9.9,-0.9L123,194.6l9.5,2.1l1,-8.1l7.8,5.2l4.8,-7.2l4.7,7.2l7.8,-5.2l1.1,8.1l9.4,-2.1l-2.7,7.8l9.9,0.9l-6.3,6.4l8.8,4l-8.8,3.8l6.3,6.4l-9.9,0.9l2.7,7.8l-9.4,-2.1l-1.1,8.1l-7.8,-5.2l-4.7,7.2l-4.8,-7.2l-7.8,5.2l-1,-8.1l-9.5,2.1l2.7,-7.8l-9.9,-0.9l6.3,-6.4l-8.7,-3.8Z" class="g5_29" />
<path d="M113.4,213.7l8.7,-4l-6.3,-6.4l9.9,-0.9L123,194.6l9.5,2.1l1,-8.1l7.8,5.2l4.8,-7.2l4.7,7.2l7.8,-5.2l1.1,8.1l9.4,-2.1l-2.7,7.8l9.9,0.9l-6.3,6.4l8.8,4l-8.8,3.8l6.3,6.4l-9.9,0.9l2.7,7.8l-9.4,-2.1l-1.1,8.1l-7.8,-5.2l-4.7,7.2l-4.8,-7.2l-7.8,5.2l-1,-8.1l-9.5,2.1l2.7,-7.8l-9.9,-0.9l6.3,-6.4l-8.7,-3.8Z" class="g6_29" />
<path d="M113.4,186.6l0,0Z" class="g6_29" />
<path d="M178.8,240.6l0,0Z" class="g6_29" />
<path d="M603.3,628.5l-42.9,0l0,-29.8l85.9,0l0,29.8l-43,0Z" class="g7_29" />
<path d="M639.4,654.9l-77.9,0l0,-24.1l155.8,0l0,24.1l-77.9,0Z" class="g7_29" />
<path d="M787.9,657.2l-8.6,0l0,-19.6l17.1,0l0,19.6l-8.5,0Z" class="g7_29" />
<path fill-rule="evenodd" d="M649.6,597l0,-1.4l0.2,-1.2l0.1,-1.4l0.3,-1.4l0.3,-1.2l0.5,-1.3l0.4,-1.3l0.5,-1.2l0.6,-1.2l0.8,-1.2l0.7,-1.1l0.8,-1.2l0.8,-1.1l0.9,-0.9l1.1,-1.1l0.9,-0.9l1,-0.9l1.3,-0.8l1,-0.7l1.3,-0.8l1.2,-0.6l1.4,-0.6l1.2,-0.5l1.3,-0.4l1.4,-0.4l1.4,-0.3l1.4,-0.3l1.4,-0.1l1.3,-0.2l1.4,0l1.4,0l1.5,0.2l1.4,0.1l1.4,0.2l1.3,0.3l1.4,0.5l1.2,0.4l1.4,0.5l1.2,0.6l1.2,0.6l1.3,0.8l1.2,0.7l1.1,0.8l1,0.9l1.1,0.9l0.9,1.1l0.9,0.9l0.9,1.1l0.8,1l0.8,1.3l0.6,1.2l0.6,1.2l0.6,1.2l0.5,1.3l0.3,1.3l0.3,1.2l0.3,1.4l0.1,1.4l0.2,1.2l0,1.4l0,1.4l-0.2,1.3l-0.1,1.4l-0.3,1.2l-0.3,1.4l-0.3,1.2l-0.5,1.4l-0.6,1.2l-0.6,1.3l-0.6,1l-0.8,1.3l-0.8,1l-0.9,1.1l-0.9,1.1l-0.9,0.9l-1.1,0.9l-1,0.9l-1.1,0.8l-1.2,0.7l-1.3,0.8l-1.2,0.6l-1.2,0.6l-1.4,0.5l-1.2,0.4l-1.4,0.5l-1.3,0.3l-1.4,0.3l-1.4,0.2l-1.5,0l-1.4,0.1l0,-0.1l-1.4,0l-1.3,-0.2l-1.4,-0.1L671,622.2l-1.4,-0.3l-1.4,-0.5L666.9,621l-1.2,-0.5l-1.4,-0.6l-1.2,-0.6l-1.3,-0.8l-1,-0.7L659.5,617l-1,-0.9l-0.9,-0.9l-1.1,-0.9l-0.9,-1.1l-0.8,-1.1l-0.9,-1l-0.6,-1.3l-0.8,-1l-0.6,-1.3l-0.5,-1.3L651,604.9l-0.5,-1.2l-0.3,-1.4l-0.3,-1.2l-0.1,-1.4l-0.2,-1.3l0,-1.4Z" class="g8_29" />
<path fill-rule="evenodd" d="M744.9,689.9l0,-1.4l0.2,-1.2l0.1,-1.4l0.4,-1.4l0.3,-1.2l0.3,-1.4l0.4,-1.2l0.6,-1.2l0.6,-1.2l0.7,-1.2l0.7,-1.3l0.8,-1l0.9,-1.1l0.9,-0.9l0.9,-1.1l1.1,-0.9l1.1,-0.9l1,-0.8l1.3,-0.8l1.2,-0.7l1.2,-0.6l1.2,-0.6l1.4,-0.5l1.2,-0.5l1.4,-0.4l1.4,-0.3l1.4,-0.2l1.3,-0.1l1.6,-0.2l1.3,0l1.4,0l1.4,0.2l1.4,0.1l1.3,0.2l1.4,0.3l1.4,0.4l1.4,0.5l1.2,0.5l1.4,0.6l1.2,0.6l1.2,0.7l1.1,0.8l1.2,0.8l1.1,0.9l0.9,0.9l1,1.1l1,0.9l0.7,1.1l0.8,1l0.8,1.3l0.7,1.2l0.6,1.2l0.5,1.2l0.4,1.2l0.5,1.4l0.3,1.2l0.3,1.4l0.2,1.4l0.1,1.2l0,1.4l-0.1,0l0,1.4l-0.2,1.3l-0.1,1.4l-0.3,1.2l-0.3,1.4l-0.4,1.2l-0.4,1.4l-0.6,1.2l-0.6,1.2l-0.6,1.1l-0.8,1.2l-0.8,1.1l-0.9,1.1l-0.9,1l-0.9,1l-1.1,0.9l-1.1,0.9l-1,0.8l-1.3,0.7l-1,0.8l-1.4,0.6l-1.2,0.6l-1.2,0.5l-1.4,0.4l-1.4,0.5l-1.4,0.3l-1.3,0.3l-1.4,0.2l-1.4,0l-1.4,0.1l0,-0.1l-1.3,0l-1.6,-0.2l-1.3,-0.2l-1.4,-0.1l-1.4,-0.3l-1.4,-0.5l-1.2,-0.4l-1.4,-0.5l-1.2,-0.6l-1.2,-0.6l-1.2,-0.8l-1.3,-0.7l-1,-0.8L753.8,709l-1.1,-0.9l-0.9,-1l-0.9,-1L750.1,705l-0.9,-1.1l-0.6,-1.2l-0.8,-1.1l-0.6,-1.2l-0.4,-1.3l-0.6,-1.3l-0.3,-1.2l-0.3,-1.4L745.2,694l-0.1,-1.4l-0.2,-1.3l0,-1.4Z" class="g8_29" />
</svg>