<?xml version="1.0" encoding="UTF-8" standalone="no"?>
<!DOCTYPE svg PUBLIC "-//W3C//DTD SVG 1.1//EN"
"http://www.w3.org/Graphics/SVG/1.1/DTD/svg11.dtd">
<svg viewBox="0 0 935 1210" version="1.1" xmlns="http://www.w3.org/2000/svg" xmlns:xlink="http://www.w3.org/1999/xlink">
<defs>
<style type="text/css"><![CDATA[
.g1_75{
fill: none;
stroke: #000066;
stroke-width: 4.5833335;
stroke-linecap: butt;
stroke-linejoin: round;
}
.g2_75{
fill: none;
stroke: #000000;
stroke-width: 1.1458334;
stroke-linecap: butt;
stroke-linejoin: round;
}
.g3_75{
fill: none;
stroke: #000000;
stroke-width: 0.38194567;
stroke-linecap: square;
stroke-linejoin: miter;
stroke-miterlimit: 8;
}
.g4_75{
fill: #376092;
}
.g5_75{
fill: none;
stroke: #FF0000;
stroke-width: 3.4375;
stroke-linecap: butt;
stroke-linejoin: round;
stroke-miterlimit: 8;
}
]]></style>
</defs>
<path d="M100.5,103.5l794.1,0" class="g1_75" />
<path d="M84.6,1142.7l772.2,0" class="g2_75" />
<image preserveAspectRatio="none" x="112" y="225" width="689" height="440" xlink:href="img/1.png" />
<path d="M112.1,665.5l689,0l0,-440.4l-689,0l0,440.4Z" class="g3_75" />
<path fill-rule="evenodd" d="M590.1,541.9c0,-12,10.3,-21.8,22.9,-21.8c12.7,0,22.9,9.8,22.9,21.8c0,12,-10.2,21.8,-22.9,21.8c-12.6,0,-22.9,-9.8,-22.9,-21.8Z" class="g4_75" />
<image preserveAspectRatio="none" x="598" y="533" width="30" height="17" xlink:href="img/2.png" />
<path d="M650.8,561.4l149,0l0,-34.4l-149,0l0,34.4Z" class="g5_75" />
</svg>