<?xml version="1.0" encoding="UTF-8" standalone="no"?>
<!DOCTYPE svg PUBLIC "-//W3C//DTD SVG 1.1//EN"
"http://www.w3.org/Graphics/SVG/1.1/DTD/svg11.dtd">
<svg viewBox="0 0 935 1210" version="1.1" xmlns="http://www.w3.org/2000/svg" xmlns:xlink="http://www.w3.org/1999/xlink">
<defs>
<style type="text/css"><![CDATA[
.g1_200{
fill: none;
stroke: #000066;
stroke-width: 4.5833335;
stroke-linecap: butt;
stroke-linejoin: round;
}
.g2_200{
fill: none;
stroke: #000000;
stroke-width: 1.1458334;
stroke-linecap: butt;
stroke-linejoin: round;
}
.g3_200{
fill: none;
stroke: #FF0000;
stroke-width: 2.2916667;
stroke-linecap: butt;
stroke-linejoin: miter;
stroke-miterlimit: 8;
}
.g4_200{
fill: #1F4E79;
}
]]></style>
</defs>
<path d="M100.5,103.5l794.1,0" class="g1_200" />
<path d="M84.6,1142.7l772.2,0" class="g2_200" />
<image preserveAspectRatio="none" x="112" y="112" width="715" height="490" xlink:href="img/1.png" />
<path d="M111.7,602.6l716.2,0l0,-490.9l-716.2,0l0,490.9Z" class="g2_200" />
<image preserveAspectRatio="none" x="116" y="655" width="249" height="186" xlink:href="img/2.png" />
<path d="M115.5,841.7l249.8,0l0,-186.8l-249.8,0l0,186.8Z" class="g2_200" />
<path d="M156.5,151.2l373.3,0l0,-35.9l-373.3,0l0,35.9Z" class="g3_200" />
<path fill-rule="evenodd" d="M521.4,149.6c0,-11.9,9.9,-21.6,22.2,-21.6c12.2,0,22.2,9.7,22.2,21.6c0,12,-10,21.7,-22.2,21.7c-12.3,0,-22.2,-9.7,-22.2,-21.7Z" class="g4_200" />
<image preserveAspectRatio="none" x="529" y="141" width="29" height="18" xlink:href="img/3.png" />
<path d="M555.2,533l175.6,0l0,-19l-175.6,0l0,19Z" class="g3_200" />
<path fill-rule="evenodd" d="M718.1,529.3c0,-12,9.9,-21.7,22.2,-21.7c12.3,0,22.2,9.7,22.2,21.7c0,12,-9.9,21.7,-22.2,21.7c-12.3,0,-22.2,-9.7,-22.2,-21.7Z" class="g4_200" />
<image preserveAspectRatio="none" x="725" y="520" width="30" height="18" xlink:href="img/4.png" />
<path d="M187.2,815.5l107.8,0l0,-19.1l-107.8,0l0,19.1Z" class="g3_200" />
<path fill-rule="evenodd" d="M295,804.3c0,-11.9,10,-21.6,22.2,-21.6c12.3,0,22.2,9.7,22.2,21.6c0,12,-9.9,21.7,-22.2,21.7C305,826,295,816.3,295,804.3Z" class="g4_200" />
<image preserveAspectRatio="none" x="302" y="795" width="30" height="18" xlink:href="img/5.png" />
</svg>