<?xml version="1.0" encoding="UTF-8" standalone="no"?>
<!DOCTYPE svg PUBLIC "-//W3C//DTD SVG 1.1//EN"
"http://www.w3.org/Graphics/SVG/1.1/DTD/svg11.dtd">
<svg viewBox="0 0 909 1286" version="1.1" xmlns="http://www.w3.org/2000/svg" xmlns:xlink="http://www.w3.org/1999/xlink">
<defs>
<style type="text/css"><![CDATA[
.g1_33{
fill: none;
stroke: #000066;
stroke-width: 4.5833335;
stroke-linecap: butt;
stroke-linejoin: round;
}
.g2_33{
fill: none;
stroke: #000000;
stroke-width: 1.1458334;
stroke-linecap: butt;
stroke-linejoin: round;
}
.g3_33{
fill: #FFFFFF;
}
.g4_33{
}
.g5_33{
fill: none;
stroke: #FF0000;
stroke-width: 3.0555556;
stroke-linecap: butt;
stroke-linejoin: round;
}
.g6_33{
fill: #376092;
}
]]></style>
</defs>
<path d="M78.1,99.1l794,0.1" class="g1_33" />
<path d="M96.6,1224.5l772.1,0.1" class="g2_33" />
<path fill-rule="evenodd" d="M112.3,121.6l689.5,0l0,0.4l-689.5,0l0,-0.4Z" class="g3_33" />
<path fill-rule="evenodd" d="M112.3,460.4l689.5,0l0,0.5l-689.5,0l0,-0.5Z" class="g3_33" />
<path fill-rule="evenodd" d="M112.3,121.9l0.5,0l0,338.5l-0.5,0l0,-338.5Z" class="g3_33" />
<path fill-rule="evenodd" d="M801.3,121.9l0.5,0l0,338.5l-0.5,0l0,-338.5Z" class="g3_33" />
<image preserveAspectRatio="none" x="113" y="122" width="688" height="338" xlink:href="img/1.png" />
<path fill-rule="evenodd" d="M112.6,460.6l-0.3,0.3l0,-339.3l0.3,0.3l0.2,0.1l0,338.4l-0.2,0.2Z" class="g4_33" />
<path fill-rule="evenodd" d="M801.5,460.6l-0.2,-0.2l0,-338.4l0.2,-0.1l0.3,-0.3l0,339.3l-0.3,-0.3Z" class="g4_33" />
<path fill-rule="evenodd" d="M801.5,121.9l-0.2,0.1l-688.5,0l-0.2,-0.1l-0.3,-0.3l689.5,0l-0.3,0.3Z" class="g4_33" />
<path fill-rule="evenodd" d="M801.5,460.6l0.3,0.3l-689.5,0l0.3,-0.3l0.2,-0.2l688.5,0l0.2,0.2Z" class="g4_33" />
<path fill-rule="evenodd" d="M112.3,575.9l689.5,0l0,0.3l-689.5,0l0,-0.3Z" class="g3_33" />
<path fill-rule="evenodd" d="M112.3,973.1l689.5,0l0,0.5l-689.5,0l0,-0.5Z" class="g3_33" />
<path fill-rule="evenodd" d="M112.3,576.2l0.5,0l0,396.9l-0.5,0l0,-396.9Z" class="g3_33" />
<path fill-rule="evenodd" d="M801.3,576.2l0.5,0l0,396.9l-0.5,0l0,-396.9Z" class="g3_33" />
<image preserveAspectRatio="none" x="113" y="576" width="688" height="397" xlink:href="img/2.png" />
<path fill-rule="evenodd" d="M112.6,973.3l-0.3,0.3l0,-397.7l0.3,0.3l0.2,0.2l0,396.7l-0.2,0.2Z" class="g4_33" />
<path fill-rule="evenodd" d="M801.5,973.3l-0.2,-0.2l0,-396.7l0.2,-0.2l0.3,-0.3l0,397.7l-0.3,-0.3Z" class="g4_33" />
<path fill-rule="evenodd" d="M801.5,576.2l-0.2,0.2l-688.5,0l-0.2,-0.2l-0.3,-0.3l689.5,0l-0.3,0.3Z" class="g4_33" />
<path fill-rule="evenodd" d="M801.5,973.3l0.3,0.3l-689.5,0l0.3,-0.3l0.2,-0.2l688.5,0l0.2,0.2Z" class="g4_33" />
<path d="M410.2,450.6l-33.3,0l0,-18.3l66.5,0l0,18.3l-33.2,0Z" class="g5_33" />
<path d="M153.5,255.8l-35.6,0l0,-21.7l71.1,0l0,21.7l-35.5,0Z" class="g5_33" />
<path fill-rule="evenodd" d="M727.7,339l0,-1.4l0.1,-1.2L728,335l0.3,-1.4l0.3,-1.2l0.5,-1.4l0.4,-1.2l0.5,-1.2l0.6,-1.3l0.7,-1.2l0.8,-1.2l0.8,-1.1l0.7,-1l1,-1l1,-1l0.9,-0.9l1.1,-1l1.2,-0.7l1.1,-0.8l1.2,-0.8l1.2,-0.6l1.4,-0.6l1.2,-0.4l1.4,-0.5l1.4,-0.4l1.4,-0.4l1.3,-0.1l1.4,-0.2l1.4,-0.1l1.4,0l1.3,0l1.6,0.1l1.3,0.2l1.4,0.1l1.4,0.4l1.4,0.4l1.2,0.5l1.4,0.4l1.2,0.6l1.2,0.6l1.2,0.8l1.3,0.8l1,0.7l1.1,1l1.1,0.9l0.9,1l0.9,1l0.9,1l0.8,1.1l0.7,1.2l0.7,1.2l0.6,1.3l0.6,1.2l0.4,1.2l0.3,1.4l0.3,1.2l0.4,1.4l0.1,1.4l0.2,1.2l0,1.4l0,1.3l-0.2,1.4l-0.1,1.4l-0.4,1.2l-0.3,1.4l-0.4,1.2l-0.5,1.4l-0.4,1.2l-0.6,1.2l-0.8,1.1L777,353l-0.7,1.1l-0.8,1l-0.9,1.1l-1.1,0.9l-0.9,1l-1.1,0.9l-1.2,0.7l-1.1,0.8l-1.2,0.8l-1.2,0.6l-1.2,0.6l-1.4,0.4l-1.2,0.5l-1.4,0.5l-1.4,0.3l-1.4,0.3l-1.3,0.1l-1.6,0l-1.3,0.2l0,-0.2l-1.4,0l-1.4,-0.1l-1.4,-0.2l-1.3,-0.1l-1.4,-0.3l-1.4,-0.5l-1.4,-0.5l-1.2,-0.4l-1.4,-0.6l-1.2,-0.6l-1,-0.8l-1.3,-0.8l-1,-0.7l-1.1,-0.9l-1.1,-1l-0.9,-0.9l-0.9,-1.1l-0.9,-1L732.1,353l-0.8,-1.2l-0.6,-1.1l-0.6,-1.2l-0.6,-1.4l-0.4,-1.2l-0.5,-1.2l-0.3,-1.4L728,343.1l-0.2,-1.4l0,-1.4L727.7,339Z" class="g6_33" />
<path fill-rule="evenodd" d="M177.7,301.1l0,-1.3l0.1,-1.3l0.2,-1.3l0.1,-1.3l0.3,-1.3l0.5,-1.2l0.5,-1.2l0.4,-1.2l0.6,-1.2l0.6,-1.3l0.7,-1l0.7,-1.1l0.8,-1.1l0.9,-1l0.9,-1l0.9,-0.9l1.1,-0.9l1.1,-0.8l1,-0.7l1.1,-0.8l1.2,-0.6l1.3,-0.6l1.2,-0.6l1.4,-0.5l1.2,-0.4l1.3,-0.3l1.3,-0.3l1.3,-0.3l1.4,-0.2l1.4,-0.2l1.4,0l1.3,0l1.4,0.2l1.4,0.2l1.4,0.3l1.3,0.3l1.4,0.3l1.4,0.4l1.2,0.6l1.4,0.6l1.2,0.7l1.1,0.6l1.2,0.7l1.1,1l1,0.9l1.1,0.9l0.9,0.9l0.9,1.1l1,1L227,287l0.8,1.1l0.6,1.2l0.6,1.2l0.6,1.2l0.5,1.4l0.4,1.2l0.3,1.4l0.4,1.2l0.1,1.4l0,1.4l0.2,1.4l-0.2,0l0,1.3l-0.1,1.3L231,305l-0.3,1.4l-0.3,1.2l-0.3,1.4l-0.5,1.2l-0.6,1.3l-0.6,1.2l-0.6,1.2l-0.8,1.2l-0.7,1.1l-1,1.1l-0.9,1l-0.9,0.9l-1.1,1l-1,0.9l-1.1,0.7l-1.2,0.8l-1.1,0.8l-1.4,0.6l-1.2,0.6l-1.2,0.5l-1.4,0.4l-1.4,0.5l-1.3,0.3l-1.4,0.3l-1.4,0.1l-1.4,0l-1.3,0.2l-1.4,0l-1.5,-0.2l-1.4,-0.1l-1.4,-0.3L197.5,326l-1.3,-0.3l-1.3,-0.5l-1.3,-0.6L192.3,324l-1.2,-0.6l-1.2,-0.6L188.7,322l-1.1,-0.9l-1.1,-0.9l-1,-1l-0.9,-0.9l-1,-1l-0.7,-1.1L182,315.1l-0.7,-1l-0.7,-1.3L180,311.6l-0.5,-1.2L178.9,309l-0.3,-1.2l-0.3,-1.4L178,305.2l-0.2,-1.4l-0.1,-1.4l0,-1.3Z" class="g6_33" />
<path d="M140.4,318.9l-23.5,0l0,-13.7l46.9,0l0,13.7l-23.4,0Z" class="g5_33" />
<path d="M618.3,330.2l-103.7,0l0,-23.9l207.3,0l0,23.9l-103.6,0Z" class="g5_33" />
<path d="M341.5,197.3l-33.3,0l0,-18.3l66.4,0l0,18.3l-33.1,0Z" class="g5_33" />
<path fill-rule="evenodd" d="M381.6,201.5l0,-1.4l0.2,-1.4l0.1,-1.4l0.3,-1.2l0.4,-1.4l0.3,-1.2l0.4,-1.4l0.6,-1.2l0.6,-1.2l0.7,-1.2l0.7,-1.1l0.8,-1.1l0.9,-1l0.9,-1.1l0.9,-0.9l1.1,-0.9l1.1,-1l1,-0.9l1.3,-0.7l1.2,-0.7l1.2,-0.6l1.2,-0.6l1.4,-0.6l1.2,-0.4l1.4,-0.3l1.4,-0.4l1.4,-0.3l1.3,-0.1l1.6,-0.2l1.3,0l1.4,0l1.4,0.2l1.4,0.1l1.3,0.3l1.4,0.4l1.4,0.3l1.4,0.4l1.2,0.6l1.3,0.6l1.3,0.6l1.2,0.7l1.1,0.7l1.2,0.9l1.1,1l0.9,0.9l1,0.9l1,1.1l0.7,1l0.8,1.1l0.8,1.2l0.7,1.1l0.6,1.2l0.5,1.2l0.4,1.4l0.5,1.2l0.3,1.4l0.3,1.2l0.2,1.4l0.1,1.4l0,1.4l-0.1,0l0,1.3l-0.2,1.3l-0.1,1.3l-0.3,1.4l-0.4,1.2l-0.3,1.4l-0.4,1.2l-0.6,1.2l-0.6,1.3l-0.6,1.2l-0.8,1.1l-0.8,1.2l-0.9,1l-0.9,1l-0.9,1l-1.1,1l-1.1,0.9l-1,0.7L423,223l-1,0.8l-1.4,0.6l-1.2,0.6l-1.2,0.4l-1.4,0.5l-1.4,0.3l-1.4,0.3l-1.3,0.3l-1.4,0.2l-1.4,0.1l-1.4,0l-1.3,0L405.6,227l-1.3,-0.2l-1.4,-0.3l-1.4,-0.3l-1.4,-0.3l-1.2,-0.5l-1.4,-0.6l-1.2,-0.6l-1.2,-0.6L393.9,223l-1.3,-0.8l-1,-0.9l-1.1,-0.7l-1.1,-1l-0.9,-1l-0.9,-1l-0.8,-1l-0.9,-1.2l-0.6,-1.1l-0.8,-1.2l-0.6,-1.3l-0.4,-1.2l-0.6,-1.2L382.6,208l-0.4,-1.2l-0.3,-1.4l-0.1,-1.3l-0.2,-1.3l0,-1.3Z" class="g6_33" />
<path d="M151.3,663.8l-37.9,0l0,-29.8l75.6,0l0,29.8l-37.7,0Z" class="g5_33" />
<path fill-rule="evenodd" d="M678.5,797.4l0,-1.3l0.1,-1.4l0.2,-1.4l0.3,-1.2l0.3,-1.4l0.3,-1.2l0.5,-1.4l0.6,-1.2l0.6,-1.2l0.6,-1.2l0.8,-1.1l0.7,-1.1l0.9,-1.1l1,-1l0.9,-0.9l1,-1l1.1,-0.9l1.1,-0.9l1.2,-0.8l1.2,-0.6l1.3,-0.6l1.2,-0.6l1.3,-0.6l1.3,-0.5l1.3,-0.3l1.4,-0.3l1.4,-0.3l1.4,-0.1l1.5,-0.2l1.4,0l1.4,0l1.3,0.2l1.4,0.1l1.4,0.3l1.4,0.3l1.3,0.3l1.4,0.5l1.2,0.6l1.4,0.6l1.2,0.6l1.2,0.6l1.1,0.8l1.2,0.9l1.1,0.9l0.9,1l1.1,0.9l0.9,1l0.8,1.1l0.7,1.1l0.8,1.2l0.8,1.1l0.6,1.2l0.4,1.2l0.5,1.4l0.4,1.2l0.4,1.4l0.3,1.2l0.1,1.4l0.2,1.4l0,1.3l-0.2,0l0,1.4L732,800l-0.2,1.4l-0.3,1.4l-0.3,1.2l-0.3,1.4l-0.5,1.2l-0.6,1.2l-0.6,1.3l-0.6,1.2l-0.8,1l-0.7,1.3l-0.9,1l-1,1l-0.9,1l-1.1,0.9l-1,1l-1.1,0.7l-1.2,0.8l-1.1,0.7l-1.4,0.7l-1.2,0.6l-1.2,0.4l-1.4,0.5l-1.3,0.3l-1.4,0.3l-1.4,0.3l-1.4,0.2l-1.3,0.1l-1.4,0l-1.4,0L702.5,823l-1.4,-0.2l-1.4,-0.3l-1.4,-0.3L697,821.9l-1.3,-0.5l-1.3,-0.6l-1.2,-0.6l-1.3,-0.6L690.7,819l-1.2,-0.8l-1.1,-0.9l-1.1,-0.8l-1,-0.9l-0.9,-1l-1,-1l-0.7,-1l-0.9,-1.3l-0.6,-1l-0.8,-1.2l-0.6,-1.3l-0.5,-1.2l-0.6,-1.2L679.4,804l-0.3,-1.2l-0.3,-1.4L678.6,800l-0.1,-1.2l0,-1.4Z" class="g6_33" />
<path d="M537.5,857.5l-165,0l0,-26.3l330,0l0,26.3l-165,0Z" class="g5_33" />
<path d="M521.4,799l-147.9,0l0,-27.4l295.7,0l0,27.4l-147.8,0Z" class="g5_33" />
<path fill-rule="evenodd" d="M376.9,601.4l0,-1.3l0.2,-1.4l0.1,-1.4l0.3,-1.2l0.3,-1.4l0.5,-1.2l0.4,-1.4l0.5,-1.2l0.6,-1.2l0.8,-1.1l0.7,-1.2l0.8,-1.1l0.8,-1.1l0.9,-1l1,-1l1,-0.9l1,-0.9l1.3,-0.8l1,-0.7l1.2,-0.8l1.3,-0.6l1.3,-0.6l1.3,-0.5l1.3,-0.4l1.4,-0.5l1.4,-0.3l1.4,-0.3l1.3,-0.1l1.4,0l1.4,-0.2l1.4,0l1.5,0.2l1.4,0.1l1.3,0.3l1.4,0.3l1.4,0.3l1.2,0.5l1.4,0.6l1.2,0.6l1.2,0.6l1.3,0.6l1.2,0.8l1,0.9l1.1,0.9l1.1,0.9l0.9,1l0.9,1l0.9,1.1l0.8,1.1l0.8,1.2l0.6,1.1l0.6,1.2l0.6,1.2l0.5,1.4l0.3,1.2l0.3,1.4l0.3,1.2l0.1,1.4l0.2,1.4l0,1.3l0,1.4l-0.2,1.2l-0.1,1.4l-0.3,1.4l-0.3,1.2l-0.3,1.4l-0.5,1.2l-0.6,1.2l-0.6,1.2l-0.6,1.3l-0.8,1l-0.8,1.3l-0.9,1l-0.9,0.9l-0.9,1.1l-1.1,0.9l-1.1,0.9l-1,0.8l-1.2,0.8l-1.3,0.7l-1.2,0.6l-1.2,0.7l-1.4,0.4l-1.2,0.5l-1.4,0.3l-1.4,0.3l-1.3,0.3l-1.4,0.1l-1.5,0.2l-1.4,0l-1.4,0L401,626.9l-1.3,-0.1l-1.4,-0.3l-1.4,-0.3l-1.4,-0.3l-1.3,-0.5l-1.3,-0.6l-1.3,-0.6l-1.3,-0.6L389.1,623l-1,-0.8l-1.3,-0.9l-1,-0.8l-1,-0.9l-1,-1.1l-0.9,-0.9l-0.8,-1l-0.9,-1.3l-0.6,-1L379.8,613l-0.6,-1.2l-0.5,-1.2l-0.4,-1.2L377.8,608l-0.3,-1.2l-0.3,-1.4L377.1,604l-0.2,-1.2l0,-1.4Z" class="g6_33" />
<path d="M356.3,667.1l-37.8,0l0,-29.6l75.5,0l0,29.6l-37.7,0Z" class="g5_33" />
</svg>