<?xml version="1.0" encoding="UTF-8" standalone="no"?>
<!DOCTYPE svg PUBLIC "-//W3C//DTD SVG 1.1//EN"
"http://www.w3.org/Graphics/SVG/1.1/DTD/svg11.dtd">
<svg viewBox="0 0 935 1210" version="1.1" xmlns="http://www.w3.org/2000/svg" xmlns:xlink="http://www.w3.org/1999/xlink">
<defs>
<style type="text/css"><![CDATA[
.g1_138{
fill: none;
stroke: #000066;
stroke-width: 4.5833335;
stroke-linecap: butt;
stroke-linejoin: round;
}
.g2_138{
fill: none;
stroke: #000000;
stroke-width: 1.1458334;
stroke-linecap: butt;
stroke-linejoin: round;
}
.g3_138{
fill: none;
stroke: #203864;
stroke-width: 1.1458334;
stroke-linecap: butt;
stroke-linejoin: miter;
stroke-miterlimit: 8;
}
.g4_138{
fill: none;
stroke: #FF0000;
stroke-width: 2.6736124;
stroke-linecap: butt;
stroke-linejoin: miter;
stroke-miterlimit: 8;
}
.g5_138{
fill: #17375E;
}
.g6_138{
fill: none;
stroke: #10253F;
stroke-width: 1.1458334;
stroke-linecap: butt;
stroke-linejoin: round;
stroke-miterlimit: 8;
}
]]></style>
</defs>
<path d="M100.5,103.5l794.1,0" class="g1_138" />
<path d="M84.6,1142.7l772.2,0" class="g2_138" />
<image preserveAspectRatio="none" x="112" y="112" width="642" height="653" xlink:href="img/1.png" />
<path d="M111.7,766l642.8,0l0,-654.3l-642.8,0l0,654.3Z" class="g3_138" />
<path d="M614.2,140.8l59.6,0l0,-25.2l-59.6,0l0,25.2Z" class="g4_138" />
<path fill-rule="evenodd" d="M531.7,144.8c0,-12.3,10.5,-22.3,23.5,-22.3c12.9,0,23.4,10,23.4,22.3c0,12.3,-10.5,22.3,-23.4,22.3c-13,0,-23.5,-10,-23.5,-22.3Z" class="g5_138" />
<path d="M531.7,144.8c0,-12.3,10.5,-22.3,23.5,-22.3c12.9,0,23.4,10,23.4,22.3c0,12.3,-10.5,22.3,-23.4,22.3c-13,0,-23.5,-10,-23.5,-22.3Z" class="g6_138" />
<image preserveAspectRatio="none" x="539" y="135" width="32" height="20" xlink:href="img/2.png" />
<path d="M116.9,755l619.9,0l0,-472.1l-619.9,0l0,472.1Z" class="g4_138" />
</svg>