<?xml version="1.0" encoding="UTF-8" standalone="no"?>
<!DOCTYPE svg PUBLIC "-//W3C//DTD SVG 1.1//EN"
"http://www.w3.org/Graphics/SVG/1.1/DTD/svg11.dtd">
<svg viewBox="0 0 935 1210" version="1.1" xmlns="http://www.w3.org/2000/svg" xmlns:xlink="http://www.w3.org/1999/xlink">
<defs>
<style type="text/css"><![CDATA[
.g1_24{
fill: none;
stroke: #000066;
stroke-width: 4.5833335;
stroke-linecap: butt;
stroke-linejoin: round;
}
.g2_24{
fill: none;
stroke: #000000;
stroke-width: 1.1458334;
stroke-linecap: butt;
stroke-linejoin: round;
}
.g3_24{
fill: none;
stroke: #FF0000;
stroke-width: 2.2916667;
stroke-linecap: butt;
stroke-linejoin: miter;
stroke-miterlimit: 8;
}
.g4_24{
fill: #1F4E79;
}
]]></style>
</defs>
<path d="M100.5,103.5l794.1,0" class="g1_24" />
<path d="M84.6,1142.7l772.2,0" class="g2_24" />
<image preserveAspectRatio="none" x="112" y="112" width="689" height="361" xlink:href="img/1.png" />
<path d="M111.7,473.8l689.8,0l0,-362.1l-689.8,0l0,362.1Z" class="g2_24" />
<path d="M618.8,222.3l166.1,0l0,-16l-166.1,0l0,16Z" class="g3_24" />
<path fill-rule="evenodd" d="M737.9,190.2c0,-12.6,12.1,-22.9,27,-22.9c14.8,0,26.9,10.3,26.9,22.9c0,12.7,-12.1,22.9,-26.9,22.9c-14.9,0,-27,-10.2,-27,-22.9Z" class="g4_24" />
<image preserveAspectRatio="none" x="747" y="180" width="36" height="20" xlink:href="img/2.png" />
<path d="M444.6,267l163.8,0l0,-22.9l-163.8,0l0,22.9Z" class="g3_24" />
<path fill-rule="evenodd" d="M405.6,285.3c0,-12.6,12.1,-22.9,27,-22.9c14.8,0,26.9,10.3,26.9,22.9c0,12.7,-12.1,22.9,-26.9,22.9c-14.9,0,-27,-10.2,-27,-22.9Z" class="g4_24" />
<image preserveAspectRatio="none" x="414" y="275" width="37" height="20" xlink:href="img/3.png" />
</svg>