<?xml version="1.0" encoding="UTF-8" standalone="no"?>
<!DOCTYPE svg PUBLIC "-//W3C//DTD SVG 1.1//EN"
"http://www.w3.org/Graphics/SVG/1.1/DTD/svg11.dtd">
<svg viewBox="0 0 935 1210" version="1.1" xmlns="http://www.w3.org/2000/svg" xmlns:xlink="http://www.w3.org/1999/xlink">
<defs>
<style type="text/css"><![CDATA[
.g1_207{
fill: none;
stroke: #000066;
stroke-width: 4.5833335;
stroke-linecap: butt;
stroke-linejoin: round;
}
.g2_207{
fill: none;
stroke: #000000;
stroke-width: 1.1458334;
stroke-linecap: butt;
stroke-linejoin: round;
}
.g3_207{
fill: none;
stroke: #FF0000;
stroke-width: 2.2916667;
stroke-linecap: butt;
stroke-linejoin: miter;
stroke-miterlimit: 8;
}
.g4_207{
fill: #1F4E79;
}
]]></style>
</defs>
<path d="M100.5,103.5l794.1,0" class="g1_207" />
<path d="M84.6,1142.7l772.2,0" class="g2_207" />
<image preserveAspectRatio="none" x="112" y="112" width="705" height="532" xlink:href="img/1.png" />
<path d="M111.7,644.5l705.9,0l0,-532.8l-705.9,0l0,532.8Z" class="g2_207" />
<path d="M298.2,436.9l166,0l0,-29.5l-166,0l0,29.5Z" class="g3_207" />
<path fill-rule="evenodd" d="M415.6,393.1c0,-13.7,14,-24.8,31.2,-24.8c17.2,0,31.2,11.1,31.2,24.8c0,13.7,-14,24.8,-31.2,24.8c-17.2,0,-31.2,-11.1,-31.2,-24.8Z" class="g4_207" />
<image preserveAspectRatio="none" x="426" y="382" width="42" height="22" xlink:href="img/2.png" />
</svg>