<?xml version="1.0" encoding="UTF-8" standalone="no"?>
<!DOCTYPE svg PUBLIC "-//W3C//DTD SVG 1.1//EN"
"http://www.w3.org/Graphics/SVG/1.1/DTD/svg11.dtd">
<svg viewBox="0 0 909 1286" version="1.1" xmlns="http://www.w3.org/2000/svg" xmlns:xlink="http://www.w3.org/1999/xlink">
<defs>
<style type="text/css"><![CDATA[
.g1_18{
fill: none;
stroke: #000066;
stroke-width: 4.5833335;
stroke-linecap: butt;
stroke-linejoin: round;
}
.g2_18{
fill: none;
stroke: #000000;
stroke-width: 1.1458334;
stroke-linecap: butt;
stroke-linejoin: round;
}
.g3_18{
fill: #FFFFFF;
}
.g4_18{
}
.g5_18{
fill: none;
stroke: #FF0000;
stroke-width: 3.4375;
stroke-linecap: butt;
stroke-linejoin: round;
}
.g6_18{
fill: #376092;
}
.g7_18{
fill: none;
stroke: #FF0000;
stroke-width: 3.0555556;
stroke-linecap: butt;
stroke-linejoin: round;
}
]]></style>
</defs>
<path d="M78.1,99.1l794,0.1" class="g1_18" />
<path d="M96.6,1224.5l772.1,0.1" class="g2_18" />
<image preserveAspectRatio="none" x="112" y="136" width="504" height="152" xlink:href="img/1.png" />
<image preserveAspectRatio="none" x="112" y="351" width="690" height="347" xlink:href="img/2.png" />
<path fill-rule="evenodd" d="M112.3,822.5l689.5,0l0,0.5l-689.5,0l0,-0.5Z" class="g3_18" />
<path fill-rule="evenodd" d="M112.3,1161.4l689.5,0l0,0.4l-689.5,0l0,-0.4Z" class="g3_18" />
<path fill-rule="evenodd" d="M112.3,822.8l0.5,0l0,338.6l-0.5,0l0,-338.6Z" class="g3_18" />
<path fill-rule="evenodd" d="M801.3,822.8l0.5,0l0,338.6l-0.5,0l0,-338.6Z" class="g3_18" />
<image preserveAspectRatio="none" x="113" y="823" width="688" height="338" xlink:href="img/3.png" />
<path fill-rule="evenodd" d="M112.6,1161.5l-0.3,0.3l0,-339.3l0.3,0.3l0.2,0.2l0,338.4l-0.2,0.1Z" class="g4_18" />
<path fill-rule="evenodd" d="M801.5,1161.5l-0.2,-0.1l0,-338.4l0.2,-0.2l0.3,-0.3l0,339.3l-0.3,-0.3Z" class="g4_18" />
<path fill-rule="evenodd" d="M801.5,822.8l-0.2,0.2l-688.5,0l-0.2,-0.2l-0.3,-0.3l689.5,0l-0.3,0.3Z" class="g4_18" />
<path fill-rule="evenodd" d="M801.5,1161.5l0.3,0.3l-689.5,0l0.3,-0.3l0.2,-0.1l688.5,0l0.2,0.1Z" class="g4_18" />
<path d="M456.7,268.4l-49.9,0l0,-36.7l99.7,0l0,36.7l-49.8,0Z" class="g5_18" />
<path fill-rule="evenodd" d="M508.3,206.2l0,-1.4l0.1,-1.4l0.2,-1.3l0.3,-1.4l0.3,-1.4l0.5,-1.4l0.4,-1.2l0.6,-1.2l0.8,-1.4l0.6,-1.2l0.9,-1.1l0.8,-1.2l1.1,-1.1l0.9,-1l1,-1.1l1.1,-0.9l1.2,-0.9l1.3,-1l1.3,-0.7l1.3,-0.8l1.3,-0.7l1.6,-0.7l1.3,-0.6l1.6,-0.4l1.5,-0.5l1.5,-0.4l1.5,-0.3l1.6,-0.2l1.5,-0.2l1.7,-0.1l1.5,0l1.7,0l1.7,0.1l1.5,0.2l1.7,0.3l1.5,0.3l1.7,0.3l1.5,0.6l1.5,0.5l1.4,0.6l1.5,0.8l1.4,0.6l1.4,0.9l1.2,0.8l1.4,0.9l1.1,1l1.2,1l1.1,1.2l0.9,1l0.9,1.3l0.9,1l0.8,1.4l0.7,1.2l0.6,1.4l0.7,1.2L570,199l0.3,1.4l0.3,1.4l0.3,1.5l0,1.4l0.2,1.3l-0.2,0l0,1.6l-0.1,1.3l-0.2,1.4l-0.3,1.4l-0.4,1.4l-0.5,1.3l-0.5,1.4l-0.6,1.4l-0.7,1.2l-0.8,1.2l-0.9,1.3l-0.9,1.2l-0.9,1l-1.1,1.1l-1.2,1.1l-1.3,0.9l-1.2,0.9l-1.2,0.9l-1.4,0.8l-1.4,0.8l-1.5,0.7l-1.4,0.6l-1.5,0.5l-1.5,0.5l-1.7,0.4l-1.5,0.3l-1.7,0.3l-1.5,0.2l-1.7,0.1l-1.7,0l-1.5,0l-1.7,-0.1l-1.7,-0.2l-1.5,-0.3l-1.7,-0.3L530,232l-1.5,-0.6l-1.6,-0.5l-1.5,-0.6L524,229.6L522.7,229l-1.4,-1l-1.4,-0.7l-1.2,-0.9l-1.2,-1.1l-1.1,-0.9l-1.1,-1.3l-1,-1l-1,-1.2l-0.9,-1.1l-0.7,-1.4L511,217.2l-0.6,-1.4l-0.6,-1.2l-0.4,-1.4l-0.5,-1.4l-0.3,-1.3l-0.2,-1.6l-0.1,-1.3l0,-1.4Z" class="g6_18" />
<path d="M395.7,479.1l-128.3,0l0,-18.2l256.6,0l0,18.2l-128.3,0Z" class="g5_18" />
<path fill-rule="evenodd" d="M368.2,435.4l0,-1.4l0.1,-1.4l0.2,-1.4l0.3,-1.3l0.3,-1.4l0.5,-1.4l0.4,-1.2l0.6,-1.2l0.8,-1.4l0.6,-1.2l0.9,-1.1l0.8,-1.2l1.1,-1.1l0.9,-1.1l1.1,-1l1,-1l1.2,-0.9l1.3,-0.9l1.3,-0.7l1.3,-0.8l1.3,-0.8l1.6,-0.6l1.3,-0.6l1.6,-0.5l1.5,-0.4l1.5,-0.5l1.5,-0.3l1.6,-0.1l1.5,-0.2l1.7,-0.1l1.5,0l1.7,0l1.7,0.1l1.5,0.2l1.7,0.3l1.5,0.3l1.7,0.3l1.5,0.6l1.5,0.5l1.4,0.6l1.5,0.7l1.4,0.6l1.4,1l1.2,0.7l1.4,0.9l1.1,1.1l1.2,0.9l1.1,1.2l0.9,1.1l0.9,1.2l0.9,1.1l0.8,1.4l0.7,1.2l0.6,1.4l0.7,1.2l0.4,1.4l0.3,1.4l0.3,1.3l0.3,1.6l0,1.3l0.2,1.4l-0.2,0l0,1.5l-0.1,1.4l-0.2,1.4l-0.3,1.4l-0.4,1.3l-0.5,1.4l-0.5,1.4l-0.6,1.4l-0.7,1.2l-0.8,1.2l-0.9,1.2l-0.9,1.2l-0.9,1.1l-1.1,1.1l-1.2,1.1l-1.3,0.9l-1.2,0.9l-1.2,0.9l-1.4,0.8l-1.4,0.7l-1.5,0.8l-1.4,0.6l-1.5,0.5l-1.5,0.4l-1.7,0.5l-1.5,0.3l-1.7,0.3l-1.5,0.1l-1.7,0.2l-1.7,0l-1.5,0l-1.7,-0.2l-1.7,-0.1l-1.5,-0.3l-1.7,-0.3l-1.5,-0.3l-1.5,-0.6l-1.6,-0.5l-1.5,-0.6l-1.4,-0.8l-1.3,-0.6l-1.4,-0.9l-1.4,-0.8l-1.2,-0.9l-1.2,-1l-1.1,-1l-1.1,-1.2l-1,-1.1l-1,-1.2l-0.9,-1l-0.7,-1.4l-0.7,-1.2L370.3,445l-0.6,-1.2l-0.4,-1.4L368.8,441l-0.3,-1.4l-0.2,-1.5l-0.1,-1.4l0,-1.3Z" class="g6_18" />
<path d="M461.2,696.9l-341,0l0,-38.9l681.9,0l0,38.9l-340.9,0Z" class="g5_18" />
<path d="M410.2,1151.6l-33.3,0l0,-18.4l66.5,0l0,18.4l-33.2,0Z" class="g7_18" />
<path d="M153.5,956.8l-35.6,0l0,-21.7l71.1,0l0,21.7l-35.5,0Z" class="g7_18" />
<path fill-rule="evenodd" d="M727.7,1039.9l0,-1.4l0.1,-1.2l0.2,-1.4l0.3,-1.3l0.3,-1.3l0.5,-1.3l0.4,-1.3l0.5,-1.2l0.6,-1.2l0.7,-1.2l0.8,-1.3l0.8,-1l0.7,-1.1l1,-0.9l1,-1.1l0.9,-0.9l1.1,-0.9l1.2,-0.8l1.1,-0.7l1.2,-0.8l1.2,-0.6l1.4,-0.6l1.2,-0.5l1.4,-0.4l1.4,-0.5l1.4,-0.3l1.3,-0.2l1.4,-0.1l1.4,-0.2l1.4,0l1.3,0l1.6,0.2l1.3,0.1l1.4,0.2l1.4,0.3l1.4,0.5l1.2,0.4l1.4,0.5l1.2,0.6l1.2,0.6l1.2,0.8l1.3,0.7l1,0.8l1.1,0.9l1.1,0.9l0.9,1.1l0.9,0.9l0.9,1.1l0.8,1l0.7,1.3l0.7,1.2l0.6,1.2l0.6,1.2l0.4,1.3l0.3,1.3l0.3,1.3l0.4,1.3l0.1,1.4l0.2,1.2l0,1.4l0,1.4l-0.2,1.3l-0.1,1.4l-0.4,1.2l-0.3,1.4l-0.4,1.2l-0.5,1.4l-0.4,1.2l-0.6,1.3l-0.8,1L777,1054l-0.7,1l-0.8,1.1l-0.9,1.1l-1.1,0.9l-0.9,0.9l-1.1,0.9l-1.2,0.8l-1.1,0.7l-1.2,0.8l-1.2,0.6l-1.2,0.6l-1.4,0.5l-1.2,0.4l-1.4,0.5l-1.4,0.3l-1.4,0.3l-1.3,0.2l-1.6,0l-1.3,0.1l0,-0.1l-1.4,0l-1.4,-0.2l-1.4,-0.1l-1.3,-0.2l-1.4,-0.3l-1.4,-0.5l-1.4,-0.4l-1.2,-0.5l-1.4,-0.6l-1.2,-0.6l-1,-0.8l-1.3,-0.7l-1,-0.8l-1.1,-0.9l-1.1,-0.9l-0.9,-0.9l-0.9,-1.1l-0.9,-1.1l-0.8,-1l-0.8,-1.3l-0.6,-1l-0.6,-1.3l-0.6,-1.3l-0.4,-1.3l-0.5,-1.2l-0.3,-1.4L728,1044l-0.2,-1.4l0,-1.3l-0.1,-1.4Z" class="g6_18" />
<path fill-rule="evenodd" d="M177.7,1002l0,-1.2l0.1,-1.4l0.2,-1.2l0.1,-1.4l0.3,-1.2l0.5,-1.2l0.5,-1.3l0.4,-1.2l0.6,-1.2l0.6,-1.2l0.7,-1.1l0.7,-1.1l0.8,-1l0.9,-1.1l0.9,-0.9l0.9,-0.9l1.1,-0.9l1.1,-0.8l1,-0.8l1.1,-0.7l1.2,-0.6l1.3,-0.7l1.2,-0.6l1.4,-0.4l1.2,-0.5l1.3,-0.3l1.3,-0.3l1.3,-0.3l1.4,-0.2l1.4,-0.1l1.4,0l1.3,0l1.4,0.1l1.4,0.2l1.4,0.3l1.3,0.3l1.4,0.3l1.4,0.5l1.2,0.6l1.4,0.6l1.2,0.6l1.1,0.6l1.2,0.8l1.1,0.9l1,0.9l1.1,0.9l0.9,0.9l0.9,1.1l1,1.1L227,988l0.8,1l0.6,1.2l0.6,1.3l0.6,1.2l0.5,1.4l0.4,1.2l0.3,1.4l0.4,1.2l0.1,1.4l0,1.3l0.2,1.4l-0.2,0l0,1.4l-0.1,1.2L231,1006l-0.3,1.4l-0.3,1.2l-0.3,1.4l-0.5,1.2l-0.6,1.2l-0.6,1.2l-0.6,1.2l-0.8,1.3l-0.7,1l-1,1.1l-0.9,1.1l-0.9,0.9l-1.1,0.9l-1,0.9l-1.1,0.8l-1.2,0.8l-1.1,0.7l-1.4,0.6l-1.2,0.6l-1.2,0.5l-1.4,0.5l-1.4,0.4l-1.3,0.3l-1.4,0.3l-1.4,0.2l-1.4,0l-1.3,0.1l-1.4,0l-1.5,-0.1l-1.4,-0.2l-1.4,-0.3l-1.4,-0.3l-1.3,-0.3l-1.3,-0.5l-1.3,-0.6l-1.3,-0.6l-1.2,-0.6l-1.2,-0.6l-1.2,-0.8l-1.1,-0.9l-1.1,-0.9l-1,-0.9l-0.9,-0.9l-1,-1.1l-0.7,-1.1l-0.9,-1l-0.7,-1.1l-0.7,-1.2l-0.6,-1.2l-0.5,-1.3l-0.6,-1.3l-0.3,-1.3l-0.3,-1.3l-0.3,-1.3l-0.2,-1.3l-0.1,-1.4l0,-1.4Z" class="g6_18" />
<path d="M140.4,1019.9l-23.5,0l0,-13.8l46.9,0l0,13.8l-23.4,0Z" class="g7_18" />
<path d="M618.3,1031.2l-103.7,0l0,-24l207.3,0l0,24l-103.6,0Z" class="g7_18" />
<path d="M341.5,898.3l-33.3,0l0,-18.4l66.4,0l0,18.4l-33.1,0Z" class="g7_18" />
<path fill-rule="evenodd" d="M381.6,902.4l0,-1.4l0.2,-1.4l0.1,-1.3l0.3,-1.2l0.4,-1.4l0.3,-1.2l0.4,-1.4l0.6,-1.2l0.6,-1.3l0.7,-1.2l0.7,-1.1l0.8,-1l0.9,-1.1l0.9,-1.1l0.9,-0.9l1.1,-0.9l1.1,-0.9l1,-0.9l1.3,-0.8l1.2,-0.6l1.2,-0.6l1.2,-0.6l1.4,-0.6l1.2,-0.5l1.4,-0.3l1.4,-0.3l1.4,-0.3l1.3,-0.2l1.6,-0.1l1.3,0l1.4,0l1.4,0.1l1.4,0.2l1.3,0.3l1.4,0.3l1.4,0.3l1.4,0.5l1.2,0.6l1.3,0.6l1.3,0.6l1.2,0.6l1.1,0.8l1.2,0.9l1.1,0.9l0.9,0.9l1,0.9l1,1.1l0.7,1.1l0.8,1l0.8,1.3l0.7,1l0.6,1.3l0.5,1.2l0.4,1.4l0.5,1.2l0.3,1.4l0.3,1.2l0.2,1.3l0.1,1.4l0,1.4l-0.1,0l0,1.4l-0.2,1.2l-0.1,1.4l-0.3,1.3l-0.4,1.3l-0.3,1.3l-0.4,1.3l-0.6,1.2l-0.6,1.2l-0.6,1.2l-0.8,1.1l-0.8,1.2l-0.9,1.1l-0.9,0.9l-0.9,1.1l-1.1,0.9l-1.1,0.9l-1,0.8l-1.3,0.7l-1,0.8l-1.4,0.6l-1.2,0.6l-1.2,0.5l-1.4,0.4l-1.4,0.3l-1.4,0.4l-1.3,0.3l-1.4,0.1l-1.4,0.2l-1.4,0l-1.3,0l-1.6,-0.2l-1.3,-0.1l-1.4,-0.3l-1.4,-0.4l-1.4,-0.3l-1.2,-0.4l-1.4,-0.6l-1.2,-0.6l-1.2,-0.6l-1.2,-0.7l-1.3,-0.7l-1,-0.9l-1.1,-0.8l-1.1,-0.9l-0.9,-1.1l-0.9,-0.9l-0.8,-1.1l-0.9,-1.2l-0.6,-1.1L384.5,914l-0.6,-1.2l-0.4,-1.2l-0.6,-1.3L382.6,909l-0.4,-1.3l-0.3,-1.3L381.8,905l-0.2,-1.2l0,-1.4Z" class="g6_18" />
</svg>