<?xml version="1.0" encoding="UTF-8" standalone="no"?>
<!DOCTYPE svg PUBLIC "-//W3C//DTD SVG 1.1//EN"
"http://www.w3.org/Graphics/SVG/1.1/DTD/svg11.dtd">
<svg viewBox="0 0 909 1286" version="1.1" xmlns="http://www.w3.org/2000/svg" xmlns:xlink="http://www.w3.org/1999/xlink">
<defs>
<style type="text/css"><![CDATA[
.g1_22{
fill: none;
stroke: #000066;
stroke-width: 4.5833335;
stroke-linecap: butt;
stroke-linejoin: round;
}
.g2_22{
fill: none;
stroke: #000000;
stroke-width: 1.1458334;
stroke-linecap: butt;
stroke-linejoin: round;
}
.g3_22{
fill: #FFFFFF;
}
.g4_22{
}
.g5_22{
fill: none;
stroke: #FF0000;
stroke-width: 3.0555556;
stroke-linecap: butt;
stroke-linejoin: round;
}
.g6_22{
fill: #376092;
}
]]></style>
</defs>
<path d="M78.1,99.1l794,0.1" class="g1_22" />
<path d="M96.6,1224.5l772.1,0.1" class="g2_22" />
<image preserveAspectRatio="none" x="610" y="95" width="40" height="37" xlink:href="img/1.png" />
<path fill-rule="evenodd" d="M112.3,158.5l689.5,0l0,0.3l-689.5,0l0,-0.3Z" class="g3_22" />
<path fill-rule="evenodd" d="M112.3,652.1l689.5,0l0,0.5l-689.5,0l0,-0.5Z" class="g3_22" />
<path fill-rule="evenodd" d="M112.3,158.8l0.5,0l0,493.5l-0.5,0l0,-493.5Z" class="g3_22" />
<path fill-rule="evenodd" d="M801.3,158.8l0.5,0l0,493.5l-0.5,0l0,-493.5Z" class="g3_22" />
<image preserveAspectRatio="none" x="113" y="159" width="688" height="493" xlink:href="img/2.png" />
<path fill-rule="evenodd" d="M112.6,652.3l-0.3,0.3l0,-494.1l0.3,0.3l0.2,0.2l0,493.1l-0.2,0.2Z" class="g4_22" />
<path fill-rule="evenodd" d="M801.5,652.3l-0.2,-0.2l0,-493.1l0.2,-0.2l0.3,-0.3l0,494.1l-0.3,-0.3Z" class="g4_22" />
<path fill-rule="evenodd" d="M801.5,158.8l-0.2,0.2l-688.5,0l-0.2,-0.2l-0.3,-0.3l689.5,0l-0.3,0.3Z" class="g4_22" />
<path fill-rule="evenodd" d="M801.5,652.3l0.3,0.3l-689.5,0l0.3,-0.3l0.2,-0.2l688.5,0l0.2,0.2Z" class="g4_22" />
<path fill-rule="evenodd" d="M112.3,715.2l689.5,0l0,0.5l-689.5,0l0,-0.5Z" class="g3_22" />
<path fill-rule="evenodd" d="M112.3,1105.9l689.5,0l0,0.5l-689.5,0l0,-0.5Z" class="g3_22" />
<path fill-rule="evenodd" d="M112.3,715.6l0.5,0l0,390.5l-0.5,0l0,-390.5Z" class="g3_22" />
<path fill-rule="evenodd" d="M801.3,715.6l0.5,0l0,390.5l-0.5,0l0,-390.5Z" class="g3_22" />
<image preserveAspectRatio="none" x="113" y="716" width="688" height="390" xlink:href="img/3.png" />
<path fill-rule="evenodd" d="M112.6,1106.1l-0.3,0.3l0,-391.2l0.3,0.4l0.2,0.1l0,390.2l-0.2,0.2Z" class="g4_22" />
<path fill-rule="evenodd" d="M801.5,1106.1l-0.2,-0.2l0,-390.2l0.2,-0.1l0.3,-0.4l0,391.2l-0.3,-0.3Z" class="g4_22" />
<path fill-rule="evenodd" d="M801.5,715.6l-0.2,0.1l-688.5,0l-0.2,-0.1l-0.3,-0.4l689.5,0l-0.3,0.4Z" class="g4_22" />
<path fill-rule="evenodd" d="M801.5,1106.1l0.3,0.3l-689.5,0l0.3,-0.3l0.2,-0.2l688.5,0l0.2,0.2Z" class="g4_22" />
<path d="M167.3,237.1l-49.4,0l0,-27.5l98.6,0l0,27.5l-49.2,0Z" class="g5_22" />
<path fill-rule="evenodd" d="M669.3,465.8l0,-1.4l0.2,-1.2l0.1,-1.4l0.3,-1.4l0.3,-1.2l0.3,-1.4l0.5,-1.2l0.6,-1.2l0.6,-1.3l0.6,-1.2l0.8,-1.2l0.8,-1.1l0.9,-1l0.9,-1l0.9,-1l1.1,-0.9l1.1,-1l1,-0.7l1.2,-0.8l1.3,-0.7l1.2,-0.7l1.2,-0.6l1.4,-0.4l1.2,-0.5l1.4,-0.4l1.4,-0.3l1.3,-0.2l1.4,-0.2l1.5,-0.1l1.4,0l1.4,0l1.4,0.1l1.3,0.2l1.4,0.2l1.4,0.3l1.4,0.4l1.3,0.5l1.3,0.4l1.3,0.6l1.3,0.7l1.2,0.7l1,0.8l1.3,0.7l1,1l1,0.9l1,1l0.9,1l0.8,1l0.8,1.1l0.7,1.2l0.8,1.2l0.6,1.3l0.5,1.2l0.4,1.2l0.5,1.4l0.3,1.2l0.3,1.4l0.1,1.4l0.2,1.2l0,1.4l-0.2,0l0,1.3l-0.1,1.4l-0.2,1.4l-0.3,1.2l-0.3,1.4l-0.3,1.2l-0.4,1.4l-0.6,1.2l-0.7,1.2l-0.6,1.1l-0.7,1.2l-0.8,1.1L717,482l-0.9,1l-0.9,0.9l-1.1,1l-1.1,0.9l-1.1,0.7l-1.2,0.8l-1,0.8l-1.4,0.6l-1.2,0.6l-1.3,0.4l-1.3,0.5l-1.4,0.5l-1.4,0.3l-1.4,0.3l-1.3,0.1l-1.4,0l-1.4,0.2l0,-0.2l-1.4,0l-1.5,-0.1l-1.4,-0.2L690.6,491l-1.4,-0.3l-1.4,-0.5l-1.2,-0.5l-1.4,-0.4L684,488.7l-1.2,-0.6l-1.3,-0.8l-1.2,-0.8l-1,-0.7l-1.1,-0.9l-1.1,-1L676.2,483l-0.9,-1l-0.8,-1.1l-0.9,-1.1L673,478.6l-0.8,-1.1l-0.6,-1.2l-0.4,-1.4l-0.7,-1.2l-0.3,-1.2l-0.3,-1.4l-0.3,-1.2l-0.1,-1.4l-0.2,-1.4l0,-1.3Z" class="g6_22" />
<path d="M442.9,580.8l-323.7,0l0,-79l647.3,0l0,79l-323.6,0Z" class="g5_22" />
<path fill-rule="evenodd" d="M699.1,1018.1l0,-1.4l0.2,-1.2l0.1,-1.4l0.2,-1.2l0.3,-1.4l0.4,-1.2l0.5,-1.3l0.5,-1.2l0.6,-1.2l0.6,-1.1l0.6,-1.2l0.7,-1.1l0.8,-1l0.9,-1l0.9,-1l1,-0.9l1,-0.8l1.1,-0.9l1.1,-0.8l1,-0.7l1.3,-0.7l1.2,-0.6l1.2,-0.6l1.4,-0.4l1.2,-0.3l1.4,-0.5l1.2,-0.3l1.4,-0.2l1.3,-0.1l1.4,-0.2l1.4,0l1.4,0l1.4,0.2l1.3,0.1l1.4,0.2l1.4,0.3l1.4,0.5l1.3,0.4l1.2,0.5l1.4,0.6l1.2,0.6l1.1,0.8l1.2,0.7l1.1,0.8l1.1,0.9l1,0.9l1,0.9l0.9,1.1l0.9,1.1l0.8,1l0.7,1.3l0.6,1.2l0.6,1.2l0.7,1.2l0.4,1.3l0.5,1.3l0.3,1.3l0.3,1.3l0.1,1.4l0,1.2l0.2,1.4l-0.2,0l0,1.4l-0.1,1.3l-0.2,1.4l-0.3,1.2l-0.3,1.4l-0.3,1.2l-0.4,1.4l-0.7,1.2l-0.6,1.3l-0.6,1.2l-0.7,1.1l-0.8,1l-0.9,1.1l-0.9,1.1l-1,1l-1,0.9l-1.1,0.8l-1.1,0.9l-1.2,0.8l-1.1,0.6l-1.3,0.8l-1.3,0.4l-1.2,0.6l-1.3,0.5l-1.4,0.3l-1.4,0.3l-1.4,0.3l-1.3,0.2l-1.4,0.1l-1.4,0l-1.4,0l-1.5,-0.1l-1.4,-0.2l-1.4,-0.1L719,1043l-1.4,-0.5l-1.2,-0.5l-1.4,-0.4l-1.2,-0.6l-1.2,-0.6l-1.3,-0.8l-1.2,-0.8l-1.1,-0.7l-1,-1l-1.1,-0.9l-0.9,-0.9l-0.9,-1.1l-0.8,-1l-0.9,-1.1l-0.6,-1.2l-0.8,-1.2l-0.6,-1.3l-0.5,-1.2l-0.6,-1.2l-0.3,-1.4l-0.3,-1.2l-0.3,-1.4l-0.1,-1.4l-0.2,-1.2l0,-1.3Z" class="g6_22" />
<path d="M590.6,1075.8l-206.7,0l0,-27.3l413.6,0l0,27.3l-206.9,0Z" class="g5_22" />
</svg>