<?xml version="1.0" encoding="UTF-8" standalone="no"?>
<!DOCTYPE svg PUBLIC "-//W3C//DTD SVG 1.1//EN"
"http://www.w3.org/Graphics/SVG/1.1/DTD/svg11.dtd">
<svg viewBox="0 0 935 1210" version="1.1" xmlns="http://www.w3.org/2000/svg" xmlns:xlink="http://www.w3.org/1999/xlink">
<defs>
<style type="text/css"><![CDATA[
.g1_112{
fill: none;
stroke: #000066;
stroke-width: 4.5833335;
stroke-linecap: butt;
stroke-linejoin: round;
}
.g2_112{
fill: none;
stroke: #000000;
stroke-width: 1.1458334;
stroke-linecap: butt;
stroke-linejoin: round;
}
.g3_112{
fill: none;
stroke: #FF0000;
stroke-width: 3.4375;
stroke-linecap: butt;
stroke-linejoin: round;
}
.g4_112{
fill: #376092;
}
]]></style>
</defs>
<path d="M100.5,103.5l794.1,0" class="g1_112" />
<path d="M84.6,1142.7l772.2,0" class="g2_112" />
<image preserveAspectRatio="none" x="112" y="112" width="528" height="414" xlink:href="img/1.png" />
<path d="M111.7,526.9l528.9,0l0,-415.2l-528.9,0l0,415.2Z" class="g2_112" />
<image preserveAspectRatio="none" x="112" y="672" width="715" height="321" xlink:href="img/2.png" />
<path d="M111.7,993.5l716.2,0l0,-321.6l-716.2,0l0,321.6Z" class="g2_112" />
<path d="M142.1,140.6l498,0l0,-22.3l-498,0l0,22.3Z" class="g3_112" />
<path fill-rule="evenodd" d="M551.2,164c0,-12.9,10.5,-23.4,23.4,-23.4c13,0,23.4,10.5,23.4,23.4c0,12.9,-10.4,23.4,-23.4,23.4c-12.9,0,-23.4,-10.5,-23.4,-23.4Z" class="g4_112" />
<image preserveAspectRatio="none" x="560" y="155" width="30" height="18" xlink:href="img/3.png" />
<path d="M138.4,522.3l137.2,0l0,-25.8l-137.2,0l0,25.8Z" class="g3_112" />
<path fill-rule="evenodd" d="M266.9,490.2c0,-12.9,10.5,-23.4,23.5,-23.4c12.9,0,23.4,10.5,23.4,23.4c0,13,-10.5,23.4,-23.4,23.4c-13,0,-23.5,-10.4,-23.5,-23.4Z" class="g4_112" />
<image preserveAspectRatio="none" x="275" y="481" width="30" height="19" xlink:href="img/4.png" />
<path d="M121.1,709.3l166.8,0l0,-30.9l-166.8,0l0,30.9Z" class="g3_112" />
<path fill-rule="evenodd" d="M412,825.8c0,-12.9,10.5,-23.4,23.4,-23.4c13,0,23.5,10.5,23.5,23.4c0,13,-10.5,23.4,-23.5,23.4C422.5,849.2,412,838.8,412,825.8Z" class="g4_112" />
<path fill-rule="evenodd" d="M279.1,711.7c0,-12.9,10.5,-23.4,23.4,-23.4c13,0,23.5,10.5,23.5,23.4c0,12.9,-10.5,23.4,-23.5,23.4c-12.9,0,-23.4,-10.5,-23.4,-23.4Z" class="g4_112" />
<path d="M692.4,708.2l63.6,0l0,-29.6l-63.6,0l0,29.6Z" class="g3_112" />
<path fill-rule="evenodd" d="M662.8,725.5c0,-13,10.4,-23.4,23.4,-23.4c12.9,0,23.3,10.4,23.3,23.4c0,12.9,-10.4,23.4,-23.3,23.4c-13,0,-23.4,-10.5,-23.4,-23.4Z" class="g4_112" />
<image preserveAspectRatio="none" x="671" y="716" width="30" height="19" xlink:href="img/5.png" />
</svg>