<?xml version="1.0" encoding="UTF-8" standalone="no"?>
<!DOCTYPE svg PUBLIC "-//W3C//DTD SVG 1.1//EN"
"http://www.w3.org/Graphics/SVG/1.1/DTD/svg11.dtd">
<svg viewBox="0 0 935 1210" version="1.1" xmlns="http://www.w3.org/2000/svg" xmlns:xlink="http://www.w3.org/1999/xlink">
<defs>
<style type="text/css"><![CDATA[
.g1_38{
fill: none;
stroke: #000066;
stroke-width: 4.5833335;
stroke-linecap: butt;
stroke-linejoin: round;
}
.g2_38{
fill: none;
stroke: #000000;
stroke-width: 1.1458334;
stroke-linecap: butt;
stroke-linejoin: round;
}
.g3_38{
fill: none;
stroke: #000000;
stroke-width: 0.38194567;
stroke-linecap: square;
stroke-linejoin: miter;
stroke-miterlimit: 8;
}
.g4_38{
fill: #C3D69B;
}
.g5_38{
fill: none;
stroke: #C0504D;
stroke-width: 3.0555544;
stroke-linecap: butt;
stroke-linejoin: miter;
stroke-miterlimit: 8;
}
]]></style>
</defs>
<path d="M100.5,103.5l794.1,0" class="g1_38" />
<path d="M84.6,1142.7l772.2,0" class="g2_38" />
<image preserveAspectRatio="none" x="112" y="393" width="196" height="467" xlink:href="img/1.png" />
<path d="M112.1,860.4l196.3,0l0,-467.8l-196.3,0l0,467.8Z" class="g3_38" />
<image preserveAspectRatio="none" x="112" y="889" width="317" height="137" xlink:href="img/2.png" />
<path d="M112.1,1026.3l316.6,0l0,-137.9l-316.6,0l0,137.9Z" class="g3_38" />
<path fill-rule="evenodd" d="M112.3,143.2l12,-4.5l-8.6,-7.3l13.6,-1.1l-3.8,-8.9l13.2,2.5l1.5,-9.3l10.7,5.9l6.7,-8.2l6.6,8.2l10.7,-5.9l1.5,9.3l13.2,-2.5l-3.8,8.9l13.6,1.1l-8.5,7.3l11.9,4.5l-11.9,4.6l8.5,7.3l-13.6,1l3.8,9l-13.2,-2.6l-1.5,9.3L164.2,166l-6.6,8.2L150.9,166l-10.7,5.8l-1.5,-9.3l-13.2,2.6l3.8,-9l-13.6,-1l8.6,-7.3Z" class="g4_38" />
<path d="M112.3,143.2l12,-4.5l-8.6,-7.3l13.6,-1.1l-3.8,-8.9l13.2,2.5l1.5,-9.3l10.7,5.9l6.7,-8.2l6.6,8.2l10.7,-5.9l1.5,9.3l13.2,-2.5l-3.8,8.9l13.6,1.1l-8.5,7.3l11.9,4.5l-11.9,4.6l8.5,7.3l-13.6,1l3.8,9l-13.2,-2.6l-1.5,9.3L164.2,166l-6.6,8.2L150.9,166l-10.7,5.8l-1.5,-9.3l-13.2,2.6l3.8,-9l-13.6,-1l8.6,-7.3Z" class="g5_38" />
</svg>