<?xml version="1.0" encoding="UTF-8" standalone="no"?>
<!DOCTYPE svg PUBLIC "-//W3C//DTD SVG 1.1//EN"
"http://www.w3.org/Graphics/SVG/1.1/DTD/svg11.dtd">
<svg viewBox="0 0 935 1210" version="1.1" xmlns="http://www.w3.org/2000/svg" xmlns:xlink="http://www.w3.org/1999/xlink">
<defs>
<style type="text/css"><![CDATA[
.g1_97{
fill: none;
stroke: #000066;
stroke-width: 4.5833335;
stroke-linecap: butt;
stroke-linejoin: round;
}
.g2_97{
fill: none;
stroke: #000000;
stroke-width: 1.1458334;
stroke-linecap: butt;
stroke-linejoin: round;
}
.g3_97{
fill: none;
stroke: #FF0000;
stroke-width: 3.4375;
stroke-linecap: butt;
stroke-linejoin: round;
}
.g4_97{
fill: #376092;
}
]]></style>
</defs>
<path d="M100.5,103.5l794.1,0" class="g1_97" />
<path d="M84.6,1142.7l772.2,0" class="g2_97" />
<image preserveAspectRatio="none" x="112" y="112" width="690" height="272" xlink:href="img/1.png" />
<path d="M111.7,384.8l690.8,0l0,-273.1l-690.8,0l0,273.1Z" class="g2_97" />
<image preserveAspectRatio="none" x="112" y="466" width="690" height="285" xlink:href="img/2.png" />
<path d="M111.7,751.2l690.7,0l0,-285.9l-690.7,0l0,285.9Z" class="g2_97" />
<image preserveAspectRatio="none" x="112" y="807" width="690" height="161" xlink:href="img/3.png" />
<path d="M111.7,968.7l690.7,0l0,-161.9l-690.7,0l0,161.9Z" class="g2_97" />
<path d="M116.1,137.3l302.8,0l0,-22.2l-302.8,0l0,22.2Z" class="g3_97" />
<path fill-rule="evenodd" d="M401.6,148.5c0,-13,10.5,-23.5,23.5,-23.5c13,0,23.5,10.5,23.5,23.5c0,12.9,-10.5,23.4,-23.5,23.4c-13,0,-23.5,-10.5,-23.5,-23.4Z" class="g4_97" />
<image preserveAspectRatio="none" x="410" y="139" width="30" height="19" xlink:href="img/4.png" />
<path d="M600.6,174.4l197.6,0l0,-17.3l-197.6,0l0,17.3Z" class="g3_97" />
<path fill-rule="evenodd" d="M713,148.4C713,135.5,723.5,125,736.5,125c13,0,23.4,10.5,23.4,23.4c0,13,-10.4,23.5,-23.4,23.5c-13,0,-23.5,-10.5,-23.5,-23.5Z" class="g4_97" />
<image preserveAspectRatio="none" x="721" y="139" width="30" height="19" xlink:href="img/5.png" />
<path d="M114.9,497.4l177.4,0l0,-28.4l-177.4,0l0,28.4Z" class="g3_97" />
<path fill-rule="evenodd" d="M283,501.1c0,-12.9,10.5,-23.4,23.4,-23.4c13,0,23.5,10.5,23.5,23.4c0,13,-10.5,23.5,-23.5,23.5C293.5,524.6,283,514.1,283,501.1Z" class="g4_97" />
<image preserveAspectRatio="none" x="291" y="492" width="31" height="19" xlink:href="img/6.png" />
<path d="M685.8,491.3l46.9,0l0,-22.3l-46.9,0l0,22.3Z" class="g3_97" />
<path fill-rule="evenodd" d="M653.7,511c0,-12.9,10.5,-23.5,23.5,-23.5c13,0,23.5,10.6,23.5,23.5c0,13,-10.5,23.5,-23.5,23.5c-13,0,-23.5,-10.5,-23.5,-23.5Z" class="g4_97" />
<image preserveAspectRatio="none" x="662" y="501" width="30" height="20" xlink:href="img/7.png" />
<path d="M116.1,958.9l584.5,0l0,-147l-584.5,0l0,147Z" class="g3_97" />
<path fill-rule="evenodd" d="M341,857.6c0,-13,10.5,-23.5,23.5,-23.5c13,0,23.4,10.5,23.4,23.5c0,12.9,-10.4,23.4,-23.4,23.4C351.5,881,341,870.5,341,857.6Z" class="g4_97" />
<image preserveAspectRatio="none" x="349" y="848" width="31" height="19" xlink:href="img/8.png" />
<path fill-rule="evenodd" d="M435,597.5c0,-12.9,10.5,-23.4,23.4,-23.4c13,0,23.5,10.5,23.5,23.4c0,13,-10.5,23.5,-23.5,23.5C445.5,621,435,610.5,435,597.5Z" class="g4_97" />
</svg>