<?xml version="1.0" encoding="UTF-8" standalone="no"?>
<!DOCTYPE svg PUBLIC "-//W3C//DTD SVG 1.1//EN"
"http://www.w3.org/Graphics/SVG/1.1/DTD/svg11.dtd">
<svg viewBox="0 0 935 1210" version="1.1" xmlns="http://www.w3.org/2000/svg" xmlns:xlink="http://www.w3.org/1999/xlink">
<defs>
<style type="text/css"><![CDATA[
.g1_165{
fill: none;
stroke: #000066;
stroke-width: 4.5833335;
stroke-linecap: butt;
stroke-linejoin: round;
}
.g2_165{
fill: none;
stroke: #000000;
stroke-width: 1.1458334;
stroke-linecap: butt;
stroke-linejoin: round;
}
.g3_165{
fill: none;
stroke: #203864;
stroke-width: 1.1458334;
stroke-linecap: butt;
stroke-linejoin: miter;
stroke-miterlimit: 8;
}
.g4_165{
fill: none;
stroke: #FF0000;
stroke-width: 2.6736124;
stroke-linecap: butt;
stroke-linejoin: miter;
stroke-miterlimit: 8;
}
.g5_165{
fill: #17375E;
}
.g6_165{
fill: none;
stroke: #10253F;
stroke-width: 1.1458334;
stroke-linecap: butt;
stroke-linejoin: round;
stroke-miterlimit: 8;
}
.g7_165{
fill: none;
stroke: #FF0000;
stroke-width: 1.5277791;
stroke-linecap: butt;
stroke-linejoin: miter;
stroke-miterlimit: 8;
}
]]></style>
</defs>
<path d="M100.5,103.5l794.1,0" class="g1_165" />
<path d="M84.6,1142.7l772.2,0" class="g2_165" />
<image preserveAspectRatio="none" x="112" y="112" width="690" height="290" xlink:href="img/1.png" />
<path d="M111.7,402.2l690.7,0l0,-290.5l-690.7,0l0,290.5Z" class="g3_165" />
<image preserveAspectRatio="none" x="112" y="580" width="690" height="284" xlink:href="img/2.png" />
<path d="M111.7,864.8l691,0l0,-285.3l-691,0l0,285.3Z" class="g3_165" />
<path d="M116.9,857.2l48.1,0l0,-12.6l-48.1,0l0,12.6Z" class="g4_165" />
<path d="M425.1,832l369,0l0,-186.8l-369,0l0,186.8Z" class="g4_165" />
<path fill-rule="evenodd" d="M176.5,815.3c0,-14.2,12.3,-25.7,27.5,-25.7c15.1,0,27.5,11.5,27.5,25.7c0,14.3,-12.4,25.8,-27.5,25.8c-15.2,0,-27.5,-11.5,-27.5,-25.8Z" class="g5_165" />
<path d="M176.5,815.3c0,-14.2,12.3,-25.7,27.5,-25.7c15.1,0,27.5,11.5,27.5,25.7c0,14.3,-12.4,25.8,-27.5,25.8c-15.2,0,-27.5,-11.5,-27.5,-25.8Z" class="g6_165" />
<image preserveAspectRatio="none" x="185" y="803" width="38" height="25" xlink:href="img/3.png" />
<path fill-rule="evenodd" d="M344.9,612.5c0,-14.2,12.3,-25.8,27.5,-25.8c15.2,0,27.5,11.6,27.5,25.8c0,14.3,-12.3,25.8,-27.5,25.8c-15.2,0,-27.5,-11.5,-27.5,-25.8Z" class="g5_165" />
<path d="M344.9,612.5c0,-14.2,12.3,-25.8,27.5,-25.8c15.2,0,27.5,11.6,27.5,25.8c0,14.3,-12.3,25.8,-27.5,25.8c-15.2,0,-27.5,-11.5,-27.5,-25.8Z" class="g6_165" />
<image preserveAspectRatio="none" x="353" y="600" width="38" height="25" xlink:href="img/4.png" />
<path d="M276.1,616.5l49.3,0l0,-21.7l-49.3,0l0,21.7Z" class="g7_165" />
</svg>