<?xml version="1.0" encoding="UTF-8" standalone="no"?>
<!DOCTYPE svg PUBLIC "-//W3C//DTD SVG 1.1//EN"
"http://www.w3.org/Graphics/SVG/1.1/DTD/svg11.dtd">
<svg viewBox="0 0 909 1286" version="1.1" xmlns="http://www.w3.org/2000/svg" xmlns:xlink="http://www.w3.org/1999/xlink">
<defs>
<style type="text/css"><![CDATA[
.g1_24{
fill: none;
stroke: #000066;
stroke-width: 4.5833335;
stroke-linecap: butt;
stroke-linejoin: round;
}
.g2_24{
fill: none;
stroke: #000000;
stroke-width: 1.1458334;
stroke-linecap: butt;
stroke-linejoin: round;
}
.g3_24{
fill: #FFFFFF;
}
.g4_24{
}
.g5_24{
fill: none;
stroke: #FF0000;
stroke-width: 3.0555556;
stroke-linecap: butt;
stroke-linejoin: round;
}
.g6_24{
fill: #376092;
}
]]></style>
</defs>
<path d="M78.1,99.1l794,0.1" class="g1_24" />
<path d="M96.6,1224.5l772.1,0.1" class="g2_24" />
<path fill-rule="evenodd" d="M112.3,97l689.5,0l0,0.4l-689.5,0l0,-0.4Z" class="g3_24" />
<path fill-rule="evenodd" d="M112.3,440.1l689.5,0l0,0.5l-689.5,0l0,-0.5Z" class="g3_24" />
<path fill-rule="evenodd" d="M112.3,97.3l0.5,0l0,342.8l-0.5,0l0,-342.8Z" class="g3_24" />
<path fill-rule="evenodd" d="M801.3,97.3l0.5,0l0,342.8l-0.5,0l0,-342.8Z" class="g3_24" />
<image preserveAspectRatio="none" x="113" y="97" width="688" height="343" xlink:href="img/1.png" />
<path fill-rule="evenodd" d="M112.6,440.2l-0.3,0.4L112.3,97l0.3,0.3l0.2,0.1l0,342.7l-0.2,0.1Z" class="g4_24" />
<path fill-rule="evenodd" d="M801.5,440.2l-0.2,-0.1l0,-342.7l0.2,-0.1L801.8,97l0,343.6l-0.3,-0.4Z" class="g4_24" />
<path fill-rule="evenodd" d="M801.5,97.3l-0.2,0.1l-688.5,0l-0.2,-0.1L112.3,97l689.5,0l-0.3,0.3Z" class="g4_24" />
<path fill-rule="evenodd" d="M801.5,440.2l0.3,0.4l-689.5,0l0.3,-0.4l0.2,-0.1l688.5,0l0.2,0.1Z" class="g4_24" />
<path fill-rule="evenodd" d="M112.3,541.4l506.5,0l0,0.4l-506.5,0l0,-0.4Z" class="g3_24" />
<path fill-rule="evenodd" d="M112.3,696.8l506.5,0l0,0.4l-506.5,0l0,-0.4Z" class="g3_24" />
<path fill-rule="evenodd" d="M112.3,541.7l0.5,0l0,155.2l-0.5,0l0,-155.2Z" class="g3_24" />
<path fill-rule="evenodd" d="M618.3,541.7l0.5,0l0,155.2l-0.5,0l0,-155.2Z" class="g3_24" />
<image preserveAspectRatio="none" x="113" y="542" width="505" height="155" xlink:href="img/2.png" />
<path fill-rule="evenodd" d="M112.6,696.9l-0.3,0.3l0,-155.8l0.3,0.3l0.2,0.1l0,155l-0.2,0.1Z" class="g4_24" />
<path fill-rule="evenodd" d="M618.4,696.9l-0.1,-0.1l0,-155l0.1,-0.1l0.4,-0.3l0,155.8l-0.4,-0.3Z" class="g4_24" />
<path fill-rule="evenodd" d="M618.4,541.7l-0.1,0.1l-505.5,0l-0.2,-0.1l-0.3,-0.3l506.5,0l-0.4,0.3Z" class="g4_24" />
<path fill-rule="evenodd" d="M618.4,696.9l0.4,0.3l-506.5,0l0.3,-0.3l0.2,-0.1l505.5,0l0.1,0.1Z" class="g4_24" />
<path fill-rule="evenodd" d="M112.3,720.1l689.5,0l0,0.5l-689.5,0l0,-0.5Z" class="g3_24" />
<path fill-rule="evenodd" d="M112.3,1119.8l689.5,0l0,0.5l-689.5,0l0,-0.5Z" class="g3_24" />
<path fill-rule="evenodd" d="M112.3,720.4l0.5,0l0,399.6l-0.5,0l0,-399.6Z" class="g3_24" />
<path fill-rule="evenodd" d="M801.3,720.4l0.5,0l0,399.6l-0.5,0l0,-399.6Z" class="g3_24" />
<image preserveAspectRatio="none" x="113" y="720" width="688" height="400" xlink:href="img/3.png" />
<path fill-rule="evenodd" d="M112.6,1120l-0.3,0.3l0,-400.2l0.3,0.3l0.2,0.2l0,399.2l-0.2,0.2Z" class="g4_24" />
<path fill-rule="evenodd" d="M801.5,1120l-0.2,-0.2l0,-399.2l0.2,-0.2l0.3,-0.3l0,400.2l-0.3,-0.3Z" class="g4_24" />
<path fill-rule="evenodd" d="M801.5,720.4l-0.2,0.2l-688.5,0l-0.2,-0.2l-0.3,-0.3l689.5,0l-0.3,0.3Z" class="g4_24" />
<path fill-rule="evenodd" d="M801.5,1120l0.3,0.3l-689.5,0l0.3,-0.3l0.2,-0.2l688.5,0l0.2,0.2Z" class="g4_24" />
<path d="M495,439.9l-302.5,0l0,-23.6l605,0l0,23.6l-302.5,0Z" class="g5_24" />
<path d="M197.1,272.8l-45.8,0l0,-18.2l91.5,0l0,18.2l-45.7,0Z" class="g5_24" />
<path fill-rule="evenodd" d="M285.4,210.5l0,-1.4l0.1,-1.2l0.2,-1.4l0.3,-1.4l0.3,-1.2l0.3,-1.4l0.5,-1.2l0.6,-1.2l0.6,-1.2l0.6,-1.3l0.8,-1.2l0.7,-1.1l0.9,-1l1,-0.9l0.9,-1.1l1.1,-0.9l1,-0.9l1.1,-0.8l1.2,-0.8l1.2,-0.7l1.3,-0.6l1.2,-0.7l1.4,-0.4l1.2,-0.5l1.4,-0.4l1.3,-0.3l1.4,-0.2l1.4,-0.1l1.5,-0.2l1.4,0l1.4,0L315,185l1.4,0.1l1.4,0.2l1.4,0.3l1.3,0.4l1.4,0.5l1.2,0.4l1.4,0.7l1.2,0.6l1.2,0.7l1.1,0.8l1.2,0.8l1.1,0.9l0.9,0.9l1.1,1.1l0.9,0.9l0.8,1l0.7,1.1l0.8,1.2l0.8,1.3l0.6,1.2l0.4,1.2l0.5,1.2l0.4,1.4l0.4,1.2l0.3,1.4l0.1,1.4l0.2,1.2l0,1.4l-0.2,0l0,1.3l-0.1,1.4l-0.2,1.4l-0.3,1.2l-0.3,1.4l-0.3,1.2l-0.5,1.4l-0.6,1.2l-0.6,1.2l-0.6,1.1l-0.8,1.2l-0.7,1.1l-0.9,1.1l-1,1l-0.9,0.9l-1,1l-1.1,0.9l-1.1,0.7l-1.2,0.8l-1.1,0.8l-1.4,0.6l-1.2,0.6l-1.2,0.5l-1.4,0.4l-1.3,0.5l-1.4,0.3l-1.4,0.3l-1.4,0.1l-1.3,0l-1.4,0.2l0,-0.2l-1.4,0L309.4,236L308,235.8l-1.4,-0.1l-1.3,-0.3l-1.4,-0.5l-1.2,-0.4L301.3,234l-1.2,-0.6l-1.3,-0.6L297.6,232l-1.2,-0.8l-1.1,-0.7l-1,-0.9l-1.1,-1l-0.9,-0.9l-1,-1l-0.7,-1.1l-0.9,-1.1l-0.6,-1.2l-0.8,-1.1L287.7,221l-0.5,-1.4l-0.6,-1.2l-0.3,-1.2L286,215.8l-0.3,-1.2l-0.2,-1.4l-0.1,-1.4l0,-1.3Z" class="g6_24" />
<path d="M455,670.5l-47.1,0l0,-33.2l94,0l0,33.2l-46.9,0Z" class="g5_24" />
<path fill-rule="evenodd" d="M351.8,633.4l0,-1.4l0.2,-1.2l0.2,-1.4l0.1,-1.2l0.3,-1.4l0.5,-1.2l0.4,-1.3l0.5,-1.2l0.6,-1.2l0.6,-1.1l0.6,-1.2l0.8,-1.1l0.7,-1l1,-0.9l0.9,-1.1l0.9,-0.9l1.1,-0.8l1,-0.9l1.1,-0.8l1.1,-0.7l1.2,-0.7l1.2,-0.6l1.2,-0.6l1.4,-0.4l1.2,-0.3l1.4,-0.5l1.2,-0.3l1.4,-0.2l1.4,-0.1l1.4,-0.2l1.3,0l1.4,0l1.4,0.2l1.4,0.1l1.3,0.2l1.4,0.3l1.4,0.5l1.4,0.4l1.2,0.5l1.4,0.6l1.2,0.6l1,0.8l1.3,0.7l1,0.8l1.1,0.9l1.1,0.9l0.9,0.9l0.9,1.1l0.9,1.1l0.8,1l0.8,1.3l0.6,1.2l0.6,1.2l0.6,1.2l0.5,1.3l0.4,1.3l0.3,1.3l0.3,1.3l0.2,1.4l0,1.2l0.1,1.4l-0.1,0l0,1.4l-0.2,1.4l-0.1,1.3l-0.3,1.3l-0.3,1.3l-0.3,1.2l-0.5,1.4l-0.6,1.2l-0.6,1.3l-0.6,1.2l-0.8,1.1l-0.8,1l-0.9,1.1l-0.9,1.1l-0.9,1l-1.1,1l-1.1,0.7l-1,0.9l-1.3,0.8l-1,0.6l-1.4,0.8l-1.2,0.4l-1.2,0.6l-1.4,0.5l-1.4,0.3l-1.4,0.3l-1.3,0.3l-1.4,0.2l-1.4,0.1l-1.4,0l-1.3,0l-1.6,-0.1l-1.3,-0.2l-1.4,-0.1l-1.4,-0.3l-1.4,-0.5l-1.2,-0.5l-1.4,-0.4l-1.2,-0.6l-1.2,-0.6l-1.2,-0.8l-1.3,-0.8l-1,-0.7l-1.1,-0.9l-1.1,-1l-0.9,-0.9l-0.9,-1L357,648.5l-0.9,-1.1l-0.6,-1.2L354.7,645l-0.6,-1.3l-0.4,-1.2l-0.6,-1.2l-0.3,-1.4l-0.3,-1.2l-0.3,-1.4L352,636l-0.2,-1.3l0,-1.3Z" class="g6_24" />
</svg>