<?xml version="1.0" encoding="UTF-8" standalone="no"?>
<!DOCTYPE svg PUBLIC "-//W3C//DTD SVG 1.1//EN"
"http://www.w3.org/Graphics/SVG/1.1/DTD/svg11.dtd">
<svg viewBox="0 0 935 1210" version="1.1" xmlns="http://www.w3.org/2000/svg" xmlns:xlink="http://www.w3.org/1999/xlink">
<defs>
<clipPath id="c0_19"><path d="M102.2,150.6l0,-19.5l356.4,0l0,19.5Z" /></clipPath>
<clipPath id="c1_19"><path d="M459.4,150.6l0,-19.5l356.4,0l0,19.5Z" /></clipPath>
<clipPath id="c2_19"><path d="M102.2,269l0,-58.5l356.4,0l0,58.5Z" /></clipPath>
<clipPath id="c3_19"><path d="M459.4,269l0,-58.5l356.4,0l0,58.5Z" /></clipPath>
<clipPath id="c4_19"><path d="M102.2,328.9l0,-19.4l356.4,0l0,19.4Z" /></clipPath>
<clipPath id="c5_19"><path d="M459.4,328.9l0,-19.4l356.4,0l0,19.4Z" /></clipPath>
<clipPath id="c6_19"><path d="M102.2,408.4l0,-38.9l356.4,0l0,38.9Z" /></clipPath>
<clipPath id="c7_19"><path d="M459.4,408.4l0,-38.9l356.4,0l0,38.9Z" /></clipPath>
<clipPath id="c8_19"><path d="M102.2,762.6l0,-38.9l356.4,0l0,38.9Z" /></clipPath>
<clipPath id="c9_19"><path d="M459.4,762.6l0,-38.9l356.4,0l0,38.9Z" /></clipPath>
<clipPath id="c10_19"><path d="M102.2,861.6l0,-19.4l356.4,0l0,19.4Z" /></clipPath>
<clipPath id="c11_19"><path d="M459.4,861.6l0,-19.4l356.4,0l0,19.4Z" /></clipPath>
<style type="text/css"><![CDATA[
.g1_19{
fill: none;
stroke: #000066;
stroke-width: 4.5833335;
stroke-linecap: butt;
stroke-linejoin: round;
}
.g2_19{
fill: none;
stroke: #000000;
stroke-width: 1.1458334;
stroke-linecap: butt;
stroke-linejoin: round;
}
.g3_19{
fill: #656565;
}
.g4_19{
fill: #CCCCCC;
}
]]></style>
</defs>
<path d="M100.5,103.5l794.1,0" class="g1_19" />
<path d="M84.6,1142.7l772.2,0" class="g2_19" />
<path fill-rule="evenodd" d="M101.4,110.7l0.8,0l0,-0.7l-0.8,0l0,0.7Z" class="g3_19" />
<path fill-rule="evenodd" d="M101.4,110.7l0.8,0l0,-0.7l-0.8,0l0,0.7Z" class="g3_19" />
<path fill-rule="evenodd" d="M102.2,110.7l356.4,0l0,-0.7l-356.4,0l0,0.7Z" class="g3_19" />
<path fill-rule="evenodd" d="M458.6,110.7l0.8,0l0,-0.7l-0.8,0l0,0.7Z" class="g3_19" />
<path fill-rule="evenodd" d="M459.4,110.7l356.4,0l0,-0.7l-356.4,0l0,0.7Z" class="g3_19" />
<path fill-rule="evenodd" d="M815.8,110.7l0.8,0l0,-0.7l-0.8,0l0,0.7Z" class="g3_19" />
<path fill-rule="evenodd" d="M815.8,110.7l0.8,0l0,-0.7l-0.8,0l0,0.7Z" class="g3_19" />
<path fill-rule="evenodd" d="M101.4,130.2l0.8,0l0,-19.5l-0.8,0l0,19.5Z" class="g3_19" />
<path fill-rule="evenodd" d="M458.6,130.2l0.8,0l0,-19.5l-0.8,0l0,19.5Z" class="g3_19" />
<path fill-rule="evenodd" d="M815.8,130.2l0.8,0l0,-19.5l-0.8,0l0,19.5Z" class="g3_19" />
<path fill-rule="evenodd" d="M102.2,150.5l356.4,0l0,-19.4l-356.4,0l0,19.4Z" class="g4_19" />
<g clip-path="url(#c0_19)">
<path fill-rule="evenodd" d="M110,149.6l340.7,0l0,-18.5l-340.7,0l0,18.5Z" class="g4_19" />
</g>
<path fill-rule="evenodd" d="M459.4,150.5l356.4,0l0,-19.4l-356.4,0l0,19.4Z" class="g4_19" />
<g clip-path="url(#c1_19)">
<path fill-rule="evenodd" d="M467.2,149.6l340.7,0l0,-18.5l-340.7,0l0,18.5Z" class="g4_19" />
</g>
<path fill-rule="evenodd" d="M101.4,130.9l0.8,0l0,-0.7l-0.8,0l0,0.7Z" class="g3_19" />
<path fill-rule="evenodd" d="M102.2,130.9l356.4,0l0,-0.7l-356.4,0l0,0.7Z" class="g3_19" />
<path fill-rule="evenodd" d="M458.6,130.9l0.8,0l0,-0.7l-0.8,0l0,0.7Z" class="g3_19" />
<path fill-rule="evenodd" d="M459.4,130.9l356.4,0l0,-0.7l-356.4,0l0,0.7Z" class="g3_19" />
<path fill-rule="evenodd" d="M815.8,130.9l0.8,0l0,-0.7l-0.8,0l0,0.7Z" class="g3_19" />
<path fill-rule="evenodd" d="M101.4,150.5l0.8,0l0,-19.6l-0.8,0l0,19.6Z" class="g3_19" />
<path fill-rule="evenodd" d="M458.6,150.5l0.8,0l0,-19.6l-0.8,0l0,19.6Z" class="g3_19" />
<path fill-rule="evenodd" d="M815.8,150.5l0.8,0l0,-19.6l-0.8,0l0,19.6Z" class="g3_19" />
<path fill-rule="evenodd" d="M101.4,151.3l0.8,0l0,-0.8l-0.8,0l0,0.8Z" class="g3_19" />
<path fill-rule="evenodd" d="M102.2,151.3l356.4,0l0,-0.8l-356.4,0l0,0.8Z" class="g3_19" />
<path fill-rule="evenodd" d="M458.6,151.3l0.8,0l0,-0.8l-0.8,0l0,0.8Z" class="g3_19" />
<path fill-rule="evenodd" d="M459.4,151.3l356.4,0l0,-0.8l-356.4,0l0,0.8Z" class="g3_19" />
<path fill-rule="evenodd" d="M815.8,151.3l0.8,0l0,-0.8l-0.8,0l0,0.8Z" class="g3_19" />
<path fill-rule="evenodd" d="M101.4,209.8l0.8,0l0,-58.5l-0.8,0l0,58.5Z" class="g3_19" />
<path fill-rule="evenodd" d="M458.6,209.8l0.8,0l0,-58.5l-0.8,0l0,58.5Z" class="g3_19" />
<path fill-rule="evenodd" d="M815.8,209.8l0.8,0l0,-58.5l-0.8,0l0,58.5Z" class="g3_19" />
<path fill-rule="evenodd" d="M102.2,269l356.4,0l0,-58.5l-356.4,0l0,58.5Z" class="g4_19" />
<g clip-path="url(#c2_19)">
<path fill-rule="evenodd" d="M110,229.2l340.7,0l0,-18.7l-340.7,0l0,18.7Z" class="g4_19" />
</g>
<path fill-rule="evenodd" d="M459.4,269l356.4,0l0,-58.5l-356.4,0l0,58.5Z" class="g4_19" />
<g clip-path="url(#c3_19)">
<path fill-rule="evenodd" d="M467.2,229.2l340.7,0l0,-18.7l-340.7,0l0,18.7Z" class="g4_19" />
</g>
<path fill-rule="evenodd" d="M467.2,247.7l340.7,0l0,-18.5l-340.7,0l0,18.5Z" class="g4_19" />
<path fill-rule="evenodd" d="M467.2,266.4l340.7,0l0,-18.7l-340.7,0l0,18.7Z" class="g4_19" />
<path fill-rule="evenodd" d="M101.4,210.5l0.8,0l0,-0.7l-0.8,0l0,0.7Z" class="g3_19" />
<path fill-rule="evenodd" d="M102.2,210.5l356.4,0l0,-0.7l-356.4,0l0,0.7Z" class="g3_19" />
<path fill-rule="evenodd" d="M458.6,210.5l0.8,0l0,-0.7l-0.8,0l0,0.7Z" class="g3_19" />
<path fill-rule="evenodd" d="M459.4,210.5l356.4,0l0,-0.7l-356.4,0l0,0.7Z" class="g3_19" />
<path fill-rule="evenodd" d="M815.8,210.5l0.8,0l0,-0.7l-0.8,0l0,0.7Z" class="g3_19" />
<path fill-rule="evenodd" d="M101.4,269l0.8,0l0,-58.5l-0.8,0l0,58.5Z" class="g3_19" />
<path fill-rule="evenodd" d="M458.6,269l0.8,0l0,-58.5l-0.8,0l0,58.5Z" class="g3_19" />
<path fill-rule="evenodd" d="M815.8,269l0.8,0l0,-58.5l-0.8,0l0,58.5Z" class="g3_19" />
<path fill-rule="evenodd" d="M101.4,269.7l0.8,0l0,-0.7l-0.8,0l0,0.7Z" class="g3_19" />
<path fill-rule="evenodd" d="M102.2,269.7l356.4,0l0,-0.7l-356.4,0l0,0.7Z" class="g3_19" />
<path fill-rule="evenodd" d="M458.6,269.7l0.8,0l0,-0.7l-0.8,0l0,0.7Z" class="g3_19" />
<path fill-rule="evenodd" d="M459.4,269.7l356.4,0l0,-0.7l-356.4,0l0,0.7Z" class="g3_19" />
<path fill-rule="evenodd" d="M815.8,269.7l0.8,0l0,-0.7l-0.8,0l0,0.7Z" class="g3_19" />
<path fill-rule="evenodd" d="M101.4,308.6l0.8,0l0,-38.9l-0.8,0l0,38.9Z" class="g3_19" />
<path fill-rule="evenodd" d="M458.6,308.6l0.8,0l0,-38.9l-0.8,0l0,38.9Z" class="g3_19" />
<path fill-rule="evenodd" d="M815.8,308.6l0.8,0l0,-38.9l-0.8,0l0,38.9Z" class="g3_19" />
<path fill-rule="evenodd" d="M102.2,328.9l356.4,0l0,-19.4l-356.4,0l0,19.4Z" class="g4_19" />
<g clip-path="url(#c4_19)">
<path fill-rule="evenodd" d="M110,328l340.7,0l0,-18.5l-340.7,0l0,18.5Z" class="g4_19" />
</g>
<path fill-rule="evenodd" d="M459.4,328.9l356.4,0l0,-19.4l-356.4,0l0,19.4Z" class="g4_19" />
<g clip-path="url(#c5_19)">
<path fill-rule="evenodd" d="M467.2,328l340.7,0l0,-18.5l-340.7,0l0,18.5Z" class="g4_19" />
</g>
<path fill-rule="evenodd" d="M101.4,309.3l0.8,0l0,-0.7l-0.8,0l0,0.7Z" class="g3_19" />
<path fill-rule="evenodd" d="M102.2,309.3l356.4,0l0,-0.7l-356.4,0l0,0.7Z" class="g3_19" />
<path fill-rule="evenodd" d="M458.6,309.3l0.8,0l0,-0.7l-0.8,0l0,0.7Z" class="g3_19" />
<path fill-rule="evenodd" d="M459.4,309.3l356.4,0l0,-0.7l-356.4,0l0,0.7Z" class="g3_19" />
<path fill-rule="evenodd" d="M815.8,309.3l0.8,0l0,-0.7l-0.8,0l0,0.7Z" class="g3_19" />
<path fill-rule="evenodd" d="M101.4,328.9l0.8,0l0,-19.6l-0.8,0l0,19.6Z" class="g3_19" />
<path fill-rule="evenodd" d="M458.6,328.9l0.8,0l0,-19.6l-0.8,0l0,19.6Z" class="g3_19" />
<path fill-rule="evenodd" d="M815.8,328.9l0.8,0l0,-19.6l-0.8,0l0,19.6Z" class="g3_19" />
<path fill-rule="evenodd" d="M101.4,329.7l0.8,0l0,-0.8l-0.8,0l0,0.8Z" class="g3_19" />
<path fill-rule="evenodd" d="M102.2,329.7l356.4,0l0,-0.8l-356.4,0l0,0.8Z" class="g3_19" />
<path fill-rule="evenodd" d="M458.6,329.7l0.8,0l0,-0.8l-0.8,0l0,0.8Z" class="g3_19" />
<path fill-rule="evenodd" d="M459.4,329.7l356.4,0l0,-0.8l-356.4,0l0,0.8Z" class="g3_19" />
<path fill-rule="evenodd" d="M815.8,329.7l0.8,0l0,-0.8l-0.8,0l0,0.8Z" class="g3_19" />
<path fill-rule="evenodd" d="M101.4,368.5l0.8,0l0,-38.8l-0.8,0l0,38.8Z" class="g3_19" />
<path fill-rule="evenodd" d="M458.6,368.5l0.8,0l0,-38.8l-0.8,0l0,38.8Z" class="g3_19" />
<path fill-rule="evenodd" d="M815.8,368.5l0.8,0l0,-38.8l-0.8,0l0,38.8Z" class="g3_19" />
<path fill-rule="evenodd" d="M102.2,408.4l356.4,0l0,-38.9l-356.4,0l0,38.9Z" class="g4_19" />
<g clip-path="url(#c6_19)">
<path fill-rule="evenodd" d="M110,388l340.7,0l0,-18.5l-340.7,0l0,18.5Z" class="g4_19" />
</g>
<path fill-rule="evenodd" d="M459.4,408.4l356.4,0l0,-38.9l-356.4,0l0,38.9Z" class="g4_19" />
<g clip-path="url(#c7_19)">
<path fill-rule="evenodd" d="M467.2,388l340.7,0l0,-18.5l-340.7,0l0,18.5Z" class="g4_19" />
</g>
<path fill-rule="evenodd" d="M101.4,369.3l0.8,0l0,-0.8l-0.8,0l0,0.8Z" class="g3_19" />
<path fill-rule="evenodd" d="M102.2,369.3l356.4,0l0,-0.8l-356.4,0l0,0.8Z" class="g3_19" />
<path fill-rule="evenodd" d="M458.6,369.3l0.8,0l0,-0.8l-0.8,0l0,0.8Z" class="g3_19" />
<path fill-rule="evenodd" d="M459.4,369.3l356.4,0l0,-0.8l-356.4,0l0,0.8Z" class="g3_19" />
<path fill-rule="evenodd" d="M815.8,369.3l0.8,0l0,-0.8l-0.8,0l0,0.8Z" class="g3_19" />
<path fill-rule="evenodd" d="M101.4,408.4l0.8,0l0,-39.1l-0.8,0l0,39.1Z" class="g3_19" />
<path fill-rule="evenodd" d="M458.6,408.4l0.8,0l0,-39.1l-0.8,0l0,39.1Z" class="g3_19" />
<path fill-rule="evenodd" d="M815.8,408.4l0.8,0l0,-39.1l-0.8,0l0,39.1Z" class="g3_19" />
<path fill-rule="evenodd" d="M101.4,409.1l0.8,0l0,-0.7l-0.8,0l0,0.7Z" class="g3_19" />
<path fill-rule="evenodd" d="M102.2,409.1l356.4,0l0,-0.7l-356.4,0l0,0.7Z" class="g3_19" />
<path fill-rule="evenodd" d="M458.6,409.1l0.8,0l0,-0.7l-0.8,0l0,0.7Z" class="g3_19" />
<path fill-rule="evenodd" d="M459.4,409.1l356.4,0l0,-0.7l-356.4,0l0,0.7Z" class="g3_19" />
<path fill-rule="evenodd" d="M815.8,409.1l0.8,0l0,-0.7l-0.8,0l0,0.7Z" class="g3_19" />
<path fill-rule="evenodd" d="M101.4,467.6l0.8,0l0,-58.5l-0.8,0l0,58.5Z" class="g3_19" />
<path fill-rule="evenodd" d="M458.6,467.6l0.8,0l0,-58.5l-0.8,0l0,58.5Z" class="g3_19" />
<path fill-rule="evenodd" d="M815.8,467.6l0.8,0l0,-58.5l-0.8,0l0,58.5Z" class="g3_19" />
<path fill-rule="evenodd" d="M102.2,487.7l356.4,0l0,-19.4l-356.4,0l0,19.4Z" class="g4_19" />
<path fill-rule="evenodd" d="M110,487l340.7,0l0,-18.7l-340.7,0l0,18.7Z" class="g4_19" />
<path fill-rule="evenodd" d="M459.4,487.7l356.4,0l0,-19.4l-356.4,0l0,19.4Z" class="g4_19" />
<path fill-rule="evenodd" d="M467.2,487l340.7,0l0,-18.7l-340.7,0l0,18.7Z" class="g4_19" />
<path fill-rule="evenodd" d="M101.4,468.3l0.8,0l0,-0.7l-0.8,0l0,0.7Z" class="g3_19" />
<path fill-rule="evenodd" d="M102.2,468.3l356.4,0l0,-0.7l-356.4,0l0,0.7Z" class="g3_19" />
<path fill-rule="evenodd" d="M458.6,468.3l0.8,0l0,-0.7l-0.8,0l0,0.7Z" class="g3_19" />
<path fill-rule="evenodd" d="M459.4,468.3l356.4,0l0,-0.7l-356.4,0l0,0.7Z" class="g3_19" />
<path fill-rule="evenodd" d="M815.8,468.3l0.8,0l0,-0.7l-0.8,0l0,0.7Z" class="g3_19" />
<path fill-rule="evenodd" d="M101.4,487.7l0.8,0l0,-19.4l-0.8,0l0,19.4Z" class="g3_19" />
<path fill-rule="evenodd" d="M458.6,487.7l0.8,0l0,-19.4l-0.8,0l0,19.4Z" class="g3_19" />
<path fill-rule="evenodd" d="M815.8,487.7l0.8,0l0,-19.4l-0.8,0l0,19.4Z" class="g3_19" />
<path fill-rule="evenodd" d="M101.4,488.5l0.8,0l0,-0.8l-0.8,0l0,0.8Z" class="g3_19" />
<path fill-rule="evenodd" d="M102.2,488.5l356.4,0l0,-0.8l-356.4,0l0,0.8Z" class="g3_19" />
<path fill-rule="evenodd" d="M458.6,488.5l0.8,0l0,-0.8l-0.8,0l0,0.8Z" class="g3_19" />
<path fill-rule="evenodd" d="M459.4,488.5l356.4,0l0,-0.8l-356.4,0l0,0.8Z" class="g3_19" />
<path fill-rule="evenodd" d="M815.8,488.5l0.8,0l0,-0.8l-0.8,0l0,0.8Z" class="g3_19" />
<path fill-rule="evenodd" d="M101.4,527.5l0.8,0l0,-39l-0.8,0l0,39Z" class="g3_19" />
<path fill-rule="evenodd" d="M458.6,527.5l0.8,0l0,-39l-0.8,0l0,39Z" class="g3_19" />
<path fill-rule="evenodd" d="M815.8,527.5l0.8,0l0,-39l-0.8,0l0,39Z" class="g3_19" />
<path fill-rule="evenodd" d="M102.2,547.9l356.4,0l0,-19.6l-356.4,0l0,19.6Z" class="g4_19" />
<path fill-rule="evenodd" d="M110,547l340.7,0l0,-18.7l-340.7,0l0,18.7Z" class="g4_19" />
<path fill-rule="evenodd" d="M459.4,547.9l356.4,0l0,-19.6l-356.4,0l0,19.6Z" class="g4_19" />
<path fill-rule="evenodd" d="M467.2,547l340.7,0l0,-18.7l-340.7,0l0,18.7Z" class="g4_19" />
<path fill-rule="evenodd" d="M101.4,528.3l0.8,0l0,-0.8l-0.8,0l0,0.8Z" class="g3_19" />
<path fill-rule="evenodd" d="M102.2,528.3l356.4,0l0,-0.8l-356.4,0l0,0.8Z" class="g3_19" />
<path fill-rule="evenodd" d="M458.6,528.3l0.8,0l0,-0.8l-0.8,0l0,0.8Z" class="g3_19" />
<path fill-rule="evenodd" d="M459.4,528.3l356.4,0l0,-0.8l-356.4,0l0,0.8Z" class="g3_19" />
<path fill-rule="evenodd" d="M815.8,528.3l0.8,0l0,-0.8l-0.8,0l0,0.8Z" class="g3_19" />
<path fill-rule="evenodd" d="M101.4,547.9l0.8,0l0,-19.6l-0.8,0l0,19.6Z" class="g3_19" />
<path fill-rule="evenodd" d="M458.6,547.9l0.8,0l0,-19.6l-0.8,0l0,19.6Z" class="g3_19" />
<path fill-rule="evenodd" d="M815.8,547.9l0.8,0l0,-19.6l-0.8,0l0,19.6Z" class="g3_19" />
<path fill-rule="evenodd" d="M101.4,548.6l0.8,0l0,-0.7l-0.8,0l0,0.7Z" class="g3_19" />
<path fill-rule="evenodd" d="M102.2,548.6l356.4,0l0,-0.7l-356.4,0l0,0.7Z" class="g3_19" />
<path fill-rule="evenodd" d="M458.6,548.6l0.8,0l0,-0.7l-0.8,0l0,0.7Z" class="g3_19" />
<path fill-rule="evenodd" d="M459.4,548.6l356.4,0l0,-0.7l-356.4,0l0,0.7Z" class="g3_19" />
<path fill-rule="evenodd" d="M815.8,548.6l0.8,0l0,-0.7l-0.8,0l0,0.7Z" class="g3_19" />
<path fill-rule="evenodd" d="M101.4,606.9l0.8,0l0,-58.3l-0.8,0l0,58.3Z" class="g3_19" />
<path fill-rule="evenodd" d="M458.6,606.9l0.8,0l0,-58.3l-0.8,0l0,58.3Z" class="g3_19" />
<path fill-rule="evenodd" d="M815.8,606.9l0.8,0l0,-58.3l-0.8,0l0,58.3Z" class="g3_19" />
<path fill-rule="evenodd" d="M102.2,666.2l356.4,0l0,-58.4l-356.4,0l0,58.4Z" class="g4_19" />
<path fill-rule="evenodd" d="M110,626.3l340.7,0l0,-18.5l-340.7,0l0,18.5Z" class="g4_19" />
<path fill-rule="evenodd" d="M459.4,666.2l356.4,0l0,-58.4l-356.4,0l0,58.4Z" class="g4_19" />
<path fill-rule="evenodd" d="M467.2,626.3l340.7,0l0,-18.5l-340.7,0l0,18.5Z" class="g4_19" />
<path fill-rule="evenodd" d="M467.2,645.1l340.7,0l0,-18.8l-340.7,0l0,18.8Z" class="g4_19" />
<path fill-rule="evenodd" d="M101.4,607.6l0.8,0l0,-0.7l-0.8,0l0,0.7Z" class="g3_19" />
<path fill-rule="evenodd" d="M102.2,607.6l356.4,0l0,-0.7l-356.4,0l0,0.7Z" class="g3_19" />
<path fill-rule="evenodd" d="M458.6,607.6l0.8,0l0,-0.7l-0.8,0l0,0.7Z" class="g3_19" />
<path fill-rule="evenodd" d="M459.4,607.6l356.4,0l0,-0.7l-356.4,0l0,0.7Z" class="g3_19" />
<path fill-rule="evenodd" d="M815.8,607.6l0.8,0l0,-0.7l-0.8,0l0,0.7Z" class="g3_19" />
<path fill-rule="evenodd" d="M101.4,666.2l0.8,0l0,-58.6l-0.8,0l0,58.6Z" class="g3_19" />
<path fill-rule="evenodd" d="M458.6,666.2l0.8,0l0,-58.6l-0.8,0l0,58.6Z" class="g3_19" />
<path fill-rule="evenodd" d="M815.8,666.2l0.8,0l0,-58.6l-0.8,0l0,58.6Z" class="g3_19" />
<path fill-rule="evenodd" d="M101.4,666.9l0.8,0l0,-0.7l-0.8,0l0,0.7Z" class="g3_19" />
<path fill-rule="evenodd" d="M102.2,666.9l356.4,0l0,-0.7l-356.4,0l0,0.7Z" class="g3_19" />
<path fill-rule="evenodd" d="M458.6,666.9l0.8,0l0,-0.7l-0.8,0l0,0.7Z" class="g3_19" />
<path fill-rule="evenodd" d="M459.4,666.9l356.4,0l0,-0.7l-356.4,0l0,0.7Z" class="g3_19" />
<path fill-rule="evenodd" d="M815.8,666.9l0.8,0l0,-0.7l-0.8,0l0,0.7Z" class="g3_19" />
<path fill-rule="evenodd" d="M101.4,723l0.8,0l0,-56.1l-0.8,0l0,56.1Z" class="g3_19" />
<path fill-rule="evenodd" d="M458.6,723l0.8,0l0,-56.1l-0.8,0l0,56.1Z" class="g3_19" />
<path fill-rule="evenodd" d="M815.8,723l0.8,0l0,-56.1l-0.8,0l0,56.1Z" class="g3_19" />
<path fill-rule="evenodd" d="M102.2,762.6l356.4,0l0,-38.9l-356.4,0l0,38.9Z" class="g4_19" />
<g clip-path="url(#c8_19)">
<path fill-rule="evenodd" d="M110,742.4l340.7,0l0,-18.7l-340.7,0l0,18.7Z" class="g4_19" />
</g>
<path fill-rule="evenodd" d="M459.4,762.6l356.4,0l0,-38.9l-356.4,0l0,38.9Z" class="g4_19" />
<g clip-path="url(#c9_19)">
<path fill-rule="evenodd" d="M467.2,742.4l340.7,0l0,-18.7l-340.7,0l0,18.7Z" class="g4_19" />
</g>
<path fill-rule="evenodd" d="M101.4,723.7l0.8,0l0,-0.7l-0.8,0l0,0.7Z" class="g3_19" />
<path fill-rule="evenodd" d="M102.2,723.7l356.4,0l0,-0.7l-356.4,0l0,0.7Z" class="g3_19" />
<path fill-rule="evenodd" d="M458.6,723.7l0.8,0l0,-0.7l-0.8,0l0,0.7Z" class="g3_19" />
<path fill-rule="evenodd" d="M459.4,723.7l356.4,0l0,-0.7l-356.4,0l0,0.7Z" class="g3_19" />
<path fill-rule="evenodd" d="M815.8,723.7l0.8,0l0,-0.7l-0.8,0l0,0.7Z" class="g3_19" />
<path fill-rule="evenodd" d="M101.4,762.6l0.8,0l0,-38.9l-0.8,0l0,38.9Z" class="g3_19" />
<path fill-rule="evenodd" d="M458.6,762.6l0.8,0l0,-38.9l-0.8,0l0,38.9Z" class="g3_19" />
<path fill-rule="evenodd" d="M815.8,762.6l0.8,0l0,-38.9l-0.8,0l0,38.9Z" class="g3_19" />
<path fill-rule="evenodd" d="M101.4,763.3l0.8,0l0,-0.7l-0.8,0l0,0.7Z" class="g3_19" />
<path fill-rule="evenodd" d="M102.2,763.3l356.4,0l0,-0.7l-356.4,0l0,0.7Z" class="g3_19" />
<path fill-rule="evenodd" d="M458.6,763.3l0.8,0l0,-0.7l-0.8,0l0,0.7Z" class="g3_19" />
<path fill-rule="evenodd" d="M459.4,763.3l356.4,0l0,-0.7l-356.4,0l0,0.7Z" class="g3_19" />
<path fill-rule="evenodd" d="M815.8,763.3l0.8,0l0,-0.7l-0.8,0l0,0.7Z" class="g3_19" />
<path fill-rule="evenodd" d="M101.4,841.4l0.8,0l0,-78.1l-0.8,0l0,78.1Z" class="g3_19" />
<path fill-rule="evenodd" d="M458.6,841.4l0.8,0l0,-78.1l-0.8,0l0,78.1Z" class="g3_19" />
<path fill-rule="evenodd" d="M815.8,841.4l0.8,0l0,-78.1l-0.8,0l0,78.1Z" class="g3_19" />
<path fill-rule="evenodd" d="M102.2,861.6l356.4,0l0,-19.4l-356.4,0l0,19.4Z" class="g4_19" />
<g clip-path="url(#c10_19)">
<path fill-rule="evenodd" d="M110,860.7l340.7,0l0,-18.5l-340.7,0l0,18.5Z" class="g4_19" />
</g>
<path fill-rule="evenodd" d="M459.4,861.6l356.4,0l0,-19.4l-356.4,0l0,19.4Z" class="g4_19" />
<g clip-path="url(#c11_19)">
<path fill-rule="evenodd" d="M467.2,860.7l340.7,0l0,-18.5l-340.7,0l0,18.5Z" class="g4_19" />
</g>
<path fill-rule="evenodd" d="M101.4,842.2l0.8,0l0,-0.8l-0.8,0l0,0.8Z" class="g3_19" />
<path fill-rule="evenodd" d="M102.2,842.2l356.4,0l0,-0.8l-356.4,0l0,0.8Z" class="g3_19" />
<path fill-rule="evenodd" d="M458.6,842.2l0.8,0l0,-0.8l-0.8,0l0,0.8Z" class="g3_19" />
<path fill-rule="evenodd" d="M459.4,842.2l356.4,0l0,-0.8l-356.4,0l0,0.8Z" class="g3_19" />
<path fill-rule="evenodd" d="M815.8,842.2l0.8,0l0,-0.8l-0.8,0l0,0.8Z" class="g3_19" />
<path fill-rule="evenodd" d="M101.4,861.6l0.8,0l0,-19.4l-0.8,0l0,19.4Z" class="g3_19" />
<path fill-rule="evenodd" d="M458.6,861.6l0.8,0l0,-19.4l-0.8,0l0,19.4Z" class="g3_19" />
<path fill-rule="evenodd" d="M815.8,861.6l0.8,0l0,-19.4l-0.8,0l0,19.4Z" class="g3_19" />
<path fill-rule="evenodd" d="M101.4,862.3l0.8,0l0,-0.7l-0.8,0l0,0.7Z" class="g3_19" />
<path fill-rule="evenodd" d="M102.2,862.3l356.4,0l0,-0.7l-356.4,0l0,0.7Z" class="g3_19" />
<path fill-rule="evenodd" d="M458.6,862.3l0.8,0l0,-0.7l-0.8,0l0,0.7Z" class="g3_19" />
<path fill-rule="evenodd" d="M459.4,862.3l356.4,0l0,-0.7l-356.4,0l0,0.7Z" class="g3_19" />
<path fill-rule="evenodd" d="M815.8,862.3l0.8,0l0,-0.7l-0.8,0l0,0.7Z" class="g3_19" />
<path fill-rule="evenodd" d="M101.4,901.4l0.8,0l0,-39.1l-0.8,0l0,39.1Z" class="g3_19" />
<path fill-rule="evenodd" d="M458.6,901.4l0.8,0l0,-39.1l-0.8,0l0,39.1Z" class="g3_19" />
<path fill-rule="evenodd" d="M815.8,901.4l0.8,0l0,-39.1l-0.8,0l0,39.1Z" class="g3_19" />
<path fill-rule="evenodd" d="M102.2,921.6l356.4,0l0,-19.4l-356.4,0l0,19.4Z" class="g4_19" />
<path fill-rule="evenodd" d="M110,920.7l340.7,0l0,-18.5l-340.7,0l0,18.5Z" class="g4_19" />
<path fill-rule="evenodd" d="M459.4,921.6l356.4,0l0,-19.4l-356.4,0l0,19.4Z" class="g4_19" />
<path fill-rule="evenodd" d="M467.2,920.7l340.7,0l0,-18.5l-340.7,0l0,18.5Z" class="g4_19" />
<path fill-rule="evenodd" d="M101.4,902.2l0.8,0l0,-0.8l-0.8,0l0,0.8Z" class="g3_19" />
<path fill-rule="evenodd" d="M102.2,902.2l356.4,0l0,-0.8l-356.4,0l0,0.8Z" class="g3_19" />
<path fill-rule="evenodd" d="M458.6,902.2l0.8,0l0,-0.8l-0.8,0l0,0.8Z" class="g3_19" />
<path fill-rule="evenodd" d="M459.4,902.2l356.4,0l0,-0.8l-356.4,0l0,0.8Z" class="g3_19" />
<path fill-rule="evenodd" d="M815.8,902.2l0.8,0l0,-0.8l-0.8,0l0,0.8Z" class="g3_19" />
<path fill-rule="evenodd" d="M101.4,921.6l0.8,0l0,-19.4l-0.8,0l0,19.4Z" class="g3_19" />
<path fill-rule="evenodd" d="M101.4,922.3l0.8,0l0,-0.7l-0.8,0l0,0.7Z" class="g3_19" />
<path fill-rule="evenodd" d="M101.4,922.3l0.8,0l0,-0.7l-0.8,0l0,0.7Z" class="g3_19" />
<path fill-rule="evenodd" d="M102.2,922.3l356.4,0l0,-0.7l-356.4,0l0,0.7Z" class="g3_19" />
<path fill-rule="evenodd" d="M458.6,921.6l0.8,0l0,-19.4l-0.8,0l0,19.4Z" class="g3_19" />
<path fill-rule="evenodd" d="M458.6,922.3l0.8,0l0,-0.7l-0.8,0l0,0.7Z" class="g3_19" />
<path fill-rule="evenodd" d="M459.4,922.3l356.4,0l0,-0.7l-356.4,0l0,0.7Z" class="g3_19" />
<path fill-rule="evenodd" d="M815.8,921.6l0.8,0l0,-19.4l-0.8,0l0,19.4Z" class="g3_19" />
<path fill-rule="evenodd" d="M815.8,922.3l0.8,0l0,-0.7l-0.8,0l0,0.7Z" class="g3_19" />
<path fill-rule="evenodd" d="M815.8,922.3l0.8,0l0,-0.7l-0.8,0l0,0.7Z" class="g3_19" />
</svg>