<?xml version="1.0" encoding="UTF-8" standalone="no"?>
<!DOCTYPE svg PUBLIC "-//W3C//DTD SVG 1.1//EN"
"http://www.w3.org/Graphics/SVG/1.1/DTD/svg11.dtd">
<svg viewBox="0 0 909 1286" version="1.1" xmlns="http://www.w3.org/2000/svg" xmlns:xlink="http://www.w3.org/1999/xlink">
<defs>
<style type="text/css"><![CDATA[
.g1_31{
fill: none;
stroke: #000066;
stroke-width: 4.5833335;
stroke-linecap: butt;
stroke-linejoin: round;
}
.g2_31{
fill: none;
stroke: #000000;
stroke-width: 1.1458334;
stroke-linecap: butt;
stroke-linejoin: round;
}
.g3_31{
fill: #FFFFFF;
}
.g4_31{
}
.g5_31{
fill: none;
stroke: #FF0000;
stroke-width: 3.0555556;
stroke-linecap: butt;
stroke-linejoin: round;
}
.g6_31{
fill: #376092;
}
]]></style>
</defs>
<path d="M78.1,99.1l794,0.1" class="g1_31" />
<path d="M96.6,1224.5l772.1,0.1" class="g2_31" />
<path fill-rule="evenodd" d="M112.3,97L801,97l0,0.4l-688.7,0l0,-0.4Z" class="g3_31" />
<path fill-rule="evenodd" d="M112.3,416.3l688.7,0l0,0.4l-688.7,0l0,-0.4Z" class="g3_31" />
<path fill-rule="evenodd" d="M112.3,97.3l0.5,0l0,319l-0.5,0l0,-319Z" class="g3_31" />
<path fill-rule="evenodd" d="M800.6,97.3l0.4,0l0,319l-0.4,0l0,-319Z" class="g3_31" />
<image preserveAspectRatio="none" x="113" y="97" width="688" height="319" xlink:href="img/1.png" />
<path fill-rule="evenodd" d="M112.6,416.4l-0.3,0.3L112.3,97l0.3,0.3l0.2,0.1l0,318.9l-0.2,0.1Z" class="g4_31" />
<path fill-rule="evenodd" d="M800.7,416.4l-0.1,-0.1l0,-318.9l0.1,-0.1L801,97l0,319.7l-0.3,-0.3Z" class="g4_31" />
<path fill-rule="evenodd" d="M800.7,97.3l-0.1,0.1l-687.8,0l-0.2,-0.1L112.3,97L801,97l-0.3,0.3Z" class="g4_31" />
<path fill-rule="evenodd" d="M800.7,416.4l0.3,0.3l-688.7,0l0.3,-0.3l0.2,-0.1l687.8,0l0.1,0.1Z" class="g4_31" />
<path fill-rule="evenodd" d="M112.3,500.1l693,0l0,0.5l-693,0l0,-0.5Z" class="g3_31" />
<path fill-rule="evenodd" d="M112.3,950.7l693,0l0,0.4l-693,0l0,-0.4Z" class="g3_31" />
<path fill-rule="evenodd" d="M112.3,500.4l0.5,0l0,450.4l-0.5,0l0,-450.4Z" class="g3_31" />
<path fill-rule="evenodd" d="M804.8,500.4l0.5,0l0,450.4l-0.5,0l0,-450.4Z" class="g3_31" />
<image preserveAspectRatio="none" x="113" y="500" width="692" height="451" xlink:href="img/2.png" />
<path fill-rule="evenodd" d="M112.6,950.8l-0.3,0.3l0,-451l0.3,0.3l0.2,0.2l0,450.1l-0.2,0.1Z" class="g4_31" />
<path fill-rule="evenodd" d="M805,950.8l-0.2,-0.1l0,-450.1l0.2,-0.2l0.3,-0.3l0,451L805,950.8Z" class="g4_31" />
<path fill-rule="evenodd" d="M805,500.4l-0.2,0.2l-692,0l-0.2,-0.2l-0.3,-0.3l693,0l-0.3,0.3Z" class="g4_31" />
<path fill-rule="evenodd" d="M805,950.8l0.3,0.3l-693,0l0.3,-0.3l0.2,-0.1l692,0l0.2,0.1Z" class="g4_31" />
<path fill-rule="evenodd" d="M112.3,968.4l689.5,0l0,0.5l-689.5,0l0,-0.5Z" class="g3_31" />
<path fill-rule="evenodd" d="M112.3,1160.1l689.5,0l0,0.5l-689.5,0l0,-0.5Z" class="g3_31" />
<path fill-rule="evenodd" d="M112.3,968.7l0.5,0l0,191.4l-0.5,0l0,-191.4Z" class="g3_31" />
<path fill-rule="evenodd" d="M801.3,968.7l0.5,0l0,191.4l-0.5,0l0,-191.4Z" class="g3_31" />
<image preserveAspectRatio="none" x="113" y="969" width="688" height="191" xlink:href="img/3.png" />
<path fill-rule="evenodd" d="M112.6,1160.3l-0.3,0.3l0,-192.2l0.3,0.3l0.2,0.2l0,191.2l-0.2,0.2Z" class="g4_31" />
<path fill-rule="evenodd" d="M801.5,1160.3l-0.2,-0.2l0,-191.2l0.2,-0.2l0.3,-0.3l0,192.2l-0.3,-0.3Z" class="g4_31" />
<path fill-rule="evenodd" d="M801.5,968.7l-0.2,0.2l-688.5,0l-0.2,-0.2l-0.3,-0.3l689.5,0l-0.3,0.3Z" class="g4_31" />
<path fill-rule="evenodd" d="M801.5,1160.3l0.3,0.3l-689.5,0l0.3,-0.3l0.2,-0.2l688.5,0l0.2,0.2Z" class="g4_31" />
<path d="M191.3,151.2l-28.6,0l0,-24l57.1,0l0,24l-28.5,0Z" class="g5_31" />
<path fill-rule="evenodd" d="M372.5,161l0,-1.4l0.1,-1.4l0.2,-1.4l0.3,-1.2l0.3,-1.4l0.3,-1.2l0.5,-1.4l0.6,-1.2l0.6,-1.2L376,148l0.8,-1.1l0.7,-1.1l0.9,-1l0.9,-1.1l1,-0.9l1,-0.9l1.1,-0.9l1.1,-1l1.2,-0.7l1.2,-0.6l1.2,-0.6l1.3,-0.7l1.3,-0.6l1.3,-0.4l1.3,-0.3l1.4,-0.3l1.4,-0.3l1.4,-0.2l1.5,-0.2l1.4,0l1.3,0l1.4,0.2l1.4,0.2l1.4,0.3l1.3,0.3l1.4,0.3l1.4,0.4l1.2,0.6l1.4,0.7l1.2,0.6l1.2,0.6l1.1,0.7l1.2,1l1.1,0.9l0.9,0.9l1.1,0.9l0.9,1.1l0.8,1l0.7,1.1l0.8,1.2l0.7,1.1l0.7,1.2l0.4,1.2l0.5,1.4l0.4,1.2l0.3,1.4l0.3,1.2l0.2,1.4l0.2,1.4l0,1.4l-0.2,0l0,1.3l-0.2,1.3l-0.1,1.3l-0.3,1.4l-0.3,1.2l-0.3,1.4l-0.5,1.2l-0.6,1.3l-0.6,1.2l-0.6,1.2l-0.8,1.1l-0.7,1.2l-1,1.1l-0.9,0.9l-0.9,1l-1.1,1l-1,0.9l-1.1,0.7l-1.2,0.8l-1.1,0.8l-1.4,0.6l-1.2,0.6L409,185l-1.4,0.4l-1.4,0.3l-1.3,0.3l-1.4,0.3l-1.4,0.2l-1.4,0.1l-1.3,0l-1.4,0l-1.5,-0.1l-1.4,-0.2L393.7,186l-1.4,-0.3L391,185.4L389.7,185l-1.3,-0.7l-1.3,-0.6l-1.2,-0.6l-1.2,-0.6l-1.2,-0.8l-1.1,-0.9l-1.1,-0.7l-1,-1l-1,-1l-0.9,-0.9l-0.7,-1.1l-0.9,-1.2l-0.7,-1.1l-0.7,-1.2l-0.6,-1.2l-0.5,-1.3l-0.6,-1.2l-0.3,-1.4l-0.3,-1.2l-0.3,-1.4l-0.2,-1.3l-0.1,-1.3l0,-1.3Z" class="g6_31" />
<path d="M768.9,393l-28.7,0l0,-23.9l57.3,0l0,23.9l-28.6,0Z" class="g5_31" />
<path fill-rule="evenodd" d="M679.6,386.8l0,-1.4l0.1,-1.4l0.2,-1.4l0.3,-1.2l0.3,-1.3l0.4,-1.3l0.5,-1.3l0.4,-1.3l0.7,-1.2l0.7,-1.2l0.8,-1.1l0.8,-1.1l0.7,-1l0.9,-1.1l1.1,-0.9l0.9,-0.9l1.1,-0.9l1.2,-1l1.1,-0.7l1.2,-0.6l1.2,-0.6l1.4,-0.7l1.2,-0.6l1.4,-0.4l1.4,-0.3l1.3,-0.3l1.4,-0.3l1.4,-0.2l1.4,-0.1l1.3,0l1.4,0l1.5,0.1l1.4,0.2l1.4,0.3l1.4,0.3l1.3,0.3l1.3,0.4l1.3,0.6l1.3,0.7l1.2,0.6l1.2,0.6l1.2,0.7l1.1,1l1.1,0.9l1,0.9l1,0.9l0.9,1.1l0.9,1l0.8,1.1l0.7,1.2l0.6,1.1l0.6,1.2l0.7,1.3l0.4,1.3l0.3,1.3l0.3,1.3l0.3,1.2l0.2,1.4l0.1,1.4l0,1.4l0,1.3l-0.1,1.3l-0.2,1.3l-0.3,1.4l-0.3,1.2l-0.4,1.4l-0.5,1.2l-0.5,1.3l-0.6,1.2l-0.7,1.2l-0.8,1.1l-0.8,1.2l-0.7,1.1l-0.9,0.9l-1.1,1.1l-0.9,0.9l-1.1,0.9l-1.2,0.8l-1.1,0.7l-1.2,0.8l-1.2,0.6l-1.3,0.6l-1.3,0.5l-1.3,0.4l-1.3,0.3l-1.4,0.3l-1.4,0.3l-1.4,0.2l-1.5,0.1l-1.4,0l-1.3,0l-1.4,-0.1l-1.4,-0.2l-1.4,-0.3l-1.3,-0.3l-1.4,-0.3l-1.4,-0.4l-1.2,-0.7l-1.4,-0.6L693,408.9l-1.1,-0.6l-1.2,-0.7l-1.1,-1l-1,-0.7L687.5,405l-0.9,-1.1L685.7,403l-0.9,-1.1L684,400.7l-0.8,-1.1l-0.6,-1.2L682,397.2l-0.6,-1.3l-0.5,-1.2l-0.4,-1.4l-0.3,-1.2l-0.3,-1.4l-0.2,-1.3l0,-1.3l-0.1,-1.3Z" class="g6_31" />
<path d="M203.8,505.3l90.5,0l0,22.9l-180.9,0l0,-22.9l90.4,0Z" class="g5_31" />
<path fill-rule="evenodd" d="M380.4,592l0,-1.4l0.2,-1.4l0.1,-1.4l0.3,-1.2l0.3,-1.4l0.3,-1.2l0.5,-1.4l0.6,-1.2l0.6,-1.2l0.6,-1.2l0.8,-1.1l0.8,-1.1l0.9,-1l0.9,-1.1l0.9,-0.9l1.1,-0.9l1,-1l1.1,-0.9l1.2,-0.7l1.3,-0.7l1.2,-0.6l1.2,-0.6l1.4,-0.6l1.2,-0.4l1.4,-0.3l1.4,-0.4l1.3,-0.3l1.4,-0.1l1.5,-0.2l1.4,0l1.4,0l1.4,0.2l1.3,0.1l1.4,0.3l1.4,0.4l1.4,0.3l1.3,0.4l1.3,0.6l1.3,0.6l1.2,0.6l1.3,0.7l1,0.7l1.3,0.9l1,1l1,0.9l1,0.9l0.9,1.1l0.8,1l0.8,1.1l0.7,1.2l0.8,1.1l0.6,1.2l0.5,1.2l0.4,1.4l0.5,1.2l0.3,1.4l0.3,1.2l0.1,1.4l0.2,1.4l0,1.4l-0.2,0l0,1.3l-0.1,1.3l-0.2,1.3l-0.3,1.4l-0.3,1.2l-0.3,1.4l-0.4,1.2l-0.6,1.2l-0.7,1.3l-0.6,1.2l-0.7,1.1l-0.8,1.2l-0.9,1l-0.9,1l-0.9,1l-1.1,1l-1.1,0.9l-1.1,0.7l-1.2,0.8l-1.1,0.8l-1.3,0.6l-1.2,0.6l-1.3,0.4l-1.3,0.5l-1.4,0.3l-1.4,0.3l-1.4,0.3l-1.3,0.2l-1.4,0.1l-1.4,0l-1.4,0l-1.5,-0.1L403,617.3L401.7,617l-1.4,-0.3l-1.4,-0.3l-1.2,-0.5l-1.4,-0.6l-1.2,-0.6l-1.2,-0.6l-1.3,-0.6l-1.2,-0.8l-1.1,-0.9l-1,-0.7l-1.1,-1l-0.9,-1l-0.9,-1l-0.8,-1l-0.9,-1.2l-0.6,-1.1l-0.8,-1.2l-0.6,-1.3l-0.5,-1.2l-0.6,-1.2l-0.3,-1.4L381,597.3l-0.3,-1.4l-0.1,-1.3l-0.2,-1.3l0,-1.3Z" class="g6_31" />
<path d="M715,526l-28.7,0l0,-24l57.3,0l0,24L715,526Z" class="g5_31" />
<path fill-rule="evenodd" d="M496.2,653.8l0,-1.3l0.2,-1.4l0.1,-1.4l0.3,-1.2l0.3,-1.4l0.3,-1.2l0.5,-1.4l0.6,-1.2l0.6,-1.2l0.6,-1.3l0.8,-1l0.8,-1.1l0.9,-1.1l0.9,-1l0.9,-1l1.1,-0.9l1.1,-0.9l1,-0.9l1.2,-0.8l1.3,-0.6l1.2,-0.6l1.2,-0.6l1.4,-0.6l1.2,-0.5l1.4,-0.3l1.4,-0.3l1.3,-0.3l1.4,-0.1l1.5,-0.2l1.4,0l1.4,0l1.4,0.2l1.3,0.1l1.4,0.3l1.4,0.3l1.4,0.3l1.3,0.5l1.3,0.6l1.3,0.6l1.3,0.6l1.2,0.6l1,0.8l1.3,0.9l1,0.9l1,0.9l1,1l0.9,1l0.8,1.1l0.8,1.1l0.7,1.2l0.8,1.1l0.6,1.2l0.5,1.2l0.4,1.4l0.5,1.2l0.3,1.4l0.3,1.2l0.1,1.4l0.2,1.4l0,1.3l-0.2,0l0,1.4l-0.1,1.2l-0.2,1.4l-0.3,1.4l-0.3,1.2l-0.3,1.4l-0.4,1.2l-0.6,1.2l-0.7,1.2l-0.6,1.3l-0.7,1l-0.8,1.3l-0.9,1l-0.9,0.9l-0.9,1.1l-1.1,0.9l-1.1,0.9l-1.1,0.8l-1.2,0.8l-1,0.7l-1.4,0.6l-1.2,0.7l-1.3,0.4l-1.3,0.5l-1.4,0.3l-1.4,0.3l-1.4,0.3l-1.3,0.1l-1.4,0.2l-1.4,0l-1.4,0l-1.5,-0.2l-1.4,-0.1l-1.3,-0.3l-1.4,-0.3l-1.4,-0.3l-1.2,-0.5l-1.4,-0.6l-1.2,-0.6L509.7,676l-1.3,-0.6l-1.2,-0.8l-1,-0.9l-1.1,-0.8L504,672l-0.9,-1.1L502.2,670l-0.8,-1l-0.9,-1.3l-0.6,-1l-0.8,-1.3l-0.6,-1.2L498.1,663l-0.7,-1.2l-0.3,-1.4l-0.3,-1.2l-0.3,-1.4l-0.1,-1.4l-0.2,-1.2l0,-1.4Z" class="g6_31" />
<path d="M251.5,595.9l121.9,0l0,22.8l-244,0l0,-22.8l122.1,0Z" class="g5_31" />
<path fill-rule="evenodd" d="M631.3,542l0,-1.4l0.1,-1.4l0.3,-1.3l0.2,-1.4l0.4,-1.4l0.4,-1.4l0.6,-1.2l0.4,-1.4l0.8,-1.2l0.6,-1.2l0.9,-1.2l0.8,-1.1l0.9,-1.2l1.1,-1.1l1,-1l1.1,-1l1.1,-0.9l1.2,-0.9l1.4,-0.8l1.2,-0.7l1.4,-0.8l1.3,-0.6l1.4,-0.6l1.5,-0.5l1.6,-0.4l1.3,-0.5l1.6,-0.3l1.7,-0.3l1.5,-0.2l1.5,0l1.5,-0.1l1.7,0l1.5,0.1l1.7,0.2l1.6,0.3l1.5,0.3l1.7,0.5l1.5,0.4l1.4,0.6l1.5,0.7l1.4,0.6l1.3,0.7l1.4,0.9l1.2,0.8l1.3,0.9l1.2,1.1l1.1,1.1l1,1l0.9,1.1l1,1.2l0.9,1.2l0.7,1.3l0.8,1.3l0.6,1.3l0.5,1.3l0.4,1.4l0.5,1.4l0.3,1.5l0.1,1.4l0.2,1.4l0,1.5l0,1.4l-0.2,1.5l-0.1,1.4l-0.3,1.3l-0.5,1.4l-0.4,1.4l-0.5,1.4l-0.6,1.3l-0.8,1.3l-0.7,1.3l-0.8,1.3l-0.9,1l-1.1,1.3l-1,1l-1.1,1.1l-1.2,0.9l-1.3,0.9l-1.2,0.9l-1.4,1l-1.3,0.6l-1.4,0.7l-1.5,0.7l-1.4,0.6l-1.5,0.4l-1.6,0.5l-1.6,0.3L667,569l-1.7,0.3l-1.5,0l-1.7,0.2l-1.5,0l-1.7,-0.2l-1.5,-0.1l-1.7,-0.3l-1.5,-0.3l-1.5,-0.5l-1.6,-0.4l-1.5,-0.6l-1.5,-0.7l-1.4,-0.6l-1.4,-0.7l-1.3,-1l-1.3,-0.7l-1.2,-0.9l-1.2,-1.1l-1.1,-1.1l-1,-1l-1,-1.1L636.3,557l-0.9,-1.3l-0.8,-1.2l-0.7,-1.4l-0.6,-1.2l-0.5,-1.3l-0.5,-1.4l-0.4,-1.4l-0.3,-1.5l-0.2,-1.4l-0.1,-1.4l0,-1.5Z" class="g6_31" />
<path d="M449.6,681.9l315.7,0l0,253.2l-631.3,0l0,-253.2l315.6,0Z" class="g5_31" />
<path d="M425,968.4l312.9,0l0,184.6l-625.6,0l0,-184.6l312.7,0Z" class="g5_31" />
</svg>