<?xml version="1.0" encoding="UTF-8" standalone="no"?>
<!DOCTYPE svg PUBLIC "-//W3C//DTD SVG 1.1//EN"
"http://www.w3.org/Graphics/SVG/1.1/DTD/svg11.dtd">
<svg viewBox="0 0 909 1286" version="1.1" xmlns="http://www.w3.org/2000/svg" xmlns:xlink="http://www.w3.org/1999/xlink">
<defs>
<style type="text/css"><![CDATA[
.g1_41{
fill: none;
stroke: #000066;
stroke-width: 4.5833335;
stroke-linecap: butt;
stroke-linejoin: round;
}
.g2_41{
fill: none;
stroke: #000000;
stroke-width: 1.1458334;
stroke-linecap: butt;
stroke-linejoin: round;
}
.g3_41{
fill: #FFFFFF;
}
.g4_41{
}
.g5_41{
fill: none;
stroke: #FF0000;
stroke-width: 3.0555556;
stroke-linecap: butt;
stroke-linejoin: round;
}
.g6_41{
fill: #376092;
}
]]></style>
</defs>
<path d="M78.1,99.1l794,0.1" class="g1_41" />
<path d="M96.6,1224.5l772.1,0.1" class="g2_41" />
<path fill-rule="evenodd" d="M112.3,97l689.5,0l0,0.4l-689.5,0l0,-0.4Z" class="g3_41" />
<path fill-rule="evenodd" d="M112.3,633.7l689.5,0l0,0.4l-689.5,0l0,-0.4Z" class="g3_41" />
<path fill-rule="evenodd" d="M112.3,97.3l0.5,0l0,536.4l-0.5,0l0,-536.4Z" class="g3_41" />
<path fill-rule="evenodd" d="M801.3,97.3l0.5,0l0,536.4l-0.5,0l0,-536.4Z" class="g3_41" />
<image preserveAspectRatio="none" x="113" y="97" width="688" height="537" xlink:href="img/1.png" />
<path fill-rule="evenodd" d="M112.6,633.8l-0.3,0.3L112.3,97l0.3,0.3l0.2,0.1l0,536.3l-0.2,0.1Z" class="g4_41" />
<path fill-rule="evenodd" d="M801.5,633.8l-0.2,-0.1l0,-536.3l0.2,-0.1L801.8,97l0,537.1l-0.3,-0.3Z" class="g4_41" />
<path fill-rule="evenodd" d="M801.5,97.3l-0.2,0.1l-688.5,0l-0.2,-0.1L112.3,97l689.5,0l-0.3,0.3Z" class="g4_41" />
<path fill-rule="evenodd" d="M801.5,633.8l0.3,0.3l-689.5,0l0.3,-0.3l0.2,-0.1l688.5,0l0.2,0.1Z" class="g4_41" />
<path fill-rule="evenodd" d="M112.3,794.2l689.8,0l0,0.3l-689.8,0l0,-0.3Z" class="g3_41" />
<path fill-rule="evenodd" d="M112.3,1120.3l689.8,0l0,0.4l-689.8,0l0,-0.4Z" class="g3_41" />
<path fill-rule="evenodd" d="M112.3,794.5l0.5,0l0,325.9l-0.5,0l0,-325.9Z" class="g3_41" />
<path fill-rule="evenodd" d="M801.6,794.5l0.5,0l0,325.9l-0.5,0l0,-325.9Z" class="g3_41" />
<image preserveAspectRatio="none" x="113" y="794" width="689" height="326" xlink:href="img/2.png" />
<path fill-rule="evenodd" d="M112.6,1120.4l-0.3,0.3l0,-326.5l0.3,0.3l0.2,0.2l0,325.6l-0.2,0.1Z" class="g4_41" />
<path fill-rule="evenodd" d="M801.8,1120.4l-0.2,-0.1l0,-325.6l0.2,-0.2l0.3,-0.3l0,326.5l-0.3,-0.3Z" class="g4_41" />
<path fill-rule="evenodd" d="M801.8,794.5l-0.2,0.2l-688.8,0l-0.2,-0.2l-0.3,-0.3l689.8,0l-0.3,0.3Z" class="g4_41" />
<path fill-rule="evenodd" d="M801.8,1120.4l0.3,0.3l-689.8,0l0.3,-0.3l0.2,-0.1l688.8,0l0.2,0.1Z" class="g4_41" />
<path d="M147.3,995.7l-29.2,0l0,-14.8l58.4,0l0,14.8l-29.2,0Z" class="g5_41" />
<path fill-rule="evenodd" d="M688.7,979.1l0,-1.2l0.2,-1.4l0.1,-1.2l0.3,-1.4l0.3,-1.2l0.3,-1.2l0.5,-1.3l0.5,-1.2l0.6,-1.2l0.6,-1.2l0.7,-1.1l0.8,-1.1l0.8,-1l0.9,-1.1l0.9,-0.9l0.9,-0.9l0.9,-1l1.1,-0.7l1.2,-0.8l1.1,-0.8l1.2,-0.6l1.2,-0.6l1.3,-0.6l1.2,-0.4l1.2,-0.5l1.4,-0.3l1.4,-0.3l1.3,-0.3l1.3,-0.2l1.3,-0.1l1.4,0l1.4,0l1.5,0.1l1.4,0.2l1.4,0.3l1.3,0.3l1.4,0.3l1.2,0.5l1.4,0.6l1.2,0.6l1.3,0.6l1.2,0.6l1.2,0.8l1.1,0.9l1,0.9l1.1,0.9l0.9,0.9l0.9,1.1l0.8,1.1l0.9,1l0.6,1.1l0.8,1.2l0.6,1.3l0.5,1.2l0.6,1.3l0.3,1.3l0.3,1.3l0.3,1.3l0.1,1.3l0.2,1.4l0,1.4l0,1.4l-0.2,1.2l-0.1,1.4l-0.3,1.3l-0.3,1.3l-0.5,1.3l-0.4,1.3l-0.5,1.2l-0.6,1.2l-0.8,1.2l-0.7,1.2l-0.8,1.1l-0.8,1.1l-0.9,1.1l-1,0.9l-1,0.9l-1,0.9l-1.3,0.8l-1,0.7l-1.2,0.8l-1.3,0.6l-1.2,0.6l-1.4,0.5l-1.2,0.4l-1.4,0.5l-1.3,0.3l-1.4,0.3l-1.4,0.2l-1.5,0l-1.4,0.1l-1.4,0l-1.3,-0.1l-1.4,-0.2l-1.4,-0.3l-1.4,-0.3l-1.3,-0.3l-1.4,-0.5l-1.2,-0.6l-1.4,-0.6l-1.2,-0.6l-1.1,-0.6l-1.2,-0.8l-1.1,-0.9l-1.1,-0.9l-1,-0.9l-1,-0.9l-0.9,-1.1l-0.9,-1.1l-0.7,-1.1l-0.8,-1l-0.6,-1.2l-0.6,-1.3l-0.6,-1.2L690.1,987l-0.5,-1.2l-0.3,-1.4L689,983.2l-0.1,-1.4l0,-1.3l-0.2,-1.4Z" class="g6_41" />
<path d="M633.7,1118.4l-131.8,0l0,-117.9l263.5,0l0,117.9l-131.7,0Z" class="g5_41" />
<path fill-rule="evenodd" d="M185.6,980.3l0,-1.4l0.2,-1.2l0.1,-1.4l0.3,-1.2l0.3,-1.4l0.3,-1.2l0.5,-1.2l0.5,-1.2l0.6,-1.2l0.6,-1.1l0.7,-1.2l0.8,-1.1l0.8,-1.1l0.9,-0.9l0.9,-1.1l0.9,-0.9l0.9,-0.7l1.1,-1l1.2,-0.7l1.1,-0.8l1.2,-0.6l1.2,-0.6l1.3,-0.6l1.2,-0.5l1.2,-0.3l1.4,-0.4l1.4,-0.3l1.3,-0.2l1.3,-0.2l1.3,-0.1l1.4,0l1.4,0l1.5,0.1l1.4,0.2l1.4,0.2l1.3,0.3l1.4,0.4l1.2,0.5l1.4,0.4l1.2,0.6l1.3,0.7l1.2,0.7l1.2,0.8l1.1,0.7l1,1l1.1,0.9l0.9,0.9l0.9,1.1l0.8,1l0.9,1.1l0.6,1.2l0.8,1.3l0.6,1.2l0.5,1.2l0.6,1.2l0.3,1.4l0.3,1.2l0.3,1.4l0.2,1.4l0.1,1.2l0,1.4l0,1.3l-0.1,1.4l-0.2,1.4l-0.3,1.2l-0.3,1.4l-0.5,1.2l-0.4,1.4l-0.5,1.2l-0.6,1.2l-0.8,1.2l-0.7,1.1l-0.8,1.1l-0.8,1.1l-0.9,1l-1,1.1l-1,0.9l-1,0.8l-1.3,0.9l-1,0.8l-1.2,0.6l-1.3,0.7l-1.2,0.5l-1.4,0.6l-1.2,0.5l-1.4,0.3l-1.3,0.3l-1.4,0.3l-1.4,0.1l-1.5,0.2l-1.4,0l-1.4,0l-1.3,-0.2l-1.4,-0.1l-1.4,-0.2l-1.4,-0.3l-1.3,-0.4l-1.4,-0.5l-1.2,-0.5l-1.4,-0.6l-1.2,-0.6l-1.1,-0.7l-1.2,-0.8l-1.1,-0.8l-1.1,-0.9l-1,-0.9l-0.9,-0.9l-1,-1.1l-0.9,-1.1l-0.7,-1l-0.8,-1.3l-0.6,-1.2l-0.6,-1.2l-0.6,-1.2L187,988.3l-0.5,-1.4l-0.3,-1.2l-0.3,-1.4l-0.1,-1.4l0,-1.2l-0.2,-1.4Z" class="g6_41" />
<path d="M342.5,902.9l-28.5,0l0,-20.7l57.1,0l0,20.7l-28.6,0Z" class="g5_41" />
<path fill-rule="evenodd" d="M383.9,859.9l0,-1.3l0.2,-1.3l0.1,-1.3l0.3,-1.4l0.3,-1.2l0.4,-1.4l0.4,-1.2l0.6,-1.3l0.6,-1.2l0.6,-1.2l0.8,-1.2l0.8,-1.1l0.9,-1.1l0.9,-0.9l0.9,-1.1l1.1,-0.9l1.1,-0.9l1,-0.8l1.3,-0.7l1.2,-0.8l1.2,-0.6l1.2,-0.6l1.4,-0.5l1.2,-0.4l1.4,-0.5l1.4,-0.3l1.3,-0.1l1.4,-0.2l1.5,-0.1l1.4,0l1.4,0l1.4,0.1l1.3,0.2l1.4,0.1l1.4,0.3l1.4,0.5l1.3,0.4l1.3,0.5L423,837l1.3,0.6l1.2,0.8l1.1,0.7l1.2,0.8l1,0.9l1,0.9l1,1.1l1,0.9l0.7,1.1l0.8,1.1l0.7,1.2l0.8,1.2l0.6,1.2l0.5,1.3l0.4,1.2l0.5,1.4l0.3,1.2l0.3,1.4l0.2,1.3l0.1,1.3l0,1.3l-0.1,0l0,1.4l-0.2,1.4l-0.1,1.4l-0.4,1.2l-0.3,1.3l-0.3,1.3l-0.4,1.3l-0.6,1.3l-0.6,1.2l-0.7,1.1l-0.7,1.2l-0.8,1.1l-0.9,1l-0.9,1.1l-0.9,0.9l-1.1,0.9l-1.1,0.9l-1,0.8l-1.3,0.8l-1,0.7l-1.4,0.6l-1.2,0.7l-1.3,0.4l-1.3,0.5l-1.4,0.4l-1.4,0.3l-1.4,0.3l-1.3,0.2l-1.4,0l-1.4,0.1l0,-0.1l-1.4,0l-1.5,-0.2l-1.4,-0.1l-1.3,-0.2l-1.4,-0.3l-1.4,-0.4l-1.2,-0.5l-1.4,-0.4l-1.2,-0.7l-1.2,-0.6l-1.2,-0.7l-1.3,-0.8l-1,-0.8L392.8,879l-1.1,-0.9l-0.9,-0.9l-0.9,-1.1l-0.8,-1L388.2,874l-0.6,-1.2l-0.8,-1.1l-0.6,-1.2l-0.4,-1.4l-0.6,-1.2l-0.4,-1.3l-0.3,-1.3l-0.3,-1.2l-0.1,-1.4l-0.2,-1.4l0,-1.4Z" class="g6_41" />
</svg>