<?xml version="1.0" encoding="UTF-8" standalone="no"?>
<!DOCTYPE svg PUBLIC "-//W3C//DTD SVG 1.1//EN"
"http://www.w3.org/Graphics/SVG/1.1/DTD/svg11.dtd">
<svg viewBox="0 0 909 1286" version="1.1" xmlns="http://www.w3.org/2000/svg" xmlns:xlink="http://www.w3.org/1999/xlink">
<defs>
<style type="text/css"><![CDATA[
.g1_17{
fill: none;
stroke: #000066;
stroke-width: 4.5833335;
stroke-linecap: butt;
stroke-linejoin: round;
}
.g2_17{
fill: none;
stroke: #000000;
stroke-width: 1.1458334;
stroke-linecap: butt;
stroke-linejoin: round;
}
.g3_17{
fill: none;
stroke: #FF0000;
stroke-width: 3.4375;
stroke-linecap: butt;
stroke-linejoin: round;
}
.g4_17{
fill: #376092;
}
]]></style>
</defs>
<path d="M78.1,99.1l794,0.1" class="g1_17" />
<path d="M96.6,1224.5l772.1,0.1" class="g2_17" />
<image preserveAspectRatio="none" x="112" y="97" width="690" height="172" xlink:href="img/1.png" />
<image preserveAspectRatio="none" x="112" y="354" width="690" height="128" xlink:href="img/2.png" />
<image preserveAspectRatio="none" x="112" y="544" width="690" height="124" xlink:href="img/3.png" />
<image preserveAspectRatio="none" x="112" y="691" width="690" height="507" xlink:href="img/4.png" />
<path d="M447.9,161.7l-335.6,0l0,-27.2l671.1,0l0,27.2l-335.5,0Z" class="g3_17" />
<path fill-rule="evenodd" d="M442.3,119.9l0,-1.3l0.1,-1.2l0.2,-1.2l0.1,-1.1l0.4,-1.2l0.3,-1.2l0.4,-1.1l0.5,-1.2l0.4,-1.1l0.6,-1l0.7,-1.1l0.7,-1.1l0.8,-0.9l0.7,-0.9l1,-0.9l0.7,-0.8l0.9,-0.8l1.1,-0.7l0.9,-0.8l1.1,-0.6L455,99.1l1,-0.5l1.3,-0.4l1,-0.5l1.3,-0.3l1.2,-0.3L462,96.8l1.2,-0.2l1.2,-0.1l1.3,0l1.2,0l1.2,0.1l1.2,0.2l1.3,0.3l1,0.2l1.2,0.4l1.3,0.3l1,0.5l1.1,0.6l1.1,0.6l1,0.6l1.1,0.6l0.9,0.8l1,0.9l0.9,0.8l0.7,0.9l0.9,0.9l0.8,0.9l0.6,1.1l0.6,1.1l0.6,1l0.7,1.1l0.4,1.1l0.3,1.2l0.5,1.2l0.1,1.1l0.3,1.2l0.2,1.2l0.1,1.2l0,1.3l0,1.2l-0.1,1.2l-0.2,1.2l-0.3,1.3l-0.1,1.2l-0.5,1.1l-0.3,1.2l-0.4,1l-0.7,1.3l-0.6,1l-0.6,1l-0.6,1l-0.8,0.9l-0.9,1l-0.7,0.9l-0.9,0.9l-1,0.8l-0.9,0.7l-1.1,0.6l-1,0.8l-1.1,0.4l-1.1,0.7l-1,0.4l-1.3,0.5l-1.2,0.3l-1,0.3l-1.3,0.1l-1.2,0.2l-1.2,0.1l-1.2,0l-1.3,0l-1.2,-0.1L462,142.9l-1.2,-0.3l-1.2,-0.1L458.3,142l-1,-0.3L456,141.3l-1,-0.7L453.9,140l-1.1,-0.6l-0.9,-0.6l-1.1,-0.7l-0.9,-0.8L449,136.4l-0.8,-0.9l-0.7,-1l-0.8,-0.9l-0.7,-1l-0.7,-1l-0.6,-1l-0.4,-1.3l-0.5,-1l-0.4,-1.2L443.1,126l-0.4,-1.2l-0.3,-1.3l-0.1,-1.2l-0.2,-1.2l0,-1.2l0.2,0Z" class="g4_17" />
<path d="M310,201.9l-102.5,0l0,-19.2l205,0l0,19.2l-102.5,0Z" class="g3_17" />
<path fill-rule="evenodd" d="M167.4,229l0,-1.3l0.2,-1.2l0.2,-1.2l0.1,-1.2l0.3,-1.3l0.3,-1.2l0.5,-1l0.4,-1.1l0.5,-1.2l0.6,-1.1l0.6,-1.1l0.8,-0.9l0.7,-1.1l0.8,-0.9l0.9,-0.7l0.8,-1l0.9,-0.7l1.1,-0.8l0.9,-0.8l1.1,-0.6l1,-0.6l1.2,-0.4l1.1,-0.5l1.1,-0.5l1.2,-0.3l1.2,-0.3l1.3,-0.1l1.2,-0.2l1.2,-0.1l1.2,0l1.2,0l1.3,0.1l1.2,0.2l1.2,0.1l1.1,0.3l1.2,0.3l1.2,0.5l1.1,0.5l1.1,0.4l1,0.6l1.1,0.6l1.1,0.8l0.9,0.8l0.9,0.7l0.9,1l0.8,0.7l0.9,0.9l0.8,1.1l0.6,0.9l0.6,1.1l0.6,1.1l0.6,1.2l0.5,1.1l0.3,1l0.4,1.2l0.2,1.3l0.3,1.2l0.1,1.2l0.2,1.2l0,1.3l-0.2,0l0,1.2l-0.1,1.2l-0.2,1.2l-0.1,1.1l-0.3,1.2l-0.3,1.2l-0.5,1.1l-0.4,1.2l-0.5,1.1l-0.6,1.1l-0.6,1l-0.8,1.1l-0.8,0.9l-0.7,0.9l-0.8,1l-0.9,0.7l-0.9,0.8l-1.1,0.7l-0.9,0.8l-1.1,0.6l-1,0.6l-1.1,0.5l-1.2,0.4l-1.1,0.5l-1.2,0.3l-1.2,0.3l-1.1,0.3l-1.2,0.2l-1.3,0.1l-1.2,0l0,-0.1l-1.2,0L188.4,252l-1.2,-0.1l-1.3,-0.2l-1.2,-0.3l-1.1,-0.3l-1.2,-0.5l-1.1,-0.4l-1.2,-0.5l-1,-0.6l-1,-0.6l-1,-0.8L176.2,247l-1,-0.8l-0.9,-0.7l-0.9,-1l-0.8,-0.9l-0.7,-1l-0.6,-1l-0.8,-1L170,239.5l-0.6,-1.1L169,237.2l-0.5,-1.1l-0.3,-1.2l-0.3,-1.2l-0.1,-1.1l-0.2,-1.2l-0.2,-1.2l0,-1.2Z" class="g4_17" />
<path d="M536.4,211.4l-11.9,0l0,-26l24,0l0,26l-12.1,0Z" class="g3_17" />
<path fill-rule="evenodd" d="M557.5,202.7l0,-1.2l0.1,-1.3l0.2,-1.2l0.3,-1.2l0.1,-1.1l0.5,-1.2l0.3,-1.2l0.5,-1.1l0.6,-1.1l0.6,-1l0.6,-1.1l0.6,-1.1l0.8,-0.9l0.9,-0.9l0.8,-0.9l0.9,-0.8l0.9,-0.9l0.9,-0.8l1.1,-0.6l1.1,-0.6l1,-0.6l1.1,-0.6l1.1,-0.5l1.2,-0.3l1.2,-0.4l1.1,-0.2l1.2,-0.3l1.2,-0.1l1.2,-0.2l1.3,0l1.2,0l1.2,0.2l1.2,0.1l1.2,0.3l1.3,0.2l1.2,0.4l1.1,0.3l1,0.5l1.3,0.6l1,0.6l1.1,0.6l0.9,0.6l1.1,0.8l0.9,0.9l0.8,0.8l0.9,0.9L599,188l0.8,0.9l0.8,1.1l0.6,1.1l0.6,1l0.5,1.1l0.4,1.1l0.5,1.2l0.3,1.2l0.3,1.1l0.1,1.2l0.2,1.2l0.1,1.3l0,1.2l0,1.2l-0.1,1.2l-0.2,1.2l-0.3,1.3l-0.1,1.2l-0.5,1.1l-0.3,1.2l-0.4,1l-0.7,1.3l-0.6,1l-0.6,1l-0.6,1l-0.8,0.9l-0.7,1l-0.9,0.9l-1,0.9l-0.9,0.8l-0.9,0.7l-1.1,0.6l-0.9,0.8l-1,0.5l-1.3,0.6l-1,0.4L588,225l-1,0.3l-1.3,0.3l-1.2,0.1l-1.2,0.2l-1.2,0.2l-1.2,0l-1.3,0l-1.2,-0.2l-1.2,-0.2l-1.1,-0.3l-1.2,-0.1l-1.2,-0.5l-1.1,-0.3l-1.2,-0.4l-1.1,-0.6l-1,-0.7l-1.1,-0.6l-1.1,-0.6l-0.9,-0.7l-0.9,-0.8l-0.9,-0.9l-0.8,-0.9l-0.8,-1l-0.7,-0.9l-0.8,-1l-0.6,-1l-0.6,-1l-0.5,-1.3l-0.4,-1l-0.5,-1.2l-0.3,-1.1l-0.3,-1.2l-0.3,-1.3l-0.2,-1.2l-0.1,-1.2l0,-1.2Z" class="g4_17" />
<path d="M488.4,454.5l-311.2,0l0,-16.1l622.3,0l0,16.1l-311.1,0Z" class="g3_17" />
<path fill-rule="evenodd" d="M717.1,393.8l0,-1.2l0,-1.2l0.2,-1.1l0.3,-1.2l0.3,-1.3l0.3,-1l0.3,-1.2l0.5,-1.1l0.4,-1.1l0.6,-1.1l0.7,-0.9l0.6,-1l0.7,-1l0.6,-0.9l1,-0.9l0.7,-0.8l0.9,-0.9l1,-0.7l0.9,-0.6l1,-0.7l1,-0.6l1,-0.6l1.1,-0.4l1.2,-0.5l1.1,-0.5l1.1,-0.3l1.2,-0.3l1.2,-0.1l1.1,-0.2l1.2,-0.1l1.2,0l1.2,0l1.3,0.1l1.2,0.2l1,0.3l1.3,0.1l1.2,0.5l1.1,0.3l1.2,0.5l1.1,0.6l1,0.6l1.1,0.6l1.1,0.6l0.9,0.8l0.9,0.9l0.9,0.7l0.8,1l0.7,0.9l0.8,0.9l0.8,1.1l0.6,1l0.6,1.1l0.5,1.1l0.4,1l0.5,1.3l0.3,1.2l0.3,1.1l0.3,1.2l0.1,1.2l0.2,1.2l0,1.2l-0.2,0l0,1.3l-0.1,1.2l-0.2,1.2l-0.1,1.2l-0.3,1.3l-0.3,1.2l-0.5,1.1l-0.4,1.2l-0.5,1l-0.6,1.1l-0.6,1.1l-0.8,0.9l-0.8,1.1l-0.7,0.9l-0.8,0.9l-0.9,0.8l-0.9,0.7l-1.1,0.8l-0.9,0.8l-1.1,0.6l-1,0.6L750,415l-1.2,0.5l-1.1,0.5l-1.2,0.3l-1.3,0.3l-1,0.3L743,417l-1.3,0.2l-1.2,0l-1.2,0L738.1,417l-1.3,-0.1l-1.2,-0.3l-1.2,-0.2L733.3,416l-1.2,-0.4L731,415.2l-1.2,-0.6l-1,-0.6l-1,-0.6l-1,-0.7l-1,-0.7l-0.9,-0.9L724,410.3l-0.9,-0.9l-0.8,-0.9l-0.7,-0.9L721,406.5l-0.8,-1.1l-0.5,-1.1l-0.6,-1l-0.4,-1.1L718.2,401l-0.3,-1.2l-0.3,-1.1l-0.2,-1.2l-0.1,-1.3L717.1,395l0,-1.2Z" class="g4_17" />
<path fill-rule="evenodd" d="M675.3,577l0,-1.1l0.1,-1.2l0.2,-1.2l0.1,-1.3l0.3,-1l0.3,-1.2l0.5,-1.1l0.5,-1.1l0.4,-1.1l0.5,-1l0.6,-1.1l0.6,-0.9l0.8,-0.9l0.7,-0.9l0.8,-1l0.9,-0.9l0.8,-0.7l0.9,-0.8l1.1,-0.6l0.9,-0.8l1,-0.6l1.1,-0.4l1.1,-0.5l1.1,-0.5l1,-0.4l1.2,-0.3l1.1,-0.3l1.2,-0.2l1.3,-0.1l1,-0.2l1.3,0l1.2,0l1.2,0.2l1.2,0.1l1.2,0.3l1.3,0.2l1,0.4l1.3,0.3l1,0.5l1.2,0.6l1.1,0.6l0.9,0.6l1.1,0.6l0.9,0.8l0.9,0.8l1,0.9l0.9,0.9l0.7,0.9l0.8,0.9l0.6,1.1l0.8,0.9l0.4,1.1l0.6,1.2l0.5,1.1l0.5,1.2l0.3,1.1l0.3,1.2l0.1,1.2l0.2,1.2l0.1,1.3l0,1.2l0,1.2l-0.1,1.2l-0.2,1.2l-0.3,1.1l-0.1,1.2l-0.5,1.3l-0.3,1l-0.5,1.3l-0.6,1l-0.6,1.1l-0.6,1.1l-0.6,1l-0.8,0.9l-0.7,1l-0.9,0.9l-1,0.7l-0.9,0.8l-0.9,0.8l-1.1,0.7l-0.9,0.6l-1.1,0.7l-1.2,0.4l-1,0.5l-1.3,0.4l-1,0.3l-1.3,0.3l-1.2,0.4l-1.2,0.1l-1.2,0.2l-1.2,0l-1.3,0l-1.2,-0.2L695,600.1l-1.1,-0.4l-1.2,-0.1l-1.2,-0.5l-1.1,-0.3l-1.2,-0.4l-1.1,-0.6L687,597.1l-1,-0.6l-1.1,-0.6L684,595.2l-0.9,-0.8l-0.9,-0.9l-0.8,-0.9l-0.8,-1l-0.7,-0.9l-0.8,-1l-0.6,-1l-0.6,-1l-0.5,-1.2L677,585.4l-0.5,-1.2l-0.3,-1.1l-0.3,-1.2l-0.3,-1.3l-0.2,-1.2l-0.1,-1.2l0,-1.2Z" class="g4_17" />
<path d="M460,651.1l-343.1,0l0,-27.5l686.3,0l0,27.5l-343.2,0Z" class="g3_17" />
<path d="M273.9,947.9l-82.5,0l0,-26.3l165,0l0,26.3l-82.5,0Z" class="g3_17" />
<path fill-rule="evenodd" d="M349.6,894l0,-1.2l0.1,-1.4l0.2,-1.4l0.3,-1.2l0.3,-1.2l0.4,-1.4l0.5,-1.2l0.4,-1.2l0.7,-1.3l0.7,-1l0.8,-1.1l0.7,-1.2l1,-0.9l0.9,-1.1l0.9,-0.9l1.1,-0.9l1,-1l1.3,-0.7l1,-0.8l1.3,-0.6l1.3,-0.8l1.2,-0.4l1.4,-0.6l1.4,-0.5l1.4,-0.3l1.4,-0.3l1.3,-0.3l1.4,-0.2l1.5,-0.1l1.4,0l1.5,0l1.4,0.1l1.4,0.2l1.5,0.3l1.4,0.3l1.4,0.3l1.3,0.5l1.3,0.6l1.3,0.4l1.3,0.6l1.2,0.8l1.2,0.8l1.1,0.7l1,1l1.1,0.9l1.1,0.9l0.9,0.9l0.8,1.1l0.9,1l0.7,1.3l0.6,1l0.7,1.3l0.6,1.2l0.4,1.2l0.5,1.4l0.3,1.2l0.3,1.2l0.2,1.4l0.1,1.4l0,1.2l0,1.4l-0.1,1.2l-0.2,1.4l-0.3,1.2l-0.3,1.4l-0.5,1.2l-0.4,1.2l-0.6,1.2l-0.7,1.3l-0.6,1.2l-0.7,1l-0.9,1.1l-0.8,1.1l-0.9,0.9l-1.1,1.1l-1.1,0.9l-1,0.8l-1.1,0.9l-1.2,0.6l-1.2,0.7l-1.3,0.7l-1.3,0.6l-1.3,0.4l-1.3,0.5l-1.4,0.4l-1.4,0.3l-1.5,0.2l-1.4,0.2l-1.4,0.1l-1.5,0l-1.4,0L374,919.1l-1.4,-0.2l-1.3,-0.3l-1.4,-0.3L368.5,918l-1.4,-0.5l-1.4,-0.4l-1.2,-0.6l-1.3,-0.7l-1.3,-0.7l-1,-0.8l-1.3,-0.7l-1,-0.8l-1.1,-0.9l-0.9,-1.1l-0.9,-0.9l-1,-1.1l-0.9,-1.1l-0.6,-1l-0.7,-1.2l-0.7,-1.3L351.2,903l-0.4,-1.2l-0.3,-1.2L350,899.2L349.9,898l-0.3,-1.4l0,-1.2L349.4,894l0.2,0Z" class="g4_17" />
</svg>