<?xml version="1.0" encoding="UTF-8" standalone="no"?>
<!DOCTYPE svg PUBLIC "-//W3C//DTD SVG 1.1//EN"
"http://www.w3.org/Graphics/SVG/1.1/DTD/svg11.dtd">
<svg viewBox="0 0 909 1286" version="1.1" xmlns="http://www.w3.org/2000/svg" xmlns:xlink="http://www.w3.org/1999/xlink">
<defs>
<style type="text/css"><![CDATA[
.g1_19{
fill: none;
stroke: #000066;
stroke-width: 4.5833335;
stroke-linecap: butt;
stroke-linejoin: round;
}
.g2_19{
fill: none;
stroke: #000000;
stroke-width: 1.1458334;
stroke-linecap: butt;
stroke-linejoin: round;
}
.g3_19{
fill: #FFFFFF;
}
.g4_19{
}
.g5_19{
fill: none;
stroke: #FF0000;
stroke-width: 3.0555556;
stroke-linecap: butt;
stroke-linejoin: round;
}
.g6_19{
fill: #376092;
}
]]></style>
</defs>
<path d="M78.1,99.1l794,0.1" class="g1_19" />
<path d="M96.6,1224.5l772.1,0.1" class="g2_19" />
<path fill-rule="evenodd" d="M112.3,162.5l689.5,0l0,0.5l-689.5,0l0,-0.5Z" class="g3_19" />
<path fill-rule="evenodd" d="M112.3,559.7l689.5,0l0,0.5l-689.5,0l0,-0.5Z" class="g3_19" />
<path fill-rule="evenodd" d="M112.3,162.8l0.5,0l0,397.1l-0.5,0l0,-397.1Z" class="g3_19" />
<path fill-rule="evenodd" d="M801.3,162.8l0.5,0l0,397.1l-0.5,0l0,-397.1Z" class="g3_19" />
<image preserveAspectRatio="none" x="113" y="163" width="688" height="397" xlink:href="img/1.png" />
<path fill-rule="evenodd" d="M112.6,559.9l-0.3,0.3l0,-397.7l0.3,0.3l0.2,0.2l0,396.7l-0.2,0.2Z" class="g4_19" />
<path fill-rule="evenodd" d="M801.5,559.9l-0.2,-0.2l0,-396.7l0.2,-0.2l0.3,-0.3l0,397.7l-0.3,-0.3Z" class="g4_19" />
<path fill-rule="evenodd" d="M801.5,162.8l-0.2,0.2l-688.5,0l-0.2,-0.2l-0.3,-0.3l689.5,0l-0.3,0.3Z" class="g4_19" />
<path fill-rule="evenodd" d="M801.5,559.9l0.3,0.3l-689.5,0l0.3,-0.3l0.2,-0.2l688.5,0l0.2,0.2Z" class="g4_19" />
<path d="M151.3,250.8l-37.9,0l0,-29.8l75.6,0l0,29.8l-37.7,0Z" class="g5_19" />
<path fill-rule="evenodd" d="M678.5,384.5l0,-1.4l0.1,-1.4l0.2,-1.3l0.3,-1.3l0.3,-1.3l0.3,-1.3l0.5,-1.3l0.6,-1.3l0.6,-1.2l0.6,-1.2l0.8,-1.1l0.7,-1l0.9,-1.1l1,-1.1l0.9,-0.9l1,-0.9l1.1,-0.9l1.1,-0.9l1.2,-0.8l1.2,-0.6l1.3,-0.6l1.2,-0.6l1.3,-0.7l1.3,-0.4l1.3,-0.3l1.4,-0.3l1.4,-0.3l1.4,-0.2l1.5,-0.1l1.4,0l1.4,0l1.3,0.1l1.4,0.2l1.4,0.3l1.4,0.3l1.3,0.3l1.4,0.4l1.2,0.7l1.4,0.6l1.2,0.6l1.2,0.6l1.1,0.8l1.2,0.9l1.1,0.9l0.9,0.9l1.1,0.9l0.9,1.1l0.8,1.1l0.7,1l0.8,1.2l0.8,1.1l0.6,1.2l0.4,1.3l0.5,1.3l0.4,1.3l0.4,1.3l0.3,1.3l0.1,1.3l0.2,1.4l0,1.4l-0.2,0l0,1.4l-0.1,1.2l-0.2,1.4l-0.3,1.3l-0.3,1.3l-0.3,1.3l-0.5,1.2l-0.6,1.3l-0.6,1.2l-0.6,1.2l-0.8,1.1l-0.7,1.2l-0.9,1.1l-1,0.9l-0.9,1.1l-1.1,0.9l-1,0.9l-1.1,0.8l-1.2,0.7l-1.1,0.8l-1.4,0.6l-1.2,0.6l-1.2,0.5l-1.4,0.4l-1.3,0.3l-1.4,0.3l-1.4,0.3l-1.4,0.2l-1.3,0.1l-1.4,0l-1.4,0L702.5,410l-1.4,-0.2l-1.4,-0.3l-1.4,-0.3L697,408.9l-1.3,-0.4l-1.3,-0.6l-1.2,-0.7l-1.3,-0.6L690.7,406l-1.2,-0.7l-1.1,-1l-1.1,-0.7l-1,-0.9l-0.9,-1.1l-1,-0.9l-0.7,-1.1l-0.9,-1.2l-0.6,-1.1l-0.8,-1.2l-0.6,-1.2l-0.5,-1.3l-0.6,-1.2l-0.3,-1.3l-0.3,-1.3l-0.3,-1.3l-0.2,-1.4l-0.1,-1.2l0,-1.4Z" class="g6_19" />
<path d="M537.5,444.5l-165,0l0,-26.3l330,0l0,26.3l-165,0Z" class="g5_19" />
<path d="M521.4,386l-147.9,0l0,-27.3l295.7,0l0,27.3l-147.8,0Z" class="g5_19" />
<path fill-rule="evenodd" d="M376.9,188.5l0,-1.4l0.2,-1.4l0.1,-1.4l0.3,-1.2l0.3,-1.4l0.5,-1.2l0.4,-1.4l0.5,-1.2l0.6,-1.2l0.8,-1.1l0.7,-1.2l0.8,-1.1l0.8,-1l0.9,-1.1l1,-0.9l1,-0.9l1,-0.9l1.3,-0.8l1,-0.8l1.2,-0.7l1.3,-0.6l1.3,-0.7l1.3,-0.4l1.3,-0.5l1.4,-0.4l1.4,-0.3l1.4,-0.3l1.3,-0.2l1.4,0l1.4,-0.2l1.4,0l1.5,0.2l1.4,0.2l1.3,0.3l1.4,0.3l1.4,0.3l1.2,0.4l1.4,0.6l1.2,0.7l1.2,0.6l1.3,0.6l1.2,0.7l1,1l1.1,0.9l1.1,0.9l0.9,0.9l0.9,1.1l0.9,1l0.8,1.1l0.8,1.2l0.6,1.1l0.6,1.2l0.6,1.2l0.5,1.4l0.3,1.2l0.3,1.4l0.3,1.2l0.1,1.4l0.2,1.4l0,1.4l0,1.3l-0.2,1.3l-0.1,1.3l-0.3,1.4l-0.3,1.2l-0.3,1.4l-0.5,1.2l-0.6,1.3l-0.6,1.2l-0.6,1.2l-0.8,1.1l-0.8,1.2l-0.9,1.1l-0.9,0.9l-0.9,1l-1.1,1l-1.1,0.9l-1,0.7l-1.2,0.8l-1.3,0.8l-1.2,0.6l-1.2,0.6l-1.4,0.5l-1.2,0.4l-1.4,0.3l-1.4,0.3l-1.3,0.3l-1.4,0.2l-1.5,0.1l-1.4,0l-1.4,0L401,214l-1.3,-0.2l-1.4,-0.3l-1.4,-0.3l-1.4,-0.3l-1.3,-0.4l-1.3,-0.7l-1.3,-0.6l-1.3,-0.6L389.1,210l-1,-0.8l-1.3,-0.9l-1,-0.7l-1,-1l-1,-1l-0.9,-0.9l-0.8,-1.1l-0.9,-1.2l-0.6,-1.1l-0.8,-1.2l-0.6,-1.2l-0.5,-1.3l-0.4,-1.2L377.8,195l-0.3,-1.2l-0.3,-1.4l-0.1,-1.3l-0.2,-1.3l0,-1.3Z" class="g6_19" />
<path d="M256.1,254.3l-53.2,0l0,-28.6l106.5,0l0,28.6l-53.3,0Z" class="g5_19" />
</svg>