<?xml version="1.0" encoding="UTF-8" standalone="no"?>
<!DOCTYPE svg PUBLIC "-//W3C//DTD SVG 1.1//EN"
"http://www.w3.org/Graphics/SVG/1.1/DTD/svg11.dtd">
<svg viewBox="0 0 909 1286" version="1.1" xmlns="http://www.w3.org/2000/svg" xmlns:xlink="http://www.w3.org/1999/xlink">
<defs>
<style type="text/css"><![CDATA[
.g1_11{
fill: none;
stroke: #000066;
stroke-width: 4.5833335;
stroke-linecap: butt;
stroke-linejoin: round;
}
.g2_11{
fill: none;
stroke: #000000;
stroke-width: 1.1458334;
stroke-linecap: butt;
stroke-linejoin: round;
}
.g3_11{
fill: #FFFFFF;
}
.g4_11{
}
.g5_11{
fill: none;
stroke: #FF0000;
stroke-width: 3.0555556;
stroke-linecap: butt;
stroke-linejoin: round;
}
.g6_11{
fill: #376092;
}
]]></style>
</defs>
<path d="M78.1,99.1l794,0.1" class="g1_11" />
<path d="M96.6,1224.5l772.1,0.1" class="g2_11" />
<path fill-rule="evenodd" d="M112.3,97l689.5,0l0,0.4l-689.5,0l0,-0.4Z" class="g3_11" />
<path fill-rule="evenodd" d="M112.3,374.4l689.5,0l0,0.5l-689.5,0l0,-0.5Z" class="g3_11" />
<path fill-rule="evenodd" d="M112.3,97.3l0.5,0l0,277.1l-0.5,0l0,-277.1Z" class="g3_11" />
<path fill-rule="evenodd" d="M801.3,97.3l0.5,0l0,277.1l-0.5,0l0,-277.1Z" class="g3_11" />
<image preserveAspectRatio="none" x="113" y="97" width="688" height="277" xlink:href="img/1.png" />
<path fill-rule="evenodd" d="M112.6,374.6l-0.3,0.3L112.3,97l0.3,0.3l0.2,0.1l0,277l-0.2,0.2Z" class="g4_11" />
<path fill-rule="evenodd" d="M801.5,374.6l-0.2,-0.2l0,-277l0.2,-0.1L801.8,97l0,277.9l-0.3,-0.3Z" class="g4_11" />
<path fill-rule="evenodd" d="M801.5,97.3l-0.2,0.1l-688.5,0l-0.2,-0.1L112.3,97l689.5,0l-0.3,0.3Z" class="g4_11" />
<path fill-rule="evenodd" d="M801.5,374.6l0.3,0.3l-689.5,0l0.3,-0.3l0.2,-0.2l688.5,0l0.2,0.2Z" class="g4_11" />
<path fill-rule="evenodd" d="M112.3,474.9l563.7,0l0,0.5l-563.7,0l0,-0.5Z" class="g3_11" />
<path fill-rule="evenodd" d="M112.3,869.9l563.7,0l0,0.4l-563.7,0l0,-0.4Z" class="g3_11" />
<path fill-rule="evenodd" d="M112.3,475.2l0.5,0l0,394.7l-0.5,0l0,-394.7Z" class="g3_11" />
<path fill-rule="evenodd" d="M675.6,475.2l0.4,0l0,394.7l-0.4,0l0,-394.7Z" class="g3_11" />
<image preserveAspectRatio="none" x="113" y="475" width="563" height="395" xlink:href="img/2.png" />
<path fill-rule="evenodd" d="M112.6,870l-0.3,0.3l0,-395.4l0.3,0.3l0.2,0.2l0,394.5l-0.2,0.1Z" class="g4_11" />
<path fill-rule="evenodd" d="M675.7,870l-0.1,-0.1l0,-394.5l0.1,-0.2l0.3,-0.3l0,395.4L675.7,870Z" class="g4_11" />
<path fill-rule="evenodd" d="M675.7,475.2l-0.1,0.2l-562.8,0l-0.2,-0.2l-0.3,-0.3l563.7,0l-0.3,0.3Z" class="g4_11" />
<path fill-rule="evenodd" d="M675.7,870l0.3,0.3l-563.7,0l0.3,-0.3l0.2,-0.1l562.8,0l0.1,0.1Z" class="g4_11" />
<path d="M701.3,354.1l-52.8,0l0,-145.5l105.5,0l0,145.5l-52.7,0Z" class="g5_11" />
<path fill-rule="evenodd" d="M734.6,190.8l0,-1.4l0.1,-1.2l0.2,-1.4l0.3,-1.2l0.3,-1.3l0.3,-1.3l0.4,-1.3l0.5,-1.2l0.6,-1l0.6,-1.3l0.8,-1l0.7,-1.1l0.8,-1.1l0.9,-1l0.9,-1l1,-0.9l0.9,-0.9l1,-0.8l1.3,-0.9l1,-0.6l1.3,-0.8l1.2,-0.6l1.2,-0.4l1.2,-0.5l1.2,-0.4l1.4,-0.3l1.4,-0.3l1.4,-0.4l1.2,-0.1l1.4,-0.2l1.3,0l1.4,0l1.5,0.2l1.4,0.1l1.4,0.4l1.4,0.3l1.3,0.3l1.3,0.4l1.3,0.6l1.3,0.6l1.2,0.7l1.2,0.6l1.2,0.7l1.1,0.9l1.1,0.8l1,0.9l1,1.1l0.9,0.9l0.7,1.1l1,1.2l0.6,1.1l0.7,1.2l0.6,1.2l0.5,1.2l0.6,1.3l0.3,1.3l0.3,1.3l0.3,1.3l0.2,1.4l0.1,1.2l0,1.4l0,1.4l-0.1,1.4l-0.2,1.3l-0.3,1.3l-0.3,1.3l-0.4,1.3l-0.5,1.3l-0.5,1.2l-0.6,1.3l-0.7,1l-0.8,1.3l-0.8,1l-0.7,1.1l-0.9,1.1l-1.1,0.9l-0.9,0.9l-1.1,0.9l-1.2,0.8l-1.1,0.7l-1.2,0.8l-1.2,0.6l-1.3,0.6l-1.3,0.5l-1.3,0.5l-1.3,0.4l-1.4,0.3l-1.4,0.3l-1.4,0.2l-1.5,0l-1.4,0.1l-1.3,0l-1.4,-0.1l-1.4,-0.2l-1.4,-0.3l-1.3,-0.3l-1.4,-0.3l-1.4,-0.5l-1.2,-0.6l-1.4,-0.6L748,212.9l-1.1,-0.6l-1.2,-0.8l-1.1,-0.9l-1,-0.7l-1.1,-1l-0.9,-1L740.7,207l-0.9,-1.1L739,204.7l-0.8,-1.1l-0.6,-1.2L737,201.1l-0.6,-1.2l-0.5,-1.2l-0.4,-1.4l-0.3,-1.2l-0.3,-1.4l-0.2,-1.3l0,-1.3l-0.1,-1.3Z" class="g6_11" />
<path d="M432.5,153.5l-31.5,0l0,-30.9l63,0l0,30.9l-31.5,0Z" class="g5_11" />
<path fill-rule="evenodd" d="M474.4,158.7l0,-1.4l0.1,-1.2l0.2,-1.4l0.3,-1.2l0.3,-1.2l0.3,-1.4l0.5,-1.2l0.4,-1.3l0.6,-1l0.6,-1.3l0.8,-1l0.8,-1.1l0.7,-1.1l0.9,-1l1,-0.9l0.9,-1l0.9,-0.9l1.1,-0.7l1.2,-1l1.1,-0.6l1.2,-0.7l1.2,-0.6l1.2,-0.5l1.2,-0.5l1.3,-0.4l1.3,-0.3l1.4,-0.3l1.4,-0.3l1.2,-0.2l1.4,-0.1l1.4,0l1.3,0l1.6,0.1l1.3,0.2l1.4,0.3l1.4,0.3l1.4,0.3l1.2,0.4l1.4,0.6l1.2,0.7l1.2,0.6l1.2,0.6l1.3,0.7l1,1l1.1,0.7l1.1,0.9l0.9,1.1l0.9,0.9l0.8,1.1l0.9,1.2l0.6,1.1l0.7,1.2l0.7,1.2l0.4,1.3l0.6,1.2l0.3,1.4l0.3,1.2l0.3,1.4l0.2,1.3l0.2,1.2l0,1.4l0,1.4l-0.2,1.4l-0.2,1.3l-0.3,1.3l-0.3,1.3l-0.4,1.3l-0.5,1.3l-0.4,1.3l-0.7,1.2l-0.7,1.1l-0.8,1.2l-0.7,1l-0.8,1.1l-0.9,1.1l-1.1,0.9l-0.9,0.9l-1.1,0.9l-1.2,0.8l-1.1,0.8l-1.2,0.7l-1.2,0.6l-1.2,0.7l-1.4,0.4l-1.2,0.5l-1.4,0.4l-1.4,0.3l-1.4,0.3l-1.3,0.2l-1.6,0l-1.3,0.1l-1.4,0l-1.4,-0.1L497.1,184l-1.3,-0.3l-1.4,-0.3L493,183.1l-1.4,-0.4l-1.2,-0.6L489,181.4l-1.2,-0.6l-1,-0.6l-1.3,-0.7l-1,-1l-1.1,-0.7l-1.1,-0.9l-0.9,-1.1l-0.9,-0.9l-0.9,-1.1l-0.8,-1.2L478,171.5l-0.6,-1.2l-0.6,-1.2l-0.6,-1.3l-0.5,-1.2l-0.4,-1.4L475,164l-0.3,-1.4l-0.2,-1.3l0,-1.2l-0.1,-1.4Z" class="g6_11" />
<path d="M374.8,774.7l-235,0l0,-157.1l469.8,0l0,157.1l-234.8,0Z" class="g5_11" />
<path d="M181.7,597l-39.6,0l0,-30.9l79,0l0,30.9l-39.4,0Z" class="g5_11" />
<path fill-rule="evenodd" d="M233.8,591.8l0,-1.2l0.1,-1.4l0.2,-1.2l0.3,-1.4l0.3,-1.2l0.3,-1.2l0.4,-1.3l0.5,-1.2l0.6,-1.2l0.6,-1.1l0.8,-1.2l0.7,-1.1l0.8,-1l0.9,-1l0.9,-1l1,-0.9l0.9,-1l1,-0.7l1.3,-0.8l1,-0.7l1.3,-0.7l1.2,-0.6l1.2,-0.6l1.2,-0.4l1.2,-0.5l1.4,-0.3l1.4,-0.3l1.4,-0.2l1.2,-0.1l1.4,-0.2l1.3,0l1.4,0l1.5,0.2l1.4,0.1l1.4,0.2l1.4,0.3l1.3,0.5l1.3,0.4l1.3,0.5l1.3,0.6l1.2,0.6l1.2,0.8l1.2,0.7l1.1,0.8l1.1,0.9l1,0.9l1,0.9l0.9,1.1l0.7,1.1l0.9,1l0.7,1.3l0.7,1l0.6,1.3l0.5,1.3l0.6,1.3l0.3,1.2l0.3,1.4l0.3,1.2l0.2,1.4l0.1,1.3l0,1.4l0,1.4l-0.1,1.2l-0.2,1.4l-0.3,1.3l-0.3,1.3l-0.4,1.3l-0.5,1.3l-0.5,1.2l-0.6,1.2l-0.7,1.2l-0.8,1.1l-0.8,1.2l-0.7,1.1l-0.9,0.9l-1.1,1.1l-0.9,0.9l-1.1,0.9l-1.2,0.8l-1.1,0.7l-1.2,0.8l-1.2,0.6l-1.3,0.6l-1.3,0.5l-1.3,0.4l-1.3,0.4l-1.4,0.3l-1.4,0.3l-1.4,0.1l-1.5,0.2l-1.4,0l-1.3,0l-1.4,-0.2l-1.4,-0.1L255.1,617l-1.3,-0.3l-1.4,-0.5L251,615.8l-1.2,-0.5l-1.4,-0.6l-1.2,-0.6l-1.1,-0.8l-1.2,-0.7l-1.1,-0.8l-1,-0.9L241.7,610l-0.9,-0.9L239.9,608l-1,-1.1l-0.7,-1l-0.8,-1.3l-0.6,-1l-0.6,-1.3L235.6,601l-0.5,-1.3l-0.4,-1.2l-0.3,-1.4l-0.3,-1.2l-0.2,-1.3l0,-1.4l-0.1,-1.4Z" class="g6_11" />
</svg>