<?xml version="1.0" encoding="UTF-8" standalone="no"?>
<!DOCTYPE svg PUBLIC "-//W3C//DTD SVG 1.1//EN"
"http://www.w3.org/Graphics/SVG/1.1/DTD/svg11.dtd">
<svg viewBox="0 0 909 1286" version="1.1" xmlns="http://www.w3.org/2000/svg" xmlns:xlink="http://www.w3.org/1999/xlink">
<defs>
<style type="text/css"><![CDATA[
.g1_14{
fill: none;
stroke: #000066;
stroke-width: 4.5833335;
stroke-linecap: butt;
stroke-linejoin: round;
}
.g2_14{
fill: none;
stroke: #000000;
stroke-width: 1.1458334;
stroke-linecap: butt;
stroke-linejoin: round;
}
.g3_14{
fill: #FFFFFF;
}
.g4_14{
}
.g5_14{
fill: none;
stroke: #FF0000;
stroke-width: 3.4375;
stroke-linecap: butt;
stroke-linejoin: round;
}
.g6_14{
fill: #376092;
}
]]></style>
</defs>
<path d="M78.1,99.1l794,0.1" class="g1_14" />
<path d="M96.6,1224.5l772.1,0.1" class="g2_14" />
<path fill-rule="evenodd" d="M112.3,97L435,97l0,1.2l-322.7,0l0,-1.2Z" class="g3_14" />
<path fill-rule="evenodd" d="M112.3,287.8l322.7,0l0,1.2l-322.7,0l0,-1.2Z" class="g3_14" />
<path fill-rule="evenodd" d="M112.3,98l1.2,0l0,189.9l-1.2,0L112.3,98Z" class="g3_14" />
<path fill-rule="evenodd" d="M433.7,98l1.3,0l0,189.9l-1.3,0L433.7,98Z" class="g3_14" />
<image preserveAspectRatio="none" x="106" y="92" width="338" height="196" xlink:href="img/1.png" />
<path fill-rule="evenodd" d="M112.9,288.4l-0.6,0.6l0,-192l0.6,0.6l0.6,0.6l0,189.6l-0.6,0.6Z" class="g4_14" />
<path fill-rule="evenodd" d="M434.3,288.4l-0.6,-0.6l0,-189.6l0.6,-0.6L435,97l0,192l-0.7,-0.6Z" class="g4_14" />
<path fill-rule="evenodd" d="M434.3,97.6l-0.6,0.6l-320.2,0l-0.6,-0.6L112.3,97L435,97l-0.7,0.6Z" class="g4_14" />
<path fill-rule="evenodd" d="M434.3,288.4L435,289l-322.7,0l0.6,-0.6l0.6,-0.6l320.2,0l0.6,0.6Z" class="g4_14" />
<image preserveAspectRatio="none" x="112" y="401" width="690" height="189" xlink:href="img/2.png" />
<image preserveAspectRatio="none" x="112" y="830" width="690" height="324" xlink:href="img/3.png" />
<path d="M262,267.8l-54.4,0l0,-35.8l108.7,0l0,35.8l-54.3,0Z" class="g5_14" />
<path fill-rule="evenodd" d="M172.9,222.2l0,-1.2l0.2,-1.2l0.2,-1.2l0.3,-1.3l0.1,-1.2l0.5,-1.2l0.3,-1.1l0.4,-1.2l0.6,-1.1l0.7,-1l0.6,-1.1l0.6,-0.9l0.7,-1.1l1,-0.9l0.7,-0.9l0.9,-0.8l1,-0.7l0.9,-0.8l1,-0.8l1.1,-0.6l1.1,-0.6l1,-0.5l1.1,-0.4l1.2,-0.5l1.3,-0.3l1,-0.3l1.3,-0.3l1.2,-0.1l1.2,-0.2l1.2,0l1.2,0l1.3,0.2L200,199l1.2,0.3l1.2,0.2l1.3,0.4l1,0.3l1.1,0.6l1.2,0.5l1.1,0.6l1.1,0.6l0.9,0.8l1,0.6l1,0.9l0.7,0.8l0.9,0.9l0.8,0.9l0.8,1.1l0.7,0.9l0.6,1.1l0.6,1l0.5,1.1l0.5,1.2l0.4,1.1l0.3,1.2l0.3,1.2l0.2,1.3l0.1,1.2l0.2,1.2l0,1.2l0,1.3l-0.2,1.2l-0.1,1.2l-0.2,1.2l-0.3,1.1l-0.3,1.2l-0.4,1.2l-0.5,1.1l-0.5,1.1l-0.6,1l-0.6,1.1l-0.7,1.1l-0.8,0.9l-0.8,0.9l-0.9,0.9l-0.7,0.9l-1,0.8l-1,0.8l-0.9,0.6l-1.1,0.8L207,243l-1.1,0.6l-1.2,0.5l-1,0.4l-1.3,0.3l-1.2,0.3l-1.2,0.2l-1.2,0.2l-1.3,0.1l-1.2,0l-1.2,0l-1.2,-0.1l-1.2,-0.2L191.4,245l-1,-0.2l-1.3,-0.4l-1.2,-0.3l-1.1,-0.5l-1,-0.6l-1.1,-0.6l-1.1,-0.6l-1,-0.6l-0.9,-0.8l-1,-0.9l-0.9,-0.8l-0.9,-0.9l-0.8,-0.9L177.4,236l-0.6,-1.1L176,233.8l-0.5,-1l-0.6,-1.1l-0.4,-1.1L174,229.4l-0.3,-1.2l-0.3,-1.1l-0.1,-1.2l-0.2,-1.2l-0.2,-1.2l0,-1.3Z" class="g6_14" />
<path d="M462.3,561.7l-339.9,0l0,-95.2l679.7,0l0,95.2l-339.8,0Z" class="g5_14" />
<path fill-rule="evenodd" d="M471,466.5l0,-1.2l0.2,-1.2l0.1,-1.2l0.3,-1.3l0.2,-1.2l0.4,-1.2l0.3,-1.1l0.5,-1l0.6,-1.3l0.6,-1l0.6,-1.1l0.6,-0.9l0.8,-1.1l0.9,-0.9l0.8,-0.8l0.9,-0.9l0.9,-0.8l0.9,-0.7l1.1,-0.8l1.1,-0.6l1,-0.6l1.1,-0.5l1.1,-0.4l1.2,-0.5l1.2,-0.3l1.1,-0.3l1.2,-0.1l1.2,-0.2l1.3,-0.2l1.2,0l1.2,0l1.2,0.2l1.3,0.2l1.2,0.1l1.2,0.3l1.2,0.3l1.1,0.5l1.1,0.4l1.2,0.5l1.1,0.6l1,0.6l0.9,0.8l1.1,0.7l0.9,0.8l0.8,0.9l0.9,0.8l0.8,0.9l0.7,1.1l0.8,0.9l0.6,1.1l0.6,1l0.5,1.3l0.4,1l0.5,1.1l0.3,1.2l0.3,1.2l0.2,1.3l0.1,1.2l0.2,1.2l0,1.2l0,1.2l-0.2,1.3l-0.1,1.2l-0.3,1.1l-0.2,1.2l-0.5,1.2l-0.3,1.1l-0.4,1.2l-0.6,1.1l-0.6,1l-0.7,1.1l-0.6,1.1l-0.7,0.9l-0.8,0.9l-0.9,0.9l-0.9,0.8l-0.9,0.8l-1,0.7l-1,0.8l-0.9,0.6l-1.1,0.6l-1.2,0.5l-1.1,0.4l-1.2,0.5l-1.1,0.3l-1.2,0.3l-1.2,0.3l-1.3,0.1l-1.2,0.2l-1.2,0l0,-0.2l-1.2,0l-1.3,-0.1l-1.2,-0.2l-1,-0.1L488.4,489l-1.2,-0.3l-1.1,-0.5l-1.2,-0.4l-1.1,-0.5l-1,-0.6l-1.1,-0.6l-1.1,-0.8l-0.9,-0.7l-0.9,-0.8L477.9,483l-0.8,-0.9l-0.7,-0.9l-0.8,-1.1l-0.8,-0.9l-0.6,-1.1l-0.6,-1L473.2,476l-0.5,-1.2l-0.5,-1.1l-0.3,-1.2l-0.3,-1.2l-0.3,-1.1L471.2,469L471,467.7l0,-1.2Z" class="g6_14" />
<path d="M552.1,1075l-42,0l0,-80.3l84.1,0l0,80.3l-42.1,0Z" class="g5_14" />
<path fill-rule="evenodd" d="M447.9,1018.2l0,-1.2l0.2,-1.2l0.1,-1.3l0.4,-1.2l0.1,-1.2l0.5,-1.2l0.3,-1.1l0.4,-1.2l0.6,-1.1l0.7,-1.1l0.6,-1l0.6,-0.9l0.7,-1.1l1,-0.9l0.7,-0.9l0.9,-0.8l1,-0.8l0.9,-0.7l1,-0.8l1.1,-0.6l1.1,-0.6l1,-0.5l1.1,-0.4l1.2,-0.5l1.3,-0.3l1,-0.3l1.3,-0.3l1.2,-0.2l1.2,-0.1l1.2,0l1.2,0l1.3,0.1L475,995l1.2,0.3l1.2,0.1l1.3,0.5l1,0.3l1.1,0.6l1.2,0.5l1.1,0.6l1.1,0.6l0.9,0.8l1,0.6l1,0.9l0.7,0.8l0.9,0.9l0.8,0.9l0.8,1.1l0.7,0.9l0.6,1l0.7,1.1l0.4,1.1l0.5,1.2l0.4,1.1l0.3,1.2l0.3,1.2l0.2,1.2l0.1,1.3l0.2,1.2l0,1.2l0,1.2l-0.2,1.2l-0.1,1.3l-0.2,1.2l-0.3,1.1l-0.3,1.2l-0.4,1.2l-0.5,1.1l-0.4,1l-0.7,1.1l-0.6,1.1l-0.7,1.1l-0.8,0.9l-0.8,0.9l-0.9,0.9l-0.7,0.9l-1,0.8l-1,0.7l-0.9,0.7l-1.1,0.7L482,1039l-1.1,0.6l-1.2,0.5l-1,0.4l-1.3,0.3l-1.2,0.3l-1.2,0.2l-1.2,0.1l-1.3,0.2l-1.2,0l-1.2,0l-1.2,-0.2l-1.2,-0.1l-1.3,-0.3l-1,-0.2l-1.3,-0.4l-1.2,-0.3l-1.1,-0.5l-1,-0.6l-1.1,-0.6l-1.1,-0.6l-1,-0.7l-0.9,-0.7l-1,-0.9l-0.9,-0.8l-0.9,-0.9l-0.8,-0.9l-0.7,-0.9l-0.6,-1.1l-0.8,-1.1l-0.5,-1.1l-0.6,-1l-0.4,-1.1l-0.5,-1.2l-0.3,-1.2l-0.3,-1.1l-0.2,-1.2l-0.1,-1.3l-0.2,-1.2l0,-1.2Z" class="g6_14" />
</svg>